M48
INCH,LZ
;FILE_FORMAT=2:4
;TYPE=PLATED
;Layer: PTH_Through_Via
;EasyEDA v6.5.44, 2024-07-16 09:33:37
;92fc93377fd146f58095a2b6f3fb7df7,4528e9a37e1d4fff95ee12c27a66ef09,10
;Gerber Generator version 0.2
;Holesize 1 = 0.0120 inch
T01C0.0120
%
G05
G90
T01
X022125Y044750
X023500Y044750
X024875Y044750
X020750Y044750
X029601Y036750
X024951Y036750
X020651Y036750
X047050Y039700
X049650Y042250
X009900Y038950
X007150Y041750
X012600Y041700
X009900Y044450
X007150Y055400
X009850Y052600
X012600Y055350
X009900Y058050
X048826Y053450
X045550Y044950
X049700Y058150
X048826Y058150
X047850Y058150
X023944Y041850
X022494Y041850
X025900Y042500
X025900Y043050
X046800Y052350
X045800Y052300
X042900Y053900
X044826Y052307
X043200Y050850
X042826Y052307
X033000Y042200
X026750Y041250
X040100Y051850
X041250Y053850
X041200Y054850
X041200Y055850
X041200Y056850
X041192Y057850
X044850Y059400
X043850Y059400
X034950Y046500
X034950Y046500
M30
