G04 Layer: TopLayer*
G04 EasyEDA v6.5.44, 2024-07-16 09:33:37*
G04 92fc93377fd146f58095a2b6f3fb7df7,4528e9a37e1d4fff95ee12c27a66ef09,10*
G04 Gerber Generator version 0.2*
G04 Scale: 100 percent, Rotated: No, Reflected: No *
G04 Dimensions in inches *
G04 leading zeros omitted , absolute positions ,3 integer and 6 decimal *
%FSLAX36Y36*%
%MOIN*%

%AMMACRO1*21,1,$1,$2,0,0,$3*%
%ADD10C,0.0100*%
%ADD11C,0.0197*%
%ADD12C,0.0600*%
%ADD13R,0.0236X0.0421*%
%ADD14MACRO1,0.0542X0.0446X-90.0000*%
%ADD15MACRO1,0.0542X0.0446X0.0000*%
%ADD16R,0.0542X0.0446*%
%ADD17C,0.0244*%
%ADD18C,0.0129*%

%LPD*%
G36*
X3714200Y3530200D02*
G01*
X3712660Y3530500D01*
X3711380Y3531380D01*
X3710500Y3532660D01*
X3710200Y3534200D01*
X3710200Y3549420D01*
X3715000Y4014600D01*
X3714600Y4015000D01*
X3701780Y4015000D01*
X3699780Y4015200D01*
X3070220Y4015200D01*
X3068220Y4015000D01*
X3060400Y4015000D01*
X3060000Y4014600D01*
X3059980Y4006340D01*
X3059800Y4004780D01*
X3059800Y3539200D01*
X3059500Y3537660D01*
X3058620Y3536380D01*
X3057340Y3535500D01*
X3055800Y3535200D01*
X693240Y3535200D01*
X691900Y3535440D01*
X690699Y3536100D01*
X689800Y3537140D01*
X689320Y3538420D01*
X685280Y3558620D01*
X685200Y3559400D01*
X685200Y3654960D01*
X685000Y3664540D01*
X685000Y3699600D01*
X684840Y3700200D01*
X669900Y3720179D01*
X655200Y3744660D01*
X654680Y3745240D01*
X635080Y3759940D01*
X620220Y3769860D01*
X619740Y3770080D01*
X604840Y3775020D01*
X579080Y3779320D01*
X577340Y3779880D01*
X574760Y3780200D01*
X427819Y3780200D01*
X426200Y3780539D01*
X424860Y3781500D01*
X424020Y3782940D01*
X411820Y3819540D01*
X404159Y3847160D01*
X404060Y3848840D01*
X404660Y3850419D01*
X405860Y3851600D01*
X407440Y3852180D01*
X427220Y3855000D01*
X434540Y3855000D01*
X435420Y3855200D01*
X454720Y3864860D01*
X455220Y3865220D01*
X464680Y3874680D01*
X465140Y3875440D01*
X469900Y3889700D01*
X470000Y3890320D01*
X470020Y3898620D01*
X470379Y3901800D01*
X470439Y3907040D01*
X470360Y3908620D01*
X470000Y3911720D01*
X470000Y3929600D01*
X469880Y3930160D01*
X460280Y3944560D01*
X459540Y3945240D01*
X440420Y3954800D01*
X439540Y3955000D01*
X426900Y3955020D01*
X421420Y3955460D01*
X419820Y3955480D01*
X414620Y3955200D01*
X375740Y3955200D01*
X374060Y3955560D01*
X372700Y3956600D01*
X371900Y3958120D01*
X310360Y4175880D01*
X310200Y4176960D01*
X310200Y5510240D01*
X310340Y5511260D01*
X364980Y5719940D01*
X387680Y5816880D01*
X423140Y5955660D01*
X423780Y5957020D01*
X424900Y5958060D01*
X578820Y6054260D01*
X579800Y6054700D01*
X580880Y6054860D01*
X592880Y6055000D01*
X1011000Y6055000D01*
X1012540Y6054700D01*
X1013820Y6053819D01*
X1014700Y6052540D01*
X1015000Y6051000D01*
X1015000Y6000520D01*
X1015260Y5999539D01*
X1026460Y5979940D01*
X1028620Y5974020D01*
X1032780Y5964620D01*
X1037700Y5955580D01*
X1043300Y5946980D01*
X1048960Y5939600D01*
X1050760Y5937420D01*
X1054760Y5930400D01*
X1055380Y5929740D01*
X1066000Y5922660D01*
X1072080Y5917840D01*
X1080600Y5912120D01*
X1089580Y5907100D01*
X1098000Y5903200D01*
X1100880Y5902060D01*
X1124580Y5890200D01*
X1125460Y5890000D01*
X1145120Y5890019D01*
X1185180Y5895060D01*
X1214560Y5904860D01*
X1215320Y5905320D01*
X1254780Y5944779D01*
X1255140Y5945280D01*
X1274800Y5984580D01*
X1275000Y5985460D01*
X1275000Y6013060D01*
X1275260Y6017220D01*
X1275200Y6055800D01*
X1275500Y6057340D01*
X1276380Y6058620D01*
X1277660Y6059500D01*
X1279200Y6059800D01*
X4048540Y6059800D01*
X4050080Y6059500D01*
X4051380Y6058620D01*
X4053620Y6056380D01*
X4054500Y6055080D01*
X4054800Y6053540D01*
X4054800Y6005200D01*
X4055000Y6003000D01*
X4055000Y5995320D01*
X4055100Y5994700D01*
X4065059Y5964880D01*
X4074860Y5945280D01*
X4075220Y5944779D01*
X4109820Y5910180D01*
X4110220Y5909880D01*
X4134540Y5895280D01*
X4135539Y5895000D01*
X4152740Y5895000D01*
X4153720Y5894880D01*
X4156740Y5894120D01*
X4167100Y5892260D01*
X4177600Y5891240D01*
X4188159Y5891079D01*
X4194440Y5891420D01*
X4209740Y5890019D01*
X4210260Y5890040D01*
X4239580Y5894940D01*
X4240360Y5895240D01*
X4255060Y5905060D01*
X4280120Y5925140D01*
X4314740Y5964700D01*
X4315020Y5965240D01*
X4320000Y6019900D01*
X4320000Y6053339D01*
X4320300Y6054880D01*
X4321180Y6056180D01*
X4323620Y6058620D01*
X4324920Y6059500D01*
X4326460Y6059800D01*
X4737580Y6059760D01*
X4752620Y6059620D01*
X4767420Y6058720D01*
X4772560Y6058120D01*
X4785100Y6054980D01*
X4831680Y6045640D01*
X4839720Y6043000D01*
X4853580Y6037660D01*
X4867140Y6031620D01*
X4880360Y6024900D01*
X4893220Y6017519D01*
X4905700Y6009480D01*
X4917740Y6000800D01*
X4925160Y5994840D01*
X4954680Y5965320D01*
X4955240Y5964620D01*
X4980020Y5924960D01*
X5009780Y5875380D01*
X5010140Y5874580D01*
X5019860Y5845440D01*
X5020040Y5844539D01*
X5030000Y5739800D01*
X5030000Y5249000D01*
X5029700Y5247460D01*
X5028820Y5246180D01*
X5027540Y5245300D01*
X5026000Y5245000D01*
X4702300Y5245000D01*
X4701020Y5245200D01*
X4699860Y5245820D01*
X4698980Y5246760D01*
X4697420Y5249059D01*
X4694800Y5251799D01*
X4691740Y5254059D01*
X4688340Y5255780D01*
X4684720Y5256880D01*
X4680960Y5257380D01*
X4677160Y5257200D01*
X4673440Y5256400D01*
X4669920Y5255000D01*
X4666680Y5253000D01*
X4663840Y5250500D01*
X4661440Y5247540D01*
X4659600Y5244220D01*
X4658340Y5240640D01*
X4657700Y5236900D01*
X4657700Y5233099D01*
X4658340Y5229360D01*
X4659580Y5225839D01*
X4659800Y5224520D01*
X4659800Y4259760D01*
X4659540Y4258380D01*
X4658820Y4257160D01*
X4657720Y4256260D01*
X4653380Y4253880D01*
X4649060Y4250700D01*
X4645200Y4246960D01*
X4641860Y4242740D01*
X4639120Y4238120D01*
X4637040Y4233180D01*
X4635620Y4228000D01*
X4634900Y4222680D01*
X4634900Y4217320D01*
X4635620Y4212000D01*
X4637040Y4206820D01*
X4639120Y4201880D01*
X4641860Y4197260D01*
X4645200Y4193039D01*
X4649060Y4189300D01*
X4653380Y4186120D01*
X4658080Y4183540D01*
X4663100Y4181620D01*
X4665440Y4181060D01*
X4666640Y4180539D01*
X4667620Y4179660D01*
X4668280Y4178519D01*
X4671300Y4170179D01*
X4675820Y4160000D01*
X4681020Y4150140D01*
X4686920Y4140659D01*
X4693460Y4131640D01*
X4700600Y4123080D01*
X4708320Y4115020D01*
X4716580Y4107540D01*
X4725340Y4100640D01*
X4734580Y4094380D01*
X4744200Y4088759D01*
X4754220Y4083840D01*
X4764540Y4079620D01*
X4775120Y4076120D01*
X4785940Y4073380D01*
X4796900Y4071380D01*
X4807980Y4070160D01*
X4819140Y4069720D01*
X4830280Y4070040D01*
X4841380Y4071139D01*
X4852360Y4073020D01*
X4863200Y4075640D01*
X4873840Y4079020D01*
X4884200Y4083140D01*
X4894260Y4087960D01*
X4903960Y4093460D01*
X4913240Y4099620D01*
X4921980Y4106340D01*
X4924160Y4108560D01*
X4925820Y4111040D01*
X4926940Y4113780D01*
X4927520Y4116700D01*
X4927500Y4119680D01*
X4926920Y4122600D01*
X4925760Y4125340D01*
X4924100Y4127820D01*
X4922000Y4129900D01*
X4919520Y4131560D01*
X4917520Y4132380D01*
X4916220Y4133240D01*
X4915340Y4134540D01*
X4915040Y4136080D01*
X4915040Y4299820D01*
X4914720Y4303480D01*
X4913820Y4306840D01*
X4912340Y4310020D01*
X4910340Y4312880D01*
X4907880Y4315340D01*
X4905020Y4317340D01*
X4901840Y4318820D01*
X4898480Y4319720D01*
X4895000Y4320020D01*
X4891520Y4319720D01*
X4888160Y4318820D01*
X4884980Y4317340D01*
X4882120Y4315340D01*
X4879660Y4312880D01*
X4877660Y4310020D01*
X4876180Y4306840D01*
X4875280Y4303480D01*
X4874960Y4299820D01*
X4874960Y4115000D01*
X4874660Y4113500D01*
X4873820Y4112200D01*
X4872560Y4111340D01*
X4867100Y4108960D01*
X4857340Y4105600D01*
X4847340Y4103020D01*
X4839740Y4101700D01*
X4838000Y4101760D01*
X4836460Y4102559D01*
X4835420Y4103940D01*
X4835040Y4105640D01*
X4835040Y4344820D01*
X4834720Y4348480D01*
X4833800Y4351860D01*
X4832340Y4355020D01*
X4830340Y4357880D01*
X4827860Y4360340D01*
X4825000Y4362340D01*
X4821840Y4363820D01*
X4818460Y4364720D01*
X4814980Y4365020D01*
X4811520Y4364720D01*
X4808140Y4363820D01*
X4804980Y4362340D01*
X4802120Y4360340D01*
X4799640Y4357880D01*
X4797640Y4355020D01*
X4796180Y4351840D01*
X4795260Y4348480D01*
X4794940Y4344820D01*
X4794960Y4107600D01*
X4794700Y4106200D01*
X4793960Y4104980D01*
X4792860Y4104080D01*
X4791500Y4103639D01*
X4790060Y4103700D01*
X4785960Y4104660D01*
X4776120Y4107760D01*
X4766540Y4111620D01*
X4757580Y4116100D01*
X4756240Y4117140D01*
X4755360Y4118460D01*
X4755040Y4120000D01*
X4755040Y4299820D01*
X4754720Y4303480D01*
X4753820Y4306840D01*
X4752340Y4310020D01*
X4750340Y4312880D01*
X4747880Y4315340D01*
X4745020Y4317340D01*
X4741840Y4318820D01*
X4738480Y4319720D01*
X4735000Y4320020D01*
X4731520Y4319720D01*
X4728160Y4318820D01*
X4724980Y4317340D01*
X4722120Y4315340D01*
X4719660Y4312880D01*
X4717660Y4310020D01*
X4716180Y4306840D01*
X4715280Y4303480D01*
X4714960Y4299820D01*
X4714960Y4245540D01*
X4714600Y4243900D01*
X4713600Y4242540D01*
X4712140Y4241720D01*
X4710460Y4241580D01*
X4708880Y4242120D01*
X4707660Y4243280D01*
X4706540Y4244900D01*
X4702940Y4248900D01*
X4698840Y4252360D01*
X4694320Y4255240D01*
X4692520Y4256080D01*
X4691300Y4256960D01*
X4690480Y4258220D01*
X4690200Y4259700D01*
X4690200Y5212780D01*
X4690400Y5214000D01*
X4690960Y5215119D01*
X4691820Y5216000D01*
X4693620Y5217320D01*
X4695220Y5218040D01*
X4696980Y5217980D01*
X4698540Y5217200D01*
X4699620Y5215820D01*
X4700000Y5214100D01*
X4700000Y4440400D01*
X4700400Y4440000D01*
X5026000Y4440000D01*
X5027540Y4439700D01*
X5028820Y4438820D01*
X5029700Y4437540D01*
X5030000Y4436000D01*
X5030000Y3844200D01*
X5029700Y3842660D01*
X5028820Y3841380D01*
X5027540Y3840500D01*
X5026000Y3840200D01*
X4855140Y3840200D01*
X4852220Y3840000D01*
X4825460Y3840000D01*
X4824580Y3839800D01*
X4794860Y3824900D01*
X4775320Y3810240D01*
X4774800Y3809660D01*
X4760280Y3785460D01*
X4760000Y3784460D01*
X4760000Y3780940D01*
X4759580Y3779160D01*
X4750200Y3760419D01*
X4750000Y3759540D01*
X4750000Y3737780D01*
X4749800Y3734860D01*
X4749800Y3622760D01*
X4749460Y3621160D01*
X4748520Y3619840D01*
X4747140Y3618980D01*
X4670600Y3591980D01*
X4555560Y3555000D01*
X4476220Y3530380D01*
X4475040Y3530200D01*
G37*

%LPC*%
G36*
X1880000Y3619980D02*
G01*
X1883480Y3620280D01*
X1886840Y3621180D01*
X1890020Y3622660D01*
X1892880Y3624660D01*
X1895340Y3627120D01*
X1897340Y3629980D01*
X1898820Y3633159D01*
X1899720Y3636520D01*
X1900040Y3640179D01*
X1900040Y3725800D01*
X1900340Y3727340D01*
X1901220Y3728620D01*
X1902520Y3729500D01*
X1904040Y3729800D01*
X1935960Y3729800D01*
X1937480Y3729500D01*
X1938779Y3728620D01*
X1939660Y3727340D01*
X1939960Y3725800D01*
X1939960Y3642679D01*
X1940280Y3639020D01*
X1941180Y3635659D01*
X1942660Y3632480D01*
X1944660Y3629620D01*
X1947120Y3627160D01*
X1949980Y3625160D01*
X1953160Y3623680D01*
X1956519Y3622780D01*
X1960000Y3622480D01*
X1963480Y3622780D01*
X1966840Y3623680D01*
X1970020Y3625160D01*
X1972880Y3627160D01*
X1975340Y3629620D01*
X1977340Y3632480D01*
X1978820Y3635659D01*
X1979720Y3639020D01*
X1980040Y3642679D01*
X1980040Y3725800D01*
X1980340Y3727340D01*
X1981220Y3728620D01*
X1982520Y3729500D01*
X1984040Y3729800D01*
X2024800Y3729800D01*
X2027960Y3730120D01*
X2030800Y3730980D01*
X2033440Y3732380D01*
X2035740Y3734260D01*
X2037620Y3736560D01*
X2039019Y3739200D01*
X2039880Y3742040D01*
X2040180Y3745000D01*
X2039880Y3747960D01*
X2039019Y3750800D01*
X2037620Y3753440D01*
X2035740Y3755740D01*
X2033440Y3757620D01*
X2030800Y3759020D01*
X2027960Y3759880D01*
X2024800Y3760200D01*
X1805200Y3760200D01*
X1802040Y3759880D01*
X1799199Y3759020D01*
X1796560Y3757620D01*
X1794259Y3755740D01*
X1792380Y3753440D01*
X1790980Y3750800D01*
X1790120Y3747960D01*
X1789800Y3744800D01*
X1789800Y3713960D01*
X1789480Y3712400D01*
X1788580Y3711100D01*
X1787240Y3710240D01*
X1785660Y3709960D01*
X1784120Y3710340D01*
X1782520Y3711080D01*
X1781300Y3711960D01*
X1780480Y3713220D01*
X1780200Y3714700D01*
X1780200Y3787040D01*
X1780500Y3788580D01*
X1781380Y3789880D01*
X1825120Y3833620D01*
X1826420Y3834500D01*
X1827960Y3834800D01*
X2224800Y3834800D01*
X2227960Y3835120D01*
X2230800Y3835980D01*
X2233440Y3837380D01*
X2235880Y3839400D01*
X2505120Y4108620D01*
X2506420Y4109500D01*
X2507960Y4109800D01*
X2514140Y4109800D01*
X2515720Y4109460D01*
X2517060Y4108540D01*
X2517900Y4107140D01*
X2518120Y4105539D01*
X2517700Y4103980D01*
X2516680Y4102700D01*
X2514120Y4100600D01*
X2184400Y3770880D01*
X2182380Y3768440D01*
X2180980Y3765800D01*
X2180120Y3762960D01*
X2179800Y3759800D01*
X2179800Y3714760D01*
X2179540Y3713380D01*
X2178820Y3712160D01*
X2177720Y3711259D01*
X2173380Y3708880D01*
X2169060Y3705700D01*
X2165200Y3701960D01*
X2161860Y3697740D01*
X2159120Y3693120D01*
X2157040Y3688180D01*
X2155620Y3683000D01*
X2154900Y3677679D01*
X2154900Y3672320D01*
X2155620Y3667000D01*
X2157040Y3661820D01*
X2159120Y3656880D01*
X2161860Y3652260D01*
X2165200Y3648039D01*
X2169060Y3644300D01*
X2173380Y3641120D01*
X2178080Y3638540D01*
X2183100Y3636620D01*
X2188320Y3635360D01*
X2193660Y3634840D01*
X2199020Y3635020D01*
X2204320Y3635899D01*
X2209440Y3637500D01*
X2214320Y3639760D01*
X2218840Y3642640D01*
X2222940Y3646100D01*
X2226540Y3650100D01*
X2229580Y3654520D01*
X2231140Y3657600D01*
X2231940Y3658680D01*
X2233040Y3659420D01*
X2234340Y3659780D01*
X2237980Y3660100D01*
X2240800Y3660960D01*
X2243440Y3662360D01*
X2245740Y3664260D01*
X2247620Y3666560D01*
X2249020Y3669180D01*
X2249880Y3672020D01*
X2250200Y3675179D01*
X2250200Y3725800D01*
X2250500Y3727340D01*
X2251380Y3728620D01*
X2252660Y3729500D01*
X2254200Y3729800D01*
X2285960Y3729800D01*
X2287480Y3729500D01*
X2288780Y3728620D01*
X2289660Y3727340D01*
X2289960Y3725800D01*
X2289960Y3640179D01*
X2290280Y3636520D01*
X2291180Y3633140D01*
X2292660Y3629980D01*
X2294660Y3627120D01*
X2297120Y3624660D01*
X2299980Y3622660D01*
X2303160Y3621180D01*
X2306520Y3620280D01*
X2310000Y3619980D01*
X2313480Y3620280D01*
X2316860Y3621180D01*
X2320020Y3622660D01*
X2322880Y3624660D01*
X2325340Y3627120D01*
X2327340Y3629980D01*
X2328820Y3633140D01*
X2329720Y3636520D01*
X2330040Y3640179D01*
X2330040Y3725800D01*
X2330340Y3727340D01*
X2331220Y3728620D01*
X2332520Y3729500D01*
X2334040Y3729800D01*
X2365960Y3729800D01*
X2367480Y3729500D01*
X2368780Y3728620D01*
X2369660Y3727340D01*
X2369960Y3725800D01*
X2369960Y3642679D01*
X2370280Y3639020D01*
X2371180Y3635640D01*
X2372660Y3632480D01*
X2374660Y3629620D01*
X2377120Y3627160D01*
X2379980Y3625160D01*
X2383160Y3623680D01*
X2386520Y3622780D01*
X2390000Y3622480D01*
X2393480Y3622780D01*
X2396860Y3623680D01*
X2400020Y3625160D01*
X2402880Y3627160D01*
X2405340Y3629620D01*
X2407340Y3632480D01*
X2408820Y3635640D01*
X2409720Y3639020D01*
X2410040Y3642679D01*
X2410040Y3725800D01*
X2410340Y3727340D01*
X2411220Y3728620D01*
X2412520Y3729500D01*
X2414040Y3729800D01*
X2454800Y3729800D01*
X2457960Y3730120D01*
X2460800Y3730980D01*
X2463440Y3732380D01*
X2465740Y3734260D01*
X2467620Y3736560D01*
X2469020Y3739200D01*
X2469880Y3742040D01*
X2470180Y3745000D01*
X2469880Y3747960D01*
X2469020Y3750800D01*
X2467620Y3753440D01*
X2465740Y3755740D01*
X2463440Y3757620D01*
X2460800Y3759020D01*
X2457960Y3759880D01*
X2454800Y3760200D01*
X2235200Y3760200D01*
X2232040Y3759880D01*
X2229200Y3759020D01*
X2226560Y3757620D01*
X2224260Y3755740D01*
X2222380Y3753440D01*
X2220980Y3750800D01*
X2220120Y3747960D01*
X2219800Y3744800D01*
X2219800Y3713960D01*
X2219480Y3712400D01*
X2218580Y3711100D01*
X2217240Y3710240D01*
X2215660Y3709960D01*
X2214120Y3710340D01*
X2212520Y3711080D01*
X2211300Y3711960D01*
X2210480Y3713220D01*
X2210200Y3714700D01*
X2210200Y3752040D01*
X2210500Y3753580D01*
X2211380Y3754880D01*
X2530120Y4073620D01*
X2531420Y4074500D01*
X2532960Y4074800D01*
X2938639Y4074800D01*
X2940179Y4074500D01*
X2941480Y4073620D01*
X2942340Y4072340D01*
X2942640Y4070800D01*
X2942340Y4069260D01*
X2941480Y4067980D01*
X2649400Y3775880D01*
X2647380Y3773440D01*
X2645980Y3770800D01*
X2645120Y3767960D01*
X2644800Y3764800D01*
X2644800Y3714760D01*
X2644540Y3713380D01*
X2643820Y3712160D01*
X2642720Y3711259D01*
X2638380Y3708880D01*
X2634060Y3705700D01*
X2630200Y3701960D01*
X2626860Y3697740D01*
X2624120Y3693120D01*
X2622040Y3688180D01*
X2620620Y3683000D01*
X2619900Y3677679D01*
X2619900Y3672320D01*
X2620620Y3667000D01*
X2622040Y3661820D01*
X2624120Y3656880D01*
X2626860Y3652260D01*
X2630200Y3648039D01*
X2634060Y3644300D01*
X2638380Y3641120D01*
X2643080Y3638540D01*
X2648100Y3636620D01*
X2653320Y3635360D01*
X2658660Y3634840D01*
X2664020Y3635020D01*
X2669320Y3635899D01*
X2674440Y3637500D01*
X2679320Y3639760D01*
X2683840Y3642640D01*
X2687940Y3646100D01*
X2691540Y3650100D01*
X2694580Y3654520D01*
X2697000Y3659300D01*
X2698020Y3662240D01*
X2698780Y3663560D01*
X2699960Y3664480D01*
X2701400Y3664920D01*
X2702960Y3665080D01*
X2705820Y3665940D01*
X2708440Y3667340D01*
X2710740Y3669220D01*
X2712620Y3671520D01*
X2714020Y3674160D01*
X2714900Y3677000D01*
X2715200Y3680160D01*
X2715200Y3725800D01*
X2715500Y3727320D01*
X2716380Y3728620D01*
X2717679Y3729500D01*
X2719200Y3729800D01*
X2750960Y3729800D01*
X2752480Y3729500D01*
X2753780Y3728620D01*
X2754660Y3727320D01*
X2754960Y3725800D01*
X2754960Y3640179D01*
X2755280Y3636520D01*
X2756180Y3633140D01*
X2757660Y3629980D01*
X2759660Y3627120D01*
X2762120Y3624660D01*
X2764980Y3622660D01*
X2768159Y3621180D01*
X2771520Y3620280D01*
X2775000Y3619980D01*
X2778480Y3620280D01*
X2781860Y3621180D01*
X2785020Y3622660D01*
X2787880Y3624660D01*
X2790340Y3627120D01*
X2792340Y3629980D01*
X2793820Y3633140D01*
X2794720Y3636520D01*
X2795040Y3640179D01*
X2795040Y3725800D01*
X2795340Y3727320D01*
X2796220Y3728620D01*
X2797520Y3729500D01*
X2799040Y3729800D01*
X2830960Y3729800D01*
X2832480Y3729500D01*
X2833780Y3728620D01*
X2834660Y3727320D01*
X2834960Y3725800D01*
X2834960Y3642679D01*
X2835280Y3639020D01*
X2836180Y3635640D01*
X2837660Y3632480D01*
X2839660Y3629620D01*
X2842120Y3627160D01*
X2844980Y3625160D01*
X2848159Y3623680D01*
X2851520Y3622780D01*
X2855000Y3622480D01*
X2858480Y3622780D01*
X2861860Y3623680D01*
X2865020Y3625160D01*
X2867880Y3627160D01*
X2870340Y3629620D01*
X2872340Y3632480D01*
X2873820Y3635640D01*
X2874720Y3639020D01*
X2875040Y3642679D01*
X2875040Y3725800D01*
X2875340Y3727320D01*
X2876220Y3728620D01*
X2877520Y3729500D01*
X2879040Y3729800D01*
X2919800Y3729800D01*
X2922960Y3730100D01*
X2925820Y3730980D01*
X2928440Y3732380D01*
X2930740Y3734260D01*
X2932620Y3736560D01*
X2934020Y3739180D01*
X2934900Y3742040D01*
X2935179Y3745000D01*
X2934900Y3747960D01*
X2934020Y3750800D01*
X2932620Y3753440D01*
X2930740Y3755740D01*
X2928440Y3757620D01*
X2925820Y3759020D01*
X2922960Y3759880D01*
X2919800Y3760200D01*
X2700200Y3760200D01*
X2697040Y3759880D01*
X2694200Y3759020D01*
X2691560Y3757620D01*
X2689260Y3755740D01*
X2687380Y3753440D01*
X2685980Y3750800D01*
X2685120Y3747960D01*
X2684800Y3744800D01*
X2684800Y3713960D01*
X2684480Y3712400D01*
X2683580Y3711100D01*
X2682240Y3710240D01*
X2680659Y3709960D01*
X2679120Y3710340D01*
X2677520Y3711080D01*
X2676300Y3711960D01*
X2675480Y3713220D01*
X2675200Y3714700D01*
X2675200Y3757040D01*
X2675500Y3758580D01*
X2676380Y3759880D01*
X2960120Y4043620D01*
X2961420Y4044500D01*
X2962960Y4044800D01*
X4024800Y4044800D01*
X4027960Y4045120D01*
X4030800Y4045980D01*
X4033440Y4047380D01*
X4035880Y4049400D01*
X4380600Y4394120D01*
X4382620Y4396560D01*
X4384020Y4399200D01*
X4384880Y4402040D01*
X4385200Y4405200D01*
X4385200Y5066920D01*
X4385520Y5068460D01*
X4386400Y5069780D01*
X4411220Y5094040D01*
X4412740Y5094960D01*
X4414500Y5095140D01*
X4416180Y5094540D01*
X4417420Y5093280D01*
X4418000Y5091600D01*
X4417800Y5089840D01*
X4416840Y5088340D01*
X4404400Y5075880D01*
X4402380Y5073440D01*
X4400980Y5070800D01*
X4400120Y5067960D01*
X4399800Y5064800D01*
X4399800Y4004760D01*
X4399540Y4003380D01*
X4398820Y4002160D01*
X4397720Y4001259D01*
X4393380Y3998880D01*
X4389060Y3995700D01*
X4385200Y3991960D01*
X4381860Y3987740D01*
X4379120Y3983120D01*
X4377040Y3978180D01*
X4375620Y3973000D01*
X4374900Y3967679D01*
X4374900Y3962320D01*
X4375620Y3957000D01*
X4377040Y3951820D01*
X4379120Y3946880D01*
X4381860Y3942260D01*
X4385200Y3938039D01*
X4389060Y3934300D01*
X4393380Y3931120D01*
X4398080Y3928540D01*
X4403100Y3926620D01*
X4405440Y3926060D01*
X4406640Y3925539D01*
X4407620Y3924660D01*
X4408280Y3923519D01*
X4411300Y3915179D01*
X4415820Y3905000D01*
X4421020Y3895140D01*
X4426920Y3885659D01*
X4433460Y3876640D01*
X4440600Y3868080D01*
X4448320Y3860020D01*
X4456580Y3852540D01*
X4465340Y3845640D01*
X4474580Y3839380D01*
X4484200Y3833759D01*
X4494220Y3828840D01*
X4504540Y3824620D01*
X4515120Y3821120D01*
X4525940Y3818380D01*
X4536900Y3816380D01*
X4547980Y3815160D01*
X4559140Y3814720D01*
X4570280Y3815040D01*
X4581380Y3816139D01*
X4592360Y3818020D01*
X4603200Y3820640D01*
X4613840Y3824020D01*
X4624200Y3828140D01*
X4634260Y3832960D01*
X4643960Y3838460D01*
X4653240Y3844620D01*
X4661980Y3851340D01*
X4664160Y3853560D01*
X4665820Y3856040D01*
X4666940Y3858780D01*
X4667520Y3861700D01*
X4667500Y3864680D01*
X4666920Y3867600D01*
X4665760Y3870340D01*
X4664100Y3872820D01*
X4662000Y3874900D01*
X4659520Y3876560D01*
X4657520Y3877380D01*
X4656220Y3878240D01*
X4655340Y3879540D01*
X4655040Y3881080D01*
X4655040Y4044820D01*
X4654720Y4048480D01*
X4653820Y4051840D01*
X4652340Y4055020D01*
X4650340Y4057880D01*
X4647880Y4060340D01*
X4645020Y4062340D01*
X4641840Y4063820D01*
X4638480Y4064720D01*
X4635000Y4065020D01*
X4631520Y4064720D01*
X4628160Y4063820D01*
X4624980Y4062340D01*
X4622120Y4060340D01*
X4619660Y4057880D01*
X4617660Y4055020D01*
X4616180Y4051840D01*
X4615280Y4048480D01*
X4614960Y4044820D01*
X4614960Y3860000D01*
X4614660Y3858500D01*
X4613820Y3857200D01*
X4612560Y3856340D01*
X4607100Y3853960D01*
X4597340Y3850600D01*
X4587340Y3848020D01*
X4579740Y3846700D01*
X4578000Y3846760D01*
X4576460Y3847559D01*
X4575420Y3848940D01*
X4575040Y3850640D01*
X4575040Y4089820D01*
X4574720Y4093480D01*
X4573800Y4096860D01*
X4572340Y4100020D01*
X4570340Y4102880D01*
X4567860Y4105340D01*
X4565000Y4107340D01*
X4561840Y4108820D01*
X4558460Y4109720D01*
X4554980Y4110020D01*
X4551520Y4109720D01*
X4548140Y4108820D01*
X4544980Y4107340D01*
X4542120Y4105340D01*
X4539640Y4102880D01*
X4537640Y4100020D01*
X4536180Y4096840D01*
X4535260Y4093480D01*
X4534940Y4089820D01*
X4534960Y3852600D01*
X4534700Y3851200D01*
X4533960Y3849980D01*
X4532860Y3849080D01*
X4531500Y3848639D01*
X4530060Y3848700D01*
X4525960Y3849660D01*
X4516120Y3852760D01*
X4506540Y3856620D01*
X4497580Y3861100D01*
X4496240Y3862140D01*
X4495360Y3863460D01*
X4495040Y3865000D01*
X4495040Y4044820D01*
X4494720Y4048480D01*
X4493820Y4051840D01*
X4492340Y4055020D01*
X4490340Y4057880D01*
X4487880Y4060340D01*
X4485020Y4062340D01*
X4481840Y4063820D01*
X4478480Y4064720D01*
X4475000Y4065020D01*
X4471520Y4064720D01*
X4468160Y4063820D01*
X4464980Y4062340D01*
X4462120Y4060340D01*
X4459660Y4057880D01*
X4457660Y4055020D01*
X4456180Y4051840D01*
X4455280Y4048480D01*
X4454960Y4044820D01*
X4454960Y3990539D01*
X4454600Y3988900D01*
X4453600Y3987540D01*
X4452140Y3986720D01*
X4450460Y3986580D01*
X4448880Y3987120D01*
X4447660Y3988279D01*
X4446540Y3989900D01*
X4442940Y3993900D01*
X4438840Y3997360D01*
X4434320Y4000240D01*
X4432520Y4001080D01*
X4431300Y4001960D01*
X4430480Y4003220D01*
X4430200Y4004700D01*
X4430200Y5057040D01*
X4430500Y5058580D01*
X4431380Y5059880D01*
X4577960Y5206460D01*
X4579340Y5207360D01*
X4584720Y5208120D01*
X4588340Y5209220D01*
X4591740Y5210940D01*
X4594800Y5213200D01*
X4597420Y5215940D01*
X4599540Y5219080D01*
X4601120Y5222540D01*
X4602060Y5226220D01*
X4602400Y5230000D01*
X4602060Y5233780D01*
X4601120Y5237460D01*
X4599540Y5240920D01*
X4597420Y5244059D01*
X4594800Y5246799D01*
X4591740Y5249059D01*
X4588340Y5250780D01*
X4584720Y5251880D01*
X4580960Y5252380D01*
X4577160Y5252200D01*
X4573440Y5251400D01*
X4569920Y5250000D01*
X4566680Y5248000D01*
X4563840Y5245500D01*
X4561440Y5242540D01*
X4559600Y5239220D01*
X4558340Y5235640D01*
X4557700Y5231900D01*
X4557700Y5230839D01*
X4557380Y5229320D01*
X4556520Y5228020D01*
X4502940Y5174440D01*
X4501440Y5173500D01*
X4499700Y5173280D01*
X4498020Y5173860D01*
X4496760Y5175100D01*
X4496140Y5176740D01*
X4496300Y5178500D01*
X4497420Y5181880D01*
X4497760Y5185200D01*
X4497760Y5212680D01*
X4498040Y5214180D01*
X4498880Y5215440D01*
X4499980Y5216600D01*
X4502100Y5219760D01*
X4503680Y5223220D01*
X4504620Y5226880D01*
X4504960Y5230660D01*
X4504620Y5234460D01*
X4503680Y5238120D01*
X4502100Y5241580D01*
X4499980Y5244740D01*
X4497360Y5247480D01*
X4494300Y5249740D01*
X4490900Y5251440D01*
X4487280Y5252560D01*
X4483520Y5253040D01*
X4479720Y5252880D01*
X4476000Y5252080D01*
X4472480Y5250660D01*
X4469240Y5248680D01*
X4466400Y5246160D01*
X4464000Y5243200D01*
X4462160Y5239900D01*
X4460900Y5236319D01*
X4460260Y5232560D01*
X4460260Y5228780D01*
X4460900Y5225019D01*
X4462160Y5221440D01*
X4464000Y5218140D01*
X4466480Y5215080D01*
X4467140Y5213900D01*
X4467360Y5212560D01*
X4467360Y5193080D01*
X4467040Y5191540D01*
X4466160Y5190220D01*
X4359520Y5086000D01*
X4357480Y5083580D01*
X4356040Y5080980D01*
X4355140Y5078140D01*
X4354800Y5074800D01*
X4354800Y4869040D01*
X4354440Y4867360D01*
X4353400Y4865980D01*
X4351880Y4865180D01*
X4350160Y4865080D01*
X4348560Y4865720D01*
X4347380Y4866960D01*
X4345480Y4870120D01*
X4340120Y4877460D01*
X4334180Y4884360D01*
X4327680Y4890720D01*
X4320680Y4896520D01*
X4313200Y4901720D01*
X4305320Y4906260D01*
X4297100Y4910140D01*
X4288560Y4913300D01*
X4279800Y4915760D01*
X4270860Y4917460D01*
X4261820Y4918400D01*
X4252720Y4918600D01*
X4243640Y4918020D01*
X4234640Y4916700D01*
X4225780Y4914620D01*
X4217140Y4911800D01*
X4208760Y4908280D01*
X4202640Y4905080D01*
X4201100Y4904640D01*
X4199500Y4904840D01*
X4198100Y4905660D01*
X4197160Y4906960D01*
X4196780Y4908540D01*
X4197080Y4910120D01*
X4197960Y4911460D01*
X4330600Y5044120D01*
X4332620Y5046560D01*
X4334020Y5049200D01*
X4334880Y5052040D01*
X4335200Y5055200D01*
X4335200Y5067000D01*
X4335480Y5068500D01*
X4336320Y5069780D01*
X4337420Y5070940D01*
X4339540Y5074080D01*
X4341120Y5077540D01*
X4342060Y5081220D01*
X4342400Y5085000D01*
X4342060Y5088780D01*
X4341120Y5092460D01*
X4339540Y5095920D01*
X4337420Y5099060D01*
X4334800Y5101800D01*
X4331740Y5104060D01*
X4328340Y5105780D01*
X4324720Y5106880D01*
X4320960Y5107380D01*
X4317160Y5107200D01*
X4313440Y5106400D01*
X4309920Y5105000D01*
X4306680Y5103000D01*
X4303840Y5100500D01*
X4301440Y5097540D01*
X4299600Y5094220D01*
X4298340Y5090640D01*
X4297700Y5086900D01*
X4297700Y5083100D01*
X4298340Y5079360D01*
X4299600Y5075780D01*
X4301440Y5072460D01*
X4303920Y5069420D01*
X4304580Y5068240D01*
X4304800Y5066900D01*
X4304800Y5062960D01*
X4304500Y5061420D01*
X4303620Y5060120D01*
X4079400Y4835880D01*
X4077380Y4833440D01*
X4075980Y4830800D01*
X4075120Y4827960D01*
X4074800Y4824800D01*
X4074800Y4562960D01*
X4074500Y4561420D01*
X4073620Y4560120D01*
X3619880Y4106380D01*
X3618580Y4105500D01*
X3617040Y4105200D01*
X2696080Y4105200D01*
X2694400Y4105560D01*
X2693020Y4106600D01*
X2692220Y4108120D01*
X2692120Y4109840D01*
X2692760Y4111440D01*
X2694540Y4114080D01*
X2696120Y4117540D01*
X2697060Y4121220D01*
X2697400Y4125000D01*
X2697060Y4128780D01*
X2696120Y4132460D01*
X2694540Y4135920D01*
X2692420Y4139060D01*
X2689800Y4141800D01*
X2686740Y4144060D01*
X2683340Y4145779D01*
X2679720Y4146880D01*
X2675960Y4147380D01*
X2672160Y4147200D01*
X2668440Y4146400D01*
X2664920Y4145000D01*
X2661680Y4143000D01*
X2659640Y4141200D01*
X2658399Y4140460D01*
X2657000Y4140200D01*
X2565260Y4140200D01*
X2563700Y4140520D01*
X2562380Y4141420D01*
X2561520Y4142760D01*
X2561259Y4144320D01*
X2561620Y4145880D01*
X2562559Y4147160D01*
X2563940Y4147980D01*
X2566080Y4148720D01*
X2568000Y4149940D01*
X2569620Y4151540D01*
X2570840Y4153480D01*
X2571580Y4155620D01*
X2571860Y4158120D01*
X2571860Y4165800D01*
X2572180Y4167340D01*
X2573039Y4168620D01*
X2574340Y4169500D01*
X2575860Y4169800D01*
X3354800Y4169800D01*
X3357960Y4170120D01*
X3360800Y4170980D01*
X3363440Y4172380D01*
X3365880Y4174400D01*
X4980600Y5789120D01*
X4982620Y5791559D01*
X4984020Y5794200D01*
X4985240Y5798339D01*
X4985980Y5799440D01*
X4987420Y5800940D01*
X4989540Y5804080D01*
X4991120Y5807540D01*
X4992060Y5811220D01*
X4992400Y5815000D01*
X4992060Y5818780D01*
X4991120Y5822460D01*
X4989540Y5825920D01*
X4987420Y5829059D01*
X4984800Y5831799D01*
X4981740Y5834059D01*
X4978340Y5835780D01*
X4974720Y5836880D01*
X4970960Y5837380D01*
X4967160Y5837200D01*
X4963440Y5836400D01*
X4959920Y5835000D01*
X4956680Y5833000D01*
X4953840Y5830500D01*
X4951440Y5827540D01*
X4949600Y5824220D01*
X4948340Y5820640D01*
X4947700Y5816900D01*
X4947700Y5813099D01*
X4948340Y5809360D01*
X4950300Y5803780D01*
X4950060Y5802080D01*
X4949140Y5800640D01*
X3349880Y4201380D01*
X3348580Y4200500D01*
X3347040Y4200200D01*
X3321080Y4200200D01*
X3319400Y4200560D01*
X3318020Y4201600D01*
X3317220Y4203120D01*
X3317120Y4204840D01*
X3317760Y4206440D01*
X3319540Y4209080D01*
X3321120Y4212540D01*
X3322060Y4216220D01*
X3322340Y4219520D01*
X3322700Y4220860D01*
X3323500Y4222020D01*
X4293160Y5191680D01*
X4295180Y5194120D01*
X4296580Y5196760D01*
X4297440Y5199600D01*
X4297760Y5202760D01*
X4297760Y5212680D01*
X4298040Y5214180D01*
X4298880Y5215440D01*
X4299980Y5216600D01*
X4302100Y5219760D01*
X4303680Y5223220D01*
X4304620Y5226880D01*
X4304960Y5230660D01*
X4304620Y5234460D01*
X4303680Y5238120D01*
X4302100Y5241580D01*
X4299980Y5244740D01*
X4297360Y5247480D01*
X4294300Y5249740D01*
X4290900Y5251440D01*
X4287280Y5252560D01*
X4283520Y5253040D01*
X4279160Y5252820D01*
X4277600Y5253060D01*
X4276240Y5253880D01*
X4275300Y5255180D01*
X4274960Y5256740D01*
X4275260Y5258300D01*
X4276140Y5259640D01*
X4495120Y5478620D01*
X4496420Y5479500D01*
X4497960Y5479800D01*
X4562400Y5479800D01*
X4565560Y5480119D01*
X4568400Y5480980D01*
X4571040Y5482380D01*
X4573480Y5484400D01*
X4880560Y5791460D01*
X4881920Y5792360D01*
X4887280Y5793120D01*
X4890900Y5794220D01*
X4894300Y5795940D01*
X4897360Y5798200D01*
X4899980Y5800940D01*
X4902100Y5804080D01*
X4903680Y5807540D01*
X4904620Y5811220D01*
X4904960Y5815000D01*
X4904620Y5818780D01*
X4903680Y5822460D01*
X4902100Y5825920D01*
X4899980Y5829059D01*
X4897360Y5831799D01*
X4894300Y5834059D01*
X4890900Y5835780D01*
X4887280Y5836880D01*
X4883520Y5837380D01*
X4879720Y5837200D01*
X4876000Y5836400D01*
X4872480Y5835000D01*
X4869240Y5833000D01*
X4866400Y5830500D01*
X4864000Y5827540D01*
X4862160Y5824220D01*
X4860900Y5820640D01*
X4860260Y5816900D01*
X4860260Y5815800D01*
X4859940Y5814280D01*
X4859080Y5812980D01*
X4557480Y5511380D01*
X4556180Y5510500D01*
X4554640Y5510200D01*
X4511360Y5510200D01*
X4509820Y5510500D01*
X4508520Y5511380D01*
X4507660Y5512660D01*
X4507360Y5514200D01*
X4507660Y5515740D01*
X4508520Y5517020D01*
X4782960Y5791460D01*
X4784340Y5792360D01*
X4789720Y5793120D01*
X4793340Y5794220D01*
X4796740Y5795940D01*
X4799800Y5798200D01*
X4802420Y5800940D01*
X4804540Y5804080D01*
X4806120Y5807540D01*
X4807060Y5811220D01*
X4807400Y5815000D01*
X4807060Y5818780D01*
X4806120Y5822460D01*
X4804540Y5825920D01*
X4802420Y5829059D01*
X4799800Y5831799D01*
X4796740Y5834059D01*
X4793340Y5835780D01*
X4789720Y5836880D01*
X4785960Y5837380D01*
X4782160Y5837200D01*
X4778440Y5836400D01*
X4774920Y5835000D01*
X4771680Y5833000D01*
X4768840Y5830500D01*
X4766440Y5827540D01*
X4764600Y5824220D01*
X4763340Y5820640D01*
X4762700Y5816900D01*
X4762700Y5815839D01*
X4762380Y5814320D01*
X4761520Y5813020D01*
X4054400Y5105880D01*
X4052380Y5103440D01*
X4050980Y5100800D01*
X4050120Y5097960D01*
X4049800Y5094800D01*
X4049800Y5042960D01*
X4049500Y5041420D01*
X4048620Y5040120D01*
X3329880Y4321380D01*
X3328580Y4320500D01*
X3327040Y4320200D01*
X3043200Y4320200D01*
X3041760Y4320480D01*
X3040500Y4321260D01*
X3039600Y4322460D01*
X3039220Y4323880D01*
X3039380Y4325360D01*
X3039880Y4327040D01*
X3040200Y4330200D01*
X3040200Y4442040D01*
X3040500Y4443580D01*
X3041380Y4444880D01*
X3230120Y4633620D01*
X3231420Y4634500D01*
X3232960Y4634800D01*
X3477000Y4634800D01*
X3478399Y4634540D01*
X3479640Y4633800D01*
X3481680Y4632000D01*
X3484920Y4630000D01*
X3488440Y4628600D01*
X3492160Y4627800D01*
X3495960Y4627620D01*
X3499720Y4628120D01*
X3503340Y4629220D01*
X3506740Y4630940D01*
X3509800Y4633200D01*
X3512420Y4635940D01*
X3514540Y4639080D01*
X3516120Y4642540D01*
X3517060Y4646220D01*
X3517400Y4650000D01*
X3517060Y4653780D01*
X3516120Y4657460D01*
X3514540Y4660920D01*
X3512420Y4664060D01*
X3509800Y4666800D01*
X3506740Y4669060D01*
X3503340Y4670780D01*
X3499720Y4671880D01*
X3495960Y4672380D01*
X3492160Y4672200D01*
X3488440Y4671400D01*
X3484920Y4670000D01*
X3481680Y4668000D01*
X3479640Y4666200D01*
X3478399Y4665460D01*
X3477000Y4665200D01*
X3225200Y4665200D01*
X3222040Y4664880D01*
X3219200Y4664020D01*
X3216560Y4662620D01*
X3214120Y4660600D01*
X3014400Y4460880D01*
X3012380Y4458440D01*
X3010980Y4455800D01*
X3010120Y4452960D01*
X3009800Y4449800D01*
X3009800Y4349200D01*
X3009500Y4347660D01*
X3008620Y4346380D01*
X3007340Y4345500D01*
X3005800Y4345200D01*
X2515580Y4345200D01*
X2513940Y4345560D01*
X2512580Y4346560D01*
X2511760Y4348020D01*
X2511620Y4349700D01*
X2512020Y4352820D01*
X2512020Y4394460D01*
X2511740Y4396960D01*
X2510980Y4399100D01*
X2509760Y4401040D01*
X2508160Y4402640D01*
X2507080Y4403320D01*
X2506080Y4404220D01*
X2505420Y4405400D01*
X2505200Y4406720D01*
X2505200Y4460120D01*
X2505380Y4461300D01*
X2505880Y4462360D01*
X2507040Y4464080D01*
X2508620Y4467540D01*
X2509560Y4471220D01*
X2509900Y4475000D01*
X2509560Y4478780D01*
X2508620Y4482460D01*
X2507040Y4485920D01*
X2504920Y4489060D01*
X2502300Y4491800D01*
X2500960Y4493040D01*
X2500400Y4494140D01*
X2500200Y4495380D01*
X2500200Y4594140D01*
X2500500Y4595660D01*
X2501380Y4596960D01*
X2502660Y4597820D01*
X2504200Y4598140D01*
X2511880Y4598140D01*
X2514380Y4598420D01*
X2516520Y4599160D01*
X2518460Y4600380D01*
X2520060Y4602000D01*
X2521280Y4603920D01*
X2522020Y4606060D01*
X2522300Y4608560D01*
X2522300Y4652700D01*
X2522020Y4655180D01*
X2521280Y4657340D01*
X2520060Y4659260D01*
X2518460Y4660880D01*
X2516520Y4662080D01*
X2514380Y4662840D01*
X2511880Y4663120D01*
X2458120Y4663120D01*
X2455620Y4662840D01*
X2453480Y4662080D01*
X2451540Y4660880D01*
X2449940Y4659260D01*
X2448720Y4657340D01*
X2447980Y4655180D01*
X2447700Y4652700D01*
X2447700Y4608560D01*
X2447980Y4606060D01*
X2448720Y4603920D01*
X2449940Y4602000D01*
X2451540Y4600380D01*
X2453480Y4599160D01*
X2455620Y4598420D01*
X2458120Y4598140D01*
X2465800Y4598140D01*
X2467340Y4597820D01*
X2468620Y4596960D01*
X2469500Y4595660D01*
X2469800Y4594140D01*
X2469800Y4490000D01*
X2469580Y4488700D01*
X2467100Y4484220D01*
X2465840Y4480640D01*
X2465200Y4476900D01*
X2465200Y4473100D01*
X2465840Y4469360D01*
X2467100Y4465780D01*
X2468940Y4462460D01*
X2471340Y4459500D01*
X2473440Y4457660D01*
X2474440Y4456300D01*
X2474800Y4454640D01*
X2474800Y4406720D01*
X2474580Y4405400D01*
X2473920Y4404220D01*
X2472920Y4403320D01*
X2471840Y4402640D01*
X2470240Y4401040D01*
X2469020Y4399100D01*
X2468260Y4396960D01*
X2467980Y4394460D01*
X2467980Y4352780D01*
X2468260Y4350300D01*
X2469020Y4348140D01*
X2470240Y4346220D01*
X2471840Y4344600D01*
X2473780Y4343400D01*
X2475920Y4342640D01*
X2478420Y4342360D01*
X2487420Y4342360D01*
X2488940Y4342060D01*
X2490240Y4341200D01*
X2491100Y4339900D01*
X2491420Y4338360D01*
X2491100Y4336840D01*
X2490240Y4335540D01*
X2463520Y4308820D01*
X2462220Y4307960D01*
X2460700Y4307640D01*
X2441020Y4307640D01*
X2438520Y4307360D01*
X2436380Y4306620D01*
X2434440Y4305400D01*
X2432840Y4303780D01*
X2431620Y4301860D01*
X2430860Y4299720D01*
X2430580Y4297220D01*
X2430580Y4255540D01*
X2430860Y4253060D01*
X2431620Y4250900D01*
X2432840Y4248980D01*
X2434440Y4247360D01*
X2436380Y4246160D01*
X2438520Y4245400D01*
X2441420Y4245120D01*
X2442960Y4244820D01*
X2444260Y4243940D01*
X2445120Y4242660D01*
X2445420Y4241120D01*
X2445420Y4226300D01*
X2445120Y4224780D01*
X2444260Y4223480D01*
X2442960Y4222620D01*
X2441420Y4222300D01*
X2438560Y4222300D01*
X2436060Y4222020D01*
X2433920Y4221280D01*
X2432000Y4220060D01*
X2430320Y4218400D01*
X2429040Y4217540D01*
X2427500Y4217220D01*
X2425960Y4217540D01*
X2424680Y4218400D01*
X2423000Y4220060D01*
X2421080Y4221280D01*
X2418940Y4222020D01*
X2416440Y4222300D01*
X2413580Y4222300D01*
X2412040Y4222620D01*
X2410740Y4223480D01*
X2409880Y4224780D01*
X2409580Y4226300D01*
X2409580Y4269200D01*
X2409420Y4271060D01*
X2409420Y4297220D01*
X2409140Y4299720D01*
X2408380Y4301860D01*
X2407160Y4303780D01*
X2405560Y4305400D01*
X2403620Y4306620D01*
X2401480Y4307360D01*
X2398980Y4307640D01*
X2375820Y4307640D01*
X2373320Y4307360D01*
X2371180Y4306620D01*
X2369240Y4305400D01*
X2367640Y4303780D01*
X2366420Y4301860D01*
X2365680Y4299720D01*
X2365400Y4297220D01*
X2365400Y4255540D01*
X2365680Y4253060D01*
X2366420Y4250900D01*
X2367640Y4248980D01*
X2369240Y4247360D01*
X2371180Y4246160D01*
X2373320Y4245400D01*
X2375620Y4245140D01*
X2377020Y4244720D01*
X2378160Y4243840D01*
X2378920Y4242600D01*
X2379180Y4241160D01*
X2379180Y4226300D01*
X2378880Y4224780D01*
X2378000Y4223480D01*
X2376700Y4222620D01*
X2375180Y4222300D01*
X2372300Y4222300D01*
X2369820Y4222020D01*
X2367660Y4221280D01*
X2365740Y4220060D01*
X2364120Y4218460D01*
X2362920Y4216520D01*
X2362160Y4214380D01*
X2361880Y4211880D01*
X2361880Y4158120D01*
X2362160Y4155620D01*
X2362920Y4153480D01*
X2364120Y4151540D01*
X2365740Y4149940D01*
X2367660Y4148720D01*
X2369820Y4147980D01*
X2372300Y4147700D01*
X2416440Y4147700D01*
X2418940Y4147980D01*
X2421080Y4148720D01*
X2423000Y4149940D01*
X2424680Y4151600D01*
X2425960Y4152460D01*
X2427500Y4152780D01*
X2429040Y4152460D01*
X2430320Y4151600D01*
X2432000Y4149940D01*
X2435440Y4147860D01*
X2436380Y4146560D01*
X2436740Y4144980D01*
X2436460Y4143399D01*
X2435580Y4142080D01*
X2429880Y4136380D01*
X2428580Y4135500D01*
X2427040Y4135200D01*
X2334840Y4135200D01*
X2333300Y4135500D01*
X2332000Y4136380D01*
X2331140Y4137660D01*
X2330840Y4139200D01*
X2330840Y4143700D01*
X2331140Y4145220D01*
X2332000Y4146520D01*
X2333300Y4147380D01*
X2334840Y4147700D01*
X2337700Y4147700D01*
X2340180Y4147980D01*
X2342340Y4148720D01*
X2344260Y4149940D01*
X2345880Y4151540D01*
X2347080Y4153480D01*
X2347840Y4155620D01*
X2348120Y4158120D01*
X2348120Y4211880D01*
X2347840Y4214380D01*
X2347080Y4216520D01*
X2345880Y4218460D01*
X2344260Y4220060D01*
X2342340Y4221280D01*
X2340180Y4222020D01*
X2337700Y4222300D01*
X2334820Y4222300D01*
X2333300Y4222620D01*
X2332000Y4223480D01*
X2331140Y4224780D01*
X2330820Y4226300D01*
X2330820Y4245780D01*
X2331140Y4247320D01*
X2332360Y4248980D01*
X2333580Y4250900D01*
X2334320Y4253060D01*
X2334600Y4255540D01*
X2334600Y4297220D01*
X2334320Y4299720D01*
X2333580Y4301860D01*
X2332360Y4303780D01*
X2330760Y4305400D01*
X2328820Y4306620D01*
X2326680Y4307360D01*
X2324180Y4307640D01*
X2301020Y4307640D01*
X2298520Y4307360D01*
X2296380Y4306620D01*
X2294440Y4305400D01*
X2292840Y4303780D01*
X2291620Y4301860D01*
X2290860Y4299720D01*
X2290580Y4297220D01*
X2290580Y4255540D01*
X2290860Y4253060D01*
X2291620Y4250900D01*
X2292840Y4248980D01*
X2294440Y4247360D01*
X2296380Y4246160D01*
X2297740Y4245680D01*
X2299140Y4244820D01*
X2300100Y4243500D01*
X2300420Y4241900D01*
X2300420Y4226300D01*
X2300120Y4224780D01*
X2299260Y4223480D01*
X2297960Y4222620D01*
X2296420Y4222300D01*
X2293560Y4222300D01*
X2291060Y4222020D01*
X2288920Y4221280D01*
X2287000Y4220060D01*
X2285320Y4218400D01*
X2284040Y4217540D01*
X2282500Y4217220D01*
X2280960Y4217540D01*
X2279680Y4218400D01*
X2278000Y4220060D01*
X2276080Y4221280D01*
X2273940Y4222020D01*
X2271440Y4222300D01*
X2268580Y4222300D01*
X2267040Y4222620D01*
X2265740Y4223480D01*
X2264880Y4224780D01*
X2264580Y4226300D01*
X2264580Y4241900D01*
X2264900Y4243500D01*
X2265860Y4244820D01*
X2267260Y4245680D01*
X2268620Y4246160D01*
X2270560Y4247360D01*
X2272160Y4248980D01*
X2273380Y4250900D01*
X2274140Y4253060D01*
X2274420Y4255540D01*
X2274420Y4297220D01*
X2274140Y4299720D01*
X2273380Y4301860D01*
X2272160Y4303780D01*
X2270560Y4305400D01*
X2268620Y4306620D01*
X2266480Y4307360D01*
X2263980Y4307640D01*
X2240820Y4307640D01*
X2238320Y4307360D01*
X2236180Y4306620D01*
X2234240Y4305400D01*
X2232640Y4303780D01*
X2231420Y4301860D01*
X2230680Y4299720D01*
X2230400Y4297220D01*
X2230400Y4255540D01*
X2230680Y4253060D01*
X2231420Y4250900D01*
X2232640Y4248980D01*
X2233880Y4247320D01*
X2234180Y4245780D01*
X2234180Y4226300D01*
X2233880Y4224780D01*
X2233000Y4223480D01*
X2231700Y4222620D01*
X2230180Y4222300D01*
X2227300Y4222300D01*
X2224820Y4222020D01*
X2222660Y4221280D01*
X2220740Y4220060D01*
X2219120Y4218460D01*
X2217920Y4216520D01*
X2217160Y4214380D01*
X2216880Y4211880D01*
X2216880Y4158120D01*
X2217160Y4155620D01*
X2217920Y4153480D01*
X2219120Y4151540D01*
X2220740Y4149940D01*
X2222660Y4148720D01*
X2224820Y4147980D01*
X2227300Y4147700D01*
X2271440Y4147700D01*
X2273940Y4147980D01*
X2276080Y4148720D01*
X2278000Y4149940D01*
X2279680Y4151600D01*
X2280960Y4152460D01*
X2282500Y4152780D01*
X2284040Y4152460D01*
X2285320Y4151600D01*
X2287000Y4149940D01*
X2288920Y4148720D01*
X2291060Y4147980D01*
X2293560Y4147700D01*
X2296440Y4147700D01*
X2297960Y4147380D01*
X2299260Y4146520D01*
X2300120Y4145220D01*
X2300440Y4143700D01*
X2300440Y4139200D01*
X2300120Y4137660D01*
X2299260Y4136380D01*
X2297960Y4135500D01*
X2296440Y4135200D01*
X2189840Y4135200D01*
X2188300Y4135500D01*
X2187000Y4136380D01*
X2186140Y4137660D01*
X2185840Y4139200D01*
X2185840Y4143700D01*
X2186140Y4145220D01*
X2187000Y4146520D01*
X2188300Y4147380D01*
X2189840Y4147700D01*
X2192700Y4147700D01*
X2195180Y4147980D01*
X2197340Y4148720D01*
X2199260Y4149940D01*
X2200880Y4151540D01*
X2202080Y4153480D01*
X2202840Y4155620D01*
X2203120Y4158120D01*
X2203120Y4211880D01*
X2202840Y4214380D01*
X2202080Y4216520D01*
X2200880Y4218460D01*
X2199260Y4220060D01*
X2197340Y4221280D01*
X2195180Y4222020D01*
X2192700Y4222300D01*
X2189820Y4222300D01*
X2188300Y4222620D01*
X2187000Y4223480D01*
X2186140Y4224780D01*
X2185820Y4226300D01*
X2185820Y4241160D01*
X2186080Y4242600D01*
X2186840Y4243840D01*
X2188000Y4244720D01*
X2189380Y4245140D01*
X2191680Y4245400D01*
X2193820Y4246160D01*
X2195760Y4247360D01*
X2197360Y4248980D01*
X2198580Y4250900D01*
X2199320Y4253060D01*
X2199600Y4255540D01*
X2199600Y4297220D01*
X2199320Y4299720D01*
X2198580Y4301860D01*
X2197360Y4303780D01*
X2195760Y4305400D01*
X2193820Y4306620D01*
X2191680Y4307360D01*
X2189180Y4307640D01*
X2166020Y4307640D01*
X2163520Y4307360D01*
X2161380Y4306620D01*
X2159440Y4305400D01*
X2157840Y4303780D01*
X2156620Y4301860D01*
X2155860Y4299720D01*
X2155580Y4297220D01*
X2155580Y4271040D01*
X2155420Y4269200D01*
X2155420Y4226300D01*
X2155120Y4224780D01*
X2154260Y4223480D01*
X2152960Y4222620D01*
X2151420Y4222300D01*
X2148560Y4222300D01*
X2146060Y4222020D01*
X2143920Y4221280D01*
X2142000Y4220060D01*
X2140380Y4218460D01*
X2139160Y4216520D01*
X2138420Y4214380D01*
X2138140Y4211880D01*
X2138140Y4158120D01*
X2138420Y4155620D01*
X2139160Y4153480D01*
X2140380Y4151540D01*
X2142000Y4149940D01*
X2143920Y4148720D01*
X2146060Y4147980D01*
X2148560Y4147700D01*
X2151440Y4147700D01*
X2152960Y4147380D01*
X2154260Y4146520D01*
X2155120Y4145220D01*
X2155440Y4143700D01*
X2155440Y4120200D01*
X2155740Y4117040D01*
X2156600Y4114200D01*
X2158000Y4111560D01*
X2159900Y4109260D01*
X2162200Y4107380D01*
X2164820Y4105980D01*
X2167660Y4105120D01*
X2170820Y4104800D01*
X2434800Y4104800D01*
X2437960Y4105120D01*
X2440800Y4105980D01*
X2443440Y4107380D01*
X2445880Y4109400D01*
X2471240Y4134740D01*
X2473260Y4137200D01*
X2474660Y4139820D01*
X2475520Y4142660D01*
X2475660Y4144080D01*
X2476060Y4145500D01*
X2476960Y4146660D01*
X2478200Y4147420D01*
X2479640Y4147700D01*
X2482700Y4147700D01*
X2485180Y4147980D01*
X2487340Y4148720D01*
X2489260Y4149940D01*
X2490880Y4151540D01*
X2492080Y4153480D01*
X2492840Y4155620D01*
X2493120Y4158120D01*
X2493120Y4211880D01*
X2492840Y4214380D01*
X2492080Y4216520D01*
X2490880Y4218460D01*
X2489260Y4220060D01*
X2487340Y4221280D01*
X2485180Y4222020D01*
X2482700Y4222300D01*
X2479820Y4222300D01*
X2478300Y4222620D01*
X2477000Y4223480D01*
X2476140Y4224780D01*
X2475820Y4226300D01*
X2475820Y4268160D01*
X2475520Y4271320D01*
X2474780Y4273720D01*
X2474600Y4275260D01*
X2474920Y4276780D01*
X2475780Y4278080D01*
X2498640Y4300940D01*
X2500000Y4301840D01*
X2501620Y4302120D01*
X2503200Y4301720D01*
X2504500Y4300720D01*
X2505280Y4299300D01*
X2505400Y4297220D01*
X2505400Y4255540D01*
X2505680Y4253060D01*
X2506420Y4250900D01*
X2507640Y4248980D01*
X2509240Y4247360D01*
X2511180Y4246160D01*
X2513320Y4245400D01*
X2515820Y4245120D01*
X2520180Y4245120D01*
X2521700Y4244820D01*
X2523000Y4243940D01*
X2523880Y4242660D01*
X2524180Y4241120D01*
X2524180Y4226300D01*
X2523880Y4224780D01*
X2523000Y4223480D01*
X2521700Y4222620D01*
X2520180Y4222300D01*
X2517300Y4222300D01*
X2514820Y4222020D01*
X2512660Y4221280D01*
X2510740Y4220060D01*
X2509120Y4218460D01*
X2507920Y4216520D01*
X2507160Y4214380D01*
X2506880Y4211880D01*
X2506880Y4158120D01*
X2507160Y4155620D01*
X2507920Y4153480D01*
X2509120Y4151540D01*
X2510740Y4149940D01*
X2512660Y4148720D01*
X2514800Y4147980D01*
X2516180Y4147160D01*
X2517120Y4145880D01*
X2517480Y4144320D01*
X2517220Y4142760D01*
X2516360Y4141420D01*
X2515040Y4140520D01*
X2513480Y4140200D01*
X2500200Y4140200D01*
X2497040Y4139880D01*
X2494200Y4139020D01*
X2491560Y4137620D01*
X2489120Y4135600D01*
X2219880Y3866380D01*
X2218580Y3865500D01*
X2217040Y3865200D01*
X1820200Y3865200D01*
X1817040Y3864880D01*
X1814199Y3864020D01*
X1811560Y3862620D01*
X1809120Y3860600D01*
X1754400Y3805880D01*
X1752380Y3803440D01*
X1750980Y3800800D01*
X1750120Y3797960D01*
X1749800Y3794800D01*
X1749800Y3714760D01*
X1749540Y3713380D01*
X1748820Y3712160D01*
X1747720Y3711259D01*
X1743380Y3708880D01*
X1739060Y3705700D01*
X1735200Y3701960D01*
X1731860Y3697740D01*
X1729120Y3693120D01*
X1727040Y3688180D01*
X1725620Y3683000D01*
X1724900Y3677679D01*
X1724900Y3672320D01*
X1725620Y3667000D01*
X1727040Y3661820D01*
X1729120Y3656880D01*
X1731860Y3652260D01*
X1735200Y3648039D01*
X1739060Y3644300D01*
X1743380Y3641120D01*
X1748080Y3638540D01*
X1753100Y3636620D01*
X1758320Y3635360D01*
X1763660Y3634840D01*
X1769019Y3635020D01*
X1774319Y3635899D01*
X1779440Y3637500D01*
X1784319Y3639760D01*
X1788839Y3642640D01*
X1792940Y3646100D01*
X1796540Y3650100D01*
X1799580Y3654520D01*
X1802000Y3659300D01*
X1803020Y3662240D01*
X1803779Y3663560D01*
X1804960Y3664480D01*
X1806399Y3664920D01*
X1807960Y3665080D01*
X1810800Y3665940D01*
X1813440Y3667340D01*
X1815740Y3669220D01*
X1817620Y3671520D01*
X1819019Y3674160D01*
X1819880Y3677000D01*
X1820200Y3680160D01*
X1820200Y3725800D01*
X1820500Y3727340D01*
X1821380Y3728620D01*
X1822660Y3729500D01*
X1824199Y3729800D01*
X1855960Y3729800D01*
X1857480Y3729500D01*
X1858779Y3728620D01*
X1859660Y3727340D01*
X1859960Y3725800D01*
X1859960Y3640179D01*
X1860280Y3636520D01*
X1861180Y3633159D01*
X1862660Y3629980D01*
X1864660Y3627120D01*
X1867120Y3624660D01*
X1869980Y3622660D01*
X1873160Y3621180D01*
X1876519Y3620280D01*
G37*
G36*
X2047500Y3638860D02*
G01*
X2047500Y3657500D01*
X2028860Y3657500D01*
X2029120Y3656880D01*
X2031860Y3652260D01*
X2035200Y3648039D01*
X2039060Y3644300D01*
X2043380Y3641120D01*
G37*
G36*
X2477500Y3638860D02*
G01*
X2477500Y3657500D01*
X2458860Y3657500D01*
X2459120Y3656880D01*
X2461860Y3652260D01*
X2465200Y3648039D01*
X2469060Y3644300D01*
X2473380Y3641120D01*
G37*
G36*
X2942500Y3638860D02*
G01*
X2942500Y3657500D01*
X2923860Y3657500D01*
X2924120Y3656880D01*
X2926860Y3652260D01*
X2930200Y3648039D01*
X2934060Y3644300D01*
X2938380Y3641120D01*
G37*
G36*
X2977500Y3638920D02*
G01*
X2979320Y3639760D01*
X2983840Y3642640D01*
X2987940Y3646100D01*
X2991540Y3650100D01*
X2994580Y3654520D01*
X2996080Y3657500D01*
X2977500Y3657500D01*
G37*
G36*
X2512500Y3638920D02*
G01*
X2514320Y3639760D01*
X2518840Y3642640D01*
X2522940Y3646100D01*
X2526540Y3650100D01*
X2529580Y3654520D01*
X2531080Y3657500D01*
X2512500Y3657500D01*
G37*
G36*
X2082500Y3638920D02*
G01*
X2084319Y3639760D01*
X2088839Y3642640D01*
X2092940Y3646100D01*
X2096540Y3650100D01*
X2099580Y3654520D01*
X2101080Y3657500D01*
X2082500Y3657500D01*
G37*
G36*
X2977500Y3692500D02*
G01*
X2996080Y3692500D01*
X2994580Y3695480D01*
X2991540Y3699900D01*
X2987940Y3703900D01*
X2983840Y3707360D01*
X2979320Y3710240D01*
X2977500Y3711080D01*
G37*
G36*
X2512500Y3692500D02*
G01*
X2531080Y3692500D01*
X2529580Y3695480D01*
X2526540Y3699900D01*
X2522940Y3703900D01*
X2518840Y3707360D01*
X2514320Y3710240D01*
X2512500Y3711080D01*
G37*
G36*
X2082500Y3692500D02*
G01*
X2101080Y3692500D01*
X2099580Y3695480D01*
X2096540Y3699900D01*
X2092940Y3703900D01*
X2088839Y3707360D01*
X2084319Y3710240D01*
X2082500Y3711080D01*
G37*
G36*
X2028860Y3692500D02*
G01*
X2047500Y3692500D01*
X2047500Y3711139D01*
X2043380Y3708880D01*
X2039060Y3705700D01*
X2035200Y3701960D01*
X2031860Y3697740D01*
X2029120Y3693120D01*
G37*
G36*
X2458860Y3692500D02*
G01*
X2477500Y3692500D01*
X2477500Y3711139D01*
X2473380Y3708880D01*
X2469060Y3705700D01*
X2465200Y3701960D01*
X2461860Y3697740D01*
X2459120Y3693120D01*
G37*
G36*
X2923860Y3692500D02*
G01*
X2942500Y3692500D01*
X2942500Y3711139D01*
X2938380Y3708880D01*
X2934060Y3705700D01*
X2930200Y3701960D01*
X2926860Y3697740D01*
X2924120Y3693120D01*
G37*
G36*
X844140Y3744720D02*
G01*
X855280Y3745040D01*
X866380Y3746139D01*
X877360Y3748020D01*
X888199Y3750640D01*
X898840Y3754020D01*
X909200Y3758140D01*
X919260Y3762960D01*
X928960Y3768460D01*
X938240Y3774620D01*
X946979Y3781340D01*
X949160Y3783560D01*
X950819Y3786040D01*
X951940Y3788780D01*
X952520Y3791700D01*
X952500Y3794680D01*
X951919Y3797600D01*
X950759Y3800340D01*
X949100Y3802820D01*
X947000Y3804900D01*
X944520Y3806560D01*
X942520Y3807380D01*
X941220Y3808240D01*
X940340Y3809540D01*
X940040Y3811080D01*
X940040Y3974820D01*
X939720Y3978480D01*
X938820Y3981840D01*
X937340Y3985020D01*
X935340Y3987880D01*
X932880Y3990340D01*
X930020Y3992340D01*
X926840Y3993820D01*
X923480Y3994720D01*
X920000Y3995020D01*
X916520Y3994720D01*
X913160Y3993820D01*
X909980Y3992340D01*
X907120Y3990340D01*
X904659Y3987880D01*
X902660Y3985020D01*
X901180Y3981840D01*
X900280Y3978480D01*
X899960Y3974820D01*
X899960Y3790000D01*
X899659Y3788500D01*
X898820Y3787200D01*
X897560Y3786340D01*
X892099Y3783960D01*
X882340Y3780600D01*
X872340Y3778020D01*
X864740Y3776700D01*
X863000Y3776760D01*
X861460Y3777559D01*
X860420Y3778940D01*
X860040Y3780640D01*
X860040Y4019820D01*
X859720Y4023480D01*
X858800Y4026860D01*
X857340Y4030020D01*
X855340Y4032880D01*
X852860Y4035340D01*
X850000Y4037340D01*
X846840Y4038820D01*
X843460Y4039720D01*
X839980Y4040020D01*
X836520Y4039720D01*
X833139Y4038820D01*
X829980Y4037340D01*
X827120Y4035340D01*
X824640Y4032880D01*
X822640Y4030020D01*
X821180Y4026840D01*
X820260Y4023480D01*
X819940Y4019820D01*
X819960Y3782600D01*
X819700Y3781200D01*
X818960Y3779980D01*
X817860Y3779080D01*
X816500Y3778639D01*
X815060Y3778700D01*
X810960Y3779660D01*
X801120Y3782760D01*
X791540Y3786620D01*
X782580Y3791100D01*
X781240Y3792140D01*
X780360Y3793460D01*
X780040Y3795000D01*
X780040Y3974820D01*
X779720Y3978480D01*
X778820Y3981840D01*
X777340Y3985020D01*
X775340Y3987880D01*
X772880Y3990340D01*
X770020Y3992340D01*
X766840Y3993820D01*
X763480Y3994720D01*
X760000Y3995020D01*
X756520Y3994720D01*
X753160Y3993820D01*
X749980Y3992340D01*
X747120Y3990340D01*
X744659Y3987880D01*
X742660Y3985020D01*
X741180Y3981840D01*
X740280Y3978480D01*
X739960Y3974820D01*
X739960Y3915539D01*
X739599Y3913900D01*
X738600Y3912540D01*
X737140Y3911720D01*
X735460Y3911580D01*
X733880Y3912120D01*
X732660Y3913279D01*
X731540Y3914900D01*
X727940Y3918900D01*
X723840Y3922360D01*
X719320Y3925240D01*
X717520Y3926080D01*
X716300Y3926960D01*
X715480Y3928220D01*
X715200Y3929700D01*
X715200Y3982040D01*
X715500Y3983580D01*
X716380Y3984880D01*
X780120Y4048620D01*
X781420Y4049500D01*
X782960Y4049800D01*
X922039Y4049800D01*
X923580Y4049500D01*
X924880Y4048620D01*
X1009120Y3964400D01*
X1011560Y3962380D01*
X1014200Y3960980D01*
X1017039Y3960120D01*
X1020200Y3959800D01*
X1384800Y3959800D01*
X1387960Y3960120D01*
X1390800Y3960980D01*
X1393440Y3962380D01*
X1395880Y3964400D01*
X2172480Y4740980D01*
X2173860Y4741880D01*
X2175480Y4742140D01*
X2177060Y4741740D01*
X2178360Y4740720D01*
X2179140Y4739280D01*
X2179260Y4737640D01*
X2177980Y4733940D01*
X2177700Y4731440D01*
X2177700Y4725320D01*
X2177300Y4723620D01*
X2176240Y4722240D01*
X2173480Y4719980D01*
X2064400Y4610880D01*
X2062380Y4608440D01*
X2060980Y4605800D01*
X2060120Y4602960D01*
X2059800Y4599800D01*
X2059800Y4493100D01*
X2059580Y4491760D01*
X2058920Y4490580D01*
X2056440Y4487540D01*
X2054600Y4484220D01*
X2053340Y4480640D01*
X2052700Y4476900D01*
X2052700Y4473100D01*
X2053340Y4469360D01*
X2054600Y4465780D01*
X2056440Y4462460D01*
X2058839Y4459500D01*
X2061680Y4457000D01*
X2064920Y4455000D01*
X2068440Y4453600D01*
X2072160Y4452800D01*
X2075960Y4452620D01*
X2079720Y4453120D01*
X2083340Y4454220D01*
X2086740Y4455940D01*
X2089800Y4458200D01*
X2092420Y4460940D01*
X2094540Y4464080D01*
X2096120Y4467540D01*
X2097060Y4471220D01*
X2097400Y4475000D01*
X2097060Y4478780D01*
X2096120Y4482460D01*
X2094540Y4485920D01*
X2092420Y4489060D01*
X2091320Y4490220D01*
X2090480Y4491500D01*
X2090200Y4493000D01*
X2090200Y4592040D01*
X2090500Y4593580D01*
X2091380Y4594880D01*
X2175760Y4679260D01*
X2177060Y4680120D01*
X2178580Y4680440D01*
X2180120Y4680120D01*
X2183480Y4677920D01*
X2185620Y4677160D01*
X2188120Y4676880D01*
X2241880Y4676880D01*
X2244380Y4677160D01*
X2246520Y4677920D01*
X2248460Y4679120D01*
X2250060Y4680740D01*
X2251280Y4682660D01*
X2252020Y4684820D01*
X2252300Y4687300D01*
X2252300Y4690180D01*
X2252620Y4691700D01*
X2253480Y4693000D01*
X2254780Y4693880D01*
X2256300Y4694180D01*
X2308700Y4694180D01*
X2310220Y4693880D01*
X2311520Y4693000D01*
X2312380Y4691700D01*
X2312700Y4690180D01*
X2312700Y4687300D01*
X2312980Y4684820D01*
X2313720Y4682660D01*
X2314940Y4680740D01*
X2316540Y4679120D01*
X2318480Y4677920D01*
X2320620Y4677160D01*
X2323120Y4676880D01*
X2376880Y4676880D01*
X2379380Y4677160D01*
X2381520Y4677920D01*
X2383460Y4679120D01*
X2385060Y4680740D01*
X2386280Y4682660D01*
X2387020Y4684820D01*
X2387300Y4687300D01*
X2387300Y4690180D01*
X2387620Y4691700D01*
X2388480Y4693000D01*
X2389780Y4693880D01*
X2391300Y4694180D01*
X2443700Y4694180D01*
X2445220Y4693880D01*
X2446520Y4693000D01*
X2447380Y4691700D01*
X2447700Y4690180D01*
X2447700Y4687300D01*
X2447980Y4684820D01*
X2448720Y4682660D01*
X2449940Y4680740D01*
X2451540Y4679120D01*
X2453480Y4677920D01*
X2455620Y4677160D01*
X2458120Y4676880D01*
X2511880Y4676880D01*
X2514380Y4677160D01*
X2516520Y4677920D01*
X2518460Y4679120D01*
X2520060Y4680740D01*
X2521280Y4682660D01*
X2522020Y4684820D01*
X2522300Y4687300D01*
X2522300Y4690200D01*
X2522620Y4691740D01*
X2523480Y4693020D01*
X2524780Y4693900D01*
X2526300Y4694200D01*
X3599200Y4694200D01*
X3602360Y4694520D01*
X3605200Y4695380D01*
X3607840Y4696780D01*
X3610280Y4698800D01*
X4279180Y5367680D01*
X4280440Y5368540D01*
X4281940Y5368860D01*
X4287160Y5367800D01*
X4290960Y5367619D01*
X4294720Y5368120D01*
X4298340Y5369220D01*
X4301740Y5370940D01*
X4304800Y5373200D01*
X4307420Y5375940D01*
X4309540Y5379080D01*
X4311120Y5382540D01*
X4312060Y5386220D01*
X4312400Y5390000D01*
X4312060Y5393780D01*
X4311120Y5397460D01*
X4309540Y5400920D01*
X4307420Y5404059D01*
X4304800Y5406799D01*
X4301740Y5409059D01*
X4298340Y5410780D01*
X4294720Y5411880D01*
X4290960Y5412380D01*
X4287160Y5412200D01*
X4283440Y5411400D01*
X4279920Y5410000D01*
X4276680Y5408000D01*
X4273840Y5405500D01*
X4271680Y5402820D01*
X4271100Y5402240D01*
X4269120Y5400599D01*
X3594280Y4725780D01*
X3592980Y4724900D01*
X3591440Y4724600D01*
X2526300Y4724600D01*
X2524780Y4724900D01*
X2523480Y4725780D01*
X2522620Y4727060D01*
X2522300Y4728600D01*
X2522300Y4731440D01*
X2522020Y4733940D01*
X2521280Y4736080D01*
X2520060Y4738000D01*
X2518460Y4739620D01*
X2516520Y4740840D01*
X2514380Y4741580D01*
X2511880Y4741860D01*
X2458120Y4741860D01*
X2455620Y4741580D01*
X2453480Y4740840D01*
X2451540Y4739620D01*
X2449940Y4738000D01*
X2448720Y4736080D01*
X2447980Y4733940D01*
X2447700Y4731440D01*
X2447700Y4728580D01*
X2447380Y4727040D01*
X2446520Y4725740D01*
X2445220Y4724880D01*
X2443700Y4724580D01*
X2391300Y4724580D01*
X2389780Y4724880D01*
X2388480Y4725740D01*
X2387620Y4727040D01*
X2387300Y4728580D01*
X2387300Y4731440D01*
X2387020Y4733940D01*
X2386280Y4736080D01*
X2385060Y4738000D01*
X2383460Y4739620D01*
X2381520Y4740840D01*
X2379380Y4741580D01*
X2376880Y4741860D01*
X2323120Y4741860D01*
X2320620Y4741580D01*
X2318480Y4740840D01*
X2316540Y4739620D01*
X2314940Y4738000D01*
X2313720Y4736080D01*
X2312980Y4733940D01*
X2312700Y4731440D01*
X2312700Y4728580D01*
X2312380Y4727040D01*
X2311520Y4725740D01*
X2310220Y4724880D01*
X2308700Y4724580D01*
X2256300Y4724580D01*
X2254780Y4724880D01*
X2253480Y4725740D01*
X2252620Y4727040D01*
X2252300Y4728580D01*
X2252300Y4731440D01*
X2252020Y4733940D01*
X2251280Y4736080D01*
X2250060Y4738000D01*
X2248460Y4739620D01*
X2246520Y4740840D01*
X2244380Y4741580D01*
X2241880Y4741860D01*
X2188120Y4741860D01*
X2185620Y4741580D01*
X2181920Y4740300D01*
X2180280Y4740420D01*
X2178840Y4741200D01*
X2177820Y4742500D01*
X2177420Y4744080D01*
X2177680Y4745700D01*
X2178580Y4747080D01*
X2200120Y4768620D01*
X2201420Y4769500D01*
X2202960Y4769800D01*
X3609800Y4769800D01*
X3612960Y4770120D01*
X3615800Y4770980D01*
X3618440Y4772380D01*
X3620880Y4774400D01*
X4007960Y5161460D01*
X4009340Y5162360D01*
X4014720Y5163120D01*
X4018340Y5164220D01*
X4021740Y5165940D01*
X4024800Y5168200D01*
X4027420Y5170940D01*
X4029540Y5174080D01*
X4031120Y5177540D01*
X4032060Y5181220D01*
X4032400Y5185000D01*
X4032060Y5188780D01*
X4031120Y5192460D01*
X4029540Y5195920D01*
X4027420Y5199059D01*
X4024800Y5201799D01*
X4021740Y5204059D01*
X4018340Y5205780D01*
X4014720Y5206880D01*
X4010960Y5207380D01*
X4007160Y5207200D01*
X4003440Y5206400D01*
X3999920Y5205000D01*
X3996680Y5203000D01*
X3993840Y5200500D01*
X3991440Y5197540D01*
X3989600Y5194220D01*
X3988340Y5190640D01*
X3987700Y5186900D01*
X3987700Y5185839D01*
X3987380Y5184320D01*
X3986520Y5183020D01*
X3604880Y4801380D01*
X3603580Y4800500D01*
X3602040Y4800200D01*
X3571360Y4800200D01*
X3569820Y4800500D01*
X3568519Y4801380D01*
X3567660Y4802660D01*
X3567360Y4804200D01*
X3567660Y4805740D01*
X3568519Y4807020D01*
X4122960Y5361460D01*
X4124340Y5362360D01*
X4129720Y5363120D01*
X4133340Y5364220D01*
X4136740Y5365940D01*
X4139800Y5368200D01*
X4142420Y5370940D01*
X4144540Y5374080D01*
X4146120Y5377540D01*
X4147060Y5381220D01*
X4147400Y5385000D01*
X4147060Y5388780D01*
X4146120Y5392460D01*
X4144540Y5395920D01*
X4142420Y5399059D01*
X4139800Y5401799D01*
X4136740Y5404059D01*
X4133340Y5405780D01*
X4129720Y5406880D01*
X4125960Y5407380D01*
X4122160Y5407200D01*
X4118440Y5406400D01*
X4114920Y5405000D01*
X4111680Y5403000D01*
X4108840Y5400500D01*
X4106440Y5397540D01*
X4104600Y5394220D01*
X4103340Y5390640D01*
X4102700Y5386900D01*
X4102700Y5385839D01*
X4102380Y5384320D01*
X4101520Y5383020D01*
X3544880Y4826380D01*
X3543580Y4825500D01*
X3542040Y4825200D01*
X2186360Y4825200D01*
X2184820Y4825500D01*
X2183520Y4826380D01*
X2182660Y4827660D01*
X2182360Y4829200D01*
X2182660Y4830740D01*
X2183520Y4832020D01*
X2185120Y4833620D01*
X2186420Y4834500D01*
X2187960Y4834800D01*
X3384800Y4834800D01*
X3387960Y4835120D01*
X3390800Y4835980D01*
X3393440Y4837380D01*
X3395880Y4839400D01*
X4025120Y5468620D01*
X4026420Y5469500D01*
X4027960Y5469800D01*
X4102000Y5469800D01*
X4103399Y5469539D01*
X4104640Y5468800D01*
X4106680Y5467000D01*
X4109920Y5465000D01*
X4113440Y5463600D01*
X4117160Y5462800D01*
X4120960Y5462619D01*
X4124720Y5463120D01*
X4128340Y5464220D01*
X4131740Y5465940D01*
X4134800Y5468200D01*
X4137420Y5470940D01*
X4139540Y5474080D01*
X4141120Y5477540D01*
X4142060Y5481220D01*
X4142400Y5485000D01*
X4142060Y5488780D01*
X4141120Y5492460D01*
X4139540Y5495920D01*
X4137420Y5499059D01*
X4134800Y5501799D01*
X4131740Y5504059D01*
X4128340Y5505780D01*
X4124720Y5506880D01*
X4120960Y5507380D01*
X4117160Y5507200D01*
X4113440Y5506400D01*
X4109920Y5505000D01*
X4106680Y5503000D01*
X4104640Y5501200D01*
X4103399Y5500460D01*
X4102000Y5500200D01*
X4020200Y5500200D01*
X4017040Y5499880D01*
X4014200Y5499020D01*
X4011560Y5497619D01*
X4009120Y5495599D01*
X3379880Y4866380D01*
X3378580Y4865500D01*
X3377040Y4865200D01*
X3361360Y4865200D01*
X3359820Y4865500D01*
X3358519Y4866380D01*
X3357660Y4867660D01*
X3357360Y4869200D01*
X3357660Y4870740D01*
X3358519Y4872020D01*
X4055120Y5568620D01*
X4056420Y5569500D01*
X4057960Y5569800D01*
X4102000Y5569800D01*
X4103399Y5569539D01*
X4104640Y5568800D01*
X4106680Y5567000D01*
X4109920Y5565000D01*
X4113440Y5563600D01*
X4117160Y5562800D01*
X4120960Y5562619D01*
X4124720Y5563120D01*
X4128340Y5564220D01*
X4131740Y5565940D01*
X4134800Y5568200D01*
X4137420Y5570940D01*
X4139540Y5574080D01*
X4141120Y5577540D01*
X4142060Y5581220D01*
X4142400Y5585000D01*
X4142060Y5588780D01*
X4141120Y5592460D01*
X4139540Y5595920D01*
X4137420Y5599059D01*
X4134800Y5601799D01*
X4131740Y5604059D01*
X4128340Y5605780D01*
X4124720Y5606880D01*
X4120960Y5607380D01*
X4117160Y5607200D01*
X4113440Y5606400D01*
X4109920Y5605000D01*
X4106680Y5603000D01*
X4104640Y5601200D01*
X4103399Y5600460D01*
X4102000Y5600200D01*
X4050200Y5600200D01*
X4047040Y5599880D01*
X4044200Y5599020D01*
X4041560Y5597619D01*
X4039120Y5595599D01*
X3339880Y4896380D01*
X3338580Y4895500D01*
X3337040Y4895200D01*
X2175200Y4895200D01*
X2172040Y4894880D01*
X2169200Y4894020D01*
X2166560Y4892620D01*
X2164120Y4890600D01*
X1649880Y4376380D01*
X1648580Y4375500D01*
X1647040Y4375200D01*
X1295900Y4375200D01*
X1294259Y4375560D01*
X1292900Y4376560D01*
X1292080Y4378020D01*
X1291940Y4379700D01*
X1292500Y4381280D01*
X1293640Y4382500D01*
X1298880Y4386080D01*
X1303660Y4390220D01*
X1307940Y4394880D01*
X1311660Y4400020D01*
X1314780Y4405520D01*
X1317240Y4411360D01*
X1319019Y4417440D01*
X1320100Y4423680D01*
X1320460Y4430000D01*
X1320100Y4436320D01*
X1319019Y4442560D01*
X1317240Y4448640D01*
X1314780Y4454480D01*
X1311660Y4459980D01*
X1307940Y4465120D01*
X1303660Y4469780D01*
X1298880Y4473920D01*
X1293640Y4477500D01*
X1288040Y4480460D01*
X1282140Y4482760D01*
X1276020Y4484360D01*
X1269740Y4485260D01*
X1263420Y4485440D01*
X1257100Y4484900D01*
X1250900Y4483640D01*
X1244880Y4481680D01*
X1239120Y4479060D01*
X1233700Y4475780D01*
X1228680Y4471920D01*
X1224140Y4467500D01*
X1220120Y4462600D01*
X1216700Y4457280D01*
X1213900Y4451600D01*
X1211780Y4445620D01*
X1210340Y4439460D01*
X1209620Y4433160D01*
X1209620Y4426840D01*
X1210340Y4420540D01*
X1211780Y4414380D01*
X1213900Y4408400D01*
X1216700Y4402720D01*
X1220120Y4397400D01*
X1224140Y4392500D01*
X1228680Y4388080D01*
X1233700Y4384220D01*
X1236320Y4382620D01*
X1237560Y4381440D01*
X1238200Y4379840D01*
X1238100Y4378120D01*
X1237300Y4376600D01*
X1235940Y4375560D01*
X1234260Y4375200D01*
X1025200Y4375200D01*
X1022039Y4374880D01*
X1019200Y4374020D01*
X1016560Y4372620D01*
X1014120Y4370600D01*
X939880Y4296380D01*
X938580Y4295500D01*
X937039Y4295200D01*
X910120Y4295200D01*
X908580Y4295500D01*
X907280Y4296380D01*
X906420Y4297700D01*
X906120Y4299240D01*
X906440Y4300780D01*
X907340Y4302060D01*
X909200Y4303140D01*
X919260Y4307960D01*
X928960Y4313460D01*
X938240Y4319620D01*
X946979Y4326340D01*
X949160Y4328560D01*
X950819Y4331040D01*
X951940Y4333780D01*
X952520Y4336700D01*
X952500Y4339680D01*
X951919Y4342600D01*
X950759Y4345340D01*
X949100Y4347820D01*
X947000Y4349900D01*
X944520Y4351560D01*
X942520Y4352380D01*
X941220Y4353240D01*
X940340Y4354540D01*
X940040Y4356080D01*
X940040Y4519820D01*
X939720Y4523480D01*
X938820Y4526840D01*
X937340Y4530020D01*
X935340Y4532880D01*
X932880Y4535340D01*
X930020Y4537340D01*
X926840Y4538820D01*
X923480Y4539720D01*
X920000Y4540020D01*
X916520Y4539720D01*
X913160Y4538820D01*
X909980Y4537340D01*
X907120Y4535340D01*
X904659Y4532880D01*
X902660Y4530020D01*
X901180Y4526840D01*
X900280Y4523480D01*
X899960Y4519820D01*
X899960Y4335000D01*
X899659Y4333500D01*
X898820Y4332200D01*
X897560Y4331340D01*
X892099Y4328960D01*
X882340Y4325600D01*
X872340Y4323020D01*
X864740Y4321700D01*
X863000Y4321760D01*
X861460Y4322560D01*
X860420Y4323940D01*
X860040Y4325640D01*
X860040Y4564820D01*
X859720Y4568480D01*
X858820Y4571860D01*
X857340Y4575020D01*
X855340Y4577880D01*
X852860Y4580340D01*
X850000Y4582340D01*
X846840Y4583820D01*
X843460Y4584720D01*
X840000Y4585020D01*
X836520Y4584720D01*
X833139Y4583820D01*
X829980Y4582340D01*
X827120Y4580340D01*
X824640Y4577880D01*
X822640Y4575020D01*
X821180Y4571840D01*
X820260Y4568480D01*
X819940Y4564820D01*
X819960Y4327600D01*
X819700Y4326200D01*
X818960Y4324980D01*
X817860Y4324080D01*
X816500Y4323640D01*
X815060Y4323700D01*
X810960Y4324660D01*
X801120Y4327760D01*
X791540Y4331620D01*
X782580Y4336100D01*
X781240Y4337140D01*
X780360Y4338460D01*
X780040Y4340000D01*
X780040Y4519820D01*
X779720Y4523480D01*
X778820Y4526840D01*
X777340Y4530020D01*
X775340Y4532880D01*
X772880Y4535340D01*
X770020Y4537340D01*
X766840Y4538820D01*
X763480Y4539720D01*
X760000Y4540020D01*
X756520Y4539720D01*
X753160Y4538820D01*
X749980Y4537340D01*
X747120Y4535340D01*
X744659Y4532880D01*
X742660Y4530020D01*
X741180Y4526840D01*
X740280Y4523480D01*
X739960Y4519820D01*
X739960Y4465540D01*
X739599Y4463900D01*
X738600Y4462540D01*
X737140Y4461720D01*
X735460Y4461580D01*
X733880Y4462120D01*
X732660Y4463280D01*
X731540Y4464900D01*
X727940Y4468900D01*
X723840Y4472360D01*
X719320Y4475240D01*
X714440Y4477500D01*
X709320Y4479100D01*
X704020Y4479980D01*
X698660Y4480160D01*
X693319Y4479640D01*
X688100Y4478380D01*
X683080Y4476460D01*
X678379Y4473880D01*
X674060Y4470700D01*
X670200Y4466960D01*
X666860Y4462740D01*
X664120Y4458120D01*
X662039Y4453180D01*
X660620Y4448000D01*
X659900Y4442680D01*
X659900Y4437320D01*
X660620Y4432000D01*
X662039Y4426820D01*
X664120Y4421880D01*
X666860Y4417260D01*
X670200Y4413040D01*
X674060Y4409300D01*
X678379Y4406120D01*
X682720Y4403740D01*
X683820Y4402840D01*
X684539Y4401620D01*
X684800Y4400240D01*
X684800Y4350200D01*
X685120Y4347040D01*
X685980Y4344200D01*
X687380Y4341560D01*
X689400Y4339120D01*
X759120Y4269400D01*
X761560Y4267380D01*
X764200Y4265980D01*
X767039Y4265120D01*
X770200Y4264800D01*
X944800Y4264800D01*
X947960Y4265120D01*
X949640Y4265620D01*
X951120Y4265780D01*
X952540Y4265400D01*
X953740Y4264500D01*
X954520Y4263240D01*
X954800Y4261800D01*
X954800Y4204760D01*
X954539Y4203380D01*
X953820Y4202160D01*
X952720Y4201260D01*
X948379Y4198880D01*
X944060Y4195700D01*
X940200Y4191960D01*
X936860Y4187740D01*
X934120Y4183120D01*
X932039Y4178180D01*
X930620Y4173000D01*
X929900Y4167679D01*
X929900Y4162320D01*
X930620Y4157000D01*
X932039Y4151820D01*
X934120Y4146880D01*
X936860Y4142260D01*
X940200Y4138039D01*
X944060Y4134300D01*
X948379Y4131120D01*
X953080Y4128540D01*
X958100Y4126620D01*
X960440Y4126060D01*
X961640Y4125539D01*
X962620Y4124660D01*
X963280Y4123519D01*
X966300Y4115179D01*
X970819Y4105000D01*
X976020Y4095140D01*
X981919Y4085659D01*
X988460Y4076640D01*
X995600Y4068080D01*
X1003319Y4060020D01*
X1011580Y4052540D01*
X1020340Y4045640D01*
X1029580Y4039380D01*
X1039200Y4033759D01*
X1049220Y4028840D01*
X1059540Y4024620D01*
X1064440Y4023000D01*
X1065840Y4022200D01*
X1066800Y4020920D01*
X1067180Y4019360D01*
X1066940Y4017780D01*
X1066080Y4016440D01*
X1064760Y4015520D01*
X1063200Y4015200D01*
X1032960Y4015200D01*
X1031420Y4015500D01*
X1030120Y4016380D01*
X950879Y4095600D01*
X948439Y4097620D01*
X945800Y4099020D01*
X942960Y4099880D01*
X939800Y4100200D01*
X730200Y4100200D01*
X727039Y4099880D01*
X724200Y4099020D01*
X721560Y4097620D01*
X719120Y4095600D01*
X683700Y4060200D01*
X682280Y4059280D01*
X680620Y4059040D01*
X679000Y4059500D01*
X677700Y4060580D01*
X676979Y4062100D01*
X676940Y4063800D01*
X677520Y4066700D01*
X677500Y4069680D01*
X676919Y4072600D01*
X675759Y4075340D01*
X674100Y4077820D01*
X672000Y4079900D01*
X669520Y4081560D01*
X667520Y4082380D01*
X666220Y4083240D01*
X665340Y4084540D01*
X665040Y4086080D01*
X665040Y4249820D01*
X664720Y4253480D01*
X663820Y4256840D01*
X662340Y4260020D01*
X660340Y4262880D01*
X657880Y4265340D01*
X655020Y4267340D01*
X651840Y4268820D01*
X648480Y4269720D01*
X645000Y4270020D01*
X641520Y4269720D01*
X638160Y4268820D01*
X634980Y4267340D01*
X632120Y4265340D01*
X629660Y4262880D01*
X627660Y4260020D01*
X626180Y4256840D01*
X625280Y4253480D01*
X624960Y4249820D01*
X624960Y4065000D01*
X624660Y4063500D01*
X623820Y4062200D01*
X622560Y4061340D01*
X617100Y4058960D01*
X607340Y4055600D01*
X597340Y4053020D01*
X589740Y4051700D01*
X588000Y4051760D01*
X586460Y4052559D01*
X585420Y4053940D01*
X585040Y4055640D01*
X585040Y4294820D01*
X584720Y4298480D01*
X583800Y4301860D01*
X582340Y4305020D01*
X580340Y4307880D01*
X577860Y4310340D01*
X575000Y4312340D01*
X571840Y4313820D01*
X568460Y4314720D01*
X564980Y4315020D01*
X561520Y4314720D01*
X558140Y4313820D01*
X554980Y4312340D01*
X552120Y4310340D01*
X549640Y4307880D01*
X547640Y4305020D01*
X546180Y4301840D01*
X545260Y4298480D01*
X544940Y4294820D01*
X544960Y4057600D01*
X544700Y4056200D01*
X543960Y4054980D01*
X542860Y4054080D01*
X541500Y4053639D01*
X540060Y4053700D01*
X535960Y4054660D01*
X526120Y4057760D01*
X516540Y4061620D01*
X507580Y4066100D01*
X506240Y4067140D01*
X505360Y4068460D01*
X505040Y4070000D01*
X505040Y4249820D01*
X504720Y4253480D01*
X503820Y4256840D01*
X502340Y4260020D01*
X500340Y4262880D01*
X497879Y4265340D01*
X495020Y4267340D01*
X491840Y4268820D01*
X488480Y4269720D01*
X485000Y4270020D01*
X481520Y4269720D01*
X478160Y4268820D01*
X474980Y4267340D01*
X472120Y4265340D01*
X469660Y4262880D01*
X467660Y4260020D01*
X466180Y4256840D01*
X465280Y4253480D01*
X464960Y4249820D01*
X464960Y4195540D01*
X464600Y4193900D01*
X463600Y4192540D01*
X462140Y4191720D01*
X460460Y4191580D01*
X458880Y4192120D01*
X457660Y4193279D01*
X456540Y4194900D01*
X452939Y4198900D01*
X448840Y4202360D01*
X444320Y4205240D01*
X439440Y4207500D01*
X434320Y4209100D01*
X429020Y4209980D01*
X423660Y4210160D01*
X418320Y4209640D01*
X413100Y4208380D01*
X408080Y4206460D01*
X403380Y4203880D01*
X399060Y4200700D01*
X395200Y4196960D01*
X391860Y4192740D01*
X389120Y4188120D01*
X387040Y4183180D01*
X385620Y4178000D01*
X384900Y4172679D01*
X384900Y4167320D01*
X385620Y4162000D01*
X387040Y4156820D01*
X389120Y4151880D01*
X391860Y4147260D01*
X395200Y4143039D01*
X399060Y4139300D01*
X403380Y4136120D01*
X407720Y4133740D01*
X408820Y4132840D01*
X409540Y4131620D01*
X409799Y4130240D01*
X409799Y4070200D01*
X410120Y4067040D01*
X410980Y4064200D01*
X412380Y4061560D01*
X414400Y4059120D01*
X489120Y3984400D01*
X491560Y3982380D01*
X494200Y3980980D01*
X497040Y3980120D01*
X500200Y3979800D01*
X639800Y3979800D01*
X642960Y3980120D01*
X645800Y3980980D01*
X648439Y3982380D01*
X650879Y3984400D01*
X735120Y4068620D01*
X736420Y4069500D01*
X737960Y4069800D01*
X748640Y4069800D01*
X750180Y4069500D01*
X751480Y4068620D01*
X752340Y4067340D01*
X752640Y4065800D01*
X752340Y4064260D01*
X751480Y4062980D01*
X689400Y4000880D01*
X687380Y3998440D01*
X685980Y3995800D01*
X685120Y3992960D01*
X684800Y3989800D01*
X684800Y3929760D01*
X684539Y3928380D01*
X683820Y3927160D01*
X682720Y3926259D01*
X678379Y3923880D01*
X674060Y3920700D01*
X670200Y3916960D01*
X666860Y3912740D01*
X664120Y3908120D01*
X662039Y3903180D01*
X660620Y3898000D01*
X659900Y3892679D01*
X659900Y3887320D01*
X660620Y3882000D01*
X662039Y3876820D01*
X664120Y3871880D01*
X666860Y3867260D01*
X670200Y3863039D01*
X674060Y3859300D01*
X678379Y3856120D01*
X683080Y3853540D01*
X688100Y3851620D01*
X692420Y3850580D01*
X693640Y3850080D01*
X694620Y3849200D01*
X695260Y3848060D01*
X696300Y3845179D01*
X700819Y3835000D01*
X706020Y3825140D01*
X711919Y3815659D01*
X718460Y3806640D01*
X725600Y3798080D01*
X733319Y3790020D01*
X741580Y3782540D01*
X750340Y3775640D01*
X759580Y3769380D01*
X769200Y3763759D01*
X779220Y3758840D01*
X789539Y3754620D01*
X800120Y3751120D01*
X810939Y3748380D01*
X821900Y3746380D01*
X832980Y3745160D01*
G37*
G36*
X972500Y3858860D02*
G01*
X972500Y3877500D01*
X953860Y3877500D01*
X954120Y3876880D01*
X956860Y3872260D01*
X960200Y3868039D01*
X964060Y3864300D01*
X968379Y3861120D01*
G37*
G36*
X1007500Y3858920D02*
G01*
X1009320Y3859760D01*
X1013840Y3862640D01*
X1017940Y3866100D01*
X1021540Y3870100D01*
X1024580Y3874520D01*
X1026080Y3877500D01*
X1007500Y3877500D01*
G37*
G36*
X4848420Y3869560D02*
G01*
X4854740Y3869740D01*
X4861020Y3870640D01*
X4867140Y3872240D01*
X4873040Y3874540D01*
X4878640Y3877500D01*
X4883880Y3881080D01*
X4888660Y3885220D01*
X4892940Y3889880D01*
X4896660Y3895020D01*
X4899780Y3900520D01*
X4902240Y3906360D01*
X4904020Y3912440D01*
X4905100Y3918680D01*
X4905460Y3925000D01*
X4905100Y3931320D01*
X4904020Y3937559D01*
X4902240Y3943639D01*
X4899780Y3949480D01*
X4896660Y3954980D01*
X4892940Y3960120D01*
X4888660Y3964780D01*
X4883880Y3968920D01*
X4878640Y3972500D01*
X4873040Y3975460D01*
X4867140Y3977760D01*
X4861020Y3979360D01*
X4854740Y3980260D01*
X4848420Y3980440D01*
X4842100Y3979900D01*
X4835900Y3978639D01*
X4829880Y3976680D01*
X4824120Y3974060D01*
X4818700Y3970779D01*
X4813680Y3966920D01*
X4809140Y3962500D01*
X4805120Y3957600D01*
X4801700Y3952280D01*
X4798900Y3946600D01*
X4796780Y3940620D01*
X4795340Y3934460D01*
X4794620Y3928159D01*
X4794620Y3921840D01*
X4795340Y3915539D01*
X4796780Y3909380D01*
X4798900Y3903399D01*
X4801700Y3897720D01*
X4805120Y3892400D01*
X4809140Y3887500D01*
X4813680Y3883080D01*
X4818700Y3879220D01*
X4824120Y3875940D01*
X4829880Y3873300D01*
X4835900Y3871360D01*
X4842100Y3870100D01*
G37*
G36*
X1007500Y3912500D02*
G01*
X1026080Y3912500D01*
X1024580Y3915480D01*
X1021540Y3919900D01*
X1017940Y3923900D01*
X1013840Y3927360D01*
X1009320Y3930240D01*
X1007500Y3931080D01*
G37*
G36*
X953860Y3912500D02*
G01*
X972500Y3912500D01*
X972500Y3931139D01*
X968379Y3928880D01*
X964060Y3925700D01*
X960200Y3921960D01*
X956860Y3917740D01*
X954120Y3913120D01*
G37*
G36*
X4687500Y3933860D02*
G01*
X4687500Y3952500D01*
X4668860Y3952500D01*
X4669120Y3951880D01*
X4671860Y3947260D01*
X4675200Y3943039D01*
X4679060Y3939300D01*
X4683380Y3936120D01*
G37*
G36*
X4722500Y3933920D02*
G01*
X4724320Y3934760D01*
X4728840Y3937640D01*
X4732940Y3941100D01*
X4736540Y3945100D01*
X4739580Y3949520D01*
X4741080Y3952500D01*
X4722500Y3952500D01*
G37*
G36*
X4722500Y3987500D02*
G01*
X4741080Y3987500D01*
X4739580Y3990480D01*
X4736540Y3994900D01*
X4732940Y3998900D01*
X4728840Y4002360D01*
X4724320Y4005240D01*
X4722500Y4006080D01*
G37*
G36*
X4668860Y3987500D02*
G01*
X4687500Y3987500D01*
X4687500Y4006139D01*
X4683380Y4003880D01*
X4679060Y4000700D01*
X4675200Y3996960D01*
X4671860Y3992740D01*
X4669120Y3988120D01*
G37*
G36*
X697500Y4138860D02*
G01*
X697500Y4157500D01*
X678860Y4157500D01*
X679120Y4156880D01*
X681860Y4152260D01*
X685200Y4148039D01*
X689060Y4144300D01*
X693379Y4141120D01*
G37*
G36*
X732500Y4138920D02*
G01*
X734320Y4139760D01*
X738840Y4142640D01*
X742940Y4146100D01*
X746540Y4150100D01*
X749580Y4154520D01*
X751080Y4157500D01*
X732500Y4157500D01*
G37*
G36*
X4947500Y4188860D02*
G01*
X4947500Y4207500D01*
X4928860Y4207500D01*
X4929120Y4206880D01*
X4931860Y4202260D01*
X4935200Y4198040D01*
X4939060Y4194300D01*
X4943380Y4191120D01*
G37*
G36*
X4982500Y4188920D02*
G01*
X4984320Y4189760D01*
X4988840Y4192640D01*
X4992940Y4196100D01*
X4996540Y4200100D01*
X4999580Y4204520D01*
X5001080Y4207500D01*
X4982500Y4207500D01*
G37*
G36*
X732500Y4192500D02*
G01*
X751080Y4192500D01*
X749580Y4195480D01*
X746540Y4199900D01*
X742940Y4203900D01*
X738840Y4207360D01*
X734320Y4210240D01*
X732500Y4211080D01*
G37*
G36*
X678860Y4192500D02*
G01*
X697500Y4192500D01*
X697500Y4211140D01*
X693379Y4208880D01*
X689060Y4205700D01*
X685200Y4201960D01*
X681860Y4197740D01*
X679120Y4193120D01*
G37*
G36*
X4518420Y4199560D02*
G01*
X4524740Y4199740D01*
X4531020Y4200640D01*
X4537140Y4202240D01*
X4543040Y4204540D01*
X4548640Y4207500D01*
X4553880Y4211080D01*
X4558660Y4215220D01*
X4562940Y4219880D01*
X4566660Y4225020D01*
X4569780Y4230520D01*
X4572240Y4236360D01*
X4574020Y4242440D01*
X4575100Y4248680D01*
X4575460Y4255000D01*
X4575100Y4261320D01*
X4574020Y4267560D01*
X4572240Y4273640D01*
X4569780Y4279480D01*
X4566660Y4284980D01*
X4562940Y4290120D01*
X4558660Y4294780D01*
X4553880Y4298920D01*
X4548640Y4302500D01*
X4543040Y4305460D01*
X4537140Y4307760D01*
X4531020Y4309360D01*
X4524740Y4310260D01*
X4518420Y4310440D01*
X4512100Y4309900D01*
X4505900Y4308640D01*
X4499880Y4306680D01*
X4494120Y4304060D01*
X4488700Y4300780D01*
X4483680Y4296920D01*
X4479140Y4292500D01*
X4475120Y4287600D01*
X4471700Y4282280D01*
X4468900Y4276600D01*
X4466780Y4270620D01*
X4465340Y4264460D01*
X4464620Y4258160D01*
X4464620Y4251840D01*
X4465340Y4245540D01*
X4466780Y4239380D01*
X4468900Y4233400D01*
X4471700Y4227720D01*
X4475120Y4222400D01*
X4479140Y4217500D01*
X4483680Y4213080D01*
X4488700Y4209220D01*
X4494120Y4205940D01*
X4499880Y4203300D01*
X4505900Y4201360D01*
X4512100Y4200100D01*
G37*
G36*
X4982500Y4242500D02*
G01*
X5001080Y4242500D01*
X4999580Y4245480D01*
X4996540Y4249900D01*
X4992940Y4253900D01*
X4988840Y4257360D01*
X4984320Y4260240D01*
X4982500Y4261080D01*
G37*
G36*
X4928860Y4242500D02*
G01*
X4947500Y4242500D01*
X4947500Y4261140D01*
X4943380Y4258880D01*
X4939060Y4255700D01*
X4935200Y4251960D01*
X4931860Y4247740D01*
X4929120Y4243120D01*
G37*
G36*
X2203420Y4342360D02*
G01*
X2226580Y4342360D01*
X2229080Y4342640D01*
X2231220Y4343400D01*
X2233160Y4344600D01*
X2234760Y4346220D01*
X2235980Y4348140D01*
X2236740Y4350300D01*
X2237020Y4352780D01*
X2237020Y4394460D01*
X2236740Y4396960D01*
X2235980Y4399100D01*
X2234760Y4401040D01*
X2233160Y4402640D01*
X2232080Y4403320D01*
X2231080Y4404220D01*
X2230420Y4405400D01*
X2230200Y4406720D01*
X2230200Y4460120D01*
X2230380Y4461300D01*
X2230880Y4462360D01*
X2232040Y4464080D01*
X2233620Y4467540D01*
X2234560Y4471220D01*
X2234900Y4475000D01*
X2234560Y4478780D01*
X2233620Y4482460D01*
X2232040Y4485920D01*
X2230880Y4487640D01*
X2230380Y4488700D01*
X2230200Y4489880D01*
X2230200Y4594140D01*
X2230500Y4595660D01*
X2231380Y4596960D01*
X2232660Y4597820D01*
X2234200Y4598140D01*
X2241880Y4598140D01*
X2244380Y4598420D01*
X2246520Y4599160D01*
X2248460Y4600380D01*
X2250060Y4602000D01*
X2251280Y4603920D01*
X2252020Y4606060D01*
X2252300Y4608560D01*
X2252300Y4652700D01*
X2252020Y4655180D01*
X2251280Y4657340D01*
X2250060Y4659260D01*
X2248460Y4660880D01*
X2246520Y4662080D01*
X2244380Y4662840D01*
X2241880Y4663120D01*
X2188120Y4663120D01*
X2185620Y4662840D01*
X2183480Y4662080D01*
X2181540Y4660880D01*
X2179940Y4659260D01*
X2178720Y4657340D01*
X2177980Y4655180D01*
X2177700Y4652700D01*
X2177700Y4608560D01*
X2177980Y4606060D01*
X2178720Y4603920D01*
X2179940Y4602000D01*
X2181540Y4600380D01*
X2183480Y4599160D01*
X2185620Y4598420D01*
X2188120Y4598140D01*
X2195800Y4598140D01*
X2197340Y4597820D01*
X2198620Y4596960D01*
X2199500Y4595660D01*
X2199800Y4594140D01*
X2199800Y4495360D01*
X2199440Y4493700D01*
X2198440Y4492340D01*
X2196340Y4490500D01*
X2193940Y4487540D01*
X2192100Y4484220D01*
X2190840Y4480640D01*
X2190200Y4476900D01*
X2190200Y4473100D01*
X2190840Y4469360D01*
X2192100Y4465780D01*
X2193940Y4462460D01*
X2196340Y4459500D01*
X2198440Y4457660D01*
X2199440Y4456300D01*
X2199800Y4454640D01*
X2199800Y4406720D01*
X2199580Y4405400D01*
X2198920Y4404220D01*
X2197920Y4403320D01*
X2196840Y4402640D01*
X2195240Y4401040D01*
X2194020Y4399100D01*
X2193260Y4396960D01*
X2192980Y4394460D01*
X2192980Y4352780D01*
X2193260Y4350300D01*
X2194020Y4348140D01*
X2195240Y4346220D01*
X2196840Y4344600D01*
X2198780Y4343400D01*
X2200920Y4342640D01*
G37*
G36*
X2338420Y4342360D02*
G01*
X2361580Y4342360D01*
X2364080Y4342640D01*
X2366220Y4343400D01*
X2368160Y4344600D01*
X2369760Y4346220D01*
X2370980Y4348140D01*
X2371740Y4350300D01*
X2372020Y4352780D01*
X2372020Y4394460D01*
X2371740Y4396960D01*
X2370980Y4399100D01*
X2369760Y4401040D01*
X2368160Y4402640D01*
X2367080Y4403320D01*
X2366080Y4404220D01*
X2365420Y4405400D01*
X2365200Y4406720D01*
X2365200Y4457000D01*
X2365480Y4458500D01*
X2366320Y4459780D01*
X2367420Y4460940D01*
X2369540Y4464080D01*
X2371120Y4467540D01*
X2372060Y4471220D01*
X2372400Y4475000D01*
X2372060Y4478780D01*
X2371120Y4482460D01*
X2369540Y4485920D01*
X2367420Y4489060D01*
X2366320Y4490220D01*
X2365480Y4491500D01*
X2365200Y4493000D01*
X2365200Y4594140D01*
X2365500Y4595660D01*
X2366380Y4596960D01*
X2367660Y4597820D01*
X2369200Y4598140D01*
X2376880Y4598140D01*
X2379380Y4598420D01*
X2381520Y4599160D01*
X2383460Y4600380D01*
X2385060Y4602000D01*
X2386280Y4603920D01*
X2387020Y4606060D01*
X2387300Y4608560D01*
X2387300Y4652700D01*
X2387020Y4655180D01*
X2386280Y4657340D01*
X2385060Y4659260D01*
X2383460Y4660880D01*
X2381520Y4662080D01*
X2379380Y4662840D01*
X2376880Y4663120D01*
X2323120Y4663120D01*
X2320620Y4662840D01*
X2318480Y4662080D01*
X2316540Y4660880D01*
X2314940Y4659260D01*
X2313720Y4657340D01*
X2312980Y4655180D01*
X2312700Y4652700D01*
X2312700Y4608560D01*
X2312980Y4606060D01*
X2313720Y4603920D01*
X2314940Y4602000D01*
X2316540Y4600380D01*
X2318480Y4599160D01*
X2320620Y4598420D01*
X2323120Y4598140D01*
X2330800Y4598140D01*
X2332340Y4597820D01*
X2333620Y4596960D01*
X2334500Y4595660D01*
X2334800Y4594140D01*
X2334800Y4493100D01*
X2334580Y4491760D01*
X2333920Y4490580D01*
X2331440Y4487540D01*
X2329600Y4484220D01*
X2328340Y4480640D01*
X2327700Y4476900D01*
X2327700Y4473100D01*
X2328340Y4469360D01*
X2329600Y4465780D01*
X2331440Y4462460D01*
X2333920Y4459420D01*
X2334580Y4458240D01*
X2334800Y4456900D01*
X2334800Y4406720D01*
X2334580Y4405400D01*
X2333920Y4404220D01*
X2332920Y4403320D01*
X2331840Y4402640D01*
X2330240Y4401040D01*
X2329020Y4399100D01*
X2328260Y4396960D01*
X2327980Y4394460D01*
X2327980Y4352780D01*
X2328260Y4350300D01*
X2329020Y4348140D01*
X2330240Y4346220D01*
X2331840Y4344600D01*
X2333780Y4343400D01*
X2335920Y4342640D01*
G37*
G36*
X2872060Y4379120D02*
G01*
X2880320Y4379680D01*
X2888500Y4381000D01*
X2896520Y4383040D01*
X2904300Y4385820D01*
X2911820Y4389280D01*
X2918980Y4393420D01*
X2925740Y4398200D01*
X2932040Y4403560D01*
X2937840Y4409480D01*
X2943060Y4415900D01*
X2947679Y4422760D01*
X2951640Y4430020D01*
X2954940Y4437620D01*
X2957540Y4445480D01*
X2959400Y4453540D01*
X2960520Y4461740D01*
X2960899Y4470000D01*
X2960520Y4478260D01*
X2959400Y4486460D01*
X2957540Y4494520D01*
X2954940Y4502380D01*
X2951640Y4509980D01*
X2947679Y4517240D01*
X2943060Y4524100D01*
X2937840Y4530520D01*
X2932040Y4536440D01*
X2925740Y4541800D01*
X2918980Y4546580D01*
X2911820Y4550720D01*
X2904300Y4554180D01*
X2896520Y4556960D01*
X2888500Y4559000D01*
X2880320Y4560320D01*
X2872060Y4560880D01*
X2863800Y4560700D01*
X2855580Y4559760D01*
X2847480Y4558060D01*
X2839560Y4555660D01*
X2831900Y4552540D01*
X2824540Y4548720D01*
X2817580Y4544260D01*
X2811040Y4539200D01*
X2805000Y4533540D01*
X2799480Y4527360D01*
X2794560Y4520720D01*
X2790260Y4513640D01*
X2786620Y4506220D01*
X2783680Y4498480D01*
X2781440Y4490520D01*
X2779940Y4482380D01*
X2779180Y4474140D01*
X2779180Y4465860D01*
X2779940Y4457620D01*
X2781440Y4449480D01*
X2783680Y4441520D01*
X2786620Y4433780D01*
X2790260Y4426360D01*
X2794560Y4419280D01*
X2799480Y4412640D01*
X2805000Y4406460D01*
X2811040Y4400800D01*
X2817580Y4395740D01*
X2824540Y4391280D01*
X2831900Y4387460D01*
X2839560Y4384340D01*
X2847480Y4381940D01*
X2855580Y4380240D01*
X2863800Y4379300D01*
G37*
G36*
X3277060Y4384120D02*
G01*
X3285320Y4384680D01*
X3293500Y4386000D01*
X3301520Y4388040D01*
X3309300Y4390820D01*
X3316820Y4394280D01*
X3323980Y4398420D01*
X3330740Y4403200D01*
X3337040Y4408560D01*
X3342840Y4414480D01*
X3348060Y4420900D01*
X3352679Y4427760D01*
X3356640Y4435020D01*
X3359940Y4442620D01*
X3362540Y4450480D01*
X3364400Y4458540D01*
X3365520Y4466740D01*
X3365899Y4475000D01*
X3365520Y4483260D01*
X3364400Y4491460D01*
X3362540Y4499520D01*
X3359940Y4507380D01*
X3356640Y4514980D01*
X3352679Y4522240D01*
X3348060Y4529100D01*
X3342840Y4535520D01*
X3337040Y4541440D01*
X3330740Y4546800D01*
X3323980Y4551580D01*
X3316820Y4555720D01*
X3309300Y4559180D01*
X3301520Y4561960D01*
X3293500Y4564000D01*
X3285320Y4565320D01*
X3277060Y4565880D01*
X3268800Y4565700D01*
X3260580Y4564760D01*
X3252480Y4563060D01*
X3244560Y4560660D01*
X3236900Y4557540D01*
X3229540Y4553720D01*
X3222580Y4549260D01*
X3216040Y4544200D01*
X3210000Y4538540D01*
X3204480Y4532360D01*
X3199560Y4525720D01*
X3195260Y4518640D01*
X3191620Y4511220D01*
X3188680Y4503480D01*
X3186440Y4495520D01*
X3184940Y4487380D01*
X3184180Y4479140D01*
X3184180Y4470860D01*
X3184940Y4462620D01*
X3186440Y4454480D01*
X3188680Y4446520D01*
X3191620Y4438780D01*
X3195260Y4431360D01*
X3199560Y4424280D01*
X3204480Y4417640D01*
X3210000Y4411460D01*
X3216040Y4405800D01*
X3222580Y4400740D01*
X3229540Y4396280D01*
X3236900Y4392460D01*
X3244560Y4389340D01*
X3252480Y4386940D01*
X3260580Y4385240D01*
X3268800Y4384300D01*
G37*
G36*
X972500Y4408860D02*
G01*
X972500Y4427500D01*
X953860Y4427500D01*
X954120Y4426880D01*
X956860Y4422260D01*
X960200Y4418040D01*
X964060Y4414300D01*
X968379Y4411120D01*
G37*
G36*
X1007500Y4408920D02*
G01*
X1009320Y4409760D01*
X1013840Y4412640D01*
X1017940Y4416100D01*
X1021540Y4420100D01*
X1024580Y4424520D01*
X1026080Y4427500D01*
X1007500Y4427500D01*
G37*
G36*
X1007500Y4462500D02*
G01*
X1026080Y4462500D01*
X1024580Y4465480D01*
X1021540Y4469900D01*
X1017940Y4473900D01*
X1013840Y4477360D01*
X1009320Y4480240D01*
X1007500Y4481080D01*
G37*
G36*
X953860Y4462500D02*
G01*
X972500Y4462500D01*
X972500Y4481140D01*
X968379Y4478880D01*
X964060Y4475700D01*
X960200Y4471960D01*
X956860Y4467740D01*
X954120Y4463120D01*
G37*
G36*
X1067720Y4701400D02*
G01*
X1076820Y4701600D01*
X1085860Y4702540D01*
X1094800Y4704240D01*
X1103560Y4706700D01*
X1112100Y4709860D01*
X1120320Y4713740D01*
X1128200Y4718280D01*
X1135680Y4723480D01*
X1142680Y4729280D01*
X1149180Y4735640D01*
X1155120Y4742520D01*
X1160480Y4749880D01*
X1165180Y4757680D01*
X1169240Y4765820D01*
X1172580Y4774280D01*
X1175200Y4782980D01*
X1177100Y4791880D01*
X1178240Y4800920D01*
X1178620Y4810000D01*
X1178240Y4819080D01*
X1177100Y4828120D01*
X1175200Y4837020D01*
X1172580Y4845720D01*
X1169240Y4854180D01*
X1165180Y4862320D01*
X1160480Y4870120D01*
X1155120Y4877460D01*
X1149180Y4884360D01*
X1142680Y4890720D01*
X1135680Y4896520D01*
X1128200Y4901720D01*
X1120320Y4906260D01*
X1112100Y4910140D01*
X1103560Y4913300D01*
X1094800Y4915760D01*
X1085860Y4917460D01*
X1076820Y4918400D01*
X1067720Y4918600D01*
X1058640Y4918020D01*
X1049640Y4916700D01*
X1040780Y4914620D01*
X1032140Y4911800D01*
X1023760Y4908280D01*
X1015680Y4904060D01*
X1008000Y4899200D01*
X1000759Y4893700D01*
X994000Y4887600D01*
X987780Y4880980D01*
X982120Y4873840D01*
X977080Y4866260D01*
X972700Y4858300D01*
X969000Y4849980D01*
X966020Y4841400D01*
X963760Y4832580D01*
X962240Y4823620D01*
X961480Y4814540D01*
X961480Y4805460D01*
X962240Y4796380D01*
X963760Y4787420D01*
X966020Y4778600D01*
X969000Y4770020D01*
X972700Y4761700D01*
X977080Y4753740D01*
X982120Y4746160D01*
X987780Y4739020D01*
X994000Y4732400D01*
X1000759Y4726300D01*
X1008000Y4720800D01*
X1015680Y4715940D01*
X1023760Y4711720D01*
X1032140Y4708200D01*
X1040780Y4705380D01*
X1049640Y4703300D01*
X1058640Y4701980D01*
G37*
G36*
X820200Y4934800D02*
G01*
X3319800Y4934800D01*
X3322960Y4935120D01*
X3325800Y4935980D01*
X3328420Y4937380D01*
X3330960Y4939480D01*
X3675800Y5289299D01*
X4055120Y5668620D01*
X4056420Y5669500D01*
X4057960Y5669800D01*
X4102000Y5669800D01*
X4103399Y5669539D01*
X4104640Y5668800D01*
X4106680Y5667000D01*
X4109920Y5665000D01*
X4113440Y5663600D01*
X4117160Y5662800D01*
X4120960Y5662619D01*
X4124720Y5663120D01*
X4128340Y5664220D01*
X4131740Y5665940D01*
X4134800Y5668200D01*
X4137420Y5670940D01*
X4139540Y5674080D01*
X4141120Y5677540D01*
X4142060Y5681220D01*
X4142400Y5685000D01*
X4142060Y5688780D01*
X4141120Y5692460D01*
X4139540Y5695920D01*
X4137420Y5699059D01*
X4134800Y5701799D01*
X4131740Y5704059D01*
X4128340Y5705780D01*
X4124720Y5706880D01*
X4120960Y5707380D01*
X4117160Y5707200D01*
X4113440Y5706400D01*
X4109920Y5705000D01*
X4106680Y5703000D01*
X4104640Y5701200D01*
X4103399Y5700460D01*
X4102000Y5700200D01*
X4050200Y5700200D01*
X4045280Y5699760D01*
X4043639Y5700380D01*
X4042440Y5701660D01*
X4041880Y5703320D01*
X4042100Y5705060D01*
X4043039Y5706540D01*
X4102160Y5765680D01*
X4103660Y5766620D01*
X4105419Y5766820D01*
X4107100Y5766240D01*
X4109100Y5765000D01*
X4112640Y5763600D01*
X4116340Y5762800D01*
X4120140Y5762619D01*
X4123900Y5763120D01*
X4127540Y5764220D01*
X4130920Y5765940D01*
X4133980Y5768200D01*
X4136620Y5770940D01*
X4138740Y5774080D01*
X4140299Y5777540D01*
X4141259Y5781220D01*
X4141580Y5785000D01*
X4141259Y5788780D01*
X4140299Y5792460D01*
X4138740Y5795920D01*
X4136620Y5799059D01*
X4133980Y5801799D01*
X4132940Y5802580D01*
X4131840Y5803819D01*
X4131340Y5805400D01*
X4131520Y5807060D01*
X4132340Y5808480D01*
X4133700Y5809460D01*
X4135320Y5809800D01*
X4419800Y5809800D01*
X4422960Y5810119D01*
X4425800Y5810980D01*
X4428440Y5812380D01*
X4430880Y5814400D01*
X4495600Y5879120D01*
X4497620Y5881559D01*
X4499020Y5884200D01*
X4499880Y5887039D01*
X4500200Y5890200D01*
X4500200Y5922000D01*
X4500480Y5923500D01*
X4501320Y5924779D01*
X4502420Y5925940D01*
X4504540Y5929080D01*
X4506120Y5932540D01*
X4507060Y5936220D01*
X4507400Y5940000D01*
X4507060Y5943780D01*
X4506120Y5947460D01*
X4504540Y5950920D01*
X4502420Y5954059D01*
X4499800Y5956799D01*
X4496740Y5959059D01*
X4493340Y5960780D01*
X4489720Y5961880D01*
X4485960Y5962380D01*
X4482160Y5962200D01*
X4478440Y5961400D01*
X4474920Y5960000D01*
X4471680Y5958000D01*
X4468840Y5955500D01*
X4466440Y5952540D01*
X4464600Y5949220D01*
X4463340Y5945640D01*
X4462700Y5941900D01*
X4462700Y5938099D01*
X4463340Y5934360D01*
X4464600Y5930780D01*
X4466440Y5927460D01*
X4468920Y5924420D01*
X4469580Y5923240D01*
X4469800Y5921900D01*
X4469800Y5897960D01*
X4469500Y5896420D01*
X4468620Y5895119D01*
X4414880Y5841380D01*
X4413580Y5840500D01*
X4412040Y5840200D01*
X4365860Y5840200D01*
X4364280Y5840520D01*
X4362940Y5841460D01*
X4362100Y5842859D01*
X4361880Y5844460D01*
X4362300Y5846020D01*
X4363320Y5847300D01*
X4365880Y5849400D01*
X4395600Y5879120D01*
X4397620Y5881559D01*
X4399020Y5884200D01*
X4399880Y5887039D01*
X4400200Y5890200D01*
X4400200Y5922000D01*
X4400480Y5923500D01*
X4401320Y5924779D01*
X4402420Y5925940D01*
X4404540Y5929080D01*
X4406120Y5932540D01*
X4407060Y5936220D01*
X4407400Y5940000D01*
X4407060Y5943780D01*
X4406120Y5947460D01*
X4404540Y5950920D01*
X4402420Y5954059D01*
X4399800Y5956799D01*
X4396740Y5959059D01*
X4393340Y5960780D01*
X4389720Y5961880D01*
X4385960Y5962380D01*
X4382160Y5962200D01*
X4378440Y5961400D01*
X4374920Y5960000D01*
X4371680Y5958000D01*
X4368840Y5955500D01*
X4366440Y5952540D01*
X4364600Y5949220D01*
X4363340Y5945640D01*
X4362700Y5941900D01*
X4362700Y5938099D01*
X4363340Y5934360D01*
X4364600Y5930780D01*
X4366440Y5927460D01*
X4368920Y5924420D01*
X4369580Y5923240D01*
X4369800Y5921900D01*
X4369800Y5897960D01*
X4369500Y5896420D01*
X4368620Y5895119D01*
X4349880Y5876380D01*
X4348580Y5875500D01*
X4347040Y5875200D01*
X4085200Y5875200D01*
X4082040Y5874880D01*
X4079200Y5874020D01*
X4076560Y5872619D01*
X4074120Y5870599D01*
X3924880Y5721380D01*
X3923580Y5720500D01*
X3922040Y5720200D01*
X1020200Y5720200D01*
X1017039Y5719880D01*
X1014200Y5719020D01*
X1011560Y5717619D01*
X1009120Y5715599D01*
X934880Y5641380D01*
X933580Y5640500D01*
X932039Y5640200D01*
X782960Y5640200D01*
X781420Y5640500D01*
X780120Y5641380D01*
X750620Y5670880D01*
X749720Y5672279D01*
X749460Y5673940D01*
X749900Y5675560D01*
X750960Y5676840D01*
X752480Y5677580D01*
X754140Y5677640D01*
X755699Y5677020D01*
X759580Y5674380D01*
X769200Y5668760D01*
X779220Y5663840D01*
X789539Y5659620D01*
X800120Y5656120D01*
X810939Y5653380D01*
X821900Y5651380D01*
X832980Y5650160D01*
X844140Y5649720D01*
X855280Y5650040D01*
X866380Y5651140D01*
X877360Y5653020D01*
X888199Y5655640D01*
X898840Y5659020D01*
X909200Y5663140D01*
X919260Y5667960D01*
X928960Y5673460D01*
X938240Y5679620D01*
X946979Y5686340D01*
X949160Y5688560D01*
X950819Y5691040D01*
X951940Y5693780D01*
X952520Y5696700D01*
X952500Y5699680D01*
X951919Y5702600D01*
X950759Y5705340D01*
X949100Y5707820D01*
X947000Y5709900D01*
X944520Y5711559D01*
X942520Y5712380D01*
X941220Y5713240D01*
X940340Y5714539D01*
X940040Y5716079D01*
X940040Y5788620D01*
X940320Y5790060D01*
X940040Y5791500D01*
X940040Y5818500D01*
X940320Y5819940D01*
X940040Y5821380D01*
X940040Y5879820D01*
X939720Y5883480D01*
X938820Y5886840D01*
X937340Y5890019D01*
X935340Y5892880D01*
X932880Y5895340D01*
X930020Y5897340D01*
X926840Y5898819D01*
X923480Y5899720D01*
X920000Y5900019D01*
X916520Y5899720D01*
X913160Y5898819D01*
X909980Y5897340D01*
X907120Y5895340D01*
X904659Y5892880D01*
X902660Y5890019D01*
X901180Y5886840D01*
X900280Y5883480D01*
X899960Y5879820D01*
X899960Y5695000D01*
X899659Y5693500D01*
X898820Y5692200D01*
X897560Y5691340D01*
X892099Y5688960D01*
X882340Y5685599D01*
X872340Y5683020D01*
X864740Y5681700D01*
X863000Y5681760D01*
X861460Y5682560D01*
X860420Y5683940D01*
X860040Y5685640D01*
X860040Y5924820D01*
X859720Y5928480D01*
X858800Y5931860D01*
X857340Y5935019D01*
X855340Y5937880D01*
X852860Y5940340D01*
X850000Y5942340D01*
X846840Y5943819D01*
X843460Y5944720D01*
X839980Y5945019D01*
X836520Y5944720D01*
X833139Y5943819D01*
X829980Y5942340D01*
X827120Y5940340D01*
X824640Y5937880D01*
X822640Y5935019D01*
X821180Y5931840D01*
X820260Y5928480D01*
X819940Y5924820D01*
X819960Y5687600D01*
X819700Y5686200D01*
X818960Y5684980D01*
X817860Y5684080D01*
X816500Y5683640D01*
X815060Y5683700D01*
X810960Y5684660D01*
X801120Y5687760D01*
X791540Y5691620D01*
X782580Y5696100D01*
X781240Y5697140D01*
X780360Y5698460D01*
X780040Y5700000D01*
X780040Y5879820D01*
X779720Y5883480D01*
X778820Y5886840D01*
X777340Y5890019D01*
X775340Y5892880D01*
X772880Y5895340D01*
X770020Y5897340D01*
X766840Y5898819D01*
X763480Y5899720D01*
X760000Y5900019D01*
X756520Y5899720D01*
X753160Y5898819D01*
X749980Y5897340D01*
X747120Y5895340D01*
X744659Y5892880D01*
X742660Y5890019D01*
X741180Y5886840D01*
X740280Y5883480D01*
X739960Y5879820D01*
X739960Y5816500D01*
X739640Y5814940D01*
X738740Y5813620D01*
X737400Y5812760D01*
X735819Y5812500D01*
X734280Y5812859D01*
X733000Y5813800D01*
X729580Y5820480D01*
X726540Y5824900D01*
X722940Y5828900D01*
X718840Y5832360D01*
X714320Y5835240D01*
X709440Y5837500D01*
X704320Y5839100D01*
X699020Y5839980D01*
X693660Y5840160D01*
X688319Y5839640D01*
X683100Y5838380D01*
X678080Y5836460D01*
X673379Y5833880D01*
X669060Y5830700D01*
X665200Y5826960D01*
X661860Y5822740D01*
X659120Y5818120D01*
X657039Y5813180D01*
X655620Y5808000D01*
X654900Y5802680D01*
X654900Y5797320D01*
X655620Y5792000D01*
X657039Y5786820D01*
X659120Y5781880D01*
X661860Y5777260D01*
X665200Y5773040D01*
X669060Y5769299D01*
X673379Y5766120D01*
X677720Y5763740D01*
X678820Y5762840D01*
X679539Y5761620D01*
X679800Y5760240D01*
X679800Y5705200D01*
X680120Y5702039D01*
X680980Y5699200D01*
X682380Y5696559D01*
X684400Y5694120D01*
X764120Y5614400D01*
X766560Y5612380D01*
X769200Y5610980D01*
X772039Y5610119D01*
X775200Y5609800D01*
X939800Y5609800D01*
X942960Y5610119D01*
X945800Y5610980D01*
X948439Y5612380D01*
X950879Y5614400D01*
X1025120Y5688620D01*
X1026420Y5689500D01*
X1027960Y5689800D01*
X3918639Y5689800D01*
X3920179Y5689500D01*
X3921480Y5688620D01*
X3922340Y5687340D01*
X3922640Y5685800D01*
X3922340Y5684260D01*
X3921480Y5682980D01*
X3594880Y5356380D01*
X3593580Y5355500D01*
X3592040Y5355200D01*
X1047960Y5355200D01*
X1046420Y5355500D01*
X1045120Y5356380D01*
X986380Y5415119D01*
X985500Y5416420D01*
X985200Y5417960D01*
X985200Y5434500D01*
X985520Y5436079D01*
X986460Y5437400D01*
X987840Y5438260D01*
X989440Y5438480D01*
X991000Y5438060D01*
X992280Y5437060D01*
X995600Y5433080D01*
X1003319Y5425019D01*
X1011580Y5417540D01*
X1020340Y5410640D01*
X1029580Y5404380D01*
X1039200Y5398760D01*
X1049220Y5393840D01*
X1059540Y5389620D01*
X1070120Y5386120D01*
X1080940Y5383380D01*
X1091900Y5381380D01*
X1102980Y5380160D01*
X1114140Y5379720D01*
X1125280Y5380040D01*
X1136380Y5381140D01*
X1147360Y5383020D01*
X1158200Y5385640D01*
X1168840Y5389020D01*
X1179200Y5393140D01*
X1189260Y5397960D01*
X1198960Y5403460D01*
X1208240Y5409620D01*
X1216980Y5416340D01*
X1219160Y5418560D01*
X1220820Y5421040D01*
X1221940Y5423780D01*
X1222520Y5426700D01*
X1222500Y5429680D01*
X1221920Y5432600D01*
X1220760Y5435340D01*
X1219100Y5437820D01*
X1217000Y5439900D01*
X1214520Y5441559D01*
X1212520Y5442380D01*
X1211220Y5443240D01*
X1210340Y5444539D01*
X1210040Y5446079D01*
X1210040Y5609820D01*
X1209720Y5613480D01*
X1208820Y5616840D01*
X1207340Y5620019D01*
X1205340Y5622880D01*
X1202880Y5625340D01*
X1200020Y5627340D01*
X1196840Y5628819D01*
X1193480Y5629720D01*
X1190000Y5630019D01*
X1186520Y5629720D01*
X1183160Y5628819D01*
X1179980Y5627340D01*
X1177120Y5625340D01*
X1174660Y5622880D01*
X1172660Y5620019D01*
X1171180Y5616840D01*
X1170280Y5613480D01*
X1169960Y5609820D01*
X1169960Y5425000D01*
X1169660Y5423500D01*
X1168820Y5422200D01*
X1167560Y5421340D01*
X1162100Y5418960D01*
X1152340Y5415599D01*
X1142340Y5413020D01*
X1134740Y5411700D01*
X1133000Y5411760D01*
X1131460Y5412560D01*
X1130420Y5413940D01*
X1130040Y5415640D01*
X1130040Y5654820D01*
X1129720Y5658480D01*
X1128800Y5661860D01*
X1127340Y5665019D01*
X1125340Y5667880D01*
X1122860Y5670340D01*
X1120000Y5672340D01*
X1116840Y5673819D01*
X1113460Y5674720D01*
X1109980Y5675019D01*
X1106520Y5674720D01*
X1103140Y5673819D01*
X1099980Y5672340D01*
X1097120Y5670340D01*
X1094640Y5667880D01*
X1092640Y5665019D01*
X1091180Y5661840D01*
X1090260Y5658480D01*
X1089940Y5654820D01*
X1089960Y5417600D01*
X1089700Y5416200D01*
X1088960Y5414980D01*
X1087860Y5414080D01*
X1086500Y5413640D01*
X1085060Y5413700D01*
X1080960Y5414660D01*
X1071120Y5417760D01*
X1061540Y5421620D01*
X1052580Y5426100D01*
X1051240Y5427140D01*
X1050360Y5428460D01*
X1050040Y5430000D01*
X1050040Y5609820D01*
X1049720Y5613480D01*
X1048820Y5616840D01*
X1047340Y5620019D01*
X1045340Y5622880D01*
X1042880Y5625340D01*
X1040020Y5627340D01*
X1036840Y5628819D01*
X1033480Y5629720D01*
X1030000Y5630019D01*
X1026520Y5629720D01*
X1023160Y5628819D01*
X1019980Y5627340D01*
X1017120Y5625340D01*
X1014659Y5622880D01*
X1012660Y5620019D01*
X1011180Y5616840D01*
X1010280Y5613480D01*
X1009960Y5609820D01*
X1009960Y5555540D01*
X1009599Y5553900D01*
X1008600Y5552540D01*
X1007140Y5551720D01*
X1005460Y5551580D01*
X1003880Y5552120D01*
X1002660Y5553280D01*
X1001540Y5554900D01*
X997940Y5558900D01*
X993840Y5562360D01*
X989320Y5565240D01*
X984440Y5567500D01*
X979320Y5569100D01*
X974020Y5569980D01*
X968660Y5570160D01*
X963319Y5569640D01*
X958100Y5568380D01*
X953080Y5566460D01*
X948379Y5563880D01*
X944060Y5560700D01*
X940200Y5556960D01*
X936860Y5552740D01*
X934120Y5548120D01*
X932039Y5543180D01*
X930620Y5538000D01*
X929900Y5532680D01*
X929900Y5527320D01*
X930620Y5522000D01*
X932039Y5516820D01*
X934120Y5511880D01*
X936860Y5507260D01*
X940200Y5503040D01*
X944060Y5499299D01*
X948379Y5496120D01*
X952720Y5493740D01*
X953820Y5492840D01*
X954539Y5491620D01*
X954800Y5490240D01*
X954800Y5410200D01*
X955240Y5405280D01*
X954620Y5403640D01*
X953340Y5402440D01*
X951680Y5401880D01*
X949940Y5402100D01*
X948460Y5403040D01*
X915879Y5435599D01*
X913439Y5437619D01*
X910800Y5439020D01*
X907960Y5439880D01*
X904800Y5440200D01*
X760200Y5440200D01*
X757039Y5439880D01*
X754200Y5439020D01*
X751560Y5437619D01*
X749120Y5435599D01*
X679880Y5366380D01*
X678580Y5365500D01*
X677039Y5365200D01*
X512960Y5365200D01*
X511420Y5365500D01*
X510120Y5366380D01*
X441380Y5435119D01*
X440500Y5436420D01*
X440200Y5437960D01*
X440200Y5439500D01*
X440520Y5441079D01*
X441460Y5442400D01*
X442840Y5443260D01*
X444440Y5443480D01*
X446000Y5443060D01*
X447280Y5442060D01*
X450600Y5438080D01*
X458320Y5430019D01*
X466580Y5422540D01*
X475340Y5415640D01*
X484580Y5409380D01*
X494200Y5403760D01*
X504219Y5398840D01*
X514540Y5394620D01*
X525120Y5391120D01*
X535940Y5388380D01*
X546900Y5386380D01*
X557980Y5385160D01*
X569140Y5384720D01*
X580280Y5385040D01*
X591380Y5386140D01*
X602360Y5388020D01*
X613200Y5390640D01*
X623840Y5394020D01*
X634200Y5398140D01*
X644260Y5402960D01*
X653960Y5408460D01*
X663240Y5414620D01*
X671979Y5421340D01*
X674160Y5423560D01*
X675819Y5426040D01*
X676940Y5428780D01*
X677520Y5431700D01*
X677500Y5434680D01*
X676919Y5437600D01*
X675759Y5440340D01*
X674100Y5442820D01*
X672000Y5444900D01*
X669520Y5446559D01*
X667520Y5447380D01*
X666220Y5448240D01*
X665340Y5449539D01*
X665040Y5451079D01*
X665040Y5614820D01*
X664720Y5618480D01*
X663820Y5621840D01*
X662340Y5625019D01*
X660340Y5627880D01*
X657880Y5630340D01*
X655020Y5632340D01*
X651840Y5633819D01*
X648480Y5634720D01*
X645000Y5635019D01*
X641520Y5634720D01*
X638160Y5633819D01*
X634980Y5632340D01*
X632120Y5630340D01*
X629660Y5627880D01*
X627660Y5625019D01*
X626180Y5621840D01*
X625280Y5618480D01*
X624960Y5614820D01*
X624960Y5430000D01*
X624660Y5428500D01*
X623820Y5427200D01*
X622560Y5426340D01*
X617100Y5423960D01*
X607340Y5420599D01*
X597340Y5418020D01*
X589740Y5416700D01*
X588000Y5416760D01*
X586460Y5417560D01*
X585420Y5418940D01*
X585040Y5420640D01*
X585040Y5659820D01*
X584720Y5663480D01*
X583800Y5666860D01*
X582340Y5670019D01*
X580340Y5672880D01*
X577860Y5675340D01*
X575000Y5677340D01*
X571840Y5678819D01*
X568460Y5679720D01*
X564980Y5680019D01*
X561520Y5679720D01*
X558140Y5678819D01*
X554980Y5677340D01*
X552120Y5675340D01*
X549640Y5672880D01*
X547640Y5670019D01*
X546180Y5666840D01*
X545260Y5663480D01*
X544940Y5659820D01*
X544960Y5422600D01*
X544700Y5421200D01*
X543960Y5419980D01*
X542860Y5419080D01*
X541500Y5418640D01*
X540060Y5418700D01*
X535960Y5419660D01*
X526120Y5422760D01*
X516540Y5426620D01*
X507580Y5431100D01*
X506240Y5432140D01*
X505360Y5433460D01*
X505040Y5435000D01*
X505040Y5614820D01*
X504720Y5618480D01*
X503820Y5621840D01*
X502340Y5625019D01*
X500340Y5627880D01*
X497879Y5630340D01*
X495020Y5632340D01*
X491840Y5633819D01*
X488480Y5634720D01*
X485000Y5635019D01*
X481520Y5634720D01*
X478160Y5633819D01*
X474980Y5632340D01*
X472120Y5630340D01*
X469660Y5627880D01*
X467660Y5625019D01*
X466180Y5621840D01*
X465280Y5618480D01*
X464960Y5614820D01*
X464960Y5560540D01*
X464600Y5558900D01*
X463600Y5557540D01*
X462140Y5556720D01*
X460460Y5556580D01*
X458880Y5557120D01*
X457660Y5558280D01*
X456540Y5559900D01*
X452939Y5563900D01*
X448840Y5567360D01*
X444320Y5570240D01*
X439440Y5572500D01*
X434320Y5574100D01*
X429020Y5574980D01*
X423660Y5575160D01*
X418320Y5574640D01*
X413100Y5573380D01*
X408080Y5571460D01*
X403380Y5568880D01*
X399060Y5565700D01*
X395200Y5561960D01*
X391860Y5557740D01*
X389120Y5553120D01*
X387040Y5548180D01*
X385620Y5543000D01*
X384900Y5537680D01*
X384900Y5532320D01*
X385620Y5527000D01*
X387040Y5521820D01*
X389120Y5516880D01*
X391860Y5512260D01*
X395200Y5508040D01*
X399060Y5504299D01*
X403380Y5501120D01*
X407720Y5498740D01*
X408820Y5497840D01*
X409540Y5496620D01*
X409799Y5495240D01*
X409799Y5430200D01*
X410120Y5427039D01*
X410980Y5424200D01*
X412380Y5421559D01*
X414400Y5419120D01*
X494120Y5339400D01*
X496560Y5337380D01*
X499200Y5335980D01*
X502040Y5335119D01*
X505200Y5334800D01*
X684800Y5334800D01*
X687960Y5335119D01*
X690800Y5335980D01*
X693439Y5337380D01*
X695879Y5339400D01*
X765120Y5408620D01*
X766420Y5409500D01*
X767960Y5409800D01*
X897039Y5409800D01*
X898580Y5409500D01*
X899880Y5408620D01*
X1005040Y5303460D01*
X1005920Y5302140D01*
X1006220Y5300580D01*
X1005879Y5299040D01*
X1004980Y5297740D01*
X1003640Y5296880D01*
X1002500Y5296700D01*
X1002500Y5277500D01*
X1021760Y5277500D01*
X1022200Y5278940D01*
X1023120Y5280119D01*
X1024400Y5280860D01*
X1025879Y5281100D01*
X1027340Y5280780D01*
X1028580Y5279920D01*
X1334120Y4974400D01*
X1336680Y4972300D01*
X1337700Y4971020D01*
X1338120Y4969460D01*
X1337900Y4967860D01*
X1337060Y4966460D01*
X1335720Y4965520D01*
X1334139Y4965200D01*
X827960Y4965200D01*
X826420Y4965500D01*
X825120Y4966380D01*
X711380Y5080120D01*
X710500Y5081420D01*
X710200Y5082960D01*
X710200Y5159500D01*
X710520Y5161079D01*
X711460Y5162400D01*
X712840Y5163260D01*
X714440Y5163480D01*
X716000Y5163060D01*
X717280Y5162060D01*
X720600Y5158080D01*
X728319Y5150019D01*
X736580Y5142540D01*
X745340Y5135640D01*
X754580Y5129380D01*
X764200Y5123760D01*
X774220Y5118840D01*
X784539Y5114620D01*
X795120Y5111120D01*
X805939Y5108380D01*
X816900Y5106380D01*
X827980Y5105160D01*
X839140Y5104720D01*
X850280Y5105040D01*
X861380Y5106140D01*
X872360Y5108020D01*
X883199Y5110640D01*
X893840Y5114020D01*
X904200Y5118140D01*
X914260Y5122960D01*
X923960Y5128460D01*
X933240Y5134620D01*
X941979Y5141340D01*
X944160Y5143560D01*
X945819Y5146040D01*
X946940Y5148780D01*
X947520Y5151700D01*
X947500Y5154680D01*
X946919Y5157600D01*
X945759Y5160340D01*
X944100Y5162820D01*
X942000Y5164900D01*
X939520Y5166559D01*
X937520Y5167380D01*
X936220Y5168240D01*
X935340Y5169539D01*
X935040Y5171079D01*
X935040Y5334820D01*
X934720Y5338480D01*
X933820Y5341840D01*
X932340Y5345019D01*
X930340Y5347880D01*
X927880Y5350340D01*
X925020Y5352340D01*
X921840Y5353819D01*
X918480Y5354720D01*
X915000Y5355019D01*
X911520Y5354720D01*
X908160Y5353819D01*
X904980Y5352340D01*
X902120Y5350340D01*
X899659Y5347880D01*
X897660Y5345019D01*
X896180Y5341840D01*
X895280Y5338480D01*
X894960Y5334820D01*
X894960Y5150000D01*
X894659Y5148500D01*
X893820Y5147200D01*
X892560Y5146340D01*
X887099Y5143960D01*
X877340Y5140599D01*
X867340Y5138020D01*
X859740Y5136700D01*
X858000Y5136760D01*
X856460Y5137560D01*
X855420Y5138940D01*
X855040Y5140640D01*
X855040Y5379820D01*
X854720Y5383480D01*
X853800Y5386860D01*
X852340Y5390019D01*
X850340Y5392880D01*
X847860Y5395340D01*
X845000Y5397340D01*
X841840Y5398819D01*
X838460Y5399720D01*
X834980Y5400019D01*
X831520Y5399720D01*
X828139Y5398819D01*
X824980Y5397340D01*
X822120Y5395340D01*
X819640Y5392880D01*
X817640Y5390019D01*
X816180Y5386840D01*
X815260Y5383480D01*
X814940Y5379820D01*
X814960Y5142600D01*
X814700Y5141200D01*
X813960Y5139980D01*
X812860Y5139080D01*
X811500Y5138640D01*
X810060Y5138700D01*
X805960Y5139660D01*
X796120Y5142760D01*
X786540Y5146620D01*
X777580Y5151100D01*
X776240Y5152140D01*
X775360Y5153460D01*
X775040Y5155000D01*
X775040Y5334820D01*
X774720Y5338480D01*
X773820Y5341840D01*
X772340Y5345019D01*
X770340Y5347880D01*
X767880Y5350340D01*
X765020Y5352340D01*
X761840Y5353819D01*
X758480Y5354720D01*
X755000Y5355019D01*
X751520Y5354720D01*
X748160Y5353819D01*
X744980Y5352340D01*
X742120Y5350340D01*
X739659Y5347880D01*
X737660Y5345019D01*
X736180Y5341840D01*
X735280Y5338480D01*
X734960Y5334820D01*
X734960Y5280540D01*
X734599Y5278900D01*
X733600Y5277540D01*
X732140Y5276720D01*
X730460Y5276580D01*
X728880Y5277120D01*
X727660Y5278280D01*
X726540Y5279900D01*
X722940Y5283900D01*
X718840Y5287360D01*
X714320Y5290240D01*
X709440Y5292500D01*
X704320Y5294100D01*
X699020Y5294980D01*
X693660Y5295160D01*
X688319Y5294640D01*
X683100Y5293380D01*
X678080Y5291460D01*
X673379Y5288880D01*
X669060Y5285700D01*
X665200Y5281960D01*
X661860Y5277740D01*
X659120Y5273120D01*
X657039Y5268180D01*
X655620Y5263000D01*
X654900Y5257680D01*
X654900Y5252320D01*
X655620Y5247000D01*
X657039Y5241820D01*
X659120Y5236880D01*
X661860Y5232260D01*
X665200Y5228040D01*
X669060Y5224299D01*
X673379Y5221120D01*
X677720Y5218740D01*
X678820Y5217840D01*
X679539Y5216620D01*
X679800Y5215240D01*
X679800Y5075200D01*
X680120Y5072040D01*
X680980Y5069200D01*
X682380Y5066560D01*
X684400Y5064120D01*
X809120Y4939400D01*
X811560Y4937380D01*
X814200Y4935980D01*
X817039Y4935120D01*
G37*
G36*
X413420Y5209560D02*
G01*
X419739Y5209740D01*
X426019Y5210640D01*
X432140Y5212240D01*
X438040Y5214539D01*
X443640Y5217500D01*
X448880Y5221079D01*
X453660Y5225220D01*
X457939Y5229880D01*
X461659Y5235019D01*
X464780Y5240520D01*
X467239Y5246360D01*
X469020Y5252440D01*
X470100Y5258680D01*
X470460Y5265000D01*
X470100Y5271319D01*
X469020Y5277560D01*
X467239Y5283640D01*
X464780Y5289480D01*
X461659Y5294980D01*
X457939Y5300119D01*
X453660Y5304779D01*
X448880Y5308920D01*
X443640Y5312500D01*
X438040Y5315460D01*
X432140Y5317760D01*
X426019Y5319360D01*
X419739Y5320260D01*
X413420Y5320440D01*
X407100Y5319900D01*
X400900Y5318640D01*
X394880Y5316680D01*
X389120Y5314059D01*
X383700Y5310780D01*
X378680Y5306920D01*
X374140Y5302500D01*
X370120Y5297600D01*
X366700Y5292279D01*
X363900Y5286600D01*
X361780Y5280620D01*
X360340Y5274460D01*
X359620Y5268160D01*
X359620Y5261840D01*
X360340Y5255540D01*
X361780Y5249380D01*
X363900Y5243400D01*
X366700Y5237720D01*
X370120Y5232400D01*
X374140Y5227500D01*
X378680Y5223080D01*
X383700Y5219220D01*
X389120Y5215940D01*
X394880Y5213300D01*
X400900Y5211360D01*
X407100Y5210100D01*
G37*
G36*
X967500Y5223860D02*
G01*
X967500Y5242500D01*
X948860Y5242500D01*
X949120Y5241880D01*
X951860Y5237260D01*
X955200Y5233040D01*
X959060Y5229299D01*
X963379Y5226120D01*
G37*
G36*
X1002500Y5223920D02*
G01*
X1004320Y5224760D01*
X1008840Y5227640D01*
X1012940Y5231100D01*
X1016540Y5235100D01*
X1019580Y5239520D01*
X1021080Y5242500D01*
X1002500Y5242500D01*
G37*
G36*
X948860Y5277500D02*
G01*
X967500Y5277500D01*
X967500Y5296140D01*
X963379Y5293880D01*
X959060Y5290700D01*
X955200Y5286960D01*
X951860Y5282740D01*
X949120Y5278120D01*
G37*
G36*
X1242500Y5498860D02*
G01*
X1242500Y5517500D01*
X1223860Y5517500D01*
X1224120Y5516880D01*
X1226860Y5512260D01*
X1230200Y5508040D01*
X1234060Y5504299D01*
X1238380Y5501120D01*
G37*
G36*
X1277500Y5498920D02*
G01*
X1279320Y5499760D01*
X1283839Y5502640D01*
X1287940Y5506100D01*
X1291540Y5510100D01*
X1294580Y5514520D01*
X1296080Y5517500D01*
X1277500Y5517500D01*
G37*
G36*
X697500Y5503860D02*
G01*
X697500Y5522500D01*
X678860Y5522500D01*
X679120Y5521880D01*
X681860Y5517260D01*
X685200Y5513040D01*
X689060Y5509299D01*
X693379Y5506120D01*
G37*
G36*
X732500Y5503920D02*
G01*
X734320Y5504760D01*
X738840Y5507640D01*
X742940Y5511100D01*
X746540Y5515100D01*
X749580Y5519520D01*
X751080Y5522500D01*
X732500Y5522500D01*
G37*
G36*
X1277500Y5552500D02*
G01*
X1296080Y5552500D01*
X1294580Y5555480D01*
X1291540Y5559900D01*
X1287940Y5563900D01*
X1283839Y5567360D01*
X1279320Y5570240D01*
X1277500Y5571079D01*
G37*
G36*
X1223860Y5552500D02*
G01*
X1242500Y5552500D01*
X1242500Y5571140D01*
X1238380Y5568880D01*
X1234060Y5565700D01*
X1230200Y5561960D01*
X1226860Y5557740D01*
X1224120Y5553120D01*
G37*
G36*
X732500Y5557500D02*
G01*
X751080Y5557500D01*
X749580Y5560480D01*
X746540Y5564900D01*
X742940Y5568900D01*
X738840Y5572360D01*
X734320Y5575240D01*
X732500Y5576079D01*
G37*
G36*
X678860Y5557500D02*
G01*
X697500Y5557500D01*
X697500Y5576140D01*
X693379Y5573880D01*
X689060Y5570700D01*
X685200Y5566960D01*
X681860Y5562740D01*
X679120Y5558120D01*
G37*
G36*
X1263420Y5739560D02*
G01*
X1269740Y5739740D01*
X1276020Y5740640D01*
X1282140Y5742240D01*
X1288040Y5744539D01*
X1293640Y5747500D01*
X1298880Y5751079D01*
X1303660Y5755220D01*
X1307940Y5759880D01*
X1311660Y5765019D01*
X1314780Y5770520D01*
X1317240Y5776360D01*
X1319019Y5782440D01*
X1320100Y5788680D01*
X1320460Y5795000D01*
X1320100Y5801319D01*
X1319019Y5807560D01*
X1317240Y5813640D01*
X1314780Y5819480D01*
X1311660Y5824980D01*
X1307940Y5830119D01*
X1303660Y5834779D01*
X1298880Y5838920D01*
X1293640Y5842500D01*
X1288040Y5845460D01*
X1282140Y5847760D01*
X1276020Y5849360D01*
X1269740Y5850260D01*
X1263420Y5850440D01*
X1257100Y5849900D01*
X1250900Y5848640D01*
X1244880Y5846680D01*
X1239120Y5844059D01*
X1233700Y5840780D01*
X1228680Y5836920D01*
X1224140Y5832500D01*
X1220120Y5827600D01*
X1216700Y5822279D01*
X1213900Y5816600D01*
X1211780Y5810620D01*
X1210340Y5804460D01*
X1209620Y5798160D01*
X1209620Y5791840D01*
X1210340Y5785540D01*
X1211780Y5779380D01*
X1213900Y5773400D01*
X1216700Y5767720D01*
X1220120Y5762400D01*
X1224140Y5757500D01*
X1228680Y5753080D01*
X1233700Y5749220D01*
X1239120Y5745940D01*
X1244880Y5743300D01*
X1250900Y5741360D01*
X1257100Y5740100D01*
G37*
G36*
X967500Y5768860D02*
G01*
X967500Y5787500D01*
X948860Y5787500D01*
X949120Y5786880D01*
X951860Y5782260D01*
X955200Y5778040D01*
X959060Y5774299D01*
X963379Y5771120D01*
G37*
G36*
X1002500Y5768920D02*
G01*
X1004320Y5769760D01*
X1008840Y5772640D01*
X1012940Y5776100D01*
X1016540Y5780100D01*
X1019580Y5784520D01*
X1021080Y5787500D01*
X1002500Y5787500D01*
G37*
G36*
X1002500Y5822500D02*
G01*
X1021080Y5822500D01*
X1019580Y5825480D01*
X1016540Y5829900D01*
X1012940Y5833900D01*
X1008840Y5837360D01*
X1004320Y5840240D01*
X1002500Y5841079D01*
G37*
G36*
X948860Y5822500D02*
G01*
X967500Y5822500D01*
X967500Y5841140D01*
X963379Y5838880D01*
X959060Y5835700D01*
X955200Y5831960D01*
X951860Y5827740D01*
X949120Y5823120D01*
G37*

%LPD*%
G36*
X1166860Y4015200D02*
G01*
X1165280Y4015520D01*
X1163960Y4016440D01*
X1163100Y4017799D01*
X1162860Y4019400D01*
X1163260Y4020960D01*
X1164240Y4022220D01*
X1165640Y4023020D01*
X1168840Y4024020D01*
X1179200Y4028140D01*
X1189260Y4032960D01*
X1198960Y4038460D01*
X1208240Y4044620D01*
X1216980Y4051340D01*
X1219160Y4053560D01*
X1220820Y4056040D01*
X1221940Y4058780D01*
X1222520Y4061700D01*
X1222500Y4064680D01*
X1221920Y4067600D01*
X1220760Y4070340D01*
X1219100Y4072820D01*
X1217000Y4074900D01*
X1214520Y4076560D01*
X1212520Y4077380D01*
X1211220Y4078240D01*
X1210340Y4079540D01*
X1210040Y4081080D01*
X1210040Y4244820D01*
X1209720Y4248480D01*
X1208820Y4251840D01*
X1207340Y4255020D01*
X1205340Y4257880D01*
X1202880Y4260340D01*
X1200020Y4262340D01*
X1196840Y4263820D01*
X1193480Y4264720D01*
X1190000Y4265020D01*
X1186520Y4264720D01*
X1183160Y4263820D01*
X1179980Y4262340D01*
X1177120Y4260340D01*
X1174660Y4257880D01*
X1172660Y4255020D01*
X1171180Y4251840D01*
X1170280Y4248480D01*
X1169960Y4244820D01*
X1169960Y4060000D01*
X1169660Y4058500D01*
X1168820Y4057200D01*
X1167560Y4056340D01*
X1162100Y4053960D01*
X1152340Y4050600D01*
X1142340Y4048020D01*
X1134740Y4046700D01*
X1133000Y4046760D01*
X1131460Y4047559D01*
X1130420Y4048940D01*
X1130040Y4050640D01*
X1130040Y4289820D01*
X1129720Y4293480D01*
X1128800Y4296860D01*
X1127340Y4300020D01*
X1125340Y4302880D01*
X1122860Y4305340D01*
X1120000Y4307340D01*
X1116840Y4308820D01*
X1113460Y4309720D01*
X1109980Y4310020D01*
X1106520Y4309720D01*
X1103140Y4308820D01*
X1099980Y4307340D01*
X1097120Y4305340D01*
X1094640Y4302880D01*
X1092640Y4300020D01*
X1091180Y4296840D01*
X1090260Y4293480D01*
X1089940Y4289820D01*
X1089960Y4052600D01*
X1089700Y4051200D01*
X1088960Y4049980D01*
X1087860Y4049080D01*
X1086500Y4048639D01*
X1085060Y4048700D01*
X1080960Y4049660D01*
X1071120Y4052760D01*
X1061540Y4056620D01*
X1052580Y4061100D01*
X1051240Y4062140D01*
X1050360Y4063460D01*
X1050040Y4065000D01*
X1050040Y4244820D01*
X1049720Y4248480D01*
X1048820Y4251840D01*
X1047340Y4255020D01*
X1045340Y4257880D01*
X1042880Y4260340D01*
X1040020Y4262340D01*
X1036840Y4263820D01*
X1033480Y4264720D01*
X1030000Y4265020D01*
X1026520Y4264720D01*
X1023160Y4263820D01*
X1019980Y4262340D01*
X1017120Y4260340D01*
X1014659Y4257880D01*
X1012660Y4255020D01*
X1011180Y4251840D01*
X1010280Y4248480D01*
X1009960Y4244820D01*
X1009960Y4190539D01*
X1009599Y4188900D01*
X1008600Y4187540D01*
X1007140Y4186720D01*
X1005460Y4186580D01*
X1003880Y4187120D01*
X1002660Y4188279D01*
X1001540Y4189900D01*
X997940Y4193900D01*
X993840Y4197360D01*
X989320Y4200240D01*
X987520Y4201080D01*
X986300Y4201960D01*
X985480Y4203220D01*
X985200Y4204700D01*
X985200Y4262040D01*
X985500Y4263580D01*
X986380Y4264880D01*
X1040120Y4318620D01*
X1041420Y4319500D01*
X1042960Y4319800D01*
X1663640Y4319800D01*
X1665180Y4319500D01*
X1666480Y4318620D01*
X1667340Y4317340D01*
X1667640Y4315800D01*
X1667340Y4314260D01*
X1666480Y4312980D01*
X1369880Y4016380D01*
X1368580Y4015500D01*
X1367040Y4015200D01*
G37*

%LPC*%
G36*
X1242500Y4133860D02*
G01*
X1242500Y4152500D01*
X1223860Y4152500D01*
X1224120Y4151880D01*
X1226860Y4147260D01*
X1230200Y4143039D01*
X1234060Y4139300D01*
X1238380Y4136120D01*
G37*
G36*
X1277500Y4133920D02*
G01*
X1279320Y4134760D01*
X1283839Y4137640D01*
X1287940Y4141100D01*
X1291540Y4145100D01*
X1294580Y4149520D01*
X1296080Y4152500D01*
X1277500Y4152500D01*
G37*
G36*
X1277500Y4187500D02*
G01*
X1296080Y4187500D01*
X1294580Y4190480D01*
X1291540Y4194900D01*
X1287940Y4198900D01*
X1283839Y4202360D01*
X1279320Y4205240D01*
X1277500Y4206080D01*
G37*
G36*
X1223860Y4187500D02*
G01*
X1242500Y4187500D01*
X1242500Y4206140D01*
X1238380Y4203880D01*
X1234060Y4200700D01*
X1230200Y4196960D01*
X1226860Y4192740D01*
X1224120Y4188120D01*
G37*

%LPD*%
D10*
X4882600Y5815000D02*
G01*
X4562600Y5495000D01*
X4490000Y5495000D01*
X4235000Y5240000D01*
X4235000Y5180000D01*
X3330000Y4275000D01*
X2615000Y4275000D01*
X2590000Y4250000D01*
X2590000Y4305000D02*
G01*
X3335000Y4305000D01*
X4065000Y5035000D01*
X4065000Y5095000D01*
X4785000Y5815000D01*
X2452600Y4276399D02*
G01*
X2506199Y4330000D01*
X3025000Y4330000D01*
X3025000Y4450000D01*
X3225000Y4650000D01*
X3495000Y4650000D01*
X2315630Y4120000D02*
G01*
X2435000Y4120000D01*
X2460630Y4145630D01*
X2460630Y4185000D01*
X2170630Y4120000D02*
G01*
X2315630Y4120000D01*
X2315630Y4185000D02*
G01*
X2315630Y4120000D01*
X2170630Y4185000D02*
G01*
X2170630Y4120000D01*
X695000Y5800000D02*
G01*
X695000Y5705000D01*
X775000Y5625000D01*
X940000Y5625000D01*
X995000Y5680000D01*
X1020000Y5705000D01*
X1225000Y5705000D01*
X3930000Y5705000D01*
X4085000Y5860000D01*
X4355000Y5860000D01*
X4385000Y5890000D01*
X4385000Y5940000D01*
X970000Y5530000D02*
G01*
X970000Y5410000D01*
X1040000Y5340000D01*
X3600000Y5340000D01*
X4085000Y5825000D01*
X425000Y5535000D02*
G01*
X425000Y5430000D01*
X505000Y5350000D01*
X685000Y5350000D01*
X755000Y5420000D01*
X760000Y5425000D01*
X905000Y5425000D01*
X1345000Y4985000D01*
X1465000Y4985000D01*
X3300000Y4985000D01*
X3850000Y5535000D01*
X4100000Y5785000D01*
X4125000Y5785000D01*
X695000Y5255000D02*
G01*
X695000Y5075000D01*
X820000Y4950000D01*
X3320000Y4950000D01*
X3665000Y5300000D01*
X3665000Y5300000D01*
X4050000Y5685000D01*
X4120000Y5685000D01*
X700000Y4440000D02*
G01*
X700000Y4350000D01*
X770000Y4280000D01*
X945000Y4280000D01*
X1025000Y4360000D01*
X1655000Y4360000D01*
X2175000Y4880000D01*
X3345000Y4880000D01*
X4050000Y5585000D01*
X4120000Y5585000D01*
X970000Y4165000D02*
G01*
X970000Y4270000D01*
X1035000Y4335000D01*
X1665000Y4335000D01*
X2180000Y4850000D01*
X3385000Y4850000D01*
X4020000Y5485000D01*
X4120000Y5485000D01*
X425000Y4170000D02*
G01*
X425000Y4070000D01*
X500000Y3995000D01*
X640000Y3995000D01*
X730000Y4085000D01*
X940000Y4085000D01*
X1025000Y4000000D01*
X1375000Y4000000D01*
X2185000Y4810000D01*
X3550000Y4810000D01*
X4125000Y5385000D01*
X700000Y3890000D02*
G01*
X700000Y3990000D01*
X775000Y4065000D01*
X930000Y4065000D01*
X1020000Y3975000D01*
X1260000Y3975000D01*
X1385000Y3975000D01*
X2195000Y4785000D01*
X3610000Y4785000D01*
X4010000Y5185000D01*
X2675000Y4125000D02*
G01*
X2500000Y4125000D01*
X2225000Y3850000D01*
X1820000Y3850000D01*
X1765000Y3795000D01*
X1765000Y3674989D01*
X4282560Y5230670D02*
G01*
X4282560Y5202559D01*
X3300000Y4220000D01*
X2485000Y4709400D02*
G01*
X3599399Y4709400D01*
X4280000Y5390000D01*
X4290000Y5390000D01*
X2539399Y4185000D02*
G01*
X3355000Y4185000D01*
X4970000Y5800000D01*
X4970000Y5815000D01*
X4320000Y5085000D02*
G01*
X4320000Y5055000D01*
X4090000Y4825000D01*
X4090000Y4555000D01*
X3625000Y4090000D01*
X2525000Y4090000D01*
X2195000Y3760000D01*
X2195000Y3674989D01*
X4482560Y5230670D02*
G01*
X4482560Y5185000D01*
X4370000Y5075000D01*
X4370000Y4405000D01*
X4025000Y4060000D01*
X2955000Y4060000D01*
X2660000Y3765000D01*
X2660000Y3674989D01*
X2075000Y4475000D02*
G01*
X2075000Y4600000D01*
X2184376Y4709376D01*
X2215000Y4709376D01*
X2485000Y4709376D02*
G01*
X2350000Y4709376D01*
X2215000Y4709376D02*
G01*
X2350000Y4709376D01*
X2487500Y4475000D02*
G01*
X2485000Y4477500D01*
X2485000Y4630626D01*
X2350000Y4475000D02*
G01*
X2350000Y4630626D01*
X2212500Y4475000D02*
G01*
X2215000Y4477500D01*
X2215000Y4630626D01*
X2527399Y4276374D02*
G01*
X2539376Y4264398D01*
X2539376Y4185000D01*
X2452600Y4276374D02*
G01*
X2460626Y4268348D01*
X2460626Y4185000D01*
X2387399Y4276374D02*
G01*
X2394376Y4269398D01*
X2394376Y4185000D01*
X2312600Y4276374D02*
G01*
X2315626Y4273348D01*
X2315626Y4185000D01*
X2252399Y4276374D02*
G01*
X2249376Y4273350D01*
X2249376Y4185000D01*
X2177600Y4276374D02*
G01*
X2170626Y4269400D01*
X2170626Y4185000D01*
X2487500Y4475000D02*
G01*
X2490000Y4472500D01*
X2490000Y4373625D01*
X2350000Y4475000D02*
G01*
X2350000Y4373625D01*
X2212500Y4475000D02*
G01*
X2215000Y4472500D01*
X2215000Y4373625D01*
D11*
X760000Y5700000D02*
G01*
X760000Y5880000D01*
X800000Y5930000D02*
G01*
X799736Y5705000D01*
X840000Y5670000D02*
G01*
X839989Y5925000D01*
X880000Y5935000D02*
G01*
X880586Y5705000D01*
X920000Y5695000D02*
G01*
X920000Y5880000D01*
X485000Y5435000D02*
G01*
X485000Y5615000D01*
X525000Y5665000D02*
G01*
X524735Y5440000D01*
X565000Y5405000D02*
G01*
X564989Y5660000D01*
X605000Y5670000D02*
G01*
X605585Y5440000D01*
X645000Y5430000D02*
G01*
X645000Y5615000D01*
X1030000Y5430000D02*
G01*
X1030000Y5610000D01*
X1070000Y5660000D02*
G01*
X1069736Y5435000D01*
X1110000Y5400000D02*
G01*
X1109989Y5655000D01*
X1150000Y5665000D02*
G01*
X1150586Y5435000D01*
X1190000Y5425000D02*
G01*
X1190000Y5610000D01*
X755000Y5155000D02*
G01*
X755000Y5335000D01*
X795000Y5385000D02*
G01*
X794736Y5160000D01*
X835000Y5125000D02*
G01*
X834989Y5380000D01*
X875000Y5390000D02*
G01*
X875586Y5160000D01*
X915000Y5150000D02*
G01*
X915000Y5335000D01*
X485000Y4070000D02*
G01*
X485000Y4250000D01*
X525000Y4300000D02*
G01*
X524735Y4075000D01*
X565000Y4040000D02*
G01*
X564989Y4295000D01*
X605000Y4305000D02*
G01*
X605585Y4075000D01*
X645000Y4065000D02*
G01*
X645000Y4250000D01*
X760000Y4340000D02*
G01*
X760000Y4520000D01*
X800000Y4570000D02*
G01*
X799736Y4345000D01*
X840000Y4310000D02*
G01*
X839992Y4565000D01*
X880000Y4575000D02*
G01*
X880585Y4345000D01*
X920000Y4335000D02*
G01*
X920000Y4520000D01*
X1030000Y4065000D02*
G01*
X1030000Y4245000D01*
X1070000Y4295000D02*
G01*
X1069736Y4070000D01*
X1110000Y4035000D02*
G01*
X1109989Y4290000D01*
X1150000Y4300000D02*
G01*
X1150586Y4070000D01*
X1190000Y4060000D02*
G01*
X1190000Y4245000D01*
X760000Y3795000D02*
G01*
X760000Y3975000D01*
X800000Y4025000D02*
G01*
X799736Y3800000D01*
X840000Y3765000D02*
G01*
X839989Y4020000D01*
X880000Y4030000D02*
G01*
X880586Y3800000D01*
X920000Y3790000D02*
G01*
X920000Y3975000D01*
D10*
X1765050Y3679960D02*
G01*
X1805000Y3679960D01*
X1805000Y3745000D01*
X2025000Y3745000D01*
D11*
X1840000Y3622500D02*
G01*
X1840000Y3717500D01*
X1880000Y3640000D02*
G01*
X1880000Y3735000D01*
X1920000Y3625000D02*
G01*
X1920000Y3720000D01*
X1960000Y3642500D02*
G01*
X1960000Y3737500D01*
X2000000Y3622500D02*
G01*
X2000000Y3717500D01*
D10*
X2065050Y3679960D02*
G01*
X2030000Y3679960D01*
X2030000Y3615000D01*
X1815000Y3615000D01*
X2195000Y3674989D02*
G01*
X2235000Y3674989D01*
X2235000Y3745000D01*
X2455000Y3745000D01*
D11*
X2270001Y3622498D02*
G01*
X2270001Y3717498D01*
X2310001Y3639998D02*
G01*
X2310001Y3734998D01*
X2350001Y3624998D02*
G01*
X2350001Y3719998D01*
X2390001Y3642498D02*
G01*
X2390001Y3737498D01*
X2430001Y3622498D02*
G01*
X2430001Y3717498D01*
D10*
X2495000Y3674989D02*
G01*
X2460000Y3674989D01*
X2460000Y3615000D01*
X2245000Y3615000D01*
X2660050Y3679960D02*
G01*
X2700001Y3679960D01*
X2700001Y3744998D01*
X2920001Y3744998D01*
D11*
X2735001Y3622498D02*
G01*
X2735001Y3717498D01*
X2775001Y3639998D02*
G01*
X2775001Y3734998D01*
X2815001Y3624998D02*
G01*
X2815001Y3719998D01*
X2855001Y3642498D02*
G01*
X2855001Y3737498D01*
X2895001Y3622498D02*
G01*
X2895001Y3717498D01*
D10*
X2960050Y3679960D02*
G01*
X2925001Y3679960D01*
X2925001Y3614998D01*
X2710001Y3614998D01*
D11*
X4735000Y4120000D02*
G01*
X4735000Y4300000D01*
X4775000Y4350000D02*
G01*
X4774736Y4125000D01*
X4815000Y4090000D02*
G01*
X4814989Y4345000D01*
X4855000Y4355000D02*
G01*
X4855586Y4125000D01*
X4895000Y4115000D02*
G01*
X4895000Y4300000D01*
X4475000Y3865000D02*
G01*
X4475000Y4045000D01*
X4515000Y4095000D02*
G01*
X4514736Y3870000D01*
X4555000Y3835000D02*
G01*
X4554989Y4090000D01*
X4595000Y4100000D02*
G01*
X4595586Y3870000D01*
X4635000Y3860000D02*
G01*
X4635000Y4045000D01*
D10*
X4555000Y4495000D02*
G01*
X4555000Y5155000D01*
X4730000Y5330000D01*
X4867560Y5330000D01*
X4882560Y5345000D01*
X4675000Y4220000D02*
G01*
X4675000Y5230000D01*
X4680000Y5235000D01*
X4415000Y3965000D02*
G01*
X4415000Y5065000D01*
X4580000Y5230000D01*
X970000Y5530000D02*
G01*
X970000Y5410000D01*
X1040000Y5340000D01*
X3600000Y5340000D01*
X4085000Y5825000D01*
X4420000Y5825000D01*
X4485000Y5890000D01*
X4485000Y5940000D01*
D12*
G01*
X4675000Y4220000D03*
G01*
X4965000Y4225000D03*
G01*
X4415000Y3965000D03*
G01*
X4705000Y3970000D03*
G01*
X2660000Y3674989D03*
G01*
X2960000Y3674989D03*
G01*
X1765000Y3674989D03*
G01*
X2065000Y3674989D03*
G01*
X2195000Y3674989D03*
G01*
X2495000Y3674989D03*
G01*
X700000Y4440000D03*
G01*
X990000Y4445000D03*
G01*
X970000Y4165000D03*
G01*
X1260000Y4170000D03*
G01*
X700000Y3890000D03*
G01*
X990000Y3895000D03*
G01*
X425000Y4170000D03*
G01*
X715000Y4175000D03*
G01*
X695000Y5800000D03*
G01*
X985000Y5805000D03*
G01*
X970000Y5530000D03*
G01*
X1260000Y5535000D03*
G01*
X695000Y5255000D03*
G01*
X985000Y5260000D03*
G01*
X425000Y5535000D03*
G01*
X715000Y5540000D03*
D13*
G01*
X2177600Y4276379D03*
G01*
X2252399Y4276379D03*
G01*
X2215000Y4373620D03*
G01*
X2312600Y4276379D03*
G01*
X2387399Y4276379D03*
G01*
X2350000Y4373620D03*
G01*
X2452600Y4276379D03*
G01*
X2527399Y4276379D03*
G01*
X2490000Y4373620D03*
D14*
G01*
X2170628Y4185000D03*
G01*
X2249371Y4185000D03*
D15*
G01*
X2215000Y4630627D03*
D16*
G01*
X2215000Y4709369D03*
D15*
G01*
X2350000Y4630627D03*
D16*
G01*
X2350000Y4709369D03*
D14*
G01*
X2315628Y4185000D03*
G01*
X2394371Y4185000D03*
D15*
G01*
X2485000Y4630627D03*
D16*
G01*
X2485000Y4709369D03*
D14*
G01*
X2460628Y4185000D03*
G01*
X2539371Y4185000D03*
D10*
G75*
G01*
X4705000Y3975000D02*
G03*
X4451876Y4066743I-145000J-5000D01*
G75*
G01*
X4415000Y3970000D02*
G03*
X4652403Y3863144I145000J4999D01*
G75*
G01*
X4965000Y4230000D02*
G03*
X4711876Y4321743I-145000J-5000D01*
G75*
G01*
X4675000Y4225000D02*
G03*
X4912403Y4118144I145000J4999D01*
G75*
G01*
X990000Y3905000D02*
G03*
X736876Y3996743I-145000J-5000D01*
G75*
G01*
X700000Y3900000D02*
G03*
X937403Y3793144I145000J4999D01*
G75*
G01*
X1260000Y4175000D02*
G03*
X1006876Y4266743I-145000J-5000D01*
G75*
G01*
X970000Y4170000D02*
G03*
X1207403Y4063144I145000J4999D01*
G75*
G01*
X990000Y4450000D02*
G03*
X736876Y4541743I-145000J-5000D01*
G75*
G01*
X700000Y4445000D02*
G03*
X937403Y4338144I145000J4999D01*
G75*
G01*
X715000Y4180000D02*
G03*
X461876Y4271743I-145000J-5000D01*
G75*
G01*
X425000Y4175000D02*
G03*
X662403Y4068144I145000J4999D01*
G75*
G01*
X985000Y5265000D02*
G03*
X731876Y5356743I-145000J-5000D01*
G75*
G01*
X695000Y5260000D02*
G03*
X932403Y5153144I145000J4999D01*
G75*
G01*
X1260000Y5540000D02*
G03*
X1006876Y5631743I-145000J-5000D01*
G75*
G01*
X970000Y5535000D02*
G03*
X1207403Y5428144I145000J4999D01*
G75*
G01*
X715000Y5545000D02*
G03*
X461876Y5636743I-145000J-5000D01*
G75*
G01*
X425000Y5540000D02*
G03*
X662403Y5433144I145000J4999D01*
G75*
G01*
X990000Y5810000D02*
G03*
X736876Y5901743I-145000J-5000D01*
G75*
G01*
X700000Y5805000D02*
G03*
X937403Y5698144I145000J4999D01*
D17*
G01*
X2212500Y4475000D03*
G01*
X2350000Y4475000D03*
G01*
X2487500Y4475000D03*
G01*
X2075000Y4475000D03*
G01*
X2960050Y3674960D03*
G01*
X2495050Y3674960D03*
G01*
X2065050Y3674960D03*
G01*
X4705000Y3970000D03*
G01*
X4965000Y4225000D03*
G01*
X990000Y3895000D03*
G01*
X715000Y4175000D03*
G01*
X1260000Y4170000D03*
G01*
X990000Y4445000D03*
G01*
X715000Y5540000D03*
G01*
X985000Y5260000D03*
G01*
X1260000Y5535000D03*
G01*
X990000Y5805000D03*
G01*
X4882560Y5345000D03*
G01*
X4555000Y4495000D03*
G01*
X4970000Y5815000D03*
G01*
X4882560Y5815000D03*
G01*
X4785000Y5815000D03*
G01*
X2394380Y4185000D03*
G01*
X2249380Y4185000D03*
G01*
X2590000Y4250000D03*
G01*
X2590000Y4305000D03*
G01*
X4680000Y5235000D03*
G01*
X4580000Y5230000D03*
G01*
X4290000Y5390000D03*
G01*
X4482560Y5230670D03*
G01*
X4320000Y5085000D03*
G01*
X4282560Y5230670D03*
G01*
X3300000Y4220000D03*
G01*
X2675000Y4125000D03*
G01*
X4010000Y5185000D03*
G01*
X4125000Y5385000D03*
G01*
X4120000Y5485000D03*
G01*
X4120000Y5585000D03*
G01*
X4120000Y5685000D03*
G01*
X4119189Y5785000D03*
G01*
X4485000Y5940000D03*
G01*
X4385000Y5940000D03*
G01*
X3495000Y4650000D03*
G01*
X3495000Y4650000D03*
M02*
