G04 Layer: BottomLayer*
G04 EasyEDA v6.5.44, 2024-07-16 09:33:37*
G04 92fc93377fd146f58095a2b6f3fb7df7,4528e9a37e1d4fff95ee12c27a66ef09,10*
G04 Gerber Generator version 0.2*
G04 Scale: 100 percent, Rotated: No, Reflected: No *
G04 Dimensions in inches *
G04 leading zeros omitted , absolute positions ,3 integer and 6 decimal *
%FSLAX36Y36*%
%MOIN*%

%AMMACRO1*21,1,$1,$2,0,0,$3*%
%ADD10C,0.0100*%
%ADD11O,0.049645999999999996X0.15606299999999998*%
%ADD12O,0.15606299999999998X0.049645999999999996*%
%ADD13MACRO1,0.0984X0.0984X0.0000*%
%ADD14C,0.0244*%
%ADD15C,0.0154*%

%LPD*%
G36*
X3714200Y3530200D02*
G01*
X3712660Y3530500D01*
X3711380Y3531380D01*
X3710500Y3532660D01*
X3710200Y3534200D01*
X3710200Y3549420D01*
X3715000Y4014600D01*
X3714600Y4015000D01*
X3701780Y4015000D01*
X3699780Y4015200D01*
X3070220Y4015200D01*
X3068220Y4015000D01*
X3060400Y4015000D01*
X3060000Y4014600D01*
X3059980Y4006340D01*
X3059800Y4004780D01*
X3059800Y3539200D01*
X3059500Y3537660D01*
X3058620Y3536380D01*
X3057340Y3535500D01*
X3055800Y3535200D01*
X693240Y3535200D01*
X691900Y3535440D01*
X690699Y3536100D01*
X689800Y3537140D01*
X689320Y3538420D01*
X685280Y3558620D01*
X685200Y3559400D01*
X685200Y3654960D01*
X685000Y3664540D01*
X685000Y3699600D01*
X684840Y3700200D01*
X669900Y3720179D01*
X655200Y3744660D01*
X654680Y3745240D01*
X635080Y3759940D01*
X620220Y3769860D01*
X619740Y3770080D01*
X604840Y3775020D01*
X579080Y3779320D01*
X577340Y3779880D01*
X574760Y3780200D01*
X427819Y3780200D01*
X426200Y3780539D01*
X424860Y3781500D01*
X424020Y3782940D01*
X411820Y3819540D01*
X404159Y3847160D01*
X404060Y3848840D01*
X404660Y3850419D01*
X405860Y3851600D01*
X407440Y3852180D01*
X427220Y3855000D01*
X434540Y3855000D01*
X435420Y3855200D01*
X454720Y3864860D01*
X455220Y3865220D01*
X464680Y3874680D01*
X465140Y3875440D01*
X469900Y3889700D01*
X470000Y3890320D01*
X470020Y3898620D01*
X470379Y3901800D01*
X470439Y3907040D01*
X470360Y3908620D01*
X470000Y3911720D01*
X470000Y3929600D01*
X469880Y3930160D01*
X460280Y3944560D01*
X459540Y3945240D01*
X440420Y3954800D01*
X439540Y3955000D01*
X426900Y3955020D01*
X421420Y3955460D01*
X419820Y3955480D01*
X414620Y3955200D01*
X375740Y3955200D01*
X374060Y3955560D01*
X372700Y3956600D01*
X371900Y3958120D01*
X310360Y4175880D01*
X310200Y4176960D01*
X310200Y5510240D01*
X310340Y5511260D01*
X364980Y5719940D01*
X387680Y5816880D01*
X423140Y5955660D01*
X423780Y5957020D01*
X424900Y5958060D01*
X578820Y6054260D01*
X579800Y6054700D01*
X580880Y6054860D01*
X592880Y6055000D01*
X1011000Y6055000D01*
X1012540Y6054700D01*
X1013820Y6053819D01*
X1014700Y6052540D01*
X1015000Y6051000D01*
X1015000Y6000520D01*
X1015260Y5999539D01*
X1026460Y5979940D01*
X1028620Y5974020D01*
X1032780Y5964620D01*
X1037700Y5955580D01*
X1043300Y5946980D01*
X1048960Y5939600D01*
X1050760Y5937420D01*
X1054760Y5930400D01*
X1055380Y5929740D01*
X1066000Y5922660D01*
X1072080Y5917840D01*
X1080600Y5912120D01*
X1089580Y5907100D01*
X1098000Y5903200D01*
X1100880Y5902060D01*
X1124580Y5890200D01*
X1125460Y5890000D01*
X1145120Y5890019D01*
X1185180Y5895060D01*
X1214560Y5904860D01*
X1215320Y5905320D01*
X1254780Y5944779D01*
X1255140Y5945280D01*
X1274800Y5984580D01*
X1275000Y5985460D01*
X1275000Y6013060D01*
X1275260Y6017220D01*
X1275200Y6055800D01*
X1275500Y6057340D01*
X1276380Y6058620D01*
X1277660Y6059500D01*
X1279200Y6059800D01*
X4048540Y6059800D01*
X4050080Y6059500D01*
X4051380Y6058620D01*
X4053620Y6056380D01*
X4054500Y6055080D01*
X4054800Y6053540D01*
X4054800Y6005200D01*
X4055000Y6003000D01*
X4055000Y5995320D01*
X4055100Y5994700D01*
X4065059Y5964880D01*
X4074860Y5945280D01*
X4075220Y5944779D01*
X4109820Y5910180D01*
X4110220Y5909880D01*
X4134540Y5895280D01*
X4135539Y5895000D01*
X4143540Y5895000D01*
X4145059Y5894700D01*
X4146360Y5893819D01*
X4147240Y5892540D01*
X4147540Y5891000D01*
X4147540Y5871260D01*
X4147900Y5866140D01*
X4148960Y5861260D01*
X4150720Y5856580D01*
X4153100Y5852200D01*
X4156100Y5848200D01*
X4159640Y5844660D01*
X4163639Y5841660D01*
X4168020Y5839280D01*
X4172700Y5837519D01*
X4177580Y5836460D01*
X4182559Y5836100D01*
X4187540Y5836460D01*
X4192420Y5837519D01*
X4197100Y5839280D01*
X4201480Y5841660D01*
X4205480Y5844660D01*
X4209020Y5848200D01*
X4212020Y5852200D01*
X4214400Y5856580D01*
X4216160Y5861260D01*
X4217220Y5866140D01*
X4217580Y5871260D01*
X4217580Y5887880D01*
X4217820Y5889260D01*
X4218540Y5890460D01*
X4219600Y5891360D01*
X4220920Y5891820D01*
X4239580Y5894940D01*
X4240360Y5895240D01*
X4241320Y5895880D01*
X4242920Y5896500D01*
X4244620Y5896400D01*
X4246140Y5895599D01*
X4247160Y5894220D01*
X4247540Y5892560D01*
X4247540Y5871260D01*
X4247900Y5866140D01*
X4248960Y5861260D01*
X4250720Y5856580D01*
X4253100Y5852200D01*
X4256100Y5848200D01*
X4259640Y5844660D01*
X4263640Y5841660D01*
X4268020Y5839280D01*
X4272700Y5837519D01*
X4277580Y5836460D01*
X4282560Y5836100D01*
X4287540Y5836460D01*
X4292420Y5837519D01*
X4297100Y5839280D01*
X4301480Y5841660D01*
X4305480Y5844660D01*
X4309020Y5848200D01*
X4312020Y5852200D01*
X4314400Y5856580D01*
X4316160Y5861260D01*
X4317220Y5866140D01*
X4317580Y5871260D01*
X4317580Y5977400D01*
X4317220Y5982519D01*
X4316900Y5983940D01*
X4316840Y5985160D01*
X4320000Y6019900D01*
X4320000Y6053339D01*
X4320300Y6054880D01*
X4321180Y6056180D01*
X4323620Y6058620D01*
X4324920Y6059500D01*
X4326460Y6059800D01*
X4737580Y6059760D01*
X4752620Y6059620D01*
X4767420Y6058720D01*
X4772560Y6058120D01*
X4785100Y6054980D01*
X4831680Y6045640D01*
X4839720Y6043000D01*
X4853580Y6037660D01*
X4867140Y6031620D01*
X4880360Y6024900D01*
X4889460Y6019680D01*
X4890620Y6018680D01*
X4891320Y6017320D01*
X4891460Y6015800D01*
X4891000Y6014340D01*
X4890040Y6013140D01*
X4888700Y6012400D01*
X4887180Y6012220D01*
X4882560Y6012560D01*
X4877580Y6012200D01*
X4872700Y6011140D01*
X4868020Y6009380D01*
X4863640Y6007000D01*
X4859640Y6004000D01*
X4856100Y6000460D01*
X4853100Y5996460D01*
X4850720Y5992080D01*
X4848960Y5987400D01*
X4847900Y5982519D01*
X4847540Y5977400D01*
X4847540Y5871260D01*
X4847900Y5866140D01*
X4848960Y5861260D01*
X4850720Y5856580D01*
X4853100Y5852200D01*
X4856100Y5848200D01*
X4859640Y5844660D01*
X4863640Y5841660D01*
X4865280Y5840760D01*
X4866380Y5839880D01*
X4867100Y5838660D01*
X4867360Y5837260D01*
X4867360Y5833099D01*
X4867140Y5831760D01*
X4866480Y5830580D01*
X4864000Y5827540D01*
X4862160Y5824220D01*
X4860900Y5820640D01*
X4860260Y5816900D01*
X4860260Y5813099D01*
X4860900Y5809360D01*
X4862160Y5805780D01*
X4864000Y5802460D01*
X4866400Y5799500D01*
X4869240Y5797000D01*
X4872480Y5795000D01*
X4876000Y5793600D01*
X4879720Y5792800D01*
X4883520Y5792619D01*
X4887280Y5793120D01*
X4890900Y5794220D01*
X4894300Y5795940D01*
X4897360Y5798200D01*
X4899980Y5800940D01*
X4902100Y5804080D01*
X4903680Y5807540D01*
X4904620Y5811220D01*
X4904960Y5815000D01*
X4904620Y5818780D01*
X4903680Y5822460D01*
X4902100Y5825920D01*
X4899980Y5829059D01*
X4898880Y5830220D01*
X4898040Y5831500D01*
X4897760Y5833000D01*
X4897760Y5837260D01*
X4898020Y5838660D01*
X4898740Y5839880D01*
X4899840Y5840760D01*
X4901480Y5841660D01*
X4905480Y5844660D01*
X4909020Y5848200D01*
X4912020Y5852200D01*
X4914400Y5856580D01*
X4916160Y5861260D01*
X4917220Y5866140D01*
X4917580Y5871260D01*
X4917580Y5977400D01*
X4917220Y5982519D01*
X4916160Y5987400D01*
X4914400Y5992080D01*
X4912920Y5994820D01*
X4912440Y5996300D01*
X4912580Y5997859D01*
X4913300Y5999240D01*
X4914500Y6000240D01*
X4915980Y6000720D01*
X4917540Y6000580D01*
X4918920Y5999860D01*
X4925160Y5994840D01*
X4946360Y5973640D01*
X4947240Y5972340D01*
X4947540Y5970800D01*
X4947540Y5871260D01*
X4947900Y5866140D01*
X4948960Y5861260D01*
X4950720Y5856580D01*
X4953100Y5852200D01*
X4956100Y5848200D01*
X4959640Y5844660D01*
X4962440Y5842560D01*
X4963540Y5841280D01*
X4964040Y5839680D01*
X4963820Y5838020D01*
X4962920Y5836580D01*
X4961540Y5835640D01*
X4959920Y5835000D01*
X4956680Y5833000D01*
X4953840Y5830500D01*
X4951440Y5827540D01*
X4949600Y5824220D01*
X4948340Y5820640D01*
X4947700Y5816900D01*
X4947700Y5813099D01*
X4948340Y5809360D01*
X4949600Y5805780D01*
X4951440Y5802460D01*
X4953840Y5799500D01*
X4956680Y5797000D01*
X4959920Y5795000D01*
X4963440Y5793600D01*
X4967160Y5792800D01*
X4970960Y5792619D01*
X4974720Y5793120D01*
X4978340Y5794220D01*
X4981740Y5795940D01*
X4984800Y5798200D01*
X4987420Y5800940D01*
X4989540Y5804080D01*
X4991120Y5807540D01*
X4992060Y5811220D01*
X4992360Y5814580D01*
X4992640Y5815740D01*
X4993240Y5816760D01*
X4995180Y5819120D01*
X4996580Y5821760D01*
X4997440Y5824600D01*
X4997760Y5827760D01*
X4997760Y5837260D01*
X4998020Y5838660D01*
X4998740Y5839880D01*
X4999840Y5840760D01*
X5001480Y5841660D01*
X5005480Y5844660D01*
X5009020Y5848200D01*
X5011300Y5851240D01*
X5012620Y5852360D01*
X5014280Y5852840D01*
X5015980Y5852560D01*
X5017420Y5851580D01*
X5018300Y5850100D01*
X5019860Y5845440D01*
X5020040Y5844539D01*
X5030000Y5739800D01*
X5030000Y5249000D01*
X5029700Y5247460D01*
X5028820Y5246180D01*
X5027540Y5245300D01*
X5026000Y5245000D01*
X5021580Y5245000D01*
X5020060Y5245300D01*
X5018760Y5246180D01*
X5017880Y5247460D01*
X5017580Y5249000D01*
X5017580Y5268740D01*
X5017220Y5273860D01*
X5016160Y5278740D01*
X5014400Y5283420D01*
X5012020Y5287800D01*
X5009020Y5291799D01*
X5005480Y5295340D01*
X5001480Y5298339D01*
X4999840Y5299240D01*
X4998740Y5300119D01*
X4998020Y5301340D01*
X4997760Y5302740D01*
X4997760Y5384800D01*
X4997440Y5387960D01*
X4996580Y5390800D01*
X4995180Y5393440D01*
X4993160Y5395880D01*
X4988440Y5400599D01*
X4986000Y5402619D01*
X4983360Y5404020D01*
X4980520Y5404880D01*
X4977360Y5405200D01*
X4308040Y5405200D01*
X4306480Y5405520D01*
X4301740Y5409059D01*
X4298340Y5410780D01*
X4294720Y5411880D01*
X4290960Y5412380D01*
X4287160Y5412200D01*
X4283440Y5411400D01*
X4279920Y5410000D01*
X4276680Y5408000D01*
X4273840Y5405500D01*
X4271440Y5402540D01*
X4269600Y5399220D01*
X4268340Y5395640D01*
X4267700Y5391900D01*
X4267700Y5388099D01*
X4268340Y5384360D01*
X4269600Y5380780D01*
X4271440Y5377460D01*
X4273840Y5374500D01*
X4276680Y5372000D01*
X4279920Y5370000D01*
X4283440Y5368600D01*
X4287160Y5367800D01*
X4290960Y5367619D01*
X4294720Y5368120D01*
X4298340Y5369220D01*
X4301740Y5370940D01*
X4306480Y5374480D01*
X4308040Y5374800D01*
X4963360Y5374800D01*
X4964900Y5374500D01*
X4966180Y5373620D01*
X4967060Y5372340D01*
X4967360Y5370800D01*
X4967360Y5302740D01*
X4967100Y5301340D01*
X4966380Y5300119D01*
X4965280Y5299240D01*
X4963640Y5298339D01*
X4959640Y5295340D01*
X4956100Y5291799D01*
X4953100Y5287800D01*
X4950720Y5283420D01*
X4948960Y5278740D01*
X4947900Y5273860D01*
X4947540Y5268740D01*
X4947540Y5249000D01*
X4947240Y5247460D01*
X4946360Y5246180D01*
X4945060Y5245300D01*
X4943540Y5245000D01*
X4821580Y5245000D01*
X4820060Y5245300D01*
X4818760Y5246180D01*
X4817880Y5247460D01*
X4817580Y5249000D01*
X4817580Y5268740D01*
X4817220Y5273860D01*
X4816160Y5278740D01*
X4814400Y5283420D01*
X4812020Y5287800D01*
X4809020Y5291799D01*
X4805480Y5295340D01*
X4801800Y5298099D01*
X4800940Y5298980D01*
X4800380Y5300080D01*
X4800200Y5301300D01*
X4800200Y5314800D01*
X4799880Y5317960D01*
X4799020Y5320800D01*
X4797620Y5323440D01*
X4795600Y5325880D01*
X4765880Y5355599D01*
X4763440Y5357619D01*
X4760800Y5359020D01*
X4757960Y5359880D01*
X4754800Y5360200D01*
X4670200Y5360200D01*
X4667040Y5359880D01*
X4664200Y5359020D01*
X4661560Y5357619D01*
X4659120Y5355599D01*
X4624400Y5320880D01*
X4622380Y5318440D01*
X4620980Y5315800D01*
X4620120Y5312960D01*
X4619800Y5309800D01*
X4619800Y5289220D01*
X4619420Y5287519D01*
X4618340Y5286140D01*
X4616780Y5285340D01*
X4615040Y5285300D01*
X4613440Y5286000D01*
X4612280Y5287300D01*
X4612020Y5287800D01*
X4609020Y5291799D01*
X4605480Y5295340D01*
X4601480Y5298339D01*
X4597100Y5300720D01*
X4592420Y5302480D01*
X4587540Y5303540D01*
X4582560Y5303900D01*
X4577580Y5303540D01*
X4572700Y5302480D01*
X4568020Y5300720D01*
X4563640Y5298339D01*
X4559640Y5295340D01*
X4556100Y5291799D01*
X4553100Y5287800D01*
X4550720Y5283420D01*
X4548960Y5278740D01*
X4547900Y5273860D01*
X4547540Y5268740D01*
X4547540Y5162600D01*
X4547900Y5157480D01*
X4548960Y5152600D01*
X4550720Y5147920D01*
X4553100Y5143540D01*
X4556100Y5139539D01*
X4559640Y5136000D01*
X4563640Y5133000D01*
X4568020Y5130620D01*
X4572700Y5128860D01*
X4577580Y5127800D01*
X4582560Y5127440D01*
X4587540Y5127800D01*
X4592420Y5128860D01*
X4597100Y5130620D01*
X4601480Y5133000D01*
X4605480Y5136000D01*
X4609020Y5139539D01*
X4612020Y5143540D01*
X4612280Y5144040D01*
X4613440Y5145340D01*
X4615040Y5146040D01*
X4616780Y5146000D01*
X4618340Y5145200D01*
X4619420Y5143819D01*
X4619800Y5142120D01*
X4619800Y4967960D01*
X4619500Y4966420D01*
X4618620Y4965120D01*
X4319880Y4666380D01*
X4318580Y4665500D01*
X4317040Y4665200D01*
X3513039Y4665200D01*
X3511480Y4665520D01*
X3506740Y4669060D01*
X3503340Y4670780D01*
X3499720Y4671880D01*
X3495960Y4672380D01*
X3492160Y4672200D01*
X3488440Y4671400D01*
X3484920Y4670000D01*
X3481680Y4668000D01*
X3478840Y4665500D01*
X3476440Y4662540D01*
X3474600Y4659220D01*
X3473340Y4655640D01*
X3472700Y4651900D01*
X3472700Y4648100D01*
X3473340Y4644360D01*
X3474600Y4640780D01*
X3476440Y4637460D01*
X3478840Y4634500D01*
X3481680Y4632000D01*
X3484920Y4630000D01*
X3488440Y4628600D01*
X3492160Y4627800D01*
X3495960Y4627620D01*
X3499720Y4628120D01*
X3503340Y4629220D01*
X3506740Y4630940D01*
X3511480Y4634480D01*
X3513039Y4634800D01*
X4324800Y4634800D01*
X4327960Y4635120D01*
X4330800Y4635980D01*
X4333440Y4637380D01*
X4335880Y4639400D01*
X4645600Y4949120D01*
X4647620Y4951560D01*
X4649020Y4954200D01*
X4649880Y4957040D01*
X4650200Y4960200D01*
X4650200Y5135780D01*
X4650500Y5137300D01*
X4651380Y5138600D01*
X4652660Y5139480D01*
X4654200Y5139779D01*
X4655740Y5139480D01*
X4657020Y5138600D01*
X4659640Y5136000D01*
X4663640Y5133000D01*
X4668020Y5130620D01*
X4672700Y5128860D01*
X4677580Y5127800D01*
X4682560Y5127440D01*
X4687540Y5127800D01*
X4692420Y5128860D01*
X4694600Y5129680D01*
X4696120Y5129920D01*
X4697600Y5129600D01*
X4698860Y5128720D01*
X4699700Y5127440D01*
X4700000Y5125940D01*
X4700000Y4440400D01*
X4700400Y4440000D01*
X5026000Y4440000D01*
X5027540Y4439700D01*
X5028820Y4438820D01*
X5029700Y4437540D01*
X5030000Y4436000D01*
X5030000Y3844200D01*
X5029700Y3842660D01*
X5028820Y3841380D01*
X5027540Y3840500D01*
X5026000Y3840200D01*
X4855140Y3840200D01*
X4852220Y3840000D01*
X4825460Y3840000D01*
X4824580Y3839800D01*
X4794860Y3824900D01*
X4775320Y3810240D01*
X4774800Y3809660D01*
X4760280Y3785460D01*
X4760000Y3784460D01*
X4760000Y3780940D01*
X4759580Y3779160D01*
X4750200Y3760419D01*
X4750000Y3759540D01*
X4750000Y3737780D01*
X4749800Y3734860D01*
X4749800Y3622760D01*
X4749460Y3621160D01*
X4748520Y3619840D01*
X4747140Y3618980D01*
X4670600Y3591980D01*
X4555560Y3555000D01*
X4476220Y3530380D01*
X4475040Y3530200D01*
G37*

%LPC*%
G36*
X4848420Y3869560D02*
G01*
X4854740Y3869740D01*
X4861020Y3870640D01*
X4867140Y3872240D01*
X4873040Y3874540D01*
X4878640Y3877500D01*
X4883880Y3881080D01*
X4888660Y3885220D01*
X4892940Y3889880D01*
X4896660Y3895020D01*
X4899780Y3900520D01*
X4902240Y3906360D01*
X4904020Y3912440D01*
X4905100Y3918680D01*
X4905460Y3925000D01*
X4905100Y3931320D01*
X4904020Y3937559D01*
X4902240Y3943639D01*
X4899780Y3949480D01*
X4896660Y3954980D01*
X4892940Y3960120D01*
X4888660Y3964780D01*
X4883880Y3968920D01*
X4878640Y3972500D01*
X4873040Y3975460D01*
X4867140Y3977760D01*
X4861020Y3979360D01*
X4854740Y3980260D01*
X4848420Y3980440D01*
X4842100Y3979900D01*
X4835900Y3978639D01*
X4829880Y3976680D01*
X4824120Y3974060D01*
X4818700Y3970779D01*
X4813680Y3966920D01*
X4809140Y3962500D01*
X4805120Y3957600D01*
X4801700Y3952280D01*
X4798900Y3946600D01*
X4796780Y3940620D01*
X4795340Y3934460D01*
X4794620Y3928159D01*
X4794620Y3921840D01*
X4795340Y3915539D01*
X4796780Y3909380D01*
X4798900Y3903399D01*
X4801700Y3897720D01*
X4805120Y3892400D01*
X4809140Y3887500D01*
X4813680Y3883080D01*
X4818700Y3879220D01*
X4824120Y3875940D01*
X4829880Y3873300D01*
X4835900Y3871360D01*
X4842100Y3870100D01*
G37*
G36*
X2675960Y4102620D02*
G01*
X2679720Y4103120D01*
X2683340Y4104220D01*
X2686740Y4105940D01*
X2691480Y4109480D01*
X2693039Y4109800D01*
X2804800Y4109800D01*
X2807960Y4110120D01*
X2810800Y4110980D01*
X2813440Y4112380D01*
X2815880Y4114400D01*
X2905120Y4203620D01*
X2906420Y4204500D01*
X2907960Y4204800D01*
X3282000Y4204800D01*
X3283399Y4204540D01*
X3284640Y4203800D01*
X3286680Y4202000D01*
X3289920Y4200000D01*
X3293440Y4198600D01*
X3297160Y4197800D01*
X3300960Y4197620D01*
X3304720Y4198120D01*
X3308340Y4199220D01*
X3311740Y4200940D01*
X3314800Y4203200D01*
X3317420Y4205940D01*
X3319540Y4209080D01*
X3321120Y4212540D01*
X3322060Y4216220D01*
X3322400Y4220000D01*
X3322060Y4223780D01*
X3321120Y4227460D01*
X3319540Y4230920D01*
X3317420Y4234060D01*
X3314800Y4236800D01*
X3311740Y4239060D01*
X3308340Y4240780D01*
X3304720Y4241880D01*
X3300960Y4242380D01*
X3297160Y4242200D01*
X3293440Y4241400D01*
X3289920Y4240000D01*
X3286680Y4238000D01*
X3284640Y4236200D01*
X3283399Y4235460D01*
X3282000Y4235200D01*
X2900200Y4235200D01*
X2897040Y4234880D01*
X2894200Y4234020D01*
X2891560Y4232620D01*
X2889120Y4230600D01*
X2799880Y4141380D01*
X2798580Y4140500D01*
X2797040Y4140200D01*
X2693039Y4140200D01*
X2691480Y4140520D01*
X2686740Y4144060D01*
X2683340Y4145779D01*
X2679720Y4146880D01*
X2675960Y4147380D01*
X2672160Y4147200D01*
X2668440Y4146400D01*
X2664920Y4145000D01*
X2661680Y4143000D01*
X2658840Y4140500D01*
X2656440Y4137540D01*
X2654600Y4134220D01*
X2653340Y4130640D01*
X2652700Y4126900D01*
X2652700Y4123100D01*
X2653340Y4119360D01*
X2654600Y4115779D01*
X2656440Y4112460D01*
X2658840Y4109500D01*
X2661680Y4107000D01*
X2664920Y4105000D01*
X2668440Y4103600D01*
X2672160Y4102799D01*
G37*
G36*
X2395340Y4162620D02*
G01*
X2399100Y4163120D01*
X2402720Y4164220D01*
X2406120Y4165940D01*
X2410860Y4169480D01*
X2412420Y4169800D01*
X2524800Y4169800D01*
X2527960Y4170120D01*
X2530800Y4170980D01*
X2533440Y4172380D01*
X2535880Y4174400D01*
X2587960Y4226460D01*
X2589340Y4227360D01*
X2594720Y4228120D01*
X2598340Y4229220D01*
X2601740Y4230940D01*
X2604800Y4233200D01*
X2607420Y4235940D01*
X2609540Y4239080D01*
X2611120Y4242540D01*
X2612060Y4246220D01*
X2612400Y4250000D01*
X2612060Y4253780D01*
X2611120Y4257460D01*
X2609540Y4260920D01*
X2607420Y4264060D01*
X2604800Y4266800D01*
X2601740Y4269060D01*
X2598340Y4270780D01*
X2594720Y4271880D01*
X2590960Y4272380D01*
X2587160Y4272200D01*
X2583440Y4271400D01*
X2579920Y4270000D01*
X2576680Y4268000D01*
X2573840Y4265500D01*
X2571440Y4262540D01*
X2569600Y4259220D01*
X2568340Y4255640D01*
X2567700Y4251900D01*
X2567700Y4250840D01*
X2567380Y4249320D01*
X2566520Y4248020D01*
X2519880Y4201380D01*
X2518580Y4200500D01*
X2517040Y4200200D01*
X2412420Y4200200D01*
X2410860Y4200520D01*
X2406120Y4204060D01*
X2402720Y4205780D01*
X2399100Y4206880D01*
X2395340Y4207380D01*
X2391540Y4207200D01*
X2387820Y4206400D01*
X2384300Y4205000D01*
X2381060Y4203000D01*
X2378220Y4200500D01*
X2375820Y4197540D01*
X2373980Y4194220D01*
X2372720Y4190640D01*
X2372080Y4186900D01*
X2372080Y4183100D01*
X2372720Y4179360D01*
X2373980Y4175779D01*
X2375820Y4172460D01*
X2378220Y4169500D01*
X2381060Y4167000D01*
X2384300Y4165000D01*
X2387820Y4163600D01*
X2391540Y4162799D01*
G37*
G36*
X2250340Y4162620D02*
G01*
X2254100Y4163120D01*
X2257720Y4164220D01*
X2261120Y4165940D01*
X2264180Y4168200D01*
X2266800Y4170940D01*
X2268920Y4174080D01*
X2270500Y4177540D01*
X2271440Y4181220D01*
X2271740Y4184520D01*
X2272080Y4185880D01*
X2272880Y4187020D01*
X2374500Y4288620D01*
X2375800Y4289500D01*
X2377320Y4289800D01*
X2572000Y4289800D01*
X2573399Y4289540D01*
X2574640Y4288800D01*
X2576680Y4287000D01*
X2579920Y4285000D01*
X2583440Y4283600D01*
X2587160Y4282800D01*
X2590960Y4282620D01*
X2594720Y4283120D01*
X2598340Y4284220D01*
X2601740Y4285940D01*
X2604800Y4288200D01*
X2607420Y4290940D01*
X2609540Y4294080D01*
X2611120Y4297540D01*
X2612060Y4301220D01*
X2612400Y4305000D01*
X2612060Y4308780D01*
X2611120Y4312460D01*
X2609540Y4315920D01*
X2607420Y4319060D01*
X2604800Y4321800D01*
X2601740Y4324060D01*
X2598340Y4325780D01*
X2594720Y4326880D01*
X2590960Y4327380D01*
X2587160Y4327200D01*
X2583440Y4326400D01*
X2579920Y4325000D01*
X2576680Y4323000D01*
X2574640Y4321200D01*
X2573399Y4320460D01*
X2572000Y4320200D01*
X2369580Y4320200D01*
X2366420Y4319880D01*
X2363560Y4319020D01*
X2360940Y4317620D01*
X2358480Y4315600D01*
X2251340Y4208460D01*
X2250120Y4207640D01*
X2248680Y4207300D01*
X2246540Y4207200D01*
X2242820Y4206400D01*
X2239300Y4205000D01*
X2236060Y4203000D01*
X2233220Y4200500D01*
X2230820Y4197540D01*
X2228980Y4194220D01*
X2227720Y4190640D01*
X2227080Y4186900D01*
X2227080Y4183100D01*
X2227720Y4179360D01*
X2228980Y4175779D01*
X2230820Y4172460D01*
X2233220Y4169500D01*
X2236060Y4167000D01*
X2239300Y4165000D01*
X2242820Y4163600D01*
X2246540Y4162799D01*
G37*
G36*
X4518420Y4199560D02*
G01*
X4524740Y4199740D01*
X4531020Y4200640D01*
X4537140Y4202240D01*
X4543040Y4204540D01*
X4548640Y4207500D01*
X4553880Y4211080D01*
X4558660Y4215220D01*
X4562940Y4219880D01*
X4566660Y4225020D01*
X4569780Y4230520D01*
X4572240Y4236360D01*
X4574020Y4242440D01*
X4575100Y4248680D01*
X4575460Y4255000D01*
X4575100Y4261320D01*
X4574020Y4267560D01*
X4572240Y4273640D01*
X4569780Y4279480D01*
X4566660Y4284980D01*
X4562940Y4290120D01*
X4558660Y4294780D01*
X4553880Y4298920D01*
X4548640Y4302500D01*
X4543040Y4305460D01*
X4537140Y4307760D01*
X4531020Y4309360D01*
X4524740Y4310260D01*
X4518420Y4310440D01*
X4512100Y4309900D01*
X4505900Y4308640D01*
X4499880Y4306680D01*
X4494120Y4304060D01*
X4488700Y4300780D01*
X4483680Y4296920D01*
X4479140Y4292500D01*
X4475120Y4287600D01*
X4471700Y4282280D01*
X4468900Y4276600D01*
X4466780Y4270620D01*
X4465340Y4264460D01*
X4464620Y4258160D01*
X4464620Y4251840D01*
X4465340Y4245540D01*
X4466780Y4239380D01*
X4468900Y4233400D01*
X4471700Y4227720D01*
X4475120Y4222400D01*
X4479140Y4217500D01*
X4483680Y4213080D01*
X4488700Y4209220D01*
X4494120Y4205940D01*
X4499880Y4203300D01*
X4505900Y4201360D01*
X4512100Y4200100D01*
G37*
G36*
X1263420Y4374560D02*
G01*
X1269740Y4374740D01*
X1276020Y4375640D01*
X1282140Y4377240D01*
X1288040Y4379540D01*
X1293640Y4382500D01*
X1298880Y4386080D01*
X1303660Y4390220D01*
X1307940Y4394880D01*
X1311660Y4400020D01*
X1314780Y4405520D01*
X1317240Y4411360D01*
X1319019Y4417440D01*
X1320100Y4423680D01*
X1320460Y4430000D01*
X1320100Y4436320D01*
X1319019Y4442560D01*
X1317240Y4448640D01*
X1314780Y4454480D01*
X1311660Y4459980D01*
X1307940Y4465120D01*
X1303660Y4469780D01*
X1298880Y4473920D01*
X1293640Y4477500D01*
X1288040Y4480460D01*
X1282140Y4482760D01*
X1276020Y4484360D01*
X1269740Y4485260D01*
X1263420Y4485440D01*
X1257100Y4484900D01*
X1250900Y4483640D01*
X1244880Y4481680D01*
X1239120Y4479060D01*
X1233700Y4475780D01*
X1228680Y4471920D01*
X1224140Y4467500D01*
X1220120Y4462600D01*
X1216700Y4457280D01*
X1213900Y4451600D01*
X1211780Y4445620D01*
X1210340Y4439460D01*
X1209620Y4433160D01*
X1209620Y4426840D01*
X1210340Y4420540D01*
X1211780Y4414380D01*
X1213900Y4408400D01*
X1216700Y4402720D01*
X1220120Y4397400D01*
X1224140Y4392500D01*
X1228680Y4388080D01*
X1233700Y4384220D01*
X1239120Y4380940D01*
X1244880Y4378300D01*
X1250900Y4376360D01*
X1257100Y4375100D01*
G37*
G36*
X2872060Y4379120D02*
G01*
X2880320Y4379680D01*
X2888500Y4381000D01*
X2896520Y4383040D01*
X2904300Y4385820D01*
X2911820Y4389280D01*
X2918980Y4393420D01*
X2925740Y4398200D01*
X2932040Y4403560D01*
X2937840Y4409480D01*
X2943060Y4415900D01*
X2947679Y4422760D01*
X2951640Y4430020D01*
X2954940Y4437620D01*
X2957540Y4445480D01*
X2959400Y4453540D01*
X2960520Y4461740D01*
X2960899Y4470000D01*
X2960520Y4478260D01*
X2959400Y4486460D01*
X2957540Y4494520D01*
X2954940Y4502380D01*
X2951640Y4509980D01*
X2947679Y4517240D01*
X2943060Y4524100D01*
X2937840Y4530520D01*
X2932040Y4536440D01*
X2925740Y4541800D01*
X2918980Y4546580D01*
X2911820Y4550720D01*
X2904300Y4554180D01*
X2896520Y4556960D01*
X2888500Y4559000D01*
X2880320Y4560320D01*
X2872060Y4560880D01*
X2863800Y4560700D01*
X2855580Y4559760D01*
X2847480Y4558060D01*
X2839560Y4555660D01*
X2831900Y4552540D01*
X2824540Y4548720D01*
X2817580Y4544260D01*
X2811040Y4539200D01*
X2805000Y4533540D01*
X2799480Y4527360D01*
X2794560Y4520720D01*
X2790260Y4513640D01*
X2786620Y4506220D01*
X2783680Y4498480D01*
X2781440Y4490520D01*
X2779940Y4482380D01*
X2779180Y4474140D01*
X2779180Y4465860D01*
X2779940Y4457620D01*
X2781440Y4449480D01*
X2783680Y4441520D01*
X2786620Y4433780D01*
X2790260Y4426360D01*
X2794560Y4419280D01*
X2799480Y4412640D01*
X2805000Y4406460D01*
X2811040Y4400800D01*
X2817580Y4395740D01*
X2824540Y4391280D01*
X2831900Y4387460D01*
X2839560Y4384340D01*
X2847480Y4381940D01*
X2855580Y4380240D01*
X2863800Y4379300D01*
G37*
G36*
X3277060Y4384120D02*
G01*
X3285320Y4384680D01*
X3293500Y4386000D01*
X3301520Y4388040D01*
X3309300Y4390820D01*
X3316820Y4394280D01*
X3323980Y4398420D01*
X3330740Y4403200D01*
X3337040Y4408560D01*
X3342840Y4414480D01*
X3348060Y4420900D01*
X3352679Y4427760D01*
X3356640Y4435020D01*
X3359940Y4442620D01*
X3362540Y4450480D01*
X3364400Y4458540D01*
X3365520Y4466740D01*
X3365899Y4475000D01*
X3365520Y4483260D01*
X3364400Y4491460D01*
X3362540Y4499520D01*
X3359940Y4507380D01*
X3356640Y4514980D01*
X3352679Y4522240D01*
X3348060Y4529100D01*
X3342840Y4535520D01*
X3337040Y4541440D01*
X3330740Y4546800D01*
X3323980Y4551580D01*
X3316820Y4555720D01*
X3309300Y4559180D01*
X3301520Y4561960D01*
X3293500Y4564000D01*
X3285320Y4565320D01*
X3277060Y4565880D01*
X3268800Y4565700D01*
X3260580Y4564760D01*
X3252480Y4563060D01*
X3244560Y4560660D01*
X3236900Y4557540D01*
X3229540Y4553720D01*
X3222580Y4549260D01*
X3216040Y4544200D01*
X3210000Y4538540D01*
X3204480Y4532360D01*
X3199560Y4525720D01*
X3195260Y4518640D01*
X3191620Y4511220D01*
X3188680Y4503480D01*
X3186440Y4495520D01*
X3184940Y4487380D01*
X3184180Y4479140D01*
X3184180Y4470860D01*
X3184940Y4462620D01*
X3186440Y4454480D01*
X3188680Y4446520D01*
X3191620Y4438780D01*
X3195260Y4431360D01*
X3199560Y4424280D01*
X3204480Y4417640D01*
X3210000Y4411460D01*
X3216040Y4405800D01*
X3222580Y4400740D01*
X3229540Y4396280D01*
X3236900Y4392460D01*
X3244560Y4389340D01*
X3252480Y4386940D01*
X3260580Y4385240D01*
X3268800Y4384300D01*
G37*
G36*
X2576019Y4415580D02*
G01*
X2597900Y4415580D01*
X2597900Y4447900D01*
X2565580Y4447900D01*
X2565580Y4426020D01*
X2565860Y4423520D01*
X2566620Y4421380D01*
X2567840Y4419440D01*
X2569440Y4417840D01*
X2571380Y4416620D01*
X2573519Y4415860D01*
G37*
G36*
X2652100Y4415580D02*
G01*
X2673980Y4415580D01*
X2676480Y4415860D01*
X2678620Y4416620D01*
X2680560Y4417840D01*
X2682160Y4419440D01*
X2683380Y4421380D01*
X2684140Y4423520D01*
X2684420Y4426020D01*
X2684420Y4447900D01*
X2652100Y4447900D01*
G37*
G36*
X2301020Y4415580D02*
G01*
X2398980Y4415580D01*
X2401480Y4415860D01*
X2403620Y4416620D01*
X2405560Y4417840D01*
X2407160Y4419440D01*
X2408380Y4421380D01*
X2409140Y4423520D01*
X2409420Y4426020D01*
X2409420Y4523980D01*
X2409140Y4526480D01*
X2408380Y4528620D01*
X2407160Y4530560D01*
X2405560Y4532160D01*
X2403620Y4533380D01*
X2401480Y4534140D01*
X2398980Y4534420D01*
X2301020Y4534420D01*
X2298520Y4534140D01*
X2296380Y4533380D01*
X2294440Y4532160D01*
X2292840Y4530560D01*
X2291620Y4528620D01*
X2290860Y4526480D01*
X2290580Y4523980D01*
X2290580Y4426020D01*
X2290860Y4423520D01*
X2291620Y4421380D01*
X2292840Y4419440D01*
X2294440Y4417840D01*
X2296380Y4416620D01*
X2298520Y4415860D01*
G37*
G36*
X2163520Y4415580D02*
G01*
X2261480Y4415580D01*
X2263980Y4415860D01*
X2266120Y4416620D01*
X2268060Y4417840D01*
X2269660Y4419440D01*
X2270880Y4421380D01*
X2271640Y4423520D01*
X2271920Y4426020D01*
X2271920Y4523980D01*
X2271640Y4526480D01*
X2270880Y4528620D01*
X2269660Y4530560D01*
X2268060Y4532160D01*
X2266120Y4533380D01*
X2263980Y4534140D01*
X2261480Y4534420D01*
X2163520Y4534420D01*
X2161020Y4534140D01*
X2158880Y4533380D01*
X2156940Y4532160D01*
X2155340Y4530560D01*
X2154120Y4528620D01*
X2153360Y4526480D01*
X2153080Y4523980D01*
X2153080Y4426020D01*
X2153360Y4423520D01*
X2154120Y4421380D01*
X2155340Y4419440D01*
X2156940Y4417840D01*
X2158880Y4416620D01*
X2161020Y4415860D01*
G37*
G36*
X2438520Y4415580D02*
G01*
X2536480Y4415580D01*
X2538980Y4415860D01*
X2541120Y4416620D01*
X2543060Y4417840D01*
X2544660Y4419440D01*
X2545880Y4421380D01*
X2546640Y4423520D01*
X2546920Y4426020D01*
X2546920Y4523980D01*
X2546640Y4526480D01*
X2545880Y4528620D01*
X2544660Y4530560D01*
X2543060Y4532160D01*
X2541120Y4533380D01*
X2538980Y4534140D01*
X2536480Y4534420D01*
X2438520Y4534420D01*
X2436020Y4534140D01*
X2433880Y4533380D01*
X2431940Y4532160D01*
X2430340Y4530560D01*
X2429120Y4528620D01*
X2428360Y4526480D01*
X2428080Y4523980D01*
X2428080Y4426020D01*
X2428360Y4423520D01*
X2429120Y4421380D01*
X2430340Y4419440D01*
X2431940Y4417840D01*
X2433880Y4416620D01*
X2436020Y4415860D01*
G37*
G36*
X2026020Y4415580D02*
G01*
X2123980Y4415580D01*
X2126480Y4415860D01*
X2128620Y4416620D01*
X2130560Y4417840D01*
X2132160Y4419440D01*
X2133380Y4421380D01*
X2134140Y4423520D01*
X2134420Y4426020D01*
X2134420Y4523980D01*
X2134140Y4526480D01*
X2133380Y4528620D01*
X2132160Y4530560D01*
X2130560Y4532160D01*
X2128620Y4533380D01*
X2126480Y4534140D01*
X2123980Y4534420D01*
X2026020Y4534420D01*
X2023520Y4534140D01*
X2021380Y4533380D01*
X2019440Y4532160D01*
X2017840Y4530560D01*
X2016620Y4528620D01*
X2015860Y4526480D01*
X2015580Y4523980D01*
X2015580Y4426020D01*
X2015860Y4423520D01*
X2016620Y4421380D01*
X2017840Y4419440D01*
X2019440Y4417840D01*
X2021380Y4416620D01*
X2023520Y4415860D01*
G37*
G36*
X2565580Y4502100D02*
G01*
X2597900Y4502100D01*
X2597900Y4534420D01*
X2576019Y4534420D01*
X2573519Y4534140D01*
X2571380Y4533380D01*
X2569440Y4532160D01*
X2567840Y4530560D01*
X2566620Y4528620D01*
X2565860Y4526480D01*
X2565580Y4523980D01*
G37*
G36*
X2652100Y4502100D02*
G01*
X2684420Y4502100D01*
X2684420Y4523980D01*
X2684140Y4526480D01*
X2683380Y4528620D01*
X2682160Y4530560D01*
X2680560Y4532160D01*
X2678620Y4533380D01*
X2676480Y4534140D01*
X2673980Y4534420D01*
X2652100Y4534420D01*
G37*
G36*
X4252720Y4701400D02*
G01*
X4261820Y4701600D01*
X4270860Y4702540D01*
X4279800Y4704240D01*
X4288560Y4706700D01*
X4297100Y4709860D01*
X4305320Y4713740D01*
X4313200Y4718280D01*
X4320680Y4723480D01*
X4327680Y4729280D01*
X4334180Y4735640D01*
X4340120Y4742520D01*
X4345480Y4749880D01*
X4350180Y4757680D01*
X4354240Y4765820D01*
X4357580Y4774280D01*
X4360200Y4782980D01*
X4362100Y4791880D01*
X4363240Y4800920D01*
X4363620Y4810000D01*
X4363240Y4819080D01*
X4362100Y4828120D01*
X4360200Y4837020D01*
X4357580Y4845720D01*
X4354240Y4854180D01*
X4350180Y4862320D01*
X4345480Y4870120D01*
X4340120Y4877460D01*
X4334180Y4884360D01*
X4327680Y4890720D01*
X4320680Y4896520D01*
X4313200Y4901720D01*
X4305320Y4906260D01*
X4297100Y4910140D01*
X4288560Y4913300D01*
X4279800Y4915760D01*
X4270860Y4917460D01*
X4261820Y4918400D01*
X4252720Y4918600D01*
X4243640Y4918020D01*
X4234640Y4916700D01*
X4225780Y4914620D01*
X4217140Y4911800D01*
X4208760Y4908280D01*
X4200680Y4904060D01*
X4193000Y4899200D01*
X4185760Y4893700D01*
X4179000Y4887600D01*
X4172780Y4880980D01*
X4167120Y4873840D01*
X4162080Y4866260D01*
X4157700Y4858300D01*
X4154000Y4849980D01*
X4151019Y4841400D01*
X4148759Y4832580D01*
X4147240Y4823620D01*
X4146480Y4814540D01*
X4146480Y4805460D01*
X4147240Y4796380D01*
X4148759Y4787420D01*
X4151019Y4778600D01*
X4154000Y4770020D01*
X4157700Y4761700D01*
X4162080Y4753740D01*
X4167120Y4746160D01*
X4172780Y4739020D01*
X4179000Y4732400D01*
X4185760Y4726300D01*
X4193000Y4720800D01*
X4200680Y4715940D01*
X4208760Y4711720D01*
X4217140Y4708200D01*
X4225780Y4705380D01*
X4234640Y4703300D01*
X4243640Y4701980D01*
G37*
G36*
X1067720Y4701400D02*
G01*
X1076820Y4701600D01*
X1085860Y4702540D01*
X1094800Y4704240D01*
X1103560Y4706700D01*
X1112100Y4709860D01*
X1120320Y4713740D01*
X1128200Y4718280D01*
X1135680Y4723480D01*
X1142680Y4729280D01*
X1149180Y4735640D01*
X1155120Y4742520D01*
X1160480Y4749880D01*
X1165180Y4757680D01*
X1169240Y4765820D01*
X1172580Y4774280D01*
X1175200Y4782980D01*
X1177100Y4791880D01*
X1178240Y4800920D01*
X1178620Y4810000D01*
X1178240Y4819080D01*
X1177100Y4828120D01*
X1175200Y4837020D01*
X1172580Y4845720D01*
X1169240Y4854180D01*
X1165180Y4862320D01*
X1160480Y4870120D01*
X1155120Y4877460D01*
X1149180Y4884360D01*
X1142680Y4890720D01*
X1135680Y4896520D01*
X1128200Y4901720D01*
X1120320Y4906260D01*
X1112100Y4910140D01*
X1103560Y4913300D01*
X1094800Y4915760D01*
X1085860Y4917460D01*
X1076820Y4918400D01*
X1067720Y4918600D01*
X1058640Y4918020D01*
X1049640Y4916700D01*
X1040780Y4914620D01*
X1032140Y4911800D01*
X1023760Y4908280D01*
X1015680Y4904060D01*
X1008000Y4899200D01*
X1000759Y4893700D01*
X994000Y4887600D01*
X987780Y4880980D01*
X982120Y4873840D01*
X977080Y4866260D01*
X972700Y4858300D01*
X969000Y4849980D01*
X966020Y4841400D01*
X963760Y4832580D01*
X962240Y4823620D01*
X961480Y4814540D01*
X961480Y4805460D01*
X962240Y4796380D01*
X963760Y4787420D01*
X966020Y4778600D01*
X969000Y4770020D01*
X972700Y4761700D01*
X977080Y4753740D01*
X982120Y4746160D01*
X987780Y4739020D01*
X994000Y4732400D01*
X1000759Y4726300D01*
X1008000Y4720800D01*
X1015680Y4715940D01*
X1023760Y4711720D01*
X1032140Y4708200D01*
X1040780Y4705380D01*
X1049640Y4703300D01*
X1058640Y4701980D01*
G37*
G36*
X4320960Y5062620D02*
G01*
X4324720Y5063120D01*
X4328340Y5064220D01*
X4331740Y5065940D01*
X4334800Y5068200D01*
X4337420Y5070940D01*
X4339540Y5074080D01*
X4341120Y5077540D01*
X4342060Y5081220D01*
X4342340Y5084520D01*
X4342700Y5085860D01*
X4343500Y5087020D01*
X4383000Y5126500D01*
X4384160Y5127320D01*
X4385540Y5127660D01*
X4387540Y5127800D01*
X4392420Y5128860D01*
X4397100Y5130620D01*
X4401480Y5133000D01*
X4405480Y5136000D01*
X4409020Y5139539D01*
X4412020Y5143540D01*
X4414400Y5147920D01*
X4416160Y5152600D01*
X4417220Y5157480D01*
X4417580Y5162600D01*
X4417580Y5268740D01*
X4417220Y5273860D01*
X4416160Y5278740D01*
X4414400Y5283420D01*
X4412020Y5287800D01*
X4409020Y5291799D01*
X4405480Y5295340D01*
X4401480Y5298339D01*
X4397100Y5300720D01*
X4392420Y5302480D01*
X4387540Y5303540D01*
X4382560Y5303900D01*
X4377580Y5303540D01*
X4372700Y5302480D01*
X4368020Y5300720D01*
X4363640Y5298339D01*
X4359640Y5295340D01*
X4356100Y5291799D01*
X4353100Y5287800D01*
X4350720Y5283420D01*
X4348960Y5278740D01*
X4347900Y5273860D01*
X4347540Y5268740D01*
X4347540Y5162600D01*
X4347900Y5157480D01*
X4348960Y5152600D01*
X4350720Y5147920D01*
X4353060Y5143620D01*
X4353540Y5141980D01*
X4353300Y5140300D01*
X4352380Y5138880D01*
X4321980Y5108460D01*
X4320760Y5107640D01*
X4319320Y5107300D01*
X4317160Y5107200D01*
X4313440Y5106400D01*
X4309920Y5105000D01*
X4306680Y5103000D01*
X4303840Y5100500D01*
X4301440Y5097540D01*
X4299600Y5094220D01*
X4298340Y5090640D01*
X4297700Y5086900D01*
X4297700Y5083100D01*
X4298340Y5079360D01*
X4299600Y5075780D01*
X4301440Y5072460D01*
X4303840Y5069500D01*
X4306680Y5067000D01*
X4309920Y5065000D01*
X4313440Y5063600D01*
X4317160Y5062800D01*
G37*
G36*
X4282560Y5127440D02*
G01*
X4287540Y5127800D01*
X4292420Y5128860D01*
X4297100Y5130620D01*
X4301480Y5133000D01*
X4305480Y5136000D01*
X4309020Y5139539D01*
X4312020Y5143540D01*
X4314400Y5147920D01*
X4316160Y5152600D01*
X4317220Y5157480D01*
X4317580Y5162600D01*
X4317580Y5268740D01*
X4317220Y5273860D01*
X4316160Y5278740D01*
X4314400Y5283420D01*
X4312020Y5287800D01*
X4309020Y5291799D01*
X4305480Y5295340D01*
X4301480Y5298339D01*
X4297100Y5300720D01*
X4292420Y5302480D01*
X4287540Y5303540D01*
X4282560Y5303900D01*
X4277580Y5303540D01*
X4272700Y5302480D01*
X4268020Y5300720D01*
X4263640Y5298339D01*
X4259640Y5295340D01*
X4256100Y5291799D01*
X4253100Y5287800D01*
X4250720Y5283420D01*
X4248960Y5278740D01*
X4247900Y5273860D01*
X4247540Y5268740D01*
X4247540Y5162600D01*
X4247900Y5157480D01*
X4248960Y5152600D01*
X4250720Y5147920D01*
X4253100Y5143540D01*
X4256100Y5139539D01*
X4259640Y5136000D01*
X4263640Y5133000D01*
X4268020Y5130620D01*
X4272700Y5128860D01*
X4277580Y5127800D01*
G37*
G36*
X4482560Y5127440D02*
G01*
X4487540Y5127800D01*
X4492420Y5128860D01*
X4497100Y5130620D01*
X4501480Y5133000D01*
X4505480Y5136000D01*
X4509020Y5139539D01*
X4512020Y5143540D01*
X4514400Y5147920D01*
X4516160Y5152600D01*
X4517220Y5157480D01*
X4517580Y5162600D01*
X4517580Y5268740D01*
X4517220Y5273860D01*
X4516160Y5278740D01*
X4514400Y5283420D01*
X4512020Y5287800D01*
X4509020Y5291799D01*
X4505480Y5295340D01*
X4501480Y5298339D01*
X4497100Y5300720D01*
X4492420Y5302480D01*
X4487540Y5303540D01*
X4482560Y5303900D01*
X4477580Y5303540D01*
X4472700Y5302480D01*
X4468020Y5300720D01*
X4463640Y5298339D01*
X4459640Y5295340D01*
X4456100Y5291799D01*
X4453100Y5287800D01*
X4450720Y5283420D01*
X4448960Y5278740D01*
X4447900Y5273860D01*
X4447540Y5268740D01*
X4447540Y5162600D01*
X4447900Y5157480D01*
X4448960Y5152600D01*
X4450720Y5147920D01*
X4453100Y5143540D01*
X4456100Y5139539D01*
X4459640Y5136000D01*
X4463640Y5133000D01*
X4468020Y5130620D01*
X4472700Y5128860D01*
X4477580Y5127800D01*
G37*
G36*
X4182559Y5127440D02*
G01*
X4187540Y5127800D01*
X4192420Y5128860D01*
X4197100Y5130620D01*
X4201480Y5133000D01*
X4205480Y5136000D01*
X4209020Y5139539D01*
X4212020Y5143540D01*
X4214400Y5147920D01*
X4216160Y5152600D01*
X4217220Y5157480D01*
X4217580Y5162600D01*
X4217580Y5268740D01*
X4217220Y5273860D01*
X4216160Y5278740D01*
X4214400Y5283420D01*
X4212020Y5287800D01*
X4209020Y5291799D01*
X4205480Y5295340D01*
X4201480Y5298339D01*
X4197100Y5300720D01*
X4192420Y5302480D01*
X4187540Y5303540D01*
X4182559Y5303900D01*
X4177580Y5303540D01*
X4172700Y5302480D01*
X4168020Y5300720D01*
X4163639Y5298339D01*
X4159640Y5295340D01*
X4156100Y5291799D01*
X4153100Y5287800D01*
X4150720Y5283420D01*
X4148960Y5278740D01*
X4147900Y5273860D01*
X4147540Y5268740D01*
X4147540Y5249860D01*
X4147240Y5248339D01*
X4146360Y5247039D01*
X4145059Y5246180D01*
X4143540Y5245860D01*
X4055860Y5245860D01*
X4052700Y5245560D01*
X4049860Y5244700D01*
X4047240Y5243300D01*
X4044780Y5241280D01*
X4011980Y5208460D01*
X4010760Y5207640D01*
X4009320Y5207300D01*
X4007160Y5207200D01*
X4003440Y5206400D01*
X3999920Y5205000D01*
X3996680Y5203000D01*
X3993840Y5200500D01*
X3991440Y5197540D01*
X3989600Y5194220D01*
X3988340Y5190640D01*
X3987700Y5186900D01*
X3987700Y5183099D01*
X3988340Y5179360D01*
X3989600Y5175780D01*
X3991440Y5172460D01*
X3993840Y5169500D01*
X3996680Y5167000D01*
X3999920Y5165000D01*
X4003440Y5163600D01*
X4007160Y5162800D01*
X4010960Y5162619D01*
X4014720Y5163120D01*
X4018340Y5164220D01*
X4021740Y5165940D01*
X4024800Y5168200D01*
X4027420Y5170940D01*
X4029540Y5174080D01*
X4031120Y5177540D01*
X4032060Y5181220D01*
X4032340Y5184520D01*
X4032700Y5185860D01*
X4033500Y5187020D01*
X4060800Y5214299D01*
X4062100Y5215160D01*
X4063620Y5215460D01*
X4143540Y5215460D01*
X4145059Y5215160D01*
X4146360Y5214299D01*
X4147240Y5213000D01*
X4147540Y5211460D01*
X4147540Y5162600D01*
X4147900Y5157480D01*
X4148960Y5152600D01*
X4150720Y5147920D01*
X4153100Y5143540D01*
X4156100Y5139539D01*
X4159640Y5136000D01*
X4163639Y5133000D01*
X4168020Y5130620D01*
X4172700Y5128860D01*
X4177580Y5127800D01*
G37*
G36*
X413420Y5209560D02*
G01*
X419739Y5209740D01*
X426019Y5210640D01*
X432140Y5212240D01*
X438040Y5214539D01*
X443640Y5217500D01*
X448880Y5221079D01*
X453660Y5225220D01*
X457939Y5229880D01*
X461659Y5235019D01*
X464780Y5240520D01*
X467239Y5246360D01*
X469020Y5252440D01*
X470100Y5258680D01*
X470460Y5265000D01*
X470100Y5271319D01*
X469020Y5277560D01*
X467239Y5283640D01*
X464780Y5289480D01*
X461659Y5294980D01*
X457939Y5300119D01*
X453660Y5304779D01*
X448880Y5308920D01*
X443640Y5312500D01*
X438040Y5315460D01*
X432140Y5317760D01*
X426019Y5319360D01*
X419739Y5320260D01*
X413420Y5320440D01*
X407100Y5319900D01*
X400900Y5318640D01*
X394880Y5316680D01*
X389120Y5314059D01*
X383700Y5310780D01*
X378680Y5306920D01*
X374140Y5302500D01*
X370120Y5297600D01*
X366700Y5292279D01*
X363900Y5286600D01*
X361780Y5280620D01*
X360340Y5274460D01*
X359620Y5268160D01*
X359620Y5261840D01*
X360340Y5255540D01*
X361780Y5249380D01*
X363900Y5243400D01*
X366700Y5237720D01*
X370120Y5232400D01*
X374140Y5227500D01*
X378680Y5223080D01*
X383700Y5219220D01*
X389120Y5215940D01*
X394880Y5213300D01*
X400900Y5211360D01*
X407100Y5210100D01*
G37*
G36*
X4897480Y5257180D02*
G01*
X4917580Y5257180D01*
X4917580Y5268740D01*
X4917220Y5273860D01*
X4916160Y5278740D01*
X4914400Y5283420D01*
X4912020Y5287800D01*
X4909020Y5291799D01*
X4905480Y5295340D01*
X4901480Y5298339D01*
X4897480Y5300520D01*
G37*
G36*
X4847540Y5257180D02*
G01*
X4867640Y5257180D01*
X4867640Y5300520D01*
X4863640Y5298339D01*
X4859640Y5295340D01*
X4856100Y5291799D01*
X4853100Y5287800D01*
X4850720Y5283420D01*
X4848960Y5278740D01*
X4847900Y5273860D01*
X4847540Y5268740D01*
G37*
G36*
X4074380Y5335760D02*
G01*
X4180500Y5335760D01*
X4185640Y5336120D01*
X4190520Y5337200D01*
X4195200Y5338940D01*
X4199580Y5341340D01*
X4203580Y5344320D01*
X4207120Y5347859D01*
X4210100Y5351860D01*
X4212500Y5356240D01*
X4214240Y5360920D01*
X4215300Y5365800D01*
X4215660Y5370780D01*
X4215300Y5375760D01*
X4214240Y5380660D01*
X4212500Y5385340D01*
X4210100Y5389720D01*
X4207120Y5393720D01*
X4203580Y5397240D01*
X4199580Y5400240D01*
X4195200Y5402640D01*
X4190520Y5404380D01*
X4185640Y5405440D01*
X4180500Y5405800D01*
X4133840Y5405800D01*
X4132660Y5405980D01*
X4129720Y5406880D01*
X4125960Y5407380D01*
X4122160Y5407200D01*
X4118440Y5406400D01*
X4117660Y5406100D01*
X4116180Y5405800D01*
X4074380Y5405800D01*
X4069260Y5405440D01*
X4064380Y5404380D01*
X4059680Y5402640D01*
X4055299Y5400240D01*
X4051300Y5397240D01*
X4047780Y5393720D01*
X4044780Y5389720D01*
X4042380Y5385340D01*
X4040640Y5380660D01*
X4039580Y5375760D01*
X4039220Y5370780D01*
X4039580Y5365800D01*
X4040640Y5360920D01*
X4042380Y5356240D01*
X4044780Y5351860D01*
X4047780Y5347859D01*
X4051300Y5344320D01*
X4055299Y5341340D01*
X4059680Y5338940D01*
X4064380Y5337200D01*
X4069260Y5336120D01*
G37*
G36*
X4074380Y5435760D02*
G01*
X4180500Y5435760D01*
X4185640Y5436120D01*
X4190520Y5437200D01*
X4195200Y5438940D01*
X4199580Y5441340D01*
X4203580Y5444320D01*
X4207120Y5447859D01*
X4210100Y5451860D01*
X4212500Y5456240D01*
X4214240Y5460920D01*
X4215300Y5465800D01*
X4215660Y5470780D01*
X4215300Y5475760D01*
X4214240Y5480660D01*
X4212500Y5485340D01*
X4210100Y5489720D01*
X4207120Y5493720D01*
X4203580Y5497240D01*
X4199580Y5500240D01*
X4195200Y5502640D01*
X4190520Y5504380D01*
X4185640Y5505440D01*
X4180500Y5505800D01*
X4128840Y5505800D01*
X4127660Y5505980D01*
X4124720Y5506880D01*
X4120960Y5507380D01*
X4117160Y5507200D01*
X4113440Y5506400D01*
X4112660Y5506100D01*
X4111180Y5505800D01*
X4074380Y5505800D01*
X4069260Y5505440D01*
X4064380Y5504380D01*
X4059680Y5502640D01*
X4055299Y5500240D01*
X4051300Y5497240D01*
X4047780Y5493720D01*
X4044780Y5489720D01*
X4042380Y5485340D01*
X4040640Y5480660D01*
X4039580Y5475760D01*
X4039220Y5470780D01*
X4039580Y5465800D01*
X4040640Y5460920D01*
X4042380Y5456240D01*
X4044780Y5451860D01*
X4047780Y5447859D01*
X4051300Y5444320D01*
X4055299Y5441340D01*
X4059680Y5438940D01*
X4064380Y5437200D01*
X4069260Y5436120D01*
G37*
G36*
X4074380Y5535760D02*
G01*
X4180500Y5535760D01*
X4185640Y5536120D01*
X4190520Y5537200D01*
X4195200Y5538940D01*
X4199580Y5541340D01*
X4203580Y5544320D01*
X4207120Y5547859D01*
X4210100Y5551860D01*
X4212500Y5556240D01*
X4214240Y5560920D01*
X4215300Y5565800D01*
X4215660Y5570780D01*
X4215300Y5575760D01*
X4214240Y5580660D01*
X4212500Y5585340D01*
X4210100Y5589720D01*
X4207120Y5593720D01*
X4203580Y5597240D01*
X4199580Y5600240D01*
X4195200Y5602640D01*
X4190520Y5604380D01*
X4185640Y5605440D01*
X4180500Y5605800D01*
X4128840Y5605800D01*
X4127660Y5605980D01*
X4124720Y5606880D01*
X4120960Y5607380D01*
X4117160Y5607200D01*
X4113440Y5606400D01*
X4112660Y5606100D01*
X4111180Y5605800D01*
X4074380Y5605800D01*
X4069260Y5605440D01*
X4064380Y5604380D01*
X4059680Y5602640D01*
X4055299Y5600240D01*
X4051300Y5597240D01*
X4047780Y5593720D01*
X4044780Y5589720D01*
X4042380Y5585340D01*
X4040640Y5580660D01*
X4039580Y5575760D01*
X4039220Y5570780D01*
X4039580Y5565800D01*
X4040640Y5560920D01*
X4042380Y5556240D01*
X4044780Y5551860D01*
X4047780Y5547859D01*
X4051300Y5544320D01*
X4055299Y5541340D01*
X4059680Y5538940D01*
X4064380Y5537200D01*
X4069260Y5536120D01*
G37*
G36*
X4074380Y5635760D02*
G01*
X4180500Y5635760D01*
X4185640Y5636120D01*
X4190520Y5637200D01*
X4195200Y5638940D01*
X4199580Y5641340D01*
X4203580Y5644320D01*
X4207120Y5647859D01*
X4210100Y5651860D01*
X4212500Y5656240D01*
X4214240Y5660920D01*
X4215300Y5665800D01*
X4215660Y5670780D01*
X4215300Y5675760D01*
X4214240Y5680660D01*
X4212500Y5685340D01*
X4210100Y5689720D01*
X4207120Y5693720D01*
X4203580Y5697240D01*
X4199580Y5700240D01*
X4195200Y5702640D01*
X4190520Y5704380D01*
X4185640Y5705440D01*
X4180500Y5705800D01*
X4128840Y5705800D01*
X4127660Y5705980D01*
X4124720Y5706880D01*
X4120960Y5707380D01*
X4117160Y5707200D01*
X4113440Y5706400D01*
X4112660Y5706100D01*
X4111180Y5705800D01*
X4074380Y5705800D01*
X4069260Y5705440D01*
X4064380Y5704380D01*
X4059680Y5702640D01*
X4055299Y5700240D01*
X4051300Y5697240D01*
X4047780Y5693720D01*
X4044780Y5689720D01*
X4042380Y5685340D01*
X4040640Y5680660D01*
X4039580Y5675760D01*
X4039220Y5670780D01*
X4039580Y5665800D01*
X4040640Y5660920D01*
X4042380Y5656240D01*
X4044780Y5651860D01*
X4047780Y5647859D01*
X4051300Y5644320D01*
X4055299Y5641340D01*
X4059680Y5638940D01*
X4064380Y5637200D01*
X4069260Y5636120D01*
G37*
G36*
X4074380Y5735760D02*
G01*
X4180500Y5735760D01*
X4185640Y5736120D01*
X4190520Y5737200D01*
X4195200Y5738940D01*
X4199580Y5741340D01*
X4203580Y5744320D01*
X4207120Y5747859D01*
X4210100Y5751860D01*
X4212500Y5756240D01*
X4214240Y5760920D01*
X4215300Y5765800D01*
X4215660Y5770780D01*
X4215300Y5775760D01*
X4214240Y5780660D01*
X4212500Y5785340D01*
X4210100Y5789720D01*
X4207120Y5793720D01*
X4203580Y5797240D01*
X4199580Y5800240D01*
X4195200Y5802640D01*
X4190520Y5804380D01*
X4185640Y5805440D01*
X4180500Y5805800D01*
X4128020Y5805800D01*
X4126860Y5805980D01*
X4123900Y5806880D01*
X4120140Y5807380D01*
X4116340Y5807200D01*
X4112640Y5806400D01*
X4111860Y5806100D01*
X4110360Y5805800D01*
X4074380Y5805800D01*
X4069260Y5805440D01*
X4064360Y5804380D01*
X4059680Y5802640D01*
X4055299Y5800240D01*
X4051300Y5797240D01*
X4047780Y5793720D01*
X4044780Y5789720D01*
X4042380Y5785340D01*
X4040640Y5780660D01*
X4039580Y5775760D01*
X4039220Y5770780D01*
X4039580Y5765800D01*
X4040640Y5760920D01*
X4042380Y5756240D01*
X4044780Y5751860D01*
X4047780Y5747859D01*
X4051300Y5744320D01*
X4055299Y5741340D01*
X4059680Y5738940D01*
X4064360Y5737200D01*
X4069260Y5736120D01*
G37*
G36*
X1263420Y5739560D02*
G01*
X1269740Y5739740D01*
X1276020Y5740640D01*
X1282140Y5742240D01*
X1288040Y5744539D01*
X1293640Y5747500D01*
X1298880Y5751079D01*
X1303660Y5755220D01*
X1307940Y5759880D01*
X1311660Y5765019D01*
X1314780Y5770520D01*
X1317240Y5776360D01*
X1319019Y5782440D01*
X1320100Y5788680D01*
X1320460Y5795000D01*
X1320100Y5801319D01*
X1319019Y5807560D01*
X1317240Y5813640D01*
X1314780Y5819480D01*
X1311660Y5824980D01*
X1307940Y5830119D01*
X1303660Y5834779D01*
X1298880Y5838920D01*
X1293640Y5842500D01*
X1288040Y5845460D01*
X1282140Y5847760D01*
X1276020Y5849360D01*
X1269740Y5850260D01*
X1263420Y5850440D01*
X1257100Y5849900D01*
X1250900Y5848640D01*
X1244880Y5846680D01*
X1239120Y5844059D01*
X1233700Y5840780D01*
X1228680Y5836920D01*
X1224140Y5832500D01*
X1220120Y5827600D01*
X1216700Y5822279D01*
X1213900Y5816600D01*
X1211780Y5810620D01*
X1210340Y5804460D01*
X1209620Y5798160D01*
X1209620Y5791840D01*
X1210340Y5785540D01*
X1211780Y5779380D01*
X1213900Y5773400D01*
X1216700Y5767720D01*
X1220120Y5762400D01*
X1224140Y5757500D01*
X1228680Y5753080D01*
X1233700Y5749220D01*
X1239120Y5745940D01*
X1244880Y5743300D01*
X1250900Y5741360D01*
X1257100Y5740100D01*
G37*
G36*
X4785960Y5792619D02*
G01*
X4789720Y5793120D01*
X4793340Y5794220D01*
X4796740Y5795940D01*
X4799800Y5798200D01*
X4802420Y5800940D01*
X4804540Y5804080D01*
X4806120Y5807540D01*
X4807060Y5811220D01*
X4807400Y5815000D01*
X4807060Y5818780D01*
X4806120Y5822460D01*
X4804540Y5825920D01*
X4802420Y5829059D01*
X4801320Y5830220D01*
X4800480Y5831500D01*
X4800200Y5833000D01*
X4800200Y5838700D01*
X4800380Y5839920D01*
X4800940Y5841020D01*
X4801800Y5841900D01*
X4805480Y5844660D01*
X4809020Y5848200D01*
X4812020Y5852200D01*
X4814400Y5856580D01*
X4816160Y5861260D01*
X4817220Y5866140D01*
X4817580Y5871260D01*
X4817580Y5977400D01*
X4817220Y5982519D01*
X4816160Y5987400D01*
X4814400Y5992080D01*
X4812020Y5996460D01*
X4809020Y6000460D01*
X4805480Y6004000D01*
X4801480Y6007000D01*
X4797100Y6009380D01*
X4792420Y6011140D01*
X4787540Y6012200D01*
X4782560Y6012560D01*
X4777580Y6012200D01*
X4772700Y6011140D01*
X4768020Y6009380D01*
X4763640Y6007000D01*
X4759640Y6004000D01*
X4756100Y6000460D01*
X4753100Y5996460D01*
X4750720Y5992080D01*
X4748960Y5987400D01*
X4747900Y5982519D01*
X4747540Y5977400D01*
X4747540Y5871260D01*
X4747900Y5866140D01*
X4748960Y5861260D01*
X4750720Y5856580D01*
X4753100Y5852200D01*
X4756100Y5848200D01*
X4759640Y5844660D01*
X4763640Y5841660D01*
X4767720Y5839440D01*
X4768820Y5838540D01*
X4769540Y5837320D01*
X4769800Y5835920D01*
X4769800Y5833099D01*
X4769580Y5831760D01*
X4768920Y5830580D01*
X4766440Y5827540D01*
X4764600Y5824220D01*
X4763340Y5820640D01*
X4762700Y5816900D01*
X4762700Y5813099D01*
X4763340Y5809360D01*
X4764600Y5805780D01*
X4766440Y5802460D01*
X4768840Y5799500D01*
X4771680Y5797000D01*
X4774920Y5795000D01*
X4778440Y5793600D01*
X4782160Y5792800D01*
G37*
G36*
X4382560Y5836100D02*
G01*
X4387540Y5836460D01*
X4392420Y5837519D01*
X4397100Y5839280D01*
X4401480Y5841660D01*
X4405480Y5844660D01*
X4409020Y5848200D01*
X4412020Y5852200D01*
X4414400Y5856580D01*
X4416160Y5861260D01*
X4417220Y5866140D01*
X4417580Y5871260D01*
X4417580Y5977400D01*
X4417220Y5982519D01*
X4416160Y5987400D01*
X4414400Y5992080D01*
X4412020Y5996460D01*
X4409020Y6000460D01*
X4405480Y6004000D01*
X4401480Y6007000D01*
X4397100Y6009380D01*
X4392420Y6011140D01*
X4387540Y6012200D01*
X4382560Y6012560D01*
X4377580Y6012200D01*
X4372700Y6011140D01*
X4368020Y6009380D01*
X4363640Y6007000D01*
X4359640Y6004000D01*
X4356100Y6000460D01*
X4353100Y5996460D01*
X4350720Y5992080D01*
X4348960Y5987400D01*
X4347900Y5982519D01*
X4347540Y5977400D01*
X4347540Y5871260D01*
X4347900Y5866140D01*
X4348960Y5861260D01*
X4350720Y5856580D01*
X4353100Y5852200D01*
X4356100Y5848200D01*
X4359640Y5844660D01*
X4363640Y5841660D01*
X4368020Y5839280D01*
X4372700Y5837519D01*
X4377580Y5836460D01*
G37*
G36*
X4682560Y5836100D02*
G01*
X4687540Y5836460D01*
X4692420Y5837519D01*
X4697100Y5839280D01*
X4701480Y5841660D01*
X4705480Y5844660D01*
X4709020Y5848200D01*
X4712020Y5852200D01*
X4714400Y5856580D01*
X4716160Y5861260D01*
X4717220Y5866140D01*
X4717580Y5871260D01*
X4717580Y5977400D01*
X4717220Y5982519D01*
X4716160Y5987400D01*
X4714400Y5992080D01*
X4712020Y5996460D01*
X4709020Y6000460D01*
X4705480Y6004000D01*
X4701480Y6007000D01*
X4697100Y6009380D01*
X4692420Y6011140D01*
X4687540Y6012200D01*
X4682560Y6012560D01*
X4677580Y6012200D01*
X4672700Y6011140D01*
X4668020Y6009380D01*
X4663640Y6007000D01*
X4659640Y6004000D01*
X4656100Y6000460D01*
X4653100Y5996460D01*
X4650720Y5992080D01*
X4648960Y5987400D01*
X4647900Y5982519D01*
X4647540Y5977400D01*
X4647540Y5871260D01*
X4647900Y5866140D01*
X4648960Y5861260D01*
X4650720Y5856580D01*
X4653100Y5852200D01*
X4656100Y5848200D01*
X4659640Y5844660D01*
X4663640Y5841660D01*
X4668020Y5839280D01*
X4672700Y5837519D01*
X4677580Y5836460D01*
G37*
G36*
X4582560Y5836100D02*
G01*
X4587540Y5836460D01*
X4592420Y5837519D01*
X4597100Y5839280D01*
X4601480Y5841660D01*
X4605480Y5844660D01*
X4609020Y5848200D01*
X4612020Y5852200D01*
X4614400Y5856580D01*
X4616160Y5861260D01*
X4617220Y5866140D01*
X4617580Y5871260D01*
X4617580Y5977400D01*
X4617220Y5982519D01*
X4616160Y5987400D01*
X4614400Y5992080D01*
X4612020Y5996460D01*
X4609020Y6000460D01*
X4605480Y6004000D01*
X4601480Y6007000D01*
X4597100Y6009380D01*
X4592420Y6011140D01*
X4587540Y6012200D01*
X4582560Y6012560D01*
X4577580Y6012200D01*
X4572700Y6011140D01*
X4568020Y6009380D01*
X4563640Y6007000D01*
X4559640Y6004000D01*
X4556100Y6000460D01*
X4553100Y5996460D01*
X4550720Y5992080D01*
X4548960Y5987400D01*
X4547900Y5982519D01*
X4547540Y5977400D01*
X4547540Y5871260D01*
X4547900Y5866140D01*
X4548960Y5861260D01*
X4550720Y5856580D01*
X4553100Y5852200D01*
X4556100Y5848200D01*
X4559640Y5844660D01*
X4563640Y5841660D01*
X4568020Y5839280D01*
X4572700Y5837519D01*
X4577580Y5836460D01*
G37*
G36*
X4482560Y5836100D02*
G01*
X4487540Y5836460D01*
X4492420Y5837519D01*
X4497100Y5839280D01*
X4501480Y5841660D01*
X4505480Y5844660D01*
X4509020Y5848200D01*
X4512020Y5852200D01*
X4514400Y5856580D01*
X4516160Y5861260D01*
X4517220Y5866140D01*
X4517580Y5871260D01*
X4517580Y5977400D01*
X4517220Y5982519D01*
X4516160Y5987400D01*
X4514400Y5992080D01*
X4512020Y5996460D01*
X4509020Y6000460D01*
X4505480Y6004000D01*
X4501480Y6007000D01*
X4497100Y6009380D01*
X4492420Y6011140D01*
X4487540Y6012200D01*
X4482560Y6012560D01*
X4477580Y6012200D01*
X4472700Y6011140D01*
X4468020Y6009380D01*
X4463640Y6007000D01*
X4459640Y6004000D01*
X4456100Y6000460D01*
X4453100Y5996460D01*
X4450720Y5992080D01*
X4448960Y5987400D01*
X4447900Y5982519D01*
X4447540Y5977400D01*
X4447540Y5871260D01*
X4447900Y5866140D01*
X4448960Y5861260D01*
X4450720Y5856580D01*
X4453100Y5852200D01*
X4456100Y5848200D01*
X4459640Y5844660D01*
X4463640Y5841660D01*
X4468020Y5839280D01*
X4472700Y5837519D01*
X4477580Y5836460D01*
G37*

%LPD*%
D10*
X4782600Y5230700D02*
G01*
X4785000Y5233099D01*
X4785000Y5315000D01*
X4755000Y5345000D01*
X4670000Y5345000D01*
X4635000Y5310000D01*
X4635000Y4960000D01*
X4325000Y4650000D01*
X3495000Y4650000D01*
X4010000Y5185000D02*
G01*
X4055670Y5230670D01*
X4182560Y5230670D01*
X3300000Y4220000D02*
G01*
X2900000Y4220000D01*
X2805000Y4125000D01*
X2675000Y4125000D01*
X2495050Y3674960D02*
G01*
X2280010Y3890000D01*
X1956878Y3890000D01*
X4382560Y5230670D02*
G01*
X4382560Y5147559D01*
X4320000Y5085000D01*
X4290000Y5390000D02*
G01*
X4977560Y5390000D01*
X4982560Y5385000D01*
X2625000Y4475000D02*
G01*
X2625000Y4360000D01*
X4420000Y4360000D01*
X4555000Y4495000D01*
X990000Y4445000D02*
G01*
X945000Y4445000D01*
X945000Y5260000D01*
X985000Y5260000D01*
X2625000Y4475000D02*
G01*
X2621237Y4471237D01*
X2621237Y3890000D01*
X4965000Y4225000D02*
G01*
X4710000Y3970000D01*
X4705000Y3970000D01*
X2960050Y3674960D02*
G01*
X2745010Y3890000D01*
X2233468Y3890000D01*
X1260000Y4170000D02*
G01*
X1540000Y3890000D01*
X1990000Y3890000D01*
X2065050Y3814949D01*
X2065050Y3674960D01*
X990000Y4445000D02*
G01*
X1260000Y4175000D01*
X1260000Y4170000D01*
X990000Y3895000D02*
G01*
X1260000Y4165000D01*
X1260000Y4170000D01*
X715000Y4175000D02*
G01*
X985000Y4445000D01*
X990000Y4445000D01*
X985000Y5260000D02*
G01*
X1260000Y5535000D01*
X990000Y5805000D02*
G01*
X1260000Y5535000D01*
X715000Y5540000D02*
G01*
X980000Y5805000D01*
X990000Y5805000D01*
X4882560Y5230668D02*
G01*
X4882560Y5345000D01*
X4965000Y4225000D02*
G01*
X4825000Y4225000D01*
X4555000Y4495000D01*
X4982560Y5939328D02*
G01*
X4982560Y5827559D01*
X4970000Y5815000D01*
X4882560Y5939328D02*
G01*
X4882560Y5815000D01*
X4782559Y5939328D02*
G01*
X4785000Y5936887D01*
X4785000Y5815000D01*
X2394376Y4185000D02*
G01*
X2525000Y4185000D01*
X2590000Y4250000D01*
X2249376Y4185000D02*
G01*
X2369376Y4305000D01*
X2590000Y4305000D01*
X4982560Y5230668D02*
G01*
X4982560Y5385000D01*
D11*
G01*
X4982560Y5924330D03*
G01*
X4882560Y5924330D03*
G01*
X4782560Y5924330D03*
G01*
X4682560Y5924330D03*
G01*
X4582560Y5924330D03*
G01*
X4482560Y5924330D03*
G01*
X4382560Y5924330D03*
G01*
X4282560Y5924330D03*
G01*
X4182560Y5924330D03*
D12*
G01*
X4127439Y5770790D03*
G01*
X4127439Y5670790D03*
G01*
X4127439Y5570790D03*
G01*
X4127439Y5470790D03*
G01*
X4127439Y5370790D03*
D11*
G01*
X4182560Y5215670D03*
G01*
X4282560Y5215670D03*
G01*
X4382560Y5215670D03*
G01*
X4482560Y5215670D03*
G01*
X4582560Y5215670D03*
G01*
X4682560Y5215670D03*
G01*
X4782560Y5215670D03*
G01*
X4882560Y5215670D03*
G01*
X4982560Y5215670D03*
D13*
G01*
X2074999Y4474999D03*
G01*
X2624999Y4474999D03*
G01*
X2212499Y4474999D03*
G01*
X2487499Y4474999D03*
G01*
X2349999Y4474999D03*
D14*
G01*
X2212500Y4475000D03*
G01*
X2350000Y4475000D03*
G01*
X2487500Y4475000D03*
G01*
X2075000Y4475000D03*
G01*
X2960050Y3674960D03*
G01*
X2495050Y3674960D03*
G01*
X2065050Y3674960D03*
G01*
X4705000Y3970000D03*
G01*
X4965000Y4225000D03*
G01*
X990000Y3895000D03*
G01*
X715000Y4175000D03*
G01*
X1260000Y4170000D03*
G01*
X990000Y4445000D03*
G01*
X715000Y5540000D03*
G01*
X985000Y5260000D03*
G01*
X1260000Y5535000D03*
G01*
X990000Y5805000D03*
G01*
X4882560Y5345000D03*
G01*
X4555000Y4495000D03*
G01*
X4970000Y5815000D03*
G01*
X4882560Y5815000D03*
G01*
X4785000Y5815000D03*
G01*
X2394380Y4185000D03*
G01*
X2249380Y4185000D03*
G01*
X2590000Y4250000D03*
G01*
X2590000Y4305000D03*
G01*
X4680000Y5235000D03*
G01*
X4580000Y5230000D03*
G01*
X4290000Y5390000D03*
G01*
X4482560Y5230670D03*
G01*
X4320000Y5085000D03*
G01*
X4282560Y5230670D03*
G01*
X3300000Y4220000D03*
G01*
X2675000Y4125000D03*
G01*
X4010000Y5185000D03*
G01*
X4125000Y5385000D03*
G01*
X4120000Y5485000D03*
G01*
X4120000Y5585000D03*
G01*
X4120000Y5685000D03*
G01*
X4119189Y5785000D03*
G01*
X4485000Y5940000D03*
G01*
X4385000Y5940000D03*
G01*
X3495000Y4650000D03*
G01*
X3495000Y4650000D03*
M02*
