G04 Layer: TopPasteMaskLayer*
G04 EasyEDA v6.5.44, 2024-07-16 09:33:37*
G04 92fc93377fd146f58095a2b6f3fb7df7,4528e9a37e1d4fff95ee12c27a66ef09,10*
G04 Gerber Generator version 0.2*
G04 Scale: 100 percent, Rotated: No, Reflected: No *
G04 Assembly correction: rubber button contacts intentionally excluded from paste*
G04 Dimensions in inches *
G04 leading zeros omitted , absolute positions ,3 integer and 6 decimal *
%FSLAX36Y36*%
%MOIN*%

%ADD10C,0.0600*%
%ADD11R,0.0236X0.0421*%

%LPD*%
G36*
X2229680Y4212160D02*
G01*
X2227720Y4210200D01*
X2227920Y4193660D01*
X2245240Y4193660D01*
X2245240Y4175940D01*
X2227520Y4175940D01*
X2227720Y4159800D01*
X2229680Y4157840D01*
X2274960Y4157840D01*
X2276940Y4159800D01*
X2276940Y4210200D01*
X2274960Y4212160D01*
G37*
G36*
X2145040Y4212160D02*
G01*
X2143080Y4210200D01*
X2143080Y4159800D01*
X2145040Y4157840D01*
X2190320Y4157840D01*
X2192280Y4159800D01*
X2192080Y4175940D01*
X2174760Y4175940D01*
X2174760Y4193660D01*
X2192280Y4193660D01*
X2192280Y4210200D01*
X2190320Y4212160D01*
G37*
G36*
X2189800Y4736940D02*
G01*
X2187840Y4734960D01*
X2187840Y4689680D01*
X2189800Y4687720D01*
X2206340Y4687920D01*
X2206340Y4705240D01*
X2224060Y4705240D01*
X2224060Y4687520D01*
X2240200Y4687720D01*
X2242160Y4689680D01*
X2242160Y4734960D01*
X2240200Y4736940D01*
G37*
G36*
X2189800Y4652280D02*
G01*
X2187840Y4650320D01*
X2187840Y4605040D01*
X2189800Y4603080D01*
X2240200Y4603080D01*
X2242160Y4605040D01*
X2242160Y4650320D01*
X2240200Y4652280D01*
X2224060Y4652080D01*
X2224060Y4634760D01*
X2206340Y4634760D01*
X2206340Y4652280D01*
G37*
G36*
X2324800Y4736940D02*
G01*
X2322840Y4734960D01*
X2322840Y4689680D01*
X2324800Y4687720D01*
X2341340Y4687920D01*
X2341340Y4705240D01*
X2359060Y4705240D01*
X2359060Y4687520D01*
X2375200Y4687720D01*
X2377160Y4689680D01*
X2377160Y4734960D01*
X2375200Y4736940D01*
G37*
G36*
X2324800Y4652280D02*
G01*
X2322840Y4650320D01*
X2322840Y4605040D01*
X2324800Y4603080D01*
X2375200Y4603080D01*
X2377160Y4605040D01*
X2377160Y4650320D01*
X2375200Y4652280D01*
X2359060Y4652080D01*
X2359060Y4634760D01*
X2341340Y4634760D01*
X2341340Y4652280D01*
G37*
G36*
X2374680Y4212160D02*
G01*
X2372720Y4210200D01*
X2372920Y4193660D01*
X2390240Y4193660D01*
X2390240Y4175940D01*
X2372520Y4175940D01*
X2372720Y4159800D01*
X2374680Y4157840D01*
X2419960Y4157840D01*
X2421940Y4159800D01*
X2421940Y4210200D01*
X2419960Y4212160D01*
G37*
G36*
X2290040Y4212160D02*
G01*
X2288080Y4210200D01*
X2288080Y4159800D01*
X2290040Y4157840D01*
X2335320Y4157840D01*
X2337280Y4159800D01*
X2337080Y4175940D01*
X2319760Y4175940D01*
X2319760Y4193660D01*
X2337280Y4193660D01*
X2337280Y4210200D01*
X2335320Y4212160D01*
G37*
G36*
X2459800Y4736940D02*
G01*
X2457840Y4734960D01*
X2457840Y4689680D01*
X2459800Y4687720D01*
X2476340Y4687920D01*
X2476340Y4705240D01*
X2494060Y4705240D01*
X2494060Y4687520D01*
X2510200Y4687720D01*
X2512160Y4689680D01*
X2512160Y4734960D01*
X2510200Y4736940D01*
G37*
G36*
X2459800Y4652280D02*
G01*
X2457840Y4650320D01*
X2457840Y4605040D01*
X2459800Y4603080D01*
X2510200Y4603080D01*
X2512160Y4605040D01*
X2512160Y4650320D01*
X2510200Y4652280D01*
X2494060Y4652080D01*
X2494060Y4634760D01*
X2476340Y4634760D01*
X2476340Y4652280D01*
G37*
G36*
X2519680Y4212160D02*
G01*
X2517720Y4210200D01*
X2517920Y4193660D01*
X2535240Y4193660D01*
X2535240Y4175940D01*
X2517520Y4175940D01*
X2517720Y4159800D01*
X2519680Y4157840D01*
X2564960Y4157840D01*
X2566940Y4159800D01*
X2566940Y4210200D01*
X2564960Y4212160D01*
G37*
G36*
X2435040Y4212160D02*
G01*
X2433080Y4210200D01*
X2433080Y4159800D01*
X2435040Y4157840D01*
X2480320Y4157840D01*
X2482280Y4159800D01*
X2482080Y4175940D01*
X2464760Y4175940D01*
X2464760Y4193660D01*
X2482280Y4193660D01*
X2482280Y4210200D01*
X2480320Y4212160D01*
G37*
D11*
G01*
X2177600Y4276379D03*
G01*
X2252399Y4276379D03*
G01*
X2215000Y4373620D03*
G01*
X2312600Y4276379D03*
G01*
X2387399Y4276379D03*
G01*
X2350000Y4373620D03*
G01*
X2452600Y4276379D03*
G01*
X2527399Y4276379D03*
G01*
X2490000Y4373620D03*
M02*
