G04 Layer: BottomSilkscreenLayer*
G04 EasyEDA v6.5.44, 2024-07-16 09:33:37*
G04 92fc93377fd146f58095a2b6f3fb7df7,4528e9a37e1d4fff95ee12c27a66ef09,10*
G04 Gerber Generator version 0.2*
G04 Scale: 100 percent, Rotated: No, Reflected: No *
G04 Dimensions in inches *
G04 leading zeros omitted , absolute positions ,3 integer and 6 decimal *
%FSLAX36Y36*%
%MOIN*%

%ADD10C,0.0060*%
%ADD11C,0.0100*%

%LPD*%
D10*
X4655400Y5579998D02*
G01*
X4624700Y5579998D01*
X4618599Y5581999D01*
X4614499Y5586098D01*
X4612500Y5592298D01*
X4612500Y5596399D01*
X4614499Y5602498D01*
X4618599Y5606599D01*
X4624700Y5608598D01*
X4655400Y5608598D01*
X4645200Y5624198D02*
G01*
X4647200Y5624198D01*
X4651300Y5626199D01*
X4653400Y5628299D01*
X4655400Y5632399D01*
X4655400Y5640499D01*
X4653400Y5644598D01*
X4651300Y5646698D01*
X4647200Y5648699D01*
X4643100Y5648699D01*
X4638999Y5646698D01*
X4632900Y5642599D01*
X4612500Y5622098D01*
X4612500Y5650799D01*
X2060000Y4562800D02*
G01*
X2072500Y4562800D01*
X2073699Y4551500D01*
X2072500Y4552800D01*
X2068699Y4554000D01*
X2065000Y4554000D01*
X2061199Y4552800D01*
X2058699Y4550300D01*
X2057500Y4546500D01*
X2057500Y4544000D01*
X2058699Y4540300D01*
X2061199Y4537800D01*
X2065000Y4536500D01*
X2068699Y4536500D01*
X2072500Y4537800D01*
X2073699Y4539000D01*
X2075000Y4541500D01*
X2049200Y4562800D02*
G01*
X2039200Y4536500D01*
X2029200Y4562800D02*
G01*
X2039200Y4536500D01*
X2641201Y4556500D02*
G01*
X2642501Y4559099D01*
X2645001Y4561599D01*
X2647501Y4562800D01*
X2652501Y4562800D01*
X2655001Y4561599D01*
X2657501Y4559099D01*
X2658701Y4556500D01*
X2660001Y4552800D01*
X2660001Y4546500D01*
X2658701Y4542800D01*
X2657501Y4540300D01*
X2655001Y4537800D01*
X2652501Y4536500D01*
X2647501Y4536500D01*
X2645001Y4537800D01*
X2642501Y4540300D01*
X2641201Y4542800D01*
X2641201Y4546500D01*
X2647501Y4546500D02*
G01*
X2641201Y4546500D01*
X2632901Y4562800D02*
G01*
X2632901Y4536500D01*
X2632901Y4562800D02*
G01*
X2615401Y4536500D01*
X2615401Y4562800D02*
G01*
X2615401Y4536500D01*
X2607101Y4562800D02*
G01*
X2607101Y4536500D01*
X2607101Y4562800D02*
G01*
X2598401Y4562800D01*
X2594601Y4561599D01*
X2592101Y4559099D01*
X2590901Y4556500D01*
X2589601Y4552800D01*
X2589601Y4546500D01*
X2590901Y4542800D01*
X2592101Y4540300D01*
X2594601Y4537800D01*
X2598401Y4536500D01*
X2607101Y4536500D01*
X2228710Y4556545D02*
G01*
X2229961Y4559050D01*
X2232467Y4561556D01*
X2234973Y4562809D01*
X2239984Y4562809D01*
X2242488Y4561556D01*
X2244994Y4559050D01*
X2246247Y4556545D01*
X2247500Y4552788D01*
X2247500Y4546525D01*
X2246247Y4542766D01*
X2244994Y4540261D01*
X2242488Y4537755D01*
X2239984Y4536502D01*
X2234973Y4536502D01*
X2232467Y4537755D01*
X2229961Y4540261D01*
X2228710Y4542766D01*
X2220442Y4562809D02*
G01*
X2220442Y4536502D01*
X2220442Y4536502D02*
G01*
X2205410Y4536502D01*
X2197142Y4562809D02*
G01*
X2197142Y4536502D01*
X2179605Y4562809D02*
G01*
X2197142Y4545272D01*
X2190879Y4551535D02*
G01*
X2179605Y4536502D01*
X2517500Y4562809D02*
G01*
X2517500Y4536502D01*
X2517500Y4562809D02*
G01*
X2508730Y4562809D01*
X2504973Y4561556D01*
X2502467Y4559050D01*
X2501215Y4556545D01*
X2499961Y4552788D01*
X2499961Y4546525D01*
X2501215Y4542766D01*
X2502467Y4540261D01*
X2504973Y4537755D01*
X2508730Y4536502D01*
X2517500Y4536502D01*
X2481673Y4562809D02*
G01*
X2491694Y4536502D01*
X2481673Y4562809D02*
G01*
X2471652Y4536502D01*
X2487937Y4545272D02*
G01*
X2475410Y4545272D01*
X2454615Y4562809D02*
G01*
X2454615Y4536502D01*
X2463383Y4562809D02*
G01*
X2445847Y4562809D01*
X2380000Y4562809D02*
G01*
X2380000Y4536502D01*
X2380000Y4536502D02*
G01*
X2364967Y4536502D01*
X2346679Y4562809D02*
G01*
X2356700Y4536502D01*
X2346679Y4562809D02*
G01*
X2336656Y4536502D01*
X2352942Y4545272D02*
G01*
X2340415Y4545272D01*
X2319620Y4562809D02*
G01*
X2319620Y4536502D01*
X2328389Y4562809D02*
G01*
X2310852Y4562809D01*
D11*
X5045159Y5215668D02*
G01*
X5045159Y5924328D01*
X4119960Y5924328D01*
X4119960Y5215668D01*
X5045159Y5215668D01*
X5092790Y5394018D02*
G01*
X5092790Y5745989D01*
X4796329Y5745989D01*
X4796329Y5394018D01*
X5092790Y5394018D01*
M02*
