G04 Layer: BoardOutlineLayer*
G04 EasyEDA v6.5.44, 2024-07-16 09:33:37*
G04 92fc93377fd146f58095a2b6f3fb7df7,4528e9a37e1d4fff95ee12c27a66ef09,10*
G04 Gerber Generator version 0.2*
G04 Scale: 100 percent, Rotated: No, Reflected: No *
G04 Dimensions in inches *
G04 leading zeros omitted , absolute positions ,3 integer and 6 decimal *
%FSLAX36Y36*%
%MOIN*%

%ADD10C,0.0100*%
D10*
X5045000Y4455000D02*
G01*
X5045000Y4455000D01*
X4720000Y4455000D01*
X4720000Y5230000D01*
X5045000Y5230000D01*
X5045000Y5770000D01*
X4855000Y3830000D02*
G01*
X5045000Y3830000D01*
X5045000Y4455000D01*
X4055000Y6070000D02*
G01*
X1265000Y6070000D01*
X1265000Y6015000D01*
X415000Y3945000D02*
G01*
X365000Y3945000D01*
X300000Y4175000D01*
X300000Y5515000D01*
X415000Y5965000D01*
X440000Y5985000D01*
X575000Y6065000D01*
X1030000Y6015000D02*
G01*
X1030000Y6060000D01*
X1020000Y6070000D01*
X575000Y6065000D01*
X4065000Y6005000D02*
G01*
X4065000Y6060000D01*
X4055000Y6070000D01*
X4737500Y6070000D02*
G01*
X4320000Y6070000D01*
X4310000Y6060000D01*
X4305614Y6009937D01*
X675000Y3655000D02*
G01*
X675000Y3535000D01*
X685000Y3525000D01*
X3070000Y3525000D01*
X3070000Y4005000D01*
X3700000Y4005000D01*
X3700000Y3520000D01*
X4480000Y3520000D01*
X4760000Y3610000D01*
X4760000Y3735000D01*
X425000Y3865000D02*
G01*
X390000Y3860000D01*
X415000Y3770000D01*
X575000Y3770000D01*
G75*
G01*
X425000Y3865000D02*
G03*
X415000Y3945000I-5000J40000D01*
G75*
G01*
X675000Y3655000D02*
G03*
X570712Y3769728I-112500J2500D01*
G75*
G01*
X4855000Y3830000D02*
G03*
X4760000Y3735000I5000J-100000D01*
G75*
G01*
X4065000Y6005000D02*
G03*
X4305616Y6009936I120000J17500D01*
G75*
G01*
X1030000Y6015000D02*
G03*
X1265000Y6026500I117485J6054D01*
G75*
G01*
X5042500Y5770000D02*
G03*
X4737501Y6069959I-300000J1D01*

%LPD*%
M02*
