G04 SwanSong USB - Bottom Silkscreen*
G04 Generated from the published SwanTroller Gerbers; units inches*
%FSLAX36Y36*%
%MOIN*%
%ADD10C,0.001*%
%LPD*%
%LPD*%
G36*
G01*
X4883780Y5295276D02*
X4883780Y5299150D01*
X4887654Y5299150D01*
X4887654Y5295276D01*
X4883780Y5295276D01*
G37*
G36*
G01*
X4883780Y5266929D02*
X4883780Y5270803D01*
X4887654Y5270803D01*
X4887654Y5266929D01*
X4883780Y5266929D01*
G37*
G36*
G01*
X4882929Y5266929D02*
X4879055Y5266929D01*
X4879055Y5270803D01*
X4882929Y5270803D01*
X4882929Y5266929D01*
G37*
G36*
G01*
X4879055Y5295276D02*
X4879055Y5299150D01*
X4882929Y5299150D01*
X4882929Y5295276D01*
X4879055Y5295276D01*
G37*
G36*
G01*
X4878205Y5299150D02*
X4878205Y5295276D01*
X4874331Y5295276D01*
X4874331Y5299150D01*
X4878205Y5299150D01*
G37*
G36*
G01*
X4878205Y5266929D02*
X4874331Y5266929D01*
X4874331Y5270803D01*
X4878205Y5270803D01*
X4878205Y5266929D01*
G37*
G36*
G01*
X4873480Y5295276D02*
X4869606Y5295276D01*
X4869606Y5299150D01*
X4873480Y5299150D01*
X4873480Y5295276D01*
G37*
G36*
G01*
X4873480Y5266929D02*
X4869606Y5266929D01*
X4869606Y5270803D01*
X4873480Y5270803D01*
X4873480Y5266929D01*
G37*
G36*
G01*
X4868756Y5290551D02*
X4864882Y5290551D01*
X4864882Y5294425D01*
X4868756Y5294425D01*
X4868756Y5290551D01*
G37*
G36*
G01*
X4868756Y5285827D02*
X4864882Y5285827D01*
X4864882Y5289701D01*
X4868756Y5289701D01*
X4868756Y5285827D01*
G37*
G36*
G01*
X4868756Y5284976D02*
X4868756Y5281102D01*
X4864882Y5281102D01*
X4864882Y5284976D01*
X4868756Y5284976D01*
G37*
G36*
G01*
X4868756Y5276378D02*
X4864882Y5276378D01*
X4864882Y5280252D01*
X4868756Y5280252D01*
X4868756Y5276378D01*
G37*
G36*
G01*
X4868756Y5271654D02*
X4864882Y5271654D01*
X4864882Y5275528D01*
X4868756Y5275528D01*
X4868756Y5271654D01*
G37*
G36*
G01*
X4859307Y5281102D02*
X4855433Y5281102D01*
X4855433Y5284976D01*
X4859307Y5284976D01*
X4859307Y5281102D01*
G37*
G36*
G01*
X4854583Y5284976D02*
X4854583Y5281102D01*
X4850709Y5281102D01*
X4850709Y5284976D01*
X4854583Y5284976D01*
G37*
G36*
G01*
X4849858Y5281102D02*
X4845984Y5281102D01*
X4845984Y5284976D01*
X4849858Y5284976D01*
X4849858Y5281102D01*
G37*
G36*
G01*
X4845134Y5281102D02*
X4841260Y5281102D01*
X4841260Y5284976D01*
X4845134Y5284976D01*
X4845134Y5281102D01*
G37*
G36*
G01*
X4840409Y5284976D02*
X4840409Y5281102D01*
X4836535Y5281102D01*
X4836535Y5284976D01*
X4840409Y5284976D01*
G37*
G36*
G01*
X4830961Y5290551D02*
X4827087Y5290551D01*
X4827087Y5294425D01*
X4830961Y5294425D01*
X4830961Y5290551D01*
G37*
G36*
G01*
X4830961Y5289701D02*
X4830961Y5285827D01*
X4827087Y5285827D01*
X4827087Y5289701D01*
X4830961Y5289701D01*
G37*
G36*
G01*
X4830961Y5276378D02*
X4827087Y5276378D01*
X4827087Y5280252D01*
X4830961Y5280252D01*
X4830961Y5276378D01*
G37*
G36*
G01*
X4830961Y5271654D02*
X4827087Y5271654D01*
X4827087Y5275528D01*
X4830961Y5275528D01*
X4830961Y5271654D01*
G37*
G36*
G01*
X4826236Y5299150D02*
X4826236Y5295276D01*
X4822362Y5295276D01*
X4822362Y5299150D01*
X4826236Y5299150D01*
G37*
G36*
G01*
X4826236Y5281102D02*
X4822362Y5281102D01*
X4822362Y5284976D01*
X4826236Y5284976D01*
X4826236Y5281102D01*
G37*
G36*
G01*
X4826236Y5266929D02*
X4822362Y5266929D01*
X4822362Y5270803D01*
X4826236Y5270803D01*
X4826236Y5266929D01*
G37*
G36*
G01*
X4821512Y5295276D02*
X4817638Y5295276D01*
X4817638Y5299150D01*
X4821512Y5299150D01*
X4821512Y5295276D01*
G37*
G36*
G01*
X4821512Y5281102D02*
X4817638Y5281102D01*
X4817638Y5284976D01*
X4821512Y5284976D01*
X4821512Y5281102D01*
G37*
G36*
G01*
X4821512Y5266929D02*
X4817638Y5266929D01*
X4817638Y5270803D01*
X4821512Y5270803D01*
X4821512Y5266929D01*
G37*
G36*
G01*
X4816787Y5295276D02*
X4812913Y5295276D01*
X4812913Y5299150D01*
X4816787Y5299150D01*
X4816787Y5295276D01*
G37*
G36*
G01*
X4816787Y5281102D02*
X4812913Y5281102D01*
X4812913Y5284976D01*
X4816787Y5284976D01*
X4816787Y5281102D01*
G37*
G36*
G01*
X4816787Y5266929D02*
X4812913Y5266929D01*
X4812913Y5270803D01*
X4816787Y5270803D01*
X4816787Y5266929D01*
G37*
G36*
G01*
X4812063Y5295276D02*
X4808189Y5295276D01*
X4808189Y5299150D01*
X4812063Y5299150D01*
X4812063Y5295276D01*
G37*
G36*
G01*
X4812063Y5290551D02*
X4808189Y5290551D01*
X4808189Y5294425D01*
X4812063Y5294425D01*
X4812063Y5290551D01*
G37*
G36*
G01*
X4812063Y5285827D02*
X4808189Y5285827D01*
X4808189Y5289701D01*
X4812063Y5289701D01*
X4812063Y5285827D01*
G37*
G36*
G01*
X4812063Y5281102D02*
X4808189Y5281102D01*
X4808189Y5284976D01*
X4812063Y5284976D01*
X4812063Y5281102D01*
G37*
G36*
G01*
X4812063Y5271654D02*
X4808189Y5271654D01*
X4808189Y5275528D01*
X4812063Y5275528D01*
X4812063Y5271654D01*
G37*
G36*
G01*
X4812063Y5266929D02*
X4808189Y5266929D01*
X4808189Y5270803D01*
X4812063Y5270803D01*
X4812063Y5266929D01*
G37*
G36*
G01*
X4808189Y5276378D02*
X4808189Y5280252D01*
X4812063Y5280252D01*
X4812063Y5276378D01*
X4808189Y5276378D01*
G37*
G36*
G01*
X4802614Y5299150D02*
X4802614Y5295276D01*
X4798740Y5295276D01*
X4798740Y5299150D01*
X4802614Y5299150D01*
G37*
G36*
G01*
X4802614Y5280252D02*
X4802614Y5276378D01*
X4798740Y5276378D01*
X4798740Y5280252D01*
X4802614Y5280252D01*
G37*
G36*
G01*
X4802614Y5271654D02*
X4798740Y5271654D01*
X4798740Y5275528D01*
X4802614Y5275528D01*
X4802614Y5271654D01*
G37*
G36*
G01*
X4797890Y5295276D02*
X4794016Y5295276D01*
X4794016Y5299150D01*
X4797890Y5299150D01*
X4797890Y5295276D01*
G37*
G36*
G01*
X4797890Y5266929D02*
X4794016Y5266929D01*
X4794016Y5270803D01*
X4797890Y5270803D01*
X4797890Y5266929D01*
G37*
G36*
G01*
X4794016Y5281102D02*
X4794016Y5284976D01*
X4797890Y5284976D01*
X4797890Y5281102D01*
X4794016Y5281102D01*
G37*
G36*
G01*
X4793165Y5295276D02*
X4789291Y5295276D01*
X4789291Y5299150D01*
X4793165Y5299150D01*
X4793165Y5295276D01*
G37*
G36*
G01*
X4793165Y5281102D02*
X4789291Y5281102D01*
X4789291Y5284976D01*
X4793165Y5284976D01*
X4793165Y5281102D01*
G37*
G36*
G01*
X4793165Y5270803D02*
X4793165Y5266929D01*
X4789291Y5266929D01*
X4789291Y5270803D01*
X4793165Y5270803D01*
G37*
G36*
G01*
X4788441Y5295276D02*
X4784567Y5295276D01*
X4784567Y5299150D01*
X4788441Y5299150D01*
X4788441Y5295276D01*
G37*
G36*
G01*
X4788441Y5281102D02*
X4784567Y5281102D01*
X4784567Y5284976D01*
X4788441Y5284976D01*
X4788441Y5281102D01*
G37*
G36*
G01*
X4788441Y5266929D02*
X4784567Y5266929D01*
X4784567Y5270803D01*
X4788441Y5270803D01*
X4788441Y5266929D01*
G37*
G36*
G01*
X4783717Y5294425D02*
X4783717Y5290551D01*
X4779843Y5290551D01*
X4779843Y5294425D01*
X4783717Y5294425D01*
G37*
G36*
G01*
X4783717Y5270803D02*
X4783717Y5266929D01*
X4779843Y5266929D01*
X4779843Y5270803D01*
X4783717Y5270803D01*
G37*
G36*
G01*
X4779843Y5285827D02*
X4779843Y5289701D01*
X4783717Y5289701D01*
X4783717Y5285827D01*
X4779843Y5285827D01*
G37*
G36*
G01*
X4774268Y5295276D02*
X4770394Y5295276D01*
X4770394Y5299150D01*
X4774268Y5299150D01*
X4774268Y5295276D01*
G37*
G36*
G01*
X4774268Y5290551D02*
X4770394Y5290551D01*
X4770394Y5294425D01*
X4774268Y5294425D01*
X4774268Y5290551D01*
G37*
G36*
G01*
X4774268Y5285827D02*
X4770394Y5285827D01*
X4770394Y5289701D01*
X4774268Y5289701D01*
X4774268Y5285827D01*
G37*
G36*
G01*
X4774268Y5281102D02*
X4770394Y5281102D01*
X4770394Y5284976D01*
X4774268Y5284976D01*
X4774268Y5281102D01*
G37*
G36*
G01*
X4774268Y5276378D02*
X4770394Y5276378D01*
X4770394Y5280252D01*
X4774268Y5280252D01*
X4774268Y5276378D01*
G37*
G36*
G01*
X4774268Y5271654D02*
X4770394Y5271654D01*
X4770394Y5275528D01*
X4774268Y5275528D01*
X4774268Y5271654D01*
G37*
G36*
G01*
X4769543Y5266929D02*
X4765669Y5266929D01*
X4765669Y5270803D01*
X4769543Y5270803D01*
X4769543Y5266929D01*
G37*
G36*
G01*
X4764819Y5266929D02*
X4760945Y5266929D01*
X4760945Y5270803D01*
X4764819Y5270803D01*
X4764819Y5266929D01*
G37*
G36*
G01*
X4760094Y5270803D02*
X4760094Y5266929D01*
X4756220Y5266929D01*
X4756220Y5270803D01*
X4760094Y5270803D01*
G37*
G36*
G01*
X4755370Y5295276D02*
X4751496Y5295276D01*
X4751496Y5299150D01*
X4755370Y5299150D01*
X4755370Y5295276D01*
G37*
G36*
G01*
X4755370Y5285827D02*
X4751496Y5285827D01*
X4751496Y5289701D01*
X4755370Y5289701D01*
X4755370Y5285827D01*
G37*
G36*
G01*
X4755370Y5281102D02*
X4751496Y5281102D01*
X4751496Y5284976D01*
X4755370Y5284976D01*
X4755370Y5281102D01*
G37*
G36*
G01*
X4755370Y5276378D02*
X4751496Y5276378D01*
X4751496Y5280252D01*
X4755370Y5280252D01*
X4755370Y5276378D01*
G37*
G36*
G01*
X4755370Y5271654D02*
X4751496Y5271654D01*
X4751496Y5275528D01*
X4755370Y5275528D01*
X4755370Y5271654D01*
G37*
G36*
G01*
X4751496Y5290551D02*
X4751496Y5294425D01*
X4755370Y5294425D01*
X4755370Y5290551D01*
X4751496Y5290551D01*
G37*
G36*
G01*
X3979433Y5413701D02*
X3976850Y5413701D01*
X3976850Y5416283D01*
X3979433Y5416283D01*
X3979433Y5413701D01*
G37*
G36*
G01*
X3979433Y5410551D02*
X3976850Y5410551D01*
X3976850Y5413134D01*
X3979433Y5413134D01*
X3979433Y5410551D01*
G37*
G36*
G01*
X3976283Y5416850D02*
X3973701Y5416850D01*
X3973701Y5419433D01*
X3976283Y5419433D01*
X3976283Y5416850D01*
G37*
G36*
G01*
X3976283Y5407402D02*
X3973701Y5407402D01*
X3973701Y5409984D01*
X3976283Y5409984D01*
X3976283Y5407402D01*
G37*
G36*
G01*
X3973134Y5416850D02*
X3970551Y5416850D01*
X3970551Y5419433D01*
X3973134Y5419433D01*
X3973134Y5416850D01*
G37*
G36*
G01*
X3973134Y5407402D02*
X3970551Y5407402D01*
X3970551Y5409984D01*
X3973134Y5409984D01*
X3973134Y5407402D01*
G37*
G36*
G01*
X3969984Y5419433D02*
X3969984Y5416850D01*
X3967402Y5416850D01*
X3967402Y5419433D01*
X3969984Y5419433D01*
G37*
G36*
G01*
X3969984Y5409984D02*
X3969984Y5407402D01*
X3967402Y5407402D01*
X3967402Y5409984D01*
X3969984Y5409984D01*
G37*
G36*
G01*
X3966835Y5419433D02*
X3966835Y5416850D01*
X3964252Y5416850D01*
X3964252Y5419433D01*
X3966835Y5419433D01*
G37*
G36*
G01*
X3966835Y5416283D02*
X3966835Y5413701D01*
X3964252Y5413701D01*
X3964252Y5416283D01*
X3966835Y5416283D01*
G37*
G36*
G01*
X3966835Y5413134D02*
X3966835Y5410551D01*
X3964252Y5410551D01*
X3964252Y5413134D01*
X3966835Y5413134D01*
G37*
G36*
G01*
X3966835Y5406835D02*
X3966835Y5404252D01*
X3964252Y5404252D01*
X3964252Y5406835D01*
X3966835Y5406835D01*
G37*
G36*
G01*
X3966835Y5401102D02*
X3964252Y5401102D01*
X3964252Y5403685D01*
X3966835Y5403685D01*
X3966835Y5401102D01*
G37*
G36*
G01*
X3966835Y5397953D02*
X3964252Y5397953D01*
X3964252Y5400535D01*
X3966835Y5400535D01*
X3966835Y5397953D01*
G37*
G36*
G01*
X3964252Y5409984D02*
X3966835Y5409984D01*
X3966835Y5407402D01*
X3964252Y5407402D01*
X3964252Y5409984D01*
G37*
G36*
G01*
X3960535Y5416283D02*
X3960535Y5413701D01*
X3957953Y5413701D01*
X3957953Y5416283D01*
X3960535Y5416283D01*
G37*
G36*
G01*
X3960535Y5413134D02*
X3960535Y5410551D01*
X3957953Y5410551D01*
X3957953Y5413134D01*
X3960535Y5413134D01*
G37*
G36*
G01*
X3957386Y5416850D02*
X3954803Y5416850D01*
X3954803Y5419433D01*
X3957386Y5419433D01*
X3957386Y5416850D01*
G37*
G36*
G01*
X3957386Y5407402D02*
X3954803Y5407402D01*
X3954803Y5409984D01*
X3957386Y5409984D01*
X3957386Y5407402D01*
G37*
G36*
G01*
X3954236Y5416850D02*
X3951654Y5416850D01*
X3951654Y5419433D01*
X3954236Y5419433D01*
X3954236Y5416850D01*
G37*
G36*
G01*
X3954236Y5407402D02*
X3951654Y5407402D01*
X3951654Y5409984D01*
X3954236Y5409984D01*
X3954236Y5407402D01*
G37*
G36*
G01*
X3951087Y5419433D02*
X3951087Y5416850D01*
X3948504Y5416850D01*
X3948504Y5419433D01*
X3951087Y5419433D01*
G37*
G36*
G01*
X3951087Y5409984D02*
X3951087Y5407402D01*
X3948504Y5407402D01*
X3948504Y5409984D01*
X3951087Y5409984D01*
G37*
G36*
G01*
X3947937Y5416850D02*
X3945354Y5416850D01*
X3945354Y5419433D01*
X3947937Y5419433D01*
X3947937Y5416850D01*
G37*
G36*
G01*
X3947937Y5413134D02*
X3947937Y5410551D01*
X3945354Y5410551D01*
X3945354Y5413134D01*
X3947937Y5413134D01*
G37*
G36*
G01*
X3947937Y5404252D02*
X3945354Y5404252D01*
X3945354Y5406835D01*
X3947937Y5406835D01*
X3947937Y5404252D01*
G37*
G36*
G01*
X3947937Y5401102D02*
X3945354Y5401102D01*
X3945354Y5403685D01*
X3947937Y5403685D01*
X3947937Y5401102D01*
G37*
G36*
G01*
X3947937Y5400535D02*
X3947937Y5397953D01*
X3945354Y5397953D01*
X3945354Y5400535D01*
X3947937Y5400535D01*
G37*
G36*
G01*
X3945354Y5416283D02*
X3947937Y5416283D01*
X3947937Y5413701D01*
X3945354Y5413701D01*
X3945354Y5416283D01*
G37*
G36*
G01*
X3945354Y5409984D02*
X3947937Y5409984D01*
X3947937Y5407402D01*
X3945354Y5407402D01*
X3945354Y5409984D01*
G37*
G36*
G01*
X3941638Y5419433D02*
X3941638Y5416850D01*
X3939055Y5416850D01*
X3939055Y5419433D01*
X3941638Y5419433D01*
G37*
G36*
G01*
X3941638Y5416283D02*
X3941638Y5413701D01*
X3939055Y5413701D01*
X3939055Y5416283D01*
X3941638Y5416283D01*
G37*
G36*
G01*
X3941638Y5410551D02*
X3939055Y5410551D01*
X3939055Y5413134D01*
X3941638Y5413134D01*
X3941638Y5410551D01*
G37*
G36*
G01*
X3941638Y5409984D02*
X3941638Y5407402D01*
X3939055Y5407402D01*
X3939055Y5409984D01*
X3941638Y5409984D01*
G37*
G36*
G01*
X3941638Y5404252D02*
X3939055Y5404252D01*
X3939055Y5406835D01*
X3941638Y5406835D01*
X3941638Y5404252D01*
G37*
G36*
G01*
X3938488Y5403685D02*
X3938488Y5401102D01*
X3935906Y5401102D01*
X3935906Y5403685D01*
X3938488Y5403685D01*
G37*
G36*
G01*
X3935339Y5400535D02*
X3935339Y5397953D01*
X3932756Y5397953D01*
X3932756Y5400535D01*
X3935339Y5400535D01*
G37*
G36*
G01*
X3932189Y5403685D02*
X3932189Y5401102D01*
X3929606Y5401102D01*
X3929606Y5403685D01*
X3932189Y5403685D01*
G37*
G36*
G01*
X3929039Y5416850D02*
X3926457Y5416850D01*
X3926457Y5419433D01*
X3929039Y5419433D01*
X3929039Y5416850D01*
G37*
G36*
G01*
X3929039Y5416283D02*
X3929039Y5413701D01*
X3926457Y5413701D01*
X3926457Y5416283D01*
X3929039Y5416283D01*
G37*
G36*
G01*
X3929039Y5410551D02*
X3926457Y5410551D01*
X3926457Y5413134D01*
X3929039Y5413134D01*
X3929039Y5410551D01*
G37*
G36*
G01*
X3929039Y5409984D02*
X3929039Y5407402D01*
X3926457Y5407402D01*
X3926457Y5409984D01*
X3929039Y5409984D01*
G37*
G36*
G01*
X3929039Y5406835D02*
X3929039Y5404252D01*
X3926457Y5404252D01*
X3926457Y5406835D01*
X3929039Y5406835D01*
G37*
G36*
G01*
X3428031Y5440551D02*
X3428031Y5444425D01*
X3431906Y5444425D01*
X3431906Y5440551D01*
X3428031Y5440551D01*
G37*
G36*
G01*
X3428031Y5439701D02*
X3431906Y5439701D01*
X3431906Y5435827D01*
X3428031Y5435827D01*
X3428031Y5439701D01*
G37*
G36*
G01*
X3428031Y5434976D02*
X3431906Y5434976D01*
X3431906Y5431102D01*
X3428031Y5431102D01*
X3428031Y5434976D01*
G37*
G36*
G01*
X3428031Y5430252D02*
X3431906Y5430252D01*
X3431906Y5426378D01*
X3428031Y5426378D01*
X3428031Y5430252D01*
G37*
G36*
G01*
X3428031Y5425528D02*
X3431906Y5425528D01*
X3431906Y5421654D01*
X3428031Y5421654D01*
X3428031Y5425528D01*
G37*
G36*
G01*
X3423307Y5449150D02*
X3427181Y5449150D01*
X3427181Y5445276D01*
X3423307Y5445276D01*
X3423307Y5449150D01*
G37*
G36*
G01*
X3423307Y5420803D02*
X3427181Y5420803D01*
X3427181Y5416929D01*
X3423307Y5416929D01*
X3423307Y5420803D01*
G37*
G36*
G01*
X3418583Y5449150D02*
X3422457Y5449150D01*
X3422457Y5445276D01*
X3418583Y5445276D01*
X3418583Y5449150D01*
G37*
G36*
G01*
X3418583Y5420803D02*
X3422457Y5420803D01*
X3422457Y5416929D01*
X3418583Y5416929D01*
X3418583Y5420803D01*
G37*
G36*
G01*
X3413858Y5449150D02*
X3417732Y5449150D01*
X3417732Y5445276D01*
X3413858Y5445276D01*
X3413858Y5449150D01*
G37*
G36*
G01*
X3413858Y5420803D02*
X3417732Y5420803D01*
X3417732Y5416929D01*
X3413858Y5416929D01*
X3413858Y5420803D01*
G37*
G36*
G01*
X3409134Y5445276D02*
X3409134Y5449150D01*
X3413008Y5449150D01*
X3413008Y5445276D01*
X3409134Y5445276D01*
G37*
G36*
G01*
X3409134Y5440551D02*
X3409134Y5444425D01*
X3413008Y5444425D01*
X3413008Y5440551D01*
X3409134Y5440551D01*
G37*
G36*
G01*
X3409134Y5439701D02*
X3413008Y5439701D01*
X3413008Y5435827D01*
X3409134Y5435827D01*
X3409134Y5439701D01*
G37*
G36*
G01*
X3409134Y5431102D02*
X3409134Y5434976D01*
X3413008Y5434976D01*
X3413008Y5431102D01*
X3409134Y5431102D01*
G37*
G36*
G01*
X3409134Y5430252D02*
X3413008Y5430252D01*
X3413008Y5426378D01*
X3409134Y5426378D01*
X3409134Y5430252D01*
G37*
G36*
G01*
X3409134Y5425528D02*
X3413008Y5425528D01*
X3413008Y5421654D01*
X3409134Y5421654D01*
X3409134Y5425528D01*
G37*
G36*
G01*
X3409134Y5420803D02*
X3413008Y5420803D01*
X3413008Y5416929D01*
X3409134Y5416929D01*
X3409134Y5420803D01*
G37*
G36*
G01*
X3399685Y5449150D02*
X3403559Y5449150D01*
X3403559Y5445276D01*
X3399685Y5445276D01*
X3399685Y5449150D01*
G37*
G36*
G01*
X3399685Y5416929D02*
X3399685Y5420803D01*
X3403559Y5420803D01*
X3403559Y5416929D01*
X3399685Y5416929D01*
G37*
G36*
G01*
X3394961Y5449150D02*
X3398835Y5449150D01*
X3398835Y5445276D01*
X3394961Y5445276D01*
X3394961Y5449150D01*
G37*
G36*
G01*
X3394961Y5434976D02*
X3398835Y5434976D01*
X3398835Y5431102D01*
X3394961Y5431102D01*
X3394961Y5434976D01*
G37*
G36*
G01*
X3394961Y5420803D02*
X3398835Y5420803D01*
X3398835Y5416929D01*
X3394961Y5416929D01*
X3394961Y5420803D01*
G37*
G36*
G01*
X3394110Y5449150D02*
X3394110Y5445276D01*
X3390236Y5445276D01*
X3390236Y5449150D01*
X3394110Y5449150D01*
G37*
G36*
G01*
X3390236Y5434976D02*
X3394110Y5434976D01*
X3394110Y5431102D01*
X3390236Y5431102D01*
X3390236Y5434976D01*
G37*
G36*
G01*
X3390236Y5420803D02*
X3394110Y5420803D01*
X3394110Y5416929D01*
X3390236Y5416929D01*
X3390236Y5420803D01*
G37*
G36*
G01*
X3389386Y5449150D02*
X3389386Y5445276D01*
X3385512Y5445276D01*
X3385512Y5449150D01*
X3389386Y5449150D01*
G37*
G36*
G01*
X3385512Y5434976D02*
X3389386Y5434976D01*
X3389386Y5431102D01*
X3385512Y5431102D01*
X3385512Y5434976D01*
G37*
G36*
G01*
X3385512Y5420803D02*
X3389386Y5420803D01*
X3389386Y5416929D01*
X3385512Y5416929D01*
X3385512Y5420803D01*
G37*
G36*
G01*
X3385512Y5294425D02*
X3389386Y5294425D01*
X3389386Y5290551D01*
X3385512Y5290551D01*
X3385512Y5294425D01*
G37*
G36*
G01*
X3385512Y5289701D02*
X3389386Y5289701D01*
X3389386Y5285827D01*
X3385512Y5285827D01*
X3385512Y5289701D01*
G37*
G36*
G01*
X3385512Y5281102D02*
X3385512Y5284976D01*
X3389386Y5284976D01*
X3389386Y5281102D01*
X3385512Y5281102D01*
G37*
G36*
G01*
X3385512Y5280252D02*
X3389386Y5280252D01*
X3389386Y5276378D01*
X3385512Y5276378D01*
X3385512Y5280252D01*
G37*
G36*
G01*
X3385512Y5275528D02*
X3389386Y5275528D01*
X3389386Y5271654D01*
X3385512Y5271654D01*
X3385512Y5275528D01*
G37*
G36*
G01*
X3384661Y5420803D02*
X3384661Y5416929D01*
X3380787Y5416929D01*
X3380787Y5420803D01*
X3384661Y5420803D01*
G37*
G36*
G01*
X3380787Y5449150D02*
X3384661Y5449150D01*
X3384661Y5445276D01*
X3380787Y5445276D01*
X3380787Y5449150D01*
G37*
G36*
G01*
X3380787Y5444425D02*
X3384661Y5444425D01*
X3384661Y5440551D01*
X3380787Y5440551D01*
X3380787Y5444425D01*
G37*
G36*
G01*
X3380787Y5439701D02*
X3384661Y5439701D01*
X3384661Y5435827D01*
X3380787Y5435827D01*
X3380787Y5439701D01*
G37*
G36*
G01*
X3380787Y5431102D02*
X3380787Y5434976D01*
X3384661Y5434976D01*
X3384661Y5431102D01*
X3380787Y5431102D01*
G37*
G36*
G01*
X3380787Y5430252D02*
X3384661Y5430252D01*
X3384661Y5426378D01*
X3380787Y5426378D01*
X3380787Y5430252D01*
G37*
G36*
G01*
X3380787Y5425528D02*
X3384661Y5425528D01*
X3384661Y5421654D01*
X3380787Y5421654D01*
X3380787Y5425528D01*
G37*
G36*
G01*
X3380787Y5299150D02*
X3384661Y5299150D01*
X3384661Y5295276D01*
X3380787Y5295276D01*
X3380787Y5299150D01*
G37*
G36*
G01*
X3380787Y5270803D02*
X3384661Y5270803D01*
X3384661Y5266929D01*
X3380787Y5266929D01*
X3380787Y5270803D01*
G37*
G36*
G01*
X3376063Y5295276D02*
X3376063Y5299150D01*
X3379937Y5299150D01*
X3379937Y5295276D01*
X3376063Y5295276D01*
G37*
G36*
G01*
X3376063Y5266929D02*
X3376063Y5270803D01*
X3379937Y5270803D01*
X3379937Y5266929D01*
X3376063Y5266929D01*
G37*
G36*
G01*
X3375213Y5444425D02*
X3375213Y5440551D01*
X3371339Y5440551D01*
X3371339Y5444425D01*
X3375213Y5444425D01*
G37*
G36*
G01*
X3375213Y5439701D02*
X3375213Y5435827D01*
X3371339Y5435827D01*
X3371339Y5439701D01*
X3375213Y5439701D01*
G37*
G36*
G01*
X3375213Y5434976D02*
X3375213Y5431102D01*
X3371339Y5431102D01*
X3371339Y5434976D01*
X3375213Y5434976D01*
G37*
G36*
G01*
X3371339Y5449150D02*
X3375213Y5449150D01*
X3375213Y5445276D01*
X3371339Y5445276D01*
X3371339Y5449150D01*
G37*
G36*
G01*
X3371339Y5426378D02*
X3371339Y5430252D01*
X3375213Y5430252D01*
X3375213Y5426378D01*
X3371339Y5426378D01*
G37*
G36*
G01*
X3371339Y5425528D02*
X3375213Y5425528D01*
X3375213Y5421654D01*
X3371339Y5421654D01*
X3371339Y5425528D01*
G37*
G36*
G01*
X3371339Y5420803D02*
X3375213Y5420803D01*
X3375213Y5416929D01*
X3371339Y5416929D01*
X3371339Y5420803D01*
G37*
G36*
G01*
X3375213Y5295276D02*
X3371339Y5295276D01*
X3371339Y5299150D01*
X3375213Y5299150D01*
X3375213Y5295276D01*
G37*
G36*
G01*
X3371339Y5270803D02*
X3375213Y5270803D01*
X3375213Y5266929D01*
X3371339Y5266929D01*
X3371339Y5270803D01*
G37*
G36*
G01*
X3366614Y5440551D02*
X3366614Y5444425D01*
X3370488Y5444425D01*
X3370488Y5440551D01*
X3366614Y5440551D01*
G37*
G36*
G01*
X3370488Y5281102D02*
X3366614Y5281102D01*
X3366614Y5284976D01*
X3370488Y5284976D01*
X3370488Y5281102D01*
G37*
G36*
G01*
X3366614Y5299150D02*
X3370488Y5299150D01*
X3370488Y5295276D01*
X3366614Y5295276D01*
X3366614Y5299150D01*
G37*
G36*
G01*
X3366614Y5290551D02*
X3366614Y5294425D01*
X3370488Y5294425D01*
X3370488Y5290551D01*
X3366614Y5290551D01*
G37*
G36*
G01*
X3366614Y5289701D02*
X3370488Y5289701D01*
X3370488Y5285827D01*
X3366614Y5285827D01*
X3366614Y5289701D01*
G37*
G36*
G01*
X3366614Y5280252D02*
X3370488Y5280252D01*
X3370488Y5276378D01*
X3366614Y5276378D01*
X3366614Y5280252D01*
G37*
G36*
G01*
X3366614Y5275528D02*
X3370488Y5275528D01*
X3370488Y5271654D01*
X3366614Y5271654D01*
X3366614Y5275528D01*
G37*
G36*
G01*
X3366614Y5270803D02*
X3370488Y5270803D01*
X3370488Y5266929D01*
X3366614Y5266929D01*
X3366614Y5270803D01*
G37*
G36*
G01*
X3361890Y5439701D02*
X3365764Y5439701D01*
X3365764Y5435827D01*
X3361890Y5435827D01*
X3361890Y5439701D01*
G37*
G36*
G01*
X3361890Y5434976D02*
X3365764Y5434976D01*
X3365764Y5431102D01*
X3361890Y5431102D01*
X3361890Y5434976D01*
G37*
G36*
G01*
X3357165Y5444425D02*
X3361039Y5444425D01*
X3361039Y5440551D01*
X3357165Y5440551D01*
X3357165Y5444425D01*
G37*
G36*
G01*
X3357165Y5294425D02*
X3361039Y5294425D01*
X3361039Y5290551D01*
X3357165Y5290551D01*
X3357165Y5294425D01*
G37*
G36*
G01*
X3357165Y5285827D02*
X3357165Y5289701D01*
X3361039Y5289701D01*
X3361039Y5285827D01*
X3357165Y5285827D01*
G37*
G36*
G01*
X3357165Y5284976D02*
X3361039Y5284976D01*
X3361039Y5281102D01*
X3357165Y5281102D01*
X3357165Y5284976D01*
G37*
G36*
G01*
X3357165Y5280252D02*
X3361039Y5280252D01*
X3361039Y5276378D01*
X3357165Y5276378D01*
X3357165Y5280252D01*
G37*
G36*
G01*
X3357165Y5271654D02*
X3357165Y5275528D01*
X3361039Y5275528D01*
X3361039Y5271654D01*
X3357165Y5271654D01*
G37*
G36*
G01*
X3357165Y5270803D02*
X3361039Y5270803D01*
X3361039Y5266929D01*
X3357165Y5266929D01*
X3357165Y5270803D01*
G37*
G36*
G01*
X3356315Y5444425D02*
X3356315Y5440551D01*
X3352441Y5440551D01*
X3352441Y5444425D01*
X3356315Y5444425D01*
G37*
G36*
G01*
X3356315Y5430252D02*
X3356315Y5426378D01*
X3352441Y5426378D01*
X3352441Y5430252D01*
X3356315Y5430252D01*
G37*
G36*
G01*
X3356315Y5420803D02*
X3356315Y5416929D01*
X3352441Y5416929D01*
X3352441Y5420803D01*
X3356315Y5420803D01*
G37*
G36*
G01*
X3352441Y5449150D02*
X3356315Y5449150D01*
X3356315Y5445276D01*
X3352441Y5445276D01*
X3352441Y5449150D01*
G37*
G36*
G01*
X3352441Y5439701D02*
X3356315Y5439701D01*
X3356315Y5435827D01*
X3352441Y5435827D01*
X3352441Y5439701D01*
G37*
G36*
G01*
X3352441Y5434976D02*
X3356315Y5434976D01*
X3356315Y5431102D01*
X3352441Y5431102D01*
X3352441Y5434976D01*
G37*
G36*
G01*
X3352441Y5425528D02*
X3356315Y5425528D01*
X3356315Y5421654D01*
X3352441Y5421654D01*
X3352441Y5425528D01*
G37*
G36*
G01*
X3352441Y5299150D02*
X3356315Y5299150D01*
X3356315Y5295276D01*
X3352441Y5295276D01*
X3352441Y5299150D01*
G37*
G36*
G01*
X3352441Y5284976D02*
X3356315Y5284976D01*
X3356315Y5281102D01*
X3352441Y5281102D01*
X3352441Y5284976D01*
G37*
G36*
G01*
X3347717Y5299150D02*
X3351591Y5299150D01*
X3351591Y5295276D01*
X3347717Y5295276D01*
X3347717Y5299150D01*
G37*
G36*
G01*
X3347717Y5281102D02*
X3347717Y5284976D01*
X3351591Y5284976D01*
X3351591Y5281102D01*
X3347717Y5281102D01*
G37*
G36*
G01*
X3342992Y5449150D02*
X3346866Y5449150D01*
X3346866Y5445276D01*
X3342992Y5445276D01*
X3342992Y5449150D01*
G37*
G36*
G01*
X3342992Y5444425D02*
X3346866Y5444425D01*
X3346866Y5440551D01*
X3342992Y5440551D01*
X3342992Y5444425D01*
G37*
G36*
G01*
X3342992Y5435827D02*
X3342992Y5439701D01*
X3346866Y5439701D01*
X3346866Y5435827D01*
X3342992Y5435827D01*
G37*
G36*
G01*
X3342992Y5434976D02*
X3346866Y5434976D01*
X3346866Y5431102D01*
X3342992Y5431102D01*
X3342992Y5434976D01*
G37*
G36*
G01*
X3342992Y5430252D02*
X3346866Y5430252D01*
X3346866Y5426378D01*
X3342992Y5426378D01*
X3342992Y5430252D01*
G37*
G36*
G01*
X3342992Y5425528D02*
X3346866Y5425528D01*
X3346866Y5421654D01*
X3342992Y5421654D01*
X3342992Y5425528D01*
G37*
G36*
G01*
X3342992Y5420803D02*
X3346866Y5420803D01*
X3346866Y5416929D01*
X3342992Y5416929D01*
X3342992Y5420803D01*
G37*
G36*
G01*
X3342992Y5299150D02*
X3346866Y5299150D01*
X3346866Y5295276D01*
X3342992Y5295276D01*
X3342992Y5299150D01*
G37*
G36*
G01*
X3342992Y5284976D02*
X3346866Y5284976D01*
X3346866Y5281102D01*
X3342992Y5281102D01*
X3342992Y5284976D01*
G37*
G36*
G01*
X3338268Y5444425D02*
X3342142Y5444425D01*
X3342142Y5440551D01*
X3338268Y5440551D01*
X3338268Y5444425D01*
G37*
G36*
G01*
X3338268Y5290551D02*
X3338268Y5294425D01*
X3342142Y5294425D01*
X3342142Y5290551D01*
X3338268Y5290551D01*
G37*
G36*
G01*
X3338268Y5289701D02*
X3342142Y5289701D01*
X3342142Y5285827D01*
X3338268Y5285827D01*
X3338268Y5289701D01*
G37*
G36*
G01*
X3338268Y5284976D02*
X3342142Y5284976D01*
X3342142Y5281102D01*
X3338268Y5281102D01*
X3338268Y5284976D01*
G37*
G36*
G01*
X3338268Y5280252D02*
X3342142Y5280252D01*
X3342142Y5276378D01*
X3338268Y5276378D01*
X3338268Y5280252D01*
G37*
G36*
G01*
X3338268Y5275528D02*
X3342142Y5275528D01*
X3342142Y5271654D01*
X3338268Y5271654D01*
X3338268Y5275528D01*
G37*
G36*
G01*
X3338268Y5266929D02*
X3338268Y5270803D01*
X3342142Y5270803D01*
X3342142Y5266929D01*
X3338268Y5266929D01*
G37*
G36*
G01*
X3333543Y5439701D02*
X3337417Y5439701D01*
X3337417Y5435827D01*
X3333543Y5435827D01*
X3333543Y5439701D01*
G37*
G36*
G01*
X3337417Y5434976D02*
X3337417Y5431102D01*
X3333543Y5431102D01*
X3333543Y5434976D01*
X3337417Y5434976D01*
G37*
G36*
G01*
X3328819Y5294425D02*
X3332693Y5294425D01*
X3332693Y5290551D01*
X3328819Y5290551D01*
X3328819Y5294425D01*
G37*
G36*
G01*
X3328819Y5289701D02*
X3332693Y5289701D01*
X3332693Y5285827D01*
X3328819Y5285827D01*
X3328819Y5289701D01*
G37*
G36*
G01*
X3328819Y5444425D02*
X3332693Y5444425D01*
X3332693Y5440551D01*
X3328819Y5440551D01*
X3328819Y5444425D01*
G37*
G36*
G01*
X3324094Y5299150D02*
X3327969Y5299150D01*
X3327969Y5295276D01*
X3324094Y5295276D01*
X3324094Y5299150D01*
G37*
G36*
G01*
X3324094Y5284976D02*
X3327969Y5284976D01*
X3327969Y5281102D01*
X3324094Y5281102D01*
X3324094Y5284976D01*
G37*
G36*
G01*
X3324094Y5449150D02*
X3327969Y5449150D01*
X3327969Y5445276D01*
X3324094Y5445276D01*
X3324094Y5449150D01*
G37*
G36*
G01*
X3324094Y5444425D02*
X3327969Y5444425D01*
X3327969Y5440551D01*
X3324094Y5440551D01*
X3324094Y5444425D01*
G37*
G36*
G01*
X3324094Y5439701D02*
X3327969Y5439701D01*
X3327969Y5435827D01*
X3324094Y5435827D01*
X3324094Y5439701D01*
G37*
G36*
G01*
X3324094Y5434976D02*
X3327969Y5434976D01*
X3327969Y5431102D01*
X3324094Y5431102D01*
X3324094Y5434976D01*
G37*
G36*
G01*
X3324094Y5426378D02*
X3324094Y5430252D01*
X3327969Y5430252D01*
X3327969Y5426378D01*
X3324094Y5426378D01*
G37*
G36*
G01*
X3324094Y5425528D02*
X3327969Y5425528D01*
X3327969Y5421654D01*
X3324094Y5421654D01*
X3324094Y5425528D01*
G37*
G36*
G01*
X3324094Y5416929D02*
X3324094Y5420803D01*
X3327969Y5420803D01*
X3327969Y5416929D01*
X3324094Y5416929D01*
G37*
G36*
G01*
X3319370Y5299150D02*
X3323244Y5299150D01*
X3323244Y5295276D01*
X3319370Y5295276D01*
X3319370Y5299150D01*
G37*
G36*
G01*
X3319370Y5284976D02*
X3323244Y5284976D01*
X3323244Y5281102D01*
X3319370Y5281102D01*
X3319370Y5284976D01*
G37*
G36*
G01*
X3314646Y5444425D02*
X3318520Y5444425D01*
X3318520Y5440551D01*
X3314646Y5440551D01*
X3314646Y5444425D01*
G37*
G36*
G01*
X3314646Y5435827D02*
X3314646Y5439701D01*
X3318520Y5439701D01*
X3318520Y5435827D01*
X3314646Y5435827D01*
G37*
G36*
G01*
X3314646Y5434976D02*
X3318520Y5434976D01*
X3318520Y5431102D01*
X3314646Y5431102D01*
X3314646Y5434976D01*
G37*
G36*
G01*
X3314646Y5430252D02*
X3318520Y5430252D01*
X3318520Y5426378D01*
X3314646Y5426378D01*
X3314646Y5430252D01*
G37*
G36*
G01*
X3314646Y5425528D02*
X3318520Y5425528D01*
X3318520Y5421654D01*
X3314646Y5421654D01*
X3314646Y5425528D01*
G37*
G36*
G01*
X3314646Y5416929D02*
X3314646Y5420803D01*
X3318520Y5420803D01*
X3318520Y5416929D01*
X3314646Y5416929D01*
G37*
G36*
G01*
X3314646Y5299150D02*
X3318520Y5299150D01*
X3318520Y5295276D01*
X3314646Y5295276D01*
X3314646Y5299150D01*
G37*
G36*
G01*
X3314646Y5281102D02*
X3314646Y5284976D01*
X3318520Y5284976D01*
X3318520Y5281102D01*
X3314646Y5281102D01*
G37*
G36*
G01*
X3309921Y5295276D02*
X3309921Y5299150D01*
X3313795Y5299150D01*
X3313795Y5295276D01*
X3309921Y5295276D01*
G37*
G36*
G01*
X3309921Y5434976D02*
X3313795Y5434976D01*
X3313795Y5431102D01*
X3309921Y5431102D01*
X3309921Y5434976D01*
G37*
G36*
G01*
X3309921Y5445276D02*
X3309921Y5449150D01*
X3313795Y5449150D01*
X3313795Y5445276D01*
X3309921Y5445276D01*
G37*
G36*
G01*
X3309921Y5294425D02*
X3313795Y5294425D01*
X3313795Y5290551D01*
X3309921Y5290551D01*
X3309921Y5294425D01*
G37*
G36*
G01*
X3309921Y5289701D02*
X3313795Y5289701D01*
X3313795Y5285827D01*
X3309921Y5285827D01*
X3309921Y5289701D01*
G37*
G36*
G01*
X3309921Y5284976D02*
X3313795Y5284976D01*
X3313795Y5281102D01*
X3309921Y5281102D01*
X3309921Y5284976D01*
G37*
G36*
G01*
X3309921Y5276378D02*
X3309921Y5280252D01*
X3313795Y5280252D01*
X3313795Y5276378D01*
X3309921Y5276378D01*
G37*
G36*
G01*
X3309921Y5275528D02*
X3313795Y5275528D01*
X3313795Y5271654D01*
X3309921Y5271654D01*
X3309921Y5275528D01*
G37*
G36*
G01*
X3309921Y5270803D02*
X3313795Y5270803D01*
X3313795Y5266929D01*
X3309921Y5266929D01*
X3309921Y5270803D01*
G37*
G36*
G01*
X3305197Y5449150D02*
X3309071Y5449150D01*
X3309071Y5445276D01*
X3305197Y5445276D01*
X3305197Y5449150D01*
G37*
G36*
G01*
X3305197Y5434976D02*
X3309071Y5434976D01*
X3309071Y5431102D01*
X3305197Y5431102D01*
X3305197Y5434976D01*
G37*
G36*
G01*
X3300472Y5270803D02*
X3304346Y5270803D01*
X3304346Y5266929D01*
X3300472Y5266929D01*
X3300472Y5270803D01*
G37*
G36*
G01*
X3300472Y5434976D02*
X3304346Y5434976D01*
X3304346Y5431102D01*
X3300472Y5431102D01*
X3300472Y5434976D01*
G37*
G36*
G01*
X3300472Y5299150D02*
X3304346Y5299150D01*
X3304346Y5295276D01*
X3300472Y5295276D01*
X3300472Y5299150D01*
G37*
G36*
G01*
X3300472Y5449150D02*
X3304346Y5449150D01*
X3304346Y5445276D01*
X3300472Y5445276D01*
X3300472Y5449150D01*
G37*
G36*
G01*
X3299622Y5444425D02*
X3299622Y5440551D01*
X3295748Y5440551D01*
X3295748Y5444425D01*
X3299622Y5444425D01*
G37*
G36*
G01*
X3299622Y5420803D02*
X3299622Y5416929D01*
X3295748Y5416929D01*
X3295748Y5420803D01*
X3299622Y5420803D01*
G37*
G36*
G01*
X3295748Y5439701D02*
X3299622Y5439701D01*
X3299622Y5435827D01*
X3295748Y5435827D01*
X3295748Y5439701D01*
G37*
G36*
G01*
X3295748Y5431102D02*
X3295748Y5434976D01*
X3299622Y5434976D01*
X3299622Y5431102D01*
X3295748Y5431102D01*
G37*
G36*
G01*
X3295748Y5430252D02*
X3299622Y5430252D01*
X3299622Y5426378D01*
X3295748Y5426378D01*
X3295748Y5430252D01*
G37*
G36*
G01*
X3295748Y5425528D02*
X3299622Y5425528D01*
X3299622Y5421654D01*
X3295748Y5421654D01*
X3295748Y5425528D01*
G37*
G36*
G01*
X3295748Y5299150D02*
X3299622Y5299150D01*
X3299622Y5295276D01*
X3295748Y5295276D01*
X3295748Y5299150D01*
G37*
G36*
G01*
X3295748Y5281102D02*
X3295748Y5284976D01*
X3299622Y5284976D01*
X3299622Y5281102D01*
X3295748Y5281102D01*
G37*
G36*
G01*
X3295748Y5266929D02*
X3295748Y5270803D01*
X3299622Y5270803D01*
X3299622Y5266929D01*
X3295748Y5266929D01*
G37*
G36*
G01*
X3291024Y5295276D02*
X3291024Y5299150D01*
X3294898Y5299150D01*
X3294898Y5295276D01*
X3291024Y5295276D01*
G37*
G36*
G01*
X3291024Y5281102D02*
X3291024Y5284976D01*
X3294898Y5284976D01*
X3294898Y5281102D01*
X3291024Y5281102D01*
G37*
G36*
G01*
X3291024Y5266929D02*
X3291024Y5270803D01*
X3294898Y5270803D01*
X3294898Y5266929D01*
X3291024Y5266929D01*
G37*
G36*
G01*
X3286299Y5420803D02*
X3290173Y5420803D01*
X3290173Y5416929D01*
X3286299Y5416929D01*
X3286299Y5420803D01*
G37*
G36*
G01*
X3286299Y5439701D02*
X3290173Y5439701D01*
X3290173Y5435827D01*
X3286299Y5435827D01*
X3286299Y5439701D01*
G37*
G36*
G01*
X3286299Y5444425D02*
X3290173Y5444425D01*
X3290173Y5440551D01*
X3286299Y5440551D01*
X3286299Y5444425D01*
G37*
G36*
G01*
X3286299Y5299150D02*
X3290173Y5299150D01*
X3290173Y5295276D01*
X3286299Y5295276D01*
X3286299Y5299150D01*
G37*
G36*
G01*
X3286299Y5281102D02*
X3286299Y5284976D01*
X3290173Y5284976D01*
X3290173Y5281102D01*
X3286299Y5281102D01*
G37*
G36*
G01*
X3286299Y5270803D02*
X3290173Y5270803D01*
X3290173Y5266929D01*
X3286299Y5266929D01*
X3286299Y5270803D01*
G37*
G36*
G01*
X3281575Y5449150D02*
X3285449Y5449150D01*
X3285449Y5445276D01*
X3281575Y5445276D01*
X3281575Y5449150D01*
G37*
G36*
G01*
X3281575Y5434976D02*
X3285449Y5434976D01*
X3285449Y5431102D01*
X3281575Y5431102D01*
X3281575Y5434976D01*
G37*
G36*
G01*
X3281575Y5425528D02*
X3285449Y5425528D01*
X3285449Y5421654D01*
X3281575Y5421654D01*
X3281575Y5425528D01*
G37*
G36*
G01*
X3281575Y5299150D02*
X3285449Y5299150D01*
X3285449Y5295276D01*
X3281575Y5295276D01*
X3281575Y5299150D01*
G37*
G36*
G01*
X3281575Y5294425D02*
X3285449Y5294425D01*
X3285449Y5290551D01*
X3281575Y5290551D01*
X3281575Y5294425D01*
G37*
G36*
G01*
X3281575Y5285827D02*
X3281575Y5289701D01*
X3285449Y5289701D01*
X3285449Y5285827D01*
X3281575Y5285827D01*
G37*
G36*
G01*
X3281575Y5284976D02*
X3285449Y5284976D01*
X3285449Y5281102D01*
X3281575Y5281102D01*
X3281575Y5284976D01*
G37*
G36*
G01*
X3281575Y5280252D02*
X3285449Y5280252D01*
X3285449Y5276378D01*
X3281575Y5276378D01*
X3281575Y5280252D01*
G37*
G36*
G01*
X3281575Y5271654D02*
X3281575Y5275528D01*
X3285449Y5275528D01*
X3285449Y5271654D01*
X3281575Y5271654D01*
G37*
G36*
G01*
X3281575Y5270803D02*
X3285449Y5270803D01*
X3285449Y5266929D01*
X3281575Y5266929D01*
X3281575Y5270803D01*
G37*
G36*
G01*
X3276850Y5449150D02*
X3280724Y5449150D01*
X3280724Y5445276D01*
X3276850Y5445276D01*
X3276850Y5449150D01*
G37*
G36*
G01*
X3276850Y5434976D02*
X3280724Y5434976D01*
X3280724Y5431102D01*
X3276850Y5431102D01*
X3276850Y5434976D01*
G37*
G36*
G01*
X3276850Y5430252D02*
X3280724Y5430252D01*
X3280724Y5426378D01*
X3276850Y5426378D01*
X3276850Y5430252D01*
G37*
G36*
G01*
X3272126Y5270803D02*
X3276000Y5270803D01*
X3276000Y5266929D01*
X3272126Y5266929D01*
X3272126Y5270803D01*
G37*
G36*
G01*
X3272126Y5434976D02*
X3276000Y5434976D01*
X3276000Y5431102D01*
X3272126Y5431102D01*
X3272126Y5434976D01*
G37*
G36*
G01*
X3272126Y5299150D02*
X3276000Y5299150D01*
X3276000Y5295276D01*
X3272126Y5295276D01*
X3272126Y5299150D01*
G37*
G36*
G01*
X3272126Y5294425D02*
X3276000Y5294425D01*
X3276000Y5290551D01*
X3272126Y5290551D01*
X3272126Y5294425D01*
G37*
G36*
G01*
X3272126Y5289701D02*
X3276000Y5289701D01*
X3276000Y5285827D01*
X3272126Y5285827D01*
X3272126Y5289701D01*
G37*
G36*
G01*
X3272126Y5284976D02*
X3276000Y5284976D01*
X3276000Y5281102D01*
X3272126Y5281102D01*
X3272126Y5284976D01*
G37*
G36*
G01*
X3272126Y5280252D02*
X3276000Y5280252D01*
X3276000Y5276378D01*
X3272126Y5276378D01*
X3272126Y5280252D01*
G37*
G36*
G01*
X3272126Y5271654D02*
X3272126Y5275528D01*
X3276000Y5275528D01*
X3276000Y5271654D01*
X3272126Y5271654D01*
G37*
G36*
G01*
X3272126Y5449150D02*
X3276000Y5449150D01*
X3276000Y5445276D01*
X3272126Y5445276D01*
X3272126Y5449150D01*
G37*
G36*
G01*
X3271276Y5290551D02*
X3267402Y5290551D01*
X3267402Y5294425D01*
X3271276Y5294425D01*
X3271276Y5290551D01*
G37*
G36*
G01*
X3267402Y5449150D02*
X3271276Y5449150D01*
X3271276Y5445276D01*
X3267402Y5445276D01*
X3267402Y5449150D01*
G37*
G36*
G01*
X3267402Y5444425D02*
X3271276Y5444425D01*
X3271276Y5440551D01*
X3267402Y5440551D01*
X3267402Y5444425D01*
G37*
G36*
G01*
X3267402Y5435827D02*
X3267402Y5439701D01*
X3271276Y5439701D01*
X3271276Y5435827D01*
X3267402Y5435827D01*
G37*
G36*
G01*
X3267402Y5434976D02*
X3271276Y5434976D01*
X3271276Y5431102D01*
X3267402Y5431102D01*
X3267402Y5434976D01*
G37*
G36*
G01*
X3267402Y5430252D02*
X3271276Y5430252D01*
X3271276Y5426378D01*
X3267402Y5426378D01*
X3267402Y5430252D01*
G37*
G36*
G01*
X3267402Y5425528D02*
X3271276Y5425528D01*
X3271276Y5421654D01*
X3267402Y5421654D01*
X3267402Y5425528D01*
G37*
G36*
G01*
X3267402Y5420803D02*
X3271276Y5420803D01*
X3271276Y5416929D01*
X3267402Y5416929D01*
X3267402Y5420803D01*
G37*
G36*
G01*
X3262677Y5284976D02*
X3266551Y5284976D01*
X3266551Y5281102D01*
X3262677Y5281102D01*
X3262677Y5284976D01*
G37*
G36*
G01*
X3262677Y5289701D02*
X3266551Y5289701D01*
X3266551Y5285827D01*
X3262677Y5285827D01*
X3262677Y5289701D01*
G37*
G36*
G01*
X3257953Y5449150D02*
X3261827Y5449150D01*
X3261827Y5445276D01*
X3257953Y5445276D01*
X3257953Y5449150D01*
G37*
G36*
G01*
X3257953Y5434976D02*
X3261827Y5434976D01*
X3261827Y5431102D01*
X3257953Y5431102D01*
X3257953Y5434976D01*
G37*
G36*
G01*
X3257953Y5430252D02*
X3261827Y5430252D01*
X3261827Y5426378D01*
X3257953Y5426378D01*
X3257953Y5430252D01*
G37*
G36*
G01*
X3257953Y5421654D02*
X3257953Y5425528D01*
X3261827Y5425528D01*
X3261827Y5421654D01*
X3257953Y5421654D01*
G37*
G36*
G01*
X3257953Y5416929D02*
X3257953Y5420803D01*
X3261827Y5420803D01*
X3261827Y5416929D01*
X3257953Y5416929D01*
G37*
G36*
G01*
X3257953Y5290551D02*
X3257953Y5294425D01*
X3261827Y5294425D01*
X3261827Y5290551D01*
X3257953Y5290551D01*
G37*
G36*
G01*
X3253228Y5445276D02*
X3253228Y5449150D01*
X3257102Y5449150D01*
X3257102Y5445276D01*
X3253228Y5445276D01*
G37*
G36*
G01*
X3253228Y5434976D02*
X3257102Y5434976D01*
X3257102Y5431102D01*
X3253228Y5431102D01*
X3253228Y5434976D01*
G37*
G36*
G01*
X3253228Y5420803D02*
X3257102Y5420803D01*
X3257102Y5416929D01*
X3253228Y5416929D01*
X3253228Y5420803D01*
G37*
G36*
G01*
X3253228Y5299150D02*
X3257102Y5299150D01*
X3257102Y5295276D01*
X3253228Y5295276D01*
X3253228Y5299150D01*
G37*
G36*
G01*
X3253228Y5294425D02*
X3257102Y5294425D01*
X3257102Y5290551D01*
X3253228Y5290551D01*
X3253228Y5294425D01*
G37*
G36*
G01*
X3253228Y5285827D02*
X3253228Y5289701D01*
X3257102Y5289701D01*
X3257102Y5285827D01*
X3253228Y5285827D01*
G37*
G36*
G01*
X3253228Y5284976D02*
X3257102Y5284976D01*
X3257102Y5281102D01*
X3253228Y5281102D01*
X3253228Y5284976D01*
G37*
G36*
G01*
X3253228Y5280252D02*
X3257102Y5280252D01*
X3257102Y5276378D01*
X3253228Y5276378D01*
X3253228Y5280252D01*
G37*
G36*
G01*
X3253228Y5275528D02*
X3257102Y5275528D01*
X3257102Y5271654D01*
X3253228Y5271654D01*
X3253228Y5275528D01*
G37*
G36*
G01*
X3253228Y5270803D02*
X3257102Y5270803D01*
X3257102Y5266929D01*
X3253228Y5266929D01*
X3253228Y5270803D01*
G37*
G36*
G01*
X3248504Y5431102D02*
X3248504Y5434976D01*
X3252378Y5434976D01*
X3252378Y5431102D01*
X3248504Y5431102D01*
G37*
G36*
G01*
X3248504Y5449150D02*
X3252378Y5449150D01*
X3252378Y5445276D01*
X3248504Y5445276D01*
X3248504Y5449150D01*
G37*
G36*
G01*
X3248504Y5416929D02*
X3248504Y5420803D01*
X3252378Y5420803D01*
X3252378Y5416929D01*
X3248504Y5416929D01*
G37*
G36*
G01*
X3243780Y5449150D02*
X3247654Y5449150D01*
X3247654Y5445276D01*
X3243780Y5445276D01*
X3243780Y5449150D01*
G37*
G36*
G01*
X3243780Y5420803D02*
X3247654Y5420803D01*
X3247654Y5416929D01*
X3243780Y5416929D01*
X3243780Y5420803D01*
G37*
G36*
G01*
X3243780Y5294425D02*
X3247654Y5294425D01*
X3247654Y5290551D01*
X3243780Y5290551D01*
X3243780Y5294425D01*
G37*
G36*
G01*
X3243780Y5289701D02*
X3247654Y5289701D01*
X3247654Y5285827D01*
X3243780Y5285827D01*
X3243780Y5289701D01*
G37*
G36*
G01*
X3243780Y5284976D02*
X3247654Y5284976D01*
X3247654Y5281102D01*
X3243780Y5281102D01*
X3243780Y5284976D01*
G37*
G36*
G01*
X3243780Y5280252D02*
X3247654Y5280252D01*
X3247654Y5276378D01*
X3243780Y5276378D01*
X3243780Y5280252D01*
G37*
G36*
G01*
X3243780Y5275528D02*
X3247654Y5275528D01*
X3247654Y5271654D01*
X3243780Y5271654D01*
X3243780Y5275528D01*
G37*
G36*
G01*
X3243780Y5270803D02*
X3247654Y5270803D01*
X3247654Y5266929D01*
X3243780Y5266929D01*
X3243780Y5270803D01*
G37*
G36*
G01*
X3242929Y5444425D02*
X3242929Y5440551D01*
X3239055Y5440551D01*
X3239055Y5444425D01*
X3242929Y5444425D01*
G37*
G36*
G01*
X3242929Y5430252D02*
X3242929Y5426378D01*
X3239055Y5426378D01*
X3239055Y5430252D01*
X3242929Y5430252D01*
G37*
G36*
G01*
X3239055Y5439701D02*
X3242929Y5439701D01*
X3242929Y5435827D01*
X3239055Y5435827D01*
X3239055Y5439701D01*
G37*
G36*
G01*
X3239055Y5434976D02*
X3242929Y5434976D01*
X3242929Y5431102D01*
X3239055Y5431102D01*
X3239055Y5434976D01*
G37*
G36*
G01*
X3239055Y5425528D02*
X3242929Y5425528D01*
X3242929Y5421654D01*
X3239055Y5421654D01*
X3239055Y5425528D01*
G37*
G36*
G01*
X3239055Y5299150D02*
X3242929Y5299150D01*
X3242929Y5295276D01*
X3239055Y5295276D01*
X3239055Y5299150D01*
G37*
G36*
G01*
X3239055Y5284976D02*
X3242929Y5284976D01*
X3242929Y5281102D01*
X3239055Y5281102D01*
X3239055Y5284976D01*
G37*
G36*
G01*
X3234331Y5299150D02*
X3238205Y5299150D01*
X3238205Y5295276D01*
X3234331Y5295276D01*
X3234331Y5299150D01*
G37*
G36*
G01*
X3234331Y5284976D02*
X3238205Y5284976D01*
X3238205Y5281102D01*
X3234331Y5281102D01*
X3234331Y5284976D01*
G37*
G36*
G01*
X3229606Y5295276D02*
X3229606Y5299150D01*
X3233480Y5299150D01*
X3233480Y5295276D01*
X3229606Y5295276D01*
G37*
G36*
G01*
X3233480Y5281102D02*
X3229606Y5281102D01*
X3229606Y5284976D01*
X3233480Y5284976D01*
X3233480Y5281102D01*
G37*
G36*
G01*
X3229606Y5444425D02*
X3233480Y5444425D01*
X3233480Y5440551D01*
X3229606Y5440551D01*
X3229606Y5444425D01*
G37*
G36*
G01*
X3229606Y5435827D02*
X3229606Y5439701D01*
X3233480Y5439701D01*
X3233480Y5435827D01*
X3229606Y5435827D01*
G37*
G36*
G01*
X3229606Y5431102D02*
X3229606Y5434976D01*
X3233480Y5434976D01*
X3233480Y5431102D01*
X3229606Y5431102D01*
G37*
G36*
G01*
X3229606Y5425528D02*
X3233480Y5425528D01*
X3233480Y5421654D01*
X3229606Y5421654D01*
X3229606Y5425528D01*
G37*
G36*
G01*
X3233480Y5430252D02*
X3233480Y5426378D01*
X3229606Y5426378D01*
X3229606Y5430252D01*
X3233480Y5430252D01*
G37*
G36*
G01*
X3224882Y5449150D02*
X3228756Y5449150D01*
X3228756Y5445276D01*
X3224882Y5445276D01*
X3224882Y5449150D01*
G37*
G36*
G01*
X3224882Y5420803D02*
X3228756Y5420803D01*
X3228756Y5416929D01*
X3224882Y5416929D01*
X3224882Y5420803D01*
G37*
G36*
G01*
X3224882Y5294425D02*
X3228756Y5294425D01*
X3228756Y5290551D01*
X3224882Y5290551D01*
X3224882Y5294425D01*
G37*
G36*
G01*
X3224882Y5289701D02*
X3228756Y5289701D01*
X3228756Y5285827D01*
X3224882Y5285827D01*
X3224882Y5289701D01*
G37*
G36*
G01*
X3224882Y5281102D02*
X3224882Y5284976D01*
X3228756Y5284976D01*
X3228756Y5281102D01*
X3224882Y5281102D01*
G37*
G36*
G01*
X3224882Y5276378D02*
X3224882Y5280252D01*
X3228756Y5280252D01*
X3228756Y5276378D01*
X3224882Y5276378D01*
G37*
G36*
G01*
X3224882Y5275528D02*
X3228756Y5275528D01*
X3228756Y5271654D01*
X3224882Y5271654D01*
X3224882Y5275528D01*
G37*
G36*
G01*
X3224882Y5266929D02*
X3224882Y5270803D01*
X3228756Y5270803D01*
X3228756Y5266929D01*
X3224882Y5266929D01*
G37*
G36*
G01*
X3220157Y5416929D02*
X3220157Y5420803D01*
X3224031Y5420803D01*
X3224031Y5416929D01*
X3220157Y5416929D01*
G37*
G36*
G01*
X3220157Y5445276D02*
X3220157Y5449150D01*
X3224031Y5449150D01*
X3224031Y5445276D01*
X3220157Y5445276D01*
G37*
G36*
G01*
X3215433Y5449150D02*
X3219307Y5449150D01*
X3219307Y5445276D01*
X3215433Y5445276D01*
X3215433Y5449150D01*
G37*
G36*
G01*
X3215433Y5420803D02*
X3219307Y5420803D01*
X3219307Y5416929D01*
X3215433Y5416929D01*
X3215433Y5420803D01*
G37*
G36*
G01*
X3215433Y5299150D02*
X3219307Y5299150D01*
X3219307Y5295276D01*
X3215433Y5295276D01*
X3215433Y5299150D01*
G37*
G36*
G01*
X3215433Y5284976D02*
X3219307Y5284976D01*
X3219307Y5281102D01*
X3215433Y5281102D01*
X3215433Y5284976D01*
G37*
G36*
G01*
X3215433Y5280252D02*
X3219307Y5280252D01*
X3219307Y5276378D01*
X3215433Y5276378D01*
X3215433Y5280252D01*
G37*
G36*
G01*
X3215433Y5275528D02*
X3219307Y5275528D01*
X3219307Y5271654D01*
X3215433Y5271654D01*
X3215433Y5275528D01*
G37*
G36*
G01*
X3215433Y5266929D02*
X3215433Y5270803D01*
X3219307Y5270803D01*
X3219307Y5266929D01*
X3215433Y5266929D01*
G37*
G36*
G01*
X3214583Y5444425D02*
X3214583Y5440551D01*
X3210709Y5440551D01*
X3210709Y5444425D01*
X3214583Y5444425D01*
G37*
G36*
G01*
X3210709Y5439701D02*
X3214583Y5439701D01*
X3214583Y5435827D01*
X3210709Y5435827D01*
X3210709Y5439701D01*
G37*
G36*
G01*
X3210709Y5434976D02*
X3214583Y5434976D01*
X3214583Y5431102D01*
X3210709Y5431102D01*
X3210709Y5434976D01*
G37*
G36*
G01*
X3210709Y5426378D02*
X3210709Y5430252D01*
X3214583Y5430252D01*
X3214583Y5426378D01*
X3210709Y5426378D01*
G37*
G36*
G01*
X3210709Y5425528D02*
X3214583Y5425528D01*
X3214583Y5421654D01*
X3210709Y5421654D01*
X3210709Y5425528D01*
G37*
G36*
G01*
X3210709Y5299150D02*
X3214583Y5299150D01*
X3214583Y5295276D01*
X3210709Y5295276D01*
X3210709Y5299150D01*
G37*
G36*
G01*
X3210709Y5281102D02*
X3210709Y5284976D01*
X3214583Y5284976D01*
X3214583Y5281102D01*
X3210709Y5281102D01*
G37*
G36*
G01*
X3210709Y5266929D02*
X3210709Y5270803D01*
X3214583Y5270803D01*
X3214583Y5266929D01*
X3210709Y5266929D01*
G37*
G36*
G01*
X3205984Y5284976D02*
X3209858Y5284976D01*
X3209858Y5281102D01*
X3205984Y5281102D01*
X3205984Y5284976D01*
G37*
G36*
G01*
X3205984Y5299150D02*
X3209858Y5299150D01*
X3209858Y5295276D01*
X3205984Y5295276D01*
X3205984Y5299150D01*
G37*
G36*
G01*
X3205984Y5270803D02*
X3209858Y5270803D01*
X3209858Y5266929D01*
X3205984Y5266929D01*
X3205984Y5270803D01*
G37*
G36*
G01*
X3205134Y5444425D02*
X3205134Y5440551D01*
X3201260Y5440551D01*
X3201260Y5444425D01*
X3205134Y5444425D01*
G37*
G36*
G01*
X3201260Y5439701D02*
X3205134Y5439701D01*
X3205134Y5435827D01*
X3201260Y5435827D01*
X3201260Y5439701D01*
G37*
G36*
G01*
X3201260Y5420803D02*
X3205134Y5420803D01*
X3205134Y5416929D01*
X3201260Y5416929D01*
X3201260Y5420803D01*
G37*
G36*
G01*
X3201260Y5295276D02*
X3201260Y5299150D01*
X3205134Y5299150D01*
X3205134Y5295276D01*
X3201260Y5295276D01*
G37*
G36*
G01*
X3201260Y5270803D02*
X3205134Y5270803D01*
X3205134Y5266929D01*
X3201260Y5266929D01*
X3201260Y5270803D01*
G37*
G36*
G01*
X3200409Y5425528D02*
X3200409Y5421654D01*
X3196535Y5421654D01*
X3196535Y5425528D01*
X3200409Y5425528D01*
G37*
G36*
G01*
X3196535Y5449150D02*
X3200409Y5449150D01*
X3200409Y5445276D01*
X3196535Y5445276D01*
X3196535Y5449150D01*
G37*
G36*
G01*
X3196535Y5434976D02*
X3200409Y5434976D01*
X3200409Y5431102D01*
X3196535Y5431102D01*
X3196535Y5434976D01*
G37*
G36*
G01*
X3196535Y5290551D02*
X3196535Y5294425D01*
X3200409Y5294425D01*
X3200409Y5290551D01*
X3196535Y5290551D01*
G37*
G36*
G01*
X3196535Y5289701D02*
X3200409Y5289701D01*
X3200409Y5285827D01*
X3196535Y5285827D01*
X3196535Y5289701D01*
G37*
G36*
G01*
X3196535Y5284976D02*
X3200409Y5284976D01*
X3200409Y5281102D01*
X3196535Y5281102D01*
X3196535Y5284976D01*
G37*
G36*
G01*
X3196535Y5280252D02*
X3200409Y5280252D01*
X3200409Y5276378D01*
X3196535Y5276378D01*
X3196535Y5280252D01*
G37*
G36*
G01*
X3196535Y5271654D02*
X3196535Y5275528D01*
X3200409Y5275528D01*
X3200409Y5271654D01*
X3196535Y5271654D01*
G37*
G36*
G01*
X3191811Y5449150D02*
X3195685Y5449150D01*
X3195685Y5445276D01*
X3191811Y5445276D01*
X3191811Y5449150D01*
G37*
G36*
G01*
X3191811Y5434976D02*
X3195685Y5434976D01*
X3195685Y5431102D01*
X3191811Y5431102D01*
X3191811Y5434976D01*
G37*
G36*
G01*
X3191811Y5426378D02*
X3191811Y5430252D01*
X3195685Y5430252D01*
X3195685Y5426378D01*
X3191811Y5426378D01*
G37*
G36*
G01*
X3187087Y5445276D02*
X3187087Y5449150D01*
X3190961Y5449150D01*
X3190961Y5445276D01*
X3187087Y5445276D01*
G37*
G36*
G01*
X3187087Y5431102D02*
X3187087Y5434976D01*
X3190961Y5434976D01*
X3190961Y5431102D01*
X3187087Y5431102D01*
G37*
G36*
G01*
X3182362Y5420803D02*
X3186236Y5420803D01*
X3186236Y5416929D01*
X3182362Y5416929D01*
X3182362Y5420803D01*
G37*
G36*
G01*
X3182362Y5440551D02*
X3182362Y5444425D01*
X3186236Y5444425D01*
X3186236Y5440551D01*
X3182362Y5440551D01*
G37*
G36*
G01*
X3182362Y5439701D02*
X3186236Y5439701D01*
X3186236Y5435827D01*
X3182362Y5435827D01*
X3182362Y5439701D01*
G37*
G36*
G01*
X3182362Y5434976D02*
X3186236Y5434976D01*
X3186236Y5431102D01*
X3182362Y5431102D01*
X3182362Y5434976D01*
G37*
G36*
G01*
X3182362Y5430252D02*
X3186236Y5430252D01*
X3186236Y5426378D01*
X3182362Y5426378D01*
X3182362Y5430252D01*
G37*
G36*
G01*
X3182362Y5425528D02*
X3186236Y5425528D01*
X3186236Y5421654D01*
X3182362Y5421654D01*
X3182362Y5425528D01*
G37*
G36*
G01*
X3182362Y5449150D02*
X3186236Y5449150D01*
X3186236Y5445276D01*
X3182362Y5445276D01*
X3182362Y5449150D01*
G37*
G36*
G01*
X3176787Y5439701D02*
X3176787Y5435827D01*
X3172913Y5435827D01*
X3172913Y5439701D01*
X3176787Y5439701D01*
G37*
G36*
G01*
X3172913Y5444425D02*
X3176787Y5444425D01*
X3176787Y5440551D01*
X3172913Y5440551D01*
X3172913Y5444425D01*
G37*
G36*
G01*
X3168189Y5445276D02*
X3168189Y5449150D01*
X3172063Y5449150D01*
X3172063Y5445276D01*
X3168189Y5445276D01*
G37*
G36*
G01*
X3168189Y5434976D02*
X3172063Y5434976D01*
X3172063Y5431102D01*
X3168189Y5431102D01*
X3168189Y5434976D01*
G37*
G36*
G01*
X3163465Y5449150D02*
X3167339Y5449150D01*
X3167339Y5445276D01*
X3163465Y5445276D01*
X3163465Y5449150D01*
G37*
G36*
G01*
X3163465Y5434976D02*
X3167339Y5434976D01*
X3167339Y5431102D01*
X3163465Y5431102D01*
X3163465Y5434976D01*
G37*
G36*
G01*
X3158740Y5285827D02*
X3158740Y5289701D01*
X3162614Y5289701D01*
X3162614Y5285827D01*
X3158740Y5285827D01*
G37*
G36*
G01*
X3158740Y5449150D02*
X3162614Y5449150D01*
X3162614Y5445276D01*
X3158740Y5445276D01*
X3158740Y5449150D01*
G37*
G36*
G01*
X3158740Y5434976D02*
X3162614Y5434976D01*
X3162614Y5431102D01*
X3158740Y5431102D01*
X3158740Y5434976D01*
G37*
G36*
G01*
X3158740Y5290551D02*
X3158740Y5294425D01*
X3162614Y5294425D01*
X3162614Y5290551D01*
X3158740Y5290551D01*
G37*
G36*
G01*
X3162614Y5276378D02*
X3158740Y5276378D01*
X3158740Y5280252D01*
X3162614Y5280252D01*
X3162614Y5276378D01*
G37*
G36*
G01*
X3158740Y5284976D02*
X3162614Y5284976D01*
X3162614Y5281102D01*
X3158740Y5281102D01*
X3158740Y5284976D01*
G37*
G36*
G01*
X3158740Y5275528D02*
X3162614Y5275528D01*
X3162614Y5271654D01*
X3158740Y5271654D01*
X3158740Y5275528D01*
G37*
G36*
G01*
X3157890Y5449150D02*
X3157890Y5445276D01*
X3154016Y5445276D01*
X3154016Y5449150D01*
X3157890Y5449150D01*
G37*
G36*
G01*
X3157890Y5430252D02*
X3157890Y5426378D01*
X3154016Y5426378D01*
X3154016Y5430252D01*
X3157890Y5430252D01*
G37*
G36*
G01*
X3154016Y5444425D02*
X3157890Y5444425D01*
X3157890Y5440551D01*
X3154016Y5440551D01*
X3154016Y5444425D01*
G37*
G36*
G01*
X3154016Y5439701D02*
X3157890Y5439701D01*
X3157890Y5435827D01*
X3154016Y5435827D01*
X3154016Y5439701D01*
G37*
G36*
G01*
X3154016Y5434976D02*
X3157890Y5434976D01*
X3157890Y5431102D01*
X3154016Y5431102D01*
X3154016Y5434976D01*
G37*
G36*
G01*
X3154016Y5425528D02*
X3157890Y5425528D01*
X3157890Y5421654D01*
X3154016Y5421654D01*
X3154016Y5425528D01*
G37*
G36*
G01*
X3154016Y5420803D02*
X3157890Y5420803D01*
X3157890Y5416929D01*
X3154016Y5416929D01*
X3154016Y5420803D01*
G37*
G36*
G01*
X3154016Y5295276D02*
X3154016Y5299150D01*
X3157890Y5299150D01*
X3157890Y5295276D01*
X3154016Y5295276D01*
G37*
G36*
G01*
X3154016Y5270803D02*
X3157890Y5270803D01*
X3157890Y5266929D01*
X3154016Y5266929D01*
X3154016Y5270803D01*
G37*
G36*
G01*
X3149291Y5299150D02*
X3153165Y5299150D01*
X3153165Y5295276D01*
X3149291Y5295276D01*
X3149291Y5299150D01*
G37*
G36*
G01*
X3149291Y5270803D02*
X3153165Y5270803D01*
X3153165Y5266929D01*
X3149291Y5266929D01*
X3149291Y5270803D01*
G37*
G36*
G01*
X3144567Y5299150D02*
X3148441Y5299150D01*
X3148441Y5295276D01*
X3144567Y5295276D01*
X3144567Y5299150D01*
G37*
G36*
G01*
X3144567Y5266929D02*
X3144567Y5270803D01*
X3148441Y5270803D01*
X3148441Y5266929D01*
X3144567Y5266929D01*
G37*
G36*
G01*
X3139843Y5275528D02*
X3143717Y5275528D01*
X3143717Y5271654D01*
X3139843Y5271654D01*
X3139843Y5275528D01*
G37*
G36*
G01*
X3139843Y5266929D02*
X3139843Y5270803D01*
X3143717Y5270803D01*
X3143717Y5266929D01*
X3139843Y5266929D01*
G37*
G36*
G01*
X3139843Y5280252D02*
X3143717Y5280252D01*
X3143717Y5276378D01*
X3139843Y5276378D01*
X3139843Y5280252D01*
G37*
G36*
G01*
X3139843Y5284976D02*
X3143717Y5284976D01*
X3143717Y5281102D01*
X3139843Y5281102D01*
X3139843Y5284976D01*
G37*
G36*
G01*
X3139843Y5289701D02*
X3143717Y5289701D01*
X3143717Y5285827D01*
X3139843Y5285827D01*
X3139843Y5289701D01*
G37*
G36*
G01*
X3139843Y5294425D02*
X3143717Y5294425D01*
X3143717Y5290551D01*
X3139843Y5290551D01*
X3139843Y5294425D01*
G37*
G36*
G01*
X3139843Y5295276D02*
X3139843Y5299150D01*
X3143717Y5299150D01*
X3143717Y5295276D01*
X3139843Y5295276D01*
G37*
G36*
G01*
X3130394Y5266929D02*
X3130394Y5270803D01*
X3134268Y5270803D01*
X3134268Y5266929D01*
X3130394Y5266929D01*
G37*
G36*
G01*
X3130394Y5299150D02*
X3134268Y5299150D01*
X3134268Y5295276D01*
X3130394Y5295276D01*
X3130394Y5299150D01*
G37*
G36*
G01*
X3125669Y5270803D02*
X3129543Y5270803D01*
X3129543Y5266929D01*
X3125669Y5266929D01*
X3125669Y5270803D01*
G37*
G36*
G01*
X3125669Y5299150D02*
X3129543Y5299150D01*
X3129543Y5295276D01*
X3125669Y5295276D01*
X3125669Y5299150D01*
G37*
G36*
G01*
X3120945Y5299150D02*
X3124819Y5299150D01*
X3124819Y5295276D01*
X3120945Y5295276D01*
X3120945Y5299150D01*
G37*
G36*
G01*
X3124819Y5281102D02*
X3120945Y5281102D01*
X3120945Y5284976D01*
X3124819Y5284976D01*
X3124819Y5281102D01*
G37*
G36*
G01*
X3120945Y5290551D02*
X3120945Y5294425D01*
X3124819Y5294425D01*
X3124819Y5290551D01*
X3120945Y5290551D01*
G37*
G36*
G01*
X3120945Y5289701D02*
X3124819Y5289701D01*
X3124819Y5285827D01*
X3120945Y5285827D01*
X3120945Y5289701D01*
G37*
G36*
G01*
X3120945Y5276378D02*
X3120945Y5280252D01*
X3124819Y5280252D01*
X3124819Y5276378D01*
X3120945Y5276378D01*
G37*
G36*
G01*
X3120945Y5271654D02*
X3120945Y5275528D01*
X3124819Y5275528D01*
X3124819Y5271654D01*
X3120945Y5271654D01*
G37*
G36*
G01*
X3120945Y5266929D02*
X3120945Y5270803D01*
X3124819Y5270803D01*
X3124819Y5266929D01*
X3120945Y5266929D01*
G37*
G36*
G01*
X3120094Y5449150D02*
X3120094Y5445276D01*
X3116220Y5445276D01*
X3116220Y5449150D01*
X3120094Y5449150D01*
G37*
G36*
G01*
X3116220Y5444425D02*
X3120094Y5444425D01*
X3120094Y5440551D01*
X3116220Y5440551D01*
X3116220Y5444425D01*
G37*
G36*
G01*
X3116220Y5295276D02*
X3116220Y5299150D01*
X3120094Y5299150D01*
X3120094Y5295276D01*
X3116220Y5295276D01*
G37*
G36*
G01*
X3116220Y5266929D02*
X3116220Y5270803D01*
X3120094Y5270803D01*
X3120094Y5266929D01*
X3116220Y5266929D01*
G37*
G36*
G01*
X3111496Y5270803D02*
X3115370Y5270803D01*
X3115370Y5266929D01*
X3111496Y5266929D01*
X3111496Y5270803D01*
G37*
G36*
G01*
X3111496Y5299150D02*
X3115370Y5299150D01*
X3115370Y5295276D01*
X3111496Y5295276D01*
X3111496Y5299150D01*
G37*
G36*
G01*
X3111496Y5439701D02*
X3115370Y5439701D01*
X3115370Y5435827D01*
X3111496Y5435827D01*
X3111496Y5439701D01*
G37*
G36*
G01*
X3106772Y5434976D02*
X3110646Y5434976D01*
X3110646Y5431102D01*
X3106772Y5431102D01*
X3106772Y5434976D01*
G37*
G36*
G01*
X3106772Y5430252D02*
X3110646Y5430252D01*
X3110646Y5426378D01*
X3106772Y5426378D01*
X3106772Y5430252D01*
G37*
G36*
G01*
X3106772Y5425528D02*
X3110646Y5425528D01*
X3110646Y5421654D01*
X3106772Y5421654D01*
X3106772Y5425528D01*
G37*
G36*
G01*
X3106772Y5416929D02*
X3106772Y5420803D01*
X3110646Y5420803D01*
X3110646Y5416929D01*
X3106772Y5416929D01*
G37*
G36*
G01*
X3102047Y5275528D02*
X3105921Y5275528D01*
X3105921Y5271654D01*
X3102047Y5271654D01*
X3102047Y5275528D01*
G37*
G36*
G01*
X3102047Y5299150D02*
X3105921Y5299150D01*
X3105921Y5295276D01*
X3102047Y5295276D01*
X3102047Y5299150D01*
G37*
G36*
G01*
X3102047Y5290551D02*
X3102047Y5294425D01*
X3105921Y5294425D01*
X3105921Y5290551D01*
X3102047Y5290551D01*
G37*
G36*
G01*
X3102047Y5289701D02*
X3105921Y5289701D01*
X3105921Y5285827D01*
X3102047Y5285827D01*
X3102047Y5289701D01*
G37*
G36*
G01*
X3102047Y5284976D02*
X3105921Y5284976D01*
X3105921Y5281102D01*
X3102047Y5281102D01*
X3102047Y5284976D01*
G37*
G36*
G01*
X3102047Y5280252D02*
X3105921Y5280252D01*
X3105921Y5276378D01*
X3102047Y5276378D01*
X3102047Y5280252D01*
G37*
G36*
G01*
X3102047Y5439701D02*
X3105921Y5439701D01*
X3105921Y5435827D01*
X3102047Y5435827D01*
X3102047Y5439701D01*
G37*
G36*
G01*
X3102047Y5270803D02*
X3105921Y5270803D01*
X3105921Y5266929D01*
X3102047Y5266929D01*
X3102047Y5270803D01*
G37*
G36*
G01*
X3097323Y5449150D02*
X3101197Y5449150D01*
X3101197Y5445276D01*
X3097323Y5445276D01*
X3097323Y5449150D01*
G37*
G36*
G01*
X3097323Y5444425D02*
X3101197Y5444425D01*
X3101197Y5440551D01*
X3097323Y5440551D01*
X3097323Y5444425D01*
G37*
G36*
G01*
X3097323Y5284976D02*
X3101197Y5284976D01*
X3101197Y5281102D01*
X3097323Y5281102D01*
X3097323Y5284976D01*
G37*
G36*
G01*
X3092598Y5284976D02*
X3096472Y5284976D01*
X3096472Y5281102D01*
X3092598Y5281102D01*
X3092598Y5284976D01*
G37*
G36*
G01*
X3091748Y5420803D02*
X3091748Y5416929D01*
X3087874Y5416929D01*
X3087874Y5420803D01*
X3091748Y5420803D01*
G37*
G36*
G01*
X3087874Y5440551D02*
X3087874Y5444425D01*
X3091748Y5444425D01*
X3091748Y5440551D01*
X3087874Y5440551D01*
G37*
G36*
G01*
X3087874Y5439701D02*
X3091748Y5439701D01*
X3091748Y5435827D01*
X3087874Y5435827D01*
X3087874Y5439701D01*
G37*
G36*
G01*
X3087874Y5284976D02*
X3091748Y5284976D01*
X3091748Y5281102D01*
X3087874Y5281102D01*
X3087874Y5284976D01*
G37*
G36*
G01*
X3083150Y5449150D02*
X3087024Y5449150D01*
X3087024Y5445276D01*
X3083150Y5445276D01*
X3083150Y5449150D01*
G37*
G36*
G01*
X3083150Y5434976D02*
X3087024Y5434976D01*
X3087024Y5431102D01*
X3083150Y5431102D01*
X3083150Y5434976D01*
G37*
G36*
G01*
X3083150Y5425528D02*
X3087024Y5425528D01*
X3087024Y5421654D01*
X3083150Y5421654D01*
X3083150Y5425528D01*
G37*
G36*
G01*
X3083150Y5275528D02*
X3087024Y5275528D01*
X3087024Y5271654D01*
X3083150Y5271654D01*
X3083150Y5275528D01*
G37*
G36*
G01*
X3083150Y5294425D02*
X3087024Y5294425D01*
X3087024Y5290551D01*
X3083150Y5290551D01*
X3083150Y5294425D01*
G37*
G36*
G01*
X3083150Y5285827D02*
X3083150Y5289701D01*
X3087024Y5289701D01*
X3087024Y5285827D01*
X3083150Y5285827D01*
G37*
G36*
G01*
X3083150Y5284976D02*
X3087024Y5284976D01*
X3087024Y5281102D01*
X3083150Y5281102D01*
X3083150Y5284976D01*
G37*
G36*
G01*
X3083150Y5276378D02*
X3083150Y5280252D01*
X3087024Y5280252D01*
X3087024Y5276378D01*
X3083150Y5276378D01*
G37*
G36*
G01*
X3083150Y5299150D02*
X3087024Y5299150D01*
X3087024Y5295276D01*
X3083150Y5295276D01*
X3083150Y5299150D01*
G37*
G36*
G01*
X3083150Y5270803D02*
X3087024Y5270803D01*
X3087024Y5266929D01*
X3083150Y5266929D01*
X3083150Y5270803D01*
G37*
G36*
G01*
X3082299Y5449150D02*
X3082299Y5445276D01*
X3078425Y5445276D01*
X3078425Y5449150D01*
X3082299Y5449150D01*
G37*
G36*
G01*
X3078425Y5434976D02*
X3082299Y5434976D01*
X3082299Y5431102D01*
X3078425Y5431102D01*
X3078425Y5434976D01*
G37*
G36*
G01*
X3078425Y5430252D02*
X3082299Y5430252D01*
X3082299Y5426378D01*
X3078425Y5426378D01*
X3078425Y5430252D01*
G37*
G36*
G01*
X3073701Y5449150D02*
X3077575Y5449150D01*
X3077575Y5445276D01*
X3073701Y5445276D01*
X3073701Y5449150D01*
G37*
G36*
G01*
X3073701Y5431102D02*
X3073701Y5434976D01*
X3077575Y5434976D01*
X3077575Y5431102D01*
X3073701Y5431102D01*
G37*
G36*
G01*
X3068976Y5444425D02*
X3072850Y5444425D01*
X3072850Y5440551D01*
X3068976Y5440551D01*
X3068976Y5444425D01*
G37*
G36*
G01*
X3068976Y5449150D02*
X3072850Y5449150D01*
X3072850Y5445276D01*
X3068976Y5445276D01*
X3068976Y5449150D01*
G37*
G36*
G01*
X3072850Y5434976D02*
X3072850Y5431102D01*
X3068976Y5431102D01*
X3068976Y5434976D01*
X3072850Y5434976D01*
G37*
G36*
G01*
X3068976Y5439701D02*
X3072850Y5439701D01*
X3072850Y5435827D01*
X3068976Y5435827D01*
X3068976Y5439701D01*
G37*
G36*
G01*
X3068976Y5426378D02*
X3068976Y5430252D01*
X3072850Y5430252D01*
X3072850Y5426378D01*
X3068976Y5426378D01*
G37*
G36*
G01*
X3068976Y5425528D02*
X3072850Y5425528D01*
X3072850Y5421654D01*
X3068976Y5421654D01*
X3068976Y5425528D01*
G37*
G36*
G01*
X3068976Y5420803D02*
X3072850Y5420803D01*
X3072850Y5416929D01*
X3068976Y5416929D01*
X3068976Y5420803D01*
G37*
G36*
G01*
X3059528Y5444425D02*
X3063402Y5444425D01*
X3063402Y5440551D01*
X3059528Y5440551D01*
X3059528Y5444425D01*
G37*
G36*
G01*
X3059528Y5435827D02*
X3059528Y5439701D01*
X3063402Y5439701D01*
X3063402Y5435827D01*
X3059528Y5435827D01*
G37*
G36*
G01*
X3059528Y5434976D02*
X3063402Y5434976D01*
X3063402Y5431102D01*
X3059528Y5431102D01*
X3059528Y5434976D01*
G37*
G36*
G01*
X3059528Y5430252D02*
X3063402Y5430252D01*
X3063402Y5426378D01*
X3059528Y5426378D01*
X3059528Y5430252D01*
G37*
G36*
G01*
X3059528Y5421654D02*
X3059528Y5425528D01*
X3063402Y5425528D01*
X3063402Y5421654D01*
X3059528Y5421654D01*
G37*
G36*
G01*
X3058677Y5449150D02*
X3058677Y5445276D01*
X3054803Y5445276D01*
X3054803Y5449150D01*
X3058677Y5449150D01*
G37*
G36*
G01*
X3058677Y5420803D02*
X3058677Y5416929D01*
X3054803Y5416929D01*
X3054803Y5420803D01*
X3058677Y5420803D01*
G37*
G36*
G01*
X3050079Y5445276D02*
X3050079Y5449150D01*
X3053953Y5449150D01*
X3053953Y5445276D01*
X3050079Y5445276D01*
G37*
G36*
G01*
X3050079Y5420803D02*
X3053953Y5420803D01*
X3053953Y5416929D01*
X3050079Y5416929D01*
X3050079Y5420803D01*
G37*
G36*
G01*
X3045354Y5289701D02*
X3049228Y5289701D01*
X3049228Y5285827D01*
X3045354Y5285827D01*
X3045354Y5289701D01*
G37*
G36*
G01*
X3045354Y5294425D02*
X3049228Y5294425D01*
X3049228Y5290551D01*
X3045354Y5290551D01*
X3045354Y5294425D01*
G37*
G36*
G01*
X3045354Y5280252D02*
X3049228Y5280252D01*
X3049228Y5276378D01*
X3045354Y5276378D01*
X3045354Y5280252D01*
G37*
G36*
G01*
X3045354Y5275528D02*
X3049228Y5275528D01*
X3049228Y5271654D01*
X3045354Y5271654D01*
X3045354Y5275528D01*
G37*
G36*
G01*
X3045354Y5449150D02*
X3049228Y5449150D01*
X3049228Y5445276D01*
X3045354Y5445276D01*
X3045354Y5449150D01*
G37*
G36*
G01*
X3045354Y5420803D02*
X3049228Y5420803D01*
X3049228Y5416929D01*
X3045354Y5416929D01*
X3045354Y5420803D01*
G37*
G36*
G01*
X3040630Y5299150D02*
X3044504Y5299150D01*
X3044504Y5295276D01*
X3040630Y5295276D01*
X3040630Y5299150D01*
G37*
G36*
G01*
X3040630Y5284976D02*
X3044504Y5284976D01*
X3044504Y5281102D01*
X3040630Y5281102D01*
X3040630Y5284976D01*
G37*
G36*
G01*
X3040630Y5270803D02*
X3044504Y5270803D01*
X3044504Y5266929D01*
X3040630Y5266929D01*
X3040630Y5270803D01*
G37*
G36*
G01*
X3040630Y5444425D02*
X3044504Y5444425D01*
X3044504Y5440551D01*
X3040630Y5440551D01*
X3040630Y5444425D01*
G37*
G36*
G01*
X3040630Y5439701D02*
X3044504Y5439701D01*
X3044504Y5435827D01*
X3040630Y5435827D01*
X3040630Y5439701D01*
G37*
G36*
G01*
X3040630Y5431102D02*
X3040630Y5434976D01*
X3044504Y5434976D01*
X3044504Y5431102D01*
X3040630Y5431102D01*
G37*
G36*
G01*
X3040630Y5430252D02*
X3044504Y5430252D01*
X3044504Y5426378D01*
X3040630Y5426378D01*
X3040630Y5430252D01*
G37*
G36*
G01*
X3040630Y5425528D02*
X3044504Y5425528D01*
X3044504Y5421654D01*
X3040630Y5421654D01*
X3040630Y5425528D01*
G37*
G36*
G01*
X3035906Y5281102D02*
X3035906Y5284976D01*
X3039780Y5284976D01*
X3039780Y5281102D01*
X3035906Y5281102D01*
G37*
G36*
G01*
X3035906Y5295276D02*
X3035906Y5299150D01*
X3039780Y5299150D01*
X3039780Y5295276D01*
X3035906Y5295276D01*
G37*
G36*
G01*
X3035906Y5266929D02*
X3035906Y5270803D01*
X3039780Y5270803D01*
X3039780Y5266929D01*
X3035906Y5266929D01*
G37*
G36*
G01*
X3031181Y5449150D02*
X3035055Y5449150D01*
X3035055Y5445276D01*
X3031181Y5445276D01*
X3031181Y5449150D01*
G37*
G36*
G01*
X3031181Y5295276D02*
X3031181Y5299150D01*
X3035055Y5299150D01*
X3035055Y5295276D01*
X3031181Y5295276D01*
G37*
G36*
G01*
X3031181Y5284976D02*
X3035055Y5284976D01*
X3035055Y5281102D01*
X3031181Y5281102D01*
X3031181Y5284976D01*
G37*
G36*
G01*
X3031181Y5270803D02*
X3035055Y5270803D01*
X3035055Y5266929D01*
X3031181Y5266929D01*
X3031181Y5270803D01*
G37*
G36*
G01*
X3030331Y5266929D02*
X3026457Y5266929D01*
X3026457Y5270803D01*
X3030331Y5270803D01*
X3030331Y5266929D01*
G37*
G36*
G01*
X3026457Y5449150D02*
X3030331Y5449150D01*
X3030331Y5445276D01*
X3026457Y5445276D01*
X3026457Y5449150D01*
G37*
G36*
G01*
X3026457Y5299150D02*
X3030331Y5299150D01*
X3030331Y5295276D01*
X3026457Y5295276D01*
X3026457Y5299150D01*
G37*
G36*
G01*
X3026457Y5294425D02*
X3030331Y5294425D01*
X3030331Y5290551D01*
X3026457Y5290551D01*
X3026457Y5294425D01*
G37*
G36*
G01*
X3026457Y5285827D02*
X3026457Y5289701D01*
X3030331Y5289701D01*
X3030331Y5285827D01*
X3026457Y5285827D01*
G37*
G36*
G01*
X3026457Y5284976D02*
X3030331Y5284976D01*
X3030331Y5281102D01*
X3026457Y5281102D01*
X3026457Y5284976D01*
G37*
G36*
G01*
X3026457Y5280252D02*
X3030331Y5280252D01*
X3030331Y5276378D01*
X3026457Y5276378D01*
X3026457Y5280252D01*
G37*
G36*
G01*
X3026457Y5275528D02*
X3030331Y5275528D01*
X3030331Y5271654D01*
X3026457Y5271654D01*
X3026457Y5275528D01*
G37*
G36*
G01*
X3021732Y5439701D02*
X3025606Y5439701D01*
X3025606Y5435827D01*
X3021732Y5435827D01*
X3021732Y5439701D01*
G37*
G36*
G01*
X3021732Y5449150D02*
X3025606Y5449150D01*
X3025606Y5445276D01*
X3021732Y5445276D01*
X3021732Y5449150D01*
G37*
G36*
G01*
X3021732Y5444425D02*
X3025606Y5444425D01*
X3025606Y5440551D01*
X3021732Y5440551D01*
X3021732Y5444425D01*
G37*
G36*
G01*
X3025606Y5434976D02*
X3025606Y5431102D01*
X3021732Y5431102D01*
X3021732Y5434976D01*
X3025606Y5434976D01*
G37*
G36*
G01*
X3021732Y5430252D02*
X3025606Y5430252D01*
X3025606Y5426378D01*
X3021732Y5426378D01*
X3021732Y5430252D01*
G37*
G36*
G01*
X3021732Y5425528D02*
X3025606Y5425528D01*
X3025606Y5421654D01*
X3021732Y5421654D01*
X3021732Y5425528D01*
G37*
G36*
G01*
X3021732Y5420803D02*
X3025606Y5420803D01*
X3025606Y5416929D01*
X3021732Y5416929D01*
X3021732Y5420803D01*
G37*
G36*
G01*
X3017008Y5445276D02*
X3017008Y5449150D01*
X3020882Y5449150D01*
X3020882Y5445276D01*
X3017008Y5445276D01*
G37*
G36*
G01*
X3017008Y5295276D02*
X3017008Y5299150D01*
X3020882Y5299150D01*
X3020882Y5295276D01*
X3017008Y5295276D01*
G37*
G36*
G01*
X3017008Y5276378D02*
X3017008Y5280252D01*
X3020882Y5280252D01*
X3020882Y5276378D01*
X3017008Y5276378D01*
G37*
G36*
G01*
X3017008Y5271654D02*
X3017008Y5275528D01*
X3020882Y5275528D01*
X3020882Y5271654D01*
X3017008Y5271654D01*
G37*
G36*
G01*
X3012283Y5284976D02*
X3016157Y5284976D01*
X3016157Y5281102D01*
X3012283Y5281102D01*
X3012283Y5284976D01*
G37*
G36*
G01*
X3012283Y5299150D02*
X3016157Y5299150D01*
X3016157Y5295276D01*
X3012283Y5295276D01*
X3012283Y5299150D01*
G37*
G36*
G01*
X3012283Y5449150D02*
X3016157Y5449150D01*
X3016157Y5445276D01*
X3012283Y5445276D01*
X3012283Y5449150D01*
G37*
G36*
G01*
X3012283Y5270803D02*
X3016157Y5270803D01*
X3016157Y5266929D01*
X3012283Y5266929D01*
X3012283Y5270803D01*
G37*
G36*
G01*
X3007559Y5299150D02*
X3011433Y5299150D01*
X3011433Y5295276D01*
X3007559Y5295276D01*
X3007559Y5299150D01*
G37*
G36*
G01*
X3007559Y5284976D02*
X3011433Y5284976D01*
X3011433Y5281102D01*
X3007559Y5281102D01*
X3007559Y5284976D01*
G37*
G36*
G01*
X3007559Y5270803D02*
X3011433Y5270803D01*
X3011433Y5266929D01*
X3007559Y5266929D01*
X3007559Y5270803D01*
G37*
G36*
G01*
X3002835Y5445276D02*
X3002835Y5449150D01*
X3006709Y5449150D01*
X3006709Y5445276D01*
X3002835Y5445276D01*
G37*
G36*
G01*
X3002835Y5420803D02*
X3006709Y5420803D01*
X3006709Y5416929D01*
X3002835Y5416929D01*
X3002835Y5420803D01*
G37*
G36*
G01*
X3002835Y5299150D02*
X3006709Y5299150D01*
X3006709Y5295276D01*
X3002835Y5295276D01*
X3002835Y5299150D01*
G37*
G36*
G01*
X3002835Y5281102D02*
X3002835Y5284976D01*
X3006709Y5284976D01*
X3006709Y5281102D01*
X3002835Y5281102D01*
G37*
G36*
G01*
X3002835Y5266929D02*
X3002835Y5270803D01*
X3006709Y5270803D01*
X3006709Y5266929D01*
X3002835Y5266929D01*
G37*
G36*
G01*
X2998110Y5449150D02*
X3001984Y5449150D01*
X3001984Y5445276D01*
X2998110Y5445276D01*
X2998110Y5449150D01*
G37*
G36*
G01*
X2998110Y5416929D02*
X2998110Y5420803D01*
X3001984Y5420803D01*
X3001984Y5416929D01*
X2998110Y5416929D01*
G37*
G36*
G01*
X2998110Y5285827D02*
X2998110Y5289701D01*
X3001984Y5289701D01*
X3001984Y5285827D01*
X2998110Y5285827D01*
G37*
G36*
G01*
X2998110Y5294425D02*
X3001984Y5294425D01*
X3001984Y5290551D01*
X2998110Y5290551D01*
X2998110Y5294425D01*
G37*
G36*
G01*
X2998110Y5270803D02*
X3001984Y5270803D01*
X3001984Y5266929D01*
X2998110Y5266929D01*
X2998110Y5270803D01*
G37*
G36*
G01*
X2993386Y5449150D02*
X2997260Y5449150D01*
X2997260Y5445276D01*
X2993386Y5445276D01*
X2993386Y5449150D01*
G37*
G36*
G01*
X2993386Y5420803D02*
X2997260Y5420803D01*
X2997260Y5416929D01*
X2993386Y5416929D01*
X2993386Y5420803D01*
G37*
G36*
G01*
X2988661Y5449150D02*
X2992535Y5449150D01*
X2992535Y5445276D01*
X2988661Y5445276D01*
X2988661Y5449150D01*
G37*
G36*
G01*
X2988661Y5420803D02*
X2992535Y5420803D01*
X2992535Y5416929D01*
X2988661Y5416929D01*
X2988661Y5420803D01*
G37*
G36*
G01*
X2988661Y5299150D02*
X2992535Y5299150D01*
X2992535Y5295276D01*
X2988661Y5295276D01*
X2988661Y5299150D01*
G37*
G36*
G01*
X2988661Y5294425D02*
X2992535Y5294425D01*
X2992535Y5290551D01*
X2988661Y5290551D01*
X2988661Y5294425D01*
G37*
G36*
G01*
X2988661Y5289701D02*
X2992535Y5289701D01*
X2992535Y5285827D01*
X2988661Y5285827D01*
X2988661Y5289701D01*
G37*
G36*
G01*
X2988661Y5284976D02*
X2992535Y5284976D01*
X2992535Y5281102D01*
X2988661Y5281102D01*
X2988661Y5284976D01*
G37*
G36*
G01*
X2988661Y5280252D02*
X2992535Y5280252D01*
X2992535Y5276378D01*
X2988661Y5276378D01*
X2988661Y5280252D01*
G37*
G36*
G01*
X2988661Y5271654D02*
X2988661Y5275528D01*
X2992535Y5275528D01*
X2992535Y5271654D01*
X2988661Y5271654D01*
G37*
G36*
G01*
X2983937Y5439701D02*
X2987811Y5439701D01*
X2987811Y5435827D01*
X2983937Y5435827D01*
X2983937Y5439701D01*
G37*
G36*
G01*
X2987811Y5444425D02*
X2987811Y5440551D01*
X2983937Y5440551D01*
X2983937Y5444425D01*
X2987811Y5444425D01*
G37*
G36*
G01*
X2983937Y5431102D02*
X2983937Y5434976D01*
X2987811Y5434976D01*
X2987811Y5431102D01*
X2983937Y5431102D01*
G37*
G36*
G01*
X2983937Y5426378D02*
X2983937Y5430252D01*
X2987811Y5430252D01*
X2987811Y5426378D01*
X2983937Y5426378D01*
G37*
G36*
G01*
X2983937Y5425528D02*
X2987811Y5425528D01*
X2987811Y5421654D01*
X2983937Y5421654D01*
X2983937Y5425528D01*
G37*
G36*
G01*
X2983937Y5266929D02*
X2983937Y5270803D01*
X2987811Y5270803D01*
X2987811Y5266929D01*
X2983937Y5266929D01*
G37*
G36*
G01*
X2979213Y5270803D02*
X2983087Y5270803D01*
X2983087Y5266929D01*
X2979213Y5266929D01*
X2979213Y5270803D01*
G37*
G36*
G01*
X2974488Y5444425D02*
X2978362Y5444425D01*
X2978362Y5440551D01*
X2974488Y5440551D01*
X2974488Y5444425D01*
G37*
G36*
G01*
X2974488Y5435827D02*
X2974488Y5439701D01*
X2978362Y5439701D01*
X2978362Y5435827D01*
X2974488Y5435827D01*
G37*
G36*
G01*
X2974488Y5434976D02*
X2978362Y5434976D01*
X2978362Y5431102D01*
X2974488Y5431102D01*
X2974488Y5434976D01*
G37*
G36*
G01*
X2974488Y5430252D02*
X2978362Y5430252D01*
X2978362Y5426378D01*
X2974488Y5426378D01*
X2974488Y5430252D01*
G37*
G36*
G01*
X2974488Y5425528D02*
X2978362Y5425528D01*
X2978362Y5421654D01*
X2974488Y5421654D01*
X2974488Y5425528D01*
G37*
G36*
G01*
X2974488Y5420803D02*
X2978362Y5420803D01*
X2978362Y5416929D01*
X2974488Y5416929D01*
X2974488Y5420803D01*
G37*
G36*
G01*
X2974488Y5270803D02*
X2978362Y5270803D01*
X2978362Y5266929D01*
X2974488Y5266929D01*
X2974488Y5270803D01*
G37*
G36*
G01*
X2969764Y5290551D02*
X2969764Y5294425D01*
X2973638Y5294425D01*
X2973638Y5290551D01*
X2969764Y5290551D01*
G37*
G36*
G01*
X2969764Y5295276D02*
X2969764Y5299150D01*
X2973638Y5299150D01*
X2973638Y5295276D01*
X2969764Y5295276D01*
G37*
G36*
G01*
X2973638Y5434976D02*
X2973638Y5431102D01*
X2969764Y5431102D01*
X2969764Y5434976D01*
X2973638Y5434976D01*
G37*
G36*
G01*
X2969764Y5289701D02*
X2973638Y5289701D01*
X2973638Y5285827D01*
X2969764Y5285827D01*
X2969764Y5289701D01*
G37*
G36*
G01*
X2969764Y5284976D02*
X2973638Y5284976D01*
X2973638Y5281102D01*
X2969764Y5281102D01*
X2969764Y5284976D01*
G37*
G36*
G01*
X2969764Y5280252D02*
X2973638Y5280252D01*
X2973638Y5276378D01*
X2969764Y5276378D01*
X2969764Y5280252D01*
G37*
G36*
G01*
X2969764Y5275528D02*
X2973638Y5275528D01*
X2973638Y5271654D01*
X2969764Y5271654D01*
X2969764Y5275528D01*
G37*
G36*
G01*
X2969764Y5449150D02*
X2973638Y5449150D01*
X2973638Y5445276D01*
X2969764Y5445276D01*
X2969764Y5449150D01*
G37*
G36*
G01*
X2965039Y5445276D02*
X2965039Y5449150D01*
X2968913Y5449150D01*
X2968913Y5445276D01*
X2965039Y5445276D01*
G37*
G36*
G01*
X2965039Y5434976D02*
X2968913Y5434976D01*
X2968913Y5431102D01*
X2965039Y5431102D01*
X2965039Y5434976D01*
G37*
G36*
G01*
X2960315Y5449150D02*
X2964189Y5449150D01*
X2964189Y5445276D01*
X2960315Y5445276D01*
X2960315Y5449150D01*
G37*
G36*
G01*
X2960315Y5434976D02*
X2964189Y5434976D01*
X2964189Y5431102D01*
X2960315Y5431102D01*
X2960315Y5434976D01*
G37*
G36*
G01*
X2953150Y5937921D02*
X2961543Y5937921D01*
X2961543Y5929528D01*
X2953150Y5929528D01*
X2953150Y5937921D01*
G37*
G36*
G01*
X2953150Y5888583D02*
X2953150Y5896976D01*
X2961543Y5896976D01*
X2961543Y5888583D01*
X2953150Y5888583D01*
G37*
G36*
G01*
X2953150Y5907213D02*
X2961543Y5907213D01*
X2961543Y5898819D01*
X2953150Y5898819D01*
X2953150Y5907213D01*
G37*
G36*
G01*
X2953150Y5927685D02*
X2961543Y5927685D01*
X2961543Y5919291D01*
X2953150Y5919291D01*
X2953150Y5927685D01*
G37*
G36*
G01*
X2955591Y5434976D02*
X2959465Y5434976D01*
X2959465Y5431102D01*
X2955591Y5431102D01*
X2955591Y5434976D01*
G37*
G36*
G01*
X2955591Y5420803D02*
X2959465Y5420803D01*
X2959465Y5416929D01*
X2955591Y5416929D01*
X2955591Y5420803D01*
G37*
G36*
G01*
X2955591Y5425528D02*
X2959465Y5425528D01*
X2959465Y5421654D01*
X2955591Y5421654D01*
X2955591Y5425528D01*
G37*
G36*
G01*
X2955591Y5430252D02*
X2959465Y5430252D01*
X2959465Y5426378D01*
X2955591Y5426378D01*
X2955591Y5430252D01*
G37*
G36*
G01*
X2955591Y5435827D02*
X2955591Y5439701D01*
X2959465Y5439701D01*
X2959465Y5435827D01*
X2955591Y5435827D01*
G37*
G36*
G01*
X2955591Y5444425D02*
X2959465Y5444425D01*
X2959465Y5440551D01*
X2955591Y5440551D01*
X2955591Y5444425D01*
G37*
G36*
G01*
X2942913Y5939764D02*
X2942913Y5948157D01*
X2951307Y5948157D01*
X2951307Y5939764D01*
X2942913Y5939764D01*
G37*
G36*
G01*
X2942913Y5917449D02*
X2951307Y5917449D01*
X2951307Y5909055D01*
X2942913Y5909055D01*
X2942913Y5917449D01*
G37*
G36*
G01*
X2942913Y5886740D02*
X2951307Y5886740D01*
X2951307Y5878346D01*
X2942913Y5878346D01*
X2942913Y5886740D01*
G37*
G36*
G01*
X2946142Y5449150D02*
X2950016Y5449150D01*
X2950016Y5445276D01*
X2946142Y5445276D01*
X2946142Y5449150D01*
G37*
G36*
G01*
X2945291Y5434976D02*
X2945291Y5431102D01*
X2941417Y5431102D01*
X2941417Y5434976D01*
X2945291Y5434976D01*
G37*
G36*
G01*
X2941417Y5449150D02*
X2945291Y5449150D01*
X2945291Y5445276D01*
X2941417Y5445276D01*
X2941417Y5449150D01*
G37*
G36*
G01*
X2932677Y5917449D02*
X2941071Y5917449D01*
X2941071Y5909055D01*
X2932677Y5909055D01*
X2932677Y5917449D01*
G37*
G36*
G01*
X2932677Y5886740D02*
X2941071Y5886740D01*
X2941071Y5878346D01*
X2932677Y5878346D01*
X2932677Y5886740D01*
G37*
G36*
G01*
X2932677Y5939764D02*
X2932677Y5948157D01*
X2941071Y5948157D01*
X2941071Y5939764D01*
X2932677Y5939764D01*
G37*
G36*
G01*
X2936693Y5434976D02*
X2940567Y5434976D01*
X2940567Y5431102D01*
X2936693Y5431102D01*
X2936693Y5434976D01*
G37*
G36*
G01*
X2936693Y5449150D02*
X2940567Y5449150D01*
X2940567Y5445276D01*
X2936693Y5445276D01*
X2936693Y5449150D01*
G37*
G36*
G01*
X2931969Y5449150D02*
X2935843Y5449150D01*
X2935843Y5445276D01*
X2931969Y5445276D01*
X2931969Y5449150D01*
G37*
G36*
G01*
X2931969Y5434976D02*
X2935843Y5434976D01*
X2935843Y5431102D01*
X2931969Y5431102D01*
X2931969Y5434976D01*
G37*
G36*
G01*
X2931118Y5449150D02*
X2931118Y5445276D01*
X2927244Y5445276D01*
X2927244Y5449150D01*
X2931118Y5449150D01*
G37*
G36*
G01*
X2927244Y5444425D02*
X2931118Y5444425D01*
X2931118Y5440551D01*
X2927244Y5440551D01*
X2927244Y5444425D01*
G37*
G36*
G01*
X2927244Y5435827D02*
X2927244Y5439701D01*
X2931118Y5439701D01*
X2931118Y5435827D01*
X2927244Y5435827D01*
G37*
G36*
G01*
X2927244Y5434976D02*
X2931118Y5434976D01*
X2931118Y5431102D01*
X2927244Y5431102D01*
X2927244Y5434976D01*
G37*
G36*
G01*
X2927244Y5430252D02*
X2931118Y5430252D01*
X2931118Y5426378D01*
X2927244Y5426378D01*
X2927244Y5430252D01*
G37*
G36*
G01*
X2927244Y5425528D02*
X2931118Y5425528D01*
X2931118Y5421654D01*
X2927244Y5421654D01*
X2927244Y5425528D01*
G37*
G36*
G01*
X2927244Y5416929D02*
X2927244Y5420803D01*
X2931118Y5420803D01*
X2931118Y5416929D01*
X2927244Y5416929D01*
G37*
G36*
G01*
X2922441Y5948157D02*
X2930835Y5948157D01*
X2930835Y5939764D01*
X2922441Y5939764D01*
X2922441Y5948157D01*
G37*
G36*
G01*
X2922441Y5917449D02*
X2930835Y5917449D01*
X2930835Y5909055D01*
X2922441Y5909055D01*
X2922441Y5917449D01*
G37*
G36*
G01*
X2922441Y5886740D02*
X2930835Y5886740D01*
X2930835Y5878346D01*
X2922441Y5878346D01*
X2922441Y5886740D01*
G37*
G36*
G01*
X2920598Y5878346D02*
X2912205Y5878346D01*
X2912205Y5886740D01*
X2920598Y5886740D01*
X2920598Y5878346D01*
G37*
G36*
G01*
X2912205Y5948157D02*
X2920598Y5948157D01*
X2920598Y5939764D01*
X2912205Y5939764D01*
X2912205Y5948157D01*
G37*
G36*
G01*
X2912205Y5937921D02*
X2920598Y5937921D01*
X2920598Y5929528D01*
X2912205Y5929528D01*
X2912205Y5937921D01*
G37*
G36*
G01*
X2912205Y5927685D02*
X2920598Y5927685D01*
X2920598Y5919291D01*
X2912205Y5919291D01*
X2912205Y5927685D01*
G37*
G36*
G01*
X2912205Y5909055D02*
X2912205Y5917449D01*
X2920598Y5917449D01*
X2920598Y5909055D01*
X2912205Y5909055D01*
G37*
G36*
G01*
X2912205Y5898819D02*
X2912205Y5907213D01*
X2920598Y5907213D01*
X2920598Y5898819D01*
X2912205Y5898819D01*
G37*
G36*
G01*
X2912205Y5888583D02*
X2912205Y5896976D01*
X2920598Y5896976D01*
X2920598Y5888583D01*
X2912205Y5888583D01*
G37*
G36*
G01*
X2900126Y5898819D02*
X2891732Y5898819D01*
X2891732Y5907213D01*
X2900126Y5907213D01*
X2900126Y5898819D01*
G37*
G36*
G01*
X2891732Y5948157D02*
X2900126Y5948157D01*
X2900126Y5939764D01*
X2891732Y5939764D01*
X2891732Y5948157D01*
G37*
G36*
G01*
X2891732Y5896976D02*
X2900126Y5896976D01*
X2900126Y5888583D01*
X2891732Y5888583D01*
X2891732Y5896976D01*
G37*
G36*
G01*
X2889890Y5909055D02*
X2881496Y5909055D01*
X2881496Y5917449D01*
X2889890Y5917449D01*
X2889890Y5909055D01*
G37*
G36*
G01*
X2881496Y5948157D02*
X2889890Y5948157D01*
X2889890Y5939764D01*
X2881496Y5939764D01*
X2881496Y5948157D01*
G37*
G36*
G01*
X2881496Y5878346D02*
X2881496Y5886740D01*
X2889890Y5886740D01*
X2889890Y5878346D01*
X2881496Y5878346D01*
G37*
G36*
G01*
X2871260Y5886740D02*
X2879654Y5886740D01*
X2879654Y5878346D01*
X2871260Y5878346D01*
X2871260Y5886740D01*
G37*
G36*
G01*
X2871260Y5909055D02*
X2871260Y5917449D01*
X2879654Y5917449D01*
X2879654Y5909055D01*
X2871260Y5909055D01*
G37*
G36*
G01*
X2871260Y5948157D02*
X2879654Y5948157D01*
X2879654Y5939764D01*
X2871260Y5939764D01*
X2871260Y5948157D01*
G37*
G36*
G01*
X2861024Y5948157D02*
X2869417Y5948157D01*
X2869417Y5939764D01*
X2861024Y5939764D01*
X2861024Y5948157D01*
G37*
G36*
G01*
X2861024Y5909055D02*
X2861024Y5917449D01*
X2869417Y5917449D01*
X2869417Y5909055D01*
X2861024Y5909055D01*
G37*
G36*
G01*
X2861024Y5878346D02*
X2861024Y5886740D01*
X2869417Y5886740D01*
X2869417Y5878346D01*
X2861024Y5878346D01*
G37*
G36*
G01*
X2859181Y5929528D02*
X2850787Y5929528D01*
X2850787Y5937921D01*
X2859181Y5937921D01*
X2859181Y5929528D01*
G37*
G36*
G01*
X2850787Y5919291D02*
X2850787Y5927685D01*
X2859181Y5927685D01*
X2859181Y5919291D01*
X2850787Y5919291D01*
G37*
G36*
G01*
X2850787Y5886740D02*
X2859181Y5886740D01*
X2859181Y5878346D01*
X2850787Y5878346D01*
X2850787Y5886740D01*
G37*
G36*
G01*
X2838709Y5898819D02*
X2830315Y5898819D01*
X2830315Y5907213D01*
X2838709Y5907213D01*
X2838709Y5898819D01*
G37*
G36*
G01*
X2830315Y5939764D02*
X2830315Y5948157D01*
X2838709Y5948157D01*
X2838709Y5939764D01*
X2830315Y5939764D01*
G37*
G36*
G01*
X2830315Y5937921D02*
X2838709Y5937921D01*
X2838709Y5929528D01*
X2830315Y5929528D01*
X2830315Y5937921D01*
G37*
G36*
G01*
X2830315Y5919291D02*
X2830315Y5927685D01*
X2838709Y5927685D01*
X2838709Y5919291D01*
X2830315Y5919291D01*
G37*
G36*
G01*
X2830315Y5909055D02*
X2830315Y5917449D01*
X2838709Y5917449D01*
X2838709Y5909055D01*
X2830315Y5909055D01*
G37*
G36*
G01*
X2830315Y5896976D02*
X2838709Y5896976D01*
X2838709Y5888583D01*
X2830315Y5888583D01*
X2830315Y5896976D01*
G37*
G36*
G01*
X2820079Y5886740D02*
X2828472Y5886740D01*
X2828472Y5878346D01*
X2820079Y5878346D01*
X2820079Y5886740D01*
G37*
G36*
G01*
X2809843Y5878346D02*
X2809843Y5886740D01*
X2818236Y5886740D01*
X2818236Y5878346D01*
X2809843Y5878346D01*
G37*
G36*
G01*
X2808000Y5878346D02*
X2799606Y5878346D01*
X2799606Y5886740D01*
X2808000Y5886740D01*
X2808000Y5878346D01*
G37*
G36*
G01*
X2789370Y5888583D02*
X2789370Y5896976D01*
X2797764Y5896976D01*
X2797764Y5888583D01*
X2789370Y5888583D01*
G37*
G36*
G01*
X2789370Y5939764D02*
X2789370Y5948157D01*
X2797764Y5948157D01*
X2797764Y5939764D01*
X2789370Y5939764D01*
G37*
G36*
G01*
X2789370Y5927685D02*
X2797764Y5927685D01*
X2797764Y5919291D01*
X2789370Y5919291D01*
X2789370Y5927685D01*
G37*
G36*
G01*
X2789370Y5917449D02*
X2797764Y5917449D01*
X2797764Y5909055D01*
X2789370Y5909055D01*
X2789370Y5917449D01*
G37*
G36*
G01*
X2789370Y5907213D02*
X2797764Y5907213D01*
X2797764Y5898819D01*
X2789370Y5898819D01*
X2789370Y5907213D01*
G37*
G36*
G01*
X2797764Y5929528D02*
X2789370Y5929528D01*
X2789370Y5937921D01*
X2797764Y5937921D01*
X2797764Y5929528D01*
G37*
G36*
G01*
X2715874Y5909055D02*
X2707480Y5909055D01*
X2707480Y5917449D01*
X2715874Y5917449D01*
X2715874Y5909055D01*
G37*
G36*
G01*
X2707480Y5939764D02*
X2707480Y5948157D01*
X2715874Y5948157D01*
X2715874Y5939764D01*
X2707480Y5939764D01*
G37*
G36*
G01*
X2707480Y5898819D02*
X2707480Y5907213D01*
X2715874Y5907213D01*
X2715874Y5898819D01*
X2707480Y5898819D01*
G37*
G36*
G01*
X2707480Y5896976D02*
X2715874Y5896976D01*
X2715874Y5888583D01*
X2707480Y5888583D01*
X2707480Y5896976D01*
G37*
G36*
G01*
X2707480Y5878346D02*
X2707480Y5886740D01*
X2715874Y5886740D01*
X2715874Y5878346D01*
X2707480Y5878346D01*
G37*
G36*
G01*
X2697244Y5917449D02*
X2705638Y5917449D01*
X2705638Y5909055D01*
X2697244Y5909055D01*
X2697244Y5917449D01*
G37*
G36*
G01*
X2697244Y5939764D02*
X2697244Y5948157D01*
X2705638Y5948157D01*
X2705638Y5939764D01*
X2697244Y5939764D01*
G37*
G36*
G01*
X2697244Y5886740D02*
X2705638Y5886740D01*
X2705638Y5878346D01*
X2697244Y5878346D01*
X2697244Y5886740D01*
G37*
G36*
G01*
X2701480Y5736205D02*
X2701480Y5730394D01*
X2695669Y5730394D01*
X2695669Y5736205D01*
X2701480Y5736205D01*
G37*
G36*
G01*
X2701480Y5772913D02*
X2695669Y5772913D01*
X2695669Y5778724D01*
X2701480Y5778724D01*
X2701480Y5772913D01*
G37*
G36*
G01*
X2687008Y5948157D02*
X2695402Y5948157D01*
X2695402Y5939764D01*
X2687008Y5939764D01*
X2687008Y5948157D01*
G37*
G36*
G01*
X2687008Y5917449D02*
X2695402Y5917449D01*
X2695402Y5909055D01*
X2687008Y5909055D01*
X2687008Y5917449D01*
G37*
G36*
G01*
X2687008Y5878346D02*
X2687008Y5886740D01*
X2695402Y5886740D01*
X2695402Y5878346D01*
X2687008Y5878346D01*
G37*
G36*
G01*
X2694394Y5778724D02*
X2694394Y5772913D01*
X2688583Y5772913D01*
X2688583Y5778724D01*
X2694394Y5778724D01*
G37*
G36*
G01*
X2694394Y5730394D02*
X2688583Y5730394D01*
X2688583Y5736205D01*
X2694394Y5736205D01*
X2694394Y5730394D01*
G37*
G36*
G01*
X2687307Y5772913D02*
X2681496Y5772913D01*
X2681496Y5778724D01*
X2687307Y5778724D01*
X2687307Y5772913D01*
G37*
G36*
G01*
X2687307Y5730394D02*
X2681496Y5730394D01*
X2681496Y5736205D01*
X2687307Y5736205D01*
X2687307Y5730394D01*
G37*
G36*
G01*
X2676772Y5948157D02*
X2685165Y5948157D01*
X2685165Y5939764D01*
X2676772Y5939764D01*
X2676772Y5948157D01*
G37*
G36*
G01*
X2676772Y5886740D02*
X2685165Y5886740D01*
X2685165Y5878346D01*
X2676772Y5878346D01*
X2676772Y5886740D01*
G37*
G36*
G01*
X2680220Y5772913D02*
X2674409Y5772913D01*
X2674409Y5778724D01*
X2680220Y5778724D01*
X2680220Y5772913D01*
G37*
G36*
G01*
X2680220Y5736205D02*
X2680220Y5730394D01*
X2674409Y5730394D01*
X2674409Y5736205D01*
X2680220Y5736205D01*
G37*
G36*
G01*
X2666535Y5896976D02*
X2674929Y5896976D01*
X2674929Y5888583D01*
X2666535Y5888583D01*
X2666535Y5896976D01*
G37*
G36*
G01*
X2666535Y5929528D02*
X2666535Y5937921D01*
X2674929Y5937921D01*
X2674929Y5929528D01*
X2666535Y5929528D01*
G37*
G36*
G01*
X2666535Y5927685D02*
X2674929Y5927685D01*
X2674929Y5919291D01*
X2666535Y5919291D01*
X2666535Y5927685D01*
G37*
G36*
G01*
X2666535Y5917449D02*
X2674929Y5917449D01*
X2674929Y5909055D01*
X2666535Y5909055D01*
X2666535Y5917449D01*
G37*
G36*
G01*
X2666535Y5907213D02*
X2674929Y5907213D01*
X2674929Y5898819D01*
X2666535Y5898819D01*
X2666535Y5907213D01*
G37*
G36*
G01*
X2673134Y5758740D02*
X2667323Y5758740D01*
X2667323Y5764551D01*
X2673134Y5764551D01*
X2673134Y5758740D01*
G37*
G36*
G01*
X2673134Y5751654D02*
X2667323Y5751654D01*
X2667323Y5757465D01*
X2673134Y5757465D01*
X2673134Y5751654D01*
G37*
G36*
G01*
X2673134Y5744567D02*
X2667323Y5744567D01*
X2667323Y5750378D01*
X2673134Y5750378D01*
X2673134Y5744567D01*
G37*
G36*
G01*
X2673134Y5737480D02*
X2667323Y5737480D01*
X2667323Y5743291D01*
X2673134Y5743291D01*
X2673134Y5737480D01*
G37*
G36*
G01*
X2673134Y5765827D02*
X2667323Y5765827D01*
X2667323Y5771638D01*
X2673134Y5771638D01*
X2673134Y5765827D01*
G37*
G36*
G01*
X2646063Y5909055D02*
X2646063Y5917449D01*
X2654457Y5917449D01*
X2654457Y5909055D01*
X2646063Y5909055D01*
G37*
G36*
G01*
X2646063Y5929528D02*
X2646063Y5937921D01*
X2654457Y5937921D01*
X2654457Y5929528D01*
X2646063Y5929528D01*
G37*
G36*
G01*
X2646063Y5919291D02*
X2646063Y5927685D01*
X2654457Y5927685D01*
X2654457Y5919291D01*
X2646063Y5919291D01*
G37*
G36*
G01*
X2646063Y5948157D02*
X2654457Y5948157D01*
X2654457Y5939764D01*
X2646063Y5939764D01*
X2646063Y5948157D01*
G37*
G36*
G01*
X2646063Y5907213D02*
X2654457Y5907213D01*
X2654457Y5898819D01*
X2646063Y5898819D01*
X2646063Y5907213D01*
G37*
G36*
G01*
X2646063Y5888583D02*
X2646063Y5896976D01*
X2654457Y5896976D01*
X2654457Y5888583D01*
X2646063Y5888583D01*
G37*
G36*
G01*
X2646063Y5886740D02*
X2654457Y5886740D01*
X2654457Y5878346D01*
X2646063Y5878346D01*
X2646063Y5886740D01*
G37*
G36*
G01*
X2635827Y5909055D02*
X2635827Y5917449D01*
X2644220Y5917449D01*
X2644220Y5909055D01*
X2635827Y5909055D01*
G37*
G36*
G01*
X2625591Y5927685D02*
X2633984Y5927685D01*
X2633984Y5919291D01*
X2625591Y5919291D01*
X2625591Y5927685D01*
G37*
G36*
G01*
X2615354Y5937921D02*
X2623748Y5937921D01*
X2623748Y5929528D01*
X2615354Y5929528D01*
X2615354Y5937921D01*
G37*
G36*
G01*
X2616441Y5778724D02*
X2616441Y5772913D01*
X2610630Y5772913D01*
X2610630Y5778724D01*
X2616441Y5778724D01*
G37*
G36*
G01*
X2616441Y5771638D02*
X2616441Y5765827D01*
X2610630Y5765827D01*
X2610630Y5771638D01*
X2616441Y5771638D01*
G37*
G36*
G01*
X2616441Y5758740D02*
X2610630Y5758740D01*
X2610630Y5764551D01*
X2616441Y5764551D01*
X2616441Y5758740D01*
G37*
G36*
G01*
X2616441Y5751654D02*
X2610630Y5751654D01*
X2610630Y5757465D01*
X2616441Y5757465D01*
X2616441Y5751654D01*
G37*
G36*
G01*
X2616441Y5750378D02*
X2616441Y5744567D01*
X2610630Y5744567D01*
X2610630Y5750378D01*
X2616441Y5750378D01*
G37*
G36*
G01*
X2605118Y5896976D02*
X2613512Y5896976D01*
X2613512Y5888583D01*
X2605118Y5888583D01*
X2605118Y5896976D01*
G37*
G36*
G01*
X2605118Y5948157D02*
X2613512Y5948157D01*
X2613512Y5939764D01*
X2605118Y5939764D01*
X2605118Y5948157D01*
G37*
G36*
G01*
X2605118Y5927685D02*
X2613512Y5927685D01*
X2613512Y5919291D01*
X2605118Y5919291D01*
X2605118Y5927685D01*
G37*
G36*
G01*
X2605118Y5909055D02*
X2605118Y5917449D01*
X2613512Y5917449D01*
X2613512Y5909055D01*
X2605118Y5909055D01*
G37*
G36*
G01*
X2605118Y5898819D02*
X2605118Y5907213D01*
X2613512Y5907213D01*
X2613512Y5898819D01*
X2605118Y5898819D01*
G37*
G36*
G01*
X2613512Y5929528D02*
X2605118Y5929528D01*
X2605118Y5937921D01*
X2613512Y5937921D01*
X2613512Y5929528D01*
G37*
G36*
G01*
X2605118Y5878346D02*
X2605118Y5886740D01*
X2613512Y5886740D01*
X2613512Y5878346D01*
X2605118Y5878346D01*
G37*
G36*
G01*
X2609354Y5737480D02*
X2603543Y5737480D01*
X2603543Y5743291D01*
X2609354Y5743291D01*
X2609354Y5737480D01*
G37*
G36*
G01*
X2602268Y5730394D02*
X2596457Y5730394D01*
X2596457Y5736205D01*
X2602268Y5736205D01*
X2602268Y5730394D01*
G37*
G36*
G01*
X2595181Y5737480D02*
X2589370Y5737480D01*
X2589370Y5743291D01*
X2595181Y5743291D01*
X2595181Y5737480D01*
G37*
G36*
G01*
X2584646Y5896976D02*
X2593039Y5896976D01*
X2593039Y5888583D01*
X2584646Y5888583D01*
X2584646Y5896976D01*
G37*
G36*
G01*
X2584646Y5937921D02*
X2593039Y5937921D01*
X2593039Y5929528D01*
X2584646Y5929528D01*
X2584646Y5937921D01*
G37*
G36*
G01*
X2584646Y5919291D02*
X2584646Y5927685D01*
X2593039Y5927685D01*
X2593039Y5919291D01*
X2584646Y5919291D01*
G37*
G36*
G01*
X2584646Y5917449D02*
X2593039Y5917449D01*
X2593039Y5909055D01*
X2584646Y5909055D01*
X2584646Y5917449D01*
G37*
G36*
G01*
X2584646Y5907213D02*
X2593039Y5907213D01*
X2593039Y5898819D01*
X2584646Y5898819D01*
X2584646Y5907213D01*
G37*
G36*
G01*
X2588094Y5758740D02*
X2582283Y5758740D01*
X2582283Y5764551D01*
X2588094Y5764551D01*
X2588094Y5758740D01*
G37*
G36*
G01*
X2588094Y5751654D02*
X2582283Y5751654D01*
X2582283Y5757465D01*
X2588094Y5757465D01*
X2588094Y5751654D01*
G37*
G36*
G01*
X2588094Y5744567D02*
X2582283Y5744567D01*
X2582283Y5750378D01*
X2588094Y5750378D01*
X2588094Y5744567D01*
G37*
G36*
G01*
X2588094Y5772913D02*
X2582283Y5772913D01*
X2582283Y5778724D01*
X2588094Y5778724D01*
X2588094Y5772913D01*
G37*
G36*
G01*
X2588094Y5765827D02*
X2582283Y5765827D01*
X2582283Y5771638D01*
X2588094Y5771638D01*
X2588094Y5765827D01*
G37*
G36*
G01*
X2574409Y5948157D02*
X2582803Y5948157D01*
X2582803Y5939764D01*
X2574409Y5939764D01*
X2574409Y5948157D01*
G37*
G36*
G01*
X2574409Y5886740D02*
X2582803Y5886740D01*
X2582803Y5878346D01*
X2574409Y5878346D01*
X2574409Y5886740D01*
G37*
G36*
G01*
X2573921Y5772913D02*
X2568110Y5772913D01*
X2568110Y5778724D01*
X2573921Y5778724D01*
X2573921Y5772913D01*
G37*
G36*
G01*
X2573921Y5730394D02*
X2568110Y5730394D01*
X2568110Y5736205D01*
X2573921Y5736205D01*
X2573921Y5730394D01*
G37*
G36*
G01*
X2564173Y5939764D02*
X2564173Y5948157D01*
X2572567Y5948157D01*
X2572567Y5939764D01*
X2564173Y5939764D01*
G37*
G36*
G01*
X2564173Y5878346D02*
X2564173Y5886740D01*
X2572567Y5886740D01*
X2572567Y5878346D01*
X2564173Y5878346D01*
G37*
G36*
G01*
X2566835Y5772913D02*
X2561024Y5772913D01*
X2561024Y5778724D01*
X2566835Y5778724D01*
X2566835Y5772913D01*
G37*
G36*
G01*
X2566835Y5730394D02*
X2561024Y5730394D01*
X2561024Y5736205D01*
X2566835Y5736205D01*
X2566835Y5730394D01*
G37*
G36*
G01*
X2566835Y5751654D02*
X2561024Y5751654D01*
X2561024Y5757465D01*
X2566835Y5757465D01*
X2566835Y5751654D01*
G37*
G36*
G01*
X2553937Y5939764D02*
X2553937Y5948157D01*
X2562331Y5948157D01*
X2562331Y5939764D01*
X2553937Y5939764D01*
G37*
G36*
G01*
X2553937Y5878346D02*
X2553937Y5886740D01*
X2562331Y5886740D01*
X2562331Y5878346D01*
X2553937Y5878346D01*
G37*
G36*
G01*
X2559748Y5778724D02*
X2559748Y5772913D01*
X2553937Y5772913D01*
X2553937Y5778724D01*
X2559748Y5778724D01*
G37*
G36*
G01*
X2559748Y5730394D02*
X2553937Y5730394D01*
X2553937Y5736205D01*
X2559748Y5736205D01*
X2559748Y5730394D01*
G37*
G36*
G01*
X2553937Y5757465D02*
X2559748Y5757465D01*
X2559748Y5751654D01*
X2553937Y5751654D01*
X2553937Y5757465D01*
G37*
G36*
G01*
X2552661Y5772913D02*
X2546850Y5772913D01*
X2546850Y5778724D01*
X2552661Y5778724D01*
X2552661Y5772913D01*
G37*
G36*
G01*
X2552661Y5751654D02*
X2546850Y5751654D01*
X2546850Y5757465D01*
X2552661Y5757465D01*
X2552661Y5751654D01*
G37*
G36*
G01*
X2552661Y5730394D02*
X2546850Y5730394D01*
X2546850Y5736205D01*
X2552661Y5736205D01*
X2552661Y5730394D01*
G37*
G36*
G01*
X2543701Y5937921D02*
X2552094Y5937921D01*
X2552094Y5929528D01*
X2543701Y5929528D01*
X2543701Y5937921D01*
G37*
G36*
G01*
X2543701Y5907213D02*
X2552094Y5907213D01*
X2552094Y5898819D01*
X2543701Y5898819D01*
X2543701Y5907213D01*
G37*
G36*
G01*
X2543701Y5917449D02*
X2552094Y5917449D01*
X2552094Y5909055D01*
X2543701Y5909055D01*
X2543701Y5917449D01*
G37*
G36*
G01*
X2552094Y5888583D02*
X2543701Y5888583D01*
X2543701Y5896976D01*
X2552094Y5896976D01*
X2552094Y5888583D01*
G37*
G36*
G01*
X2543701Y5927685D02*
X2552094Y5927685D01*
X2552094Y5919291D01*
X2543701Y5919291D01*
X2543701Y5927685D01*
G37*
G36*
G01*
X2545575Y5758740D02*
X2539764Y5758740D01*
X2539764Y5764551D01*
X2545575Y5764551D01*
X2545575Y5758740D01*
G37*
G36*
G01*
X2545575Y5737480D02*
X2539764Y5737480D01*
X2539764Y5743291D01*
X2545575Y5743291D01*
X2545575Y5737480D01*
G37*
G36*
G01*
X2545575Y5736205D02*
X2545575Y5730394D01*
X2539764Y5730394D01*
X2539764Y5736205D01*
X2545575Y5736205D01*
G37*
G36*
G01*
X2545575Y5744567D02*
X2539764Y5744567D01*
X2539764Y5750378D01*
X2545575Y5750378D01*
X2545575Y5744567D01*
G37*
G36*
G01*
X2545575Y5751654D02*
X2539764Y5751654D01*
X2539764Y5757465D01*
X2545575Y5757465D01*
X2545575Y5751654D01*
G37*
G36*
G01*
X2545575Y5765827D02*
X2539764Y5765827D01*
X2539764Y5771638D01*
X2545575Y5771638D01*
X2545575Y5765827D01*
G37*
G36*
G01*
X2545575Y5772913D02*
X2539764Y5772913D01*
X2539764Y5778724D01*
X2545575Y5778724D01*
X2545575Y5772913D01*
G37*
G36*
G01*
X2523228Y5939764D02*
X2523228Y5948157D01*
X2531622Y5948157D01*
X2531622Y5939764D01*
X2523228Y5939764D01*
G37*
G36*
G01*
X2523228Y5898819D02*
X2523228Y5907213D01*
X2531622Y5907213D01*
X2531622Y5898819D01*
X2523228Y5898819D01*
G37*
G36*
G01*
X2523228Y5896976D02*
X2531622Y5896976D01*
X2531622Y5888583D01*
X2523228Y5888583D01*
X2523228Y5896976D01*
G37*
G36*
G01*
X2531402Y5765827D02*
X2525591Y5765827D01*
X2525591Y5771638D01*
X2531402Y5771638D01*
X2531402Y5765827D01*
G37*
G36*
G01*
X2531402Y5764551D02*
X2531402Y5758740D01*
X2525591Y5758740D01*
X2525591Y5764551D01*
X2531402Y5764551D01*
G37*
G36*
G01*
X2531402Y5730394D02*
X2525591Y5730394D01*
X2525591Y5736205D01*
X2531402Y5736205D01*
X2531402Y5730394D01*
G37*
G36*
G01*
X2524315Y5772913D02*
X2518504Y5772913D01*
X2518504Y5778724D01*
X2524315Y5778724D01*
X2524315Y5772913D01*
G37*
G36*
G01*
X2524315Y5757465D02*
X2524315Y5751654D01*
X2518504Y5751654D01*
X2518504Y5757465D01*
X2524315Y5757465D01*
G37*
G36*
G01*
X2524315Y5737480D02*
X2518504Y5737480D01*
X2518504Y5743291D01*
X2524315Y5743291D01*
X2524315Y5737480D01*
G37*
G36*
G01*
X2512992Y5948157D02*
X2521386Y5948157D01*
X2521386Y5939764D01*
X2512992Y5939764D01*
X2512992Y5948157D01*
G37*
G36*
G01*
X2512992Y5909055D02*
X2512992Y5917449D01*
X2521386Y5917449D01*
X2521386Y5909055D01*
X2512992Y5909055D01*
G37*
G36*
G01*
X2512992Y5878346D02*
X2512992Y5886740D01*
X2521386Y5886740D01*
X2521386Y5878346D01*
X2512992Y5878346D01*
G37*
G36*
G01*
X2517228Y5772913D02*
X2511417Y5772913D01*
X2511417Y5778724D01*
X2517228Y5778724D01*
X2517228Y5772913D01*
G37*
G36*
G01*
X2517228Y5751654D02*
X2511417Y5751654D01*
X2511417Y5757465D01*
X2517228Y5757465D01*
X2517228Y5751654D01*
G37*
G36*
G01*
X2517228Y5744567D02*
X2511417Y5744567D01*
X2511417Y5750378D01*
X2517228Y5750378D01*
X2517228Y5744567D01*
G37*
G36*
G01*
X2502756Y5939764D02*
X2502756Y5948157D01*
X2511150Y5948157D01*
X2511150Y5939764D01*
X2502756Y5939764D01*
G37*
G36*
G01*
X2502756Y5878346D02*
X2502756Y5886740D01*
X2511150Y5886740D01*
X2511150Y5878346D01*
X2502756Y5878346D01*
G37*
G36*
G01*
X2502756Y5909055D02*
X2502756Y5917449D01*
X2511150Y5917449D01*
X2511150Y5909055D01*
X2502756Y5909055D01*
G37*
G36*
G01*
X2510142Y5751654D02*
X2504331Y5751654D01*
X2504331Y5757465D01*
X2510142Y5757465D01*
X2510142Y5751654D01*
G37*
G36*
G01*
X2510142Y5772913D02*
X2504331Y5772913D01*
X2504331Y5778724D01*
X2510142Y5778724D01*
X2510142Y5772913D01*
G37*
G36*
G01*
X2503055Y5765827D02*
X2497244Y5765827D01*
X2497244Y5771638D01*
X2503055Y5771638D01*
X2503055Y5765827D01*
G37*
G36*
G01*
X2503055Y5744567D02*
X2497244Y5744567D01*
X2497244Y5750378D01*
X2503055Y5750378D01*
X2503055Y5744567D01*
G37*
G36*
G01*
X2503055Y5737480D02*
X2497244Y5737480D01*
X2497244Y5743291D01*
X2503055Y5743291D01*
X2503055Y5737480D01*
G37*
G36*
G01*
X2503055Y5757465D02*
X2503055Y5751654D01*
X2497244Y5751654D01*
X2497244Y5757465D01*
X2503055Y5757465D01*
G37*
G36*
G01*
X2503055Y5764551D02*
X2503055Y5758740D01*
X2497244Y5758740D01*
X2497244Y5764551D01*
X2503055Y5764551D01*
G37*
G36*
G01*
X2503055Y5772913D02*
X2497244Y5772913D01*
X2497244Y5778724D01*
X2503055Y5778724D01*
X2503055Y5772913D01*
G37*
G36*
G01*
X2497244Y5736205D02*
X2503055Y5736205D01*
X2503055Y5730394D01*
X2497244Y5730394D01*
X2497244Y5736205D01*
G37*
G36*
G01*
X2492520Y5939764D02*
X2492520Y5948157D01*
X2500913Y5948157D01*
X2500913Y5939764D01*
X2492520Y5939764D01*
G37*
G36*
G01*
X2492520Y5909055D02*
X2492520Y5917449D01*
X2500913Y5917449D01*
X2500913Y5909055D01*
X2492520Y5909055D01*
G37*
G36*
G01*
X2492520Y5886740D02*
X2500913Y5886740D01*
X2500913Y5878346D01*
X2492520Y5878346D01*
X2492520Y5886740D01*
G37*
G36*
G01*
X2482283Y5929528D02*
X2482283Y5937921D01*
X2490677Y5937921D01*
X2490677Y5929528D01*
X2482283Y5929528D01*
G37*
G36*
G01*
X2482283Y5919291D02*
X2482283Y5927685D01*
X2490677Y5927685D01*
X2490677Y5919291D01*
X2482283Y5919291D01*
G37*
G36*
G01*
X2482283Y5886740D02*
X2490677Y5886740D01*
X2490677Y5878346D01*
X2482283Y5878346D01*
X2482283Y5886740D01*
G37*
G36*
G01*
X2470205Y5898819D02*
X2461811Y5898819D01*
X2461811Y5907213D01*
X2470205Y5907213D01*
X2470205Y5898819D01*
G37*
G36*
G01*
X2461811Y5948157D02*
X2470205Y5948157D01*
X2470205Y5939764D01*
X2461811Y5939764D01*
X2461811Y5948157D01*
G37*
G36*
G01*
X2461811Y5929528D02*
X2461811Y5937921D01*
X2470205Y5937921D01*
X2470205Y5929528D01*
X2461811Y5929528D01*
G37*
G36*
G01*
X2461811Y5919291D02*
X2461811Y5927685D01*
X2470205Y5927685D01*
X2470205Y5919291D01*
X2461811Y5919291D01*
G37*
G36*
G01*
X2461811Y5917449D02*
X2470205Y5917449D01*
X2470205Y5909055D01*
X2461811Y5909055D01*
X2461811Y5917449D01*
G37*
G36*
G01*
X2461811Y5888583D02*
X2461811Y5896976D01*
X2470205Y5896976D01*
X2470205Y5888583D01*
X2461811Y5888583D01*
G37*
G36*
G01*
X2461811Y5878346D02*
X2461811Y5886740D01*
X2470205Y5886740D01*
X2470205Y5878346D01*
X2461811Y5878346D01*
G37*
G36*
G01*
X2451575Y5917449D02*
X2459969Y5917449D01*
X2459969Y5909055D01*
X2451575Y5909055D01*
X2451575Y5917449D01*
G37*
G36*
G01*
X2441339Y5927685D02*
X2449732Y5927685D01*
X2449732Y5919291D01*
X2441339Y5919291D01*
X2441339Y5927685D01*
G37*
G36*
G01*
X2431102Y5929528D02*
X2431102Y5937921D01*
X2439496Y5937921D01*
X2439496Y5929528D01*
X2431102Y5929528D01*
G37*
G36*
G01*
X2420866Y5898819D02*
X2420866Y5907213D01*
X2429260Y5907213D01*
X2429260Y5898819D01*
X2420866Y5898819D01*
G37*
G36*
G01*
X2420866Y5937921D02*
X2429260Y5937921D01*
X2429260Y5929528D01*
X2420866Y5929528D01*
X2420866Y5937921D01*
G37*
G36*
G01*
X2420866Y5919291D02*
X2420866Y5927685D01*
X2429260Y5927685D01*
X2429260Y5919291D01*
X2420866Y5919291D01*
G37*
G36*
G01*
X2420866Y5917449D02*
X2429260Y5917449D01*
X2429260Y5909055D01*
X2420866Y5909055D01*
X2420866Y5917449D01*
G37*
G36*
G01*
X2420866Y5939764D02*
X2420866Y5948157D01*
X2429260Y5948157D01*
X2429260Y5939764D01*
X2420866Y5939764D01*
G37*
G36*
G01*
X2420866Y5896976D02*
X2429260Y5896976D01*
X2429260Y5888583D01*
X2420866Y5888583D01*
X2420866Y5896976D01*
G37*
G36*
G01*
X2420866Y5886740D02*
X2429260Y5886740D01*
X2429260Y5878346D01*
X2420866Y5878346D01*
X2420866Y5886740D01*
G37*
G36*
G01*
X2400394Y5937921D02*
X2408787Y5937921D01*
X2408787Y5929528D01*
X2400394Y5929528D01*
X2400394Y5937921D01*
G37*
G36*
G01*
X2400394Y5927685D02*
X2408787Y5927685D01*
X2408787Y5919291D01*
X2400394Y5919291D01*
X2400394Y5927685D01*
G37*
G36*
G01*
X2400394Y5909055D02*
X2400394Y5917449D01*
X2408787Y5917449D01*
X2408787Y5909055D01*
X2400394Y5909055D01*
G37*
G36*
G01*
X2400394Y5898819D02*
X2400394Y5907213D01*
X2408787Y5907213D01*
X2408787Y5898819D01*
X2400394Y5898819D01*
G37*
G36*
G01*
X2400394Y5896976D02*
X2408787Y5896976D01*
X2408787Y5888583D01*
X2400394Y5888583D01*
X2400394Y5896976D01*
G37*
G36*
G01*
X2400394Y5886740D02*
X2408787Y5886740D01*
X2408787Y5878346D01*
X2400394Y5878346D01*
X2400394Y5886740D01*
G37*
G36*
G01*
X2390157Y5939764D02*
X2390157Y5948157D01*
X2398551Y5948157D01*
X2398551Y5939764D01*
X2390157Y5939764D01*
G37*
G36*
G01*
X2390157Y5909055D02*
X2390157Y5917449D01*
X2398551Y5917449D01*
X2398551Y5909055D01*
X2390157Y5909055D01*
G37*
G36*
G01*
X2379921Y5939764D02*
X2379921Y5948157D01*
X2388315Y5948157D01*
X2388315Y5939764D01*
X2379921Y5939764D01*
G37*
G36*
G01*
X2379921Y5909055D02*
X2379921Y5917449D01*
X2388315Y5917449D01*
X2388315Y5909055D01*
X2379921Y5909055D01*
G37*
G36*
G01*
X2369685Y5939764D02*
X2369685Y5948157D01*
X2378079Y5948157D01*
X2378079Y5939764D01*
X2369685Y5939764D01*
G37*
G36*
G01*
X2369685Y5917449D02*
X2378079Y5917449D01*
X2378079Y5909055D01*
X2369685Y5909055D01*
X2369685Y5917449D01*
G37*
G36*
G01*
X2367843Y5878346D02*
X2359449Y5878346D01*
X2359449Y5886740D01*
X2367843Y5886740D01*
X2367843Y5878346D01*
G37*
G36*
G01*
X2359449Y5937921D02*
X2367843Y5937921D01*
X2367843Y5929528D01*
X2359449Y5929528D01*
X2359449Y5937921D01*
G37*
G36*
G01*
X2359449Y5919291D02*
X2359449Y5927685D01*
X2367843Y5927685D01*
X2367843Y5919291D01*
X2359449Y5919291D01*
G37*
G36*
G01*
X2359449Y5917449D02*
X2367843Y5917449D01*
X2367843Y5909055D01*
X2359449Y5909055D01*
X2359449Y5917449D01*
G37*
G36*
G01*
X2359449Y5898819D02*
X2359449Y5907213D01*
X2367843Y5907213D01*
X2367843Y5898819D01*
X2359449Y5898819D01*
G37*
G36*
G01*
X2359449Y5888583D02*
X2359449Y5896976D01*
X2367843Y5896976D01*
X2367843Y5888583D01*
X2359449Y5888583D01*
G37*
G36*
G01*
X2338976Y5898819D02*
X2338976Y5907213D01*
X2347370Y5907213D01*
X2347370Y5898819D01*
X2338976Y5898819D01*
G37*
G36*
G01*
X2338976Y5937921D02*
X2347370Y5937921D01*
X2347370Y5929528D01*
X2338976Y5929528D01*
X2338976Y5937921D01*
G37*
G36*
G01*
X2338976Y5927685D02*
X2347370Y5927685D01*
X2347370Y5919291D01*
X2338976Y5919291D01*
X2338976Y5927685D01*
G37*
G36*
G01*
X2338976Y5917449D02*
X2347370Y5917449D01*
X2347370Y5909055D01*
X2338976Y5909055D01*
X2338976Y5917449D01*
G37*
G36*
G01*
X2338976Y5948157D02*
X2347370Y5948157D01*
X2347370Y5939764D01*
X2338976Y5939764D01*
X2338976Y5948157D01*
G37*
G36*
G01*
X2338976Y5888583D02*
X2338976Y5896976D01*
X2347370Y5896976D01*
X2347370Y5888583D01*
X2338976Y5888583D01*
G37*
G36*
G01*
X2328740Y5878346D02*
X2328740Y5886740D01*
X2337134Y5886740D01*
X2337134Y5878346D01*
X2328740Y5878346D01*
G37*
G36*
G01*
X2326898Y5909055D02*
X2318504Y5909055D01*
X2318504Y5917449D01*
X2326898Y5917449D01*
X2326898Y5909055D01*
G37*
G36*
G01*
X2318504Y5898819D02*
X2318504Y5907213D01*
X2326898Y5907213D01*
X2326898Y5898819D01*
X2318504Y5898819D01*
G37*
G36*
G01*
X2318504Y5888583D02*
X2318504Y5896976D01*
X2326898Y5896976D01*
X2326898Y5888583D01*
X2318504Y5888583D01*
G37*
G36*
G01*
X2308268Y5886740D02*
X2316661Y5886740D01*
X2316661Y5878346D01*
X2308268Y5878346D01*
X2308268Y5886740D01*
G37*
G36*
G01*
X2298031Y5896976D02*
X2306425Y5896976D01*
X2306425Y5888583D01*
X2298031Y5888583D01*
X2298031Y5896976D01*
G37*
G36*
G01*
X2298031Y5948157D02*
X2306425Y5948157D01*
X2306425Y5939764D01*
X2298031Y5939764D01*
X2298031Y5948157D01*
G37*
G36*
G01*
X2298031Y5919291D02*
X2298031Y5927685D01*
X2306425Y5927685D01*
X2306425Y5919291D01*
X2298031Y5919291D01*
G37*
G36*
G01*
X2298031Y5909055D02*
X2298031Y5917449D01*
X2306425Y5917449D01*
X2306425Y5909055D01*
X2298031Y5909055D01*
G37*
G36*
G01*
X2298031Y5907213D02*
X2306425Y5907213D01*
X2306425Y5898819D01*
X2298031Y5898819D01*
X2298031Y5907213D01*
G37*
G36*
G01*
X2306425Y5929528D02*
X2298031Y5929528D01*
X2298031Y5937921D01*
X2306425Y5937921D01*
X2306425Y5929528D01*
G37*
G36*
G01*
X2277559Y5948157D02*
X2285953Y5948157D01*
X2285953Y5939764D01*
X2277559Y5939764D01*
X2277559Y5948157D01*
G37*
G36*
G01*
X2277559Y5907213D02*
X2285953Y5907213D01*
X2285953Y5898819D01*
X2277559Y5898819D01*
X2277559Y5907213D01*
G37*
G36*
G01*
X2277559Y5888583D02*
X2277559Y5896976D01*
X2285953Y5896976D01*
X2285953Y5888583D01*
X2277559Y5888583D01*
G37*
G36*
G01*
X2275717Y5939764D02*
X2267323Y5939764D01*
X2267323Y5948157D01*
X2275717Y5948157D01*
X2275717Y5939764D01*
G37*
G36*
G01*
X2267323Y5917449D02*
X2275717Y5917449D01*
X2275717Y5909055D01*
X2267323Y5909055D01*
X2267323Y5917449D01*
G37*
G36*
G01*
X2267323Y5886740D02*
X2275717Y5886740D01*
X2275717Y5878346D01*
X2267323Y5878346D01*
X2267323Y5886740D01*
G37*
G36*
G01*
X2257087Y5948157D02*
X2265480Y5948157D01*
X2265480Y5939764D01*
X2257087Y5939764D01*
X2257087Y5948157D01*
G37*
G36*
G01*
X2257087Y5917449D02*
X2265480Y5917449D01*
X2265480Y5909055D01*
X2257087Y5909055D01*
X2257087Y5917449D01*
G37*
G36*
G01*
X2257087Y5878346D02*
X2257087Y5886740D01*
X2265480Y5886740D01*
X2265480Y5878346D01*
X2257087Y5878346D01*
G37*
G36*
G01*
X2246850Y5939764D02*
X2246850Y5948157D01*
X2255244Y5948157D01*
X2255244Y5939764D01*
X2246850Y5939764D01*
G37*
G36*
G01*
X2246850Y5909055D02*
X2246850Y5917449D01*
X2255244Y5917449D01*
X2255244Y5909055D01*
X2246850Y5909055D01*
G37*
G36*
G01*
X2246850Y5886740D02*
X2255244Y5886740D01*
X2255244Y5878346D01*
X2246850Y5878346D01*
X2246850Y5886740D01*
G37*
G36*
G01*
X2245008Y5929528D02*
X2236614Y5929528D01*
X2236614Y5937921D01*
X2245008Y5937921D01*
X2245008Y5929528D01*
G37*
G36*
G01*
X2245008Y5878346D02*
X2236614Y5878346D01*
X2236614Y5886740D01*
X2245008Y5886740D01*
X2245008Y5878346D01*
G37*
G36*
G01*
X2236614Y5927685D02*
X2245008Y5927685D01*
X2245008Y5919291D01*
X2236614Y5919291D01*
X2236614Y5927685D01*
G37*
M02*
