G04 SwanSong USB - Top Silkscreen*
G04 Generated from the published SwanTroller Gerbers; units inches*
%FSLAX36Y36*%
%MOIN*%
%ADD10C,0.001*%
%LPD*%
%LPD*%
G36*
G01*
X4838268Y4340709D02*
X4838268Y4334252D01*
X4831811Y4334252D01*
X4831811Y4340709D01*
X4838268Y4340709D01*
G37*
G36*
G01*
X4831811Y4332835D02*
X4838268Y4332835D01*
X4838268Y4326378D01*
X4831811Y4326378D01*
X4831811Y4332835D01*
G37*
G36*
G01*
X4831811Y4324961D02*
X4838268Y4324961D01*
X4838268Y4318504D01*
X4831811Y4318504D01*
X4831811Y4324961D01*
G37*
G36*
G01*
X4831811Y4317087D02*
X4838268Y4317087D01*
X4838268Y4310630D01*
X4831811Y4310630D01*
X4831811Y4317087D01*
G37*
G36*
G01*
X4831811Y4309213D02*
X4838268Y4309213D01*
X4838268Y4302756D01*
X4831811Y4302756D01*
X4831811Y4309213D01*
G37*
G36*
G01*
X4831811Y4301339D02*
X4838268Y4301339D01*
X4838268Y4294882D01*
X4831811Y4294882D01*
X4831811Y4301339D01*
G37*
G36*
G01*
X4830394Y4348583D02*
X4830394Y4342126D01*
X4823937Y4342126D01*
X4823937Y4348583D01*
X4830394Y4348583D01*
G37*
G36*
G01*
X4823937Y4324961D02*
X4830394Y4324961D01*
X4830394Y4318504D01*
X4823937Y4318504D01*
X4823937Y4324961D01*
G37*
G36*
G01*
X4822520Y4348583D02*
X4822520Y4342126D01*
X4816063Y4342126D01*
X4816063Y4348583D01*
X4822520Y4348583D01*
G37*
G36*
G01*
X4816063Y4318504D02*
X4816063Y4324961D01*
X4822520Y4324961D01*
X4822520Y4318504D01*
X4816063Y4318504D01*
G37*
G36*
G01*
X4808189Y4348583D02*
X4814646Y4348583D01*
X4814646Y4342126D01*
X4808189Y4342126D01*
X4808189Y4348583D01*
G37*
G36*
G01*
X4808189Y4324961D02*
X4814646Y4324961D01*
X4814646Y4318504D01*
X4808189Y4318504D01*
X4808189Y4324961D01*
G37*
G36*
G01*
X4800315Y4340709D02*
X4806772Y4340709D01*
X4806772Y4334252D01*
X4800315Y4334252D01*
X4800315Y4340709D01*
G37*
G36*
G01*
X4800315Y4332835D02*
X4806772Y4332835D01*
X4806772Y4326378D01*
X4800315Y4326378D01*
X4800315Y4332835D01*
G37*
G36*
G01*
X4800315Y4324961D02*
X4806772Y4324961D01*
X4806772Y4318504D01*
X4800315Y4318504D01*
X4800315Y4324961D01*
G37*
G36*
G01*
X4800315Y4317087D02*
X4806772Y4317087D01*
X4806772Y4310630D01*
X4800315Y4310630D01*
X4800315Y4317087D01*
G37*
G36*
G01*
X4800315Y4309213D02*
X4806772Y4309213D01*
X4806772Y4302756D01*
X4800315Y4302756D01*
X4800315Y4309213D01*
G37*
G36*
G01*
X4800315Y4294882D02*
X4800315Y4301339D01*
X4806772Y4301339D01*
X4806772Y4294882D01*
X4800315Y4294882D01*
G37*
G36*
G01*
X4571811Y4090709D02*
X4578268Y4090709D01*
X4578268Y4084252D01*
X4571811Y4084252D01*
X4571811Y4090709D01*
G37*
G36*
G01*
X4571811Y4082835D02*
X4578268Y4082835D01*
X4578268Y4076378D01*
X4571811Y4076378D01*
X4571811Y4082835D01*
G37*
G36*
G01*
X4571811Y4067087D02*
X4578268Y4067087D01*
X4578268Y4060630D01*
X4571811Y4060630D01*
X4571811Y4067087D01*
G37*
G36*
G01*
X4571811Y4059213D02*
X4578268Y4059213D01*
X4578268Y4052756D01*
X4571811Y4052756D01*
X4571811Y4059213D01*
G37*
G36*
G01*
X4570394Y4098583D02*
X4570394Y4092126D01*
X4563937Y4092126D01*
X4563937Y4098583D01*
X4570394Y4098583D01*
G37*
G36*
G01*
X4563937Y4074961D02*
X4570394Y4074961D01*
X4570394Y4068504D01*
X4563937Y4068504D01*
X4563937Y4074961D01*
G37*
G36*
G01*
X4563937Y4051339D02*
X4570394Y4051339D01*
X4570394Y4044882D01*
X4563937Y4044882D01*
X4563937Y4051339D01*
G37*
G36*
G01*
X4562520Y4098583D02*
X4562520Y4092126D01*
X4556063Y4092126D01*
X4556063Y4098583D01*
X4562520Y4098583D01*
G37*
G36*
G01*
X4562520Y4074961D02*
X4562520Y4068504D01*
X4556063Y4068504D01*
X4556063Y4074961D01*
X4562520Y4074961D01*
G37*
G36*
G01*
X4556063Y4051339D02*
X4562520Y4051339D01*
X4562520Y4044882D01*
X4556063Y4044882D01*
X4556063Y4051339D01*
G37*
G36*
G01*
X4554646Y4098583D02*
X4554646Y4092126D01*
X4548189Y4092126D01*
X4548189Y4098583D01*
X4554646Y4098583D01*
G37*
G36*
G01*
X4548189Y4074961D02*
X4554646Y4074961D01*
X4554646Y4068504D01*
X4548189Y4068504D01*
X4548189Y4074961D01*
G37*
G36*
G01*
X4548189Y4051339D02*
X4554646Y4051339D01*
X4554646Y4044882D01*
X4548189Y4044882D01*
X4548189Y4051339D01*
G37*
G36*
G01*
X4546772Y4098583D02*
X4546772Y4092126D01*
X4540315Y4092126D01*
X4540315Y4098583D01*
X4546772Y4098583D01*
G37*
G36*
G01*
X4546772Y4074961D02*
X4546772Y4068504D01*
X4540315Y4068504D01*
X4540315Y4074961D01*
X4546772Y4074961D01*
G37*
G36*
G01*
X4546772Y4067087D02*
X4546772Y4060630D01*
X4540315Y4060630D01*
X4540315Y4067087D01*
X4546772Y4067087D01*
G37*
G36*
G01*
X4540315Y4084252D02*
X4540315Y4090709D01*
X4546772Y4090709D01*
X4546772Y4084252D01*
X4540315Y4084252D01*
G37*
G36*
G01*
X4540315Y4082835D02*
X4546772Y4082835D01*
X4546772Y4076378D01*
X4540315Y4076378D01*
X4540315Y4082835D01*
G37*
G36*
G01*
X4540315Y4059213D02*
X4546772Y4059213D01*
X4546772Y4052756D01*
X4540315Y4052756D01*
X4540315Y4059213D01*
G37*
G36*
G01*
X4540315Y4044882D02*
X4540315Y4051339D01*
X4546772Y4051339D01*
X4546772Y4044882D01*
X4540315Y4044882D01*
G37*
G36*
G01*
X3512126Y5051197D02*
X3532142Y5051197D01*
X3532142Y5031181D01*
X3512126Y5031181D01*
X3512126Y5051197D01*
G37*
G36*
G01*
X3512126Y5026787D02*
X3532142Y5026787D01*
X3532142Y5006772D01*
X3512126Y5006772D01*
X3512126Y5026787D01*
G37*
G36*
G01*
X3512126Y4977969D02*
X3532142Y4977969D01*
X3532142Y4957953D01*
X3512126Y4957953D01*
X3512126Y4977969D01*
G37*
G36*
G01*
X3512126Y4933543D02*
X3512126Y4953559D01*
X3532142Y4953559D01*
X3532142Y4933543D01*
X3512126Y4933543D01*
G37*
G36*
G01*
X3487717Y5055591D02*
X3487717Y5075606D01*
X3507732Y5075606D01*
X3507732Y5055591D01*
X3487717Y5055591D01*
G37*
G36*
G01*
X3487717Y5002378D02*
X3507732Y5002378D01*
X3507732Y4982362D01*
X3487717Y4982362D01*
X3487717Y5002378D01*
G37*
G36*
G01*
X3487717Y4929150D02*
X3507732Y4929150D01*
X3507732Y4909134D01*
X3487717Y4909134D01*
X3487717Y4929150D01*
G37*
G36*
G01*
X3463307Y5055591D02*
X3463307Y5075606D01*
X3483323Y5075606D01*
X3483323Y5055591D01*
X3463307Y5055591D01*
G37*
G36*
G01*
X3463307Y5002378D02*
X3483323Y5002378D01*
X3483323Y4982362D01*
X3463307Y4982362D01*
X3463307Y5002378D01*
G37*
G36*
G01*
X3463307Y4929150D02*
X3483323Y4929150D01*
X3483323Y4909134D01*
X3463307Y4909134D01*
X3463307Y4929150D01*
G37*
G36*
G01*
X3438898Y5075606D02*
X3458913Y5075606D01*
X3458913Y5055591D01*
X3438898Y5055591D01*
X3438898Y5075606D01*
G37*
G36*
G01*
X3438898Y5002378D02*
X3458913Y5002378D01*
X3458913Y4982362D01*
X3438898Y4982362D01*
X3438898Y5002378D01*
G37*
G36*
G01*
X3438898Y4929150D02*
X3458913Y4929150D01*
X3458913Y4909134D01*
X3438898Y4909134D01*
X3438898Y4929150D01*
G37*
G36*
G01*
X3434504Y4957953D02*
X3414488Y4957953D01*
X3414488Y4977969D01*
X3434504Y4977969D01*
X3434504Y4957953D01*
G37*
G36*
G01*
X3414488Y5075606D02*
X3434504Y5075606D01*
X3434504Y5055591D01*
X3414488Y5055591D01*
X3414488Y5075606D01*
G37*
G36*
G01*
X3414488Y5031181D02*
X3414488Y5051197D01*
X3434504Y5051197D01*
X3434504Y5031181D01*
X3414488Y5031181D01*
G37*
G36*
G01*
X3414488Y5026787D02*
X3434504Y5026787D01*
X3434504Y5006772D01*
X3414488Y5006772D01*
X3414488Y5026787D01*
G37*
G36*
G01*
X3414488Y4982362D02*
X3414488Y5002378D01*
X3434504Y5002378D01*
X3434504Y4982362D01*
X3414488Y4982362D01*
G37*
G36*
G01*
X3414488Y4953559D02*
X3434504Y4953559D01*
X3434504Y4933543D01*
X3414488Y4933543D01*
X3414488Y4953559D01*
G37*
G36*
G01*
X3414488Y4909134D02*
X3414488Y4929150D01*
X3434504Y4929150D01*
X3434504Y4909134D01*
X3414488Y4909134D01*
G37*
G36*
G01*
X3365669Y5075606D02*
X3385685Y5075606D01*
X3385685Y5055591D01*
X3365669Y5055591D01*
X3365669Y5075606D01*
G37*
G36*
G01*
X3365669Y4957953D02*
X3365669Y4977969D01*
X3385685Y4977969D01*
X3385685Y4957953D01*
X3365669Y4957953D01*
G37*
G36*
G01*
X3365669Y4953559D02*
X3385685Y4953559D01*
X3385685Y4933543D01*
X3365669Y4933543D01*
X3365669Y4953559D01*
G37*
G36*
G01*
X3341260Y5075606D02*
X3361276Y5075606D01*
X3361276Y5055591D01*
X3341260Y5055591D01*
X3341260Y5075606D01*
G37*
G36*
G01*
X3341260Y4982362D02*
X3341260Y5002378D01*
X3361276Y5002378D01*
X3361276Y4982362D01*
X3341260Y4982362D01*
G37*
G36*
G01*
X3341260Y4909134D02*
X3341260Y4929150D01*
X3361276Y4929150D01*
X3361276Y4909134D01*
X3341260Y4909134D01*
G37*
G36*
G01*
X3316850Y5075606D02*
X3336866Y5075606D01*
X3336866Y5055591D01*
X3316850Y5055591D01*
X3316850Y5075606D01*
G37*
G36*
G01*
X3316850Y5002378D02*
X3336866Y5002378D01*
X3336866Y4982362D01*
X3316850Y4982362D01*
X3316850Y5002378D01*
G37*
G36*
G01*
X3316850Y4929150D02*
X3336866Y4929150D01*
X3336866Y4909134D01*
X3316850Y4909134D01*
X3316850Y4929150D01*
G37*
G36*
G01*
X3312457Y4982362D02*
X3292441Y4982362D01*
X3292441Y5002378D01*
X3312457Y5002378D01*
X3312457Y4982362D01*
G37*
G36*
G01*
X3292441Y5075606D02*
X3312457Y5075606D01*
X3312457Y5055591D01*
X3292441Y5055591D01*
X3292441Y5075606D01*
G37*
G36*
G01*
X3292441Y4909134D02*
X3292441Y4929150D01*
X3312457Y4929150D01*
X3312457Y4909134D01*
X3292441Y4909134D01*
G37*
G36*
G01*
X3268031Y5031181D02*
X3268031Y5051197D01*
X3288047Y5051197D01*
X3288047Y5031181D01*
X3268031Y5031181D01*
G37*
G36*
G01*
X3268031Y5006772D02*
X3268031Y5026787D01*
X3288047Y5026787D01*
X3288047Y5006772D01*
X3268031Y5006772D01*
G37*
G36*
G01*
X3268031Y4909134D02*
X3268031Y4929150D01*
X3288047Y4929150D01*
X3288047Y4909134D01*
X3268031Y4909134D01*
G37*
G36*
G01*
X3219213Y5075606D02*
X3239228Y5075606D01*
X3239228Y5055591D01*
X3219213Y5055591D01*
X3219213Y5075606D01*
G37*
G36*
G01*
X3219213Y5051197D02*
X3239228Y5051197D01*
X3239228Y5031181D01*
X3219213Y5031181D01*
X3219213Y5051197D01*
G37*
G36*
G01*
X3219213Y5006772D02*
X3219213Y5026787D01*
X3239228Y5026787D01*
X3239228Y5006772D01*
X3219213Y5006772D01*
G37*
G36*
G01*
X3219213Y4982362D02*
X3219213Y5002378D01*
X3239228Y5002378D01*
X3239228Y4982362D01*
X3219213Y4982362D01*
G37*
G36*
G01*
X3219213Y4957953D02*
X3219213Y4977969D01*
X3239228Y4977969D01*
X3239228Y4957953D01*
X3219213Y4957953D01*
G37*
G36*
G01*
X3219213Y4933543D02*
X3219213Y4953559D01*
X3239228Y4953559D01*
X3239228Y4933543D01*
X3219213Y4933543D01*
G37*
G36*
G01*
X3194803Y4929150D02*
X3214819Y4929150D01*
X3214819Y4909134D01*
X3194803Y4909134D01*
X3194803Y4929150D01*
G37*
G36*
G01*
X3170394Y4909134D02*
X3170394Y4929150D01*
X3190409Y4929150D01*
X3190409Y4909134D01*
X3170394Y4909134D01*
G37*
G36*
G01*
X3145984Y4909134D02*
X3145984Y4929150D01*
X3166000Y4929150D01*
X3166000Y4909134D01*
X3145984Y4909134D01*
G37*
G36*
G01*
X3150709Y5959780D02*
X3157811Y5959780D01*
X3157811Y5952677D01*
X3150709Y5952677D01*
X3150709Y5959780D01*
G37*
G36*
G01*
X3150709Y5951118D02*
X3157811Y5951118D01*
X3157811Y5944016D01*
X3150709Y5944016D01*
X3150709Y5951118D01*
G37*
G36*
G01*
X3150709Y5933795D02*
X3157811Y5933795D01*
X3157811Y5926693D01*
X3150709Y5926693D01*
X3150709Y5933795D01*
G37*
G36*
G01*
X3150709Y5925134D02*
X3157811Y5925134D01*
X3157811Y5918031D01*
X3150709Y5918031D01*
X3150709Y5925134D01*
G37*
G36*
G01*
X3142047Y5968441D02*
X3149150Y5968441D01*
X3149150Y5961339D01*
X3142047Y5961339D01*
X3142047Y5968441D01*
G37*
G36*
G01*
X3142047Y5942457D02*
X3149150Y5942457D01*
X3149150Y5935354D01*
X3142047Y5935354D01*
X3142047Y5942457D01*
G37*
G36*
G01*
X3142047Y5909370D02*
X3142047Y5916472D01*
X3149150Y5916472D01*
X3149150Y5909370D01*
X3142047Y5909370D01*
G37*
G36*
G01*
X3141591Y5055591D02*
X3121575Y5055591D01*
X3121575Y5075606D01*
X3141591Y5075606D01*
X3141591Y5055591D01*
G37*
G36*
G01*
X3121575Y5031181D02*
X3121575Y5051197D01*
X3141591Y5051197D01*
X3141591Y5031181D01*
X3121575Y5031181D01*
G37*
G36*
G01*
X3121575Y5026787D02*
X3141591Y5026787D01*
X3141591Y5006772D01*
X3121575Y5006772D01*
X3121575Y5026787D01*
G37*
G36*
G01*
X3121575Y5002378D02*
X3141591Y5002378D01*
X3141591Y4982362D01*
X3121575Y4982362D01*
X3121575Y5002378D01*
G37*
G36*
G01*
X3121575Y4957953D02*
X3121575Y4977969D01*
X3141591Y4977969D01*
X3141591Y4957953D01*
X3121575Y4957953D01*
G37*
G36*
G01*
X3121575Y4933543D02*
X3121575Y4953559D01*
X3141591Y4953559D01*
X3141591Y4933543D01*
X3121575Y4933543D01*
G37*
G36*
G01*
X3133386Y5968441D02*
X3140488Y5968441D01*
X3140488Y5961339D01*
X3133386Y5961339D01*
X3133386Y5968441D01*
G37*
G36*
G01*
X3133386Y5942457D02*
X3140488Y5942457D01*
X3140488Y5935354D01*
X3133386Y5935354D01*
X3133386Y5942457D01*
G37*
G36*
G01*
X3133386Y5916472D02*
X3140488Y5916472D01*
X3140488Y5909370D01*
X3133386Y5909370D01*
X3133386Y5916472D01*
G37*
G36*
G01*
X3124724Y5968441D02*
X3131827Y5968441D01*
X3131827Y5961339D01*
X3124724Y5961339D01*
X3124724Y5968441D01*
G37*
G36*
G01*
X3124724Y5942457D02*
X3131827Y5942457D01*
X3131827Y5935354D01*
X3124724Y5935354D01*
X3124724Y5942457D01*
G37*
G36*
G01*
X3124724Y5916472D02*
X3131827Y5916472D01*
X3131827Y5909370D01*
X3124724Y5909370D01*
X3124724Y5916472D01*
G37*
G36*
G01*
X3116063Y5961339D02*
X3116063Y5968441D01*
X3123165Y5968441D01*
X3123165Y5961339D01*
X3116063Y5961339D01*
G37*
G36*
G01*
X3116063Y5952677D02*
X3116063Y5959780D01*
X3123165Y5959780D01*
X3123165Y5952677D01*
X3116063Y5952677D01*
G37*
G36*
G01*
X3116063Y5951118D02*
X3123165Y5951118D01*
X3123165Y5944016D01*
X3116063Y5944016D01*
X3116063Y5951118D01*
G37*
G36*
G01*
X3116063Y5942457D02*
X3123165Y5942457D01*
X3123165Y5935354D01*
X3116063Y5935354D01*
X3116063Y5942457D01*
G37*
G36*
G01*
X3116063Y5933795D02*
X3123165Y5933795D01*
X3123165Y5926693D01*
X3116063Y5926693D01*
X3116063Y5933795D01*
G37*
G36*
G01*
X3116063Y5925134D02*
X3123165Y5925134D01*
X3123165Y5918031D01*
X3116063Y5918031D01*
X3116063Y5925134D01*
G37*
G36*
G01*
X3116063Y5916472D02*
X3123165Y5916472D01*
X3123165Y5909370D01*
X3116063Y5909370D01*
X3116063Y5916472D01*
G37*
G36*
G01*
X3046772Y5968441D02*
X3053874Y5968441D01*
X3053874Y5961339D01*
X3046772Y5961339D01*
X3046772Y5968441D01*
G37*
G36*
G01*
X3046772Y5959780D02*
X3053874Y5959780D01*
X3053874Y5952677D01*
X3046772Y5952677D01*
X3046772Y5959780D01*
G37*
G36*
G01*
X3046772Y5951118D02*
X3053874Y5951118D01*
X3053874Y5944016D01*
X3046772Y5944016D01*
X3046772Y5951118D01*
G37*
G36*
G01*
X3046772Y5942457D02*
X3053874Y5942457D01*
X3053874Y5935354D01*
X3046772Y5935354D01*
X3046772Y5942457D01*
G37*
G36*
G01*
X3046772Y5933795D02*
X3053874Y5933795D01*
X3053874Y5926693D01*
X3046772Y5926693D01*
X3046772Y5933795D01*
G37*
G36*
G01*
X3038110Y5925134D02*
X3045213Y5925134D01*
X3045213Y5918031D01*
X3038110Y5918031D01*
X3038110Y5925134D01*
G37*
G36*
G01*
X3029449Y5916472D02*
X3036551Y5916472D01*
X3036551Y5909370D01*
X3029449Y5909370D01*
X3029449Y5916472D01*
G37*
G36*
G01*
X3020787Y5925134D02*
X3027890Y5925134D01*
X3027890Y5918031D01*
X3020787Y5918031D01*
X3020787Y5925134D01*
G37*
G36*
G01*
X3019228Y5926693D02*
X3012126Y5926693D01*
X3012126Y5933795D01*
X3019228Y5933795D01*
X3019228Y5926693D01*
G37*
G36*
G01*
X3012126Y5968441D02*
X3019228Y5968441D01*
X3019228Y5961339D01*
X3012126Y5961339D01*
X3012126Y5968441D01*
G37*
G36*
G01*
X3012126Y5959780D02*
X3019228Y5959780D01*
X3019228Y5952677D01*
X3012126Y5952677D01*
X3012126Y5959780D01*
G37*
G36*
G01*
X3012126Y5951118D02*
X3019228Y5951118D01*
X3019228Y5944016D01*
X3012126Y5944016D01*
X3012126Y5951118D01*
G37*
G36*
G01*
X3012126Y5942457D02*
X3019228Y5942457D01*
X3019228Y5935354D01*
X3012126Y5935354D01*
X3012126Y5942457D01*
G37*
G36*
G01*
X2994803Y5968441D02*
X3001906Y5968441D01*
X3001906Y5961339D01*
X2994803Y5961339D01*
X2994803Y5968441D01*
G37*
G36*
G01*
X2994803Y5916472D02*
X3001906Y5916472D01*
X3001906Y5909370D01*
X2994803Y5909370D01*
X2994803Y5916472D01*
G37*
G36*
G01*
X2986142Y5968441D02*
X2993244Y5968441D01*
X2993244Y5961339D01*
X2986142Y5961339D01*
X2986142Y5968441D01*
G37*
G36*
G01*
X2986142Y5942457D02*
X2993244Y5942457D01*
X2993244Y5935354D01*
X2986142Y5935354D01*
X2986142Y5942457D01*
G37*
G36*
G01*
X2986142Y5909370D02*
X2986142Y5916472D01*
X2993244Y5916472D01*
X2993244Y5909370D01*
X2986142Y5909370D01*
G37*
G36*
G01*
X2977480Y5968441D02*
X2984583Y5968441D01*
X2984583Y5961339D01*
X2977480Y5961339D01*
X2977480Y5968441D01*
G37*
G36*
G01*
X2977480Y5942457D02*
X2984583Y5942457D01*
X2984583Y5935354D01*
X2977480Y5935354D01*
X2977480Y5942457D01*
G37*
G36*
G01*
X2977480Y5916472D02*
X2984583Y5916472D01*
X2984583Y5909370D01*
X2977480Y5909370D01*
X2977480Y5916472D01*
G37*
G36*
G01*
X2968819Y5968441D02*
X2975921Y5968441D01*
X2975921Y5961339D01*
X2968819Y5961339D01*
X2968819Y5968441D01*
G37*
G36*
G01*
X2968819Y5942457D02*
X2975921Y5942457D01*
X2975921Y5935354D01*
X2968819Y5935354D01*
X2968819Y5942457D01*
G37*
G36*
G01*
X2968819Y5916472D02*
X2975921Y5916472D01*
X2975921Y5909370D01*
X2968819Y5909370D01*
X2968819Y5916472D01*
G37*
G36*
G01*
X2960157Y5968441D02*
X2967260Y5968441D01*
X2967260Y5961339D01*
X2960157Y5961339D01*
X2960157Y5968441D01*
G37*
G36*
G01*
X2960157Y5959780D02*
X2967260Y5959780D01*
X2967260Y5952677D01*
X2960157Y5952677D01*
X2960157Y5959780D01*
G37*
G36*
G01*
X2960157Y5951118D02*
X2967260Y5951118D01*
X2967260Y5944016D01*
X2960157Y5944016D01*
X2960157Y5951118D01*
G37*
G36*
G01*
X2960157Y5942457D02*
X2967260Y5942457D01*
X2967260Y5935354D01*
X2960157Y5935354D01*
X2960157Y5942457D01*
G37*
G36*
G01*
X2960157Y5933795D02*
X2967260Y5933795D01*
X2967260Y5926693D01*
X2960157Y5926693D01*
X2960157Y5933795D01*
G37*
G36*
G01*
X2960157Y5918031D02*
X2960157Y5925134D01*
X2967260Y5925134D01*
X2967260Y5918031D01*
X2960157Y5918031D01*
G37*
G36*
G01*
X2960157Y5916472D02*
X2967260Y5916472D01*
X2967260Y5909370D01*
X2960157Y5909370D01*
X2960157Y5916472D01*
G37*
G36*
G01*
X2942835Y5959780D02*
X2949937Y5959780D01*
X2949937Y5952677D01*
X2942835Y5952677D01*
X2942835Y5959780D01*
G37*
G36*
G01*
X2942835Y5951118D02*
X2949937Y5951118D01*
X2949937Y5944016D01*
X2942835Y5944016D01*
X2942835Y5951118D01*
G37*
G36*
G01*
X2942835Y5916472D02*
X2949937Y5916472D01*
X2949937Y5909370D01*
X2942835Y5909370D01*
X2942835Y5916472D01*
G37*
G36*
G01*
X2926299Y5055591D02*
X2926299Y5075606D01*
X2946315Y5075606D01*
X2946315Y5055591D01*
X2926299Y5055591D01*
G37*
G36*
G01*
X2926299Y4982362D02*
X2926299Y5002378D01*
X2946315Y5002378D01*
X2946315Y4982362D01*
X2926299Y4982362D01*
G37*
G36*
G01*
X2926299Y4957953D02*
X2926299Y4977969D01*
X2946315Y4977969D01*
X2946315Y4957953D01*
X2926299Y4957953D01*
G37*
G36*
G01*
X2926299Y4953559D02*
X2946315Y4953559D01*
X2946315Y4933543D01*
X2926299Y4933543D01*
X2926299Y4953559D01*
G37*
G36*
G01*
X2926299Y4909134D02*
X2926299Y4929150D01*
X2946315Y4929150D01*
X2946315Y4909134D01*
X2926299Y4909134D01*
G37*
G36*
G01*
X2934173Y5942457D02*
X2941276Y5942457D01*
X2941276Y5935354D01*
X2934173Y5935354D01*
X2934173Y5942457D01*
G37*
G36*
G01*
X2934173Y5925134D02*
X2941276Y5925134D01*
X2941276Y5918031D01*
X2934173Y5918031D01*
X2934173Y5925134D01*
G37*
G36*
G01*
X2934173Y5968441D02*
X2941276Y5968441D01*
X2941276Y5961339D01*
X2934173Y5961339D01*
X2934173Y5968441D01*
G37*
G36*
G01*
X2925512Y5968441D02*
X2932614Y5968441D01*
X2932614Y5961339D01*
X2925512Y5961339D01*
X2925512Y5968441D01*
G37*
G36*
G01*
X2925512Y5942457D02*
X2932614Y5942457D01*
X2932614Y5935354D01*
X2925512Y5935354D01*
X2925512Y5942457D01*
G37*
G36*
G01*
X2925512Y5933795D02*
X2932614Y5933795D01*
X2932614Y5926693D01*
X2925512Y5926693D01*
X2925512Y5933795D01*
G37*
G36*
G01*
X2916850Y5968441D02*
X2923953Y5968441D01*
X2923953Y5961339D01*
X2916850Y5961339D01*
X2916850Y5968441D01*
G37*
G36*
G01*
X2916850Y5942457D02*
X2923953Y5942457D01*
X2923953Y5935354D01*
X2916850Y5935354D01*
X2916850Y5942457D01*
G37*
G36*
G01*
X2901890Y4909134D02*
X2901890Y4929150D01*
X2921906Y4929150D01*
X2921906Y4909134D01*
X2901890Y4909134D01*
G37*
G36*
G01*
X2901890Y5002378D02*
X2921906Y5002378D01*
X2921906Y4982362D01*
X2901890Y4982362D01*
X2901890Y5002378D01*
G37*
G36*
G01*
X2901890Y5075606D02*
X2921906Y5075606D01*
X2921906Y5055591D01*
X2901890Y5055591D01*
X2901890Y5075606D01*
G37*
G36*
G01*
X2908189Y5942457D02*
X2915291Y5942457D01*
X2915291Y5935354D01*
X2908189Y5935354D01*
X2908189Y5942457D01*
G37*
G36*
G01*
X2908189Y5933795D02*
X2915291Y5933795D01*
X2915291Y5926693D01*
X2908189Y5926693D01*
X2908189Y5933795D01*
G37*
G36*
G01*
X2908189Y5925134D02*
X2915291Y5925134D01*
X2915291Y5918031D01*
X2908189Y5918031D01*
X2908189Y5925134D01*
G37*
G36*
G01*
X2908189Y5916472D02*
X2915291Y5916472D01*
X2915291Y5909370D01*
X2908189Y5909370D01*
X2908189Y5916472D01*
G37*
G36*
G01*
X2908189Y5944016D02*
X2908189Y5951118D01*
X2915291Y5951118D01*
X2915291Y5944016D01*
X2908189Y5944016D01*
G37*
G36*
G01*
X2908189Y5952677D02*
X2908189Y5959780D01*
X2915291Y5959780D01*
X2915291Y5952677D01*
X2908189Y5952677D01*
G37*
G36*
G01*
X2908189Y5961339D02*
X2908189Y5968441D01*
X2915291Y5968441D01*
X2915291Y5961339D01*
X2908189Y5961339D01*
G37*
G36*
G01*
X2877480Y5075606D02*
X2897496Y5075606D01*
X2897496Y5055591D01*
X2877480Y5055591D01*
X2877480Y5075606D01*
G37*
G36*
G01*
X2877480Y5002378D02*
X2897496Y5002378D01*
X2897496Y4982362D01*
X2877480Y4982362D01*
X2877480Y5002378D01*
G37*
G36*
G01*
X2877480Y4909134D02*
X2877480Y4929150D01*
X2897496Y4929150D01*
X2897496Y4909134D01*
X2877480Y4909134D01*
G37*
G36*
G01*
X2853071Y4929150D02*
X2873087Y4929150D01*
X2873087Y4909134D01*
X2853071Y4909134D01*
X2853071Y4929150D01*
G37*
G36*
G01*
X2853071Y5075606D02*
X2873087Y5075606D01*
X2873087Y5055591D01*
X2853071Y5055591D01*
X2853071Y5075606D01*
G37*
G36*
G01*
X2868929Y3803465D02*
X2864409Y3803465D01*
X2864409Y3807984D01*
X2868929Y3807984D01*
X2868929Y3803465D01*
G37*
G36*
G01*
X2864409Y3808976D02*
X2864409Y3813496D01*
X2868929Y3813496D01*
X2868929Y3808976D01*
X2864409Y3808976D01*
G37*
G36*
G01*
X2864409Y3781417D02*
X2864409Y3785937D01*
X2868929Y3785937D01*
X2868929Y3781417D01*
X2864409Y3781417D01*
G37*
G36*
G01*
X2858898Y3786929D02*
X2858898Y3791449D01*
X2863417Y3791449D01*
X2863417Y3786929D01*
X2858898Y3786929D01*
G37*
G36*
G01*
X2858898Y3797953D02*
X2858898Y3802472D01*
X2863417Y3802472D01*
X2863417Y3797953D01*
X2858898Y3797953D01*
G37*
G36*
G01*
X2858898Y3814488D02*
X2858898Y3819008D01*
X2863417Y3819008D01*
X2863417Y3814488D01*
X2858898Y3814488D01*
G37*
G36*
G01*
X2857906Y3819008D02*
X2857906Y3814488D01*
X2853386Y3814488D01*
X2853386Y3819008D01*
X2857906Y3819008D01*
G37*
G36*
G01*
X2857906Y3797953D02*
X2853386Y3797953D01*
X2853386Y3802472D01*
X2857906Y3802472D01*
X2857906Y3797953D01*
G37*
G36*
G01*
X2857906Y3792441D02*
X2853386Y3792441D01*
X2853386Y3796961D01*
X2857906Y3796961D01*
X2857906Y3792441D01*
G37*
G36*
G01*
X2852394Y3802472D02*
X2852394Y3797953D01*
X2847874Y3797953D01*
X2847874Y3802472D01*
X2852394Y3802472D01*
G37*
G36*
G01*
X2847874Y3814488D02*
X2847874Y3819008D01*
X2852394Y3819008D01*
X2852394Y3814488D01*
X2847874Y3814488D01*
G37*
G36*
G01*
X2828661Y4953559D02*
X2848677Y4953559D01*
X2848677Y4933543D01*
X2828661Y4933543D01*
X2828661Y4953559D01*
G37*
G36*
G01*
X2828661Y4957953D02*
X2828661Y4977969D01*
X2848677Y4977969D01*
X2848677Y4957953D01*
X2828661Y4957953D01*
G37*
G36*
G01*
X2828661Y5002378D02*
X2848677Y5002378D01*
X2848677Y4982362D01*
X2828661Y4982362D01*
X2828661Y5002378D01*
G37*
G36*
G01*
X2828661Y5026787D02*
X2848677Y5026787D01*
X2848677Y5006772D01*
X2828661Y5006772D01*
X2828661Y5026787D01*
G37*
G36*
G01*
X2828661Y5031181D02*
X2828661Y5051197D01*
X2848677Y5051197D01*
X2848677Y5031181D01*
X2828661Y5031181D01*
G37*
G36*
G01*
X2842362Y3797953D02*
X2842362Y3802472D01*
X2846882Y3802472D01*
X2846882Y3797953D01*
X2842362Y3797953D01*
G37*
G36*
G01*
X2842362Y3814488D02*
X2842362Y3819008D01*
X2846882Y3819008D01*
X2846882Y3814488D01*
X2842362Y3814488D01*
G37*
G36*
G01*
X2846882Y3781417D02*
X2842362Y3781417D01*
X2842362Y3785937D01*
X2846882Y3785937D01*
X2846882Y3781417D01*
G37*
G36*
G01*
X2846882Y3786929D02*
X2842362Y3786929D01*
X2842362Y3791449D01*
X2846882Y3791449D01*
X2846882Y3786929D01*
G37*
G36*
G01*
X2846882Y3792441D02*
X2842362Y3792441D01*
X2842362Y3796961D01*
X2846882Y3796961D01*
X2846882Y3792441D01*
G37*
G36*
G01*
X2846882Y3803465D02*
X2842362Y3803465D01*
X2842362Y3807984D01*
X2846882Y3807984D01*
X2846882Y3803465D01*
G37*
G36*
G01*
X2846882Y3808976D02*
X2842362Y3808976D01*
X2842362Y3813496D01*
X2846882Y3813496D01*
X2846882Y3808976D01*
G37*
G36*
G01*
X2838898Y5942457D02*
X2846000Y5942457D01*
X2846000Y5935354D01*
X2838898Y5935354D01*
X2838898Y5942457D01*
G37*
G36*
G01*
X2830236Y5935354D02*
X2830236Y5942457D01*
X2837339Y5942457D01*
X2837339Y5935354D01*
X2830236Y5935354D01*
G37*
G36*
G01*
X2831339Y3814488D02*
X2831339Y3819008D01*
X2835858Y3819008D01*
X2835858Y3814488D01*
X2831339Y3814488D01*
G37*
G36*
G01*
X2831339Y3781417D02*
X2831339Y3785937D01*
X2835858Y3785937D01*
X2835858Y3781417D01*
X2831339Y3781417D01*
G37*
G36*
G01*
X2830346Y3814488D02*
X2825827Y3814488D01*
X2825827Y3819008D01*
X2830346Y3819008D01*
X2830346Y3814488D01*
G37*
G36*
G01*
X2825827Y3797953D02*
X2825827Y3802472D01*
X2830346Y3802472D01*
X2830346Y3797953D01*
X2825827Y3797953D01*
G37*
G36*
G01*
X2825827Y3781417D02*
X2825827Y3785937D01*
X2830346Y3785937D01*
X2830346Y3781417D01*
X2825827Y3781417D01*
G37*
G36*
G01*
X2821575Y5942457D02*
X2828677Y5942457D01*
X2828677Y5935354D01*
X2821575Y5935354D01*
X2821575Y5942457D01*
G37*
G36*
G01*
X2824835Y3781417D02*
X2820315Y3781417D01*
X2820315Y3785937D01*
X2824835Y3785937D01*
X2824835Y3781417D01*
G37*
G36*
G01*
X2824835Y3797953D02*
X2820315Y3797953D01*
X2820315Y3802472D01*
X2824835Y3802472D01*
X2824835Y3797953D01*
G37*
G36*
G01*
X2820315Y3814488D02*
X2820315Y3819008D01*
X2824835Y3819008D01*
X2824835Y3814488D01*
X2820315Y3814488D01*
G37*
G36*
G01*
X2812913Y5942457D02*
X2820016Y5942457D01*
X2820016Y5935354D01*
X2812913Y5935354D01*
X2812913Y5942457D01*
G37*
G36*
G01*
X2814803Y3814488D02*
X2814803Y3819008D01*
X2819323Y3819008D01*
X2819323Y3814488D01*
X2814803Y3814488D01*
G37*
G36*
G01*
X2814803Y3797953D02*
X2814803Y3802472D01*
X2819323Y3802472D01*
X2819323Y3797953D01*
X2814803Y3797953D01*
G37*
G36*
G01*
X2814803Y3781417D02*
X2814803Y3785937D01*
X2819323Y3785937D01*
X2819323Y3781417D01*
X2814803Y3781417D01*
G37*
G36*
G01*
X2813811Y3819008D02*
X2813811Y3814488D01*
X2809291Y3814488D01*
X2809291Y3819008D01*
X2813811Y3819008D01*
G37*
G36*
G01*
X2813811Y3803465D02*
X2809291Y3803465D01*
X2809291Y3807984D01*
X2813811Y3807984D01*
X2813811Y3803465D01*
G37*
G36*
G01*
X2813811Y3797953D02*
X2809291Y3797953D01*
X2809291Y3802472D01*
X2813811Y3802472D01*
X2813811Y3797953D01*
G37*
G36*
G01*
X2813811Y3792441D02*
X2809291Y3792441D01*
X2809291Y3796961D01*
X2813811Y3796961D01*
X2813811Y3792441D01*
G37*
G36*
G01*
X2813811Y3786929D02*
X2809291Y3786929D01*
X2809291Y3791449D01*
X2813811Y3791449D01*
X2813811Y3786929D01*
G37*
G36*
G01*
X2813811Y3781417D02*
X2809291Y3781417D01*
X2809291Y3785937D01*
X2813811Y3785937D01*
X2813811Y3781417D01*
G37*
G36*
G01*
X2809291Y3808976D02*
X2809291Y3813496D01*
X2813811Y3813496D01*
X2813811Y3808976D01*
X2809291Y3808976D01*
G37*
G36*
G01*
X2804252Y5942457D02*
X2811354Y5942457D01*
X2811354Y5935354D01*
X2804252Y5935354D01*
X2804252Y5942457D01*
G37*
G36*
G01*
X2802787Y3814488D02*
X2798268Y3814488D01*
X2798268Y3819008D01*
X2802787Y3819008D01*
X2802787Y3814488D01*
G37*
G36*
G01*
X2802787Y3808976D02*
X2798268Y3808976D01*
X2798268Y3813496D01*
X2802787Y3813496D01*
X2802787Y3808976D01*
G37*
G36*
G01*
X2802787Y3797953D02*
X2798268Y3797953D01*
X2798268Y3802472D01*
X2802787Y3802472D01*
X2802787Y3797953D01*
G37*
G36*
G01*
X2802787Y3786929D02*
X2798268Y3786929D01*
X2798268Y3791449D01*
X2802787Y3791449D01*
X2802787Y3786929D01*
G37*
G36*
G01*
X2798268Y3803465D02*
X2798268Y3807984D01*
X2802787Y3807984D01*
X2802787Y3803465D01*
X2798268Y3803465D01*
G37*
G36*
G01*
X2798268Y3792441D02*
X2798268Y3796961D01*
X2802787Y3796961D01*
X2802787Y3792441D01*
X2798268Y3792441D01*
G37*
G36*
G01*
X2779843Y4929150D02*
X2799858Y4929150D01*
X2799858Y4909134D01*
X2779843Y4909134D01*
X2779843Y4929150D01*
G37*
G36*
G01*
X2779843Y5075606D02*
X2799858Y5075606D01*
X2799858Y5055591D01*
X2779843Y5055591D01*
X2779843Y5075606D01*
G37*
G36*
G01*
X2779843Y4933543D02*
X2779843Y4953559D01*
X2799858Y4953559D01*
X2799858Y4933543D01*
X2779843Y4933543D01*
G37*
G36*
G01*
X2779843Y4977969D02*
X2799858Y4977969D01*
X2799858Y4957953D01*
X2779843Y4957953D01*
X2779843Y4977969D01*
G37*
G36*
G01*
X2779843Y5002378D02*
X2799858Y5002378D01*
X2799858Y4982362D01*
X2779843Y4982362D01*
X2779843Y5002378D01*
G37*
G36*
G01*
X2779843Y5006772D02*
X2779843Y5026787D01*
X2799858Y5026787D01*
X2799858Y5006772D01*
X2779843Y5006772D01*
G37*
G36*
G01*
X2779843Y5031181D02*
X2779843Y5051197D01*
X2799858Y5051197D01*
X2799858Y5031181D01*
X2779843Y5031181D01*
G37*
G36*
G01*
X2792756Y3781417D02*
X2792756Y3785937D01*
X2797276Y3785937D01*
X2797276Y3781417D01*
X2792756Y3781417D01*
G37*
G36*
G01*
X2787244Y3792441D02*
X2787244Y3796961D01*
X2791764Y3796961D01*
X2791764Y3792441D01*
X2787244Y3792441D01*
G37*
G36*
G01*
X2787244Y3786929D02*
X2787244Y3791449D01*
X2791764Y3791449D01*
X2791764Y3786929D01*
X2787244Y3786929D01*
G37*
G36*
G01*
X2787244Y3797953D02*
X2787244Y3802472D01*
X2791764Y3802472D01*
X2791764Y3797953D01*
X2787244Y3797953D01*
G37*
G36*
G01*
X2781732Y3781417D02*
X2781732Y3785937D01*
X2786252Y3785937D01*
X2786252Y3781417D01*
X2781732Y3781417D01*
G37*
G36*
G01*
X2780740Y3786929D02*
X2776220Y3786929D01*
X2776220Y3791449D01*
X2780740Y3791449D01*
X2780740Y3786929D01*
G37*
G36*
G01*
X2780740Y3792441D02*
X2776220Y3792441D01*
X2776220Y3796961D01*
X2780740Y3796961D01*
X2780740Y3792441D01*
G37*
G36*
G01*
X2780740Y3808976D02*
X2776220Y3808976D01*
X2776220Y3813496D01*
X2780740Y3813496D01*
X2780740Y3808976D01*
G37*
G36*
G01*
X2780740Y3814488D02*
X2776220Y3814488D01*
X2776220Y3819008D01*
X2780740Y3819008D01*
X2780740Y3814488D01*
G37*
G36*
G01*
X2776220Y3803465D02*
X2776220Y3807984D01*
X2780740Y3807984D01*
X2780740Y3803465D01*
X2776220Y3803465D01*
G37*
G36*
G01*
X2776220Y3797953D02*
X2776220Y3802472D01*
X2780740Y3802472D01*
X2780740Y3797953D01*
X2776220Y3797953D01*
G37*
G36*
G01*
X2755433Y4982362D02*
X2755433Y5002378D01*
X2775449Y5002378D01*
X2775449Y4982362D01*
X2755433Y4982362D01*
G37*
G36*
G01*
X2769717Y3797953D02*
X2765197Y3797953D01*
X2765197Y3802472D01*
X2769717Y3802472D01*
X2769717Y3797953D01*
G37*
G36*
G01*
X2769717Y3792441D02*
X2765197Y3792441D01*
X2765197Y3796961D01*
X2769717Y3796961D01*
X2769717Y3792441D01*
G37*
G36*
G01*
X2765197Y3808976D02*
X2765197Y3813496D01*
X2769717Y3813496D01*
X2769717Y3808976D01*
X2765197Y3808976D01*
G37*
G36*
G01*
X2765197Y3803465D02*
X2765197Y3807984D01*
X2769717Y3807984D01*
X2769717Y3803465D01*
X2765197Y3803465D01*
G37*
G36*
G01*
X2765197Y3786929D02*
X2765197Y3791449D01*
X2769717Y3791449D01*
X2769717Y3786929D01*
X2765197Y3786929D01*
G37*
G36*
G01*
X2764205Y3814488D02*
X2759685Y3814488D01*
X2759685Y3819008D01*
X2764205Y3819008D01*
X2764205Y3814488D01*
G37*
G36*
G01*
X2764205Y3781417D02*
X2759685Y3781417D01*
X2759685Y3785937D01*
X2764205Y3785937D01*
X2764205Y3781417D01*
G37*
G36*
G01*
X2758693Y3781417D02*
X2754173Y3781417D01*
X2754173Y3785937D01*
X2758693Y3785937D01*
X2758693Y3781417D01*
G37*
G36*
G01*
X2754173Y3814488D02*
X2754173Y3819008D01*
X2758693Y3819008D01*
X2758693Y3814488D01*
X2754173Y3814488D01*
G37*
G36*
G01*
X2753181Y3814488D02*
X2748661Y3814488D01*
X2748661Y3819008D01*
X2753181Y3819008D01*
X2753181Y3814488D01*
G37*
G36*
G01*
X2753181Y3781417D02*
X2748661Y3781417D01*
X2748661Y3785937D01*
X2753181Y3785937D01*
X2753181Y3781417D01*
G37*
G36*
G01*
X2731024Y5026787D02*
X2751039Y5026787D01*
X2751039Y5006772D01*
X2731024Y5006772D01*
X2731024Y5026787D01*
G37*
G36*
G01*
X2747669Y3791449D02*
X2747669Y3786929D01*
X2743150Y3786929D01*
X2743150Y3791449D01*
X2747669Y3791449D01*
G37*
G36*
G01*
X2743150Y3808976D02*
X2743150Y3813496D01*
X2747669Y3813496D01*
X2747669Y3808976D01*
X2743150Y3808976D01*
G37*
G36*
G01*
X2743150Y3792441D02*
X2743150Y3796961D01*
X2747669Y3796961D01*
X2747669Y3792441D01*
X2743150Y3792441D01*
G37*
G36*
G01*
X2747669Y3807984D02*
X2747669Y3803465D01*
X2743150Y3803465D01*
X2743150Y3807984D01*
X2747669Y3807984D01*
G37*
G36*
G01*
X2747669Y3797953D02*
X2743150Y3797953D01*
X2743150Y3802472D01*
X2747669Y3802472D01*
X2747669Y3797953D01*
G37*
G36*
G01*
X2734961Y5959780D02*
X2742063Y5959780D01*
X2742063Y5952677D01*
X2734961Y5952677D01*
X2734961Y5959780D01*
G37*
G36*
G01*
X2734961Y5951118D02*
X2742063Y5951118D01*
X2742063Y5944016D01*
X2734961Y5944016D01*
X2734961Y5951118D01*
G37*
G36*
G01*
X2734961Y5942457D02*
X2742063Y5942457D01*
X2742063Y5935354D01*
X2734961Y5935354D01*
X2734961Y5942457D01*
G37*
G36*
G01*
X2734961Y5933795D02*
X2742063Y5933795D01*
X2742063Y5926693D01*
X2734961Y5926693D01*
X2734961Y5933795D01*
G37*
G36*
G01*
X2734961Y5925134D02*
X2742063Y5925134D01*
X2742063Y5918031D01*
X2734961Y5918031D01*
X2734961Y5925134D01*
G37*
G36*
G01*
X2736646Y3813496D02*
X2736646Y3808976D01*
X2732126Y3808976D01*
X2732126Y3813496D01*
X2736646Y3813496D01*
G37*
G36*
G01*
X2732126Y3803465D02*
X2732126Y3807984D01*
X2736646Y3807984D01*
X2736646Y3803465D01*
X2732126Y3803465D01*
G37*
G36*
G01*
X2726299Y5961339D02*
X2726299Y5968441D01*
X2733402Y5968441D01*
X2733402Y5961339D01*
X2726299Y5961339D01*
G37*
G36*
G01*
X2726299Y5916472D02*
X2733402Y5916472D01*
X2733402Y5909370D01*
X2726299Y5909370D01*
X2726299Y5916472D01*
G37*
G36*
G01*
X2726614Y3797953D02*
X2726614Y3802472D01*
X2731134Y3802472D01*
X2731134Y3797953D01*
X2726614Y3797953D01*
G37*
G36*
G01*
X2731134Y3814488D02*
X2726614Y3814488D01*
X2726614Y3819008D01*
X2731134Y3819008D01*
X2731134Y3814488D01*
G37*
G36*
G01*
X2706614Y5051197D02*
X2726630Y5051197D01*
X2726630Y5031181D01*
X2706614Y5031181D01*
X2706614Y5051197D01*
G37*
G36*
G01*
X2725622Y3814488D02*
X2721102Y3814488D01*
X2721102Y3819008D01*
X2725622Y3819008D01*
X2725622Y3814488D01*
G37*
G36*
G01*
X2725622Y3797953D02*
X2721102Y3797953D01*
X2721102Y3802472D01*
X2725622Y3802472D01*
X2725622Y3797953D01*
G37*
G36*
G01*
X2717638Y5968441D02*
X2724740Y5968441D01*
X2724740Y5961339D01*
X2717638Y5961339D01*
X2717638Y5968441D01*
G37*
G36*
G01*
X2717638Y5909370D02*
X2717638Y5916472D01*
X2724740Y5916472D01*
X2724740Y5909370D01*
X2717638Y5909370D01*
G37*
G36*
G01*
X2720110Y3802472D02*
X2720110Y3797953D01*
X2715591Y3797953D01*
X2715591Y3802472D01*
X2720110Y3802472D01*
G37*
G36*
G01*
X2715591Y3814488D02*
X2715591Y3819008D01*
X2720110Y3819008D01*
X2720110Y3814488D01*
X2715591Y3814488D01*
G37*
G36*
G01*
X2708976Y5909370D02*
X2708976Y5916472D01*
X2716079Y5916472D01*
X2716079Y5909370D01*
X2708976Y5909370D01*
G37*
G36*
G01*
X2708976Y5968441D02*
X2716079Y5968441D01*
X2716079Y5961339D01*
X2708976Y5961339D01*
X2708976Y5968441D01*
G37*
G36*
G01*
X2710079Y3797953D02*
X2710079Y3802472D01*
X2714598Y3802472D01*
X2714598Y3797953D01*
X2710079Y3797953D01*
G37*
G36*
G01*
X2710079Y3808976D02*
X2710079Y3813496D01*
X2714598Y3813496D01*
X2714598Y3808976D01*
X2710079Y3808976D01*
G37*
G36*
G01*
X2710079Y3803465D02*
X2710079Y3807984D01*
X2714598Y3807984D01*
X2714598Y3803465D01*
X2710079Y3803465D01*
G37*
G36*
G01*
X2714598Y3781417D02*
X2710079Y3781417D01*
X2710079Y3785937D01*
X2714598Y3785937D01*
X2714598Y3781417D01*
G37*
G36*
G01*
X2714598Y3786929D02*
X2710079Y3786929D01*
X2710079Y3791449D01*
X2714598Y3791449D01*
X2714598Y3786929D01*
G37*
G36*
G01*
X2714598Y3792441D02*
X2710079Y3792441D01*
X2710079Y3796961D01*
X2714598Y3796961D01*
X2714598Y3792441D01*
G37*
G36*
G01*
X2714598Y3814488D02*
X2710079Y3814488D01*
X2710079Y3819008D01*
X2714598Y3819008D01*
X2714598Y3814488D01*
G37*
G36*
G01*
X2700315Y5968441D02*
X2707417Y5968441D01*
X2707417Y5961339D01*
X2700315Y5961339D01*
X2700315Y5968441D01*
G37*
G36*
G01*
X2700315Y5959780D02*
X2707417Y5959780D01*
X2707417Y5952677D01*
X2700315Y5952677D01*
X2700315Y5959780D01*
G37*
G36*
G01*
X2700315Y5951118D02*
X2707417Y5951118D01*
X2707417Y5944016D01*
X2700315Y5944016D01*
X2700315Y5951118D01*
G37*
G36*
G01*
X2700315Y5942457D02*
X2707417Y5942457D01*
X2707417Y5935354D01*
X2700315Y5935354D01*
X2700315Y5942457D01*
G37*
G36*
G01*
X2700315Y5933795D02*
X2707417Y5933795D01*
X2707417Y5926693D01*
X2700315Y5926693D01*
X2700315Y5933795D01*
G37*
G36*
G01*
X2700315Y5925134D02*
X2707417Y5925134D01*
X2707417Y5918031D01*
X2700315Y5918031D01*
X2700315Y5925134D01*
G37*
G36*
G01*
X2700315Y5909370D02*
X2700315Y5916472D01*
X2707417Y5916472D01*
X2707417Y5909370D01*
X2700315Y5909370D01*
G37*
G36*
G01*
X2682205Y5075606D02*
X2702220Y5075606D01*
X2702220Y5055591D01*
X2682205Y5055591D01*
X2682205Y5075606D01*
G37*
G36*
G01*
X2682205Y5031181D02*
X2682205Y5051197D01*
X2702220Y5051197D01*
X2702220Y5031181D01*
X2682205Y5031181D01*
G37*
G36*
G01*
X2682205Y5026787D02*
X2702220Y5026787D01*
X2702220Y5006772D01*
X2682205Y5006772D01*
X2682205Y5026787D01*
G37*
G36*
G01*
X2682205Y4982362D02*
X2682205Y5002378D01*
X2702220Y5002378D01*
X2702220Y4982362D01*
X2682205Y4982362D01*
G37*
G36*
G01*
X2682205Y4977969D02*
X2702220Y4977969D01*
X2702220Y4957953D01*
X2682205Y4957953D01*
X2682205Y4977969D01*
G37*
G36*
G01*
X2682205Y4953559D02*
X2702220Y4953559D01*
X2702220Y4933543D01*
X2682205Y4933543D01*
X2682205Y4953559D01*
G37*
G36*
G01*
X2682205Y4929150D02*
X2702220Y4929150D01*
X2702220Y4909134D01*
X2682205Y4909134D01*
X2682205Y4929150D01*
G37*
G36*
G01*
X2682992Y5952677D02*
X2682992Y5959780D01*
X2690094Y5959780D01*
X2690094Y5952677D01*
X2682992Y5952677D01*
G37*
G36*
G01*
X2682992Y5951118D02*
X2690094Y5951118D01*
X2690094Y5944016D01*
X2682992Y5944016D01*
X2682992Y5951118D01*
G37*
G36*
G01*
X2682992Y5942457D02*
X2690094Y5942457D01*
X2690094Y5935354D01*
X2682992Y5935354D01*
X2682992Y5942457D01*
G37*
G36*
G01*
X2682992Y5933795D02*
X2690094Y5933795D01*
X2690094Y5926693D01*
X2682992Y5926693D01*
X2682992Y5933795D01*
G37*
G36*
G01*
X2682992Y5925134D02*
X2690094Y5925134D01*
X2690094Y5918031D01*
X2682992Y5918031D01*
X2682992Y5925134D01*
G37*
G36*
G01*
X2682992Y5916472D02*
X2690094Y5916472D01*
X2690094Y5909370D01*
X2682992Y5909370D01*
X2682992Y5916472D01*
G37*
G36*
G01*
X2674331Y5968441D02*
X2681433Y5968441D01*
X2681433Y5961339D01*
X2674331Y5961339D01*
X2674331Y5968441D01*
G37*
G36*
G01*
X2674331Y5942457D02*
X2681433Y5942457D01*
X2681433Y5935354D01*
X2674331Y5935354D01*
X2674331Y5942457D01*
G37*
G36*
G01*
X2665669Y5968441D02*
X2672772Y5968441D01*
X2672772Y5961339D01*
X2665669Y5961339D01*
X2665669Y5968441D01*
G37*
G36*
G01*
X2665669Y5942457D02*
X2672772Y5942457D01*
X2672772Y5935354D01*
X2665669Y5935354D01*
X2665669Y5942457D01*
G37*
G36*
G01*
X2657008Y5968441D02*
X2664110Y5968441D01*
X2664110Y5961339D01*
X2657008Y5961339D01*
X2657008Y5968441D01*
G37*
G36*
G01*
X2657008Y5942457D02*
X2664110Y5942457D01*
X2664110Y5935354D01*
X2657008Y5935354D01*
X2657008Y5942457D01*
G37*
G36*
G01*
X2648346Y5959780D02*
X2655449Y5959780D01*
X2655449Y5952677D01*
X2648346Y5952677D01*
X2648346Y5959780D01*
G37*
G36*
G01*
X2648346Y5951118D02*
X2655449Y5951118D01*
X2655449Y5944016D01*
X2648346Y5944016D01*
X2648346Y5951118D01*
G37*
G36*
G01*
X2648346Y5942457D02*
X2655449Y5942457D01*
X2655449Y5935354D01*
X2648346Y5935354D01*
X2648346Y5942457D01*
G37*
G36*
G01*
X2648346Y5933795D02*
X2655449Y5933795D01*
X2655449Y5926693D01*
X2648346Y5926693D01*
X2648346Y5933795D01*
G37*
G36*
G01*
X2648346Y5925134D02*
X2655449Y5925134D01*
X2655449Y5918031D01*
X2648346Y5918031D01*
X2648346Y5925134D01*
G37*
G36*
G01*
X2648346Y5916472D02*
X2655449Y5916472D01*
X2655449Y5909370D01*
X2648346Y5909370D01*
X2648346Y5916472D01*
G37*
G36*
G01*
X2633386Y5031181D02*
X2633386Y5051197D01*
X2653402Y5051197D01*
X2653402Y5031181D01*
X2633386Y5031181D01*
G37*
G36*
G01*
X2633386Y5006772D02*
X2633386Y5026787D01*
X2653402Y5026787D01*
X2653402Y5006772D01*
X2633386Y5006772D01*
G37*
G36*
G01*
X2633386Y5002378D02*
X2653402Y5002378D01*
X2653402Y4982362D01*
X2633386Y4982362D01*
X2633386Y5002378D01*
G37*
G36*
G01*
X2633386Y4957953D02*
X2633386Y4977969D01*
X2653402Y4977969D01*
X2653402Y4957953D01*
X2633386Y4957953D01*
G37*
G36*
G01*
X2633386Y4953559D02*
X2653402Y4953559D01*
X2653402Y4933543D01*
X2633386Y4933543D01*
X2633386Y4953559D01*
G37*
G36*
G01*
X2631024Y5959780D02*
X2638126Y5959780D01*
X2638126Y5952677D01*
X2631024Y5952677D01*
X2631024Y5959780D01*
G37*
G36*
G01*
X2631024Y5944016D02*
X2631024Y5951118D01*
X2638126Y5951118D01*
X2638126Y5944016D01*
X2631024Y5944016D01*
G37*
G36*
G01*
X2622362Y5968441D02*
X2629465Y5968441D01*
X2629465Y5961339D01*
X2622362Y5961339D01*
X2622362Y5968441D01*
G37*
G36*
G01*
X2622362Y5935354D02*
X2622362Y5942457D01*
X2629465Y5942457D01*
X2629465Y5935354D01*
X2622362Y5935354D01*
G37*
G36*
G01*
X2608976Y5075606D02*
X2628992Y5075606D01*
X2628992Y5055591D01*
X2608976Y5055591D01*
X2608976Y5075606D01*
G37*
G36*
G01*
X2608976Y4929150D02*
X2628992Y4929150D01*
X2628992Y4909134D01*
X2608976Y4909134D01*
X2608976Y4929150D01*
G37*
G36*
G01*
X2613701Y5968441D02*
X2620803Y5968441D01*
X2620803Y5961339D01*
X2613701Y5961339D01*
X2613701Y5968441D01*
G37*
G36*
G01*
X2613701Y5942457D02*
X2620803Y5942457D01*
X2620803Y5935354D01*
X2613701Y5935354D01*
X2613701Y5942457D01*
G37*
G36*
G01*
X2605039Y5968441D02*
X2612142Y5968441D01*
X2612142Y5961339D01*
X2605039Y5961339D01*
X2605039Y5968441D01*
G37*
G36*
G01*
X2605039Y5942457D02*
X2612142Y5942457D01*
X2612142Y5935354D01*
X2605039Y5935354D01*
X2605039Y5942457D01*
G37*
G36*
G01*
X2584567Y4909134D02*
X2584567Y4929150D01*
X2604583Y4929150D01*
X2604583Y4909134D01*
X2584567Y4909134D01*
G37*
G36*
G01*
X2584567Y5055591D02*
X2584567Y5075606D01*
X2604583Y5075606D01*
X2604583Y5055591D01*
X2584567Y5055591D01*
G37*
G36*
G01*
X2596378Y5959780D02*
X2603480Y5959780D01*
X2603480Y5952677D01*
X2596378Y5952677D01*
X2596378Y5959780D01*
G37*
G36*
G01*
X2596378Y5951118D02*
X2603480Y5951118D01*
X2603480Y5944016D01*
X2596378Y5944016D01*
X2596378Y5951118D01*
G37*
G36*
G01*
X2596378Y5935354D02*
X2596378Y5942457D01*
X2603480Y5942457D01*
X2603480Y5935354D01*
X2596378Y5935354D01*
G37*
G36*
G01*
X2596378Y5926693D02*
X2596378Y5933795D01*
X2603480Y5933795D01*
X2603480Y5926693D01*
X2596378Y5926693D01*
G37*
G36*
G01*
X2596378Y5925134D02*
X2603480Y5925134D01*
X2603480Y5918031D01*
X2596378Y5918031D01*
X2596378Y5925134D01*
G37*
G36*
G01*
X2596378Y5916472D02*
X2603480Y5916472D01*
X2603480Y5909370D01*
X2596378Y5909370D01*
X2596378Y5916472D01*
G37*
G36*
G01*
X2596378Y5968441D02*
X2603480Y5968441D01*
X2603480Y5961339D01*
X2596378Y5961339D01*
X2596378Y5968441D01*
G37*
G36*
G01*
X2579055Y5968441D02*
X2586157Y5968441D01*
X2586157Y5961339D01*
X2579055Y5961339D01*
X2579055Y5968441D01*
G37*
G36*
G01*
X2579055Y5916472D02*
X2586157Y5916472D01*
X2586157Y5909370D01*
X2579055Y5909370D01*
X2579055Y5916472D01*
G37*
G36*
G01*
X2560157Y5075606D02*
X2580173Y5075606D01*
X2580173Y5055591D01*
X2560157Y5055591D01*
X2560157Y5075606D01*
G37*
G36*
G01*
X2560157Y4929150D02*
X2580173Y4929150D01*
X2580173Y4909134D01*
X2560157Y4909134D01*
X2560157Y4929150D01*
G37*
G36*
G01*
X2570394Y5968441D02*
X2577496Y5968441D01*
X2577496Y5961339D01*
X2570394Y5961339D01*
X2570394Y5968441D01*
G37*
G36*
G01*
X2570394Y5942457D02*
X2577496Y5942457D01*
X2577496Y5935354D01*
X2570394Y5935354D01*
X2570394Y5942457D01*
G37*
G36*
G01*
X2570394Y5916472D02*
X2577496Y5916472D01*
X2577496Y5909370D01*
X2570394Y5909370D01*
X2570394Y5916472D01*
G37*
G36*
G01*
X2561732Y5961339D02*
X2561732Y5968441D01*
X2568835Y5968441D01*
X2568835Y5961339D01*
X2561732Y5961339D01*
G37*
G36*
G01*
X2561732Y5942457D02*
X2568835Y5942457D01*
X2568835Y5935354D01*
X2561732Y5935354D01*
X2561732Y5942457D01*
G37*
G36*
G01*
X2561732Y5916472D02*
X2568835Y5916472D01*
X2568835Y5909370D01*
X2561732Y5909370D01*
X2561732Y5916472D01*
G37*
G36*
G01*
X2553071Y5968441D02*
X2560173Y5968441D01*
X2560173Y5961339D01*
X2553071Y5961339D01*
X2553071Y5968441D01*
G37*
G36*
G01*
X2553071Y5935354D02*
X2553071Y5942457D01*
X2560173Y5942457D01*
X2560173Y5935354D01*
X2553071Y5935354D01*
G37*
G36*
G01*
X2553071Y5916472D02*
X2560173Y5916472D01*
X2560173Y5909370D01*
X2553071Y5909370D01*
X2553071Y5916472D01*
G37*
G36*
G01*
X2535748Y5051197D02*
X2555764Y5051197D01*
X2555764Y5031181D01*
X2535748Y5031181D01*
X2535748Y5051197D01*
G37*
G36*
G01*
X2535748Y5026787D02*
X2555764Y5026787D01*
X2555764Y5006772D01*
X2535748Y5006772D01*
X2535748Y5026787D01*
G37*
G36*
G01*
X2535748Y5002378D02*
X2555764Y5002378D01*
X2555764Y4982362D01*
X2535748Y4982362D01*
X2535748Y5002378D01*
G37*
G36*
G01*
X2535748Y4977969D02*
X2555764Y4977969D01*
X2555764Y4957953D01*
X2535748Y4957953D01*
X2535748Y4977969D01*
G37*
G36*
G01*
X2535748Y4933543D02*
X2535748Y4953559D01*
X2555764Y4953559D01*
X2555764Y4933543D01*
X2535748Y4933543D01*
G37*
G36*
G01*
X2544409Y5959780D02*
X2551512Y5959780D01*
X2551512Y5952677D01*
X2544409Y5952677D01*
X2544409Y5959780D01*
G37*
G36*
G01*
X2544409Y5951118D02*
X2551512Y5951118D01*
X2551512Y5944016D01*
X2544409Y5944016D01*
X2544409Y5951118D01*
G37*
G36*
G01*
X2544409Y5942457D02*
X2551512Y5942457D01*
X2551512Y5935354D01*
X2544409Y5935354D01*
X2544409Y5942457D01*
G37*
G36*
G01*
X2544409Y5933795D02*
X2551512Y5933795D01*
X2551512Y5926693D01*
X2544409Y5926693D01*
X2544409Y5933795D01*
G37*
G36*
G01*
X2544409Y5918031D02*
X2544409Y5925134D01*
X2551512Y5925134D01*
X2551512Y5918031D01*
X2544409Y5918031D01*
G37*
G36*
G01*
X2544409Y5916472D02*
X2551512Y5916472D01*
X2551512Y5909370D01*
X2544409Y5909370D01*
X2544409Y5916472D01*
G37*
G36*
G01*
X2544409Y5961339D02*
X2544409Y5968441D01*
X2551512Y5968441D01*
X2551512Y5961339D01*
X2544409Y5961339D01*
G37*
G36*
G01*
X2527087Y5916472D02*
X2534189Y5916472D01*
X2534189Y5909370D01*
X2527087Y5909370D01*
X2527087Y5916472D01*
G37*
G36*
G01*
X2527087Y5959780D02*
X2534189Y5959780D01*
X2534189Y5952677D01*
X2527087Y5952677D01*
X2527087Y5959780D01*
G37*
G36*
G01*
X2527087Y5951118D02*
X2534189Y5951118D01*
X2534189Y5944016D01*
X2527087Y5944016D01*
X2527087Y5951118D01*
G37*
G36*
G01*
X2527087Y5942457D02*
X2534189Y5942457D01*
X2534189Y5935354D01*
X2527087Y5935354D01*
X2527087Y5942457D01*
G37*
G36*
G01*
X2527087Y5933795D02*
X2534189Y5933795D01*
X2534189Y5926693D01*
X2527087Y5926693D01*
X2527087Y5933795D01*
G37*
G36*
G01*
X2527087Y5925134D02*
X2534189Y5925134D01*
X2534189Y5918031D01*
X2527087Y5918031D01*
X2527087Y5925134D01*
G37*
G36*
G01*
X2527087Y5968441D02*
X2534189Y5968441D01*
X2534189Y5961339D01*
X2527087Y5961339D01*
X2527087Y5968441D01*
G37*
G36*
G01*
X2518425Y5959780D02*
X2525528Y5959780D01*
X2525528Y5952677D01*
X2518425Y5952677D01*
X2518425Y5959780D01*
G37*
G36*
G01*
X2509764Y5951118D02*
X2516866Y5951118D01*
X2516866Y5944016D01*
X2509764Y5944016D01*
X2509764Y5951118D01*
G37*
G36*
G01*
X2509764Y5942457D02*
X2516866Y5942457D01*
X2516866Y5935354D01*
X2509764Y5935354D01*
X2509764Y5942457D01*
G37*
G36*
G01*
X2501102Y5959780D02*
X2508205Y5959780D01*
X2508205Y5952677D01*
X2501102Y5952677D01*
X2501102Y5959780D01*
G37*
G36*
G01*
X2486929Y5055591D02*
X2486929Y5075606D01*
X2506945Y5075606D01*
X2506945Y5055591D01*
X2486929Y5055591D01*
G37*
G36*
G01*
X2486929Y4957953D02*
X2486929Y4977969D01*
X2506945Y4977969D01*
X2506945Y4957953D01*
X2486929Y4957953D01*
G37*
G36*
G01*
X2486929Y4933543D02*
X2486929Y4953559D01*
X2506945Y4953559D01*
X2506945Y4933543D01*
X2486929Y4933543D01*
G37*
G36*
G01*
X2492441Y5961339D02*
X2492441Y5968441D01*
X2499543Y5968441D01*
X2499543Y5961339D01*
X2492441Y5961339D01*
G37*
G36*
G01*
X2492441Y5959780D02*
X2499543Y5959780D01*
X2499543Y5952677D01*
X2492441Y5952677D01*
X2492441Y5959780D01*
G37*
G36*
G01*
X2492441Y5951118D02*
X2499543Y5951118D01*
X2499543Y5944016D01*
X2492441Y5944016D01*
X2492441Y5951118D01*
G37*
G36*
G01*
X2492441Y5942457D02*
X2499543Y5942457D01*
X2499543Y5935354D01*
X2492441Y5935354D01*
X2492441Y5942457D01*
G37*
G36*
G01*
X2492441Y5926693D02*
X2492441Y5933795D01*
X2499543Y5933795D01*
X2499543Y5926693D01*
X2492441Y5926693D01*
G37*
G36*
G01*
X2492441Y5925134D02*
X2499543Y5925134D01*
X2499543Y5918031D01*
X2492441Y5918031D01*
X2492441Y5925134D01*
G37*
G36*
G01*
X2492441Y5909370D02*
X2492441Y5916472D01*
X2499543Y5916472D01*
X2499543Y5909370D01*
X2492441Y5909370D01*
G37*
G36*
G01*
X2462520Y4909134D02*
X2462520Y4929150D01*
X2482535Y4929150D01*
X2482535Y4909134D01*
X2462520Y4909134D01*
G37*
G36*
G01*
X2462520Y4982362D02*
X2462520Y5002378D01*
X2482535Y5002378D01*
X2482535Y4982362D01*
X2462520Y4982362D01*
G37*
G36*
G01*
X2462520Y5075606D02*
X2482535Y5075606D01*
X2482535Y5055591D01*
X2462520Y5055591D01*
X2462520Y5075606D01*
G37*
G36*
G01*
X2475118Y5925134D02*
X2482220Y5925134D01*
X2482220Y5918031D01*
X2475118Y5918031D01*
X2475118Y5925134D01*
G37*
G36*
G01*
X2475118Y5916472D02*
X2482220Y5916472D01*
X2482220Y5909370D01*
X2475118Y5909370D01*
X2475118Y5916472D01*
G37*
G36*
G01*
X2475118Y5935354D02*
X2475118Y5942457D01*
X2482220Y5942457D01*
X2482220Y5935354D01*
X2475118Y5935354D01*
G37*
G36*
G01*
X2475118Y5944016D02*
X2475118Y5951118D01*
X2482220Y5951118D01*
X2482220Y5944016D01*
X2475118Y5944016D01*
G37*
G36*
G01*
X2475118Y5959780D02*
X2482220Y5959780D01*
X2482220Y5952677D01*
X2475118Y5952677D01*
X2475118Y5959780D01*
G37*
G36*
G01*
X2475118Y5933795D02*
X2482220Y5933795D01*
X2482220Y5926693D01*
X2475118Y5926693D01*
X2475118Y5933795D01*
G37*
G36*
G01*
X2466457Y5968441D02*
X2473559Y5968441D01*
X2473559Y5961339D01*
X2466457Y5961339D01*
X2466457Y5968441D01*
G37*
G36*
G01*
X2466457Y5942457D02*
X2473559Y5942457D01*
X2473559Y5935354D01*
X2466457Y5935354D01*
X2466457Y5942457D01*
G37*
G36*
G01*
X2457795Y5961339D02*
X2457795Y5968441D01*
X2464898Y5968441D01*
X2464898Y5961339D01*
X2457795Y5961339D01*
G37*
G36*
G01*
X2457795Y5942457D02*
X2464898Y5942457D01*
X2464898Y5935354D01*
X2457795Y5935354D01*
X2457795Y5942457D01*
G37*
G36*
G01*
X2438110Y5055591D02*
X2438110Y5075606D01*
X2458126Y5075606D01*
X2458126Y5055591D01*
X2438110Y5055591D01*
G37*
G36*
G01*
X2438110Y4982362D02*
X2438110Y5002378D01*
X2458126Y5002378D01*
X2458126Y4982362D01*
X2438110Y4982362D01*
G37*
G36*
G01*
X2438110Y4929150D02*
X2458126Y4929150D01*
X2458126Y4909134D01*
X2438110Y4909134D01*
X2438110Y4929150D01*
G37*
G36*
G01*
X2449134Y5942457D02*
X2456236Y5942457D01*
X2456236Y5935354D01*
X2449134Y5935354D01*
X2449134Y5942457D01*
G37*
G36*
G01*
X2449134Y5968441D02*
X2456236Y5968441D01*
X2456236Y5961339D01*
X2449134Y5961339D01*
X2449134Y5968441D01*
G37*
G36*
G01*
X2440472Y5959780D02*
X2447575Y5959780D01*
X2447575Y5952677D01*
X2440472Y5952677D01*
X2440472Y5959780D01*
G37*
G36*
G01*
X2440472Y5951118D02*
X2447575Y5951118D01*
X2447575Y5944016D01*
X2440472Y5944016D01*
X2440472Y5951118D01*
G37*
G36*
G01*
X2440472Y5935354D02*
X2440472Y5942457D01*
X2447575Y5942457D01*
X2447575Y5935354D01*
X2440472Y5935354D01*
G37*
G36*
G01*
X2440472Y5933795D02*
X2447575Y5933795D01*
X2447575Y5926693D01*
X2440472Y5926693D01*
X2440472Y5933795D01*
G37*
G36*
G01*
X2440472Y5916472D02*
X2447575Y5916472D01*
X2447575Y5909370D01*
X2440472Y5909370D01*
X2440472Y5916472D01*
G37*
G36*
G01*
X2440472Y5925134D02*
X2447575Y5925134D01*
X2447575Y5918031D01*
X2440472Y5918031D01*
X2440472Y5925134D01*
G37*
G36*
G01*
X2413701Y4982362D02*
X2413701Y5002378D01*
X2433717Y5002378D01*
X2433717Y4982362D01*
X2413701Y4982362D01*
G37*
G36*
G01*
X2433717Y5055591D02*
X2413701Y5055591D01*
X2413701Y5075606D01*
X2433717Y5075606D01*
X2433717Y5055591D01*
G37*
G36*
G01*
X2413701Y4929150D02*
X2433717Y4929150D01*
X2433717Y4909134D01*
X2413701Y4909134D01*
X2413701Y4929150D01*
G37*
G36*
G01*
X2423150Y5968441D02*
X2430252Y5968441D01*
X2430252Y5961339D01*
X2423150Y5961339D01*
X2423150Y5968441D01*
G37*
G36*
G01*
X2423150Y5942457D02*
X2430252Y5942457D01*
X2430252Y5935354D01*
X2423150Y5935354D01*
X2423150Y5942457D01*
G37*
G36*
G01*
X2423150Y5933795D02*
X2430252Y5933795D01*
X2430252Y5926693D01*
X2423150Y5926693D01*
X2423150Y5933795D01*
G37*
G36*
G01*
X2423150Y5918031D02*
X2423150Y5925134D01*
X2430252Y5925134D01*
X2430252Y5918031D01*
X2423150Y5918031D01*
G37*
G36*
G01*
X2423150Y5916472D02*
X2430252Y5916472D01*
X2430252Y5909370D01*
X2423150Y5909370D01*
X2423150Y5916472D01*
G37*
G36*
G01*
X2424409Y3814488D02*
X2424409Y3819008D01*
X2428929Y3819008D01*
X2428929Y3814488D01*
X2424409Y3814488D01*
G37*
G36*
G01*
X2423417Y3814488D02*
X2418898Y3814488D01*
X2418898Y3819008D01*
X2423417Y3819008D01*
X2423417Y3814488D01*
G37*
G36*
G01*
X2414488Y5968441D02*
X2421591Y5968441D01*
X2421591Y5961339D01*
X2414488Y5961339D01*
X2414488Y5968441D01*
G37*
G36*
G01*
X2414488Y5916472D02*
X2421591Y5916472D01*
X2421591Y5909370D01*
X2414488Y5909370D01*
X2414488Y5916472D01*
G37*
G36*
G01*
X2414488Y5942457D02*
X2421591Y5942457D01*
X2421591Y5935354D01*
X2414488Y5935354D01*
X2414488Y5942457D01*
G37*
G36*
G01*
X2417906Y3808976D02*
X2413386Y3808976D01*
X2413386Y3813496D01*
X2417906Y3813496D01*
X2417906Y3808976D01*
G37*
G36*
G01*
X2417906Y3792441D02*
X2413386Y3792441D01*
X2413386Y3796961D01*
X2417906Y3796961D01*
X2417906Y3792441D01*
G37*
G36*
G01*
X2417906Y3802472D02*
X2417906Y3797953D01*
X2413386Y3797953D01*
X2413386Y3802472D01*
X2417906Y3802472D01*
G37*
G36*
G01*
X2417906Y3814488D02*
X2413386Y3814488D01*
X2413386Y3819008D01*
X2417906Y3819008D01*
X2417906Y3814488D01*
G37*
G36*
G01*
X2413386Y3803465D02*
X2413386Y3807984D01*
X2417906Y3807984D01*
X2417906Y3803465D01*
X2413386Y3803465D01*
G37*
G36*
G01*
X2413386Y3786929D02*
X2413386Y3791449D01*
X2417906Y3791449D01*
X2417906Y3786929D01*
X2413386Y3786929D01*
G37*
G36*
G01*
X2417906Y3781417D02*
X2413386Y3781417D01*
X2413386Y3785937D01*
X2417906Y3785937D01*
X2417906Y3781417D01*
G37*
G36*
G01*
X2405827Y5968441D02*
X2412929Y5968441D01*
X2412929Y5961339D01*
X2405827Y5961339D01*
X2405827Y5968441D01*
G37*
G36*
G01*
X2405827Y5942457D02*
X2412929Y5942457D01*
X2412929Y5935354D01*
X2405827Y5935354D01*
X2405827Y5942457D01*
G37*
G36*
G01*
X2405827Y5916472D02*
X2412929Y5916472D01*
X2412929Y5909370D01*
X2405827Y5909370D01*
X2405827Y5916472D01*
G37*
G36*
G01*
X2412394Y3814488D02*
X2407874Y3814488D01*
X2407874Y3819008D01*
X2412394Y3819008D01*
X2412394Y3814488D01*
G37*
G36*
G01*
X2389291Y5051197D02*
X2409307Y5051197D01*
X2409307Y5031181D01*
X2389291Y5031181D01*
X2389291Y5051197D01*
G37*
G36*
G01*
X2389291Y4929150D02*
X2409307Y4929150D01*
X2409307Y4909134D01*
X2389291Y4909134D01*
X2389291Y4929150D01*
G37*
G36*
G01*
X2389291Y5026787D02*
X2409307Y5026787D01*
X2409307Y5006772D01*
X2389291Y5006772D01*
X2389291Y5026787D01*
G37*
G36*
G01*
X2406882Y3814488D02*
X2402362Y3814488D01*
X2402362Y3819008D01*
X2406882Y3819008D01*
X2406882Y3814488D01*
G37*
G36*
G01*
X2397165Y5916472D02*
X2404268Y5916472D01*
X2404268Y5909370D01*
X2397165Y5909370D01*
X2397165Y5916472D01*
G37*
G36*
G01*
X2397165Y5968441D02*
X2404268Y5968441D01*
X2404268Y5961339D01*
X2397165Y5961339D01*
X2397165Y5968441D01*
G37*
G36*
G01*
X2391339Y3803465D02*
X2391339Y3807984D01*
X2395858Y3807984D01*
X2395858Y3803465D01*
X2391339Y3803465D01*
G37*
G36*
G01*
X2395858Y3781417D02*
X2391339Y3781417D01*
X2391339Y3785937D01*
X2395858Y3785937D01*
X2395858Y3781417D01*
G37*
G36*
G01*
X2395858Y3808976D02*
X2391339Y3808976D01*
X2391339Y3813496D01*
X2395858Y3813496D01*
X2395858Y3808976D01*
G37*
G36*
G01*
X2388504Y5952677D02*
X2388504Y5959780D01*
X2395606Y5959780D01*
X2395606Y5952677D01*
X2388504Y5952677D01*
G37*
G36*
G01*
X2388504Y5951118D02*
X2395606Y5951118D01*
X2395606Y5944016D01*
X2388504Y5944016D01*
X2388504Y5951118D01*
G37*
G36*
G01*
X2388504Y5942457D02*
X2395606Y5942457D01*
X2395606Y5935354D01*
X2388504Y5935354D01*
X2388504Y5942457D01*
G37*
G36*
G01*
X2388504Y5933795D02*
X2395606Y5933795D01*
X2395606Y5926693D01*
X2388504Y5926693D01*
X2388504Y5933795D01*
G37*
G36*
G01*
X2388504Y5925134D02*
X2395606Y5925134D01*
X2395606Y5918031D01*
X2388504Y5918031D01*
X2388504Y5925134D01*
G37*
G36*
G01*
X2385827Y3786929D02*
X2385827Y3791449D01*
X2390346Y3791449D01*
X2390346Y3786929D01*
X2385827Y3786929D01*
G37*
G36*
G01*
X2390346Y3797953D02*
X2385827Y3797953D01*
X2385827Y3802472D01*
X2390346Y3802472D01*
X2390346Y3797953D01*
G37*
G36*
G01*
X2390346Y3814488D02*
X2385827Y3814488D01*
X2385827Y3819008D01*
X2390346Y3819008D01*
X2390346Y3814488D01*
G37*
G36*
G01*
X2384835Y3792441D02*
X2380315Y3792441D01*
X2380315Y3796961D01*
X2384835Y3796961D01*
X2384835Y3792441D01*
G37*
G36*
G01*
X2380315Y3814488D02*
X2380315Y3819008D01*
X2384835Y3819008D01*
X2384835Y3814488D01*
X2380315Y3814488D01*
G37*
G36*
G01*
X2384835Y3797953D02*
X2380315Y3797953D01*
X2380315Y3802472D01*
X2384835Y3802472D01*
X2384835Y3797953D01*
G37*
G36*
G01*
X2379323Y3814488D02*
X2374803Y3814488D01*
X2374803Y3819008D01*
X2379323Y3819008D01*
X2379323Y3814488D01*
G37*
G36*
G01*
X2379323Y3797953D02*
X2374803Y3797953D01*
X2374803Y3802472D01*
X2379323Y3802472D01*
X2379323Y3797953D01*
G37*
G36*
G01*
X2369291Y3781417D02*
X2369291Y3785937D01*
X2373811Y3785937D01*
X2373811Y3781417D01*
X2369291Y3781417D01*
G37*
G36*
G01*
X2373811Y3803465D02*
X2369291Y3803465D01*
X2369291Y3807984D01*
X2373811Y3807984D01*
X2373811Y3803465D01*
G37*
G36*
G01*
X2373811Y3802472D02*
X2373811Y3797953D01*
X2369291Y3797953D01*
X2369291Y3802472D01*
X2373811Y3802472D01*
G37*
G36*
G01*
X2373811Y3792441D02*
X2369291Y3792441D01*
X2369291Y3796961D01*
X2373811Y3796961D01*
X2373811Y3792441D01*
G37*
G36*
G01*
X2373811Y3786929D02*
X2369291Y3786929D01*
X2369291Y3791449D01*
X2373811Y3791449D01*
X2373811Y3786929D01*
G37*
G36*
G01*
X2369291Y3808976D02*
X2369291Y3813496D01*
X2373811Y3813496D01*
X2373811Y3808976D01*
X2369291Y3808976D01*
G37*
G36*
G01*
X2373811Y3819008D02*
X2373811Y3814488D01*
X2369291Y3814488D01*
X2369291Y3819008D01*
X2373811Y3819008D01*
G37*
G36*
G01*
X2362787Y3803465D02*
X2358268Y3803465D01*
X2358268Y3807984D01*
X2362787Y3807984D01*
X2362787Y3803465D01*
G37*
G36*
G01*
X2362787Y3797953D02*
X2358268Y3797953D01*
X2358268Y3802472D01*
X2362787Y3802472D01*
X2362787Y3797953D01*
G37*
G36*
G01*
X2362787Y3792441D02*
X2358268Y3792441D01*
X2358268Y3796961D01*
X2362787Y3796961D01*
X2362787Y3792441D01*
G37*
G36*
G01*
X2362787Y3786929D02*
X2358268Y3786929D01*
X2358268Y3791449D01*
X2362787Y3791449D01*
X2362787Y3786929D01*
G37*
G36*
G01*
X2362787Y3781417D02*
X2358268Y3781417D01*
X2358268Y3785937D01*
X2362787Y3785937D01*
X2362787Y3781417D01*
G37*
G36*
G01*
X2358268Y3808976D02*
X2358268Y3813496D01*
X2362787Y3813496D01*
X2362787Y3808976D01*
X2358268Y3808976D01*
G37*
G36*
G01*
X2360488Y4909134D02*
X2340472Y4909134D01*
X2340472Y4929150D01*
X2360488Y4929150D01*
X2360488Y4909134D01*
G37*
G36*
G01*
X2340472Y5075606D02*
X2360488Y5075606D01*
X2360488Y5055591D01*
X2340472Y5055591D01*
X2340472Y5075606D01*
G37*
G36*
G01*
X2340472Y5031181D02*
X2340472Y5051197D01*
X2360488Y5051197D01*
X2360488Y5031181D01*
X2340472Y5031181D01*
G37*
G36*
G01*
X2340472Y5006772D02*
X2340472Y5026787D01*
X2360488Y5026787D01*
X2360488Y5006772D01*
X2340472Y5006772D01*
G37*
G36*
G01*
X2340472Y5002378D02*
X2360488Y5002378D01*
X2360488Y4982362D01*
X2340472Y4982362D01*
X2340472Y5002378D01*
G37*
G36*
G01*
X2340472Y4933543D02*
X2340472Y4953559D01*
X2360488Y4953559D01*
X2360488Y4933543D01*
X2340472Y4933543D01*
G37*
G36*
G01*
X2340472Y4957953D02*
X2340472Y4977969D01*
X2360488Y4977969D01*
X2360488Y4957953D01*
X2340472Y4957953D01*
G37*
G36*
G01*
X2357276Y3797953D02*
X2352756Y3797953D01*
X2352756Y3802472D01*
X2357276Y3802472D01*
X2357276Y3797953D01*
G37*
G36*
G01*
X2357276Y3814488D02*
X2352756Y3814488D01*
X2352756Y3819008D01*
X2357276Y3819008D01*
X2357276Y3814488D01*
G37*
G36*
G01*
X2351764Y3814488D02*
X2347244Y3814488D01*
X2347244Y3819008D01*
X2351764Y3819008D01*
X2351764Y3814488D01*
G37*
G36*
G01*
X2351764Y3797953D02*
X2347244Y3797953D01*
X2347244Y3802472D01*
X2351764Y3802472D01*
X2351764Y3797953D01*
G37*
G36*
G01*
X2346252Y3814488D02*
X2341732Y3814488D01*
X2341732Y3819008D01*
X2346252Y3819008D01*
X2346252Y3814488D01*
G37*
G36*
G01*
X2341732Y3797953D02*
X2341732Y3802472D01*
X2346252Y3802472D01*
X2346252Y3797953D01*
X2341732Y3797953D01*
G37*
G36*
G01*
X2340740Y3813496D02*
X2340740Y3808976D01*
X2336220Y3808976D01*
X2336220Y3813496D01*
X2340740Y3813496D01*
G37*
G36*
G01*
X2340740Y3803465D02*
X2336220Y3803465D01*
X2336220Y3807984D01*
X2340740Y3807984D01*
X2340740Y3803465D01*
G37*
G36*
G01*
X2340740Y3792441D02*
X2336220Y3792441D01*
X2336220Y3796961D01*
X2340740Y3796961D01*
X2340740Y3792441D01*
G37*
G36*
G01*
X2340740Y3786929D02*
X2336220Y3786929D01*
X2336220Y3791449D01*
X2340740Y3791449D01*
X2340740Y3786929D01*
G37*
G36*
G01*
X2336220Y3797953D02*
X2336220Y3802472D01*
X2340740Y3802472D01*
X2340740Y3797953D01*
X2336220Y3797953D01*
G37*
G36*
G01*
X2336220Y3781417D02*
X2336220Y3785937D01*
X2340740Y3785937D01*
X2340740Y3781417D01*
X2336220Y3781417D01*
G37*
G36*
G01*
X2316063Y5002378D02*
X2336079Y5002378D01*
X2336079Y4982362D01*
X2316063Y4982362D01*
X2316063Y5002378D01*
G37*
G36*
G01*
X2329717Y3814488D02*
X2325197Y3814488D01*
X2325197Y3819008D01*
X2329717Y3819008D01*
X2329717Y3814488D01*
G37*
G36*
G01*
X2319213Y5959780D02*
X2326315Y5959780D01*
X2326315Y5952677D01*
X2319213Y5952677D01*
X2319213Y5959780D01*
G37*
G36*
G01*
X2319213Y5951118D02*
X2326315Y5951118D01*
X2326315Y5944016D01*
X2319213Y5944016D01*
X2319213Y5951118D01*
G37*
G36*
G01*
X2319213Y5933795D02*
X2326315Y5933795D01*
X2326315Y5926693D01*
X2319213Y5926693D01*
X2319213Y5933795D01*
G37*
G36*
G01*
X2319213Y5925134D02*
X2326315Y5925134D01*
X2326315Y5918031D01*
X2319213Y5918031D01*
X2319213Y5925134D01*
G37*
G36*
G01*
X2324205Y3814488D02*
X2319685Y3814488D01*
X2319685Y3819008D01*
X2324205Y3819008D01*
X2324205Y3814488D01*
G37*
G36*
G01*
X2318693Y3803465D02*
X2314173Y3803465D01*
X2314173Y3807984D01*
X2318693Y3807984D01*
X2318693Y3803465D01*
G37*
G36*
G01*
X2318693Y3797953D02*
X2314173Y3797953D01*
X2314173Y3802472D01*
X2318693Y3802472D01*
X2318693Y3797953D01*
G37*
G36*
G01*
X2318693Y3792441D02*
X2314173Y3792441D01*
X2314173Y3796961D01*
X2318693Y3796961D01*
X2318693Y3792441D01*
G37*
G36*
G01*
X2318693Y3791449D02*
X2318693Y3786929D01*
X2314173Y3786929D01*
X2314173Y3791449D01*
X2318693Y3791449D01*
G37*
G36*
G01*
X2318693Y3781417D02*
X2314173Y3781417D01*
X2314173Y3785937D01*
X2318693Y3785937D01*
X2318693Y3781417D01*
G37*
G36*
G01*
X2318693Y3814488D02*
X2314173Y3814488D01*
X2314173Y3819008D01*
X2318693Y3819008D01*
X2318693Y3814488D01*
G37*
G36*
G01*
X2314173Y3808976D02*
X2314173Y3813496D01*
X2318693Y3813496D01*
X2318693Y3808976D01*
X2314173Y3808976D01*
G37*
G36*
G01*
X2310551Y5942457D02*
X2317654Y5942457D01*
X2317654Y5935354D01*
X2310551Y5935354D01*
X2310551Y5942457D01*
G37*
G36*
G01*
X2310551Y5968441D02*
X2317654Y5968441D01*
X2317654Y5961339D01*
X2310551Y5961339D01*
X2310551Y5968441D01*
G37*
G36*
G01*
X2310551Y5916472D02*
X2317654Y5916472D01*
X2317654Y5909370D01*
X2310551Y5909370D01*
X2310551Y5916472D01*
G37*
G36*
G01*
X2313181Y3814488D02*
X2308661Y3814488D01*
X2308661Y3819008D01*
X2313181Y3819008D01*
X2313181Y3814488D01*
G37*
G36*
G01*
X2291654Y5026787D02*
X2311669Y5026787D01*
X2311669Y5006772D01*
X2291654Y5006772D01*
X2291654Y5026787D01*
G37*
G36*
G01*
X2301890Y5968441D02*
X2308992Y5968441D01*
X2308992Y5961339D01*
X2301890Y5961339D01*
X2301890Y5968441D01*
G37*
G36*
G01*
X2301890Y5942457D02*
X2308992Y5942457D01*
X2308992Y5935354D01*
X2301890Y5935354D01*
X2301890Y5942457D01*
G37*
G36*
G01*
X2301890Y5916472D02*
X2308992Y5916472D01*
X2308992Y5909370D01*
X2301890Y5909370D01*
X2301890Y5916472D01*
G37*
G36*
G01*
X2307669Y3814488D02*
X2303150Y3814488D01*
X2303150Y3819008D01*
X2307669Y3819008D01*
X2307669Y3814488D01*
G37*
G36*
G01*
X2293228Y5961339D02*
X2293228Y5968441D01*
X2300331Y5968441D01*
X2300331Y5961339D01*
X2293228Y5961339D01*
G37*
G36*
G01*
X2293228Y5942457D02*
X2300331Y5942457D01*
X2300331Y5935354D01*
X2293228Y5935354D01*
X2293228Y5942457D01*
G37*
G36*
G01*
X2293228Y5916472D02*
X2300331Y5916472D01*
X2300331Y5909370D01*
X2293228Y5909370D01*
X2293228Y5916472D01*
G37*
G36*
G01*
X2296646Y3786929D02*
X2292126Y3786929D01*
X2292126Y3791449D01*
X2296646Y3791449D01*
X2296646Y3786929D01*
G37*
G36*
G01*
X2292126Y3814488D02*
X2292126Y3819008D01*
X2296646Y3819008D01*
X2296646Y3814488D01*
X2292126Y3814488D01*
G37*
G36*
G01*
X2292126Y3792441D02*
X2292126Y3796961D01*
X2296646Y3796961D01*
X2296646Y3792441D01*
X2292126Y3792441D01*
G37*
G36*
G01*
X2284567Y5968441D02*
X2291669Y5968441D01*
X2291669Y5961339D01*
X2284567Y5961339D01*
X2284567Y5968441D01*
G37*
G36*
G01*
X2284567Y5959780D02*
X2291669Y5959780D01*
X2291669Y5952677D01*
X2284567Y5952677D01*
X2284567Y5959780D01*
G37*
G36*
G01*
X2284567Y5951118D02*
X2291669Y5951118D01*
X2291669Y5944016D01*
X2284567Y5944016D01*
X2284567Y5951118D01*
G37*
G36*
G01*
X2284567Y5942457D02*
X2291669Y5942457D01*
X2291669Y5935354D01*
X2284567Y5935354D01*
X2284567Y5942457D01*
G37*
G36*
G01*
X2284567Y5933795D02*
X2291669Y5933795D01*
X2291669Y5926693D01*
X2284567Y5926693D01*
X2284567Y5933795D01*
G37*
G36*
G01*
X2284567Y5925134D02*
X2291669Y5925134D01*
X2291669Y5918031D01*
X2284567Y5918031D01*
X2284567Y5925134D01*
G37*
G36*
G01*
X2284567Y5916472D02*
X2291669Y5916472D01*
X2291669Y5909370D01*
X2284567Y5909370D01*
X2284567Y5916472D01*
G37*
G36*
G01*
X2291134Y3814488D02*
X2286614Y3814488D01*
X2286614Y3819008D01*
X2291134Y3819008D01*
X2291134Y3814488D01*
G37*
G36*
G01*
X2291134Y3797953D02*
X2286614Y3797953D01*
X2286614Y3802472D01*
X2291134Y3802472D01*
X2291134Y3797953D01*
G37*
G36*
G01*
X2291134Y3785937D02*
X2291134Y3781417D01*
X2286614Y3781417D01*
X2286614Y3785937D01*
X2291134Y3785937D01*
G37*
G36*
G01*
X2287260Y5031181D02*
X2267244Y5031181D01*
X2267244Y5051197D01*
X2287260Y5051197D01*
X2287260Y5031181D01*
G37*
G36*
G01*
X2285622Y3814488D02*
X2281102Y3814488D01*
X2281102Y3819008D01*
X2285622Y3819008D01*
X2285622Y3814488D01*
G37*
G36*
G01*
X2285622Y3802472D02*
X2285622Y3797953D01*
X2281102Y3797953D01*
X2281102Y3802472D01*
X2285622Y3802472D01*
G37*
G36*
G01*
X2285622Y3781417D02*
X2281102Y3781417D01*
X2281102Y3785937D01*
X2285622Y3785937D01*
X2285622Y3781417D01*
G37*
G36*
G01*
X2280110Y3814488D02*
X2275591Y3814488D01*
X2275591Y3819008D01*
X2280110Y3819008D01*
X2280110Y3814488D01*
G37*
G36*
G01*
X2280110Y3797953D02*
X2275591Y3797953D01*
X2275591Y3802472D01*
X2280110Y3802472D01*
X2280110Y3797953D01*
G37*
G36*
G01*
X2280110Y3781417D02*
X2275591Y3781417D01*
X2275591Y3785937D01*
X2280110Y3785937D01*
X2280110Y3781417D01*
G37*
G36*
G01*
X2274598Y3808976D02*
X2270079Y3808976D01*
X2270079Y3813496D01*
X2274598Y3813496D01*
X2274598Y3808976D01*
G37*
G36*
G01*
X2274598Y3803465D02*
X2270079Y3803465D01*
X2270079Y3807984D01*
X2274598Y3807984D01*
X2274598Y3803465D01*
G37*
G36*
G01*
X2274598Y3781417D02*
X2270079Y3781417D01*
X2270079Y3785937D01*
X2274598Y3785937D01*
X2274598Y3781417D01*
G37*
G36*
G01*
X2274346Y5918031D02*
X2267244Y5918031D01*
X2267244Y5925134D01*
X2274346Y5925134D01*
X2274346Y5918031D01*
G37*
G36*
G01*
X2267244Y5968441D02*
X2274346Y5968441D01*
X2274346Y5961339D01*
X2267244Y5961339D01*
X2267244Y5968441D01*
G37*
G36*
G01*
X2267244Y5933795D02*
X2274346Y5933795D01*
X2274346Y5926693D01*
X2267244Y5926693D01*
X2267244Y5933795D01*
G37*
G36*
G01*
X2258583Y5968441D02*
X2265685Y5968441D01*
X2265685Y5961339D01*
X2258583Y5961339D01*
X2258583Y5968441D01*
G37*
G36*
G01*
X2258583Y5942457D02*
X2265685Y5942457D01*
X2265685Y5935354D01*
X2258583Y5935354D01*
X2258583Y5942457D01*
G37*
G36*
G01*
X2258583Y5916472D02*
X2265685Y5916472D01*
X2265685Y5909370D01*
X2258583Y5909370D01*
X2258583Y5916472D01*
G37*
G36*
G01*
X2242835Y5055591D02*
X2242835Y5075606D01*
X2262850Y5075606D01*
X2262850Y5055591D01*
X2242835Y5055591D01*
G37*
G36*
G01*
X2242835Y5051197D02*
X2262850Y5051197D01*
X2262850Y5031181D01*
X2242835Y5031181D01*
X2242835Y5051197D01*
G37*
G36*
G01*
X2242835Y5026787D02*
X2262850Y5026787D01*
X2262850Y5006772D01*
X2242835Y5006772D01*
X2242835Y5026787D01*
G37*
G36*
G01*
X2242835Y5002378D02*
X2262850Y5002378D01*
X2262850Y4982362D01*
X2242835Y4982362D01*
X2242835Y5002378D01*
G37*
G36*
G01*
X2242835Y4957953D02*
X2242835Y4977969D01*
X2262850Y4977969D01*
X2262850Y4957953D01*
X2242835Y4957953D01*
G37*
G36*
G01*
X2242835Y4953559D02*
X2262850Y4953559D01*
X2262850Y4933543D01*
X2242835Y4933543D01*
X2242835Y4953559D01*
G37*
G36*
G01*
X2242835Y4929150D02*
X2262850Y4929150D01*
X2262850Y4909134D01*
X2242835Y4909134D01*
X2242835Y4929150D01*
G37*
G36*
G01*
X2249921Y5961339D02*
X2249921Y5968441D01*
X2257024Y5968441D01*
X2257024Y5961339D01*
X2249921Y5961339D01*
G37*
G36*
G01*
X2249921Y5942457D02*
X2257024Y5942457D01*
X2257024Y5935354D01*
X2249921Y5935354D01*
X2249921Y5942457D01*
G37*
G36*
G01*
X2249921Y5916472D02*
X2257024Y5916472D01*
X2257024Y5909370D01*
X2249921Y5909370D01*
X2249921Y5916472D01*
G37*
G36*
G01*
X2241260Y5968441D02*
X2248362Y5968441D01*
X2248362Y5961339D01*
X2241260Y5961339D01*
X2241260Y5968441D01*
G37*
G36*
G01*
X2241260Y5942457D02*
X2248362Y5942457D01*
X2248362Y5935354D01*
X2241260Y5935354D01*
X2241260Y5942457D01*
G37*
G36*
G01*
X2241260Y5916472D02*
X2248362Y5916472D01*
X2248362Y5909370D01*
X2241260Y5909370D01*
X2241260Y5916472D01*
G37*
G36*
G01*
X2232598Y5959780D02*
X2239701Y5959780D01*
X2239701Y5952677D01*
X2232598Y5952677D01*
X2232598Y5959780D01*
G37*
G36*
G01*
X2232598Y5944016D02*
X2232598Y5951118D01*
X2239701Y5951118D01*
X2239701Y5944016D01*
X2232598Y5944016D01*
G37*
G36*
G01*
X2232598Y5909370D02*
X2232598Y5916472D01*
X2239701Y5916472D01*
X2239701Y5909370D01*
X2232598Y5909370D01*
G37*
G36*
G01*
X2215276Y5942457D02*
X2222378Y5942457D01*
X2222378Y5935354D01*
X2215276Y5935354D01*
X2215276Y5942457D01*
G37*
G36*
G01*
X2215276Y5959780D02*
X2222378Y5959780D01*
X2222378Y5952677D01*
X2215276Y5952677D01*
X2215276Y5959780D01*
G37*
G36*
G01*
X2215276Y5944016D02*
X2215276Y5951118D01*
X2222378Y5951118D01*
X2222378Y5944016D01*
X2215276Y5944016D01*
G37*
G36*
G01*
X2215276Y5968441D02*
X2222378Y5968441D01*
X2222378Y5961339D01*
X2215276Y5961339D01*
X2215276Y5968441D01*
G37*
G36*
G01*
X2215276Y5926693D02*
X2215276Y5933795D01*
X2222378Y5933795D01*
X2222378Y5926693D01*
X2215276Y5926693D01*
G37*
G36*
G01*
X2215276Y5925134D02*
X2222378Y5925134D01*
X2222378Y5918031D01*
X2215276Y5918031D01*
X2215276Y5925134D01*
G37*
G36*
G01*
X2194016Y5051197D02*
X2214031Y5051197D01*
X2214031Y5031181D01*
X2194016Y5031181D01*
X2194016Y5051197D01*
G37*
G36*
G01*
X2194016Y5006772D02*
X2194016Y5026787D01*
X2214031Y5026787D01*
X2214031Y5006772D01*
X2194016Y5006772D01*
G37*
G36*
G01*
X2194016Y4982362D02*
X2194016Y5002378D01*
X2214031Y5002378D01*
X2214031Y4982362D01*
X2194016Y4982362D01*
G37*
G36*
G01*
X2194016Y4957953D02*
X2194016Y4977969D01*
X2214031Y4977969D01*
X2214031Y4957953D01*
X2194016Y4957953D01*
G37*
G36*
G01*
X2194016Y4953559D02*
X2214031Y4953559D01*
X2214031Y4933543D01*
X2194016Y4933543D01*
X2194016Y4953559D01*
G37*
G36*
G01*
X2194016Y4909134D02*
X2194016Y4929150D01*
X2214031Y4929150D01*
X2214031Y4909134D01*
X2194016Y4909134D01*
G37*
G36*
G01*
X2206614Y5916472D02*
X2213717Y5916472D01*
X2213717Y5909370D01*
X2206614Y5909370D01*
X2206614Y5916472D01*
G37*
G36*
G01*
X2197953Y5916472D02*
X2205055Y5916472D01*
X2205055Y5909370D01*
X2197953Y5909370D01*
X2197953Y5916472D01*
G37*
G36*
G01*
X2189291Y5909370D02*
X2189291Y5916472D01*
X2196394Y5916472D01*
X2196394Y5909370D01*
X2189291Y5909370D01*
G37*
G36*
G01*
X2169606Y5055591D02*
X2169606Y5075606D01*
X2189622Y5075606D01*
X2189622Y5055591D01*
X2169606Y5055591D01*
G37*
G36*
G01*
X2169606Y5002378D02*
X2189622Y5002378D01*
X2189622Y4982362D01*
X2169606Y4982362D01*
X2169606Y5002378D01*
G37*
G36*
G01*
X2180630Y5968441D02*
X2187732Y5968441D01*
X2187732Y5961339D01*
X2180630Y5961339D01*
X2180630Y5968441D01*
G37*
G36*
G01*
X2180630Y5959780D02*
X2187732Y5959780D01*
X2187732Y5952677D01*
X2180630Y5952677D01*
X2180630Y5959780D01*
G37*
G36*
G01*
X2180630Y5951118D02*
X2187732Y5951118D01*
X2187732Y5944016D01*
X2180630Y5944016D01*
X2180630Y5951118D01*
G37*
G36*
G01*
X2180630Y5942457D02*
X2187732Y5942457D01*
X2187732Y5935354D01*
X2180630Y5935354D01*
X2180630Y5942457D01*
G37*
G36*
G01*
X2180630Y5933795D02*
X2187732Y5933795D01*
X2187732Y5926693D01*
X2180630Y5926693D01*
X2180630Y5933795D01*
G37*
G36*
G01*
X2180630Y5925134D02*
X2187732Y5925134D01*
X2187732Y5918031D01*
X2180630Y5918031D01*
X2180630Y5925134D01*
G37*
G36*
G01*
X2165213Y4982362D02*
X2145197Y4982362D01*
X2145197Y5002378D01*
X2165213Y5002378D01*
X2165213Y4982362D01*
G37*
G36*
G01*
X2145197Y5075606D02*
X2165213Y5075606D01*
X2165213Y5055591D01*
X2145197Y5055591D01*
X2145197Y5075606D01*
G37*
G36*
G01*
X2120787Y5075606D02*
X2140803Y5075606D01*
X2140803Y5055591D01*
X2120787Y5055591D01*
X2120787Y5075606D01*
G37*
G36*
G01*
X2120787Y5002378D02*
X2140803Y5002378D01*
X2140803Y4982362D01*
X2120787Y4982362D01*
X2120787Y5002378D01*
G37*
G36*
G01*
X2096378Y5051197D02*
X2116394Y5051197D01*
X2116394Y5031181D01*
X2096378Y5031181D01*
X2096378Y5051197D01*
G37*
G36*
G01*
X2116394Y4957953D02*
X2096378Y4957953D01*
X2096378Y4977969D01*
X2116394Y4977969D01*
X2116394Y4957953D01*
G37*
G36*
G01*
X2096378Y5006772D02*
X2096378Y5026787D01*
X2116394Y5026787D01*
X2116394Y5006772D01*
X2096378Y5006772D01*
G37*
G36*
G01*
X2096378Y5002378D02*
X2116394Y5002378D01*
X2116394Y4982362D01*
X2096378Y4982362D01*
X2096378Y5002378D01*
G37*
G36*
G01*
X2096378Y4953559D02*
X2116394Y4953559D01*
X2116394Y4933543D01*
X2096378Y4933543D01*
X2096378Y4953559D01*
G37*
G36*
G01*
X2096378Y4909134D02*
X2096378Y4929150D01*
X2116394Y4929150D01*
X2116394Y4909134D01*
X2096378Y4909134D01*
G37*
G36*
G01*
X2047559Y5075606D02*
X2067575Y5075606D01*
X2067575Y5055591D01*
X2047559Y5055591D01*
X2047559Y5075606D01*
G37*
G36*
G01*
X2047559Y5051197D02*
X2067575Y5051197D01*
X2067575Y5031181D01*
X2047559Y5031181D01*
X2047559Y5051197D01*
G37*
G36*
G01*
X2047559Y5026787D02*
X2067575Y5026787D01*
X2067575Y5006772D01*
X2047559Y5006772D01*
X2047559Y5026787D01*
G37*
G36*
G01*
X2047559Y5002378D02*
X2067575Y5002378D01*
X2067575Y4982362D01*
X2047559Y4982362D01*
X2047559Y5002378D01*
G37*
G36*
G01*
X2047559Y4957953D02*
X2047559Y4977969D01*
X2067575Y4977969D01*
X2067575Y4957953D01*
X2047559Y4957953D01*
G37*
G36*
G01*
X2047559Y4933543D02*
X2047559Y4953559D01*
X2067575Y4953559D01*
X2067575Y4933543D01*
X2047559Y4933543D01*
G37*
G36*
G01*
X2023150Y4909134D02*
X2023150Y4929150D01*
X2043165Y4929150D01*
X2043165Y4909134D01*
X2023150Y4909134D01*
G37*
G36*
G01*
X1998740Y4957953D02*
X1998740Y4977969D01*
X2018756Y4977969D01*
X2018756Y4957953D01*
X1998740Y4957953D01*
G37*
G36*
G01*
X1998740Y4982362D02*
X1998740Y5002378D01*
X2018756Y5002378D01*
X2018756Y4982362D01*
X1998740Y4982362D01*
G37*
G36*
G01*
X1998740Y4933543D02*
X1998740Y4953559D01*
X2018756Y4953559D01*
X2018756Y4933543D01*
X1998740Y4933543D01*
G37*
G36*
G01*
X1974331Y4929150D02*
X1994346Y4929150D01*
X1994346Y4909134D01*
X1974331Y4909134D01*
X1974331Y4929150D01*
G37*
G36*
G01*
X1993929Y3803465D02*
X1989409Y3803465D01*
X1989409Y3807984D01*
X1993929Y3807984D01*
X1993929Y3803465D01*
G37*
G36*
G01*
X1993929Y3797953D02*
X1989409Y3797953D01*
X1989409Y3802472D01*
X1993929Y3802472D01*
X1993929Y3797953D01*
G37*
G36*
G01*
X1993929Y3792441D02*
X1989409Y3792441D01*
X1989409Y3796961D01*
X1993929Y3796961D01*
X1993929Y3792441D01*
G37*
G36*
G01*
X1993929Y3786929D02*
X1989409Y3786929D01*
X1989409Y3791449D01*
X1993929Y3791449D01*
X1993929Y3786929D01*
G37*
G36*
G01*
X1989409Y3808976D02*
X1989409Y3813496D01*
X1993929Y3813496D01*
X1993929Y3808976D01*
X1989409Y3808976D01*
G37*
G36*
G01*
X1988417Y3781417D02*
X1983898Y3781417D01*
X1983898Y3785937D01*
X1988417Y3785937D01*
X1988417Y3781417D01*
G37*
G36*
G01*
X1983898Y3814488D02*
X1983898Y3819008D01*
X1988417Y3819008D01*
X1988417Y3814488D01*
X1983898Y3814488D01*
G37*
G36*
G01*
X1982906Y3785937D02*
X1982906Y3781417D01*
X1978386Y3781417D01*
X1978386Y3785937D01*
X1982906Y3785937D01*
G37*
G36*
G01*
X1978386Y3814488D02*
X1978386Y3819008D01*
X1982906Y3819008D01*
X1982906Y3814488D01*
X1978386Y3814488D01*
G37*
G36*
G01*
X1972874Y3814488D02*
X1972874Y3819008D01*
X1977394Y3819008D01*
X1977394Y3814488D01*
X1972874Y3814488D01*
G37*
G36*
G01*
X1972874Y3781417D02*
X1972874Y3785937D01*
X1977394Y3785937D01*
X1977394Y3781417D01*
X1972874Y3781417D01*
G37*
G36*
G01*
X1967362Y3797953D02*
X1967362Y3802472D01*
X1971882Y3802472D01*
X1971882Y3797953D01*
X1967362Y3797953D01*
G37*
G36*
G01*
X1971882Y3813496D02*
X1971882Y3808976D01*
X1967362Y3808976D01*
X1967362Y3813496D01*
X1971882Y3813496D01*
G37*
G36*
G01*
X1971882Y3803465D02*
X1967362Y3803465D01*
X1967362Y3807984D01*
X1971882Y3807984D01*
X1971882Y3803465D01*
G37*
G36*
G01*
X1971882Y3786929D02*
X1967362Y3786929D01*
X1967362Y3791449D01*
X1971882Y3791449D01*
X1971882Y3786929D01*
G37*
G36*
G01*
X1971882Y3814488D02*
X1967362Y3814488D01*
X1967362Y3819008D01*
X1971882Y3819008D01*
X1971882Y3814488D01*
G37*
G36*
G01*
X1967362Y3792441D02*
X1967362Y3796961D01*
X1971882Y3796961D01*
X1971882Y3792441D01*
X1967362Y3792441D01*
G37*
G36*
G01*
X1967362Y3781417D02*
X1967362Y3785937D01*
X1971882Y3785937D01*
X1971882Y3781417D01*
X1967362Y3781417D01*
G37*
G36*
G01*
X1949921Y5075606D02*
X1969937Y5075606D01*
X1969937Y5055591D01*
X1949921Y5055591D01*
X1949921Y5075606D01*
G37*
G36*
G01*
X1949921Y5031181D02*
X1949921Y5051197D01*
X1969937Y5051197D01*
X1969937Y5031181D01*
X1949921Y5031181D01*
G37*
G36*
G01*
X1949921Y5006772D02*
X1949921Y5026787D01*
X1969937Y5026787D01*
X1969937Y5006772D01*
X1949921Y5006772D01*
G37*
G36*
G01*
X1949921Y4982362D02*
X1949921Y5002378D01*
X1969937Y5002378D01*
X1969937Y4982362D01*
X1949921Y4982362D01*
G37*
G36*
G01*
X1949921Y4977969D02*
X1969937Y4977969D01*
X1969937Y4957953D01*
X1949921Y4957953D01*
X1949921Y4977969D01*
G37*
G36*
G01*
X1949921Y4953559D02*
X1969937Y4953559D01*
X1969937Y4933543D01*
X1949921Y4933543D01*
X1949921Y4953559D01*
G37*
G36*
G01*
X1960858Y3802472D02*
X1960858Y3797953D01*
X1956339Y3797953D01*
X1956339Y3802472D01*
X1960858Y3802472D01*
G37*
G36*
G01*
X1960858Y3785937D02*
X1960858Y3781417D01*
X1956339Y3781417D01*
X1956339Y3785937D01*
X1960858Y3785937D01*
G37*
G36*
G01*
X1956339Y3814488D02*
X1956339Y3819008D01*
X1960858Y3819008D01*
X1960858Y3814488D01*
X1956339Y3814488D01*
G37*
G36*
G01*
X1956339Y3808976D02*
X1956339Y3813496D01*
X1960858Y3813496D01*
X1960858Y3808976D01*
X1956339Y3808976D01*
G37*
G36*
G01*
X1956339Y3792441D02*
X1956339Y3796961D01*
X1960858Y3796961D01*
X1960858Y3792441D01*
X1956339Y3792441D01*
G37*
G36*
G01*
X1956339Y3786929D02*
X1956339Y3791449D01*
X1960858Y3791449D01*
X1960858Y3786929D01*
X1956339Y3786929D01*
G37*
G36*
G01*
X1960858Y3803465D02*
X1956339Y3803465D01*
X1956339Y3807984D01*
X1960858Y3807984D01*
X1960858Y3803465D01*
G37*
G36*
G01*
X1955346Y3797953D02*
X1950827Y3797953D01*
X1950827Y3802472D01*
X1955346Y3802472D01*
X1955346Y3797953D01*
G37*
G36*
G01*
X1945315Y3803465D02*
X1945315Y3807984D01*
X1949835Y3807984D01*
X1949835Y3803465D01*
X1945315Y3803465D01*
G37*
G36*
G01*
X1944323Y3808976D02*
X1939803Y3808976D01*
X1939803Y3813496D01*
X1944323Y3813496D01*
X1944323Y3808976D01*
G37*
G36*
G01*
X1938811Y3814488D02*
X1934291Y3814488D01*
X1934291Y3819008D01*
X1938811Y3819008D01*
X1938811Y3814488D01*
G37*
G36*
G01*
X1938811Y3808976D02*
X1934291Y3808976D01*
X1934291Y3813496D01*
X1938811Y3813496D01*
X1938811Y3808976D01*
G37*
G36*
G01*
X1938811Y3803465D02*
X1934291Y3803465D01*
X1934291Y3807984D01*
X1938811Y3807984D01*
X1938811Y3803465D01*
G37*
G36*
G01*
X1938811Y3792441D02*
X1934291Y3792441D01*
X1934291Y3796961D01*
X1938811Y3796961D01*
X1938811Y3792441D01*
G37*
G36*
G01*
X1938811Y3786929D02*
X1934291Y3786929D01*
X1934291Y3791449D01*
X1938811Y3791449D01*
X1938811Y3786929D01*
G37*
G36*
G01*
X1938811Y3781417D02*
X1934291Y3781417D01*
X1934291Y3785937D01*
X1938811Y3785937D01*
X1938811Y3781417D01*
G37*
G36*
G01*
X1934291Y3797953D02*
X1934291Y3802472D01*
X1938811Y3802472D01*
X1938811Y3797953D01*
X1934291Y3797953D01*
G37*
G36*
G01*
X1927787Y3813496D02*
X1927787Y3808976D01*
X1923268Y3808976D01*
X1923268Y3813496D01*
X1927787Y3813496D01*
G37*
G36*
G01*
X1927787Y3814488D02*
X1923268Y3814488D01*
X1923268Y3819008D01*
X1927787Y3819008D01*
X1927787Y3814488D01*
G37*
G36*
G01*
X1927787Y3797953D02*
X1923268Y3797953D01*
X1923268Y3802472D01*
X1927787Y3802472D01*
X1927787Y3797953D01*
G37*
G36*
G01*
X1927787Y3786929D02*
X1923268Y3786929D01*
X1923268Y3791449D01*
X1927787Y3791449D01*
X1927787Y3786929D01*
G37*
G36*
G01*
X1923268Y3803465D02*
X1923268Y3807984D01*
X1927787Y3807984D01*
X1927787Y3803465D01*
X1923268Y3803465D01*
G37*
G36*
G01*
X1923268Y3792441D02*
X1923268Y3796961D01*
X1927787Y3796961D01*
X1927787Y3792441D01*
X1923268Y3792441D01*
G37*
G36*
G01*
X1922276Y3781417D02*
X1917756Y3781417D01*
X1917756Y3785937D01*
X1922276Y3785937D01*
X1922276Y3781417D01*
G37*
G36*
G01*
X1901102Y5055591D02*
X1901102Y5075606D01*
X1921118Y5075606D01*
X1921118Y5055591D01*
X1901102Y5055591D01*
G37*
G36*
G01*
X1921118Y4933543D02*
X1901102Y4933543D01*
X1901102Y4953559D01*
X1921118Y4953559D01*
X1921118Y4933543D01*
G37*
G36*
G01*
X1901102Y4977969D02*
X1921118Y4977969D01*
X1921118Y4957953D01*
X1901102Y4957953D01*
X1901102Y4977969D01*
G37*
G36*
G01*
X1912244Y3781417D02*
X1912244Y3785937D01*
X1916764Y3785937D01*
X1916764Y3781417D01*
X1912244Y3781417D01*
G37*
G36*
G01*
X1906732Y3781417D02*
X1906732Y3785937D01*
X1911252Y3785937D01*
X1911252Y3781417D01*
X1906732Y3781417D01*
G37*
G36*
G01*
X1905740Y3814488D02*
X1901220Y3814488D01*
X1901220Y3819008D01*
X1905740Y3819008D01*
X1905740Y3814488D01*
G37*
G36*
G01*
X1905740Y3797953D02*
X1901220Y3797953D01*
X1901220Y3802472D01*
X1905740Y3802472D01*
X1905740Y3797953D01*
G37*
G36*
G01*
X1905740Y3792441D02*
X1901220Y3792441D01*
X1901220Y3796961D01*
X1905740Y3796961D01*
X1905740Y3792441D01*
G37*
G36*
G01*
X1901220Y3808976D02*
X1901220Y3813496D01*
X1905740Y3813496D01*
X1905740Y3808976D01*
X1901220Y3808976D01*
G37*
G36*
G01*
X1901220Y3803465D02*
X1901220Y3807984D01*
X1905740Y3807984D01*
X1905740Y3803465D01*
X1901220Y3803465D01*
G37*
G36*
G01*
X1901220Y3786929D02*
X1901220Y3791449D01*
X1905740Y3791449D01*
X1905740Y3786929D01*
X1901220Y3786929D01*
G37*
G36*
G01*
X1876693Y5055591D02*
X1876693Y5075606D01*
X1896709Y5075606D01*
X1896709Y5055591D01*
X1876693Y5055591D01*
G37*
G36*
G01*
X1876693Y4929150D02*
X1896709Y4929150D01*
X1896709Y4909134D01*
X1876693Y4909134D01*
X1876693Y4929150D01*
G37*
G36*
G01*
X1876693Y5002378D02*
X1896709Y5002378D01*
X1896709Y4982362D01*
X1876693Y4982362D01*
X1876693Y5002378D01*
G37*
G36*
G01*
X1894717Y3792441D02*
X1890197Y3792441D01*
X1890197Y3796961D01*
X1894717Y3796961D01*
X1894717Y3792441D01*
G37*
G36*
G01*
X1890197Y3786929D02*
X1890197Y3791449D01*
X1894717Y3791449D01*
X1894717Y3786929D01*
X1890197Y3786929D01*
G37*
G36*
G01*
X1890197Y3808976D02*
X1890197Y3813496D01*
X1894717Y3813496D01*
X1894717Y3808976D01*
X1890197Y3808976D01*
G37*
G36*
G01*
X1894717Y3797953D02*
X1890197Y3797953D01*
X1890197Y3802472D01*
X1894717Y3802472D01*
X1894717Y3797953D01*
G37*
G36*
G01*
X1894717Y3803465D02*
X1890197Y3803465D01*
X1890197Y3807984D01*
X1894717Y3807984D01*
X1894717Y3803465D01*
G37*
G36*
G01*
X1889205Y3819008D02*
X1889205Y3814488D01*
X1884685Y3814488D01*
X1884685Y3819008D01*
X1889205Y3819008D01*
G37*
G36*
G01*
X1889205Y3785937D02*
X1889205Y3781417D01*
X1884685Y3781417D01*
X1884685Y3785937D01*
X1889205Y3785937D01*
G37*
G36*
G01*
X1879173Y3814488D02*
X1879173Y3819008D01*
X1883693Y3819008D01*
X1883693Y3814488D01*
X1879173Y3814488D01*
G37*
G36*
G01*
X1879173Y3781417D02*
X1879173Y3785937D01*
X1883693Y3785937D01*
X1883693Y3781417D01*
X1879173Y3781417D01*
G37*
G36*
G01*
X1873661Y3814488D02*
X1873661Y3819008D01*
X1878181Y3819008D01*
X1878181Y3814488D01*
X1873661Y3814488D01*
G37*
G36*
G01*
X1873661Y3781417D02*
X1873661Y3785937D01*
X1878181Y3785937D01*
X1878181Y3781417D01*
X1873661Y3781417D01*
G37*
G36*
G01*
X1872669Y3803465D02*
X1868150Y3803465D01*
X1868150Y3807984D01*
X1872669Y3807984D01*
X1872669Y3803465D01*
G37*
G36*
G01*
X1872669Y3792441D02*
X1868150Y3792441D01*
X1868150Y3796961D01*
X1872669Y3796961D01*
X1872669Y3792441D01*
G37*
G36*
G01*
X1872669Y3786929D02*
X1868150Y3786929D01*
X1868150Y3791449D01*
X1872669Y3791449D01*
X1872669Y3786929D01*
G37*
G36*
G01*
X1868150Y3808976D02*
X1868150Y3813496D01*
X1872669Y3813496D01*
X1872669Y3808976D01*
X1868150Y3808976D01*
G37*
G36*
G01*
X1868150Y3797953D02*
X1868150Y3802472D01*
X1872669Y3802472D01*
X1872669Y3797953D01*
X1868150Y3797953D01*
G37*
G36*
G01*
X1852283Y5075606D02*
X1872299Y5075606D01*
X1872299Y5055591D01*
X1852283Y5055591D01*
X1852283Y5075606D01*
G37*
G36*
G01*
X1852283Y5002378D02*
X1872299Y5002378D01*
X1872299Y4982362D01*
X1852283Y4982362D01*
X1852283Y5002378D01*
G37*
G36*
G01*
X1852283Y4909134D02*
X1852283Y4929150D01*
X1872299Y4929150D01*
X1872299Y4909134D01*
X1852283Y4909134D01*
G37*
G36*
G01*
X1861646Y3814488D02*
X1857126Y3814488D01*
X1857126Y3819008D01*
X1861646Y3819008D01*
X1861646Y3814488D01*
G37*
G36*
G01*
X1861646Y3792441D02*
X1857126Y3792441D01*
X1857126Y3796961D01*
X1861646Y3796961D01*
X1861646Y3792441D01*
G37*
G36*
G01*
X1861646Y3786929D02*
X1857126Y3786929D01*
X1857126Y3791449D01*
X1861646Y3791449D01*
X1861646Y3786929D01*
G37*
G36*
G01*
X1856134Y3814488D02*
X1851614Y3814488D01*
X1851614Y3819008D01*
X1856134Y3819008D01*
X1856134Y3814488D01*
G37*
G36*
G01*
X1856134Y3797953D02*
X1851614Y3797953D01*
X1851614Y3802472D01*
X1856134Y3802472D01*
X1856134Y3797953D01*
G37*
G36*
G01*
X1856134Y3781417D02*
X1851614Y3781417D01*
X1851614Y3785937D01*
X1856134Y3785937D01*
X1856134Y3781417D01*
G37*
G36*
G01*
X1850622Y3814488D02*
X1846102Y3814488D01*
X1846102Y3819008D01*
X1850622Y3819008D01*
X1850622Y3814488D01*
G37*
G36*
G01*
X1850622Y3781417D02*
X1846102Y3781417D01*
X1846102Y3785937D01*
X1850622Y3785937D01*
X1850622Y3781417D01*
G37*
G36*
G01*
X1846102Y3797953D02*
X1846102Y3802472D01*
X1850622Y3802472D01*
X1850622Y3797953D01*
X1846102Y3797953D01*
G37*
G36*
G01*
X1827874Y5055591D02*
X1827874Y5075606D01*
X1847890Y5075606D01*
X1847890Y5055591D01*
X1827874Y5055591D01*
G37*
G36*
G01*
X1827874Y4982362D02*
X1827874Y5002378D01*
X1847890Y5002378D01*
X1847890Y4982362D01*
X1827874Y4982362D01*
G37*
G36*
G01*
X1827874Y4929150D02*
X1847890Y4929150D01*
X1847890Y4909134D01*
X1827874Y4909134D01*
X1827874Y4929150D01*
G37*
G36*
G01*
X1845110Y3814488D02*
X1840591Y3814488D01*
X1840591Y3819008D01*
X1845110Y3819008D01*
X1845110Y3814488D01*
G37*
G36*
G01*
X1845110Y3802472D02*
X1845110Y3797953D01*
X1840591Y3797953D01*
X1840591Y3802472D01*
X1845110Y3802472D01*
G37*
G36*
G01*
X1845110Y3781417D02*
X1840591Y3781417D01*
X1840591Y3785937D01*
X1845110Y3785937D01*
X1845110Y3781417D01*
G37*
G36*
G01*
X1839598Y3803465D02*
X1835079Y3803465D01*
X1835079Y3807984D01*
X1839598Y3807984D01*
X1839598Y3803465D01*
G37*
G36*
G01*
X1839598Y3781417D02*
X1835079Y3781417D01*
X1835079Y3785937D01*
X1839598Y3785937D01*
X1839598Y3781417D01*
G37*
G36*
G01*
X1835079Y3808976D02*
X1835079Y3813496D01*
X1839598Y3813496D01*
X1839598Y3808976D01*
X1835079Y3808976D01*
G37*
G36*
G01*
X1803465Y5031181D02*
X1803465Y5051197D01*
X1823480Y5051197D01*
X1823480Y5031181D01*
X1803465Y5031181D01*
G37*
G36*
G01*
X1803465Y5026787D02*
X1823480Y5026787D01*
X1823480Y5006772D01*
X1803465Y5006772D01*
X1803465Y5026787D01*
G37*
G36*
G01*
X1803465Y4909134D02*
X1803465Y4929150D01*
X1823480Y4929150D01*
X1823480Y4909134D01*
X1803465Y4909134D01*
G37*
G36*
G01*
X1161890Y5580709D02*
X1161890Y5574252D01*
X1155433Y5574252D01*
X1155433Y5580709D01*
X1161890Y5580709D01*
G37*
G36*
G01*
X1161890Y5572835D02*
X1161890Y5566378D01*
X1155433Y5566378D01*
X1155433Y5572835D01*
X1161890Y5572835D01*
G37*
G36*
G01*
X1161890Y4220709D02*
X1161890Y4214252D01*
X1155433Y4214252D01*
X1155433Y4220709D01*
X1161890Y4220709D01*
G37*
G36*
G01*
X1161890Y4181339D02*
X1161890Y4174882D01*
X1155433Y4174882D01*
X1155433Y4181339D01*
X1161890Y4181339D01*
G37*
G36*
G01*
X1155433Y5541339D02*
X1161890Y5541339D01*
X1161890Y5534882D01*
X1155433Y5534882D01*
X1155433Y5541339D01*
G37*
G36*
G01*
X1155433Y4212835D02*
X1161890Y4212835D01*
X1161890Y4206378D01*
X1155433Y4206378D01*
X1155433Y4212835D01*
G37*
G36*
G01*
X1154016Y5588583D02*
X1154016Y5582126D01*
X1147559Y5582126D01*
X1147559Y5588583D01*
X1154016Y5588583D01*
G37*
G36*
G01*
X1154016Y5541339D02*
X1154016Y5534882D01*
X1147559Y5534882D01*
X1147559Y5541339D01*
X1154016Y5541339D01*
G37*
G36*
G01*
X1154016Y4228583D02*
X1154016Y4222126D01*
X1147559Y4222126D01*
X1147559Y4228583D01*
X1154016Y4228583D01*
G37*
G36*
G01*
X1154016Y4204961D02*
X1154016Y4198504D01*
X1147559Y4198504D01*
X1147559Y4204961D01*
X1154016Y4204961D01*
G37*
G36*
G01*
X1154016Y4181339D02*
X1154016Y4174882D01*
X1147559Y4174882D01*
X1147559Y4181339D01*
X1154016Y4181339D01*
G37*
G36*
G01*
X1147559Y5558504D02*
X1147559Y5564961D01*
X1154016Y5564961D01*
X1154016Y5558504D01*
X1147559Y5558504D01*
G37*
G36*
G01*
X1146142Y5588583D02*
X1146142Y5582126D01*
X1139685Y5582126D01*
X1139685Y5588583D01*
X1146142Y5588583D01*
G37*
G36*
G01*
X1146142Y5557087D02*
X1146142Y5550630D01*
X1139685Y5550630D01*
X1139685Y5557087D01*
X1146142Y5557087D01*
G37*
G36*
G01*
X1146142Y5541339D02*
X1146142Y5534882D01*
X1139685Y5534882D01*
X1139685Y5541339D01*
X1146142Y5541339D01*
G37*
G36*
G01*
X1146142Y4228583D02*
X1146142Y4222126D01*
X1139685Y4222126D01*
X1139685Y4228583D01*
X1146142Y4228583D01*
G37*
G36*
G01*
X1146142Y4181339D02*
X1146142Y4174882D01*
X1139685Y4174882D01*
X1139685Y4181339D01*
X1146142Y4181339D01*
G37*
G36*
G01*
X1139685Y4197087D02*
X1146142Y4197087D01*
X1146142Y4190630D01*
X1139685Y4190630D01*
X1139685Y4197087D01*
G37*
G36*
G01*
X1138268Y5549213D02*
X1138268Y5542756D01*
X1131811Y5542756D01*
X1131811Y5549213D01*
X1138268Y5549213D01*
G37*
G36*
G01*
X1138268Y4228583D02*
X1138268Y4222126D01*
X1131811Y4222126D01*
X1131811Y4228583D01*
X1138268Y4228583D01*
G37*
G36*
G01*
X1138268Y4189213D02*
X1138268Y4182756D01*
X1131811Y4182756D01*
X1131811Y4189213D01*
X1138268Y4189213D01*
G37*
G36*
G01*
X1131811Y5588583D02*
X1138268Y5588583D01*
X1138268Y5582126D01*
X1131811Y5582126D01*
X1131811Y5588583D01*
G37*
G36*
G01*
X1131811Y5541339D02*
X1138268Y5541339D01*
X1138268Y5534882D01*
X1131811Y5534882D01*
X1131811Y5541339D01*
G37*
G36*
G01*
X1131811Y4181339D02*
X1138268Y4181339D01*
X1138268Y4174882D01*
X1131811Y4174882D01*
X1131811Y4181339D01*
G37*
G36*
G01*
X1130394Y5541339D02*
X1130394Y5534882D01*
X1123937Y5534882D01*
X1123937Y5541339D01*
X1130394Y5541339D01*
G37*
G36*
G01*
X1130394Y4220709D02*
X1130394Y4214252D01*
X1123937Y4214252D01*
X1123937Y4220709D01*
X1130394Y4220709D01*
G37*
G36*
G01*
X1130394Y4181339D02*
X1130394Y4174882D01*
X1123937Y4174882D01*
X1123937Y4181339D01*
X1130394Y4181339D01*
G37*
G36*
G01*
X1123937Y5580709D02*
X1130394Y5580709D01*
X1130394Y5574252D01*
X1123937Y5574252D01*
X1123937Y5580709D01*
G37*
G36*
G01*
X1114646Y5588583D02*
X1114646Y5582126D01*
X1108189Y5582126D01*
X1108189Y5588583D01*
X1114646Y5588583D01*
G37*
G36*
G01*
X1114646Y5580709D02*
X1114646Y5574252D01*
X1108189Y5574252D01*
X1108189Y5580709D01*
X1114646Y5580709D01*
G37*
G36*
G01*
X1114646Y4220709D02*
X1114646Y4214252D01*
X1108189Y4214252D01*
X1108189Y4220709D01*
X1114646Y4220709D01*
G37*
G36*
G01*
X1114646Y4181339D02*
X1114646Y4174882D01*
X1108189Y4174882D01*
X1108189Y4181339D01*
X1114646Y4181339D01*
G37*
G36*
G01*
X1108189Y4222126D02*
X1108189Y4228583D01*
X1114646Y4228583D01*
X1114646Y4222126D01*
X1108189Y4222126D01*
G37*
G36*
G01*
X1108189Y4189213D02*
X1114646Y4189213D01*
X1114646Y4182756D01*
X1108189Y4182756D01*
X1108189Y4189213D01*
G37*
G36*
G01*
X1106772Y4212835D02*
X1106772Y4206378D01*
X1100315Y4206378D01*
X1100315Y4212835D01*
X1106772Y4212835D01*
G37*
G36*
G01*
X1106772Y4197087D02*
X1106772Y4190630D01*
X1100315Y4190630D01*
X1100315Y4197087D01*
X1106772Y4197087D01*
G37*
G36*
G01*
X1100315Y5572835D02*
X1106772Y5572835D01*
X1106772Y5566378D01*
X1100315Y5566378D01*
X1100315Y5572835D01*
G37*
G36*
G01*
X1098898Y5564961D02*
X1098898Y5558504D01*
X1092441Y5558504D01*
X1092441Y5564961D01*
X1098898Y5564961D01*
G37*
G36*
G01*
X1098898Y5549213D02*
X1098898Y5542756D01*
X1092441Y5542756D01*
X1092441Y5549213D01*
X1098898Y5549213D01*
G37*
G36*
G01*
X1092441Y5550630D02*
X1092441Y5557087D01*
X1098898Y5557087D01*
X1098898Y5550630D01*
X1092441Y5550630D01*
G37*
G36*
G01*
X1092441Y5541339D02*
X1098898Y5541339D01*
X1098898Y5534882D01*
X1092441Y5534882D01*
X1092441Y5541339D01*
G37*
G36*
G01*
X1092441Y4204961D02*
X1098898Y4204961D01*
X1098898Y4198504D01*
X1092441Y4198504D01*
X1092441Y4204961D01*
G37*
G36*
G01*
X1091024Y5572835D02*
X1091024Y5566378D01*
X1084567Y5566378D01*
X1084567Y5572835D01*
X1091024Y5572835D01*
G37*
G36*
G01*
X1091024Y4197087D02*
X1091024Y4190630D01*
X1084567Y4190630D01*
X1084567Y4197087D01*
X1091024Y4197087D01*
G37*
G36*
G01*
X1084567Y4212835D02*
X1091024Y4212835D01*
X1091024Y4206378D01*
X1084567Y4206378D01*
X1084567Y4212835D01*
G37*
G36*
G01*
X1083150Y5580709D02*
X1083150Y5574252D01*
X1076693Y5574252D01*
X1076693Y5580709D01*
X1083150Y5580709D01*
G37*
G36*
G01*
X1083150Y4228583D02*
X1083150Y4222126D01*
X1076693Y4222126D01*
X1076693Y4228583D01*
X1083150Y4228583D01*
G37*
G36*
G01*
X1083150Y4220709D02*
X1083150Y4214252D01*
X1076693Y4214252D01*
X1076693Y4220709D01*
X1083150Y4220709D01*
G37*
G36*
G01*
X1083150Y4189213D02*
X1083150Y4182756D01*
X1076693Y4182756D01*
X1076693Y4189213D01*
X1083150Y4189213D01*
G37*
G36*
G01*
X1076693Y5588583D02*
X1083150Y5588583D01*
X1083150Y5582126D01*
X1076693Y5582126D01*
X1076693Y5588583D01*
G37*
G36*
G01*
X1076693Y4181339D02*
X1083150Y4181339D01*
X1083150Y4174882D01*
X1076693Y4174882D01*
X1076693Y4181339D01*
G37*
G36*
G01*
X886890Y5300709D02*
X886890Y5294252D01*
X880433Y5294252D01*
X880433Y5300709D01*
X886890Y5300709D01*
G37*
G36*
G01*
X886890Y5292835D02*
X886890Y5286378D01*
X880433Y5286378D01*
X880433Y5292835D01*
X886890Y5292835D01*
G37*
G36*
G01*
X886890Y5277087D02*
X886890Y5270630D01*
X880433Y5270630D01*
X880433Y5277087D01*
X886890Y5277087D01*
G37*
G36*
G01*
X886890Y5269213D02*
X886890Y5262756D01*
X880433Y5262756D01*
X880433Y5269213D01*
X886890Y5269213D01*
G37*
G36*
G01*
X886890Y3940709D02*
X886890Y3934252D01*
X880433Y3934252D01*
X880433Y3940709D01*
X886890Y3940709D01*
G37*
G36*
G01*
X886890Y3932835D02*
X886890Y3926378D01*
X880433Y3926378D01*
X880433Y3932835D01*
X886890Y3932835D01*
G37*
G36*
G01*
X886890Y3909213D02*
X886890Y3902756D01*
X880433Y3902756D01*
X880433Y3909213D01*
X886890Y3909213D01*
G37*
G36*
G01*
X880433Y3917087D02*
X886890Y3917087D01*
X886890Y3910630D01*
X880433Y3910630D01*
X880433Y3917087D01*
G37*
G36*
G01*
X879016Y5308583D02*
X879016Y5302126D01*
X872559Y5302126D01*
X872559Y5308583D01*
X879016Y5308583D01*
G37*
G36*
G01*
X879016Y5284961D02*
X879016Y5278504D01*
X872559Y5278504D01*
X872559Y5284961D01*
X879016Y5284961D01*
G37*
G36*
G01*
X879016Y4451339D02*
X879016Y4444882D01*
X872559Y4444882D01*
X872559Y4451339D01*
X879016Y4451339D01*
G37*
G36*
G01*
X879016Y3948583D02*
X879016Y3942126D01*
X872559Y3942126D01*
X872559Y3948583D01*
X879016Y3948583D01*
G37*
G36*
G01*
X872559Y5811339D02*
X879016Y5811339D01*
X879016Y5804882D01*
X872559Y5804882D01*
X872559Y5811339D01*
G37*
G36*
G01*
X872559Y5261339D02*
X879016Y5261339D01*
X879016Y5254882D01*
X872559Y5254882D01*
X872559Y5261339D01*
G37*
G36*
G01*
X872559Y3924961D02*
X879016Y3924961D01*
X879016Y3918504D01*
X872559Y3918504D01*
X872559Y3924961D01*
G37*
G36*
G01*
X872559Y3901339D02*
X879016Y3901339D01*
X879016Y3894882D01*
X872559Y3894882D01*
X872559Y3901339D01*
G37*
G36*
G01*
X871142Y5858583D02*
X871142Y5852126D01*
X864685Y5852126D01*
X864685Y5858583D01*
X871142Y5858583D01*
G37*
G36*
G01*
X871142Y5850709D02*
X871142Y5844252D01*
X864685Y5844252D01*
X864685Y5850709D01*
X871142Y5850709D01*
G37*
G36*
G01*
X871142Y5819213D02*
X871142Y5812756D01*
X864685Y5812756D01*
X864685Y5819213D01*
X871142Y5819213D01*
G37*
G36*
G01*
X871142Y5308583D02*
X871142Y5302126D01*
X864685Y5302126D01*
X864685Y5308583D01*
X871142Y5308583D01*
G37*
G36*
G01*
X871142Y4498583D02*
X871142Y4492126D01*
X864685Y4492126D01*
X864685Y4498583D01*
X871142Y4498583D01*
G37*
G36*
G01*
X871142Y4490709D02*
X871142Y4484252D01*
X864685Y4484252D01*
X864685Y4490709D01*
X871142Y4490709D01*
G37*
G36*
G01*
X871142Y4482835D02*
X871142Y4476378D01*
X864685Y4476378D01*
X864685Y4482835D01*
X871142Y4482835D01*
G37*
G36*
G01*
X871142Y4474961D02*
X871142Y4468504D01*
X864685Y4468504D01*
X864685Y4474961D01*
X871142Y4474961D01*
G37*
G36*
G01*
X871142Y4459213D02*
X871142Y4452756D01*
X864685Y4452756D01*
X864685Y4459213D01*
X871142Y4459213D01*
G37*
G36*
G01*
X871142Y3948583D02*
X871142Y3942126D01*
X864685Y3942126D01*
X864685Y3948583D01*
X871142Y3948583D01*
G37*
G36*
G01*
X871142Y3924961D02*
X871142Y3918504D01*
X864685Y3918504D01*
X864685Y3924961D01*
X871142Y3924961D01*
G37*
G36*
G01*
X871142Y3901339D02*
X871142Y3894882D01*
X864685Y3894882D01*
X864685Y3901339D01*
X871142Y3901339D01*
G37*
G36*
G01*
X864685Y5842835D02*
X871142Y5842835D01*
X871142Y5836378D01*
X864685Y5836378D01*
X864685Y5842835D01*
G37*
G36*
G01*
X864685Y5834961D02*
X871142Y5834961D01*
X871142Y5828504D01*
X864685Y5828504D01*
X864685Y5834961D01*
G37*
G36*
G01*
X864685Y5827087D02*
X871142Y5827087D01*
X871142Y5820630D01*
X864685Y5820630D01*
X864685Y5827087D01*
G37*
G36*
G01*
X864685Y5811339D02*
X871142Y5811339D01*
X871142Y5804882D01*
X864685Y5804882D01*
X864685Y5811339D01*
G37*
G36*
G01*
X864685Y5278504D02*
X864685Y5284961D01*
X871142Y5284961D01*
X871142Y5278504D01*
X864685Y5278504D01*
G37*
G36*
G01*
X864685Y5261339D02*
X871142Y5261339D01*
X871142Y5254882D01*
X864685Y5254882D01*
X864685Y5261339D01*
G37*
G36*
G01*
X864685Y4460630D02*
X864685Y4467087D01*
X871142Y4467087D01*
X871142Y4460630D01*
X864685Y4460630D01*
G37*
G36*
G01*
X864685Y4451339D02*
X871142Y4451339D01*
X871142Y4444882D01*
X864685Y4444882D01*
X864685Y4451339D01*
G37*
G36*
G01*
X863268Y5284961D02*
X863268Y5278504D01*
X856811Y5278504D01*
X856811Y5284961D01*
X863268Y5284961D01*
G37*
G36*
G01*
X863268Y5261339D02*
X863268Y5254882D01*
X856811Y5254882D01*
X856811Y5261339D01*
X863268Y5261339D01*
G37*
G36*
G01*
X863268Y4451339D02*
X863268Y4444882D01*
X856811Y4444882D01*
X856811Y4451339D01*
X863268Y4451339D01*
G37*
G36*
G01*
X863268Y3948583D02*
X863268Y3942126D01*
X856811Y3942126D01*
X856811Y3948583D01*
X863268Y3948583D01*
G37*
G36*
G01*
X863268Y3924961D02*
X863268Y3918504D01*
X856811Y3918504D01*
X856811Y3924961D01*
X863268Y3924961D01*
G37*
G36*
G01*
X856811Y5850709D02*
X863268Y5850709D01*
X863268Y5844252D01*
X856811Y5844252D01*
X856811Y5850709D01*
G37*
G36*
G01*
X856811Y5811339D02*
X863268Y5811339D01*
X863268Y5804882D01*
X856811Y5804882D01*
X856811Y5811339D01*
G37*
G36*
G01*
X856811Y5308583D02*
X863268Y5308583D01*
X863268Y5302126D01*
X856811Y5302126D01*
X856811Y5308583D01*
G37*
G36*
G01*
X856811Y4490709D02*
X863268Y4490709D01*
X863268Y4484252D01*
X856811Y4484252D01*
X856811Y4490709D01*
G37*
G36*
G01*
X856811Y3901339D02*
X863268Y3901339D01*
X863268Y3894882D01*
X856811Y3894882D01*
X856811Y3901339D01*
G37*
G36*
G01*
X855394Y5261339D02*
X855394Y5254882D01*
X848937Y5254882D01*
X848937Y5261339D01*
X855394Y5261339D01*
G37*
G36*
G01*
X855394Y3948583D02*
X855394Y3942126D01*
X848937Y3942126D01*
X848937Y3948583D01*
X855394Y3948583D01*
G37*
G36*
G01*
X855394Y3901339D02*
X855394Y3894882D01*
X848937Y3894882D01*
X848937Y3901339D01*
X855394Y3901339D01*
G37*
G36*
G01*
X848937Y5308583D02*
X855394Y5308583D01*
X855394Y5302126D01*
X848937Y5302126D01*
X848937Y5308583D01*
G37*
G36*
G01*
X839646Y5858583D02*
X839646Y5852126D01*
X833189Y5852126D01*
X833189Y5858583D01*
X839646Y5858583D01*
G37*
G36*
G01*
X839646Y5308583D02*
X839646Y5302126D01*
X833189Y5302126D01*
X833189Y5308583D01*
X839646Y5308583D01*
G37*
G36*
G01*
X839646Y4490709D02*
X839646Y4484252D01*
X833189Y4484252D01*
X833189Y4490709D01*
X839646Y4490709D01*
G37*
G36*
G01*
X839646Y4451339D02*
X839646Y4444882D01*
X833189Y4444882D01*
X833189Y4451339D01*
X839646Y4451339D01*
G37*
G36*
G01*
X839646Y3948583D02*
X839646Y3942126D01*
X833189Y3942126D01*
X833189Y3948583D01*
X839646Y3948583D01*
G37*
G36*
G01*
X839646Y3940709D02*
X839646Y3934252D01*
X833189Y3934252D01*
X833189Y3940709D01*
X839646Y3940709D01*
G37*
G36*
G01*
X839646Y3909213D02*
X839646Y3902756D01*
X833189Y3902756D01*
X833189Y3909213D01*
X839646Y3909213D01*
G37*
G36*
G01*
X839646Y3901339D02*
X839646Y3894882D01*
X833189Y3894882D01*
X833189Y3901339D01*
X839646Y3901339D01*
G37*
G36*
G01*
X833189Y5850709D02*
X839646Y5850709D01*
X839646Y5844252D01*
X833189Y5844252D01*
X833189Y5850709D01*
G37*
G36*
G01*
X833189Y5300709D02*
X839646Y5300709D01*
X839646Y5294252D01*
X833189Y5294252D01*
X833189Y5300709D01*
G37*
G36*
G01*
X833189Y4498583D02*
X839646Y4498583D01*
X839646Y4492126D01*
X833189Y4492126D01*
X833189Y4498583D01*
G37*
G36*
G01*
X833189Y4459213D02*
X839646Y4459213D01*
X839646Y4452756D01*
X833189Y4452756D01*
X833189Y4459213D01*
G37*
G36*
G01*
X831772Y5292835D02*
X831772Y5286378D01*
X825315Y5286378D01*
X825315Y5292835D01*
X831772Y5292835D01*
G37*
G36*
G01*
X831772Y4467087D02*
X831772Y4460630D01*
X825315Y4460630D01*
X825315Y4467087D01*
X831772Y4467087D01*
G37*
G36*
G01*
X831772Y3932835D02*
X831772Y3926378D01*
X825315Y3926378D01*
X825315Y3932835D01*
X831772Y3932835D01*
G37*
G36*
G01*
X831772Y3917087D02*
X831772Y3910630D01*
X825315Y3910630D01*
X825315Y3917087D01*
X831772Y3917087D01*
G37*
G36*
G01*
X825315Y5842835D02*
X831772Y5842835D01*
X831772Y5836378D01*
X825315Y5836378D01*
X825315Y5842835D01*
G37*
G36*
G01*
X825315Y4482835D02*
X831772Y4482835D01*
X831772Y4476378D01*
X825315Y4476378D01*
X825315Y4482835D01*
G37*
G36*
G01*
X823898Y5284961D02*
X823898Y5278504D01*
X817441Y5278504D01*
X817441Y5284961D01*
X823898Y5284961D01*
G37*
G36*
G01*
X823898Y5269213D02*
X823898Y5262756D01*
X817441Y5262756D01*
X817441Y5269213D01*
X823898Y5269213D01*
G37*
G36*
G01*
X817441Y5834961D02*
X823898Y5834961D01*
X823898Y5828504D01*
X817441Y5828504D01*
X817441Y5834961D01*
G37*
G36*
G01*
X817441Y5827087D02*
X823898Y5827087D01*
X823898Y5820630D01*
X817441Y5820630D01*
X817441Y5827087D01*
G37*
G36*
G01*
X817441Y5819213D02*
X823898Y5819213D01*
X823898Y5812756D01*
X817441Y5812756D01*
X817441Y5819213D01*
G37*
G36*
G01*
X817441Y5811339D02*
X823898Y5811339D01*
X823898Y5804882D01*
X817441Y5804882D01*
X817441Y5811339D01*
G37*
G36*
G01*
X817441Y5270630D02*
X817441Y5277087D01*
X823898Y5277087D01*
X823898Y5270630D01*
X817441Y5270630D01*
G37*
G36*
G01*
X817441Y5261339D02*
X823898Y5261339D01*
X823898Y5254882D01*
X817441Y5254882D01*
X817441Y5261339D01*
G37*
G36*
G01*
X817441Y4474961D02*
X823898Y4474961D01*
X823898Y4468504D01*
X817441Y4468504D01*
X817441Y4474961D01*
G37*
G36*
G01*
X817441Y3924961D02*
X823898Y3924961D01*
X823898Y3918504D01*
X817441Y3918504D01*
X817441Y3924961D01*
G37*
G36*
G01*
X816024Y5842835D02*
X816024Y5836378D01*
X809567Y5836378D01*
X809567Y5842835D01*
X816024Y5842835D01*
G37*
G36*
G01*
X816024Y4482835D02*
X816024Y4476378D01*
X809567Y4476378D01*
X809567Y4482835D01*
X816024Y4482835D01*
G37*
G36*
G01*
X816024Y4467087D02*
X816024Y4460630D01*
X809567Y4460630D01*
X809567Y4467087D01*
X816024Y4467087D01*
G37*
G36*
G01*
X816024Y3932835D02*
X816024Y3926378D01*
X809567Y3926378D01*
X809567Y3932835D01*
X816024Y3932835D01*
G37*
G36*
G01*
X816024Y3917087D02*
X816024Y3910630D01*
X809567Y3910630D01*
X809567Y3917087D01*
X816024Y3917087D01*
G37*
G36*
G01*
X809567Y5292835D02*
X816024Y5292835D01*
X816024Y5286378D01*
X809567Y5286378D01*
X809567Y5292835D01*
G37*
G36*
G01*
X808150Y5858583D02*
X808150Y5852126D01*
X801693Y5852126D01*
X801693Y5858583D01*
X808150Y5858583D01*
G37*
G36*
G01*
X808150Y5300709D02*
X808150Y5294252D01*
X801693Y5294252D01*
X801693Y5300709D01*
X808150Y5300709D01*
G37*
G36*
G01*
X808150Y4498583D02*
X808150Y4492126D01*
X801693Y4492126D01*
X801693Y4498583D01*
X808150Y4498583D01*
G37*
G36*
G01*
X808150Y3948583D02*
X808150Y3942126D01*
X801693Y3942126D01*
X801693Y3948583D01*
X808150Y3948583D01*
G37*
G36*
G01*
X808150Y3909213D02*
X808150Y3902756D01*
X801693Y3902756D01*
X801693Y3909213D01*
X808150Y3909213D01*
G37*
G36*
G01*
X801693Y5850709D02*
X808150Y5850709D01*
X808150Y5844252D01*
X801693Y5844252D01*
X801693Y5850709D01*
G37*
G36*
G01*
X801693Y5308583D02*
X808150Y5308583D01*
X808150Y5302126D01*
X801693Y5302126D01*
X801693Y5308583D01*
G37*
G36*
G01*
X801693Y4490709D02*
X808150Y4490709D01*
X808150Y4484252D01*
X801693Y4484252D01*
X801693Y4490709D01*
G37*
G36*
G01*
X801693Y4459213D02*
X808150Y4459213D01*
X808150Y4452756D01*
X801693Y4452756D01*
X801693Y4459213D01*
G37*
G36*
G01*
X801693Y4451339D02*
X808150Y4451339D01*
X808150Y4444882D01*
X801693Y4444882D01*
X801693Y4451339D01*
G37*
G36*
G01*
X801693Y3940709D02*
X808150Y3940709D01*
X808150Y3934252D01*
X801693Y3934252D01*
X801693Y3940709D01*
G37*
G36*
G01*
X801693Y3894882D02*
X801693Y3901339D01*
X808150Y3901339D01*
X808150Y3894882D01*
X801693Y3894882D01*
G37*
G36*
G01*
X606890Y5557087D02*
X606890Y5550630D01*
X600433Y5550630D01*
X600433Y5557087D01*
X606890Y5557087D01*
G37*
G36*
G01*
X606890Y4197087D02*
X606890Y4190630D01*
X600433Y4190630D01*
X600433Y4197087D01*
X606890Y4197087D01*
G37*
G36*
G01*
X599016Y5588583D02*
X599016Y5582126D01*
X592559Y5582126D01*
X592559Y5588583D01*
X599016Y5588583D01*
G37*
G36*
G01*
X599016Y5580709D02*
X599016Y5574252D01*
X592559Y5574252D01*
X592559Y5580709D01*
X599016Y5580709D01*
G37*
G36*
G01*
X599016Y5572835D02*
X599016Y5566378D01*
X592559Y5566378D01*
X592559Y5572835D01*
X599016Y5572835D01*
G37*
G36*
G01*
X599016Y5557087D02*
X599016Y5550630D01*
X592559Y5550630D01*
X592559Y5557087D01*
X599016Y5557087D01*
G37*
G36*
G01*
X599016Y5549213D02*
X599016Y5542756D01*
X592559Y5542756D01*
X592559Y5549213D01*
X599016Y5549213D01*
G37*
G36*
G01*
X599016Y4228583D02*
X599016Y4222126D01*
X592559Y4222126D01*
X592559Y4228583D01*
X599016Y4228583D01*
G37*
G36*
G01*
X599016Y4220709D02*
X599016Y4214252D01*
X592559Y4214252D01*
X592559Y4220709D01*
X599016Y4220709D01*
G37*
G36*
G01*
X599016Y4204961D02*
X599016Y4198504D01*
X592559Y4198504D01*
X592559Y4204961D01*
X599016Y4204961D01*
G37*
G36*
G01*
X599016Y4197087D02*
X599016Y4190630D01*
X592559Y4190630D01*
X592559Y4197087D01*
X599016Y4197087D01*
G37*
G36*
G01*
X599016Y4189213D02*
X599016Y4182756D01*
X592559Y4182756D01*
X592559Y4189213D01*
X599016Y4189213D01*
G37*
G36*
G01*
X599016Y4181339D02*
X599016Y4174882D01*
X592559Y4174882D01*
X592559Y4181339D01*
X599016Y4181339D01*
G37*
G36*
G01*
X592559Y5564961D02*
X599016Y5564961D01*
X599016Y5558504D01*
X592559Y5558504D01*
X592559Y5564961D01*
G37*
G36*
G01*
X592559Y5541339D02*
X599016Y5541339D01*
X599016Y5534882D01*
X592559Y5534882D01*
X592559Y5541339D01*
G37*
G36*
G01*
X592559Y4212835D02*
X599016Y4212835D01*
X599016Y4206378D01*
X592559Y4206378D01*
X592559Y4212835D01*
G37*
G36*
G01*
X591142Y4220709D02*
X591142Y4214252D01*
X584685Y4214252D01*
X584685Y4220709D01*
X591142Y4220709D01*
G37*
G36*
G01*
X591142Y4197087D02*
X591142Y4190630D01*
X584685Y4190630D01*
X584685Y4197087D01*
X591142Y4197087D01*
G37*
G36*
G01*
X584685Y5574252D02*
X584685Y5580709D01*
X591142Y5580709D01*
X591142Y5574252D01*
X584685Y5574252D01*
G37*
G36*
G01*
X584685Y5557087D02*
X591142Y5557087D01*
X591142Y5550630D01*
X584685Y5550630D01*
X584685Y5557087D01*
G37*
G36*
G01*
X583268Y4212835D02*
X583268Y4206378D01*
X576811Y4206378D01*
X576811Y4212835D01*
X583268Y4212835D01*
G37*
G36*
G01*
X583268Y4197087D02*
X583268Y4190630D01*
X576811Y4190630D01*
X576811Y4197087D01*
X583268Y4197087D01*
G37*
G36*
G01*
X576811Y5572835D02*
X583268Y5572835D01*
X583268Y5566378D01*
X576811Y5566378D01*
X576811Y5572835D01*
G37*
G36*
G01*
X576811Y5557087D02*
X583268Y5557087D01*
X583268Y5550630D01*
X576811Y5550630D01*
X576811Y5557087D01*
G37*
G36*
G01*
X575394Y5564961D02*
X575394Y5558504D01*
X568937Y5558504D01*
X568937Y5564961D01*
X575394Y5564961D01*
G37*
G36*
G01*
X568937Y5557087D02*
X575394Y5557087D01*
X575394Y5550630D01*
X568937Y5550630D01*
X568937Y5557087D01*
G37*
G36*
G01*
X568937Y4204961D02*
X575394Y4204961D01*
X575394Y4198504D01*
X568937Y4198504D01*
X568937Y4204961D01*
G37*
G36*
G01*
X568937Y4197087D02*
X575394Y4197087D01*
X575394Y4190630D01*
X568937Y4190630D01*
X568937Y4197087D01*
G37*
G36*
G01*
X559646Y5588583D02*
X559646Y5582126D01*
X553189Y5582126D01*
X553189Y5588583D01*
X559646Y5588583D01*
G37*
G36*
G01*
X559646Y4220709D02*
X559646Y4214252D01*
X553189Y4214252D01*
X553189Y4220709D01*
X559646Y4220709D01*
G37*
G36*
G01*
X559646Y4181339D02*
X559646Y4174882D01*
X553189Y4174882D01*
X553189Y4181339D01*
X559646Y4181339D01*
G37*
G36*
G01*
X553189Y5580709D02*
X559646Y5580709D01*
X559646Y5574252D01*
X553189Y5574252D01*
X553189Y5580709D01*
G37*
G36*
G01*
X553189Y4222126D02*
X553189Y4228583D01*
X559646Y4228583D01*
X559646Y4222126D01*
X553189Y4222126D01*
G37*
G36*
G01*
X553189Y4182756D02*
X553189Y4189213D01*
X559646Y4189213D01*
X559646Y4182756D01*
X553189Y4182756D01*
G37*
G36*
G01*
X551772Y5572835D02*
X551772Y5566378D01*
X545315Y5566378D01*
X545315Y5572835D01*
X551772Y5572835D01*
G37*
G36*
G01*
X551772Y4212835D02*
X551772Y4206378D01*
X545315Y4206378D01*
X545315Y4212835D01*
X551772Y4212835D01*
G37*
G36*
G01*
X551772Y4197087D02*
X551772Y4190630D01*
X545315Y4190630D01*
X545315Y4197087D01*
X551772Y4197087D01*
G37*
G36*
G01*
X543898Y5564961D02*
X543898Y5558504D01*
X537441Y5558504D01*
X537441Y5564961D01*
X543898Y5564961D01*
G37*
G36*
G01*
X543898Y5557087D02*
X543898Y5550630D01*
X537441Y5550630D01*
X537441Y5557087D01*
X543898Y5557087D01*
G37*
G36*
G01*
X543898Y5549213D02*
X543898Y5542756D01*
X537441Y5542756D01*
X537441Y5549213D01*
X543898Y5549213D01*
G37*
G36*
G01*
X543898Y4204961D02*
X543898Y4198504D01*
X537441Y4198504D01*
X537441Y4204961D01*
X543898Y4204961D01*
G37*
G36*
G01*
X537441Y5541339D02*
X543898Y5541339D01*
X543898Y5534882D01*
X537441Y5534882D01*
X537441Y5541339D01*
G37*
G36*
G01*
X536024Y4212835D02*
X536024Y4206378D01*
X529567Y4206378D01*
X529567Y4212835D01*
X536024Y4212835D01*
G37*
G36*
G01*
X529567Y5572835D02*
X536024Y5572835D01*
X536024Y5566378D01*
X529567Y5566378D01*
X529567Y5572835D01*
G37*
G36*
G01*
X529567Y4197087D02*
X536024Y4197087D01*
X536024Y4190630D01*
X529567Y4190630D01*
X529567Y4197087D01*
G37*
G36*
G01*
X528150Y5588583D02*
X528150Y5582126D01*
X521693Y5582126D01*
X521693Y5588583D01*
X528150Y5588583D01*
G37*
G36*
G01*
X528150Y5580709D02*
X528150Y5574252D01*
X521693Y5574252D01*
X521693Y5580709D01*
X528150Y5580709D01*
G37*
G36*
G01*
X528150Y4228583D02*
X528150Y4222126D01*
X521693Y4222126D01*
X521693Y4228583D01*
X528150Y4228583D01*
G37*
G36*
G01*
X528150Y4220709D02*
X528150Y4214252D01*
X521693Y4214252D01*
X521693Y4220709D01*
X528150Y4220709D01*
G37*
G36*
G01*
X528150Y4189213D02*
X528150Y4182756D01*
X521693Y4182756D01*
X521693Y4189213D01*
X528150Y4189213D01*
G37*
G36*
G01*
X521693Y4181339D02*
X528150Y4181339D01*
X528150Y4174882D01*
X521693Y4174882D01*
X521693Y4181339D01*
G37*
M02*
