G04 SwanSong USB - Bottom Paste*
G04 Generated from the published SwanTroller Gerbers; units inches*
%FSLAX36Y36*%
%MOIN*%
%ADD10C,0.001*%
%LPD*%
%LPD*%
G36*
G01*
X4617795Y5472874D02*
X4617795Y5494921D01*
X4642205Y5494921D01*
X4642205Y5472874D01*
X4617795Y5472874D01*
G37*
G36*
G01*
X4617795Y5457126D02*
X4642205Y5457126D01*
X4642205Y5435079D01*
X4617795Y5435079D01*
X4617795Y5457126D01*
G37*
G36*
G01*
X4531575Y5756811D02*
X4610315Y5756811D01*
X4610315Y5733189D01*
X4531575Y5733189D01*
X4531575Y5756811D01*
G37*
G36*
G01*
X4531575Y5706811D02*
X4610315Y5706811D01*
X4610315Y5683189D01*
X4531575Y5683189D01*
X4531575Y5706811D01*
G37*
G36*
G01*
X4531575Y5656811D02*
X4610315Y5656811D01*
X4610315Y5633189D01*
X4531575Y5633189D01*
X4531575Y5656811D01*
G37*
G36*
G01*
X4531575Y5606811D02*
X4610315Y5606811D01*
X4610315Y5583189D01*
X4531575Y5583189D01*
X4531575Y5606811D01*
G37*
G36*
G01*
X4531575Y5556811D02*
X4610315Y5556811D01*
X4610315Y5533189D01*
X4531575Y5533189D01*
X4531575Y5556811D01*
G37*
G36*
G01*
X4531575Y5506811D02*
X4610315Y5506811D01*
X4610315Y5483189D01*
X4531575Y5483189D01*
X4531575Y5506811D01*
G37*
G36*
G01*
X4531575Y5456811D02*
X4610315Y5456811D01*
X4610315Y5433189D01*
X4531575Y5433189D01*
X4531575Y5456811D01*
G37*
G36*
G01*
X4531575Y5383189D02*
X4531575Y5406811D01*
X4610315Y5406811D01*
X4610315Y5383189D01*
X4531575Y5383189D01*
G37*
G36*
G01*
X4531575Y5356811D02*
X4610315Y5356811D01*
X4610315Y5333189D01*
X4531575Y5333189D01*
X4531575Y5356811D01*
G37*
G36*
G01*
X4531575Y5306811D02*
X4610315Y5306811D01*
X4610315Y5283189D01*
X4531575Y5283189D01*
X4531575Y5306811D01*
G37*
G36*
G01*
X4315433Y4916496D02*
X4346929Y4916496D01*
X4346929Y4902717D01*
X4315433Y4902717D01*
X4315433Y4916496D01*
G37*
G36*
G01*
X4315433Y4992087D02*
X4346929Y4992087D01*
X4346929Y4978307D01*
X4315433Y4978307D01*
X4315433Y4992087D01*
G37*
G36*
G01*
X4315433Y4927913D02*
X4315433Y4941693D01*
X4346929Y4941693D01*
X4346929Y4927913D01*
X4315433Y4927913D01*
G37*
G36*
G01*
X4315433Y4966890D02*
X4346929Y4966890D01*
X4346929Y4953110D01*
X4315433Y4953110D01*
X4315433Y4966890D01*
G37*
G36*
G01*
X4315433Y5003504D02*
X4315433Y5017283D01*
X4346929Y5017283D01*
X4346929Y5003504D01*
X4315433Y5003504D01*
G37*
G36*
G01*
X4229449Y4607402D02*
X4229449Y4632598D01*
X4250709Y4632598D01*
X4250709Y4607402D01*
X4229449Y4607402D01*
G37*
G36*
G01*
X4229449Y4712598D02*
X4250709Y4712598D01*
X4250709Y4687402D01*
X4229449Y4687402D01*
X4229449Y4712598D01*
G37*
G36*
G01*
X4213071Y4916496D02*
X4244567Y4916496D01*
X4244567Y4902717D01*
X4213071Y4902717D01*
X4213071Y4916496D01*
G37*
G36*
G01*
X4213071Y4941693D02*
X4244567Y4941693D01*
X4244567Y4927913D01*
X4213071Y4927913D01*
X4213071Y4941693D01*
G37*
G36*
G01*
X4213071Y4966890D02*
X4244567Y4966890D01*
X4244567Y4953110D01*
X4213071Y4953110D01*
X4213071Y4966890D01*
G37*
G36*
G01*
X4213071Y4978307D02*
X4213071Y4992087D01*
X4244567Y4992087D01*
X4244567Y4978307D01*
X4213071Y4978307D01*
G37*
G36*
G01*
X4213071Y5017283D02*
X4244567Y5017283D01*
X4244567Y5003504D01*
X4213071Y5003504D01*
X4213071Y5017283D01*
G37*
G36*
G01*
X4149685Y5306811D02*
X4228425Y5306811D01*
X4228425Y5283189D01*
X4149685Y5283189D01*
X4149685Y5306811D01*
G37*
G36*
G01*
X4149685Y5356811D02*
X4228425Y5356811D01*
X4228425Y5333189D01*
X4149685Y5333189D01*
X4149685Y5356811D01*
G37*
G36*
G01*
X4149685Y5383189D02*
X4149685Y5406811D01*
X4228425Y5406811D01*
X4228425Y5383189D01*
X4149685Y5383189D01*
G37*
G36*
G01*
X4149685Y5483189D02*
X4149685Y5506811D01*
X4228425Y5506811D01*
X4228425Y5483189D01*
X4149685Y5483189D01*
G37*
G36*
G01*
X4149685Y5556811D02*
X4228425Y5556811D01*
X4228425Y5533189D01*
X4149685Y5533189D01*
X4149685Y5556811D01*
G37*
G36*
G01*
X4149685Y5606811D02*
X4228425Y5606811D01*
X4228425Y5583189D01*
X4149685Y5583189D01*
X4149685Y5606811D01*
G37*
G36*
G01*
X4149685Y5633189D02*
X4149685Y5656811D01*
X4228425Y5656811D01*
X4228425Y5633189D01*
X4149685Y5633189D01*
G37*
G36*
G01*
X4149685Y5706811D02*
X4228425Y5706811D01*
X4228425Y5683189D01*
X4149685Y5683189D01*
X4149685Y5706811D01*
G37*
G36*
G01*
X4149685Y5756811D02*
X4228425Y5756811D01*
X4228425Y5733189D01*
X4149685Y5733189D01*
X4149685Y5756811D01*
G37*
G36*
G01*
X4149685Y5456811D02*
X4228425Y5456811D01*
X4228425Y5433189D01*
X4149685Y5433189D01*
X4149685Y5456811D01*
G37*
G36*
G01*
X4189291Y4712598D02*
X4210551Y4712598D01*
X4210551Y4687402D01*
X4189291Y4687402D01*
X4189291Y4712598D01*
G37*
G36*
G01*
X4189291Y4632598D02*
X4210551Y4632598D01*
X4210551Y4607402D01*
X4189291Y4607402D01*
X4189291Y4632598D01*
G37*
G36*
G01*
X4107795Y4929921D02*
X4132205Y4929921D01*
X4132205Y4907874D01*
X4107795Y4907874D01*
X4107795Y4929921D01*
G37*
G36*
G01*
X4107795Y4870079D02*
X4107795Y4892126D01*
X4132205Y4892126D01*
X4132205Y4870079D01*
X4107795Y4870079D01*
G37*
G36*
G01*
X4057874Y5007795D02*
X4057874Y5032205D01*
X4079921Y5032205D01*
X4079921Y5007795D01*
X4057874Y5007795D01*
G37*
G36*
G01*
X4020079Y5032205D02*
X4042126Y5032205D01*
X4042126Y5007795D01*
X4020079Y5007795D01*
X4020079Y5032205D01*
G37*
G36*
G01*
X3965433Y5657283D02*
X3996929Y5657283D01*
X3996929Y5643504D01*
X3965433Y5643504D01*
X3965433Y5657283D01*
G37*
G36*
G01*
X3965433Y5632087D02*
X3996929Y5632087D01*
X3996929Y5618307D01*
X3965433Y5618307D01*
X3965433Y5632087D01*
G37*
G36*
G01*
X3965433Y5593110D02*
X3965433Y5606890D01*
X3996929Y5606890D01*
X3996929Y5593110D01*
X3965433Y5593110D01*
G37*
G36*
G01*
X3965433Y5581693D02*
X3996929Y5581693D01*
X3996929Y5567913D01*
X3965433Y5567913D01*
X3965433Y5581693D01*
G37*
G36*
G01*
X3965433Y5556496D02*
X3996929Y5556496D01*
X3996929Y5542717D01*
X3965433Y5542717D01*
X3965433Y5556496D01*
G37*
G36*
G01*
X3863071Y5643504D02*
X3863071Y5657283D01*
X3894567Y5657283D01*
X3894567Y5643504D01*
X3863071Y5643504D01*
G37*
G36*
G01*
X3863071Y5632087D02*
X3894567Y5632087D01*
X3894567Y5618307D01*
X3863071Y5618307D01*
X3863071Y5632087D01*
G37*
G36*
G01*
X3863071Y5606890D02*
X3894567Y5606890D01*
X3894567Y5593110D01*
X3863071Y5593110D01*
X3863071Y5606890D01*
G37*
G36*
G01*
X3863071Y5567913D02*
X3863071Y5581693D01*
X3894567Y5581693D01*
X3894567Y5567913D01*
X3863071Y5567913D01*
G37*
G36*
G01*
X3863071Y5556496D02*
X3894567Y5556496D01*
X3894567Y5542717D01*
X3863071Y5542717D01*
X3863071Y5556496D01*
G37*
M02*
