G04 Layer: BottomSolderMaskLayer*
G04 EasyEDA v6.5.44, 2024-07-16 09:33:37*
G04 92fc93377fd146f58095a2b6f3fb7df7,4528e9a37e1d4fff95ee12c27a66ef09,10*
G04 Gerber Generator version 0.2*
G04 Scale: 100 percent, Rotated: No, Reflected: No *
G04 Dimensions in inches *
G04 leading zeros omitted , absolute positions ,3 integer and 6 decimal *
%FSLAX36Y36*%
%MOIN*%

%AMMACRO1*4,1,8,-0.05,-0.0512,-0.0512,-0.05,-0.0512,0.05,-0.05,0.0512,0.05,0.0512,0.0512,0.05,0.0512,-0.05,0.05,-0.0512,-0.05,-0.0512,0*%
%ADD10O,0.057645999999999996X0.164063*%
%ADD11O,0.164063X0.057645999999999996*%
%ADD12MACRO1*%

%LPD*%
D10*
G01*
X4982560Y5924330D03*
G01*
X4882560Y5924330D03*
G01*
X4782560Y5924330D03*
G01*
X4682560Y5924330D03*
G01*
X4582560Y5924330D03*
G01*
X4482560Y5924330D03*
G01*
X4382560Y5924330D03*
G01*
X4282560Y5924330D03*
G01*
X4182560Y5924330D03*
D11*
G01*
X4127439Y5770790D03*
G01*
X4127439Y5670790D03*
G01*
X4127439Y5570790D03*
G01*
X4127439Y5470790D03*
G01*
X4127439Y5370790D03*
D10*
G01*
X4182560Y5215670D03*
G01*
X4282560Y5215670D03*
G01*
X4382560Y5215670D03*
G01*
X4482560Y5215670D03*
G01*
X4582560Y5215670D03*
G01*
X4682560Y5215670D03*
G01*
X4782560Y5215670D03*
G01*
X4882560Y5215670D03*
G01*
X4982560Y5215670D03*
D12*
G01*
X2074999Y4474999D03*
G01*
X2624999Y4474999D03*
G01*
X2212499Y4474999D03*
G01*
X2487499Y4474999D03*
G01*
X2349999Y4474999D03*

G04 SwanSong USB replacement circuitry*
%LPC*%
G36*
G01*
X5035000Y5095000D02*
X5035000Y6025000D01*
X4025000Y6025000D01*
X4025000Y5095000D01*
X5035000Y5095000D01*
G37*
%LPD*%
G36*
G01*
X4663560Y5234670D02*
X4701560Y5234670D01*
X4701560Y5196670D01*
X4663560Y5196670D01*
X4663560Y5234670D01*
G37*
G36*
G01*
X4574050Y5089594D02*
X4658790Y5089594D01*
X4658790Y4997768D01*
X4574050Y4997768D01*
X4574050Y5089594D01*
G37*
G36*
G01*
X4574050Y4687232D02*
X4658790Y4687232D01*
X4658790Y4595406D01*
X4574050Y4595406D01*
X4574050Y4687232D01*
G37*
G36*
G01*
X4645205Y5497921D02*
X4645205Y5469874D01*
X4614795Y5469874D01*
X4614795Y5497921D01*
X4645205Y5497921D01*
G37*
G36*
G01*
X4614795Y5460126D02*
X4645205Y5460126D01*
X4645205Y5432079D01*
X4614795Y5432079D01*
X4614795Y5460126D01*
G37*
G36*
G01*
X4528575Y5409811D02*
X4613315Y5409811D01*
X4613315Y5380189D01*
X4528575Y5380189D01*
X4528575Y5409811D01*
G37*
G36*
G01*
X4613315Y5359811D02*
X4613315Y5330189D01*
X4528575Y5330189D01*
X4528575Y5359811D01*
X4613315Y5359811D01*
G37*
G36*
G01*
X4613315Y5309811D02*
X4613315Y5280189D01*
X4528575Y5280189D01*
X4528575Y5309811D01*
X4613315Y5309811D01*
G37*
G36*
G01*
X4613315Y5509811D02*
X4613315Y5480189D01*
X4528575Y5480189D01*
X4528575Y5509811D01*
X4613315Y5509811D01*
G37*
G36*
G01*
X4613315Y5709811D02*
X4613315Y5680189D01*
X4528575Y5680189D01*
X4528575Y5709811D01*
X4613315Y5709811D01*
G37*
G36*
G01*
X4528575Y5659811D02*
X4613315Y5659811D01*
X4613315Y5630189D01*
X4528575Y5630189D01*
X4528575Y5659811D01*
G37*
G36*
G01*
X4528575Y5609811D02*
X4613315Y5609811D01*
X4613315Y5580189D01*
X4528575Y5580189D01*
X4528575Y5609811D01*
G37*
G36*
G01*
X4528575Y5559811D02*
X4613315Y5559811D01*
X4613315Y5530189D01*
X4528575Y5530189D01*
X4528575Y5559811D01*
G37*
G36*
G01*
X4528575Y5459811D02*
X4613315Y5459811D01*
X4613315Y5430189D01*
X4528575Y5430189D01*
X4528575Y5459811D01*
G37*
G36*
G01*
X4613315Y5759811D02*
X4613315Y5730189D01*
X4528575Y5730189D01*
X4528575Y5759811D01*
X4613315Y5759811D01*
G37*
G36*
G01*
X4563560Y5234670D02*
X4601560Y5234670D01*
X4601560Y5196670D01*
X4563560Y5196670D01*
X4563560Y5234670D01*
G37*
G36*
G01*
X4419326Y4687232D02*
X4504066Y4687232D01*
X4504066Y4595406D01*
X4419326Y4595406D01*
X4419326Y4687232D01*
G37*
G36*
G01*
X4419326Y5089594D02*
X4504066Y5089594D01*
X4504066Y4997768D01*
X4419326Y4997768D01*
X4419326Y5089594D01*
G37*
G36*
G01*
X4464696Y4731327D02*
X4464696Y4701705D01*
X4413420Y4701705D01*
X4413420Y4731327D01*
X4464696Y4731327D01*
G37*
G36*
G01*
X4464696Y4762823D02*
X4464696Y4733201D01*
X4413420Y4733201D01*
X4413420Y4762823D01*
X4464696Y4762823D01*
G37*
G36*
G01*
X4464696Y4861248D02*
X4464696Y4843437D01*
X4413420Y4843437D01*
X4413420Y4861248D01*
X4464696Y4861248D01*
G37*
G36*
G01*
X4413420Y4983295D02*
X4464696Y4983295D01*
X4464696Y4953673D01*
X4413420Y4953673D01*
X4413420Y4983295D01*
G37*
G36*
G01*
X4413420Y4951799D02*
X4464696Y4951799D01*
X4464696Y4922177D01*
X4413420Y4922177D01*
X4413420Y4951799D01*
G37*
G36*
G01*
X4413420Y4920303D02*
X4464696Y4920303D01*
X4464696Y4902492D01*
X4413420Y4902492D01*
X4413420Y4920303D01*
G37*
G36*
G01*
X4413420Y4900618D02*
X4464696Y4900618D01*
X4464696Y4882807D01*
X4413420Y4882807D01*
X4413420Y4900618D01*
G37*
G36*
G01*
X4413420Y4880933D02*
X4464696Y4880933D01*
X4464696Y4863122D01*
X4413420Y4863122D01*
X4413420Y4880933D01*
G37*
G36*
G01*
X4413420Y4841563D02*
X4464696Y4841563D01*
X4464696Y4823752D01*
X4413420Y4823752D01*
X4413420Y4841563D01*
G37*
G36*
G01*
X4413420Y4821878D02*
X4464696Y4821878D01*
X4464696Y4804067D01*
X4413420Y4804067D01*
X4413420Y4821878D01*
G37*
G36*
G01*
X4413420Y4802193D02*
X4464696Y4802193D01*
X4464696Y4784382D01*
X4413420Y4784382D01*
X4413420Y4802193D01*
G37*
G36*
G01*
X4413420Y4782508D02*
X4464696Y4782508D01*
X4464696Y4764697D01*
X4413420Y4764697D01*
X4413420Y4782508D01*
G37*
G36*
G01*
X4372433Y4919496D02*
X4409929Y4919496D01*
X4409929Y4899717D01*
X4372433Y4899717D01*
X4372433Y4919496D01*
G37*
G36*
G01*
X4372433Y4944693D02*
X4409929Y4944693D01*
X4409929Y4924913D01*
X4372433Y4924913D01*
X4372433Y4944693D01*
G37*
G36*
G01*
X4372433Y4995087D02*
X4409929Y4995087D01*
X4409929Y4975307D01*
X4372433Y4975307D01*
X4372433Y4995087D01*
G37*
G36*
G01*
X4372433Y5020283D02*
X4409929Y5020283D01*
X4409929Y5000504D01*
X4372433Y5000504D01*
X4372433Y5020283D01*
G37*
G36*
G01*
X4409929Y4969890D02*
X4409929Y4950110D01*
X4372433Y4950110D01*
X4372433Y4969890D01*
X4409929Y4969890D01*
G37*
G36*
G01*
X4270071Y5020283D02*
X4307567Y5020283D01*
X4307567Y5000504D01*
X4270071Y5000504D01*
X4270071Y5020283D01*
G37*
G36*
G01*
X4307567Y4969890D02*
X4307567Y4950110D01*
X4270071Y4950110D01*
X4270071Y4969890D01*
X4307567Y4969890D01*
G37*
G36*
G01*
X4270071Y4944693D02*
X4307567Y4944693D01*
X4307567Y4924913D01*
X4270071Y4924913D01*
X4270071Y4944693D01*
G37*
G36*
G01*
X4270071Y4919496D02*
X4307567Y4919496D01*
X4307567Y4899717D01*
X4270071Y4899717D01*
X4270071Y4919496D01*
G37*
G36*
G01*
X4270071Y4995087D02*
X4307567Y4995087D01*
X4307567Y4975307D01*
X4270071Y4975307D01*
X4270071Y4995087D01*
G37*
G36*
G01*
X4226449Y4780598D02*
X4253709Y4780598D01*
X4253709Y4749402D01*
X4226449Y4749402D01*
X4226449Y4780598D01*
G37*
G36*
G01*
X4253709Y4875598D02*
X4253709Y4844402D01*
X4226449Y4844402D01*
X4226449Y4875598D01*
X4253709Y4875598D01*
G37*
G36*
G01*
X4146685Y5509811D02*
X4231425Y5509811D01*
X4231425Y5480189D01*
X4146685Y5480189D01*
X4146685Y5509811D01*
G37*
G36*
G01*
X4146685Y5759811D02*
X4231425Y5759811D01*
X4231425Y5730189D01*
X4146685Y5730189D01*
X4146685Y5759811D01*
G37*
G36*
G01*
X4146685Y5709811D02*
X4231425Y5709811D01*
X4231425Y5680189D01*
X4146685Y5680189D01*
X4146685Y5709811D01*
G37*
G36*
G01*
X4146685Y5659811D02*
X4231425Y5659811D01*
X4231425Y5630189D01*
X4146685Y5630189D01*
X4146685Y5659811D01*
G37*
G36*
G01*
X4146685Y5609811D02*
X4231425Y5609811D01*
X4231425Y5580189D01*
X4146685Y5580189D01*
X4146685Y5609811D01*
G37*
G36*
G01*
X4146685Y5559811D02*
X4231425Y5559811D01*
X4231425Y5530189D01*
X4146685Y5530189D01*
X4146685Y5559811D01*
G37*
G36*
G01*
X4231425Y5459811D02*
X4231425Y5430189D01*
X4146685Y5430189D01*
X4146685Y5459811D01*
X4231425Y5459811D01*
G37*
G36*
G01*
X4146685Y5409811D02*
X4231425Y5409811D01*
X4231425Y5380189D01*
X4146685Y5380189D01*
X4146685Y5409811D01*
G37*
G36*
G01*
X4146685Y5359811D02*
X4231425Y5359811D01*
X4231425Y5330189D01*
X4146685Y5330189D01*
X4146685Y5359811D01*
G37*
G36*
G01*
X4146685Y5309811D02*
X4231425Y5309811D01*
X4231425Y5280189D01*
X4146685Y5280189D01*
X4146685Y5309811D01*
G37*
G36*
G01*
X4186291Y4780598D02*
X4213551Y4780598D01*
X4213551Y4749402D01*
X4186291Y4749402D01*
X4186291Y4780598D01*
G37*
G36*
G01*
X4213551Y4875598D02*
X4213551Y4844402D01*
X4186291Y4844402D01*
X4186291Y4875598D01*
X4213551Y4875598D01*
G37*
G36*
G01*
X4104795Y4932921D02*
X4135205Y4932921D01*
X4135205Y4904874D01*
X4104795Y4904874D01*
X4104795Y4932921D01*
G37*
G36*
G01*
X4104795Y4895126D02*
X4135205Y4895126D01*
X4135205Y4867079D01*
X4104795Y4867079D01*
X4104795Y4895126D01*
G37*
G36*
G01*
X4054874Y5035205D02*
X4082921Y5035205D01*
X4082921Y5004795D01*
X4054874Y5004795D01*
X4054874Y5035205D01*
G37*
G36*
G01*
X4068000Y5448000D02*
X4068000Y5392000D01*
X4012000Y5392000D01*
X4012000Y5448000D01*
X4068000Y5448000D01*
G37*
G36*
G01*
X4017079Y5035205D02*
X4045126Y5035205D01*
X4045126Y5004795D01*
X4017079Y5004795D01*
X4017079Y5035205D01*
G37*
G36*
G01*
X3999929Y5609890D02*
X3999929Y5590110D01*
X3962433Y5590110D01*
X3962433Y5609890D01*
X3999929Y5609890D01*
G37*
G36*
G01*
X3962433Y5660283D02*
X3999929Y5660283D01*
X3999929Y5640504D01*
X3962433Y5640504D01*
X3962433Y5660283D01*
G37*
G36*
G01*
X3962433Y5635087D02*
X3999929Y5635087D01*
X3999929Y5615307D01*
X3962433Y5615307D01*
X3962433Y5635087D01*
G37*
G36*
G01*
X3962433Y5584693D02*
X3999929Y5584693D01*
X3999929Y5564913D01*
X3962433Y5564913D01*
X3962433Y5584693D01*
G37*
G36*
G01*
X3962433Y5559496D02*
X3999929Y5559496D01*
X3999929Y5539717D01*
X3962433Y5539717D01*
X3962433Y5559496D01*
G37*
G36*
G01*
X3897567Y5609890D02*
X3897567Y5590110D01*
X3860071Y5590110D01*
X3860071Y5609890D01*
X3897567Y5609890D01*
G37*
G36*
G01*
X3860071Y5660283D02*
X3897567Y5660283D01*
X3897567Y5640504D01*
X3860071Y5640504D01*
X3860071Y5660283D01*
G37*
G36*
G01*
X3860071Y5635087D02*
X3897567Y5635087D01*
X3897567Y5615307D01*
X3860071Y5615307D01*
X3860071Y5635087D01*
G37*
G36*
G01*
X3860071Y5584693D02*
X3897567Y5584693D01*
X3897567Y5564913D01*
X3860071Y5564913D01*
X3860071Y5584693D01*
G37*
G36*
G01*
X3860071Y5559496D02*
X3897567Y5559496D01*
X3897567Y5539717D01*
X3860071Y5539717D01*
X3860071Y5559496D01*
G37*
M02*
