G04 Layer: TopSolderMaskLayer*
G04 EasyEDA v6.5.44, 2024-07-16 09:33:37*
G04 92fc93377fd146f58095a2b6f3fb7df7,4528e9a37e1d4fff95ee12c27a66ef09,10*
G04 Gerber Generator version 0.2*
G04 Scale: 100 percent, Rotated: No, Reflected: No *
G04 Dimensions in inches *
G04 leading zeros omitted , absolute positions ,3 integer and 6 decimal *
%FSLAX36Y36*%
%MOIN*%

%AMMACRO1*4,1,8,-0.0126,-0.0231,-0.0138,-0.0219,-0.0138,0.0219,-0.0126,0.0231,0.0126,0.0231,0.0138,0.0219,0.0138,-0.0219,0.0126,-0.0231,-0.0126,-0.0231,0*%
%AMMACRO2*4,1,8,-0.0231,-0.0291,-0.0243,-0.0279,-0.0243,0.0279,-0.0231,0.0291,0.0231,0.0291,0.0243,0.0279,0.0243,-0.0279,0.0231,-0.0291,-0.0231,-0.0291,0*%
%AMMACRO3*4,1,8,-0.0279,-0.0243,-0.0291,-0.0231,-0.0291,0.0231,-0.0279,0.0243,0.0279,0.0243,0.0291,0.0231,0.0291,-0.0231,0.0279,-0.0243,-0.0279,-0.0243,0*%
%ADD10C,0.0640*%
%ADD11MACRO1*%
%ADD12MACRO2*%
%ADD13MACRO3*%

%LPD*%
G36*
X3748800Y3815000D02*
G01*
X3741980Y3814900D01*
X3741840Y3813980D01*
X3741540Y3809620D01*
X3741200Y3799280D01*
X3741540Y3789080D01*
X3741980Y3783700D01*
X3780600Y3783500D01*
X3780440Y3783060D01*
X3741060Y3709940D01*
X3740040Y3702000D01*
X3740000Y3691160D01*
X3740380Y3687780D01*
X3740820Y3685320D01*
X3741540Y3682580D01*
X3742180Y3680820D01*
X3823900Y3680820D01*
X3823900Y3620960D01*
X3824200Y3614760D01*
X3824640Y3610820D01*
X3825220Y3607440D01*
X3825980Y3604200D01*
X3826960Y3601120D01*
X3827880Y3598720D01*
X3829320Y3595720D01*
X3830779Y3593320D01*
X3832020Y3591540D01*
X3834020Y3589140D01*
X3837919Y3585880D01*
X3841100Y3583880D01*
X3844960Y3582080D01*
X3848200Y3580940D01*
X3850980Y3580220D01*
X3853920Y3579640D01*
X3857000Y3579220D01*
X3861700Y3578820D01*
X3866880Y3578820D01*
X3870960Y3579220D01*
X3873300Y3579640D01*
X3875360Y3580179D01*
X3879320Y3581640D01*
X3881960Y3582940D01*
X3883880Y3584220D01*
X3886360Y3586180D01*
X3889160Y3588880D01*
X3890880Y3591100D01*
X3892400Y3593380D01*
X3895360Y3598440D01*
X3897220Y3602020D01*
X3897380Y3602000D01*
X3900020Y3596900D01*
X3901660Y3594500D01*
X3904040Y3591640D01*
X3906040Y3589600D01*
X3909120Y3586940D01*
X3911920Y3584900D01*
X3915740Y3582640D01*
X3919300Y3580940D01*
X3922340Y3579960D01*
X3926000Y3579240D01*
X3930120Y3578780D01*
X3936139Y3578940D01*
X3941580Y3579680D01*
X3943920Y3580240D01*
X3947559Y3581380D01*
X3950820Y3582720D01*
X3952880Y3583720D01*
X3955820Y3585460D01*
X3957860Y3586880D01*
X3960659Y3589180D01*
X3963420Y3591960D01*
X3966280Y3595480D01*
X3968460Y3598720D01*
X3970260Y3601860D01*
X3971780Y3605200D01*
X3973180Y3608720D01*
X3974360Y3612940D01*
X3975260Y3617020D01*
X3975840Y3621100D01*
X3976220Y3625320D01*
X3976220Y3709300D01*
X3975820Y3711280D01*
X3975380Y3712860D01*
X3972400Y3713320D01*
X3967559Y3713880D01*
X3961580Y3714300D01*
X3952580Y3714300D01*
X3946860Y3713880D01*
X3943180Y3713440D01*
X3939660Y3712880D01*
X3939580Y3712799D01*
X3938960Y3708880D01*
X3938759Y3635020D01*
X3938260Y3631500D01*
X3937520Y3627559D01*
X3936780Y3625040D01*
X3935659Y3622780D01*
X3934520Y3621440D01*
X3933000Y3620360D01*
X3931740Y3619760D01*
X3929980Y3619300D01*
X3926740Y3619160D01*
X3924400Y3619620D01*
X3922919Y3620280D01*
X3921920Y3621080D01*
X3920520Y3623159D01*
X3919800Y3624600D01*
X3918759Y3627460D01*
X3918020Y3630940D01*
X3917559Y3633900D01*
X3917140Y3638820D01*
X3916520Y3648519D01*
X3916360Y3665280D01*
X3916860Y3687220D01*
X3916680Y3695380D01*
X3916380Y3702700D01*
X3915940Y3707060D01*
X3915360Y3710360D01*
X3914760Y3712900D01*
X3907660Y3713880D01*
X3900160Y3714600D01*
X3892679Y3714620D01*
X3889300Y3714300D01*
X3886620Y3713759D01*
X3884300Y3712900D01*
X3883519Y3709740D01*
X3883080Y3707460D01*
X3882620Y3704100D01*
X3882340Y3700860D01*
X3882020Y3693980D01*
X3881480Y3639940D01*
X3881019Y3636000D01*
X3880280Y3632060D01*
X3879380Y3628720D01*
X3877840Y3625040D01*
X3876380Y3622640D01*
X3874040Y3620360D01*
X3872280Y3619520D01*
X3870880Y3619160D01*
X3868420Y3619280D01*
X3866480Y3620179D01*
X3864840Y3621940D01*
X3863780Y3623480D01*
X3862940Y3625460D01*
X3862340Y3627500D01*
X3862040Y3628980D01*
X3861640Y3707900D01*
X3861340Y3710160D01*
X3860860Y3712860D01*
X3857000Y3713600D01*
X3854220Y3714000D01*
X3849220Y3714500D01*
X3788300Y3714480D01*
X3787320Y3714860D01*
X3787520Y3715500D01*
X3789540Y3719840D01*
X3795820Y3731540D01*
X3798540Y3736320D01*
X3811920Y3760800D01*
X3819100Y3773600D01*
X3822400Y3779800D01*
X3822880Y3781180D01*
X3823320Y3783320D01*
X3823740Y3786259D01*
X3824060Y3789500D01*
X3824520Y3801880D01*
X3824180Y3808500D01*
X3823740Y3811740D01*
X3823220Y3814340D01*
X3823039Y3814520D01*
X3788740Y3814900D01*
G37*
G36*
X4817760Y4362480D02*
G01*
X4811420Y4362320D01*
X4805100Y4361840D01*
X4798800Y4361040D01*
X4792560Y4359920D01*
X4786380Y4358500D01*
X4780280Y4356740D01*
X4774280Y4354700D01*
X4768380Y4352340D01*
X4762620Y4349700D01*
X4757000Y4346760D01*
X4751540Y4343540D01*
X4746240Y4340040D01*
X4741120Y4336300D01*
X4736200Y4332280D01*
X4731500Y4328040D01*
X4711480Y4308060D01*
X4706980Y4303340D01*
X4702760Y4298380D01*
X4698780Y4293200D01*
X4695100Y4287820D01*
X4691680Y4282260D01*
X4688580Y4276540D01*
X4685760Y4270660D01*
X4683280Y4264640D01*
X4682140Y4261580D01*
X4680120Y4255380D01*
X4678440Y4249080D01*
X4677080Y4242700D01*
X4676060Y4236260D01*
X4675380Y4229780D01*
X4675040Y4223260D01*
X4675040Y4217200D01*
X4675360Y4211580D01*
X4676020Y4206000D01*
X4677000Y4200480D01*
X4677600Y4197720D01*
X4679060Y4192300D01*
X4680820Y4186980D01*
X4682900Y4181760D01*
X4684040Y4179180D01*
X4686560Y4174160D01*
X4689380Y4169300D01*
X4692460Y4164620D01*
X4695820Y4160100D01*
X4699420Y4155800D01*
X4703280Y4151720D01*
X4736920Y4118140D01*
X4740940Y4114580D01*
X4745180Y4111300D01*
X4749620Y4108279D01*
X4754240Y4105560D01*
X4759020Y4103120D01*
X4763940Y4101000D01*
X4766440Y4100040D01*
X4771540Y4098380D01*
X4776740Y4097060D01*
X4782000Y4096060D01*
X4787320Y4095380D01*
X4792680Y4095040D01*
X4840500Y4095000D01*
X4846760Y4095160D01*
X4853000Y4095659D01*
X4859200Y4096480D01*
X4862280Y4097000D01*
X4868400Y4098300D01*
X4874440Y4099920D01*
X4880400Y4101860D01*
X4886240Y4104100D01*
X4891940Y4106640D01*
X4897520Y4109480D01*
X4902940Y4112600D01*
X4908180Y4116019D01*
X4913240Y4119700D01*
X4918100Y4123639D01*
X4922760Y4127820D01*
X4926100Y4131100D01*
X4930740Y4135980D01*
X4935120Y4141080D01*
X4939240Y4146400D01*
X4943080Y4151940D01*
X4946640Y4157640D01*
X4949920Y4163519D01*
X4952880Y4169560D01*
X4955520Y4175740D01*
X4956740Y4178880D01*
X4958920Y4185240D01*
X4960760Y4191720D01*
X4962280Y4198280D01*
X4962920Y4201580D01*
X4963940Y4208220D01*
X4964620Y4214920D01*
X4964960Y4221640D01*
X4964960Y4227960D01*
X4964620Y4233880D01*
X4964340Y4236840D01*
X4963500Y4242700D01*
X4962340Y4248520D01*
X4960860Y4254260D01*
X4959060Y4259920D01*
X4956960Y4265460D01*
X4954540Y4270860D01*
X4951820Y4276140D01*
X4948800Y4281240D01*
X4945500Y4286180D01*
X4941940Y4290900D01*
X4938120Y4295440D01*
X4934040Y4299740D01*
X4889560Y4344240D01*
X4819960Y4362480D01*
G37*
G36*
X4557760Y4107480D02*
G01*
X4551420Y4107320D01*
X4545100Y4106840D01*
X4538800Y4106040D01*
X4532560Y4104920D01*
X4526380Y4103500D01*
X4520280Y4101740D01*
X4514280Y4099700D01*
X4508380Y4097340D01*
X4502620Y4094700D01*
X4497000Y4091760D01*
X4491540Y4088540D01*
X4486240Y4085040D01*
X4481120Y4081300D01*
X4476200Y4077280D01*
X4471500Y4073039D01*
X4451480Y4053060D01*
X4446980Y4048340D01*
X4442760Y4043380D01*
X4438780Y4038200D01*
X4435100Y4032820D01*
X4431680Y4027260D01*
X4428580Y4021540D01*
X4425760Y4015659D01*
X4423280Y4009640D01*
X4422140Y4006580D01*
X4420120Y4000380D01*
X4418440Y3994080D01*
X4417080Y3987700D01*
X4416060Y3981259D01*
X4415380Y3974780D01*
X4415040Y3968260D01*
X4415040Y3962200D01*
X4415360Y3956580D01*
X4416020Y3951000D01*
X4417000Y3945480D01*
X4417600Y3942720D01*
X4419060Y3937300D01*
X4420820Y3931980D01*
X4422900Y3926760D01*
X4424040Y3924180D01*
X4426560Y3919160D01*
X4429380Y3914300D01*
X4432460Y3909620D01*
X4435820Y3905100D01*
X4439420Y3900800D01*
X4443280Y3896720D01*
X4476920Y3863140D01*
X4480940Y3859580D01*
X4485180Y3856300D01*
X4489620Y3853279D01*
X4494240Y3850560D01*
X4499020Y3848120D01*
X4503940Y3846000D01*
X4506440Y3845040D01*
X4511540Y3843380D01*
X4516740Y3842060D01*
X4522000Y3841060D01*
X4527320Y3840380D01*
X4532680Y3840040D01*
X4580500Y3840000D01*
X4586760Y3840160D01*
X4593000Y3840659D01*
X4599200Y3841480D01*
X4602280Y3842000D01*
X4608400Y3843300D01*
X4614440Y3844920D01*
X4620400Y3846860D01*
X4626240Y3849100D01*
X4631940Y3851640D01*
X4637520Y3854480D01*
X4642940Y3857600D01*
X4648180Y3861019D01*
X4653240Y3864700D01*
X4658100Y3868639D01*
X4662760Y3872820D01*
X4666100Y3876100D01*
X4670740Y3880980D01*
X4675120Y3886080D01*
X4679240Y3891400D01*
X4683080Y3896940D01*
X4686640Y3902640D01*
X4689920Y3908519D01*
X4692880Y3914560D01*
X4695520Y3920740D01*
X4696740Y3923880D01*
X4698920Y3930240D01*
X4700760Y3936720D01*
X4702280Y3943279D01*
X4702920Y3946580D01*
X4703940Y3953220D01*
X4704620Y3959920D01*
X4704960Y3966640D01*
X4704960Y3972960D01*
X4704620Y3978880D01*
X4704340Y3981840D01*
X4703500Y3987700D01*
X4702340Y3993519D01*
X4700860Y3999260D01*
X4699060Y4004920D01*
X4696960Y4010460D01*
X4694540Y4015860D01*
X4691820Y4021139D01*
X4688800Y4026240D01*
X4685500Y4031180D01*
X4681940Y4035899D01*
X4678120Y4040440D01*
X4674040Y4044740D01*
X4629560Y4089240D01*
X4559960Y4107480D01*
G37*
G36*
X2690000Y3745000D02*
G01*
X2690000Y3605000D01*
X2930000Y3605000D01*
X2930000Y3745000D01*
G37*
G36*
X1795000Y3745000D02*
G01*
X1795000Y3605000D01*
X2035000Y3605000D01*
X2035000Y3745000D01*
G37*
G36*
X2225000Y3745000D02*
G01*
X2225000Y3605000D01*
X2465000Y3605000D01*
X2465000Y3745000D01*
G37*
G36*
X842760Y4582480D02*
G01*
X836420Y4582320D01*
X830100Y4581840D01*
X823800Y4581040D01*
X817560Y4579920D01*
X811380Y4578500D01*
X805280Y4576740D01*
X799280Y4574700D01*
X793379Y4572340D01*
X787620Y4569700D01*
X782000Y4566760D01*
X776540Y4563540D01*
X771240Y4560040D01*
X766120Y4556300D01*
X761200Y4552280D01*
X756500Y4548040D01*
X736480Y4528060D01*
X731979Y4523340D01*
X727760Y4518380D01*
X723780Y4513200D01*
X720100Y4507820D01*
X716680Y4502260D01*
X713580Y4496540D01*
X710759Y4490660D01*
X708280Y4484640D01*
X707140Y4481580D01*
X705120Y4475380D01*
X703439Y4469080D01*
X702080Y4462700D01*
X701060Y4456260D01*
X700380Y4449780D01*
X700040Y4443260D01*
X700040Y4437200D01*
X700360Y4431580D01*
X701020Y4426000D01*
X702000Y4420480D01*
X702600Y4417720D01*
X704060Y4412300D01*
X705819Y4406980D01*
X707900Y4401760D01*
X709040Y4399180D01*
X711560Y4394160D01*
X714380Y4389300D01*
X717460Y4384620D01*
X720819Y4380100D01*
X724419Y4375800D01*
X728280Y4371720D01*
X761919Y4338140D01*
X765939Y4334580D01*
X770180Y4331300D01*
X774620Y4328280D01*
X779240Y4325560D01*
X784020Y4323120D01*
X788940Y4321000D01*
X791440Y4320040D01*
X796540Y4318380D01*
X801740Y4317060D01*
X807000Y4316060D01*
X812320Y4315380D01*
X817680Y4315040D01*
X865500Y4315000D01*
X871760Y4315160D01*
X878000Y4315660D01*
X884200Y4316480D01*
X887280Y4317000D01*
X893400Y4318300D01*
X899440Y4319920D01*
X905400Y4321860D01*
X911240Y4324100D01*
X916940Y4326640D01*
X922520Y4329480D01*
X927940Y4332600D01*
X933180Y4336020D01*
X938240Y4339700D01*
X943100Y4343640D01*
X947760Y4347820D01*
X951100Y4351100D01*
X955740Y4355980D01*
X960120Y4361080D01*
X964240Y4366400D01*
X968080Y4371940D01*
X971640Y4377640D01*
X974920Y4383520D01*
X977880Y4389560D01*
X980520Y4395740D01*
X981740Y4398880D01*
X983920Y4405240D01*
X985759Y4411720D01*
X987280Y4418280D01*
X987920Y4421580D01*
X988940Y4428220D01*
X989620Y4434920D01*
X989960Y4441640D01*
X989960Y4447960D01*
X989620Y4453880D01*
X989340Y4456840D01*
X988500Y4462700D01*
X987340Y4468520D01*
X985860Y4474260D01*
X984060Y4479920D01*
X981960Y4485460D01*
X979539Y4490860D01*
X976820Y4496140D01*
X973800Y4501240D01*
X970500Y4506180D01*
X966940Y4510900D01*
X963120Y4515440D01*
X959040Y4519740D01*
X914560Y4564240D01*
X844960Y4582480D01*
G37*
G36*
X1112760Y4307480D02*
G01*
X1106420Y4307320D01*
X1100100Y4306840D01*
X1093800Y4306040D01*
X1087560Y4304920D01*
X1081380Y4303500D01*
X1075280Y4301740D01*
X1069280Y4299700D01*
X1063380Y4297340D01*
X1057620Y4294700D01*
X1052000Y4291760D01*
X1046540Y4288540D01*
X1041240Y4285040D01*
X1036120Y4281300D01*
X1031200Y4277280D01*
X1026500Y4273040D01*
X1006480Y4253060D01*
X1001979Y4248340D01*
X997760Y4243380D01*
X993780Y4238200D01*
X990100Y4232820D01*
X986680Y4227260D01*
X983580Y4221540D01*
X980759Y4215660D01*
X978280Y4209640D01*
X977140Y4206580D01*
X975120Y4200380D01*
X973439Y4194080D01*
X972080Y4187700D01*
X971060Y4181259D01*
X970380Y4174780D01*
X970040Y4168260D01*
X970040Y4162200D01*
X970360Y4156580D01*
X971020Y4151000D01*
X972000Y4145480D01*
X972600Y4142720D01*
X974060Y4137300D01*
X975819Y4131980D01*
X977900Y4126760D01*
X979040Y4124180D01*
X981560Y4119160D01*
X984380Y4114300D01*
X987460Y4109620D01*
X990819Y4105100D01*
X994419Y4100800D01*
X998280Y4096720D01*
X1031919Y4063140D01*
X1035939Y4059580D01*
X1040180Y4056300D01*
X1044620Y4053279D01*
X1049240Y4050560D01*
X1054020Y4048120D01*
X1058940Y4046000D01*
X1061440Y4045040D01*
X1066540Y4043380D01*
X1071740Y4042060D01*
X1077000Y4041060D01*
X1082320Y4040380D01*
X1087680Y4040040D01*
X1135500Y4040000D01*
X1141760Y4040160D01*
X1148000Y4040659D01*
X1154200Y4041480D01*
X1157280Y4042000D01*
X1163400Y4043300D01*
X1169440Y4044920D01*
X1175400Y4046860D01*
X1181240Y4049100D01*
X1186940Y4051640D01*
X1192520Y4054480D01*
X1197940Y4057600D01*
X1203180Y4061019D01*
X1208240Y4064700D01*
X1213100Y4068639D01*
X1217760Y4072820D01*
X1221100Y4076100D01*
X1225740Y4080980D01*
X1230120Y4086080D01*
X1234240Y4091400D01*
X1238080Y4096940D01*
X1241640Y4102640D01*
X1244920Y4108519D01*
X1247880Y4114560D01*
X1250520Y4120740D01*
X1251740Y4123880D01*
X1253920Y4130240D01*
X1255760Y4136720D01*
X1257280Y4143279D01*
X1257920Y4146580D01*
X1258940Y4153220D01*
X1259620Y4159920D01*
X1259960Y4166640D01*
X1259960Y4172960D01*
X1259620Y4178880D01*
X1259340Y4181840D01*
X1258500Y4187700D01*
X1257340Y4193519D01*
X1255860Y4199260D01*
X1254060Y4204920D01*
X1251960Y4210460D01*
X1249540Y4215860D01*
X1246820Y4221140D01*
X1243800Y4226240D01*
X1240500Y4231180D01*
X1236940Y4235900D01*
X1233120Y4240440D01*
X1229040Y4244740D01*
X1184560Y4289240D01*
X1114960Y4307480D01*
G37*
G36*
X842760Y4032480D02*
G01*
X836420Y4032320D01*
X830100Y4031840D01*
X823800Y4031040D01*
X817560Y4029920D01*
X811380Y4028500D01*
X805280Y4026740D01*
X799280Y4024700D01*
X793379Y4022340D01*
X787620Y4019700D01*
X782000Y4016760D01*
X776540Y4013540D01*
X771240Y4010040D01*
X766120Y4006300D01*
X761200Y4002280D01*
X756500Y3998039D01*
X736480Y3978060D01*
X731979Y3973340D01*
X727760Y3968380D01*
X723780Y3963200D01*
X720100Y3957820D01*
X716680Y3952260D01*
X713580Y3946540D01*
X710759Y3940659D01*
X708280Y3934640D01*
X707140Y3931580D01*
X705120Y3925380D01*
X703439Y3919080D01*
X702080Y3912700D01*
X701060Y3906259D01*
X700380Y3899780D01*
X700040Y3893260D01*
X700040Y3887200D01*
X700360Y3881580D01*
X701020Y3876000D01*
X702000Y3870480D01*
X702600Y3867720D01*
X704060Y3862300D01*
X705819Y3856980D01*
X707900Y3851760D01*
X709040Y3849180D01*
X711560Y3844160D01*
X714380Y3839300D01*
X717460Y3834620D01*
X720819Y3830100D01*
X724419Y3825800D01*
X728280Y3821720D01*
X761919Y3788140D01*
X765939Y3784580D01*
X770180Y3781300D01*
X774620Y3778279D01*
X779240Y3775560D01*
X784020Y3773120D01*
X788940Y3771000D01*
X791440Y3770040D01*
X796540Y3768380D01*
X801740Y3767060D01*
X807000Y3766060D01*
X812320Y3765380D01*
X817680Y3765040D01*
X865500Y3765000D01*
X871760Y3765160D01*
X878000Y3765659D01*
X884200Y3766480D01*
X887280Y3767000D01*
X893400Y3768300D01*
X899440Y3769920D01*
X905400Y3771860D01*
X911240Y3774100D01*
X916940Y3776640D01*
X922520Y3779480D01*
X927940Y3782600D01*
X933180Y3786019D01*
X938240Y3789700D01*
X943100Y3793639D01*
X947760Y3797820D01*
X951100Y3801100D01*
X955740Y3805980D01*
X960120Y3811080D01*
X964240Y3816400D01*
X968080Y3821940D01*
X971640Y3827640D01*
X974920Y3833519D01*
X977880Y3839560D01*
X980520Y3845740D01*
X981740Y3848880D01*
X983920Y3855240D01*
X985759Y3861720D01*
X987280Y3868279D01*
X987920Y3871580D01*
X988940Y3878220D01*
X989620Y3884920D01*
X989960Y3891640D01*
X989960Y3897960D01*
X989620Y3903880D01*
X989340Y3906840D01*
X988500Y3912700D01*
X987340Y3918519D01*
X985860Y3924260D01*
X984060Y3929920D01*
X981960Y3935460D01*
X979539Y3940860D01*
X976820Y3946139D01*
X973800Y3951240D01*
X970500Y3956180D01*
X966940Y3960899D01*
X963120Y3965440D01*
X959040Y3969740D01*
X914560Y4014240D01*
X844960Y4032480D01*
G37*
G36*
X567760Y4312480D02*
G01*
X561420Y4312320D01*
X555100Y4311840D01*
X548800Y4311040D01*
X542560Y4309920D01*
X536380Y4308500D01*
X530280Y4306740D01*
X524280Y4304700D01*
X518380Y4302340D01*
X512620Y4299700D01*
X507000Y4296760D01*
X501540Y4293540D01*
X496240Y4290040D01*
X491120Y4286300D01*
X486200Y4282280D01*
X481500Y4278040D01*
X461480Y4258060D01*
X456980Y4253340D01*
X452760Y4248380D01*
X448780Y4243200D01*
X445100Y4237820D01*
X441680Y4232260D01*
X438579Y4226540D01*
X435760Y4220660D01*
X433280Y4214640D01*
X432140Y4211580D01*
X430120Y4205380D01*
X428440Y4199080D01*
X427080Y4192700D01*
X426060Y4186259D01*
X425379Y4179780D01*
X425040Y4173260D01*
X425040Y4167200D01*
X425360Y4161580D01*
X426019Y4156000D01*
X427000Y4150480D01*
X427600Y4147720D01*
X429060Y4142300D01*
X430820Y4136980D01*
X432900Y4131760D01*
X434040Y4129180D01*
X436560Y4124160D01*
X439380Y4119300D01*
X442460Y4114620D01*
X445820Y4110100D01*
X449420Y4105800D01*
X453280Y4101720D01*
X486920Y4068140D01*
X490940Y4064580D01*
X495180Y4061300D01*
X499620Y4058279D01*
X504240Y4055560D01*
X509020Y4053120D01*
X513940Y4051000D01*
X516440Y4050040D01*
X521540Y4048380D01*
X526740Y4047060D01*
X532000Y4046060D01*
X537320Y4045380D01*
X542680Y4045040D01*
X590500Y4045000D01*
X596760Y4045160D01*
X603000Y4045659D01*
X609200Y4046480D01*
X612280Y4047000D01*
X618400Y4048300D01*
X624440Y4049920D01*
X630400Y4051860D01*
X636240Y4054100D01*
X641940Y4056640D01*
X647520Y4059480D01*
X652940Y4062600D01*
X658180Y4066019D01*
X663240Y4069700D01*
X668100Y4073639D01*
X672760Y4077820D01*
X676100Y4081100D01*
X680740Y4085980D01*
X685120Y4091080D01*
X689240Y4096400D01*
X693080Y4101940D01*
X696640Y4107640D01*
X699920Y4113519D01*
X702880Y4119560D01*
X705520Y4125740D01*
X706740Y4128880D01*
X708920Y4135240D01*
X710759Y4141720D01*
X712280Y4148279D01*
X712920Y4151580D01*
X713940Y4158220D01*
X714620Y4164920D01*
X714960Y4171640D01*
X714960Y4177960D01*
X714620Y4183880D01*
X714340Y4186840D01*
X713500Y4192700D01*
X712340Y4198520D01*
X710860Y4204260D01*
X709060Y4209920D01*
X706960Y4215460D01*
X704539Y4220860D01*
X701820Y4226140D01*
X698800Y4231240D01*
X695500Y4236180D01*
X691940Y4240900D01*
X688120Y4245440D01*
X684040Y4249740D01*
X639560Y4294240D01*
X569960Y4312480D01*
G37*
G36*
X837760Y5942480D02*
G01*
X831420Y5942320D01*
X825100Y5941840D01*
X818800Y5941040D01*
X812560Y5939920D01*
X806380Y5938500D01*
X800280Y5936740D01*
X794280Y5934700D01*
X788379Y5932340D01*
X782620Y5929700D01*
X777000Y5926760D01*
X771540Y5923540D01*
X766240Y5920040D01*
X761120Y5916300D01*
X756200Y5912279D01*
X751500Y5908040D01*
X731480Y5888060D01*
X726979Y5883339D01*
X722760Y5878380D01*
X718780Y5873200D01*
X715100Y5867820D01*
X711680Y5862260D01*
X708580Y5856540D01*
X705759Y5850660D01*
X703280Y5844640D01*
X702140Y5841580D01*
X700120Y5835380D01*
X698439Y5829080D01*
X697080Y5822700D01*
X696060Y5816260D01*
X695380Y5809779D01*
X695040Y5803260D01*
X695040Y5797200D01*
X695360Y5791580D01*
X696020Y5786000D01*
X697000Y5780480D01*
X697600Y5777720D01*
X699060Y5772300D01*
X700819Y5766980D01*
X702900Y5761760D01*
X704040Y5759180D01*
X706560Y5754160D01*
X709380Y5749299D01*
X712460Y5744620D01*
X715819Y5740100D01*
X719419Y5735800D01*
X723280Y5731720D01*
X756919Y5698140D01*
X760939Y5694580D01*
X765180Y5691300D01*
X769620Y5688280D01*
X774240Y5685560D01*
X779020Y5683120D01*
X783940Y5681000D01*
X786440Y5680040D01*
X791540Y5678380D01*
X796740Y5677060D01*
X802000Y5676060D01*
X807320Y5675380D01*
X812680Y5675040D01*
X860500Y5675000D01*
X866760Y5675160D01*
X873000Y5675660D01*
X879200Y5676480D01*
X882280Y5677000D01*
X888400Y5678300D01*
X894440Y5679920D01*
X900400Y5681860D01*
X906240Y5684100D01*
X911940Y5686640D01*
X917520Y5689480D01*
X922940Y5692600D01*
X928180Y5696020D01*
X933240Y5699700D01*
X938100Y5703640D01*
X942760Y5707820D01*
X946100Y5711100D01*
X950740Y5715980D01*
X955120Y5721079D01*
X959240Y5726400D01*
X963080Y5731940D01*
X966640Y5737640D01*
X969920Y5743520D01*
X972880Y5749560D01*
X975520Y5755740D01*
X976740Y5758880D01*
X978920Y5765240D01*
X980759Y5771720D01*
X982280Y5778280D01*
X982920Y5781580D01*
X983940Y5788220D01*
X984620Y5794920D01*
X984960Y5801640D01*
X984960Y5807960D01*
X984620Y5813880D01*
X984340Y5816840D01*
X983500Y5822700D01*
X982340Y5828520D01*
X980860Y5834260D01*
X979060Y5839920D01*
X976960Y5845460D01*
X974539Y5850860D01*
X971820Y5856140D01*
X968800Y5861240D01*
X965500Y5866180D01*
X961940Y5870900D01*
X958120Y5875440D01*
X954040Y5879740D01*
X909560Y5924240D01*
X839960Y5942480D01*
G37*
G36*
X1112760Y5672480D02*
G01*
X1106420Y5672320D01*
X1100100Y5671840D01*
X1093800Y5671040D01*
X1087560Y5669920D01*
X1081380Y5668500D01*
X1075280Y5666740D01*
X1069280Y5664700D01*
X1063380Y5662340D01*
X1057620Y5659700D01*
X1052000Y5656760D01*
X1046540Y5653540D01*
X1041240Y5650040D01*
X1036120Y5646300D01*
X1031200Y5642279D01*
X1026500Y5638040D01*
X1006480Y5618060D01*
X1001979Y5613339D01*
X997760Y5608380D01*
X993780Y5603200D01*
X990100Y5597820D01*
X986680Y5592260D01*
X983580Y5586540D01*
X980759Y5580660D01*
X978280Y5574640D01*
X977140Y5571580D01*
X975120Y5565380D01*
X973439Y5559080D01*
X972080Y5552700D01*
X971060Y5546260D01*
X970380Y5539779D01*
X970040Y5533260D01*
X970040Y5527200D01*
X970360Y5521580D01*
X971020Y5516000D01*
X972000Y5510480D01*
X972600Y5507720D01*
X974060Y5502300D01*
X975819Y5496980D01*
X977900Y5491760D01*
X979040Y5489180D01*
X981560Y5484160D01*
X984380Y5479299D01*
X987460Y5474620D01*
X990819Y5470100D01*
X994419Y5465800D01*
X998280Y5461720D01*
X1031919Y5428140D01*
X1035939Y5424580D01*
X1040180Y5421300D01*
X1044620Y5418280D01*
X1049240Y5415560D01*
X1054020Y5413120D01*
X1058940Y5411000D01*
X1061440Y5410040D01*
X1066540Y5408380D01*
X1071740Y5407060D01*
X1077000Y5406060D01*
X1082320Y5405380D01*
X1087680Y5405040D01*
X1135500Y5405000D01*
X1141760Y5405160D01*
X1148000Y5405660D01*
X1154200Y5406480D01*
X1157280Y5407000D01*
X1163400Y5408300D01*
X1169440Y5409920D01*
X1175400Y5411860D01*
X1181240Y5414100D01*
X1186940Y5416640D01*
X1192520Y5419480D01*
X1197940Y5422600D01*
X1203180Y5426020D01*
X1208240Y5429700D01*
X1213100Y5433640D01*
X1217760Y5437820D01*
X1221100Y5441100D01*
X1225740Y5445980D01*
X1230120Y5451079D01*
X1234240Y5456400D01*
X1238080Y5461940D01*
X1241640Y5467640D01*
X1244920Y5473520D01*
X1247880Y5479560D01*
X1250520Y5485740D01*
X1251740Y5488880D01*
X1253920Y5495240D01*
X1255760Y5501720D01*
X1257280Y5508280D01*
X1257920Y5511580D01*
X1258940Y5518220D01*
X1259620Y5524920D01*
X1259960Y5531640D01*
X1259960Y5537960D01*
X1259620Y5543880D01*
X1259340Y5546840D01*
X1258500Y5552700D01*
X1257340Y5558520D01*
X1255860Y5564260D01*
X1254060Y5569920D01*
X1251960Y5575460D01*
X1249540Y5580860D01*
X1246820Y5586140D01*
X1243800Y5591240D01*
X1240500Y5596180D01*
X1236940Y5600900D01*
X1233120Y5605440D01*
X1229040Y5609740D01*
X1184560Y5654240D01*
X1114960Y5672480D01*
G37*
G36*
X837760Y5397480D02*
G01*
X831420Y5397320D01*
X825100Y5396840D01*
X818800Y5396040D01*
X812560Y5394920D01*
X806380Y5393500D01*
X800280Y5391740D01*
X794280Y5389700D01*
X788379Y5387340D01*
X782620Y5384700D01*
X777000Y5381760D01*
X771540Y5378540D01*
X766240Y5375040D01*
X761120Y5371300D01*
X756200Y5367279D01*
X751500Y5363040D01*
X731480Y5343060D01*
X726979Y5338339D01*
X722760Y5333380D01*
X718780Y5328200D01*
X715100Y5322820D01*
X711680Y5317260D01*
X708580Y5311540D01*
X705759Y5305660D01*
X703280Y5299640D01*
X702140Y5296580D01*
X700120Y5290380D01*
X698439Y5284080D01*
X697080Y5277700D01*
X696060Y5271260D01*
X695380Y5264779D01*
X695040Y5258260D01*
X695040Y5252200D01*
X695360Y5246580D01*
X696020Y5241000D01*
X697000Y5235480D01*
X697600Y5232720D01*
X699060Y5227300D01*
X700819Y5221980D01*
X702900Y5216760D01*
X704040Y5214180D01*
X706560Y5209160D01*
X709380Y5204299D01*
X712460Y5199620D01*
X715819Y5195100D01*
X719419Y5190800D01*
X723280Y5186720D01*
X756919Y5153140D01*
X760939Y5149580D01*
X765180Y5146300D01*
X769620Y5143280D01*
X774240Y5140560D01*
X779020Y5138120D01*
X783940Y5136000D01*
X786440Y5135040D01*
X791540Y5133380D01*
X796740Y5132060D01*
X802000Y5131060D01*
X807320Y5130380D01*
X812680Y5130040D01*
X860500Y5130000D01*
X866760Y5130160D01*
X873000Y5130660D01*
X879200Y5131480D01*
X882280Y5132000D01*
X888400Y5133300D01*
X894440Y5134920D01*
X900400Y5136860D01*
X906240Y5139100D01*
X911940Y5141640D01*
X917520Y5144480D01*
X922940Y5147600D01*
X928180Y5151020D01*
X933240Y5154700D01*
X938100Y5158640D01*
X942760Y5162820D01*
X946100Y5166100D01*
X950740Y5170980D01*
X955120Y5176079D01*
X959240Y5181400D01*
X963080Y5186940D01*
X966640Y5192640D01*
X969920Y5198520D01*
X972880Y5204560D01*
X975520Y5210740D01*
X976740Y5213880D01*
X978920Y5220240D01*
X980759Y5226720D01*
X982280Y5233280D01*
X982920Y5236580D01*
X983940Y5243220D01*
X984620Y5249920D01*
X984960Y5256640D01*
X984960Y5262960D01*
X984620Y5268880D01*
X984340Y5271840D01*
X983500Y5277700D01*
X982340Y5283520D01*
X980860Y5289260D01*
X979060Y5294920D01*
X976960Y5300460D01*
X974539Y5305860D01*
X971820Y5311140D01*
X968800Y5316240D01*
X965500Y5321180D01*
X961940Y5325900D01*
X958120Y5330440D01*
X954040Y5334740D01*
X909560Y5379240D01*
X839960Y5397480D01*
G37*
G36*
X567760Y5677480D02*
G01*
X561420Y5677320D01*
X555100Y5676840D01*
X548800Y5676040D01*
X542560Y5674920D01*
X536380Y5673500D01*
X530280Y5671740D01*
X524280Y5669700D01*
X518380Y5667340D01*
X512620Y5664700D01*
X507000Y5661760D01*
X501540Y5658540D01*
X496240Y5655040D01*
X491120Y5651300D01*
X486200Y5647279D01*
X481500Y5643040D01*
X461480Y5623060D01*
X456980Y5618339D01*
X452760Y5613380D01*
X448780Y5608200D01*
X445100Y5602820D01*
X441680Y5597260D01*
X438579Y5591540D01*
X435760Y5585660D01*
X433280Y5579640D01*
X432140Y5576580D01*
X430120Y5570380D01*
X428440Y5564080D01*
X427080Y5557700D01*
X426060Y5551260D01*
X425379Y5544779D01*
X425040Y5538260D01*
X425040Y5532200D01*
X425360Y5526580D01*
X426019Y5521000D01*
X427000Y5515480D01*
X427600Y5512720D01*
X429060Y5507300D01*
X430820Y5501980D01*
X432900Y5496760D01*
X434040Y5494180D01*
X436560Y5489160D01*
X439380Y5484299D01*
X442460Y5479620D01*
X445820Y5475100D01*
X449420Y5470800D01*
X453280Y5466720D01*
X486920Y5433140D01*
X490940Y5429580D01*
X495180Y5426300D01*
X499620Y5423280D01*
X504240Y5420560D01*
X509020Y5418120D01*
X513940Y5416000D01*
X516440Y5415040D01*
X521540Y5413380D01*
X526740Y5412060D01*
X532000Y5411060D01*
X537320Y5410380D01*
X542680Y5410040D01*
X590500Y5410000D01*
X596760Y5410160D01*
X603000Y5410660D01*
X609200Y5411480D01*
X612280Y5412000D01*
X618400Y5413300D01*
X624440Y5414920D01*
X630400Y5416860D01*
X636240Y5419100D01*
X641940Y5421640D01*
X647520Y5424480D01*
X652940Y5427600D01*
X658180Y5431020D01*
X663240Y5434700D01*
X668100Y5438640D01*
X672760Y5442820D01*
X676100Y5446100D01*
X680740Y5450980D01*
X685120Y5456079D01*
X689240Y5461400D01*
X693080Y5466940D01*
X696640Y5472640D01*
X699920Y5478520D01*
X702880Y5484560D01*
X705520Y5490740D01*
X706740Y5493880D01*
X708920Y5500240D01*
X710759Y5506720D01*
X712280Y5513280D01*
X712920Y5516580D01*
X713940Y5523220D01*
X714620Y5529920D01*
X714960Y5536640D01*
X714960Y5542960D01*
X714620Y5548880D01*
X714340Y5551840D01*
X713500Y5557700D01*
X712340Y5563520D01*
X710860Y5569260D01*
X709060Y5574920D01*
X706960Y5580460D01*
X704539Y5585860D01*
X701820Y5591140D01*
X698800Y5596240D01*
X695500Y5601180D01*
X691940Y5605900D01*
X688120Y5610440D01*
X684040Y5614740D01*
X639560Y5659240D01*
X569960Y5677480D01*
G37*
D10*
G01*
X4675000Y4220000D03*
G01*
X4965000Y4225000D03*
G01*
X4415000Y3965000D03*
G01*
X4705000Y3970000D03*
G01*
X2660000Y3674989D03*
G01*
X2960000Y3674989D03*
G01*
X1765000Y3674989D03*
G01*
X2065000Y3674989D03*
G01*
X2195000Y3674989D03*
G01*
X2495000Y3674989D03*
G01*
X700000Y4440000D03*
G01*
X990000Y4445000D03*
G01*
X970000Y4165000D03*
G01*
X1260000Y4170000D03*
G01*
X700000Y3890000D03*
G01*
X990000Y3895000D03*
G01*
X425000Y4170000D03*
G01*
X715000Y4175000D03*
G01*
X695000Y5800000D03*
G01*
X985000Y5805000D03*
G01*
X970000Y5530000D03*
G01*
X1260000Y5535000D03*
G01*
X695000Y5255000D03*
G01*
X985000Y5260000D03*
G01*
X425000Y5535000D03*
G01*
X715000Y5540000D03*
D11*
G01*
X2177599Y4276378D03*
G01*
X2252400Y4276378D03*
G01*
X2215000Y4373622D03*
G01*
X2312599Y4276378D03*
G01*
X2387400Y4276378D03*
G01*
X2350000Y4373622D03*
G01*
X2452599Y4276378D03*
G01*
X2527400Y4276378D03*
G01*
X2490000Y4373622D03*
D12*
G01*
X2170627Y4185000D03*
G01*
X2249372Y4185000D03*
D13*
G01*
X2215000Y4630628D03*
G01*
X2215000Y4709371D03*
G01*
X2350000Y4630628D03*
G01*
X2350000Y4709371D03*
D12*
G01*
X2315627Y4185000D03*
G01*
X2394372Y4185000D03*
D13*
G01*
X2485000Y4630628D03*
G01*
X2485000Y4709371D03*
D12*
G01*
X2460627Y4185000D03*
G01*
X2539372Y4185000D03*

G04 SwanSong USB replacement circuitry*
%LPC*%
G36*
G01*
X2580000Y4130000D02*
X2580000Y4750000D01*
X2120000Y4750000D01*
X2120000Y4130000D01*
X2580000Y4130000D01*
G37*
%LPD*%
G36*
G01*
X4698406Y4667085D02*
X4698026Y4664785D01*
X4697988Y4664592D01*
X4697459Y4662321D01*
X4697408Y4662132D01*
X4696731Y4659901D01*
X4696668Y4659715D01*
X4695847Y4657533D01*
X4695771Y4657351D01*
X4694809Y4655228D01*
X4694722Y4655052D01*
X4693623Y4652995D01*
X4693525Y4652825D01*
X4692294Y4650845D01*
X4692185Y4650682D01*
X4690827Y4648787D01*
X4690707Y4648631D01*
X4689228Y4646829D01*
X4689099Y4646681D01*
X4687505Y4644979D01*
X4687366Y4644841D01*
X4685664Y4643247D01*
X4685517Y4643117D01*
X4683714Y4641638D01*
X4683559Y4641519D01*
X4681663Y4640161D01*
X4681500Y4640052D01*
X4679520Y4638820D01*
X4679350Y4638722D01*
X4677294Y4637623D01*
X4677118Y4637536D01*
X4674994Y4636574D01*
X4674813Y4636499D01*
X4672631Y4635678D01*
X4672445Y4635615D01*
X4670214Y4634938D01*
X4670024Y4634887D01*
X4667753Y4634357D01*
X4667561Y4634319D01*
X4665260Y4633939D01*
X4665066Y4633914D01*
X4662745Y4633685D01*
X4662550Y4633672D01*
X4660219Y4633596D01*
X4660023Y4633596D01*
X4657693Y4633672D01*
X4657497Y4633685D01*
X4655176Y4633914D01*
X4654982Y4633939D01*
X4652681Y4634319D01*
X4652489Y4634357D01*
X4650218Y4634887D01*
X4650029Y4634938D01*
X4647797Y4635615D01*
X4647611Y4635678D01*
X4645429Y4636499D01*
X4645248Y4636574D01*
X4643124Y4637536D01*
X4642948Y4637623D01*
X4640892Y4638722D01*
X4640722Y4638820D01*
X4638742Y4640052D01*
X4638579Y4640161D01*
X4636684Y4641519D01*
X4636528Y4641638D01*
X4634725Y4643117D01*
X4634578Y4643247D01*
X4632876Y4644841D01*
X4632737Y4644979D01*
X4631143Y4646681D01*
X4631014Y4646829D01*
X4629535Y4648631D01*
X4629415Y4648787D01*
X4628057Y4650682D01*
X4627948Y4650845D01*
X4626717Y4652825D01*
X4626619Y4652995D01*
X4625520Y4655052D01*
X4625433Y4655228D01*
X4624471Y4657351D01*
X4624396Y4657533D01*
X4623574Y4659715D01*
X4623511Y4659901D01*
X4622834Y4662132D01*
X4622784Y4662321D01*
X4622254Y4664592D01*
X4622216Y4664785D01*
X4621836Y4667085D01*
X4621810Y4667280D01*
X4621582Y4669600D01*
X4621569Y4669796D01*
X4621493Y4672126D01*
X4621493Y4672323D01*
X4621569Y4674653D01*
X4621582Y4674849D01*
X4621810Y4677169D01*
X4621836Y4677364D01*
X4622216Y4679664D01*
X4622254Y4679857D01*
X4622784Y4682127D01*
X4622834Y4682317D01*
X4623511Y4684548D01*
X4623574Y4684734D01*
X4624396Y4686916D01*
X4624471Y4687098D01*
X4625433Y4689221D01*
X4625520Y4689397D01*
X4626619Y4691454D01*
X4626717Y4691624D01*
X4627948Y4693604D01*
X4628057Y4693767D01*
X4629415Y4695662D01*
X4629535Y4695818D01*
X4631014Y4697620D01*
X4631143Y4697768D01*
X4632737Y4699469D01*
X4632876Y4699608D01*
X4634578Y4701202D01*
X4634725Y4701331D01*
X4636528Y4702811D01*
X4636684Y4702930D01*
X4638579Y4704288D01*
X4638742Y4704397D01*
X4640722Y4705628D01*
X4640892Y4705727D01*
X4642948Y4706826D01*
X4643124Y4706913D01*
X4645248Y4707875D01*
X4645429Y4707950D01*
X4647611Y4708771D01*
X4647797Y4708834D01*
X4650029Y4709511D01*
X4650218Y4709562D01*
X4652489Y4710091D01*
X4652681Y4710130D01*
X4654982Y4710509D01*
X4655176Y4710535D01*
X4657497Y4710764D01*
X4657693Y4710776D01*
X4660023Y4710853D01*
X4660219Y4710853D01*
X4662550Y4710776D01*
X4662745Y4710764D01*
X4665066Y4710535D01*
X4665260Y4710509D01*
X4667561Y4710130D01*
X4667753Y4710091D01*
X4670024Y4709562D01*
X4670214Y4709511D01*
X4672445Y4708834D01*
X4672631Y4708771D01*
X4674813Y4707950D01*
X4674994Y4707875D01*
X4677118Y4706913D01*
X4677294Y4706826D01*
X4679350Y4705727D01*
X4679520Y4705628D01*
X4681500Y4704397D01*
X4681663Y4704288D01*
X4683559Y4702930D01*
X4683714Y4702811D01*
X4685517Y4701331D01*
X4685664Y4701202D01*
X4687366Y4699608D01*
X4687505Y4699469D01*
X4689099Y4697768D01*
X4689228Y4697620D01*
X4690707Y4695818D01*
X4690827Y4695662D01*
X4692185Y4693767D01*
X4692294Y4693604D01*
X4693525Y4691624D01*
X4693623Y4691454D01*
X4694722Y4689397D01*
X4694809Y4689221D01*
X4695771Y4687098D01*
X4695847Y4686916D01*
X4696668Y4684734D01*
X4696731Y4684548D01*
X4697408Y4682317D01*
X4697459Y4682127D01*
X4697988Y4679857D01*
X4698026Y4679664D01*
X4698406Y4677364D01*
X4698432Y4677169D01*
X4698660Y4674849D01*
X4698673Y4674653D01*
X4698749Y4672323D01*
X4698749Y4672126D01*
X4698673Y4669796D01*
X4698660Y4669600D01*
X4698432Y4667280D01*
X4698406Y4667085D01*
G37*
G36*
G01*
X4698406Y5007636D02*
X4698026Y5005336D01*
X4697988Y5005143D01*
X4697459Y5002873D01*
X4697408Y5002683D01*
X4696731Y5000452D01*
X4696668Y5000266D01*
X4695847Y4998084D01*
X4695771Y4997902D01*
X4694809Y4995779D01*
X4694722Y4995603D01*
X4693623Y4993546D01*
X4693525Y4993376D01*
X4692294Y4991396D01*
X4692185Y4991233D01*
X4690827Y4989338D01*
X4690707Y4989182D01*
X4689228Y4987380D01*
X4689099Y4987232D01*
X4687505Y4985531D01*
X4687366Y4985392D01*
X4685664Y4983798D01*
X4685517Y4983669D01*
X4683714Y4982189D01*
X4683559Y4982070D01*
X4681663Y4980712D01*
X4681500Y4980603D01*
X4679520Y4979372D01*
X4679350Y4979273D01*
X4677294Y4978174D01*
X4677118Y4978087D01*
X4674994Y4977125D01*
X4674813Y4977050D01*
X4672631Y4976229D01*
X4672445Y4976166D01*
X4670214Y4975489D01*
X4670024Y4975438D01*
X4667753Y4974909D01*
X4667561Y4974870D01*
X4665260Y4974491D01*
X4665066Y4974465D01*
X4662745Y4974236D01*
X4662550Y4974224D01*
X4660219Y4974147D01*
X4660023Y4974147D01*
X4657693Y4974224D01*
X4657497Y4974236D01*
X4655176Y4974465D01*
X4654982Y4974491D01*
X4652681Y4974870D01*
X4652489Y4974909D01*
X4650218Y4975438D01*
X4650029Y4975489D01*
X4647797Y4976166D01*
X4647611Y4976229D01*
X4645429Y4977050D01*
X4645248Y4977125D01*
X4643124Y4978087D01*
X4642948Y4978174D01*
X4640892Y4979273D01*
X4640722Y4979372D01*
X4638742Y4980603D01*
X4638579Y4980712D01*
X4636684Y4982070D01*
X4636528Y4982189D01*
X4634725Y4983669D01*
X4634578Y4983798D01*
X4632876Y4985392D01*
X4632737Y4985531D01*
X4631143Y4987232D01*
X4631014Y4987380D01*
X4629535Y4989182D01*
X4629415Y4989338D01*
X4628057Y4991233D01*
X4627948Y4991396D01*
X4626717Y4993376D01*
X4626619Y4993546D01*
X4625520Y4995603D01*
X4625433Y4995779D01*
X4624471Y4997902D01*
X4624396Y4998084D01*
X4623574Y5000266D01*
X4623511Y5000452D01*
X4622834Y5002683D01*
X4622784Y5002873D01*
X4622254Y5005143D01*
X4622216Y5005336D01*
X4621836Y5007636D01*
X4621810Y5007831D01*
X4621582Y5010151D01*
X4621569Y5010347D01*
X4621493Y5012677D01*
X4621493Y5012874D01*
X4621569Y5015204D01*
X4621582Y5015400D01*
X4621810Y5017720D01*
X4621836Y5017915D01*
X4622216Y5020215D01*
X4622254Y5020408D01*
X4622784Y5022679D01*
X4622834Y5022868D01*
X4623511Y5025099D01*
X4623574Y5025285D01*
X4624396Y5027467D01*
X4624471Y5027649D01*
X4625433Y5029772D01*
X4625520Y5029948D01*
X4626619Y5032005D01*
X4626717Y5032175D01*
X4627948Y5034155D01*
X4628057Y5034318D01*
X4629415Y5036213D01*
X4629535Y5036369D01*
X4631014Y5038171D01*
X4631143Y5038319D01*
X4632737Y5040021D01*
X4632876Y5040159D01*
X4634578Y5041753D01*
X4634725Y5041883D01*
X4636528Y5043362D01*
X4636684Y5043481D01*
X4638579Y5044839D01*
X4638742Y5044948D01*
X4640722Y5046180D01*
X4640892Y5046278D01*
X4642948Y5047377D01*
X4643124Y5047464D01*
X4645248Y5048426D01*
X4645429Y5048501D01*
X4647611Y5049322D01*
X4647797Y5049385D01*
X4650029Y5050062D01*
X4650218Y5050113D01*
X4652489Y5050643D01*
X4652681Y5050681D01*
X4654982Y5051061D01*
X4655176Y5051086D01*
X4657497Y5051315D01*
X4657693Y5051328D01*
X4660023Y5051404D01*
X4660219Y5051404D01*
X4662550Y5051328D01*
X4662745Y5051315D01*
X4665066Y5051086D01*
X4665260Y5051061D01*
X4667561Y5050681D01*
X4667753Y5050643D01*
X4670024Y5050113D01*
X4670214Y5050062D01*
X4672445Y5049385D01*
X4672631Y5049322D01*
X4674813Y5048501D01*
X4674994Y5048426D01*
X4677118Y5047464D01*
X4677294Y5047377D01*
X4679350Y5046278D01*
X4679520Y5046180D01*
X4681500Y5044948D01*
X4681663Y5044839D01*
X4683559Y5043481D01*
X4683714Y5043362D01*
X4685517Y5041883D01*
X4685664Y5041753D01*
X4687366Y5040159D01*
X4687505Y5040021D01*
X4689099Y5038319D01*
X4689228Y5038171D01*
X4690707Y5036369D01*
X4690827Y5036213D01*
X4692185Y5034318D01*
X4692294Y5034155D01*
X4693525Y5032175D01*
X4693623Y5032005D01*
X4694722Y5029948D01*
X4694809Y5029772D01*
X4695771Y5027649D01*
X4695847Y5027467D01*
X4696668Y5025285D01*
X4696731Y5025099D01*
X4697408Y5022868D01*
X4697459Y5022679D01*
X4697988Y5020408D01*
X4698026Y5020215D01*
X4698406Y5017915D01*
X4698432Y5017720D01*
X4698660Y5015400D01*
X4698673Y5015204D01*
X4698749Y5012874D01*
X4698749Y5012677D01*
X4698673Y5010347D01*
X4698660Y5010151D01*
X4698432Y5007831D01*
X4698406Y5007636D01*
G37*
G36*
G01*
X4535830Y4957636D02*
X4535804Y4957441D01*
X4535666Y4956603D01*
X4535628Y4956410D01*
X4535435Y4955582D01*
X4535384Y4955393D01*
X4535137Y4954579D01*
X4535074Y4954393D01*
X4534774Y4953597D01*
X4534699Y4953416D01*
X4534348Y4952642D01*
X4534262Y4952466D01*
X4533861Y4951716D01*
X4533763Y4951546D01*
X4533314Y4950824D01*
X4533205Y4950661D01*
X4532709Y4949969D01*
X4532590Y4949814D01*
X4532051Y4949157D01*
X4531921Y4949009D01*
X4531340Y4948388D01*
X4531201Y4948250D01*
X4530581Y4947668D01*
X4530433Y4947539D01*
X4529776Y4947000D01*
X4529620Y4946880D01*
X4528929Y4946385D01*
X4528766Y4946276D01*
X4528044Y4945827D01*
X4527874Y4945729D01*
X4527124Y4945328D01*
X4526948Y4945241D01*
X4526174Y4944890D01*
X4525992Y4944815D01*
X4525197Y4944516D01*
X4525011Y4944453D01*
X4524197Y4944206D01*
X4524007Y4944155D01*
X4523179Y4943962D01*
X4522987Y4943924D01*
X4522148Y4943785D01*
X4521953Y4943759D01*
X4521107Y4943676D01*
X4520911Y4943663D01*
X4520062Y4943635D01*
X4519865Y4943635D01*
X4519016Y4943663D01*
X4518820Y4943676D01*
X4517974Y4943759D01*
X4517779Y4943785D01*
X4516940Y4943924D01*
X4516748Y4943962D01*
X4515920Y4944155D01*
X4515730Y4944206D01*
X4514917Y4944453D01*
X4514731Y4944516D01*
X4513935Y4944815D01*
X4513754Y4944890D01*
X4512979Y4945241D01*
X4512803Y4945328D01*
X4512053Y4945729D01*
X4511883Y4945827D01*
X4511161Y4946276D01*
X4510998Y4946385D01*
X4510307Y4946880D01*
X4510151Y4947000D01*
X4509494Y4947539D01*
X4509347Y4947668D01*
X4508726Y4948250D01*
X4508587Y4948388D01*
X4508006Y4949009D01*
X4507877Y4949157D01*
X4507337Y4949814D01*
X4507218Y4949969D01*
X4506722Y4950661D01*
X4506613Y4950824D01*
X4506164Y4951546D01*
X4506066Y4951716D01*
X4505666Y4952466D01*
X4505579Y4952642D01*
X4505228Y4953416D01*
X4505153Y4953597D01*
X4504853Y4954393D01*
X4504790Y4954579D01*
X4504543Y4955393D01*
X4504493Y4955582D01*
X4504299Y4956410D01*
X4504261Y4956603D01*
X4504123Y4957441D01*
X4504097Y4957636D01*
X4504014Y4958482D01*
X4504001Y4958678D01*
X4503973Y4959528D01*
X4503973Y4959724D01*
X4504001Y4960574D01*
X4504014Y4960770D01*
X4504097Y4961616D01*
X4504123Y4961810D01*
X4504261Y4962649D01*
X4504299Y4962842D01*
X4504493Y4963670D01*
X4504543Y4963859D01*
X4504790Y4964673D01*
X4504853Y4964859D01*
X4505153Y4965655D01*
X4505228Y4965836D01*
X4505377Y4966166D01*
X4504394Y4966612D01*
X4504218Y4966699D01*
X4501423Y4968192D01*
X4501253Y4968291D01*
X4498562Y4969964D01*
X4498399Y4970073D01*
X4495823Y4971919D01*
X4495668Y4972038D01*
X4493218Y4974049D01*
X4493070Y4974178D01*
X4490758Y4976344D01*
X4490619Y4976483D01*
X4488453Y4978796D01*
X4488323Y4978943D01*
X4486313Y4981393D01*
X4486193Y4981549D01*
X4484348Y4984125D01*
X4484239Y4984288D01*
X4482565Y4986979D01*
X4482467Y4987149D01*
X4480973Y4989943D01*
X4480886Y4990120D01*
X4479579Y4993006D01*
X4479503Y4993187D01*
X4478387Y4996153D01*
X4478324Y4996339D01*
X4477404Y4999371D01*
X4477353Y4999561D01*
X4476634Y5002647D01*
X4476596Y5002840D01*
X4476079Y5005966D01*
X4476054Y5006161D01*
X4475743Y5009314D01*
X4475730Y5009510D01*
X4475627Y5012677D01*
X4475627Y5012874D01*
X4475730Y5016041D01*
X4475743Y5016237D01*
X4476054Y5019390D01*
X4476079Y5019585D01*
X4476596Y5022712D01*
X4476634Y5022904D01*
X4477353Y5025990D01*
X4477404Y5026180D01*
X4478324Y5029212D01*
X4478387Y5029398D01*
X4479503Y5032364D01*
X4479579Y5032545D01*
X4480886Y5035432D01*
X4480973Y5035608D01*
X4482467Y5038402D01*
X4482565Y5038572D01*
X4484239Y5041263D01*
X4484348Y5041427D01*
X4486193Y5044002D01*
X4486313Y5044158D01*
X4488323Y5046608D01*
X4488453Y5046755D01*
X4490619Y5049068D01*
X4490758Y5049207D01*
X4493070Y5051373D01*
X4493218Y5051503D01*
X4495668Y5053513D01*
X4495823Y5053632D01*
X4498399Y5055478D01*
X4498562Y5055587D01*
X4501253Y5057261D01*
X4501423Y5057359D01*
X4504218Y5058853D01*
X4504394Y5058939D01*
X4507281Y5060247D01*
X4507462Y5060322D01*
X4510428Y5061439D01*
X4510614Y5061502D01*
X4513646Y5062422D01*
X4513836Y5062472D01*
X4516922Y5063192D01*
X4517114Y5063230D01*
X4520241Y5063746D01*
X4520435Y5063772D01*
X4523589Y5064083D01*
X4523785Y5064095D01*
X4526952Y5064199D01*
X4527148Y5064199D01*
X4530316Y5064095D01*
X4530511Y5064083D01*
X4533665Y5063772D01*
X4533860Y5063746D01*
X4536986Y5063230D01*
X4537179Y5063192D01*
X4540265Y5062472D01*
X4540454Y5062422D01*
X4543487Y5061502D01*
X4543673Y5061439D01*
X4546638Y5060322D01*
X4546820Y5060247D01*
X4549706Y5058939D01*
X4549882Y5058853D01*
X4552677Y5057359D01*
X4552847Y5057261D01*
X4555538Y5055587D01*
X4555701Y5055478D01*
X4558277Y5053632D01*
X4558433Y5053513D01*
X4560882Y5051503D01*
X4561030Y5051373D01*
X4563343Y5049207D01*
X4563482Y5049068D01*
X4565648Y5046755D01*
X4565777Y5046608D01*
X4567788Y5044158D01*
X4567907Y5044002D01*
X4569753Y5041427D01*
X4569862Y5041263D01*
X4571535Y5038572D01*
X4571633Y5038402D01*
X4573127Y5035608D01*
X4573214Y5035432D01*
X4574522Y5032545D01*
X4574597Y5032364D01*
X4575713Y5029398D01*
X4575776Y5029212D01*
X4576696Y5026180D01*
X4576747Y5025990D01*
X4577467Y5022904D01*
X4577505Y5022712D01*
X4578021Y5019585D01*
X4578047Y5019390D01*
X4578357Y5016237D01*
X4578370Y5016041D01*
X4578474Y5012874D01*
X4578474Y5012677D01*
X4578370Y5009510D01*
X4578357Y5009314D01*
X4578047Y5006161D01*
X4578021Y5005966D01*
X4577505Y5002840D01*
X4577467Y5002647D01*
X4576747Y4999561D01*
X4576696Y4999371D01*
X4575776Y4996339D01*
X4575713Y4996153D01*
X4574597Y4993187D01*
X4574522Y4993006D01*
X4573214Y4990120D01*
X4573127Y4989943D01*
X4571633Y4987149D01*
X4571535Y4986979D01*
X4569862Y4984288D01*
X4569753Y4984125D01*
X4567907Y4981549D01*
X4567788Y4981393D01*
X4565777Y4978943D01*
X4565648Y4978796D01*
X4563482Y4976483D01*
X4563343Y4976344D01*
X4561030Y4974178D01*
X4560882Y4974049D01*
X4558433Y4972038D01*
X4558277Y4971919D01*
X4555701Y4970073D01*
X4555538Y4969964D01*
X4552847Y4968291D01*
X4552677Y4968192D01*
X4549882Y4966699D01*
X4549706Y4966612D01*
X4546820Y4965304D01*
X4546638Y4965229D01*
X4543673Y4964113D01*
X4543487Y4964049D01*
X4540454Y4963130D01*
X4540265Y4963079D01*
X4537179Y4962359D01*
X4536986Y4962321D01*
X4535754Y4962117D01*
X4535804Y4961810D01*
X4535830Y4961616D01*
X4535913Y4960770D01*
X4535926Y4960574D01*
X4535954Y4959724D01*
X4535954Y4959528D01*
X4535926Y4958678D01*
X4535913Y4958482D01*
X4535830Y4957636D01*
G37*
G36*
G01*
X4578021Y4665415D02*
X4577505Y4662288D01*
X4577467Y4662096D01*
X4576747Y4659010D01*
X4576696Y4658820D01*
X4575776Y4655788D01*
X4575713Y4655602D01*
X4574597Y4652636D01*
X4574522Y4652455D01*
X4573214Y4649568D01*
X4573127Y4649392D01*
X4571633Y4646598D01*
X4571535Y4646428D01*
X4569862Y4643737D01*
X4569753Y4643573D01*
X4567907Y4640998D01*
X4567788Y4640842D01*
X4565777Y4638392D01*
X4565648Y4638245D01*
X4563482Y4635932D01*
X4563343Y4635793D01*
X4561030Y4633627D01*
X4560882Y4633497D01*
X4558433Y4631487D01*
X4558277Y4631368D01*
X4555701Y4629522D01*
X4555538Y4629413D01*
X4552847Y4627739D01*
X4552677Y4627641D01*
X4549882Y4626147D01*
X4549706Y4626061D01*
X4546820Y4624753D01*
X4546638Y4624678D01*
X4543673Y4623561D01*
X4543487Y4623498D01*
X4540454Y4622578D01*
X4540265Y4622528D01*
X4537179Y4621808D01*
X4536986Y4621770D01*
X4533860Y4621254D01*
X4533665Y4621228D01*
X4530511Y4620917D01*
X4530316Y4620905D01*
X4527148Y4620801D01*
X4526952Y4620801D01*
X4523785Y4620905D01*
X4523589Y4620917D01*
X4520435Y4621228D01*
X4520241Y4621254D01*
X4517114Y4621770D01*
X4516922Y4621808D01*
X4513836Y4622528D01*
X4513646Y4622578D01*
X4510614Y4623498D01*
X4510428Y4623561D01*
X4507462Y4624678D01*
X4507281Y4624753D01*
X4504394Y4626061D01*
X4504218Y4626147D01*
X4501423Y4627641D01*
X4501253Y4627739D01*
X4498562Y4629413D01*
X4498399Y4629522D01*
X4495823Y4631368D01*
X4495668Y4631487D01*
X4493218Y4633497D01*
X4493070Y4633627D01*
X4490758Y4635793D01*
X4490619Y4635932D01*
X4488453Y4638245D01*
X4488323Y4638392D01*
X4486313Y4640842D01*
X4486193Y4640998D01*
X4484348Y4643573D01*
X4484239Y4643737D01*
X4482565Y4646428D01*
X4482467Y4646598D01*
X4480973Y4649392D01*
X4480886Y4649568D01*
X4479579Y4652455D01*
X4479503Y4652636D01*
X4478387Y4655602D01*
X4478324Y4655788D01*
X4477404Y4658820D01*
X4477353Y4659010D01*
X4476634Y4662096D01*
X4476596Y4662288D01*
X4476079Y4665415D01*
X4476054Y4665610D01*
X4475743Y4668763D01*
X4475730Y4668959D01*
X4475627Y4672126D01*
X4475627Y4672323D01*
X4475730Y4675490D01*
X4475743Y4675686D01*
X4476054Y4678839D01*
X4476079Y4679034D01*
X4476596Y4682160D01*
X4476634Y4682353D01*
X4477353Y4685439D01*
X4477404Y4685629D01*
X4478324Y4688661D01*
X4478387Y4688847D01*
X4479503Y4691813D01*
X4479579Y4691994D01*
X4480886Y4694880D01*
X4480973Y4695057D01*
X4482467Y4697851D01*
X4482565Y4698021D01*
X4484239Y4700712D01*
X4484348Y4700875D01*
X4486193Y4703451D01*
X4486313Y4703607D01*
X4488323Y4706057D01*
X4488453Y4706204D01*
X4490619Y4708517D01*
X4490758Y4708656D01*
X4493070Y4710822D01*
X4493218Y4710951D01*
X4495668Y4712962D01*
X4495823Y4713081D01*
X4498399Y4714927D01*
X4498562Y4715036D01*
X4501253Y4716709D01*
X4501423Y4716808D01*
X4504218Y4718301D01*
X4504394Y4718388D01*
X4505377Y4718834D01*
X4505228Y4719164D01*
X4505153Y4719345D01*
X4504853Y4720141D01*
X4504790Y4720327D01*
X4504543Y4721141D01*
X4504493Y4721330D01*
X4504299Y4722158D01*
X4504261Y4722351D01*
X4504123Y4723190D01*
X4504097Y4723384D01*
X4504014Y4724230D01*
X4504001Y4724426D01*
X4503973Y4725276D01*
X4503973Y4725472D01*
X4504001Y4726322D01*
X4504014Y4726518D01*
X4504097Y4727364D01*
X4504123Y4727559D01*
X4504261Y4728397D01*
X4504299Y4728590D01*
X4504493Y4729418D01*
X4504543Y4729607D01*
X4504790Y4730421D01*
X4504853Y4730607D01*
X4505153Y4731403D01*
X4505228Y4731584D01*
X4505579Y4732358D01*
X4505666Y4732534D01*
X4506066Y4733284D01*
X4506164Y4733454D01*
X4506613Y4734176D01*
X4506722Y4734339D01*
X4507218Y4735031D01*
X4507337Y4735186D01*
X4507877Y4735843D01*
X4508006Y4735991D01*
X4508587Y4736612D01*
X4508726Y4736750D01*
X4509347Y4737332D01*
X4509494Y4737461D01*
X4510151Y4738000D01*
X4510307Y4738120D01*
X4510998Y4738615D01*
X4511161Y4738724D01*
X4511883Y4739173D01*
X4512053Y4739271D01*
X4512803Y4739672D01*
X4512979Y4739759D01*
X4513754Y4740110D01*
X4513935Y4740185D01*
X4514731Y4740484D01*
X4514917Y4740547D01*
X4515730Y4740794D01*
X4515920Y4740845D01*
X4516748Y4741038D01*
X4516940Y4741076D01*
X4517779Y4741215D01*
X4517974Y4741241D01*
X4518820Y4741324D01*
X4519016Y4741337D01*
X4519865Y4741365D01*
X4520062Y4741365D01*
X4520911Y4741337D01*
X4521107Y4741324D01*
X4521953Y4741241D01*
X4522148Y4741215D01*
X4522987Y4741076D01*
X4523179Y4741038D01*
X4524007Y4740845D01*
X4524197Y4740794D01*
X4525011Y4740547D01*
X4525197Y4740484D01*
X4525992Y4740185D01*
X4526174Y4740110D01*
X4526948Y4739759D01*
X4527124Y4739672D01*
X4527874Y4739271D01*
X4528044Y4739173D01*
X4528766Y4738724D01*
X4528929Y4738615D01*
X4529620Y4738120D01*
X4529776Y4738000D01*
X4530433Y4737461D01*
X4530581Y4737332D01*
X4531201Y4736750D01*
X4531340Y4736612D01*
X4531921Y4735991D01*
X4532051Y4735843D01*
X4532590Y4735186D01*
X4532709Y4735031D01*
X4533205Y4734339D01*
X4533314Y4734176D01*
X4533763Y4733454D01*
X4533861Y4733284D01*
X4534262Y4732534D01*
X4534348Y4732358D01*
X4534699Y4731584D01*
X4534774Y4731403D01*
X4535074Y4730607D01*
X4535137Y4730421D01*
X4535384Y4729607D01*
X4535435Y4729418D01*
X4535628Y4728590D01*
X4535666Y4728397D01*
X4535804Y4727559D01*
X4535830Y4727364D01*
X4535913Y4726518D01*
X4535926Y4726322D01*
X4535954Y4725472D01*
X4535954Y4725276D01*
X4535926Y4724426D01*
X4535913Y4724230D01*
X4535830Y4723384D01*
X4535804Y4723190D01*
X4535754Y4722883D01*
X4536986Y4722679D01*
X4537179Y4722641D01*
X4540265Y4721921D01*
X4540454Y4721870D01*
X4543487Y4720951D01*
X4543673Y4720887D01*
X4546638Y4719771D01*
X4546820Y4719696D01*
X4549706Y4718388D01*
X4549882Y4718301D01*
X4552677Y4716808D01*
X4552847Y4716709D01*
X4555538Y4715036D01*
X4555701Y4714927D01*
X4558277Y4713081D01*
X4558433Y4712962D01*
X4560882Y4710951D01*
X4561030Y4710822D01*
X4563343Y4708656D01*
X4563482Y4708517D01*
X4565648Y4706204D01*
X4565777Y4706057D01*
X4567788Y4703607D01*
X4567907Y4703451D01*
X4569753Y4700875D01*
X4569862Y4700712D01*
X4571535Y4698021D01*
X4571633Y4697851D01*
X4573127Y4695057D01*
X4573214Y4694880D01*
X4574522Y4691994D01*
X4574597Y4691813D01*
X4575713Y4688847D01*
X4575776Y4688661D01*
X4576696Y4685629D01*
X4576747Y4685439D01*
X4577467Y4682353D01*
X4577505Y4682160D01*
X4578021Y4679034D01*
X4578047Y4678839D01*
X4578357Y4675686D01*
X4578370Y4675490D01*
X4578474Y4672323D01*
X4578474Y4672126D01*
X4578370Y4668959D01*
X4578357Y4668763D01*
X4578047Y4665610D01*
X4578021Y4665415D01*
G37*
G36*
G01*
X4535804Y4756654D02*
X4535666Y4755815D01*
X4535628Y4755623D01*
X4535435Y4754795D01*
X4535384Y4754605D01*
X4535137Y4753792D01*
X4535074Y4753606D01*
X4534774Y4752810D01*
X4534699Y4752629D01*
X4534348Y4751854D01*
X4534262Y4751678D01*
X4533861Y4750928D01*
X4533763Y4750758D01*
X4533314Y4750036D01*
X4533205Y4749873D01*
X4532709Y4749182D01*
X4532590Y4749026D01*
X4532051Y4748369D01*
X4531921Y4748222D01*
X4531340Y4747601D01*
X4531201Y4747462D01*
X4530581Y4746881D01*
X4530433Y4746752D01*
X4529776Y4746212D01*
X4529620Y4746093D01*
X4528929Y4745597D01*
X4528766Y4745488D01*
X4528044Y4745039D01*
X4527874Y4744941D01*
X4527124Y4744541D01*
X4526948Y4744454D01*
X4526174Y4744103D01*
X4525992Y4744028D01*
X4525197Y4743728D01*
X4525011Y4743665D01*
X4524197Y4743418D01*
X4524007Y4743368D01*
X4523179Y4743174D01*
X4522987Y4743136D01*
X4522148Y4742998D01*
X4521953Y4742972D01*
X4521107Y4742889D01*
X4520911Y4742876D01*
X4520062Y4742848D01*
X4519865Y4742848D01*
X4519016Y4742876D01*
X4518820Y4742889D01*
X4517974Y4742972D01*
X4517779Y4742998D01*
X4516940Y4743136D01*
X4516748Y4743174D01*
X4515920Y4743368D01*
X4515730Y4743418D01*
X4514917Y4743665D01*
X4514731Y4743728D01*
X4513935Y4744028D01*
X4513754Y4744103D01*
X4512979Y4744454D01*
X4512803Y4744541D01*
X4512053Y4744941D01*
X4511883Y4745039D01*
X4511161Y4745488D01*
X4510998Y4745597D01*
X4510307Y4746093D01*
X4510151Y4746212D01*
X4509494Y4746752D01*
X4509347Y4746881D01*
X4508726Y4747462D01*
X4508587Y4747601D01*
X4508006Y4748222D01*
X4507877Y4748369D01*
X4507337Y4749026D01*
X4507218Y4749182D01*
X4506722Y4749873D01*
X4506613Y4750036D01*
X4506164Y4750758D01*
X4506066Y4750928D01*
X4505666Y4751678D01*
X4505579Y4751854D01*
X4505228Y4752629D01*
X4505153Y4752810D01*
X4504853Y4753606D01*
X4504790Y4753792D01*
X4504543Y4754605D01*
X4504493Y4754795D01*
X4504299Y4755623D01*
X4504261Y4755815D01*
X4504123Y4756654D01*
X4504097Y4756849D01*
X4504014Y4757695D01*
X4504001Y4757891D01*
X4503973Y4758740D01*
X4503973Y4758937D01*
X4504001Y4759786D01*
X4504014Y4759982D01*
X4504097Y4760828D01*
X4504123Y4761023D01*
X4504261Y4761862D01*
X4504299Y4762054D01*
X4504493Y4762882D01*
X4504543Y4763072D01*
X4504790Y4763886D01*
X4504853Y4764072D01*
X4505153Y4764867D01*
X4505228Y4765049D01*
X4505579Y4765823D01*
X4505666Y4765999D01*
X4506066Y4766749D01*
X4506164Y4766919D01*
X4506613Y4767641D01*
X4506722Y4767804D01*
X4507218Y4768495D01*
X4507337Y4768651D01*
X4507877Y4769308D01*
X4508006Y4769456D01*
X4508587Y4770076D01*
X4508726Y4770215D01*
X4509347Y4770796D01*
X4509494Y4770926D01*
X4510151Y4771465D01*
X4510307Y4771584D01*
X4510998Y4772080D01*
X4511161Y4772189D01*
X4511883Y4772638D01*
X4512053Y4772736D01*
X4512803Y4773137D01*
X4512979Y4773223D01*
X4513754Y4773574D01*
X4513935Y4773649D01*
X4514731Y4773949D01*
X4514917Y4774012D01*
X4515730Y4774259D01*
X4515920Y4774310D01*
X4516748Y4774503D01*
X4516940Y4774541D01*
X4517779Y4774679D01*
X4517974Y4774705D01*
X4518820Y4774788D01*
X4519016Y4774801D01*
X4519865Y4774829D01*
X4520062Y4774829D01*
X4520911Y4774801D01*
X4521107Y4774788D01*
X4521953Y4774705D01*
X4522148Y4774679D01*
X4522987Y4774541D01*
X4523179Y4774503D01*
X4524007Y4774310D01*
X4524197Y4774259D01*
X4525011Y4774012D01*
X4525197Y4773949D01*
X4525992Y4773649D01*
X4526174Y4773574D01*
X4526948Y4773223D01*
X4527124Y4773137D01*
X4527874Y4772736D01*
X4528044Y4772638D01*
X4528766Y4772189D01*
X4528929Y4772080D01*
X4529620Y4771584D01*
X4529776Y4771465D01*
X4530433Y4770926D01*
X4530581Y4770796D01*
X4531201Y4770215D01*
X4531340Y4770076D01*
X4531921Y4769456D01*
X4532051Y4769308D01*
X4532590Y4768651D01*
X4532709Y4768495D01*
X4533205Y4767804D01*
X4533314Y4767641D01*
X4533763Y4766919D01*
X4533861Y4766749D01*
X4534262Y4765999D01*
X4534348Y4765823D01*
X4534699Y4765049D01*
X4534774Y4764867D01*
X4535074Y4764072D01*
X4535137Y4763886D01*
X4535384Y4763072D01*
X4535435Y4762882D01*
X4535628Y4762054D01*
X4535666Y4761862D01*
X4535804Y4761023D01*
X4535830Y4760828D01*
X4535913Y4759982D01*
X4535926Y4759786D01*
X4535954Y4758937D01*
X4535954Y4758740D01*
X4535926Y4757891D01*
X4535913Y4757695D01*
X4535830Y4756849D01*
X4535804Y4756654D01*
G37*
G36*
G01*
X4535804Y4790119D02*
X4535666Y4789280D01*
X4535628Y4789087D01*
X4535435Y4788259D01*
X4535384Y4788070D01*
X4535137Y4787256D01*
X4535074Y4787070D01*
X4534774Y4786275D01*
X4534699Y4786093D01*
X4534348Y4785319D01*
X4534262Y4785143D01*
X4533861Y4784393D01*
X4533763Y4784223D01*
X4533314Y4783501D01*
X4533205Y4783338D01*
X4532709Y4782647D01*
X4532590Y4782491D01*
X4532051Y4781834D01*
X4531921Y4781686D01*
X4531340Y4781066D01*
X4531201Y4780927D01*
X4530581Y4780346D01*
X4530433Y4780216D01*
X4529776Y4779677D01*
X4529620Y4779557D01*
X4528929Y4779062D01*
X4528766Y4778953D01*
X4528044Y4778504D01*
X4527874Y4778406D01*
X4527124Y4778005D01*
X4526948Y4777918D01*
X4526174Y4777567D01*
X4525992Y4777492D01*
X4525197Y4777193D01*
X4525011Y4777130D01*
X4524197Y4776883D01*
X4524007Y4776832D01*
X4523179Y4776639D01*
X4522987Y4776601D01*
X4522148Y4776462D01*
X4521953Y4776437D01*
X4521107Y4776353D01*
X4520911Y4776340D01*
X4520062Y4776313D01*
X4519865Y4776313D01*
X4519016Y4776340D01*
X4518820Y4776353D01*
X4517974Y4776437D01*
X4517779Y4776462D01*
X4516940Y4776601D01*
X4516748Y4776639D01*
X4515920Y4776832D01*
X4515730Y4776883D01*
X4514917Y4777130D01*
X4514731Y4777193D01*
X4513935Y4777492D01*
X4513754Y4777567D01*
X4512979Y4777918D01*
X4512803Y4778005D01*
X4512053Y4778406D01*
X4511883Y4778504D01*
X4511161Y4778953D01*
X4510998Y4779062D01*
X4510307Y4779557D01*
X4510151Y4779677D01*
X4509494Y4780216D01*
X4509347Y4780346D01*
X4508726Y4780927D01*
X4508587Y4781066D01*
X4508006Y4781686D01*
X4507877Y4781834D01*
X4507337Y4782491D01*
X4507218Y4782647D01*
X4506722Y4783338D01*
X4506613Y4783501D01*
X4506164Y4784223D01*
X4506066Y4784393D01*
X4505666Y4785143D01*
X4505579Y4785319D01*
X4505228Y4786093D01*
X4505153Y4786275D01*
X4504853Y4787070D01*
X4504790Y4787256D01*
X4504543Y4788070D01*
X4504493Y4788259D01*
X4504299Y4789087D01*
X4504261Y4789280D01*
X4504123Y4790119D01*
X4504097Y4790313D01*
X4504014Y4791159D01*
X4504001Y4791355D01*
X4503973Y4792205D01*
X4503973Y4792401D01*
X4504001Y4793251D01*
X4504014Y4793447D01*
X4504097Y4794293D01*
X4504123Y4794488D01*
X4504261Y4795326D01*
X4504299Y4795519D01*
X4504493Y4796347D01*
X4504543Y4796537D01*
X4504790Y4797350D01*
X4504853Y4797536D01*
X4505153Y4798332D01*
X4505228Y4798513D01*
X4505579Y4799288D01*
X4505666Y4799464D01*
X4506066Y4800213D01*
X4506164Y4800383D01*
X4506613Y4801105D01*
X4506722Y4801269D01*
X4507218Y4801960D01*
X4507337Y4802115D01*
X4507877Y4802773D01*
X4508006Y4802920D01*
X4508587Y4803541D01*
X4508726Y4803680D01*
X4509347Y4804261D01*
X4509494Y4804390D01*
X4510151Y4804930D01*
X4510307Y4805049D01*
X4510998Y4805544D01*
X4511161Y4805653D01*
X4511883Y4806102D01*
X4512053Y4806200D01*
X4512803Y4806601D01*
X4512979Y4806688D01*
X4513754Y4807039D01*
X4513935Y4807114D01*
X4514731Y4807414D01*
X4514917Y4807477D01*
X4515730Y4807723D01*
X4515920Y4807774D01*
X4516748Y4807967D01*
X4516940Y4808006D01*
X4517779Y4808144D01*
X4517974Y4808170D01*
X4518820Y4808253D01*
X4519016Y4808266D01*
X4519865Y4808294D01*
X4520062Y4808294D01*
X4520911Y4808266D01*
X4521107Y4808253D01*
X4521953Y4808170D01*
X4522148Y4808144D01*
X4522987Y4808006D01*
X4523179Y4807967D01*
X4524007Y4807774D01*
X4524197Y4807723D01*
X4525011Y4807477D01*
X4525197Y4807414D01*
X4525992Y4807114D01*
X4526174Y4807039D01*
X4526948Y4806688D01*
X4527124Y4806601D01*
X4527874Y4806200D01*
X4528044Y4806102D01*
X4528766Y4805653D01*
X4528929Y4805544D01*
X4529620Y4805049D01*
X4529776Y4804930D01*
X4530433Y4804390D01*
X4530581Y4804261D01*
X4531201Y4803680D01*
X4531340Y4803541D01*
X4531921Y4802920D01*
X4532051Y4802773D01*
X4532590Y4802115D01*
X4532709Y4801960D01*
X4533205Y4801269D01*
X4533314Y4801105D01*
X4533763Y4800383D01*
X4533861Y4800213D01*
X4534262Y4799464D01*
X4534348Y4799288D01*
X4534699Y4798513D01*
X4534774Y4798332D01*
X4535074Y4797536D01*
X4535137Y4797350D01*
X4535384Y4796537D01*
X4535435Y4796347D01*
X4535628Y4795519D01*
X4535666Y4795326D01*
X4535804Y4794488D01*
X4535830Y4794293D01*
X4535913Y4793447D01*
X4535926Y4793251D01*
X4535954Y4792401D01*
X4535954Y4792205D01*
X4535926Y4791355D01*
X4535913Y4791159D01*
X4535830Y4790313D01*
X4535804Y4790119D01*
G37*
G36*
G01*
X4535804Y4857048D02*
X4535666Y4856209D01*
X4535628Y4856016D01*
X4535435Y4855188D01*
X4535384Y4854999D01*
X4535137Y4854185D01*
X4535074Y4853999D01*
X4534774Y4853204D01*
X4534699Y4853022D01*
X4534348Y4852248D01*
X4534262Y4852072D01*
X4533861Y4851322D01*
X4533763Y4851152D01*
X4533314Y4850430D01*
X4533205Y4850267D01*
X4532709Y4849576D01*
X4532590Y4849420D01*
X4532051Y4848763D01*
X4531921Y4848615D01*
X4531340Y4847995D01*
X4531201Y4847856D01*
X4530581Y4847275D01*
X4530433Y4847145D01*
X4529776Y4846606D01*
X4529620Y4846486D01*
X4528929Y4845991D01*
X4528766Y4845882D01*
X4528044Y4845433D01*
X4527874Y4845335D01*
X4527124Y4844934D01*
X4526948Y4844847D01*
X4526174Y4844497D01*
X4525992Y4844421D01*
X4525197Y4844122D01*
X4525011Y4844059D01*
X4524197Y4843812D01*
X4524007Y4843761D01*
X4523179Y4843568D01*
X4522987Y4843530D01*
X4522148Y4843391D01*
X4521953Y4843366D01*
X4521107Y4843282D01*
X4520911Y4843270D01*
X4520062Y4843242D01*
X4519865Y4843242D01*
X4519016Y4843270D01*
X4518820Y4843282D01*
X4517974Y4843366D01*
X4517779Y4843391D01*
X4516940Y4843530D01*
X4516748Y4843568D01*
X4515920Y4843761D01*
X4515730Y4843812D01*
X4514917Y4844059D01*
X4514731Y4844122D01*
X4513935Y4844421D01*
X4513754Y4844497D01*
X4512979Y4844847D01*
X4512803Y4844934D01*
X4512053Y4845335D01*
X4511883Y4845433D01*
X4511161Y4845882D01*
X4510998Y4845991D01*
X4510307Y4846486D01*
X4510151Y4846606D01*
X4509494Y4847145D01*
X4509347Y4847275D01*
X4508726Y4847856D01*
X4508587Y4847995D01*
X4508006Y4848615D01*
X4507877Y4848763D01*
X4507337Y4849420D01*
X4507218Y4849576D01*
X4506722Y4850267D01*
X4506613Y4850430D01*
X4506164Y4851152D01*
X4506066Y4851322D01*
X4505666Y4852072D01*
X4505579Y4852248D01*
X4505228Y4853022D01*
X4505153Y4853204D01*
X4504853Y4853999D01*
X4504790Y4854185D01*
X4504543Y4854999D01*
X4504493Y4855188D01*
X4504299Y4856016D01*
X4504261Y4856209D01*
X4504123Y4857048D01*
X4504097Y4857242D01*
X4504014Y4858089D01*
X4504001Y4858284D01*
X4503973Y4859134D01*
X4503973Y4859330D01*
X4504001Y4860180D01*
X4504014Y4860376D01*
X4504097Y4861222D01*
X4504123Y4861417D01*
X4504261Y4862256D01*
X4504299Y4862448D01*
X4504493Y4863276D01*
X4504543Y4863466D01*
X4504790Y4864279D01*
X4504853Y4864465D01*
X4505153Y4865261D01*
X4505228Y4865442D01*
X4505579Y4866217D01*
X4505666Y4866393D01*
X4506066Y4867143D01*
X4506164Y4867313D01*
X4506613Y4868035D01*
X4506722Y4868198D01*
X4507218Y4868889D01*
X4507337Y4869045D01*
X4507877Y4869702D01*
X4508006Y4869849D01*
X4508587Y4870470D01*
X4508726Y4870609D01*
X4509347Y4871190D01*
X4509494Y4871319D01*
X4510151Y4871859D01*
X4510307Y4871978D01*
X4510998Y4872473D01*
X4511161Y4872582D01*
X4511883Y4873031D01*
X4512053Y4873130D01*
X4512803Y4873530D01*
X4512979Y4873617D01*
X4513754Y4873968D01*
X4513935Y4874043D01*
X4514731Y4874343D01*
X4514917Y4874406D01*
X4515730Y4874653D01*
X4515920Y4874703D01*
X4516748Y4874896D01*
X4516940Y4874935D01*
X4517779Y4875073D01*
X4517974Y4875099D01*
X4518820Y4875182D01*
X4519016Y4875195D01*
X4519865Y4875223D01*
X4520062Y4875223D01*
X4520911Y4875195D01*
X4521107Y4875182D01*
X4521953Y4875099D01*
X4522148Y4875073D01*
X4522987Y4874935D01*
X4523179Y4874896D01*
X4524007Y4874703D01*
X4524197Y4874653D01*
X4525011Y4874406D01*
X4525197Y4874343D01*
X4525992Y4874043D01*
X4526174Y4873968D01*
X4526948Y4873617D01*
X4527124Y4873530D01*
X4527874Y4873130D01*
X4528044Y4873031D01*
X4528766Y4872582D01*
X4528929Y4872473D01*
X4529620Y4871978D01*
X4529776Y4871859D01*
X4530433Y4871319D01*
X4530581Y4871190D01*
X4531201Y4870609D01*
X4531340Y4870470D01*
X4531921Y4869849D01*
X4532051Y4869702D01*
X4532590Y4869045D01*
X4532709Y4868889D01*
X4533205Y4868198D01*
X4533314Y4868035D01*
X4533763Y4867313D01*
X4533861Y4867143D01*
X4534262Y4866393D01*
X4534348Y4866217D01*
X4534699Y4865442D01*
X4534774Y4865261D01*
X4535074Y4864465D01*
X4535137Y4864279D01*
X4535384Y4863466D01*
X4535435Y4863276D01*
X4535628Y4862448D01*
X4535666Y4862256D01*
X4535804Y4861417D01*
X4535830Y4861222D01*
X4535913Y4860376D01*
X4535926Y4860180D01*
X4535954Y4859330D01*
X4535954Y4859134D01*
X4535926Y4858284D01*
X4535913Y4858089D01*
X4535830Y4857242D01*
X4535804Y4857048D01*
G37*
G36*
G01*
X4535804Y4890512D02*
X4535666Y4889674D01*
X4535628Y4889481D01*
X4535435Y4888653D01*
X4535384Y4888463D01*
X4535137Y4887650D01*
X4535074Y4887464D01*
X4534774Y4886668D01*
X4534699Y4886487D01*
X4534348Y4885712D01*
X4534262Y4885536D01*
X4533861Y4884787D01*
X4533763Y4884617D01*
X4533314Y4883895D01*
X4533205Y4883731D01*
X4532709Y4883040D01*
X4532590Y4882885D01*
X4532051Y4882227D01*
X4531921Y4882080D01*
X4531340Y4881459D01*
X4531201Y4881320D01*
X4530581Y4880739D01*
X4530433Y4880610D01*
X4529776Y4880070D01*
X4529620Y4879951D01*
X4528929Y4879456D01*
X4528766Y4879347D01*
X4528044Y4878898D01*
X4527874Y4878800D01*
X4527124Y4878399D01*
X4526948Y4878312D01*
X4526174Y4877961D01*
X4525992Y4877886D01*
X4525197Y4877586D01*
X4525011Y4877523D01*
X4524197Y4877277D01*
X4524007Y4877226D01*
X4523179Y4877033D01*
X4522987Y4876994D01*
X4522148Y4876856D01*
X4521953Y4876830D01*
X4521107Y4876747D01*
X4520911Y4876734D01*
X4520062Y4876706D01*
X4519865Y4876706D01*
X4519016Y4876734D01*
X4518820Y4876747D01*
X4517974Y4876830D01*
X4517779Y4876856D01*
X4516940Y4876994D01*
X4516748Y4877033D01*
X4515920Y4877226D01*
X4515730Y4877277D01*
X4514917Y4877523D01*
X4514731Y4877586D01*
X4513935Y4877886D01*
X4513754Y4877961D01*
X4512979Y4878312D01*
X4512803Y4878399D01*
X4512053Y4878800D01*
X4511883Y4878898D01*
X4511161Y4879347D01*
X4510998Y4879456D01*
X4510307Y4879951D01*
X4510151Y4880070D01*
X4509494Y4880610D01*
X4509347Y4880739D01*
X4508726Y4881320D01*
X4508587Y4881459D01*
X4508006Y4882080D01*
X4507877Y4882227D01*
X4507337Y4882885D01*
X4507218Y4883040D01*
X4506722Y4883731D01*
X4506613Y4883895D01*
X4506164Y4884617D01*
X4506066Y4884787D01*
X4505666Y4885536D01*
X4505579Y4885712D01*
X4505228Y4886487D01*
X4505153Y4886668D01*
X4504853Y4887464D01*
X4504790Y4887650D01*
X4504543Y4888463D01*
X4504493Y4888653D01*
X4504299Y4889481D01*
X4504261Y4889674D01*
X4504123Y4890512D01*
X4504097Y4890707D01*
X4504014Y4891553D01*
X4504001Y4891749D01*
X4503973Y4892599D01*
X4503973Y4892795D01*
X4504001Y4893645D01*
X4504014Y4893841D01*
X4504097Y4894687D01*
X4504123Y4894881D01*
X4504261Y4895720D01*
X4504299Y4895913D01*
X4504493Y4896741D01*
X4504543Y4896930D01*
X4504790Y4897744D01*
X4504853Y4897930D01*
X4505153Y4898725D01*
X4505228Y4898907D01*
X4505579Y4899681D01*
X4505666Y4899857D01*
X4506066Y4900607D01*
X4506164Y4900777D01*
X4506613Y4901499D01*
X4506722Y4901662D01*
X4507218Y4902353D01*
X4507337Y4902509D01*
X4507877Y4903166D01*
X4508006Y4903314D01*
X4508587Y4903934D01*
X4508726Y4904073D01*
X4509347Y4904654D01*
X4509494Y4904784D01*
X4510151Y4905323D01*
X4510307Y4905443D01*
X4510998Y4905938D01*
X4511161Y4906047D01*
X4511883Y4906496D01*
X4512053Y4906594D01*
X4512803Y4906995D01*
X4512979Y4907082D01*
X4513754Y4907433D01*
X4513935Y4907508D01*
X4514731Y4907807D01*
X4514917Y4907870D01*
X4515730Y4908117D01*
X4515920Y4908168D01*
X4516748Y4908361D01*
X4516940Y4908399D01*
X4517779Y4908538D01*
X4517974Y4908563D01*
X4518820Y4908647D01*
X4519016Y4908660D01*
X4519865Y4908687D01*
X4520062Y4908687D01*
X4520911Y4908660D01*
X4521107Y4908647D01*
X4521953Y4908563D01*
X4522148Y4908538D01*
X4522987Y4908399D01*
X4523179Y4908361D01*
X4524007Y4908168D01*
X4524197Y4908117D01*
X4525011Y4907870D01*
X4525197Y4907807D01*
X4525992Y4907508D01*
X4526174Y4907433D01*
X4526948Y4907082D01*
X4527124Y4906995D01*
X4527874Y4906594D01*
X4528044Y4906496D01*
X4528766Y4906047D01*
X4528929Y4905938D01*
X4529620Y4905443D01*
X4529776Y4905323D01*
X4530433Y4904784D01*
X4530581Y4904654D01*
X4531201Y4904073D01*
X4531340Y4903934D01*
X4531921Y4903314D01*
X4532051Y4903166D01*
X4532590Y4902509D01*
X4532709Y4902353D01*
X4533205Y4901662D01*
X4533314Y4901499D01*
X4533763Y4900777D01*
X4533861Y4900607D01*
X4534262Y4899857D01*
X4534348Y4899681D01*
X4534699Y4898907D01*
X4534774Y4898725D01*
X4535074Y4897930D01*
X4535137Y4897744D01*
X4535384Y4896930D01*
X4535435Y4896741D01*
X4535628Y4895913D01*
X4535666Y4895720D01*
X4535804Y4894881D01*
X4535830Y4894687D01*
X4535913Y4893841D01*
X4535926Y4893645D01*
X4535954Y4892795D01*
X4535954Y4892599D01*
X4535926Y4891749D01*
X4535913Y4891553D01*
X4535830Y4890707D01*
X4535804Y4890512D01*
G37*
G36*
G01*
X4535830Y4823778D02*
X4535804Y4823583D01*
X4535666Y4822744D01*
X4535628Y4822552D01*
X4535435Y4821724D01*
X4535384Y4821534D01*
X4535137Y4820721D01*
X4535074Y4820535D01*
X4534774Y4819739D01*
X4534699Y4819558D01*
X4534348Y4818783D01*
X4534262Y4818607D01*
X4533861Y4817857D01*
X4533763Y4817687D01*
X4533314Y4816965D01*
X4533205Y4816802D01*
X4532709Y4816111D01*
X4532590Y4815955D01*
X4532051Y4815298D01*
X4531921Y4815151D01*
X4531340Y4814530D01*
X4531201Y4814391D01*
X4530581Y4813810D01*
X4530433Y4813681D01*
X4529776Y4813141D01*
X4529620Y4813022D01*
X4528929Y4812527D01*
X4528766Y4812418D01*
X4528044Y4811969D01*
X4527874Y4811870D01*
X4527124Y4811470D01*
X4526948Y4811383D01*
X4526174Y4811032D01*
X4525992Y4810957D01*
X4525197Y4810657D01*
X4525011Y4810594D01*
X4524197Y4810347D01*
X4524007Y4810297D01*
X4523179Y4810104D01*
X4522987Y4810065D01*
X4522148Y4809927D01*
X4521953Y4809901D01*
X4521107Y4809818D01*
X4520911Y4809805D01*
X4520062Y4809777D01*
X4519865Y4809777D01*
X4519016Y4809805D01*
X4518820Y4809818D01*
X4517974Y4809901D01*
X4517779Y4809927D01*
X4516940Y4810065D01*
X4516748Y4810104D01*
X4515920Y4810297D01*
X4515730Y4810347D01*
X4514917Y4810594D01*
X4514731Y4810657D01*
X4513935Y4810957D01*
X4513754Y4811032D01*
X4512979Y4811383D01*
X4512803Y4811470D01*
X4512053Y4811870D01*
X4511883Y4811969D01*
X4511161Y4812418D01*
X4510998Y4812527D01*
X4510307Y4813022D01*
X4510151Y4813141D01*
X4509494Y4813681D01*
X4509347Y4813810D01*
X4508726Y4814391D01*
X4508587Y4814530D01*
X4508006Y4815151D01*
X4507877Y4815298D01*
X4507337Y4815955D01*
X4507218Y4816111D01*
X4506722Y4816802D01*
X4506613Y4816965D01*
X4506164Y4817687D01*
X4506066Y4817857D01*
X4505666Y4818607D01*
X4505579Y4818783D01*
X4505228Y4819558D01*
X4505153Y4819739D01*
X4504853Y4820535D01*
X4504790Y4820721D01*
X4504543Y4821534D01*
X4504493Y4821724D01*
X4504299Y4822552D01*
X4504261Y4822744D01*
X4504123Y4823583D01*
X4504097Y4823778D01*
X4504014Y4824624D01*
X4504001Y4824820D01*
X4503973Y4825670D01*
X4503973Y4825866D01*
X4504001Y4826716D01*
X4504014Y4826911D01*
X4504097Y4827758D01*
X4504123Y4827952D01*
X4504261Y4828791D01*
X4504299Y4828984D01*
X4504493Y4829812D01*
X4504543Y4830001D01*
X4504790Y4830815D01*
X4504853Y4831001D01*
X4505153Y4831796D01*
X4505228Y4831978D01*
X4505579Y4832752D01*
X4505666Y4832928D01*
X4506066Y4833678D01*
X4506164Y4833848D01*
X4506613Y4834570D01*
X4506722Y4834733D01*
X4507218Y4835424D01*
X4507337Y4835580D01*
X4507877Y4836237D01*
X4508006Y4836385D01*
X4508587Y4837005D01*
X4508726Y4837144D01*
X4509347Y4837725D01*
X4509494Y4837855D01*
X4510151Y4838394D01*
X4510307Y4838514D01*
X4510998Y4839009D01*
X4511161Y4839118D01*
X4511883Y4839567D01*
X4512053Y4839665D01*
X4512803Y4840066D01*
X4512979Y4840153D01*
X4513754Y4840503D01*
X4513935Y4840579D01*
X4514731Y4840878D01*
X4514917Y4840941D01*
X4515730Y4841188D01*
X4515920Y4841239D01*
X4516748Y4841432D01*
X4516940Y4841470D01*
X4517779Y4841609D01*
X4517974Y4841634D01*
X4518820Y4841718D01*
X4519016Y4841730D01*
X4519865Y4841758D01*
X4520062Y4841758D01*
X4520911Y4841730D01*
X4521107Y4841718D01*
X4521953Y4841634D01*
X4522148Y4841609D01*
X4522987Y4841470D01*
X4523179Y4841432D01*
X4524007Y4841239D01*
X4524197Y4841188D01*
X4525011Y4840941D01*
X4525197Y4840878D01*
X4525992Y4840579D01*
X4526174Y4840503D01*
X4526948Y4840153D01*
X4527124Y4840066D01*
X4527874Y4839665D01*
X4528044Y4839567D01*
X4528766Y4839118D01*
X4528929Y4839009D01*
X4529620Y4838514D01*
X4529776Y4838394D01*
X4530433Y4837855D01*
X4530581Y4837725D01*
X4531201Y4837144D01*
X4531340Y4837005D01*
X4531921Y4836385D01*
X4532051Y4836237D01*
X4532590Y4835580D01*
X4532709Y4835424D01*
X4533205Y4834733D01*
X4533314Y4834570D01*
X4533763Y4833848D01*
X4533861Y4833678D01*
X4534262Y4832928D01*
X4534348Y4832752D01*
X4534699Y4831978D01*
X4534774Y4831796D01*
X4535074Y4831001D01*
X4535137Y4830815D01*
X4535384Y4830001D01*
X4535435Y4829812D01*
X4535628Y4828984D01*
X4535666Y4828791D01*
X4535804Y4827952D01*
X4535830Y4827758D01*
X4535913Y4826911D01*
X4535926Y4826716D01*
X4535954Y4825866D01*
X4535954Y4825670D01*
X4535926Y4824820D01*
X4535913Y4824624D01*
X4535830Y4823778D01*
G37*
G36*
G01*
X4535830Y4924172D02*
X4535804Y4923977D01*
X4535666Y4923138D01*
X4535628Y4922946D01*
X4535435Y4922118D01*
X4535384Y4921928D01*
X4535137Y4921114D01*
X4535074Y4920928D01*
X4534774Y4920133D01*
X4534699Y4919951D01*
X4534348Y4919177D01*
X4534262Y4919001D01*
X4533861Y4918251D01*
X4533763Y4918081D01*
X4533314Y4917359D01*
X4533205Y4917196D01*
X4532709Y4916505D01*
X4532590Y4916349D01*
X4532051Y4915692D01*
X4531921Y4915544D01*
X4531340Y4914924D01*
X4531201Y4914785D01*
X4530581Y4914204D01*
X4530433Y4914074D01*
X4529776Y4913535D01*
X4529620Y4913416D01*
X4528929Y4912920D01*
X4528766Y4912811D01*
X4528044Y4912362D01*
X4527874Y4912264D01*
X4527124Y4911863D01*
X4526948Y4911777D01*
X4526174Y4911426D01*
X4525992Y4911351D01*
X4525197Y4911051D01*
X4525011Y4910988D01*
X4524197Y4910741D01*
X4524007Y4910690D01*
X4523179Y4910497D01*
X4522987Y4910459D01*
X4522148Y4910321D01*
X4521953Y4910295D01*
X4521107Y4910212D01*
X4520911Y4910199D01*
X4520062Y4910171D01*
X4519865Y4910171D01*
X4519016Y4910199D01*
X4518820Y4910212D01*
X4517974Y4910295D01*
X4517779Y4910321D01*
X4516940Y4910459D01*
X4516748Y4910497D01*
X4515920Y4910690D01*
X4515730Y4910741D01*
X4514917Y4910988D01*
X4514731Y4911051D01*
X4513935Y4911351D01*
X4513754Y4911426D01*
X4512979Y4911777D01*
X4512803Y4911863D01*
X4512053Y4912264D01*
X4511883Y4912362D01*
X4511161Y4912811D01*
X4510998Y4912920D01*
X4510307Y4913416D01*
X4510151Y4913535D01*
X4509494Y4914074D01*
X4509347Y4914204D01*
X4508726Y4914785D01*
X4508587Y4914924D01*
X4508006Y4915544D01*
X4507877Y4915692D01*
X4507337Y4916349D01*
X4507218Y4916505D01*
X4506722Y4917196D01*
X4506613Y4917359D01*
X4506164Y4918081D01*
X4506066Y4918251D01*
X4505666Y4919001D01*
X4505579Y4919177D01*
X4505228Y4919951D01*
X4505153Y4920133D01*
X4504853Y4920928D01*
X4504790Y4921114D01*
X4504543Y4921928D01*
X4504493Y4922118D01*
X4504299Y4922946D01*
X4504261Y4923138D01*
X4504123Y4923977D01*
X4504097Y4924172D01*
X4504014Y4925018D01*
X4504001Y4925214D01*
X4503973Y4926063D01*
X4503973Y4926260D01*
X4504001Y4927109D01*
X4504014Y4927305D01*
X4504097Y4928151D01*
X4504123Y4928346D01*
X4504261Y4929185D01*
X4504299Y4929377D01*
X4504493Y4930205D01*
X4504543Y4930395D01*
X4504790Y4931208D01*
X4504853Y4931394D01*
X4505153Y4932190D01*
X4505228Y4932371D01*
X4505579Y4933146D01*
X4505666Y4933322D01*
X4506066Y4934072D01*
X4506164Y4934242D01*
X4506613Y4934964D01*
X4506722Y4935127D01*
X4507218Y4935818D01*
X4507337Y4935974D01*
X4507877Y4936631D01*
X4508006Y4936778D01*
X4508587Y4937399D01*
X4508726Y4937538D01*
X4509347Y4938119D01*
X4509494Y4938248D01*
X4510151Y4938788D01*
X4510307Y4938907D01*
X4510998Y4939403D01*
X4511161Y4939512D01*
X4511883Y4939961D01*
X4512053Y4940059D01*
X4512803Y4940459D01*
X4512979Y4940546D01*
X4513754Y4940897D01*
X4513935Y4940972D01*
X4514731Y4941272D01*
X4514917Y4941335D01*
X4515730Y4941582D01*
X4515920Y4941632D01*
X4516748Y4941826D01*
X4516940Y4941864D01*
X4517779Y4942002D01*
X4517974Y4942028D01*
X4518820Y4942111D01*
X4519016Y4942124D01*
X4519865Y4942152D01*
X4520062Y4942152D01*
X4520911Y4942124D01*
X4521107Y4942111D01*
X4521953Y4942028D01*
X4522148Y4942002D01*
X4522987Y4941864D01*
X4523179Y4941826D01*
X4524007Y4941632D01*
X4524197Y4941582D01*
X4525011Y4941335D01*
X4525197Y4941272D01*
X4525992Y4940972D01*
X4526174Y4940897D01*
X4526948Y4940546D01*
X4527124Y4940459D01*
X4527874Y4940059D01*
X4528044Y4939961D01*
X4528766Y4939512D01*
X4528929Y4939403D01*
X4529620Y4938907D01*
X4529776Y4938788D01*
X4530433Y4938248D01*
X4530581Y4938119D01*
X4531201Y4937538D01*
X4531340Y4937399D01*
X4531921Y4936778D01*
X4532051Y4936631D01*
X4532590Y4935974D01*
X4532709Y4935818D01*
X4533205Y4935127D01*
X4533314Y4934964D01*
X4533763Y4934242D01*
X4533861Y4934072D01*
X4534262Y4933322D01*
X4534348Y4933146D01*
X4534699Y4932371D01*
X4534774Y4932190D01*
X4535074Y4931394D01*
X4535137Y4931208D01*
X4535384Y4930395D01*
X4535435Y4930205D01*
X4535628Y4929377D01*
X4535666Y4929185D01*
X4535804Y4928346D01*
X4535830Y4928151D01*
X4535913Y4927305D01*
X4535926Y4927109D01*
X4535954Y4926260D01*
X4535954Y4926063D01*
X4535926Y4925214D01*
X4535913Y4925018D01*
X4535830Y4924172D01*
G37*
G36*
G01*
X4482655Y4823583D02*
X4482516Y4822744D01*
X4482478Y4822552D01*
X4482285Y4821724D01*
X4482234Y4821534D01*
X4481987Y4820721D01*
X4481924Y4820535D01*
X4481625Y4819739D01*
X4481550Y4819558D01*
X4481199Y4818783D01*
X4481112Y4818607D01*
X4480711Y4817857D01*
X4480613Y4817687D01*
X4480164Y4816965D01*
X4480055Y4816802D01*
X4479560Y4816111D01*
X4479440Y4815955D01*
X4478901Y4815298D01*
X4478772Y4815151D01*
X4478190Y4814530D01*
X4478052Y4814391D01*
X4477431Y4813810D01*
X4477283Y4813681D01*
X4476626Y4813141D01*
X4476471Y4813022D01*
X4475779Y4812527D01*
X4475616Y4812418D01*
X4474894Y4811969D01*
X4474724Y4811870D01*
X4473974Y4811470D01*
X4473798Y4811383D01*
X4473024Y4811032D01*
X4472843Y4810957D01*
X4472047Y4810657D01*
X4471861Y4810594D01*
X4471047Y4810347D01*
X4470858Y4810297D01*
X4470030Y4810104D01*
X4469837Y4810065D01*
X4468998Y4809927D01*
X4468804Y4809901D01*
X4467958Y4809818D01*
X4467762Y4809805D01*
X4466912Y4809777D01*
X4466716Y4809777D01*
X4465866Y4809805D01*
X4465670Y4809818D01*
X4464824Y4809901D01*
X4464629Y4809927D01*
X4463791Y4810065D01*
X4463598Y4810104D01*
X4462770Y4810297D01*
X4462581Y4810347D01*
X4461767Y4810594D01*
X4461581Y4810657D01*
X4460785Y4810957D01*
X4460604Y4811032D01*
X4459830Y4811383D01*
X4459654Y4811470D01*
X4458904Y4811870D01*
X4458734Y4811969D01*
X4458012Y4812418D01*
X4457849Y4812527D01*
X4457157Y4813022D01*
X4457002Y4813141D01*
X4456344Y4813681D01*
X4456197Y4813810D01*
X4455576Y4814391D01*
X4455438Y4814530D01*
X4454856Y4815151D01*
X4454727Y4815298D01*
X4454188Y4815955D01*
X4454068Y4816111D01*
X4453573Y4816802D01*
X4453464Y4816965D01*
X4453015Y4817687D01*
X4452917Y4817857D01*
X4452516Y4818607D01*
X4452429Y4818783D01*
X4452078Y4819558D01*
X4452003Y4819739D01*
X4451704Y4820535D01*
X4451641Y4820721D01*
X4451394Y4821534D01*
X4451343Y4821724D01*
X4451150Y4822552D01*
X4451112Y4822744D01*
X4450973Y4823583D01*
X4450947Y4823778D01*
X4450864Y4824624D01*
X4450851Y4824820D01*
X4450823Y4825670D01*
X4450823Y4825866D01*
X4450851Y4826716D01*
X4450864Y4826911D01*
X4450947Y4827758D01*
X4450973Y4827952D01*
X4451112Y4828791D01*
X4451150Y4828984D01*
X4451343Y4829812D01*
X4451394Y4830001D01*
X4451641Y4830815D01*
X4451704Y4831001D01*
X4452003Y4831796D01*
X4452078Y4831978D01*
X4452429Y4832752D01*
X4452516Y4832928D01*
X4452917Y4833678D01*
X4453015Y4833848D01*
X4453464Y4834570D01*
X4453573Y4834733D01*
X4454068Y4835424D01*
X4454188Y4835580D01*
X4454727Y4836237D01*
X4454856Y4836385D01*
X4455438Y4837005D01*
X4455576Y4837144D01*
X4456197Y4837725D01*
X4456344Y4837855D01*
X4457002Y4838394D01*
X4457157Y4838514D01*
X4457849Y4839009D01*
X4458012Y4839118D01*
X4458734Y4839567D01*
X4458904Y4839665D01*
X4459654Y4840066D01*
X4459830Y4840153D01*
X4460604Y4840503D01*
X4460785Y4840579D01*
X4461581Y4840878D01*
X4461767Y4840941D01*
X4462581Y4841188D01*
X4462770Y4841239D01*
X4463598Y4841432D01*
X4463791Y4841470D01*
X4464629Y4841609D01*
X4464824Y4841634D01*
X4465670Y4841718D01*
X4465866Y4841730D01*
X4466716Y4841758D01*
X4466912Y4841758D01*
X4467762Y4841730D01*
X4467958Y4841718D01*
X4468804Y4841634D01*
X4468998Y4841609D01*
X4469837Y4841470D01*
X4470030Y4841432D01*
X4470858Y4841239D01*
X4471047Y4841188D01*
X4471861Y4840941D01*
X4472047Y4840878D01*
X4472843Y4840579D01*
X4473024Y4840503D01*
X4473798Y4840153D01*
X4473974Y4840066D01*
X4474724Y4839665D01*
X4474894Y4839567D01*
X4475616Y4839118D01*
X4475779Y4839009D01*
X4476471Y4838514D01*
X4476626Y4838394D01*
X4477283Y4837855D01*
X4477431Y4837725D01*
X4478052Y4837144D01*
X4478190Y4837005D01*
X4478772Y4836385D01*
X4478901Y4836237D01*
X4479440Y4835580D01*
X4479560Y4835424D01*
X4480055Y4834733D01*
X4480164Y4834570D01*
X4480613Y4833848D01*
X4480711Y4833678D01*
X4481112Y4832928D01*
X4481199Y4832752D01*
X4481550Y4831978D01*
X4481625Y4831796D01*
X4481924Y4831001D01*
X4481987Y4830815D01*
X4482234Y4830001D01*
X4482285Y4829812D01*
X4482478Y4828984D01*
X4482516Y4828791D01*
X4482655Y4827952D01*
X4482681Y4827758D01*
X4482764Y4826911D01*
X4482777Y4826716D01*
X4482804Y4825866D01*
X4482804Y4825670D01*
X4482777Y4824820D01*
X4482764Y4824624D01*
X4482681Y4823778D01*
X4482655Y4823583D01*
G37*
G36*
G01*
X4482655Y4857048D02*
X4482516Y4856209D01*
X4482478Y4856016D01*
X4482285Y4855188D01*
X4482234Y4854999D01*
X4481987Y4854185D01*
X4481924Y4853999D01*
X4481625Y4853204D01*
X4481550Y4853022D01*
X4481199Y4852248D01*
X4481112Y4852072D01*
X4480711Y4851322D01*
X4480613Y4851152D01*
X4480164Y4850430D01*
X4480055Y4850267D01*
X4479560Y4849576D01*
X4479440Y4849420D01*
X4478901Y4848763D01*
X4478772Y4848615D01*
X4478190Y4847995D01*
X4478052Y4847856D01*
X4477431Y4847275D01*
X4477283Y4847145D01*
X4476626Y4846606D01*
X4476471Y4846486D01*
X4475779Y4845991D01*
X4475616Y4845882D01*
X4474894Y4845433D01*
X4474724Y4845335D01*
X4473974Y4844934D01*
X4473798Y4844847D01*
X4473024Y4844497D01*
X4472843Y4844421D01*
X4472047Y4844122D01*
X4471861Y4844059D01*
X4471047Y4843812D01*
X4470858Y4843761D01*
X4470030Y4843568D01*
X4469837Y4843530D01*
X4468998Y4843391D01*
X4468804Y4843366D01*
X4467958Y4843282D01*
X4467762Y4843270D01*
X4466912Y4843242D01*
X4466716Y4843242D01*
X4465866Y4843270D01*
X4465670Y4843282D01*
X4464824Y4843366D01*
X4464629Y4843391D01*
X4463791Y4843530D01*
X4463598Y4843568D01*
X4462770Y4843761D01*
X4462581Y4843812D01*
X4461767Y4844059D01*
X4461581Y4844122D01*
X4460785Y4844421D01*
X4460604Y4844497D01*
X4459830Y4844847D01*
X4459654Y4844934D01*
X4458904Y4845335D01*
X4458734Y4845433D01*
X4458012Y4845882D01*
X4457849Y4845991D01*
X4457157Y4846486D01*
X4457002Y4846606D01*
X4456344Y4847145D01*
X4456197Y4847275D01*
X4455576Y4847856D01*
X4455438Y4847995D01*
X4454856Y4848615D01*
X4454727Y4848763D01*
X4454188Y4849420D01*
X4454068Y4849576D01*
X4453573Y4850267D01*
X4453464Y4850430D01*
X4453015Y4851152D01*
X4452917Y4851322D01*
X4452516Y4852072D01*
X4452429Y4852248D01*
X4452078Y4853022D01*
X4452003Y4853204D01*
X4451704Y4853999D01*
X4451641Y4854185D01*
X4451394Y4854999D01*
X4451343Y4855188D01*
X4451150Y4856016D01*
X4451112Y4856209D01*
X4450973Y4857048D01*
X4450947Y4857242D01*
X4450864Y4858089D01*
X4450851Y4858284D01*
X4450823Y4859134D01*
X4450823Y4859330D01*
X4450851Y4860180D01*
X4450864Y4860376D01*
X4450947Y4861222D01*
X4450973Y4861417D01*
X4451112Y4862256D01*
X4451150Y4862448D01*
X4451343Y4863276D01*
X4451394Y4863466D01*
X4451641Y4864279D01*
X4451704Y4864465D01*
X4452003Y4865261D01*
X4452078Y4865442D01*
X4452429Y4866217D01*
X4452516Y4866393D01*
X4452917Y4867143D01*
X4453015Y4867313D01*
X4453464Y4868035D01*
X4453573Y4868198D01*
X4454068Y4868889D01*
X4454188Y4869045D01*
X4454727Y4869702D01*
X4454856Y4869849D01*
X4455438Y4870470D01*
X4455576Y4870609D01*
X4456197Y4871190D01*
X4456344Y4871319D01*
X4457002Y4871859D01*
X4457157Y4871978D01*
X4457849Y4872473D01*
X4458012Y4872582D01*
X4458734Y4873031D01*
X4458904Y4873130D01*
X4459654Y4873530D01*
X4459830Y4873617D01*
X4460604Y4873968D01*
X4460785Y4874043D01*
X4461581Y4874343D01*
X4461767Y4874406D01*
X4462581Y4874653D01*
X4462770Y4874703D01*
X4463598Y4874896D01*
X4463791Y4874935D01*
X4464629Y4875073D01*
X4464824Y4875099D01*
X4465670Y4875182D01*
X4465866Y4875195D01*
X4466716Y4875223D01*
X4466912Y4875223D01*
X4467762Y4875195D01*
X4467958Y4875182D01*
X4468804Y4875099D01*
X4468998Y4875073D01*
X4469837Y4874935D01*
X4470030Y4874896D01*
X4470858Y4874703D01*
X4471047Y4874653D01*
X4471861Y4874406D01*
X4472047Y4874343D01*
X4472843Y4874043D01*
X4473024Y4873968D01*
X4473798Y4873617D01*
X4473974Y4873530D01*
X4474724Y4873130D01*
X4474894Y4873031D01*
X4475616Y4872582D01*
X4475779Y4872473D01*
X4476471Y4871978D01*
X4476626Y4871859D01*
X4477283Y4871319D01*
X4477431Y4871190D01*
X4478052Y4870609D01*
X4478190Y4870470D01*
X4478772Y4869849D01*
X4478901Y4869702D01*
X4479440Y4869045D01*
X4479560Y4868889D01*
X4480055Y4868198D01*
X4480164Y4868035D01*
X4480613Y4867313D01*
X4480711Y4867143D01*
X4481112Y4866393D01*
X4481199Y4866217D01*
X4481550Y4865442D01*
X4481625Y4865261D01*
X4481924Y4864465D01*
X4481987Y4864279D01*
X4482234Y4863466D01*
X4482285Y4863276D01*
X4482478Y4862448D01*
X4482516Y4862256D01*
X4482655Y4861417D01*
X4482681Y4861222D01*
X4482764Y4860376D01*
X4482777Y4860180D01*
X4482804Y4859330D01*
X4482804Y4859134D01*
X4482777Y4858284D01*
X4482764Y4858089D01*
X4482681Y4857242D01*
X4482655Y4857048D01*
G37*
G36*
G01*
X4482655Y4923977D02*
X4482516Y4923138D01*
X4482478Y4922946D01*
X4482285Y4922118D01*
X4482234Y4921928D01*
X4481987Y4921114D01*
X4481924Y4920928D01*
X4481625Y4920133D01*
X4481550Y4919951D01*
X4481199Y4919177D01*
X4481112Y4919001D01*
X4480711Y4918251D01*
X4480613Y4918081D01*
X4480164Y4917359D01*
X4480055Y4917196D01*
X4479560Y4916505D01*
X4479440Y4916349D01*
X4478901Y4915692D01*
X4478772Y4915544D01*
X4478190Y4914924D01*
X4478052Y4914785D01*
X4477431Y4914204D01*
X4477283Y4914074D01*
X4476626Y4913535D01*
X4476471Y4913416D01*
X4475779Y4912920D01*
X4475616Y4912811D01*
X4474894Y4912362D01*
X4474724Y4912264D01*
X4473974Y4911863D01*
X4473798Y4911777D01*
X4473024Y4911426D01*
X4472843Y4911351D01*
X4472047Y4911051D01*
X4471861Y4910988D01*
X4471047Y4910741D01*
X4470858Y4910690D01*
X4470030Y4910497D01*
X4469837Y4910459D01*
X4468998Y4910321D01*
X4468804Y4910295D01*
X4467958Y4910212D01*
X4467762Y4910199D01*
X4466912Y4910171D01*
X4466716Y4910171D01*
X4465866Y4910199D01*
X4465670Y4910212D01*
X4464824Y4910295D01*
X4464629Y4910321D01*
X4463791Y4910459D01*
X4463598Y4910497D01*
X4462770Y4910690D01*
X4462581Y4910741D01*
X4461767Y4910988D01*
X4461581Y4911051D01*
X4460785Y4911351D01*
X4460604Y4911426D01*
X4459830Y4911777D01*
X4459654Y4911863D01*
X4458904Y4912264D01*
X4458734Y4912362D01*
X4458012Y4912811D01*
X4457849Y4912920D01*
X4457157Y4913416D01*
X4457002Y4913535D01*
X4456344Y4914074D01*
X4456197Y4914204D01*
X4455576Y4914785D01*
X4455438Y4914924D01*
X4454856Y4915544D01*
X4454727Y4915692D01*
X4454188Y4916349D01*
X4454068Y4916505D01*
X4453573Y4917196D01*
X4453464Y4917359D01*
X4453015Y4918081D01*
X4452917Y4918251D01*
X4452516Y4919001D01*
X4452429Y4919177D01*
X4452078Y4919951D01*
X4452003Y4920133D01*
X4451704Y4920928D01*
X4451641Y4921114D01*
X4451394Y4921928D01*
X4451343Y4922118D01*
X4451150Y4922946D01*
X4451112Y4923138D01*
X4450973Y4923977D01*
X4450947Y4924172D01*
X4450864Y4925018D01*
X4450851Y4925214D01*
X4450823Y4926063D01*
X4450823Y4926260D01*
X4450851Y4927109D01*
X4450864Y4927305D01*
X4450947Y4928151D01*
X4450973Y4928346D01*
X4451112Y4929185D01*
X4451150Y4929377D01*
X4451343Y4930205D01*
X4451394Y4930395D01*
X4451641Y4931208D01*
X4451704Y4931394D01*
X4452003Y4932190D01*
X4452078Y4932371D01*
X4452429Y4933146D01*
X4452516Y4933322D01*
X4452917Y4934072D01*
X4453015Y4934242D01*
X4453464Y4934964D01*
X4453573Y4935127D01*
X4454068Y4935818D01*
X4454188Y4935974D01*
X4454727Y4936631D01*
X4454856Y4936778D01*
X4455438Y4937399D01*
X4455576Y4937538D01*
X4456197Y4938119D01*
X4456344Y4938248D01*
X4457002Y4938788D01*
X4457157Y4938907D01*
X4457849Y4939403D01*
X4458012Y4939512D01*
X4458734Y4939961D01*
X4458904Y4940059D01*
X4459654Y4940459D01*
X4459830Y4940546D01*
X4460604Y4940897D01*
X4460785Y4940972D01*
X4461581Y4941272D01*
X4461767Y4941335D01*
X4462581Y4941582D01*
X4462770Y4941632D01*
X4463598Y4941826D01*
X4463791Y4941864D01*
X4464629Y4942002D01*
X4464824Y4942028D01*
X4465670Y4942111D01*
X4465866Y4942124D01*
X4466716Y4942152D01*
X4466912Y4942152D01*
X4467762Y4942124D01*
X4467958Y4942111D01*
X4468804Y4942028D01*
X4468998Y4942002D01*
X4469837Y4941864D01*
X4470030Y4941826D01*
X4470858Y4941632D01*
X4471047Y4941582D01*
X4471861Y4941335D01*
X4472047Y4941272D01*
X4472843Y4940972D01*
X4473024Y4940897D01*
X4473798Y4940546D01*
X4473974Y4940459D01*
X4474724Y4940059D01*
X4474894Y4939961D01*
X4475616Y4939512D01*
X4475779Y4939403D01*
X4476471Y4938907D01*
X4476626Y4938788D01*
X4477283Y4938248D01*
X4477431Y4938119D01*
X4478052Y4937538D01*
X4478190Y4937399D01*
X4478772Y4936778D01*
X4478901Y4936631D01*
X4479440Y4935974D01*
X4479560Y4935818D01*
X4480055Y4935127D01*
X4480164Y4934964D01*
X4480613Y4934242D01*
X4480711Y4934072D01*
X4481112Y4933322D01*
X4481199Y4933146D01*
X4481550Y4932371D01*
X4481625Y4932190D01*
X4481924Y4931394D01*
X4481987Y4931208D01*
X4482234Y4930395D01*
X4482285Y4930205D01*
X4482478Y4929377D01*
X4482516Y4929185D01*
X4482655Y4928346D01*
X4482681Y4928151D01*
X4482764Y4927305D01*
X4482777Y4927109D01*
X4482804Y4926260D01*
X4482804Y4926063D01*
X4482777Y4925214D01*
X4482764Y4925018D01*
X4482681Y4924172D01*
X4482655Y4923977D01*
G37*
G36*
G01*
X4482655Y4957441D02*
X4482516Y4956603D01*
X4482478Y4956410D01*
X4482285Y4955582D01*
X4482234Y4955393D01*
X4481987Y4954579D01*
X4481924Y4954393D01*
X4481625Y4953597D01*
X4481550Y4953416D01*
X4481199Y4952642D01*
X4481112Y4952466D01*
X4480711Y4951716D01*
X4480613Y4951546D01*
X4480164Y4950824D01*
X4480055Y4950661D01*
X4479560Y4949969D01*
X4479440Y4949814D01*
X4478901Y4949157D01*
X4478772Y4949009D01*
X4478190Y4948388D01*
X4478052Y4948250D01*
X4477431Y4947668D01*
X4477283Y4947539D01*
X4476626Y4947000D01*
X4476471Y4946880D01*
X4475779Y4946385D01*
X4475616Y4946276D01*
X4474894Y4945827D01*
X4474724Y4945729D01*
X4473974Y4945328D01*
X4473798Y4945241D01*
X4473024Y4944890D01*
X4472843Y4944815D01*
X4472047Y4944516D01*
X4471861Y4944453D01*
X4471047Y4944206D01*
X4470858Y4944155D01*
X4470030Y4943962D01*
X4469837Y4943924D01*
X4468998Y4943785D01*
X4468804Y4943759D01*
X4467958Y4943676D01*
X4467762Y4943663D01*
X4466912Y4943635D01*
X4466716Y4943635D01*
X4465866Y4943663D01*
X4465670Y4943676D01*
X4464824Y4943759D01*
X4464629Y4943785D01*
X4463791Y4943924D01*
X4463598Y4943962D01*
X4462770Y4944155D01*
X4462581Y4944206D01*
X4461767Y4944453D01*
X4461581Y4944516D01*
X4460785Y4944815D01*
X4460604Y4944890D01*
X4459830Y4945241D01*
X4459654Y4945328D01*
X4458904Y4945729D01*
X4458734Y4945827D01*
X4458012Y4946276D01*
X4457849Y4946385D01*
X4457157Y4946880D01*
X4457002Y4947000D01*
X4456344Y4947539D01*
X4456197Y4947668D01*
X4455576Y4948250D01*
X4455438Y4948388D01*
X4454856Y4949009D01*
X4454727Y4949157D01*
X4454188Y4949814D01*
X4454068Y4949969D01*
X4453573Y4950661D01*
X4453464Y4950824D01*
X4453015Y4951546D01*
X4452917Y4951716D01*
X4452516Y4952466D01*
X4452429Y4952642D01*
X4452078Y4953416D01*
X4452003Y4953597D01*
X4451704Y4954393D01*
X4451641Y4954579D01*
X4451394Y4955393D01*
X4451343Y4955582D01*
X4451150Y4956410D01*
X4451112Y4956603D01*
X4450973Y4957441D01*
X4450947Y4957636D01*
X4450864Y4958482D01*
X4450851Y4958678D01*
X4450823Y4959528D01*
X4450823Y4959724D01*
X4450851Y4960574D01*
X4450864Y4960770D01*
X4450947Y4961616D01*
X4450973Y4961810D01*
X4451112Y4962649D01*
X4451150Y4962842D01*
X4451343Y4963670D01*
X4451394Y4963859D01*
X4451641Y4964673D01*
X4451704Y4964859D01*
X4452003Y4965655D01*
X4452078Y4965836D01*
X4452429Y4966610D01*
X4452516Y4966786D01*
X4452917Y4967536D01*
X4453015Y4967706D01*
X4453464Y4968428D01*
X4453573Y4968591D01*
X4454068Y4969283D01*
X4454188Y4969438D01*
X4454727Y4970095D01*
X4454856Y4970243D01*
X4455438Y4970864D01*
X4455576Y4971002D01*
X4456197Y4971584D01*
X4456344Y4971713D01*
X4457002Y4972252D01*
X4457157Y4972372D01*
X4457849Y4972867D01*
X4458012Y4972976D01*
X4458734Y4973425D01*
X4458904Y4973523D01*
X4459654Y4973924D01*
X4459830Y4974011D01*
X4460604Y4974362D01*
X4460785Y4974437D01*
X4461581Y4974736D01*
X4461767Y4974799D01*
X4462581Y4975046D01*
X4462770Y4975097D01*
X4463598Y4975290D01*
X4463791Y4975328D01*
X4464629Y4975467D01*
X4464824Y4975493D01*
X4465670Y4975576D01*
X4465866Y4975589D01*
X4466716Y4975617D01*
X4466912Y4975617D01*
X4467762Y4975589D01*
X4467958Y4975576D01*
X4468804Y4975493D01*
X4468998Y4975467D01*
X4469837Y4975328D01*
X4470030Y4975290D01*
X4470858Y4975097D01*
X4471047Y4975046D01*
X4471861Y4974799D01*
X4472047Y4974736D01*
X4472843Y4974437D01*
X4473024Y4974362D01*
X4473798Y4974011D01*
X4473974Y4973924D01*
X4474724Y4973523D01*
X4474894Y4973425D01*
X4475616Y4972976D01*
X4475779Y4972867D01*
X4476471Y4972372D01*
X4476626Y4972252D01*
X4477283Y4971713D01*
X4477431Y4971584D01*
X4478052Y4971002D01*
X4478190Y4970864D01*
X4478772Y4970243D01*
X4478901Y4970095D01*
X4479440Y4969438D01*
X4479560Y4969283D01*
X4480055Y4968591D01*
X4480164Y4968428D01*
X4480613Y4967706D01*
X4480711Y4967536D01*
X4481112Y4966786D01*
X4481199Y4966610D01*
X4481550Y4965836D01*
X4481625Y4965655D01*
X4481924Y4964859D01*
X4481987Y4964673D01*
X4482234Y4963859D01*
X4482285Y4963670D01*
X4482478Y4962842D01*
X4482516Y4962649D01*
X4482655Y4961810D01*
X4482681Y4961616D01*
X4482764Y4960770D01*
X4482777Y4960574D01*
X4482804Y4959724D01*
X4482804Y4959528D01*
X4482777Y4958678D01*
X4482764Y4958482D01*
X4482681Y4957636D01*
X4482655Y4957441D01*
G37*
G36*
G01*
X4482681Y4723384D02*
X4482655Y4723190D01*
X4482516Y4722351D01*
X4482478Y4722158D01*
X4482285Y4721330D01*
X4482234Y4721141D01*
X4481987Y4720327D01*
X4481924Y4720141D01*
X4481625Y4719345D01*
X4481550Y4719164D01*
X4481199Y4718390D01*
X4481112Y4718214D01*
X4480711Y4717464D01*
X4480613Y4717294D01*
X4480164Y4716572D01*
X4480055Y4716409D01*
X4479560Y4715717D01*
X4479440Y4715562D01*
X4478901Y4714905D01*
X4478772Y4714757D01*
X4478190Y4714136D01*
X4478052Y4713998D01*
X4477431Y4713416D01*
X4477283Y4713287D01*
X4476626Y4712748D01*
X4476471Y4712628D01*
X4475779Y4712133D01*
X4475616Y4712024D01*
X4474894Y4711575D01*
X4474724Y4711477D01*
X4473974Y4711076D01*
X4473798Y4710989D01*
X4473024Y4710638D01*
X4472843Y4710563D01*
X4472047Y4710264D01*
X4471861Y4710201D01*
X4471047Y4709954D01*
X4470858Y4709903D01*
X4470030Y4709710D01*
X4469837Y4709672D01*
X4468998Y4709533D01*
X4468804Y4709507D01*
X4467958Y4709424D01*
X4467762Y4709411D01*
X4466912Y4709383D01*
X4466716Y4709383D01*
X4465866Y4709411D01*
X4465670Y4709424D01*
X4464824Y4709507D01*
X4464629Y4709533D01*
X4463791Y4709672D01*
X4463598Y4709710D01*
X4462770Y4709903D01*
X4462581Y4709954D01*
X4461767Y4710201D01*
X4461581Y4710264D01*
X4460785Y4710563D01*
X4460604Y4710638D01*
X4459830Y4710989D01*
X4459654Y4711076D01*
X4458904Y4711477D01*
X4458734Y4711575D01*
X4458012Y4712024D01*
X4457849Y4712133D01*
X4457157Y4712628D01*
X4457002Y4712748D01*
X4456344Y4713287D01*
X4456197Y4713416D01*
X4455576Y4713998D01*
X4455438Y4714136D01*
X4454856Y4714757D01*
X4454727Y4714905D01*
X4454188Y4715562D01*
X4454068Y4715717D01*
X4453573Y4716409D01*
X4453464Y4716572D01*
X4453015Y4717294D01*
X4452917Y4717464D01*
X4452516Y4718214D01*
X4452429Y4718390D01*
X4452078Y4719164D01*
X4452003Y4719345D01*
X4451704Y4720141D01*
X4451641Y4720327D01*
X4451394Y4721141D01*
X4451343Y4721330D01*
X4451150Y4722158D01*
X4451112Y4722351D01*
X4450973Y4723190D01*
X4450947Y4723384D01*
X4450864Y4724230D01*
X4450851Y4724426D01*
X4450823Y4725276D01*
X4450823Y4725472D01*
X4450851Y4726322D01*
X4450864Y4726518D01*
X4450947Y4727364D01*
X4450973Y4727559D01*
X4451112Y4728397D01*
X4451150Y4728590D01*
X4451343Y4729418D01*
X4451394Y4729607D01*
X4451641Y4730421D01*
X4451704Y4730607D01*
X4452003Y4731403D01*
X4452078Y4731584D01*
X4452429Y4732358D01*
X4452516Y4732534D01*
X4452917Y4733284D01*
X4453015Y4733454D01*
X4453464Y4734176D01*
X4453573Y4734339D01*
X4454068Y4735031D01*
X4454188Y4735186D01*
X4454727Y4735843D01*
X4454856Y4735991D01*
X4455438Y4736612D01*
X4455576Y4736750D01*
X4456197Y4737332D01*
X4456344Y4737461D01*
X4457002Y4738000D01*
X4457157Y4738120D01*
X4457849Y4738615D01*
X4458012Y4738724D01*
X4458734Y4739173D01*
X4458904Y4739271D01*
X4459654Y4739672D01*
X4459830Y4739759D01*
X4460604Y4740110D01*
X4460785Y4740185D01*
X4461581Y4740484D01*
X4461767Y4740547D01*
X4462581Y4740794D01*
X4462770Y4740845D01*
X4463598Y4741038D01*
X4463791Y4741076D01*
X4464629Y4741215D01*
X4464824Y4741241D01*
X4465670Y4741324D01*
X4465866Y4741337D01*
X4466716Y4741365D01*
X4466912Y4741365D01*
X4467762Y4741337D01*
X4467958Y4741324D01*
X4468804Y4741241D01*
X4468998Y4741215D01*
X4469837Y4741076D01*
X4470030Y4741038D01*
X4470858Y4740845D01*
X4471047Y4740794D01*
X4471861Y4740547D01*
X4472047Y4740484D01*
X4472843Y4740185D01*
X4473024Y4740110D01*
X4473798Y4739759D01*
X4473974Y4739672D01*
X4474724Y4739271D01*
X4474894Y4739173D01*
X4475616Y4738724D01*
X4475779Y4738615D01*
X4476471Y4738120D01*
X4476626Y4738000D01*
X4477283Y4737461D01*
X4477431Y4737332D01*
X4478052Y4736750D01*
X4478190Y4736612D01*
X4478772Y4735991D01*
X4478901Y4735843D01*
X4479440Y4735186D01*
X4479560Y4735031D01*
X4480055Y4734339D01*
X4480164Y4734176D01*
X4480613Y4733454D01*
X4480711Y4733284D01*
X4481112Y4732534D01*
X4481199Y4732358D01*
X4481550Y4731584D01*
X4481625Y4731403D01*
X4481924Y4730607D01*
X4481987Y4730421D01*
X4482234Y4729607D01*
X4482285Y4729418D01*
X4482478Y4728590D01*
X4482516Y4728397D01*
X4482655Y4727559D01*
X4482681Y4727364D01*
X4482764Y4726518D01*
X4482777Y4726322D01*
X4482804Y4725472D01*
X4482804Y4725276D01*
X4482777Y4724426D01*
X4482764Y4724230D01*
X4482681Y4723384D01*
G37*
G36*
G01*
X4482681Y4756849D02*
X4482655Y4756654D01*
X4482516Y4755815D01*
X4482478Y4755623D01*
X4482285Y4754795D01*
X4482234Y4754605D01*
X4481987Y4753792D01*
X4481924Y4753606D01*
X4481625Y4752810D01*
X4481550Y4752629D01*
X4481199Y4751854D01*
X4481112Y4751678D01*
X4480711Y4750928D01*
X4480613Y4750758D01*
X4480164Y4750036D01*
X4480055Y4749873D01*
X4479560Y4749182D01*
X4479440Y4749026D01*
X4478901Y4748369D01*
X4478772Y4748222D01*
X4478190Y4747601D01*
X4478052Y4747462D01*
X4477431Y4746881D01*
X4477283Y4746752D01*
X4476626Y4746212D01*
X4476471Y4746093D01*
X4475779Y4745597D01*
X4475616Y4745488D01*
X4474894Y4745039D01*
X4474724Y4744941D01*
X4473974Y4744541D01*
X4473798Y4744454D01*
X4473024Y4744103D01*
X4472843Y4744028D01*
X4472047Y4743728D01*
X4471861Y4743665D01*
X4471047Y4743418D01*
X4470858Y4743368D01*
X4470030Y4743174D01*
X4469837Y4743136D01*
X4468998Y4742998D01*
X4468804Y4742972D01*
X4467958Y4742889D01*
X4467762Y4742876D01*
X4466912Y4742848D01*
X4466716Y4742848D01*
X4465866Y4742876D01*
X4465670Y4742889D01*
X4464824Y4742972D01*
X4464629Y4742998D01*
X4463791Y4743136D01*
X4463598Y4743174D01*
X4462770Y4743368D01*
X4462581Y4743418D01*
X4461767Y4743665D01*
X4461581Y4743728D01*
X4460785Y4744028D01*
X4460604Y4744103D01*
X4459830Y4744454D01*
X4459654Y4744541D01*
X4458904Y4744941D01*
X4458734Y4745039D01*
X4458012Y4745488D01*
X4457849Y4745597D01*
X4457157Y4746093D01*
X4457002Y4746212D01*
X4456344Y4746752D01*
X4456197Y4746881D01*
X4455576Y4747462D01*
X4455438Y4747601D01*
X4454856Y4748222D01*
X4454727Y4748369D01*
X4454188Y4749026D01*
X4454068Y4749182D01*
X4453573Y4749873D01*
X4453464Y4750036D01*
X4453015Y4750758D01*
X4452917Y4750928D01*
X4452516Y4751678D01*
X4452429Y4751854D01*
X4452078Y4752629D01*
X4452003Y4752810D01*
X4451704Y4753606D01*
X4451641Y4753792D01*
X4451394Y4754605D01*
X4451343Y4754795D01*
X4451150Y4755623D01*
X4451112Y4755815D01*
X4450973Y4756654D01*
X4450947Y4756849D01*
X4450864Y4757695D01*
X4450851Y4757891D01*
X4450823Y4758740D01*
X4450823Y4758937D01*
X4450851Y4759786D01*
X4450864Y4759982D01*
X4450947Y4760828D01*
X4450973Y4761023D01*
X4451112Y4761862D01*
X4451150Y4762054D01*
X4451343Y4762882D01*
X4451394Y4763072D01*
X4451641Y4763886D01*
X4451704Y4764072D01*
X4452003Y4764867D01*
X4452078Y4765049D01*
X4452429Y4765823D01*
X4452516Y4765999D01*
X4452917Y4766749D01*
X4453015Y4766919D01*
X4453464Y4767641D01*
X4453573Y4767804D01*
X4454068Y4768495D01*
X4454188Y4768651D01*
X4454727Y4769308D01*
X4454856Y4769456D01*
X4455438Y4770076D01*
X4455576Y4770215D01*
X4456197Y4770796D01*
X4456344Y4770926D01*
X4457002Y4771465D01*
X4457157Y4771584D01*
X4457849Y4772080D01*
X4458012Y4772189D01*
X4458734Y4772638D01*
X4458904Y4772736D01*
X4459654Y4773137D01*
X4459830Y4773223D01*
X4460604Y4773574D01*
X4460785Y4773649D01*
X4461581Y4773949D01*
X4461767Y4774012D01*
X4462581Y4774259D01*
X4462770Y4774310D01*
X4463598Y4774503D01*
X4463791Y4774541D01*
X4464629Y4774679D01*
X4464824Y4774705D01*
X4465670Y4774788D01*
X4465866Y4774801D01*
X4466716Y4774829D01*
X4466912Y4774829D01*
X4467762Y4774801D01*
X4467958Y4774788D01*
X4468804Y4774705D01*
X4468998Y4774679D01*
X4469837Y4774541D01*
X4470030Y4774503D01*
X4470858Y4774310D01*
X4471047Y4774259D01*
X4471861Y4774012D01*
X4472047Y4773949D01*
X4472843Y4773649D01*
X4473024Y4773574D01*
X4473798Y4773223D01*
X4473974Y4773137D01*
X4474724Y4772736D01*
X4474894Y4772638D01*
X4475616Y4772189D01*
X4475779Y4772080D01*
X4476471Y4771584D01*
X4476626Y4771465D01*
X4477283Y4770926D01*
X4477431Y4770796D01*
X4478052Y4770215D01*
X4478190Y4770076D01*
X4478772Y4769456D01*
X4478901Y4769308D01*
X4479440Y4768651D01*
X4479560Y4768495D01*
X4480055Y4767804D01*
X4480164Y4767641D01*
X4480613Y4766919D01*
X4480711Y4766749D01*
X4481112Y4765999D01*
X4481199Y4765823D01*
X4481550Y4765049D01*
X4481625Y4764867D01*
X4481924Y4764072D01*
X4481987Y4763886D01*
X4482234Y4763072D01*
X4482285Y4762882D01*
X4482478Y4762054D01*
X4482516Y4761862D01*
X4482655Y4761023D01*
X4482681Y4760828D01*
X4482764Y4759982D01*
X4482777Y4759786D01*
X4482804Y4758937D01*
X4482804Y4758740D01*
X4482777Y4757891D01*
X4482764Y4757695D01*
X4482681Y4756849D01*
G37*
G36*
G01*
X4482681Y4790313D02*
X4482655Y4790119D01*
X4482516Y4789280D01*
X4482478Y4789087D01*
X4482285Y4788259D01*
X4482234Y4788070D01*
X4481987Y4787256D01*
X4481924Y4787070D01*
X4481625Y4786275D01*
X4481550Y4786093D01*
X4481199Y4785319D01*
X4481112Y4785143D01*
X4480711Y4784393D01*
X4480613Y4784223D01*
X4480164Y4783501D01*
X4480055Y4783338D01*
X4479560Y4782647D01*
X4479440Y4782491D01*
X4478901Y4781834D01*
X4478772Y4781686D01*
X4478190Y4781066D01*
X4478052Y4780927D01*
X4477431Y4780346D01*
X4477283Y4780216D01*
X4476626Y4779677D01*
X4476471Y4779557D01*
X4475779Y4779062D01*
X4475616Y4778953D01*
X4474894Y4778504D01*
X4474724Y4778406D01*
X4473974Y4778005D01*
X4473798Y4777918D01*
X4473024Y4777567D01*
X4472843Y4777492D01*
X4472047Y4777193D01*
X4471861Y4777130D01*
X4471047Y4776883D01*
X4470858Y4776832D01*
X4470030Y4776639D01*
X4469837Y4776601D01*
X4468998Y4776462D01*
X4468804Y4776437D01*
X4467958Y4776353D01*
X4467762Y4776340D01*
X4466912Y4776313D01*
X4466716Y4776313D01*
X4465866Y4776340D01*
X4465670Y4776353D01*
X4464824Y4776437D01*
X4464629Y4776462D01*
X4463791Y4776601D01*
X4463598Y4776639D01*
X4462770Y4776832D01*
X4462581Y4776883D01*
X4461767Y4777130D01*
X4461581Y4777193D01*
X4460785Y4777492D01*
X4460604Y4777567D01*
X4459830Y4777918D01*
X4459654Y4778005D01*
X4458904Y4778406D01*
X4458734Y4778504D01*
X4458012Y4778953D01*
X4457849Y4779062D01*
X4457157Y4779557D01*
X4457002Y4779677D01*
X4456344Y4780216D01*
X4456197Y4780346D01*
X4455576Y4780927D01*
X4455438Y4781066D01*
X4454856Y4781686D01*
X4454727Y4781834D01*
X4454188Y4782491D01*
X4454068Y4782647D01*
X4453573Y4783338D01*
X4453464Y4783501D01*
X4453015Y4784223D01*
X4452917Y4784393D01*
X4452516Y4785143D01*
X4452429Y4785319D01*
X4452078Y4786093D01*
X4452003Y4786275D01*
X4451704Y4787070D01*
X4451641Y4787256D01*
X4451394Y4788070D01*
X4451343Y4788259D01*
X4451150Y4789087D01*
X4451112Y4789280D01*
X4450973Y4790119D01*
X4450947Y4790313D01*
X4450864Y4791159D01*
X4450851Y4791355D01*
X4450823Y4792205D01*
X4450823Y4792401D01*
X4450851Y4793251D01*
X4450864Y4793447D01*
X4450947Y4794293D01*
X4450973Y4794488D01*
X4451112Y4795326D01*
X4451150Y4795519D01*
X4451343Y4796347D01*
X4451394Y4796537D01*
X4451641Y4797350D01*
X4451704Y4797536D01*
X4452003Y4798332D01*
X4452078Y4798513D01*
X4452429Y4799288D01*
X4452516Y4799464D01*
X4452917Y4800213D01*
X4453015Y4800383D01*
X4453464Y4801105D01*
X4453573Y4801269D01*
X4454068Y4801960D01*
X4454188Y4802115D01*
X4454727Y4802773D01*
X4454856Y4802920D01*
X4455438Y4803541D01*
X4455576Y4803680D01*
X4456197Y4804261D01*
X4456344Y4804390D01*
X4457002Y4804930D01*
X4457157Y4805049D01*
X4457849Y4805544D01*
X4458012Y4805653D01*
X4458734Y4806102D01*
X4458904Y4806200D01*
X4459654Y4806601D01*
X4459830Y4806688D01*
X4460604Y4807039D01*
X4460785Y4807114D01*
X4461581Y4807414D01*
X4461767Y4807477D01*
X4462581Y4807723D01*
X4462770Y4807774D01*
X4463598Y4807967D01*
X4463791Y4808006D01*
X4464629Y4808144D01*
X4464824Y4808170D01*
X4465670Y4808253D01*
X4465866Y4808266D01*
X4466716Y4808294D01*
X4466912Y4808294D01*
X4467762Y4808266D01*
X4467958Y4808253D01*
X4468804Y4808170D01*
X4468998Y4808144D01*
X4469837Y4808006D01*
X4470030Y4807967D01*
X4470858Y4807774D01*
X4471047Y4807723D01*
X4471861Y4807477D01*
X4472047Y4807414D01*
X4472843Y4807114D01*
X4473024Y4807039D01*
X4473798Y4806688D01*
X4473974Y4806601D01*
X4474724Y4806200D01*
X4474894Y4806102D01*
X4475616Y4805653D01*
X4475779Y4805544D01*
X4476471Y4805049D01*
X4476626Y4804930D01*
X4477283Y4804390D01*
X4477431Y4804261D01*
X4478052Y4803680D01*
X4478190Y4803541D01*
X4478772Y4802920D01*
X4478901Y4802773D01*
X4479440Y4802115D01*
X4479560Y4801960D01*
X4480055Y4801269D01*
X4480164Y4801105D01*
X4480613Y4800383D01*
X4480711Y4800213D01*
X4481112Y4799464D01*
X4481199Y4799288D01*
X4481550Y4798513D01*
X4481625Y4798332D01*
X4481924Y4797536D01*
X4481987Y4797350D01*
X4482234Y4796537D01*
X4482285Y4796347D01*
X4482478Y4795519D01*
X4482516Y4795326D01*
X4482655Y4794488D01*
X4482681Y4794293D01*
X4482764Y4793447D01*
X4482777Y4793251D01*
X4482804Y4792401D01*
X4482804Y4792205D01*
X4482777Y4791355D01*
X4482764Y4791159D01*
X4482681Y4790313D01*
G37*
G36*
G01*
X4482681Y4890707D02*
X4482655Y4890512D01*
X4482516Y4889674D01*
X4482478Y4889481D01*
X4482285Y4888653D01*
X4482234Y4888463D01*
X4481987Y4887650D01*
X4481924Y4887464D01*
X4481625Y4886668D01*
X4481550Y4886487D01*
X4481199Y4885712D01*
X4481112Y4885536D01*
X4480711Y4884787D01*
X4480613Y4884617D01*
X4480164Y4883895D01*
X4480055Y4883731D01*
X4479560Y4883040D01*
X4479440Y4882885D01*
X4478901Y4882227D01*
X4478772Y4882080D01*
X4478190Y4881459D01*
X4478052Y4881320D01*
X4477431Y4880739D01*
X4477283Y4880610D01*
X4476626Y4880070D01*
X4476471Y4879951D01*
X4475779Y4879456D01*
X4475616Y4879347D01*
X4474894Y4878898D01*
X4474724Y4878800D01*
X4473974Y4878399D01*
X4473798Y4878312D01*
X4473024Y4877961D01*
X4472843Y4877886D01*
X4472047Y4877586D01*
X4471861Y4877523D01*
X4471047Y4877277D01*
X4470858Y4877226D01*
X4470030Y4877033D01*
X4469837Y4876994D01*
X4468998Y4876856D01*
X4468804Y4876830D01*
X4467958Y4876747D01*
X4467762Y4876734D01*
X4466912Y4876706D01*
X4466716Y4876706D01*
X4465866Y4876734D01*
X4465670Y4876747D01*
X4464824Y4876830D01*
X4464629Y4876856D01*
X4463791Y4876994D01*
X4463598Y4877033D01*
X4462770Y4877226D01*
X4462581Y4877277D01*
X4461767Y4877523D01*
X4461581Y4877586D01*
X4460785Y4877886D01*
X4460604Y4877961D01*
X4459830Y4878312D01*
X4459654Y4878399D01*
X4458904Y4878800D01*
X4458734Y4878898D01*
X4458012Y4879347D01*
X4457849Y4879456D01*
X4457157Y4879951D01*
X4457002Y4880070D01*
X4456344Y4880610D01*
X4456197Y4880739D01*
X4455576Y4881320D01*
X4455438Y4881459D01*
X4454856Y4882080D01*
X4454727Y4882227D01*
X4454188Y4882885D01*
X4454068Y4883040D01*
X4453573Y4883731D01*
X4453464Y4883895D01*
X4453015Y4884617D01*
X4452917Y4884787D01*
X4452516Y4885536D01*
X4452429Y4885712D01*
X4452078Y4886487D01*
X4452003Y4886668D01*
X4451704Y4887464D01*
X4451641Y4887650D01*
X4451394Y4888463D01*
X4451343Y4888653D01*
X4451150Y4889481D01*
X4451112Y4889674D01*
X4450973Y4890512D01*
X4450947Y4890707D01*
X4450864Y4891553D01*
X4450851Y4891749D01*
X4450823Y4892599D01*
X4450823Y4892795D01*
X4450851Y4893645D01*
X4450864Y4893841D01*
X4450947Y4894687D01*
X4450973Y4894881D01*
X4451112Y4895720D01*
X4451150Y4895913D01*
X4451343Y4896741D01*
X4451394Y4896930D01*
X4451641Y4897744D01*
X4451704Y4897930D01*
X4452003Y4898725D01*
X4452078Y4898907D01*
X4452429Y4899681D01*
X4452516Y4899857D01*
X4452917Y4900607D01*
X4453015Y4900777D01*
X4453464Y4901499D01*
X4453573Y4901662D01*
X4454068Y4902353D01*
X4454188Y4902509D01*
X4454727Y4903166D01*
X4454856Y4903314D01*
X4455438Y4903934D01*
X4455576Y4904073D01*
X4456197Y4904654D01*
X4456344Y4904784D01*
X4457002Y4905323D01*
X4457157Y4905443D01*
X4457849Y4905938D01*
X4458012Y4906047D01*
X4458734Y4906496D01*
X4458904Y4906594D01*
X4459654Y4906995D01*
X4459830Y4907082D01*
X4460604Y4907433D01*
X4460785Y4907508D01*
X4461581Y4907807D01*
X4461767Y4907870D01*
X4462581Y4908117D01*
X4462770Y4908168D01*
X4463598Y4908361D01*
X4463791Y4908399D01*
X4464629Y4908538D01*
X4464824Y4908563D01*
X4465670Y4908647D01*
X4465866Y4908660D01*
X4466716Y4908687D01*
X4466912Y4908687D01*
X4467762Y4908660D01*
X4467958Y4908647D01*
X4468804Y4908563D01*
X4468998Y4908538D01*
X4469837Y4908399D01*
X4470030Y4908361D01*
X4470858Y4908168D01*
X4471047Y4908117D01*
X4471861Y4907870D01*
X4472047Y4907807D01*
X4472843Y4907508D01*
X4473024Y4907433D01*
X4473798Y4907082D01*
X4473974Y4906995D01*
X4474724Y4906594D01*
X4474894Y4906496D01*
X4475616Y4906047D01*
X4475779Y4905938D01*
X4476471Y4905443D01*
X4476626Y4905323D01*
X4477283Y4904784D01*
X4477431Y4904654D01*
X4478052Y4904073D01*
X4478190Y4903934D01*
X4478772Y4903314D01*
X4478901Y4903166D01*
X4479440Y4902509D01*
X4479560Y4902353D01*
X4480055Y4901662D01*
X4480164Y4901499D01*
X4480613Y4900777D01*
X4480711Y4900607D01*
X4481112Y4899857D01*
X4481199Y4899681D01*
X4481550Y4898907D01*
X4481625Y4898725D01*
X4481924Y4897930D01*
X4481987Y4897744D01*
X4482234Y4896930D01*
X4482285Y4896741D01*
X4482478Y4895913D01*
X4482516Y4895720D01*
X4482655Y4894881D01*
X4482681Y4894687D01*
X4482764Y4893841D01*
X4482777Y4893645D01*
X4482804Y4892795D01*
X4482804Y4892599D01*
X4482777Y4891749D01*
X4482764Y4891553D01*
X4482681Y4890707D01*
G37*
G36*
G01*
X4122293Y5896966D02*
X4122085Y5895707D01*
X4122047Y5895515D01*
X4121757Y5894272D01*
X4121706Y5894082D01*
X4121336Y5892861D01*
X4121273Y5892675D01*
X4120823Y5891481D01*
X4120748Y5891300D01*
X4120222Y5890137D01*
X4120135Y5889961D01*
X4119533Y5888836D01*
X4119435Y5888666D01*
X4118761Y5887582D01*
X4118652Y5887419D01*
X4117909Y5886382D01*
X4117789Y5886226D01*
X4116980Y5885240D01*
X4116850Y5885092D01*
X4115978Y5884161D01*
X4115839Y5884022D01*
X4114908Y5883150D01*
X4114760Y5883020D01*
X4113774Y5882211D01*
X4113618Y5882091D01*
X4112581Y5881348D01*
X4112418Y5881239D01*
X4111334Y5880565D01*
X4111164Y5880467D01*
X4110039Y5879865D01*
X4109863Y5879778D01*
X4108700Y5879252D01*
X4108519Y5879177D01*
X4107325Y5878727D01*
X4107139Y5878664D01*
X4105918Y5878294D01*
X4105728Y5878243D01*
X4104485Y5877953D01*
X4104293Y5877915D01*
X4103034Y5877707D01*
X4102839Y5877681D01*
X4101569Y5877556D01*
X4101374Y5877543D01*
X4100098Y5877502D01*
X4099902Y5877502D01*
X4098626Y5877543D01*
X4098431Y5877556D01*
X4097161Y5877681D01*
X4096966Y5877707D01*
X4095707Y5877915D01*
X4095515Y5877953D01*
X4094272Y5878243D01*
X4094082Y5878294D01*
X4092861Y5878664D01*
X4092675Y5878727D01*
X4091481Y5879177D01*
X4091300Y5879252D01*
X4090137Y5879778D01*
X4089961Y5879865D01*
X4088836Y5880467D01*
X4088666Y5880565D01*
X4087582Y5881239D01*
X4087419Y5881348D01*
X4086382Y5882091D01*
X4086226Y5882211D01*
X4085240Y5883020D01*
X4085092Y5883150D01*
X4084161Y5884022D01*
X4084022Y5884161D01*
X4083150Y5885092D01*
X4083020Y5885240D01*
X4082211Y5886226D01*
X4082091Y5886382D01*
X4081348Y5887419D01*
X4081239Y5887582D01*
X4080565Y5888666D01*
X4080467Y5888836D01*
X4079865Y5889961D01*
X4079778Y5890137D01*
X4079252Y5891300D01*
X4079177Y5891481D01*
X4078727Y5892675D01*
X4078664Y5892861D01*
X4078294Y5894082D01*
X4078243Y5894272D01*
X4077953Y5895515D01*
X4077915Y5895707D01*
X4077707Y5896966D01*
X4077681Y5897161D01*
X4077556Y5898431D01*
X4077543Y5898626D01*
X4077502Y5899902D01*
X4077502Y5900098D01*
X4077543Y5901374D01*
X4077556Y5901569D01*
X4077681Y5902839D01*
X4077707Y5903034D01*
X4077915Y5904293D01*
X4077953Y5904485D01*
X4078243Y5905728D01*
X4078294Y5905918D01*
X4078664Y5907139D01*
X4078727Y5907325D01*
X4079177Y5908519D01*
X4079252Y5908700D01*
X4079778Y5909863D01*
X4079865Y5910039D01*
X4080467Y5911164D01*
X4080565Y5911334D01*
X4081239Y5912418D01*
X4081348Y5912581D01*
X4082091Y5913618D01*
X4082211Y5913774D01*
X4083020Y5914760D01*
X4083150Y5914908D01*
X4084022Y5915839D01*
X4084161Y5915978D01*
X4085092Y5916850D01*
X4085240Y5916980D01*
X4086226Y5917789D01*
X4086382Y5917909D01*
X4087419Y5918652D01*
X4087582Y5918761D01*
X4088666Y5919435D01*
X4088836Y5919533D01*
X4089961Y5920135D01*
X4090137Y5920222D01*
X4091300Y5920748D01*
X4091481Y5920823D01*
X4092675Y5921273D01*
X4092861Y5921336D01*
X4094082Y5921706D01*
X4094272Y5921757D01*
X4095515Y5922047D01*
X4095707Y5922085D01*
X4096966Y5922293D01*
X4097161Y5922319D01*
X4098431Y5922444D01*
X4098626Y5922457D01*
X4099902Y5922498D01*
X4100098Y5922498D01*
X4101374Y5922457D01*
X4101569Y5922444D01*
X4102839Y5922319D01*
X4103034Y5922293D01*
X4104293Y5922085D01*
X4104485Y5922047D01*
X4105728Y5921757D01*
X4105918Y5921706D01*
X4107139Y5921336D01*
X4107325Y5921273D01*
X4108519Y5920823D01*
X4108700Y5920748D01*
X4109863Y5920222D01*
X4110039Y5920135D01*
X4111164Y5919533D01*
X4111334Y5919435D01*
X4112418Y5918761D01*
X4112581Y5918652D01*
X4113618Y5917909D01*
X4113774Y5917789D01*
X4114760Y5916980D01*
X4114908Y5916850D01*
X4115839Y5915978D01*
X4115978Y5915839D01*
X4116850Y5914908D01*
X4116980Y5914760D01*
X4117789Y5913774D01*
X4117909Y5913618D01*
X4118652Y5912581D01*
X4118761Y5912418D01*
X4119435Y5911334D01*
X4119533Y5911164D01*
X4120135Y5910039D01*
X4120222Y5909863D01*
X4120748Y5908700D01*
X4120823Y5908519D01*
X4121273Y5907325D01*
X4121336Y5907139D01*
X4121706Y5905918D01*
X4121757Y5905728D01*
X4122047Y5904485D01*
X4122085Y5904293D01*
X4122293Y5903034D01*
X4122319Y5902839D01*
X4122444Y5901569D01*
X4122457Y5901374D01*
X4122498Y5900098D01*
X4122498Y5899902D01*
X4122457Y5898626D01*
X4122444Y5898431D01*
X4122319Y5897161D01*
X4122293Y5896966D01*
G37*
G36*
G01*
X3922293Y5856966D02*
X3922085Y5855707D01*
X3922047Y5855515D01*
X3921757Y5854272D01*
X3921706Y5854082D01*
X3921336Y5852861D01*
X3921273Y5852675D01*
X3920823Y5851481D01*
X3920748Y5851300D01*
X3920222Y5850137D01*
X3920135Y5849961D01*
X3919533Y5848836D01*
X3919435Y5848666D01*
X3918761Y5847582D01*
X3918652Y5847419D01*
X3917909Y5846382D01*
X3917789Y5846226D01*
X3916980Y5845240D01*
X3916850Y5845092D01*
X3915978Y5844161D01*
X3915839Y5844022D01*
X3914908Y5843150D01*
X3914760Y5843020D01*
X3913774Y5842211D01*
X3913618Y5842091D01*
X3912581Y5841348D01*
X3912418Y5841239D01*
X3911334Y5840565D01*
X3911164Y5840467D01*
X3910039Y5839865D01*
X3909863Y5839778D01*
X3908700Y5839252D01*
X3908519Y5839177D01*
X3907325Y5838727D01*
X3907139Y5838664D01*
X3905918Y5838294D01*
X3905728Y5838243D01*
X3904485Y5837953D01*
X3904293Y5837915D01*
X3903034Y5837707D01*
X3902839Y5837681D01*
X3901569Y5837556D01*
X3901374Y5837543D01*
X3900098Y5837502D01*
X3899902Y5837502D01*
X3898626Y5837543D01*
X3898431Y5837556D01*
X3897161Y5837681D01*
X3896966Y5837707D01*
X3895707Y5837915D01*
X3895515Y5837953D01*
X3894272Y5838243D01*
X3894082Y5838294D01*
X3892861Y5838664D01*
X3892675Y5838727D01*
X3891481Y5839177D01*
X3891300Y5839252D01*
X3890137Y5839778D01*
X3889961Y5839865D01*
X3888836Y5840467D01*
X3888666Y5840565D01*
X3887582Y5841239D01*
X3887419Y5841348D01*
X3886382Y5842091D01*
X3886226Y5842211D01*
X3885240Y5843020D01*
X3885092Y5843150D01*
X3884161Y5844022D01*
X3884022Y5844161D01*
X3883150Y5845092D01*
X3883020Y5845240D01*
X3882211Y5846226D01*
X3882091Y5846382D01*
X3881348Y5847419D01*
X3881239Y5847582D01*
X3880565Y5848666D01*
X3880467Y5848836D01*
X3879865Y5849961D01*
X3879778Y5850137D01*
X3879252Y5851300D01*
X3879177Y5851481D01*
X3878727Y5852675D01*
X3878664Y5852861D01*
X3878294Y5854082D01*
X3878243Y5854272D01*
X3877953Y5855515D01*
X3877915Y5855707D01*
X3877707Y5856966D01*
X3877681Y5857161D01*
X3877556Y5858431D01*
X3877543Y5858626D01*
X3877502Y5859902D01*
X3877502Y5860098D01*
X3877543Y5861374D01*
X3877556Y5861569D01*
X3877681Y5862839D01*
X3877707Y5863034D01*
X3877915Y5864293D01*
X3877953Y5864485D01*
X3878243Y5865728D01*
X3878294Y5865918D01*
X3878664Y5867139D01*
X3878727Y5867325D01*
X3879177Y5868519D01*
X3879252Y5868700D01*
X3879778Y5869863D01*
X3879865Y5870039D01*
X3880467Y5871164D01*
X3880565Y5871334D01*
X3881239Y5872418D01*
X3881348Y5872581D01*
X3882091Y5873618D01*
X3882211Y5873774D01*
X3883020Y5874760D01*
X3883150Y5874908D01*
X3884022Y5875839D01*
X3884161Y5875978D01*
X3885092Y5876850D01*
X3885240Y5876980D01*
X3886226Y5877789D01*
X3886382Y5877909D01*
X3887419Y5878652D01*
X3887582Y5878761D01*
X3888666Y5879435D01*
X3888836Y5879533D01*
X3889961Y5880135D01*
X3890137Y5880222D01*
X3891300Y5880748D01*
X3891481Y5880823D01*
X3892675Y5881273D01*
X3892861Y5881336D01*
X3894082Y5881706D01*
X3894272Y5881757D01*
X3895515Y5882047D01*
X3895707Y5882085D01*
X3896966Y5882293D01*
X3897161Y5882319D01*
X3898431Y5882444D01*
X3898626Y5882457D01*
X3899902Y5882498D01*
X3900098Y5882498D01*
X3901374Y5882457D01*
X3901569Y5882444D01*
X3902839Y5882319D01*
X3903034Y5882293D01*
X3904293Y5882085D01*
X3904485Y5882047D01*
X3905728Y5881757D01*
X3905918Y5881706D01*
X3907139Y5881336D01*
X3907325Y5881273D01*
X3908519Y5880823D01*
X3908700Y5880748D01*
X3909863Y5880222D01*
X3910039Y5880135D01*
X3911164Y5879533D01*
X3911334Y5879435D01*
X3912418Y5878761D01*
X3912581Y5878652D01*
X3913618Y5877909D01*
X3913774Y5877789D01*
X3914760Y5876980D01*
X3914908Y5876850D01*
X3915839Y5875978D01*
X3915978Y5875839D01*
X3916850Y5874908D01*
X3916980Y5874760D01*
X3917789Y5873774D01*
X3917909Y5873618D01*
X3918652Y5872581D01*
X3918761Y5872418D01*
X3919435Y5871334D01*
X3919533Y5871164D01*
X3920135Y5870039D01*
X3920222Y5869863D01*
X3920748Y5868700D01*
X3920823Y5868519D01*
X3921273Y5867325D01*
X3921336Y5867139D01*
X3921706Y5865918D01*
X3921757Y5865728D01*
X3922047Y5864485D01*
X3922085Y5864293D01*
X3922293Y5863034D01*
X3922319Y5862839D01*
X3922444Y5861569D01*
X3922457Y5861374D01*
X3922498Y5860098D01*
X3922498Y5859902D01*
X3922457Y5858626D01*
X3922444Y5858431D01*
X3922319Y5857161D01*
X3922293Y5856966D01*
G37*
G36*
G01*
X3922319Y5937161D02*
X3922293Y5936966D01*
X3922085Y5935707D01*
X3922047Y5935515D01*
X3921757Y5934272D01*
X3921706Y5934082D01*
X3921336Y5932861D01*
X3921273Y5932675D01*
X3920823Y5931481D01*
X3920748Y5931300D01*
X3920222Y5930137D01*
X3920135Y5929961D01*
X3919533Y5928836D01*
X3919435Y5928666D01*
X3918761Y5927582D01*
X3918652Y5927419D01*
X3917909Y5926382D01*
X3917789Y5926226D01*
X3916980Y5925240D01*
X3916850Y5925092D01*
X3915978Y5924161D01*
X3915839Y5924022D01*
X3914908Y5923150D01*
X3914760Y5923020D01*
X3913774Y5922211D01*
X3913618Y5922091D01*
X3912581Y5921348D01*
X3912418Y5921239D01*
X3911334Y5920565D01*
X3911164Y5920467D01*
X3910039Y5919865D01*
X3909863Y5919778D01*
X3908700Y5919252D01*
X3908519Y5919177D01*
X3907325Y5918727D01*
X3907139Y5918664D01*
X3905918Y5918294D01*
X3905728Y5918243D01*
X3904485Y5917953D01*
X3904293Y5917915D01*
X3903034Y5917707D01*
X3902839Y5917681D01*
X3901569Y5917556D01*
X3901374Y5917543D01*
X3900098Y5917502D01*
X3899902Y5917502D01*
X3898626Y5917543D01*
X3898431Y5917556D01*
X3897161Y5917681D01*
X3896966Y5917707D01*
X3895707Y5917915D01*
X3895515Y5917953D01*
X3894272Y5918243D01*
X3894082Y5918294D01*
X3892861Y5918664D01*
X3892675Y5918727D01*
X3891481Y5919177D01*
X3891300Y5919252D01*
X3890137Y5919778D01*
X3889961Y5919865D01*
X3888836Y5920467D01*
X3888666Y5920565D01*
X3887582Y5921239D01*
X3887419Y5921348D01*
X3886382Y5922091D01*
X3886226Y5922211D01*
X3885240Y5923020D01*
X3885092Y5923150D01*
X3884161Y5924022D01*
X3884022Y5924161D01*
X3883150Y5925092D01*
X3883020Y5925240D01*
X3882211Y5926226D01*
X3882091Y5926382D01*
X3881348Y5927419D01*
X3881239Y5927582D01*
X3880565Y5928666D01*
X3880467Y5928836D01*
X3879865Y5929961D01*
X3879778Y5930137D01*
X3879252Y5931300D01*
X3879177Y5931481D01*
X3878727Y5932675D01*
X3878664Y5932861D01*
X3878294Y5934082D01*
X3878243Y5934272D01*
X3877953Y5935515D01*
X3877915Y5935707D01*
X3877707Y5936966D01*
X3877681Y5937161D01*
X3877556Y5938431D01*
X3877543Y5938626D01*
X3877502Y5939902D01*
X3877502Y5940098D01*
X3877543Y5941374D01*
X3877556Y5941569D01*
X3877681Y5942839D01*
X3877707Y5943034D01*
X3877915Y5944293D01*
X3877953Y5944485D01*
X3878243Y5945728D01*
X3878294Y5945918D01*
X3878664Y5947139D01*
X3878727Y5947325D01*
X3879177Y5948519D01*
X3879252Y5948700D01*
X3879778Y5949863D01*
X3879865Y5950039D01*
X3880467Y5951164D01*
X3880565Y5951334D01*
X3881239Y5952418D01*
X3881348Y5952581D01*
X3882091Y5953618D01*
X3882211Y5953774D01*
X3883020Y5954760D01*
X3883150Y5954908D01*
X3884022Y5955839D01*
X3884161Y5955978D01*
X3885092Y5956850D01*
X3885240Y5956980D01*
X3886226Y5957789D01*
X3886382Y5957909D01*
X3887419Y5958652D01*
X3887582Y5958761D01*
X3888666Y5959435D01*
X3888836Y5959533D01*
X3889961Y5960135D01*
X3890137Y5960222D01*
X3891300Y5960748D01*
X3891481Y5960823D01*
X3892675Y5961273D01*
X3892861Y5961336D01*
X3894082Y5961706D01*
X3894272Y5961757D01*
X3895515Y5962047D01*
X3895707Y5962085D01*
X3896966Y5962293D01*
X3897161Y5962319D01*
X3898431Y5962444D01*
X3898626Y5962457D01*
X3899902Y5962498D01*
X3900098Y5962498D01*
X3901374Y5962457D01*
X3901569Y5962444D01*
X3902839Y5962319D01*
X3903034Y5962293D01*
X3904293Y5962085D01*
X3904485Y5962047D01*
X3905728Y5961757D01*
X3905918Y5961706D01*
X3907139Y5961336D01*
X3907325Y5961273D01*
X3908519Y5960823D01*
X3908700Y5960748D01*
X3909863Y5960222D01*
X3910039Y5960135D01*
X3911164Y5959533D01*
X3911334Y5959435D01*
X3912418Y5958761D01*
X3912581Y5958652D01*
X3913618Y5957909D01*
X3913774Y5957789D01*
X3914760Y5956980D01*
X3914908Y5956850D01*
X3915839Y5955978D01*
X3915978Y5955839D01*
X3916850Y5954908D01*
X3916980Y5954760D01*
X3917789Y5953774D01*
X3917909Y5953618D01*
X3918652Y5952581D01*
X3918761Y5952418D01*
X3919435Y5951334D01*
X3919533Y5951164D01*
X3920135Y5950039D01*
X3920222Y5949863D01*
X3920748Y5948700D01*
X3920823Y5948519D01*
X3921273Y5947325D01*
X3921336Y5947139D01*
X3921706Y5945918D01*
X3921757Y5945728D01*
X3922047Y5944485D01*
X3922085Y5944293D01*
X3922293Y5943034D01*
X3922319Y5942839D01*
X3922444Y5941569D01*
X3922457Y5941374D01*
X3922498Y5940098D01*
X3922498Y5939902D01*
X3922457Y5938626D01*
X3922444Y5938431D01*
X3922319Y5937161D01*
G37*
M02*
