G04 Layer: TopSolderMaskLayer*
G04 EasyEDA v6.5.44, 2024-07-16 09:33:37*
G04 92fc93377fd146f58095a2b6f3fb7df7,4528e9a37e1d4fff95ee12c27a66ef09,10*
G04 Gerber Generator version 0.2*
G04 Scale: 100 percent, Rotated: No, Reflected: No *
G04 Dimensions in inches *
G04 leading zeros omitted , absolute positions ,3 integer and 6 decimal *
%FSLAX36Y36*%
%MOIN*%

%AMMACRO1*4,1,8,-0.0126,-0.0231,-0.0138,-0.0219,-0.0138,0.0219,-0.0126,0.0231,0.0126,0.0231,0.0138,0.0219,0.0138,-0.0219,0.0126,-0.0231,-0.0126,-0.0231,0*%
%AMMACRO2*4,1,8,-0.0231,-0.0291,-0.0243,-0.0279,-0.0243,0.0279,-0.0231,0.0291,0.0231,0.0291,0.0243,0.0279,0.0243,-0.0279,0.0231,-0.0291,-0.0231,-0.0291,0*%
%AMMACRO3*4,1,8,-0.0279,-0.0243,-0.0291,-0.0231,-0.0291,0.0231,-0.0279,0.0243,0.0279,0.0243,0.0291,0.0231,0.0291,-0.0231,0.0279,-0.0243,-0.0279,-0.0243,0*%
%ADD10C,0.0640*%
%ADD11MACRO1*%
%ADD12MACRO2*%
%ADD13MACRO3*%

%LPD*%
G36*
X3748800Y3815000D02*
G01*
X3741980Y3814900D01*
X3741840Y3813980D01*
X3741540Y3809620D01*
X3741200Y3799280D01*
X3741540Y3789080D01*
X3741980Y3783700D01*
X3780600Y3783500D01*
X3780440Y3783060D01*
X3741060Y3709940D01*
X3740040Y3702000D01*
X3740000Y3691160D01*
X3740380Y3687780D01*
X3740820Y3685320D01*
X3741540Y3682580D01*
X3742180Y3680820D01*
X3823900Y3680820D01*
X3823900Y3620960D01*
X3824200Y3614760D01*
X3824640Y3610820D01*
X3825220Y3607440D01*
X3825980Y3604200D01*
X3826960Y3601120D01*
X3827880Y3598720D01*
X3829320Y3595720D01*
X3830779Y3593320D01*
X3832020Y3591540D01*
X3834020Y3589140D01*
X3837919Y3585880D01*
X3841100Y3583880D01*
X3844960Y3582080D01*
X3848200Y3580940D01*
X3850980Y3580220D01*
X3853920Y3579640D01*
X3857000Y3579220D01*
X3861700Y3578820D01*
X3866880Y3578820D01*
X3870960Y3579220D01*
X3873300Y3579640D01*
X3875360Y3580179D01*
X3879320Y3581640D01*
X3881960Y3582940D01*
X3883880Y3584220D01*
X3886360Y3586180D01*
X3889160Y3588880D01*
X3890880Y3591100D01*
X3892400Y3593380D01*
X3895360Y3598440D01*
X3897220Y3602020D01*
X3897380Y3602000D01*
X3900020Y3596900D01*
X3901660Y3594500D01*
X3904040Y3591640D01*
X3906040Y3589600D01*
X3909120Y3586940D01*
X3911920Y3584900D01*
X3915740Y3582640D01*
X3919300Y3580940D01*
X3922340Y3579960D01*
X3926000Y3579240D01*
X3930120Y3578780D01*
X3936139Y3578940D01*
X3941580Y3579680D01*
X3943920Y3580240D01*
X3947559Y3581380D01*
X3950820Y3582720D01*
X3952880Y3583720D01*
X3955820Y3585460D01*
X3957860Y3586880D01*
X3960659Y3589180D01*
X3963420Y3591960D01*
X3966280Y3595480D01*
X3968460Y3598720D01*
X3970260Y3601860D01*
X3971780Y3605200D01*
X3973180Y3608720D01*
X3974360Y3612940D01*
X3975260Y3617020D01*
X3975840Y3621100D01*
X3976220Y3625320D01*
X3976220Y3709300D01*
X3975820Y3711280D01*
X3975380Y3712860D01*
X3972400Y3713320D01*
X3967559Y3713880D01*
X3961580Y3714300D01*
X3952580Y3714300D01*
X3946860Y3713880D01*
X3943180Y3713440D01*
X3939660Y3712880D01*
X3939580Y3712799D01*
X3938960Y3708880D01*
X3938759Y3635020D01*
X3938260Y3631500D01*
X3937520Y3627559D01*
X3936780Y3625040D01*
X3935659Y3622780D01*
X3934520Y3621440D01*
X3933000Y3620360D01*
X3931740Y3619760D01*
X3929980Y3619300D01*
X3926740Y3619160D01*
X3924400Y3619620D01*
X3922919Y3620280D01*
X3921920Y3621080D01*
X3920520Y3623159D01*
X3919800Y3624600D01*
X3918759Y3627460D01*
X3918020Y3630940D01*
X3917559Y3633900D01*
X3917140Y3638820D01*
X3916520Y3648519D01*
X3916360Y3665280D01*
X3916860Y3687220D01*
X3916680Y3695380D01*
X3916380Y3702700D01*
X3915940Y3707060D01*
X3915360Y3710360D01*
X3914760Y3712900D01*
X3907660Y3713880D01*
X3900160Y3714600D01*
X3892679Y3714620D01*
X3889300Y3714300D01*
X3886620Y3713759D01*
X3884300Y3712900D01*
X3883519Y3709740D01*
X3883080Y3707460D01*
X3882620Y3704100D01*
X3882340Y3700860D01*
X3882020Y3693980D01*
X3881480Y3639940D01*
X3881019Y3636000D01*
X3880280Y3632060D01*
X3879380Y3628720D01*
X3877840Y3625040D01*
X3876380Y3622640D01*
X3874040Y3620360D01*
X3872280Y3619520D01*
X3870880Y3619160D01*
X3868420Y3619280D01*
X3866480Y3620179D01*
X3864840Y3621940D01*
X3863780Y3623480D01*
X3862940Y3625460D01*
X3862340Y3627500D01*
X3862040Y3628980D01*
X3861640Y3707900D01*
X3861340Y3710160D01*
X3860860Y3712860D01*
X3857000Y3713600D01*
X3854220Y3714000D01*
X3849220Y3714500D01*
X3788300Y3714480D01*
X3787320Y3714860D01*
X3787520Y3715500D01*
X3789540Y3719840D01*
X3795820Y3731540D01*
X3798540Y3736320D01*
X3811920Y3760800D01*
X3819100Y3773600D01*
X3822400Y3779800D01*
X3822880Y3781180D01*
X3823320Y3783320D01*
X3823740Y3786259D01*
X3824060Y3789500D01*
X3824520Y3801880D01*
X3824180Y3808500D01*
X3823740Y3811740D01*
X3823220Y3814340D01*
X3823039Y3814520D01*
X3788740Y3814900D01*
G37*
G36*
X4817760Y4362480D02*
G01*
X4811420Y4362320D01*
X4805100Y4361840D01*
X4798800Y4361040D01*
X4792560Y4359920D01*
X4786380Y4358500D01*
X4780280Y4356740D01*
X4774280Y4354700D01*
X4768380Y4352340D01*
X4762620Y4349700D01*
X4757000Y4346760D01*
X4751540Y4343540D01*
X4746240Y4340040D01*
X4741120Y4336300D01*
X4736200Y4332280D01*
X4731500Y4328040D01*
X4711480Y4308060D01*
X4706980Y4303340D01*
X4702760Y4298380D01*
X4698780Y4293200D01*
X4695100Y4287820D01*
X4691680Y4282260D01*
X4688580Y4276540D01*
X4685760Y4270660D01*
X4683280Y4264640D01*
X4682140Y4261580D01*
X4680120Y4255380D01*
X4678440Y4249080D01*
X4677080Y4242700D01*
X4676060Y4236260D01*
X4675380Y4229780D01*
X4675040Y4223260D01*
X4675040Y4217200D01*
X4675360Y4211580D01*
X4676020Y4206000D01*
X4677000Y4200480D01*
X4677600Y4197720D01*
X4679060Y4192300D01*
X4680820Y4186980D01*
X4682900Y4181760D01*
X4684040Y4179180D01*
X4686560Y4174160D01*
X4689380Y4169300D01*
X4692460Y4164620D01*
X4695820Y4160100D01*
X4699420Y4155800D01*
X4703280Y4151720D01*
X4736920Y4118140D01*
X4740940Y4114580D01*
X4745180Y4111300D01*
X4749620Y4108279D01*
X4754240Y4105560D01*
X4759020Y4103120D01*
X4763940Y4101000D01*
X4766440Y4100040D01*
X4771540Y4098380D01*
X4776740Y4097060D01*
X4782000Y4096060D01*
X4787320Y4095380D01*
X4792680Y4095040D01*
X4840500Y4095000D01*
X4846760Y4095160D01*
X4853000Y4095659D01*
X4859200Y4096480D01*
X4862280Y4097000D01*
X4868400Y4098300D01*
X4874440Y4099920D01*
X4880400Y4101860D01*
X4886240Y4104100D01*
X4891940Y4106640D01*
X4897520Y4109480D01*
X4902940Y4112600D01*
X4908180Y4116019D01*
X4913240Y4119700D01*
X4918100Y4123639D01*
X4922760Y4127820D01*
X4926100Y4131100D01*
X4930740Y4135980D01*
X4935120Y4141080D01*
X4939240Y4146400D01*
X4943080Y4151940D01*
X4946640Y4157640D01*
X4949920Y4163519D01*
X4952880Y4169560D01*
X4955520Y4175740D01*
X4956740Y4178880D01*
X4958920Y4185240D01*
X4960760Y4191720D01*
X4962280Y4198280D01*
X4962920Y4201580D01*
X4963940Y4208220D01*
X4964620Y4214920D01*
X4964960Y4221640D01*
X4964960Y4227960D01*
X4964620Y4233880D01*
X4964340Y4236840D01*
X4963500Y4242700D01*
X4962340Y4248520D01*
X4960860Y4254260D01*
X4959060Y4259920D01*
X4956960Y4265460D01*
X4954540Y4270860D01*
X4951820Y4276140D01*
X4948800Y4281240D01*
X4945500Y4286180D01*
X4941940Y4290900D01*
X4938120Y4295440D01*
X4934040Y4299740D01*
X4889560Y4344240D01*
X4819960Y4362480D01*
G37*
G36*
X4557760Y4107480D02*
G01*
X4551420Y4107320D01*
X4545100Y4106840D01*
X4538800Y4106040D01*
X4532560Y4104920D01*
X4526380Y4103500D01*
X4520280Y4101740D01*
X4514280Y4099700D01*
X4508380Y4097340D01*
X4502620Y4094700D01*
X4497000Y4091760D01*
X4491540Y4088540D01*
X4486240Y4085040D01*
X4481120Y4081300D01*
X4476200Y4077280D01*
X4471500Y4073039D01*
X4451480Y4053060D01*
X4446980Y4048340D01*
X4442760Y4043380D01*
X4438780Y4038200D01*
X4435100Y4032820D01*
X4431680Y4027260D01*
X4428580Y4021540D01*
X4425760Y4015659D01*
X4423280Y4009640D01*
X4422140Y4006580D01*
X4420120Y4000380D01*
X4418440Y3994080D01*
X4417080Y3987700D01*
X4416060Y3981259D01*
X4415380Y3974780D01*
X4415040Y3968260D01*
X4415040Y3962200D01*
X4415360Y3956580D01*
X4416020Y3951000D01*
X4417000Y3945480D01*
X4417600Y3942720D01*
X4419060Y3937300D01*
X4420820Y3931980D01*
X4422900Y3926760D01*
X4424040Y3924180D01*
X4426560Y3919160D01*
X4429380Y3914300D01*
X4432460Y3909620D01*
X4435820Y3905100D01*
X4439420Y3900800D01*
X4443280Y3896720D01*
X4476920Y3863140D01*
X4480940Y3859580D01*
X4485180Y3856300D01*
X4489620Y3853279D01*
X4494240Y3850560D01*
X4499020Y3848120D01*
X4503940Y3846000D01*
X4506440Y3845040D01*
X4511540Y3843380D01*
X4516740Y3842060D01*
X4522000Y3841060D01*
X4527320Y3840380D01*
X4532680Y3840040D01*
X4580500Y3840000D01*
X4586760Y3840160D01*
X4593000Y3840659D01*
X4599200Y3841480D01*
X4602280Y3842000D01*
X4608400Y3843300D01*
X4614440Y3844920D01*
X4620400Y3846860D01*
X4626240Y3849100D01*
X4631940Y3851640D01*
X4637520Y3854480D01*
X4642940Y3857600D01*
X4648180Y3861019D01*
X4653240Y3864700D01*
X4658100Y3868639D01*
X4662760Y3872820D01*
X4666100Y3876100D01*
X4670740Y3880980D01*
X4675120Y3886080D01*
X4679240Y3891400D01*
X4683080Y3896940D01*
X4686640Y3902640D01*
X4689920Y3908519D01*
X4692880Y3914560D01*
X4695520Y3920740D01*
X4696740Y3923880D01*
X4698920Y3930240D01*
X4700760Y3936720D01*
X4702280Y3943279D01*
X4702920Y3946580D01*
X4703940Y3953220D01*
X4704620Y3959920D01*
X4704960Y3966640D01*
X4704960Y3972960D01*
X4704620Y3978880D01*
X4704340Y3981840D01*
X4703500Y3987700D01*
X4702340Y3993519D01*
X4700860Y3999260D01*
X4699060Y4004920D01*
X4696960Y4010460D01*
X4694540Y4015860D01*
X4691820Y4021139D01*
X4688800Y4026240D01*
X4685500Y4031180D01*
X4681940Y4035899D01*
X4678120Y4040440D01*
X4674040Y4044740D01*
X4629560Y4089240D01*
X4559960Y4107480D01*
G37*
G36*
X2690000Y3745000D02*
G01*
X2690000Y3605000D01*
X2930000Y3605000D01*
X2930000Y3745000D01*
G37*
G36*
X1795000Y3745000D02*
G01*
X1795000Y3605000D01*
X2035000Y3605000D01*
X2035000Y3745000D01*
G37*
G36*
X2225000Y3745000D02*
G01*
X2225000Y3605000D01*
X2465000Y3605000D01*
X2465000Y3745000D01*
G37*
G36*
X842760Y4582480D02*
G01*
X836420Y4582320D01*
X830100Y4581840D01*
X823800Y4581040D01*
X817560Y4579920D01*
X811380Y4578500D01*
X805280Y4576740D01*
X799280Y4574700D01*
X793379Y4572340D01*
X787620Y4569700D01*
X782000Y4566760D01*
X776540Y4563540D01*
X771240Y4560040D01*
X766120Y4556300D01*
X761200Y4552280D01*
X756500Y4548040D01*
X736480Y4528060D01*
X731979Y4523340D01*
X727760Y4518380D01*
X723780Y4513200D01*
X720100Y4507820D01*
X716680Y4502260D01*
X713580Y4496540D01*
X710759Y4490660D01*
X708280Y4484640D01*
X707140Y4481580D01*
X705120Y4475380D01*
X703439Y4469080D01*
X702080Y4462700D01*
X701060Y4456260D01*
X700380Y4449780D01*
X700040Y4443260D01*
X700040Y4437200D01*
X700360Y4431580D01*
X701020Y4426000D01*
X702000Y4420480D01*
X702600Y4417720D01*
X704060Y4412300D01*
X705819Y4406980D01*
X707900Y4401760D01*
X709040Y4399180D01*
X711560Y4394160D01*
X714380Y4389300D01*
X717460Y4384620D01*
X720819Y4380100D01*
X724419Y4375800D01*
X728280Y4371720D01*
X761919Y4338140D01*
X765939Y4334580D01*
X770180Y4331300D01*
X774620Y4328280D01*
X779240Y4325560D01*
X784020Y4323120D01*
X788940Y4321000D01*
X791440Y4320040D01*
X796540Y4318380D01*
X801740Y4317060D01*
X807000Y4316060D01*
X812320Y4315380D01*
X817680Y4315040D01*
X865500Y4315000D01*
X871760Y4315160D01*
X878000Y4315660D01*
X884200Y4316480D01*
X887280Y4317000D01*
X893400Y4318300D01*
X899440Y4319920D01*
X905400Y4321860D01*
X911240Y4324100D01*
X916940Y4326640D01*
X922520Y4329480D01*
X927940Y4332600D01*
X933180Y4336020D01*
X938240Y4339700D01*
X943100Y4343640D01*
X947760Y4347820D01*
X951100Y4351100D01*
X955740Y4355980D01*
X960120Y4361080D01*
X964240Y4366400D01*
X968080Y4371940D01*
X971640Y4377640D01*
X974920Y4383520D01*
X977880Y4389560D01*
X980520Y4395740D01*
X981740Y4398880D01*
X983920Y4405240D01*
X985759Y4411720D01*
X987280Y4418280D01*
X987920Y4421580D01*
X988940Y4428220D01*
X989620Y4434920D01*
X989960Y4441640D01*
X989960Y4447960D01*
X989620Y4453880D01*
X989340Y4456840D01*
X988500Y4462700D01*
X987340Y4468520D01*
X985860Y4474260D01*
X984060Y4479920D01*
X981960Y4485460D01*
X979539Y4490860D01*
X976820Y4496140D01*
X973800Y4501240D01*
X970500Y4506180D01*
X966940Y4510900D01*
X963120Y4515440D01*
X959040Y4519740D01*
X914560Y4564240D01*
X844960Y4582480D01*
G37*
G36*
X1112760Y4307480D02*
G01*
X1106420Y4307320D01*
X1100100Y4306840D01*
X1093800Y4306040D01*
X1087560Y4304920D01*
X1081380Y4303500D01*
X1075280Y4301740D01*
X1069280Y4299700D01*
X1063380Y4297340D01*
X1057620Y4294700D01*
X1052000Y4291760D01*
X1046540Y4288540D01*
X1041240Y4285040D01*
X1036120Y4281300D01*
X1031200Y4277280D01*
X1026500Y4273040D01*
X1006480Y4253060D01*
X1001979Y4248340D01*
X997760Y4243380D01*
X993780Y4238200D01*
X990100Y4232820D01*
X986680Y4227260D01*
X983580Y4221540D01*
X980759Y4215660D01*
X978280Y4209640D01*
X977140Y4206580D01*
X975120Y4200380D01*
X973439Y4194080D01*
X972080Y4187700D01*
X971060Y4181259D01*
X970380Y4174780D01*
X970040Y4168260D01*
X970040Y4162200D01*
X970360Y4156580D01*
X971020Y4151000D01*
X972000Y4145480D01*
X972600Y4142720D01*
X974060Y4137300D01*
X975819Y4131980D01*
X977900Y4126760D01*
X979040Y4124180D01*
X981560Y4119160D01*
X984380Y4114300D01*
X987460Y4109620D01*
X990819Y4105100D01*
X994419Y4100800D01*
X998280Y4096720D01*
X1031919Y4063140D01*
X1035939Y4059580D01*
X1040180Y4056300D01*
X1044620Y4053279D01*
X1049240Y4050560D01*
X1054020Y4048120D01*
X1058940Y4046000D01*
X1061440Y4045040D01*
X1066540Y4043380D01*
X1071740Y4042060D01*
X1077000Y4041060D01*
X1082320Y4040380D01*
X1087680Y4040040D01*
X1135500Y4040000D01*
X1141760Y4040160D01*
X1148000Y4040659D01*
X1154200Y4041480D01*
X1157280Y4042000D01*
X1163400Y4043300D01*
X1169440Y4044920D01*
X1175400Y4046860D01*
X1181240Y4049100D01*
X1186940Y4051640D01*
X1192520Y4054480D01*
X1197940Y4057600D01*
X1203180Y4061019D01*
X1208240Y4064700D01*
X1213100Y4068639D01*
X1217760Y4072820D01*
X1221100Y4076100D01*
X1225740Y4080980D01*
X1230120Y4086080D01*
X1234240Y4091400D01*
X1238080Y4096940D01*
X1241640Y4102640D01*
X1244920Y4108519D01*
X1247880Y4114560D01*
X1250520Y4120740D01*
X1251740Y4123880D01*
X1253920Y4130240D01*
X1255760Y4136720D01*
X1257280Y4143279D01*
X1257920Y4146580D01*
X1258940Y4153220D01*
X1259620Y4159920D01*
X1259960Y4166640D01*
X1259960Y4172960D01*
X1259620Y4178880D01*
X1259340Y4181840D01*
X1258500Y4187700D01*
X1257340Y4193519D01*
X1255860Y4199260D01*
X1254060Y4204920D01*
X1251960Y4210460D01*
X1249540Y4215860D01*
X1246820Y4221140D01*
X1243800Y4226240D01*
X1240500Y4231180D01*
X1236940Y4235900D01*
X1233120Y4240440D01*
X1229040Y4244740D01*
X1184560Y4289240D01*
X1114960Y4307480D01*
G37*
G36*
X842760Y4032480D02*
G01*
X836420Y4032320D01*
X830100Y4031840D01*
X823800Y4031040D01*
X817560Y4029920D01*
X811380Y4028500D01*
X805280Y4026740D01*
X799280Y4024700D01*
X793379Y4022340D01*
X787620Y4019700D01*
X782000Y4016760D01*
X776540Y4013540D01*
X771240Y4010040D01*
X766120Y4006300D01*
X761200Y4002280D01*
X756500Y3998039D01*
X736480Y3978060D01*
X731979Y3973340D01*
X727760Y3968380D01*
X723780Y3963200D01*
X720100Y3957820D01*
X716680Y3952260D01*
X713580Y3946540D01*
X710759Y3940659D01*
X708280Y3934640D01*
X707140Y3931580D01*
X705120Y3925380D01*
X703439Y3919080D01*
X702080Y3912700D01*
X701060Y3906259D01*
X700380Y3899780D01*
X700040Y3893260D01*
X700040Y3887200D01*
X700360Y3881580D01*
X701020Y3876000D01*
X702000Y3870480D01*
X702600Y3867720D01*
X704060Y3862300D01*
X705819Y3856980D01*
X707900Y3851760D01*
X709040Y3849180D01*
X711560Y3844160D01*
X714380Y3839300D01*
X717460Y3834620D01*
X720819Y3830100D01*
X724419Y3825800D01*
X728280Y3821720D01*
X761919Y3788140D01*
X765939Y3784580D01*
X770180Y3781300D01*
X774620Y3778279D01*
X779240Y3775560D01*
X784020Y3773120D01*
X788940Y3771000D01*
X791440Y3770040D01*
X796540Y3768380D01*
X801740Y3767060D01*
X807000Y3766060D01*
X812320Y3765380D01*
X817680Y3765040D01*
X865500Y3765000D01*
X871760Y3765160D01*
X878000Y3765659D01*
X884200Y3766480D01*
X887280Y3767000D01*
X893400Y3768300D01*
X899440Y3769920D01*
X905400Y3771860D01*
X911240Y3774100D01*
X916940Y3776640D01*
X922520Y3779480D01*
X927940Y3782600D01*
X933180Y3786019D01*
X938240Y3789700D01*
X943100Y3793639D01*
X947760Y3797820D01*
X951100Y3801100D01*
X955740Y3805980D01*
X960120Y3811080D01*
X964240Y3816400D01*
X968080Y3821940D01*
X971640Y3827640D01*
X974920Y3833519D01*
X977880Y3839560D01*
X980520Y3845740D01*
X981740Y3848880D01*
X983920Y3855240D01*
X985759Y3861720D01*
X987280Y3868279D01*
X987920Y3871580D01*
X988940Y3878220D01*
X989620Y3884920D01*
X989960Y3891640D01*
X989960Y3897960D01*
X989620Y3903880D01*
X989340Y3906840D01*
X988500Y3912700D01*
X987340Y3918519D01*
X985860Y3924260D01*
X984060Y3929920D01*
X981960Y3935460D01*
X979539Y3940860D01*
X976820Y3946139D01*
X973800Y3951240D01*
X970500Y3956180D01*
X966940Y3960899D01*
X963120Y3965440D01*
X959040Y3969740D01*
X914560Y4014240D01*
X844960Y4032480D01*
G37*
G36*
X567760Y4312480D02*
G01*
X561420Y4312320D01*
X555100Y4311840D01*
X548800Y4311040D01*
X542560Y4309920D01*
X536380Y4308500D01*
X530280Y4306740D01*
X524280Y4304700D01*
X518380Y4302340D01*
X512620Y4299700D01*
X507000Y4296760D01*
X501540Y4293540D01*
X496240Y4290040D01*
X491120Y4286300D01*
X486200Y4282280D01*
X481500Y4278040D01*
X461480Y4258060D01*
X456980Y4253340D01*
X452760Y4248380D01*
X448780Y4243200D01*
X445100Y4237820D01*
X441680Y4232260D01*
X438579Y4226540D01*
X435760Y4220660D01*
X433280Y4214640D01*
X432140Y4211580D01*
X430120Y4205380D01*
X428440Y4199080D01*
X427080Y4192700D01*
X426060Y4186259D01*
X425379Y4179780D01*
X425040Y4173260D01*
X425040Y4167200D01*
X425360Y4161580D01*
X426019Y4156000D01*
X427000Y4150480D01*
X427600Y4147720D01*
X429060Y4142300D01*
X430820Y4136980D01*
X432900Y4131760D01*
X434040Y4129180D01*
X436560Y4124160D01*
X439380Y4119300D01*
X442460Y4114620D01*
X445820Y4110100D01*
X449420Y4105800D01*
X453280Y4101720D01*
X486920Y4068140D01*
X490940Y4064580D01*
X495180Y4061300D01*
X499620Y4058279D01*
X504240Y4055560D01*
X509020Y4053120D01*
X513940Y4051000D01*
X516440Y4050040D01*
X521540Y4048380D01*
X526740Y4047060D01*
X532000Y4046060D01*
X537320Y4045380D01*
X542680Y4045040D01*
X590500Y4045000D01*
X596760Y4045160D01*
X603000Y4045659D01*
X609200Y4046480D01*
X612280Y4047000D01*
X618400Y4048300D01*
X624440Y4049920D01*
X630400Y4051860D01*
X636240Y4054100D01*
X641940Y4056640D01*
X647520Y4059480D01*
X652940Y4062600D01*
X658180Y4066019D01*
X663240Y4069700D01*
X668100Y4073639D01*
X672760Y4077820D01*
X676100Y4081100D01*
X680740Y4085980D01*
X685120Y4091080D01*
X689240Y4096400D01*
X693080Y4101940D01*
X696640Y4107640D01*
X699920Y4113519D01*
X702880Y4119560D01*
X705520Y4125740D01*
X706740Y4128880D01*
X708920Y4135240D01*
X710759Y4141720D01*
X712280Y4148279D01*
X712920Y4151580D01*
X713940Y4158220D01*
X714620Y4164920D01*
X714960Y4171640D01*
X714960Y4177960D01*
X714620Y4183880D01*
X714340Y4186840D01*
X713500Y4192700D01*
X712340Y4198520D01*
X710860Y4204260D01*
X709060Y4209920D01*
X706960Y4215460D01*
X704539Y4220860D01*
X701820Y4226140D01*
X698800Y4231240D01*
X695500Y4236180D01*
X691940Y4240900D01*
X688120Y4245440D01*
X684040Y4249740D01*
X639560Y4294240D01*
X569960Y4312480D01*
G37*
G36*
X837760Y5942480D02*
G01*
X831420Y5942320D01*
X825100Y5941840D01*
X818800Y5941040D01*
X812560Y5939920D01*
X806380Y5938500D01*
X800280Y5936740D01*
X794280Y5934700D01*
X788379Y5932340D01*
X782620Y5929700D01*
X777000Y5926760D01*
X771540Y5923540D01*
X766240Y5920040D01*
X761120Y5916300D01*
X756200Y5912279D01*
X751500Y5908040D01*
X731480Y5888060D01*
X726979Y5883339D01*
X722760Y5878380D01*
X718780Y5873200D01*
X715100Y5867820D01*
X711680Y5862260D01*
X708580Y5856540D01*
X705759Y5850660D01*
X703280Y5844640D01*
X702140Y5841580D01*
X700120Y5835380D01*
X698439Y5829080D01*
X697080Y5822700D01*
X696060Y5816260D01*
X695380Y5809779D01*
X695040Y5803260D01*
X695040Y5797200D01*
X695360Y5791580D01*
X696020Y5786000D01*
X697000Y5780480D01*
X697600Y5777720D01*
X699060Y5772300D01*
X700819Y5766980D01*
X702900Y5761760D01*
X704040Y5759180D01*
X706560Y5754160D01*
X709380Y5749299D01*
X712460Y5744620D01*
X715819Y5740100D01*
X719419Y5735800D01*
X723280Y5731720D01*
X756919Y5698140D01*
X760939Y5694580D01*
X765180Y5691300D01*
X769620Y5688280D01*
X774240Y5685560D01*
X779020Y5683120D01*
X783940Y5681000D01*
X786440Y5680040D01*
X791540Y5678380D01*
X796740Y5677060D01*
X802000Y5676060D01*
X807320Y5675380D01*
X812680Y5675040D01*
X860500Y5675000D01*
X866760Y5675160D01*
X873000Y5675660D01*
X879200Y5676480D01*
X882280Y5677000D01*
X888400Y5678300D01*
X894440Y5679920D01*
X900400Y5681860D01*
X906240Y5684100D01*
X911940Y5686640D01*
X917520Y5689480D01*
X922940Y5692600D01*
X928180Y5696020D01*
X933240Y5699700D01*
X938100Y5703640D01*
X942760Y5707820D01*
X946100Y5711100D01*
X950740Y5715980D01*
X955120Y5721079D01*
X959240Y5726400D01*
X963080Y5731940D01*
X966640Y5737640D01*
X969920Y5743520D01*
X972880Y5749560D01*
X975520Y5755740D01*
X976740Y5758880D01*
X978920Y5765240D01*
X980759Y5771720D01*
X982280Y5778280D01*
X982920Y5781580D01*
X983940Y5788220D01*
X984620Y5794920D01*
X984960Y5801640D01*
X984960Y5807960D01*
X984620Y5813880D01*
X984340Y5816840D01*
X983500Y5822700D01*
X982340Y5828520D01*
X980860Y5834260D01*
X979060Y5839920D01*
X976960Y5845460D01*
X974539Y5850860D01*
X971820Y5856140D01*
X968800Y5861240D01*
X965500Y5866180D01*
X961940Y5870900D01*
X958120Y5875440D01*
X954040Y5879740D01*
X909560Y5924240D01*
X839960Y5942480D01*
G37*
G36*
X1112760Y5672480D02*
G01*
X1106420Y5672320D01*
X1100100Y5671840D01*
X1093800Y5671040D01*
X1087560Y5669920D01*
X1081380Y5668500D01*
X1075280Y5666740D01*
X1069280Y5664700D01*
X1063380Y5662340D01*
X1057620Y5659700D01*
X1052000Y5656760D01*
X1046540Y5653540D01*
X1041240Y5650040D01*
X1036120Y5646300D01*
X1031200Y5642279D01*
X1026500Y5638040D01*
X1006480Y5618060D01*
X1001979Y5613339D01*
X997760Y5608380D01*
X993780Y5603200D01*
X990100Y5597820D01*
X986680Y5592260D01*
X983580Y5586540D01*
X980759Y5580660D01*
X978280Y5574640D01*
X977140Y5571580D01*
X975120Y5565380D01*
X973439Y5559080D01*
X972080Y5552700D01*
X971060Y5546260D01*
X970380Y5539779D01*
X970040Y5533260D01*
X970040Y5527200D01*
X970360Y5521580D01*
X971020Y5516000D01*
X972000Y5510480D01*
X972600Y5507720D01*
X974060Y5502300D01*
X975819Y5496980D01*
X977900Y5491760D01*
X979040Y5489180D01*
X981560Y5484160D01*
X984380Y5479299D01*
X987460Y5474620D01*
X990819Y5470100D01*
X994419Y5465800D01*
X998280Y5461720D01*
X1031919Y5428140D01*
X1035939Y5424580D01*
X1040180Y5421300D01*
X1044620Y5418280D01*
X1049240Y5415560D01*
X1054020Y5413120D01*
X1058940Y5411000D01*
X1061440Y5410040D01*
X1066540Y5408380D01*
X1071740Y5407060D01*
X1077000Y5406060D01*
X1082320Y5405380D01*
X1087680Y5405040D01*
X1135500Y5405000D01*
X1141760Y5405160D01*
X1148000Y5405660D01*
X1154200Y5406480D01*
X1157280Y5407000D01*
X1163400Y5408300D01*
X1169440Y5409920D01*
X1175400Y5411860D01*
X1181240Y5414100D01*
X1186940Y5416640D01*
X1192520Y5419480D01*
X1197940Y5422600D01*
X1203180Y5426020D01*
X1208240Y5429700D01*
X1213100Y5433640D01*
X1217760Y5437820D01*
X1221100Y5441100D01*
X1225740Y5445980D01*
X1230120Y5451079D01*
X1234240Y5456400D01*
X1238080Y5461940D01*
X1241640Y5467640D01*
X1244920Y5473520D01*
X1247880Y5479560D01*
X1250520Y5485740D01*
X1251740Y5488880D01*
X1253920Y5495240D01*
X1255760Y5501720D01*
X1257280Y5508280D01*
X1257920Y5511580D01*
X1258940Y5518220D01*
X1259620Y5524920D01*
X1259960Y5531640D01*
X1259960Y5537960D01*
X1259620Y5543880D01*
X1259340Y5546840D01*
X1258500Y5552700D01*
X1257340Y5558520D01*
X1255860Y5564260D01*
X1254060Y5569920D01*
X1251960Y5575460D01*
X1249540Y5580860D01*
X1246820Y5586140D01*
X1243800Y5591240D01*
X1240500Y5596180D01*
X1236940Y5600900D01*
X1233120Y5605440D01*
X1229040Y5609740D01*
X1184560Y5654240D01*
X1114960Y5672480D01*
G37*
G36*
X837760Y5397480D02*
G01*
X831420Y5397320D01*
X825100Y5396840D01*
X818800Y5396040D01*
X812560Y5394920D01*
X806380Y5393500D01*
X800280Y5391740D01*
X794280Y5389700D01*
X788379Y5387340D01*
X782620Y5384700D01*
X777000Y5381760D01*
X771540Y5378540D01*
X766240Y5375040D01*
X761120Y5371300D01*
X756200Y5367279D01*
X751500Y5363040D01*
X731480Y5343060D01*
X726979Y5338339D01*
X722760Y5333380D01*
X718780Y5328200D01*
X715100Y5322820D01*
X711680Y5317260D01*
X708580Y5311540D01*
X705759Y5305660D01*
X703280Y5299640D01*
X702140Y5296580D01*
X700120Y5290380D01*
X698439Y5284080D01*
X697080Y5277700D01*
X696060Y5271260D01*
X695380Y5264779D01*
X695040Y5258260D01*
X695040Y5252200D01*
X695360Y5246580D01*
X696020Y5241000D01*
X697000Y5235480D01*
X697600Y5232720D01*
X699060Y5227300D01*
X700819Y5221980D01*
X702900Y5216760D01*
X704040Y5214180D01*
X706560Y5209160D01*
X709380Y5204299D01*
X712460Y5199620D01*
X715819Y5195100D01*
X719419Y5190800D01*
X723280Y5186720D01*
X756919Y5153140D01*
X760939Y5149580D01*
X765180Y5146300D01*
X769620Y5143280D01*
X774240Y5140560D01*
X779020Y5138120D01*
X783940Y5136000D01*
X786440Y5135040D01*
X791540Y5133380D01*
X796740Y5132060D01*
X802000Y5131060D01*
X807320Y5130380D01*
X812680Y5130040D01*
X860500Y5130000D01*
X866760Y5130160D01*
X873000Y5130660D01*
X879200Y5131480D01*
X882280Y5132000D01*
X888400Y5133300D01*
X894440Y5134920D01*
X900400Y5136860D01*
X906240Y5139100D01*
X911940Y5141640D01*
X917520Y5144480D01*
X922940Y5147600D01*
X928180Y5151020D01*
X933240Y5154700D01*
X938100Y5158640D01*
X942760Y5162820D01*
X946100Y5166100D01*
X950740Y5170980D01*
X955120Y5176079D01*
X959240Y5181400D01*
X963080Y5186940D01*
X966640Y5192640D01*
X969920Y5198520D01*
X972880Y5204560D01*
X975520Y5210740D01*
X976740Y5213880D01*
X978920Y5220240D01*
X980759Y5226720D01*
X982280Y5233280D01*
X982920Y5236580D01*
X983940Y5243220D01*
X984620Y5249920D01*
X984960Y5256640D01*
X984960Y5262960D01*
X984620Y5268880D01*
X984340Y5271840D01*
X983500Y5277700D01*
X982340Y5283520D01*
X980860Y5289260D01*
X979060Y5294920D01*
X976960Y5300460D01*
X974539Y5305860D01*
X971820Y5311140D01*
X968800Y5316240D01*
X965500Y5321180D01*
X961940Y5325900D01*
X958120Y5330440D01*
X954040Y5334740D01*
X909560Y5379240D01*
X839960Y5397480D01*
G37*
G36*
X567760Y5677480D02*
G01*
X561420Y5677320D01*
X555100Y5676840D01*
X548800Y5676040D01*
X542560Y5674920D01*
X536380Y5673500D01*
X530280Y5671740D01*
X524280Y5669700D01*
X518380Y5667340D01*
X512620Y5664700D01*
X507000Y5661760D01*
X501540Y5658540D01*
X496240Y5655040D01*
X491120Y5651300D01*
X486200Y5647279D01*
X481500Y5643040D01*
X461480Y5623060D01*
X456980Y5618339D01*
X452760Y5613380D01*
X448780Y5608200D01*
X445100Y5602820D01*
X441680Y5597260D01*
X438579Y5591540D01*
X435760Y5585660D01*
X433280Y5579640D01*
X432140Y5576580D01*
X430120Y5570380D01*
X428440Y5564080D01*
X427080Y5557700D01*
X426060Y5551260D01*
X425379Y5544779D01*
X425040Y5538260D01*
X425040Y5532200D01*
X425360Y5526580D01*
X426019Y5521000D01*
X427000Y5515480D01*
X427600Y5512720D01*
X429060Y5507300D01*
X430820Y5501980D01*
X432900Y5496760D01*
X434040Y5494180D01*
X436560Y5489160D01*
X439380Y5484299D01*
X442460Y5479620D01*
X445820Y5475100D01*
X449420Y5470800D01*
X453280Y5466720D01*
X486920Y5433140D01*
X490940Y5429580D01*
X495180Y5426300D01*
X499620Y5423280D01*
X504240Y5420560D01*
X509020Y5418120D01*
X513940Y5416000D01*
X516440Y5415040D01*
X521540Y5413380D01*
X526740Y5412060D01*
X532000Y5411060D01*
X537320Y5410380D01*
X542680Y5410040D01*
X590500Y5410000D01*
X596760Y5410160D01*
X603000Y5410660D01*
X609200Y5411480D01*
X612280Y5412000D01*
X618400Y5413300D01*
X624440Y5414920D01*
X630400Y5416860D01*
X636240Y5419100D01*
X641940Y5421640D01*
X647520Y5424480D01*
X652940Y5427600D01*
X658180Y5431020D01*
X663240Y5434700D01*
X668100Y5438640D01*
X672760Y5442820D01*
X676100Y5446100D01*
X680740Y5450980D01*
X685120Y5456079D01*
X689240Y5461400D01*
X693080Y5466940D01*
X696640Y5472640D01*
X699920Y5478520D01*
X702880Y5484560D01*
X705520Y5490740D01*
X706740Y5493880D01*
X708920Y5500240D01*
X710759Y5506720D01*
X712280Y5513280D01*
X712920Y5516580D01*
X713940Y5523220D01*
X714620Y5529920D01*
X714960Y5536640D01*
X714960Y5542960D01*
X714620Y5548880D01*
X714340Y5551840D01*
X713500Y5557700D01*
X712340Y5563520D01*
X710860Y5569260D01*
X709060Y5574920D01*
X706960Y5580460D01*
X704539Y5585860D01*
X701820Y5591140D01*
X698800Y5596240D01*
X695500Y5601180D01*
X691940Y5605900D01*
X688120Y5610440D01*
X684040Y5614740D01*
X639560Y5659240D01*
X569960Y5677480D01*
G37*
D10*
G01*
X4675000Y4220000D03*
G01*
X4965000Y4225000D03*
G01*
X4415000Y3965000D03*
G01*
X4705000Y3970000D03*
G01*
X2660000Y3674989D03*
G01*
X2960000Y3674989D03*
G01*
X1765000Y3674989D03*
G01*
X2065000Y3674989D03*
G01*
X2195000Y3674989D03*
G01*
X2495000Y3674989D03*
G01*
X700000Y4440000D03*
G01*
X990000Y4445000D03*
G01*
X970000Y4165000D03*
G01*
X1260000Y4170000D03*
G01*
X700000Y3890000D03*
G01*
X990000Y3895000D03*
G01*
X425000Y4170000D03*
G01*
X715000Y4175000D03*
G01*
X695000Y5800000D03*
G01*
X985000Y5805000D03*
G01*
X970000Y5530000D03*
G01*
X1260000Y5535000D03*
G01*
X695000Y5255000D03*
G01*
X985000Y5260000D03*
G01*
X425000Y5535000D03*
G01*
X715000Y5540000D03*
D11*
G01*
X2177599Y4276378D03*
G01*
X2252400Y4276378D03*
G01*
X2215000Y4373622D03*
G01*
X2312599Y4276378D03*
G01*
X2387400Y4276378D03*
G01*
X2350000Y4373622D03*
G01*
X2452599Y4276378D03*
G01*
X2527400Y4276378D03*
G01*
X2490000Y4373622D03*
D12*
G01*
X2170627Y4185000D03*
G01*
X2249372Y4185000D03*
D13*
G01*
X2215000Y4630628D03*
G01*
X2215000Y4709371D03*
G01*
X2350000Y4630628D03*
G01*
X2350000Y4709371D03*
D12*
G01*
X2315627Y4185000D03*
G01*
X2394372Y4185000D03*
D13*
G01*
X2485000Y4630628D03*
G01*
X2485000Y4709371D03*
D12*
G01*
X2460627Y4185000D03*
G01*
X2539372Y4185000D03*

G04 SwanSong USB replacement circuitry*
%LPC*%
G36*
G01*
X2580000Y4130000D02*
X2580000Y4750000D01*
X2120000Y4750000D01*
X2120000Y4130000D01*
X2580000Y4130000D01*
G37*
M02*
